<svg width="14" height="16" viewBox="0 0 14 16" fill="none" xmlns="http://www.w3.org/2000/svg">
    <path fill-rule="evenodd" clip-rule="evenodd" d="M6.075 3h6.158c.86.026 1.767.738 1.767 1.612v9.76c0 .89-.923 1.624-1.813 1.624H1.613A1.621 1.621 0 010 14.373v-9.76A1.62 1.62 0 011.567 3h4.508zm-1.44 4c.202 0 .365.163.365.364v1.272A.364.364 0 014.636 9H3.364A.364.364 0 013 8.636V7.364C3 7.163 3.163 7 3.364 7h1.272zm3.001 0c.2 0 .364.163.364.364v1.272A.364.364 0 017.636 9H6.364A.364.364 0 016 8.636V7.364C6 7.163 6.163 7 6.364 7h1.272zM11 7.364A.364.364 0 0010.636 7H9.364A.364.364 0 009 7.364v1.272c0 .201.163.364.364.364h1.272A.364.364 0 0011 8.636V7.364zM4.834 11c.226 0 .409.163.409.364v1.272c0 .201-.183.364-.409.364H3.408C3.183 13 3 12.837 3 12.636v-1.272c0-.201.183-.364.408-.364h1.426zM8 11.364A.364.364 0 007.636 11H6.364a.364.364 0 00-.364.364v1.272c0 .201.163.364.364.364h1.272c.2 0 .364-.163.364-.364v-1.272zM10.636 11c.2 0 .364.163.364.364v1.272a.364.364 0 01-.364.364H9.364A.364.364 0 019 12.636v-1.272c0-.201.163-.364.364-.364h1.272z" fill="#B3CDD7"/>
    <path d="M2.544 6h1.112c.338 0 .611-.342.611-.765V.765c0-.423-.273-.765-.61-.765H2.543c-.338 0-.611.342-.611.765v4.47c0 .423.273.765.61.765zm7.768 0h1.113c.337 0 .61-.342.61-.765V.765c0-.423-.273-.765-.61-.765h-1.113c-.337 0-.61.342-.61.765v4.47c0 .423.273.765.61.765z" fill="#B3CDD7"/>
</svg>
