<svg width="15" height="18" viewBox="0 0 15 18" fill="none" xmlns="http://www.w3.org/2000/svg">
    <path d="M10.104 0h-7.23C1.82 0 .96.86.96 1.916V9H.772A.772.772 0 000 9.772v4.682c0 .426.346.772.772.772h.187v.858A1.92 1.92 0 002.875 18h9.864c1.056 0 1.915-.86 1.915-1.916V4.534L10.104 0zM1.277 10.415c.27-.043.621-.067.992-.067.617 0 1.017.11 1.33.347.337.25.55.65.55 1.223 0 .622-.227 1.05-.54 1.316-.342.284-.863.418-1.498.418-.381 0-.65-.024-.834-.048v-3.189zm11.462 6.412H2.875a.743.743 0 01-.742-.743v-.858h9.196a.772.772 0 00.772-.772V9.772A.772.772 0 0011.329 9H2.133V1.916c0-.409.333-.742.742-.742l6.79-.007v2.51c0 .734.595 1.329 1.329 1.329l2.459-.007.028 11.085c0 .41-.333.743-.742.743zM4.482 12.02c0-.973.622-1.7 1.58-1.7.998 0 1.542.746 1.542 1.642 0 1.064-.645 1.71-1.594 1.71-.964 0-1.528-.727-1.528-1.652zm5.268 1.04c.221 0 .467-.048.611-.106l.111.573c-.135.068-.438.14-.833.14-1.123 0-1.7-.698-1.7-1.623 0-1.108.79-1.725 1.772-1.725.38 0 .67.077.8.144l-.15.584a1.577 1.577 0 00-.616-.121c-.583 0-1.036.352-1.036 1.074 0 .65.385 1.06 1.04 1.06z" fill="#165280"/>
    <path d="M3.368 11.943c.005-.675-.39-1.03-1.021-1.03-.164 0-.27.013-.333.028v2.124c.063.015.164.015.256.015.664.004 1.098-.362 1.098-1.137zm3.461.043c0-.582-.28-1.084-.786-1.084-.496 0-.785.473-.785 1.104 0 .636.299 1.083.79 1.083.496 0 .78-.472.78-1.103z" fill="#165280"/>
</svg>
