<svg width="30" height="37" viewBox="0 0 30 37" fill="none" xmlns="http://www.w3.org/2000/svg">
    <path d="M20.209.002H5.749a3.837 3.837 0 00-3.83 3.831v14.169h-.375c-.853 0-1.544.69-1.544 1.544v9.363c0 .854.691 1.544 1.544 1.544h.374v1.717a3.836 3.836 0 003.832 3.832h19.728a3.835 3.835 0 003.83-3.832V9.07l-9.1-9.068zM2.554 20.832a13.22 13.22 0 011.985-.134c1.233 0 2.033.221 2.66.693.674.501 1.097 1.301 1.097 2.448 0 1.242-.452 2.1-1.079 2.63-.683.568-1.724.838-2.996.838-.761 0-1.3-.049-1.667-.097v-6.378zM25.48 33.655H5.748a1.486 1.486 0 01-1.483-1.485v-1.717h18.391c.853 0 1.544-.69 1.544-1.544v-9.363c0-.854-.691-1.544-1.544-1.544H4.266V3.833c0-.816.666-1.482 1.484-1.482l13.581-.015v5.02a2.658 2.658 0 002.657 2.658L26.906 10l.055 22.17c0 .82-.665 1.485-1.482 1.485zM8.965 24.041c0-1.946 1.242-3.401 3.16-3.401 1.995 0 3.083 1.493 3.083 3.285 0 2.13-1.29 3.42-3.189 3.42-1.927 0-3.054-1.454-3.054-3.304zm10.534 2.08c.443 0 .935-.096 1.224-.211l.221 1.146c-.27.135-.876.28-1.666.28-2.245 0-3.401-1.397-3.401-3.247 0-2.216 1.58-3.449 3.545-3.449.761 0 1.34.154 1.6.288l-.299 1.167a3.158 3.158 0 00-1.233-.242c-1.166 0-2.072.704-2.072 2.15 0 1.3.77 2.119 2.081 2.119z" fill="#165280"/>
    <path d="M6.737 23.884c.01-1.35-.78-2.062-2.043-2.062-.328 0-.54.028-.665.058v4.248c.126.03.328.03.511.03 1.33.009 2.197-.723 2.197-2.274zm6.92.088c0-1.165-.559-2.168-1.57-2.168-.993 0-1.571.945-1.571 2.207 0 1.272.597 2.168 1.58 2.168.993 0 1.561-.944 1.561-2.207z" fill="#165280"/>
</svg>
