<svg width="221" height="74" viewBox="0 0 221 74" fill="none" xmlns="http://www.w3.org/2000/svg">
    <path d="M0 70.182v-13.49h2.507v5.853l4.213-5.854h2.994l-5.086 6.64 5.08 6.85h-2.99l-4.212-5.906v5.907H0zm11.095 3.373V60.082h2.234v1.315h.037c.304-.5.75-.895 1.32-1.196.575-.297 1.218-.442 1.939-.442 1.42 0 2.62.498 3.605 1.491.99 1 1.485 2.292 1.485 3.885 0 1.47-.467 2.734-1.386 3.79-.93 1.06-2.164 1.588-3.704 1.588a4.324 4.324 0 01-1.69-.337 3.323 3.323 0 01-1.365-1.087h-.04v4.464h-2.435v.002zm5.273-11.503c-.888.013-1.61.306-2.16.887-.548.576-.823 1.31-.823 2.196 0 .944.27 1.698.805 2.25.539.554 1.232.826 2.092.826.862 0 1.576-.29 2.136-.87.566-.587.854-1.324.863-2.226-.009-.874-.288-1.604-.83-2.187-.545-.582-1.236-.876-2.083-.876zm16.919-1.97v10.1H31.05v-1.364h-.038c-.426.567-.937.993-1.523 1.264a4.606 4.606 0 01-1.863.43c-1.355 0-2.519-.486-3.496-1.457-.979-.975-1.465-2.248-1.465-3.832 0-1.566.486-2.873 1.455-3.913.97-1.036 2.164-1.553 3.577-1.553.712 0 1.346.145 1.919.442.563.3 1.03.734 1.395 1.304h.038v-1.424h2.238v.003zm-5.202 1.97c-.878 0-1.596.3-2.15.902-.557.605-.832 1.357-.832 2.27-.013.875.26 1.592.813 2.152.554.56 1.28.836 2.17.836.869 0 1.565-.283 2.103-.85.54-.572.808-1.322.808-2.246 0-.874-.269-1.604-.808-2.187-.538-.583-1.234-.877-2.104-.877zM42.696 66.9h2.748c-.403 1.107-1.036 1.985-1.898 2.637-.86.65-1.901.973-3.121.973-1.611 0-2.944-.511-4.008-1.528-1.064-1.021-1.591-2.33-1.591-3.923 0-1.505.518-2.768 1.563-3.782 1.043-1.017 2.357-1.523 3.946-1.523 1.255 0 2.336.335 3.24 1.003.902.668 1.525 1.564 1.87 2.683h-2.748a2.502 2.502 0 00-.98-1.023c-.41-.23-.883-.35-1.42-.364-.938 0-1.68.294-2.221.884-.545.591-.817 1.31-.817 2.159 0 .902.278 1.649.832 2.243.555.598 1.294.889 2.207.874.514 0 .982-.104 1.4-.314.42-.217.753-.546.998-.998zm4.285-6.818h2.437v3.72h3.772v-3.72h2.435v10.1H53.19v-4.23h-3.772v4.23h-2.437v-10.1zm15.487-.323c1.527 0 2.805.527 3.84 1.585 1.027 1.056 1.545 2.326 1.545 3.806 0 1.498-.519 2.764-1.544 3.802-1.035 1.045-2.314 1.562-3.841 1.562-1.538 0-2.816-.517-3.844-1.562-1.03-1.038-1.539-2.304-1.539-3.802 0-1.48.51-2.75 1.539-3.806 1.028-1.058 2.307-1.585 3.844-1.585zm0 2.293c-.88 0-1.586.304-2.13.913-.542.604-.816 1.337-.816 2.185-.012.855.256 1.576.806 2.172.552.594 1.261.89 2.141.89.869.014 1.576-.282 2.126-.88.547-.604.822-1.328.822-2.183 0-.849-.275-1.58-.822-2.185-.551-.607-1.259-.912-2.127-.912zm14.759-1.97v10.104h-2.434v-3.885l-3.007 3.885H68.74l3.062-3.574c-.827-.087-1.482-.426-1.965-1.022-.48-.596-.72-1.315-.72-2.151 0-.913.33-1.7.99-2.355.658-.656 1.563-.99 2.708-1.003h4.412v.001zm-2.434 4.687v-2.534h-1.885c-.428 0-.76.12-1 .368-.238.24-.355.562-.355.964 0 .353.117.64.356.868.239.221.572.335.999.335h1.885v-.001zm4.409 8.786V60.082h2.234v1.315h.036c.304-.5.747-.895 1.32-1.196.57-.297 1.22-.442 1.94-.442 1.415 0 2.616.498 3.605 1.491.99 1 1.485 2.292 1.485 3.885 0 1.47-.467 2.734-1.393 3.79-.927 1.06-2.16 1.588-3.697 1.588a4.346 4.346 0 01-1.694-.337 3.348 3.348 0 01-1.364-1.087h-.035v4.464h-2.437v.002zm5.273-11.503c-.893.013-1.612.306-2.159.887-.55.576-.824 1.31-.824 2.196 0 .944.265 1.698.805 2.25.537.554 1.231.826 2.089.826.864 0 1.579-.29 2.14-.87.561-.587.85-1.324.862-2.226-.012-.874-.292-1.604-.832-2.187-.546-.582-1.239-.876-2.08-.876zM98.722 66.9h2.747c-.402 1.107-1.038 1.985-1.893 2.637-.866.65-1.906.973-3.124.973-1.61 0-2.948-.511-4.012-1.528-1.065-1.021-1.59-2.33-1.59-3.923 0-1.505.517-2.768 1.565-3.782 1.044-1.017 2.355-1.523 3.942-1.523 1.257 0 2.337.335 3.244 1.003.9.668 1.522 1.564 1.868 2.683h-2.747a2.513 2.513 0 00-.981-1.023c-.411-.23-.88-.35-1.418-.364-.938 0-1.683.294-2.227.884-.543.591-.815 1.31-.815 2.159 0 .902.28 1.649.832 2.243.56.598 1.295.889 2.21.874.515 0 .983-.104 1.398-.314a2.35 2.35 0 001.001-.998zm4.282 3.282v-10.1h2.437v4.632l3.625-4.632h2.904l-4.049 4.74 4.253 5.36h-3.073l-3.66-4.847v4.847h-2.437zm9.264-3.282h2.748c.219.452.529.782.943.996.41.21.886.315 1.437.315.744.015 1.364-.163 1.868-.536.5-.372.846-.861 1.041-1.468h-4.189v-2.152h4.189a2.765 2.765 0 00-1.026-1.449c-.5-.37-1.116-.555-1.849-.555-.523 0-1.002.113-1.436.344a2.23 2.23 0 00-.979 1.043h-2.747c.333-1.105.947-1.998 1.85-2.675.905-.672 1.999-1.01 3.278-1.01 1.562 0 2.867.502 3.918 1.515 1.05 1.006 1.574 2.272 1.574 3.79 0 1.593-.535 2.901-1.609 3.923-1.077 1.018-2.401 1.528-3.974 1.528-1.222 0-2.269-.324-3.15-.973-.877-.65-1.508-1.529-1.887-2.635zm12.159-6.818h2.435v3.72h3.773v-3.72h2.435v10.1h-2.435v-4.23h-3.773v4.23h-2.435v-10.1zm20.74 6.126h-7.946c.149.62.463 1.109.944 1.468.484.36 1.054.536 1.714.536.481.016.923-.062 1.311-.227a2.48 2.48 0 00.959-.717h2.746c-.428 1.008-1.075 1.8-1.942 2.379-.868.574-1.862.864-2.987.864-1.522 0-2.796-.509-3.826-1.527-1.022-1.026-1.536-2.28-1.536-3.777 0-1.496.517-2.775 1.545-3.845 1.033-1.067 2.316-1.606 3.855-1.606 1.526 0 2.774.52 3.743 1.549.974 1.033 1.463 2.31 1.473 3.828 0 .247-.003.446-.016.612-.014.165-.024.316-.037.463zm-7.981-2.152h5.495c-.174-.62-.504-1.109-.991-1.466a2.763 2.763 0 00-1.684-.538c-.671.009-1.264.198-1.765.556-.509.359-.862.84-1.055 1.448zm9.574 9.499V60.082h2.233v1.315h.038c.303-.5.743-.895 1.317-1.196.575-.297 1.221-.442 1.94-.442 1.42 0 2.617.498 3.609 1.491.989 1 1.485 2.292 1.485 3.885 0 1.47-.468 2.734-1.393 3.79-.928 1.06-2.163 1.588-3.701 1.588a4.303 4.303 0 01-1.689-.337 3.37 3.37 0 01-1.37-1.087h-.033v4.464h-2.436v.002zm5.273-11.503c-.89.013-1.612.306-2.16.887-.547.576-.824 1.31-.824 2.196 0 .944.27 1.698.806 2.25.537.554 1.231.826 2.091.826.864 0 1.577-.29 2.138-.87.564-.587.852-1.324.86-2.226-.009-.874-.288-1.604-.829-2.187-.546-.582-1.24-.876-2.082-.876zm6.813-1.97h5.745v2.153h-3.31v7.947h-2.435v-10.1zm11.827-.323c1.522 0 2.805.527 3.837 1.585 1.03 1.056 1.546 2.326 1.546 3.806 0 1.498-.517 2.764-1.546 3.802-1.032 1.045-2.315 1.562-3.837 1.562-1.538 0-2.824-.517-3.846-1.562-1.026-1.038-1.539-2.304-1.539-3.802 0-1.48.513-2.75 1.539-3.806 1.022-1.058 2.308-1.585 3.846-1.585zm0 2.293c-.882 0-1.59.304-2.136.913-.541.604-.815 1.337-.815 2.185-.012.855.258 1.576.806 2.172.551.594 1.264.89 2.145.89.867.014 1.573-.282 2.124-.88.549-.604.824-1.328.824-2.183 0-.849-.275-1.58-.824-2.185-.551-.607-1.257-.912-2.124-.912zm14.278 4.848h2.75c-.402 1.107-1.036 1.985-1.898 2.637-.86.65-1.9.973-3.122.973-1.61 0-2.946-.511-4.013-1.528-1.058-1.021-1.59-2.33-1.59-3.923 0-1.505.523-2.768 1.569-3.782 1.041-1.017 2.356-1.523 3.941-1.523 1.259 0 2.337.335 3.242 1.003.901.668 1.526 1.564 1.871 2.683h-2.75c-.247-.451-.569-.794-.977-1.023-.41-.23-.882-.35-1.42-.364-.94 0-1.682.294-2.228.884-.54.591-.812 1.31-.812 2.159 0 .902.279 1.649.832 2.243.555.598 1.293.889 2.208.874a3.11 3.11 0 001.401-.314c.419-.217.749-.546.996-.998zm14.137-10.209v2.152l-3.936.075c-1.279.022-2.287.302-3.012.846-.729.54-1.163 1.313-1.309 2.326h.034a4.29 4.29 0 011.593-1.368c.65-.332 1.39-.494 2.236-.494 1.403 0 2.555.451 3.457 1.35.906.901 1.357 2.084 1.357 3.557 0 1.578-.506 2.868-1.52 3.875-1.01.998-2.331 1.5-3.953 1.5-1.743 0-3.064-.532-3.955-1.6-.891-1.07-1.337-2.639-1.337-4.704-.013-2.288.504-4.085 1.565-5.4 1.055-1.31 2.69-1.992 4.901-2.038l3.879-.077zm-4.907 5.689c-.843 0-1.533.268-2.077.804-.542.534-.815 1.239-.815 2.112 0 .902.26 1.611.786 2.136.524.522 1.227.784 2.106.784.865 0 1.565-.268 2.089-.802.521-.538.791-1.243.804-2.117-.013-.9-.285-1.609-.813-2.132-.533-.521-1.227-.785-2.08-.785zm6.774-2.298h2.436v3.54h2.179c.997 0 1.818.288 2.452.867.636.574.953 1.381.953 2.413-.014 1.022-.332 1.823-.963 2.408-.63.583-1.445.877-2.442.877h-4.615V60.082zm2.436 5.689v2.264h1.922c.389.008.69-.087.905-.295.212-.205.32-.485.32-.84 0-.336-.104-.608-.311-.81-.208-.2-.512-.306-.914-.319h-1.922zm6.701-5.689h2.437v10.1h-2.437v-10.1zm3.606 0h7.303v2.153h-2.432v7.947h-2.435v-7.947h-2.436v-2.153z" fill="#0066A5"/>
    <path d="M99.323 43.87a.016.016 0 01-.007-.002c.003.003.003.003.007.003zm-1.232-4.986c-.03.032-.068.068-.098.098l-.003.003c-.19.196-.36.398-.5.593l-.005.005a2.1 2.1 0 01-.06.087c-.003.005-.005.015-.01.02-.02.027-.033.056-.056.082-.003.015-.006.017-.013.026-.014.026-.03.048-.044.08-.003.007-.012.017-.016.023-.012.026-.03.055-.04.079-.003.005-.01.012-.013.025-.063.114-.113.238-.159.35-.002.014-.005.027-.009.03-.005.029-.016.05-.019.072l-.014.038c-.005.022-.012.045-.015.066a.151.151 0 01-.007.041c-.005.02-.014.037-.018.067-.003.013-.003.027-.003.037a.634.634 0 01-.009.061.112.112 0 00-.01.046.235.235 0 00-.01.059v.046l-.002.063v.06c0 .029 0 .058.002.09v.052c0 .02 0 .034.003.055 0 .018.005.03.01.052.007.016.007.036.01.052a.212.212 0 01.005.058.113.113 0 00.016.044c.003.027.01.045.012.06a.1.1 0 00.01.048c.005.02.015.041.02.06.002.018.009.031.011.047.01.021.015.044.026.068.005.015.009.028.014.036a.465.465 0 01.044.108c.016.035.036.07.055.107.003.01.01.02.016.03.012.025.032.047.041.073.012.014.022.027.022.042.018.022.028.04.048.068.007.014.016.024.026.036.012.026.035.044.048.071.011.014.018.027.025.039.023.02.039.049.057.073l.025.03a.37.37 0 01.068.084c.01.002.02.015.022.028.031.027.06.061.09.097.003 0 .003.006.008.008.067.066.139.143.224.208.009.014.015.02.018.027.03.032.063.058.103.085l.031.032c.03.023.06.051.088.081a.09.09 0 01.04.027c.03.026.066.058.103.081.009.01.025.018.032.029.04.026.077.055.115.085.01.011.02.014.028.022.047.03.092.065.142.097l.005.01c.055.036.111.074.166.107.167.113.342.22.535.32.197.105.391.202.59.302l.04.016c3.672 1.71 10.247 2.535 11.092 1.007.79-1.413-2.369-4.213-10.681-8.029-.924.58-1.698 1.15-2.272 1.72z" fill="url(#paint0_radial)"/>
    <path d="M109.12 1.343c-.786 1.407 2.37 4.211 10.683 8.03.055-.04.111-.073.162-.106v-.002c.37-.237.721-.467 1.034-.703 0-.002.006-.006.009-.009.046-.03.079-.063.121-.09.005 0 .009-.006.012-.01.048-.032.085-.064.12-.092.007-.003.012-.01.016-.016a2.59 2.59 0 01.117-.082v-.008c.172-.137.324-.27.47-.405l.1-.084c.005-.005.005-.015.014-.022.026-.026.055-.058.083-.079a.04.04 0 00.021-.029c.03-.025.058-.048.087-.075a.047.047 0 01.019-.025l.076-.077a.18.18 0 00.019-.028c.03-.028.051-.057.081-.082.002-.005.007-.005.007-.008a6.11 6.11 0 00.233-.285l.002-.006c.02-.028.042-.054.058-.08.005-.011.019-.02.023-.03l.049-.072c.004-.014.017-.022.027-.039.009-.018.027-.04.038-.063.009-.012.015-.024.027-.037.011-.024.025-.045.037-.067a.467.467 0 00.061-.105c.01-.012.015-.021.015-.033.015-.025.03-.047.039-.07l.01-.027c.029-.057.054-.11.072-.167 0-.004.002-.004.002-.01.01-.023.021-.043.027-.067.003-.015.01-.026.016-.037.003-.024.009-.041.016-.064.006-.016.012-.027.015-.045.003-.018.009-.034.016-.063.008-.01.01-.029.013-.04.003-.023.007-.04.009-.061a.133.133 0 01.012-.045l.009-.06c0-.016 0-.032.003-.054 0-.012.003-.03.003-.054.002-.013.002-.03.006-.047 0-.013.004-.042.004-.058V5.49c0-.033 0-.056-.004-.085 0-.015 0-.031-.002-.055a.255.255 0 00-.006-.048c0-.017 0-.042-.002-.055a.2.2 0 00-.007-.05c-.003-.024-.009-.04-.012-.05-.003-.027-.006-.037-.01-.058 0-.018-.005-.034-.011-.056-.003-.018-.018-.03-.018-.053a.402.402 0 00-.017-.055c-.004-.014-.011-.032-.013-.048-.007-.02-.017-.042-.026-.062a.067.067 0 00-.018-.043c-.009-.025-.016-.055-.031-.08-.005-.014-.009-.032-.014-.041-.02-.03-.032-.061-.052-.088a.165.165 0 00-.023-.044c-.007-.02-.022-.042-.031-.061-.006-.016-.019-.031-.028-.047-.013-.02-.029-.04-.038-.06-.013-.019-.019-.033-.033-.047-.015-.021-.025-.042-.043-.062a.172.172 0 00-.035-.045c-.013-.021-.029-.04-.044-.06-.01-.019-.024-.03-.036-.043a.249.249 0 00-.055-.068c-.009-.02-.022-.028-.038-.044a.909.909 0 01-.06-.074c-.016-.01-.027-.015-.032-.03-.033-.035-.069-.074-.1-.105a.07.07 0 00-.032-.021c-.026-.035-.053-.06-.082-.09a.193.193 0 00-.041-.03.423.423 0 00-.077-.07c-.016-.02-.028-.028-.044-.042-.028-.022-.054-.044-.081-.063-.018-.016-.03-.03-.046-.048-.032-.02-.06-.037-.083-.058a.333.333 0 00-.059-.046c-.029-.024-.055-.042-.083-.067-.021-.013-.033-.03-.06-.039a1.265 1.265 0 00-.096-.076c-.018-.009-.034-.022-.05-.029-.055-.037-.104-.075-.158-.11a5.979 5.979 0 00-.248-.155h-.003a16.3 16.3 0 00-.266-.156c-.007-.003-.009-.01-.018-.01-.192-.1-.391-.198-.587-.297l-.04-.02c-2.328-1.08-5.814-1.805-8.272-1.805-1.431.001-2.509.24-2.828.803z" fill="url(#paint1_radial)"/>
    <path d="M120.159 39.838c-6.746 3.171-13.889 6.69-10.066 6.711 10.196.047 19.079-6.558 22.189-16.215-1.229 2.65-4.478 5.902-12.123 9.504z" fill="url(#paint2_radial)"/>
    <path d="M120.863 2.67c.189.108.363.207.518.312 7.26 4.793-8.548 9.524-20.892 15.131-8.307 3.771-13.557 6.732-13.011 10.385.556 3.749 3.715 11.116 11.844 15.372a5.768 5.768 0 01-.536-.322c-7.256-4.793 8.546-9.52 20.894-15.128 8.307-3.77 13.563-6.727 13.017-10.38-.565-3.751-3.714-11.104-11.83-15.369h-.004z" fill="url(#paint3_radial)"/>
    <path d="M119.681 28.42c-3.119 1.421-6.464 2.78-9.594 4.103 5.252 2.206 9.923 4.313 11.994 6.366 2.348-1.204 4.211-2.368 5.68-3.477.006 0 .009-.01.02-.013.112-.09.227-.18.338-.264.008-.008.017-.008.024-.019.113-.086.22-.172.324-.256.011-.005.014-.013.019-.018.107-.082.206-.173.308-.25.002-.006.005-.006.009-.011.095-.084.19-.163.276-.238a.239.239 0 01.056-.047c.077-.075.155-.141.236-.215a.484.484 0 00.072-.07c.069-.06.142-.133.211-.197.028-.026.052-.054.083-.08a6.75 6.75 0 01.194-.188.831.831 0 01.086-.084c.044-.05.093-.098.14-.144.041-.045.083-.089.12-.134.038-.037.072-.077.108-.115.048-.055.098-.107.146-.157.032-.031.06-.065.089-.1.05-.06.105-.122.159-.185.018-.022.045-.048.06-.071.114-.135.215-.267.319-.402.003-.002.003-.01.01-.015.069-.085.129-.17.194-.253.003-.004.003-.01.003-.017a9.167 9.167 0 00.917-1.538c.197-.675.33-1.293.414-1.834.274-1.86-.944-3.537-3.299-5.23-2.287 1.643-5.63 3.296-9.716 5.153z" fill="url(#paint4_radial)"/>
    <path d="M91.076 12.218l-.028.022c-.09.08-.178.157-.26.237a.589.589 0 01-.054.042c-.079.076-.155.145-.227.223-.03.017-.042.035-.06.059-.077.066-.148.14-.218.204a.966.966 0 01-.063.065c-.055.063-.116.121-.172.184a.425.425 0 00-.083.088c-.05.046-.1.095-.144.145-.03.037-.066.077-.1.115-.042.045-.079.09-.127.139-.028.03-.057.065-.084.096-.046.056-.09.105-.127.16-.037.034-.067.073-.1.11-.03.042-.062.081-.093.125-.042.047-.08.097-.115.138a.27.27 0 01-.048.064c-.047.074-.101.137-.149.209-.01.015-.025.03-.028.042a6.745 6.745 0 00-.182.25 8.659 8.659 0 00-.726 1.282c-.194.667-.33 1.284-.405 1.822-.282 1.855.942 3.531 3.299 5.229 2.277-1.645 5.624-3.3 9.711-5.157 3.123-1.417 6.463-2.776 9.601-4.097-5.252-2.218-9.925-4.307-11.993-6.363-3.137 1.607-5.403 3.135-7.025 4.567z" fill="url(#paint5_radial)"/>
    <path d="M109.971 0c-10.16 0-18.988 6.59-22.085 16.216 1.224-2.653 4.477-5.902 12.121-9.506C106.749 3.536 113.894.018 110.081 0h-.11z" fill="url(#paint6_radial)"/>
    <defs>
        <radialGradient id="paint0_radial" cx="0" cy="0" r="1" gradientUnits="userSpaceOnUse" gradientTransform="translate(107.531 35.722) scale(10.5875)">
            <stop stop-color="#F58921"/>
            <stop offset=".682" stop-color="#F58921"/>
            <stop offset=".733" stop-color="#F48321"/>
            <stop offset="1" stop-color="#EF6722"/>
        </radialGradient>
        <radialGradient id="paint1_radial" cx="0" cy="0" r="1" gradientUnits="userSpaceOnUse" gradientTransform="translate(112.203 12.116) scale(11.9025)">
            <stop stop-color="#F58921"/>
            <stop offset=".278" stop-color="#F58921"/>
            <stop offset=".73" stop-color="#F58921"/>
            <stop offset=".822" stop-color="#F48221"/>
            <stop offset=".953" stop-color="#F17022"/>
            <stop offset="1" stop-color="#EF6722"/>
        </radialGradient>
        <radialGradient id="paint2_radial" cx="0" cy="0" r="1" gradientUnits="userSpaceOnUse" gradientTransform="translate(113.818 38.333) scale(12.3503)">
            <stop stop-color="#005C9B"/>
            <stop offset=".247" stop-color="#004785"/>
            <stop offset=".43" stop-color="#00518F"/>
            <stop offset=".661" stop-color="#0065A3"/>
            <stop offset=".787" stop-color="#1572B0"/>
            <stop offset="1" stop-color="#418ECC"/>
        </radialGradient>
        <radialGradient id="paint3_radial" cx="0" cy="0" r="1" gradientUnits="userSpaceOnUse" gradientTransform="translate(118.659 16.11) scale(35.0428)">
            <stop stop-color="#6DA3D7"/>
            <stop offset=".209" stop-color="#518AC8"/>
            <stop offset=".252" stop-color="#4683C1"/>
            <stop offset=".461" stop-color="#1461A2"/>
            <stop offset=".564" stop-color="#005496"/>
            <stop offset=".695" stop-color="#004B8C"/>
            <stop offset=".791" stop-color="#005191"/>
            <stop offset=".859" stop-color="#00589B"/>
            <stop offset=".921" stop-color="#0062A9"/>
            <stop offset=".96" stop-color="#2578BA"/>
            <stop offset="1" stop-color="#4E91CD"/>
        </radialGradient>
        <radialGradient id="paint4_radial" cx="0" cy="0" r="1" gradientUnits="userSpaceOnUse" gradientTransform="translate(116.095 23.267) scale(17.0854)">
            <stop stop-color="#F58921"/>
            <stop offset=".753" stop-color="#F58921"/>
            <stop offset=".859" stop-color="#F37D21"/>
            <stop offset="1" stop-color="#EF6722"/>
        </radialGradient>
        <radialGradient id="paint5_radial" cx="0" cy="0" r="1" gradientUnits="userSpaceOnUse" gradientTransform="translate(108.966 19.04) scale(18.1679)">
            <stop stop-color="#F58921"/>
            <stop offset=".658" stop-color="#F58921"/>
            <stop offset=".978" stop-color="#EF6922"/>
            <stop offset="1" stop-color="#EF6722"/>
        </radialGradient>
        <radialGradient id="paint6_radial" cx="0" cy="0" r="1" gradientUnits="userSpaceOnUse" gradientTransform="translate(104.398 10.17) scale(12.2133)">
            <stop stop-color="#005C9B"/>
            <stop offset=".172" stop-color="#004785"/>
            <stop offset=".318" stop-color="#00518F"/>
            <stop offset=".502" stop-color="#0065A3"/>
            <stop offset=".944" stop-color="#418ECC"/>
            <stop offset="1" stop-color="#418ECC"/>
        </radialGradient>
    </defs>
</svg>
