<?xml version="1.0" encoding="UTF-8"?>
<svg width="26px" height="36px" viewBox="0 0 26 36" version="1.1" xmlns="http://www.w3.org/2000/svg" xmlns:xlink="http://www.w3.org/1999/xlink">
    <!-- Generator: Sketch 50 (54983) - http://www.bohemiancoding.com/sketch -->
    <title>mark-4</title>
    <desc>Created with Sketch.</desc>
    <defs></defs>
    <g id="Page-1" stroke="none" stroke-width="1" fill="none" fill-rule="evenodd">
        <g id="mark-4" fill-rule="nonzero">
            <path d="M13,0 C5.832,0 0,5.849 0,13.037 C0,21.959 11.634,35.055 12.129,35.608 C12.595,36.129 13.406,36.127 13.871,35.608 C14.366,35.054 26,21.959 26,13.037 C26,5.849 20.168,0 13,0 Z" id="Shape" fill="#B6C7D0"></path>
            <path d="M13,3 C18.5233,3 23,7.47667 23,13 C23,18.5233 18.5233,23 13,23 C7.47667,23 3,18.5233 3,13 C3,7.47667 7.47667,3 13,3 Z" id="Shape" fill="#FFFFFF"></path>
            <path d="M16.5578,18.6901 C14.1758,19.7811 11.6518,20.9911 12.9998,20.9981 C16.6038,21.0151 19.7418,18.7451 20.8398,15.4241 C20.4068,16.3361 19.2588,17.4531 16.5578,18.6901 Z M16.3878,14.7691 C19.3238,13.4731 21.1788,12.4561 20.9868,11.2011 C20.7948,9.9441 19.7158,7.51309 17.0028,6.03609 C19.5278,7.68109 13.9608,9.3031 9.60782,11.2271 C6.67282,12.5231 4.81683,13.5391 5.00983,14.7951 C5.20283,16.0521 6.28182,18.4831 8.99582,19.9611 C6.46382,18.3141 12.0338,16.6921 16.3878,14.7691 Z M9.00683,19.9691 C9.06583,20.0061 9.12883,20.0431 9.19483,20.0791 C9.12283,20.0431 9.06482,19.9981 8.99582,19.9601 C9.00082,19.9631 9.00183,19.9661 9.00683,19.9691 Z M16.8078,5.9191 C16.8778,5.9551 16.9348,5.9981 17.0018,6.0351 C16.9968,6.0321 16.9948,6.02809 16.9888,6.02509 C16.9328,5.98909 16.8718,5.9541 16.8078,5.9191 Z M9.43783,7.3071 C11.8198,6.2161 14.3438,5.00609 12.9968,5.00009 C9.39183,4.98309 6.25383,7.2531 5.15583,10.5741 C5.58783,9.6611 6.73583,8.5441 9.43783,7.3071 Z M15.7708,7.2641 C16.2708,6.9741 16.6418,6.73509 16.6678,6.46709 C16.6868,6.28409 16.5748,5.9861 16.0358,5.6901 C15.8818,5.6061 15.6288,5.5011 15.4638,5.4511 C14.9288,5.3111 14.4808,5.2421 14.0418,5.2421 C14.0148,5.3531 13.8378,5.5591 13.4268,5.7961 C13.6508,6.1081 14.3068,6.5941 15.7708,7.2641 Z M20.4448,13.5171 C19.9318,13.8781 19.2268,14.2261 18.2678,14.6491 C17.7368,14.8841 17.1738,15.1131 16.6298,15.3351 C16.4968,15.3891 16.3558,15.4441 16.2228,15.4991 C16.7508,15.7251 17.1318,15.8801 17.5778,16.1011 C17.8908,16.2551 18.1818,16.4131 18.4728,16.6261 C20.1428,15.8511 20.9438,14.8461 20.9888,14.4591 C21.0338,14.0801 20.8428,13.8511 20.4448,13.5171 Z M5.66683,12.3581 C6.16883,12.0021 6.87082,11.5961 7.82982,11.1721 C8.36982,10.9341 8.90483,10.7161 9.44483,10.4971 C9.57083,10.4451 9.69684,10.3941 9.82283,10.3431 C8.30884,9.7201 7.90783,9.44409 7.61483,9.23709 C6.00583,9.97109 5.09684,10.9711 5.05784,11.3471 C5.02084,11.7061 5.20683,12.0191 5.66683,12.3581 Z M9.35582,19.7051 C9.47582,20.0801 10.1898,20.4371 10.5918,20.5711 C11.0288,20.6821 11.4948,20.7501 11.8688,20.7531 C11.8898,20.5351 12.3648,20.2561 12.4998,20.1761 C12.2298,19.8241 11.4898,19.3361 10.1858,18.7371 C9.58083,19.0661 9.25582,19.3911 9.35582,19.7051 Z" id="Shape" fill="#B6C7D0"></path>
        </g>
    </g>
</svg>