<svg width="18" height="18" viewBox="0 0 18 18" fill="none" xmlns="http://www.w3.org/2000/svg">
<path d="M14.573 11.564C13.5358 11.564 12.6109 12.0573 12.0193 12.8198L7.06532 10.0577C7.1814 9.72508 7.24505 9.36628 7.24505 8.99626C7.24505 8.62251 7.1814 8.26744 7.06157 7.93106L12.0118 5.17276C12.5997 5.93895 13.5283 6.43605 14.5693 6.43605C16.3442 6.43605 17.7933 4.99336 17.7933 3.21802C17.7933 1.44269 16.3479 0 14.5693 0C12.7906 0 11.3453 1.44269 11.3453 3.21802C11.3453 3.59178 11.4089 3.95058 11.5288 4.28322L6.58228 7.04153C5.99439 6.27159 5.06576 5.77824 4.02479 5.77824C2.2499 5.77824 0.800781 7.22093 0.800781 8.99626C0.800781 10.7716 2.2499 12.2143 4.02853 12.2143C5.0695 12.2143 5.99814 11.7172 6.58977 10.9473L11.54 13.7093C11.4202 14.0457 11.3528 14.4082 11.3528 14.782C11.3528 16.5536 12.7981 18 14.5768 18C16.3554 18 17.8008 16.5573 17.8008 14.782C17.8008 13.0066 16.3517 11.564 14.573 11.564Z" fill="white"/>
</svg>
