<svg width="46" height="46" viewBox="0 0 46 46" fill="none" xmlns="http://www.w3.org/2000/svg">
<path d="M0 23C0 10.2975 10.2975 0 23 0C35.7025 0 46 10.2975 46 23C46 35.7025 35.7025 46 23 46C10.2975 46 0 35.7025 0 23Z" fill="#B3CDD7"/>
<path d="M25.2849 27.485H20.757C20.757 23 23.1719 21.505 24.8321 20.608C25.4358 20.309 25.8886 20.01 26.1905 19.711C26.9451 18.9635 26.6433 17.917 26.4923 17.618C26.0395 16.5715 24.983 15.525 23.0209 15.525C19.8514 15.525 19.2477 18.3655 19.2477 18.9635L14.7197 18.3655C15.0216 15.824 17.2856 11.04 23.0209 11.04C26.4923 11.04 29.511 12.9835 30.7184 15.824C31.7749 18.3655 31.3221 21.0565 29.511 22.8505C28.7563 23.598 27.8507 24.0465 27.0961 24.495C25.7377 25.2425 25.2849 25.99 25.2849 27.485Z" fill="white"/>
<path d="M26.0402 31.971C26.0402 33.6229 24.6893 34.961 23.0215 34.961C21.3538 34.961 20.0029 33.6229 20.0029 31.971C20.0029 30.319 21.3538 28.981 23.0215 28.981C24.6893 28.981 26.0402 30.319 26.0402 31.971Z" fill="white"/>
</svg>
