<?xml version="1.0" standalone="no"?>
<svg xmlns:xlink="http://www.w3.org/1999/xlink" version="1.1" xmlns="http://www.w3.org/2000/svg" id="QRCodeGenerate" class="img-fluid mw-75" data-copyright="my-qrcode.net" data-modulecount="45" data-defaultsize="470" data-defaultclass="img-fluid mw-75" data-text="https://play.google.com/store/apps/details?id=com.iserv.JKHMobileCabinet.sahalinEnergy" data-color="rgb(0, 0, 0)" data-backcolor="none" data-typeicon="none" data-framesize="none" data-framewidth="0" data-titlelocation="none" data-titlefont="sans-serif" data-titletext="" data-typenumber="0" data-errorcorrectionlevel="Q" data-mode="Byte" data-mb="UTF-8" width="470px" height="470px" x="0px" y="0px" viewBox="0 0 470 470" preserveAspectRatio="xMinYMin meet"><rect width="100%" height="100%" fill="none" x="0" y="0"/><path d="M10,10l10,0 0,10 -10,0 0,-10z M20,10l10,0 0,10 -10,0 0,-10z M30,10l10,0 0,10 -10,0 0,-10z M40,10l10,0 0,10 -10,0 0,-10z M50,10l10,0 0,10 -10,0 0,-10z M60,10l10,0 0,10 -10,0 0,-10z M70,10l10,0 0,10 -10,0 0,-10z M120,10l10,0 0,10 -10,0 0,-10z M160,10l10,0 0,10 -10,0 0,-10z M180,10l10,0 0,10 -10,0 0,-10z M190,10l10,0 0,10 -10,0 0,-10z M220,10l10,0 0,10 -10,0 0,-10z M230,10l10,0 0,10 -10,0 0,-10z M240,10l10,0 0,10 -10,0 0,-10z M270,10l10,0 0,10 -10,0 0,-10z M290,10l10,0 0,10 -10,0 0,-10z M300,10l10,0 0,10 -10,0 0,-10z M310,10l10,0 0,10 -10,0 0,-10z M320,10l10,0 0,10 -10,0 0,-10z M330,10l10,0 0,10 -10,0 0,-10z M340,10l10,0 0,10 -10,0 0,-10z M370,10l10,0 0,10 -10,0 0,-10z M390,10l10,0 0,10 -10,0 0,-10z M400,10l10,0 0,10 -10,0 0,-10z M410,10l10,0 0,10 -10,0 0,-10z M420,10l10,0 0,10 -10,0 0,-10z M430,10l10,0 0,10 -10,0 0,-10z M440,10l10,0 0,10 -10,0 0,-10z M450,10l10,0 0,10 -10,0 0,-10z M10,20l10,0 0,10 -10,0 0,-10z M70,20l10,0 0,10 -10,0 0,-10z M120,20l10,0 0,10 -10,0 0,-10z M130,20l10,0 0,10 -10,0 0,-10z M140,20l10,0 0,10 -10,0 0,-10z M150,20l10,0 0,10 -10,0 0,-10z M160,20l10,0 0,10 -10,0 0,-10z M180,20l10,0 0,10 -10,0 0,-10z M190,20l10,0 0,10 -10,0 0,-10z M220,20l10,0 0,10 -10,0 0,-10z M250,20l10,0 0,10 -10,0 0,-10z M260,20l10,0 0,10 -10,0 0,-10z M280,20l10,0 0,10 -10,0 0,-10z M290,20l10,0 0,10 -10,0 0,-10z M320,20l10,0 0,10 -10,0 0,-10z M330,20l10,0 0,10 -10,0 0,-10z M340,20l10,0 0,10 -10,0 0,-10z M360,20l10,0 0,10 -10,0 0,-10z M390,20l10,0 0,10 -10,0 0,-10z M450,20l10,0 0,10 -10,0 0,-10z M10,30l10,0 0,10 -10,0 0,-10z M30,30l10,0 0,10 -10,0 0,-10z M40,30l10,0 0,10 -10,0 0,-10z M50,30l10,0 0,10 -10,0 0,-10z M70,30l10,0 0,10 -10,0 0,-10z M90,30l10,0 0,10 -10,0 0,-10z M100,30l10,0 0,10 -10,0 0,-10z M110,30l10,0 0,10 -10,0 0,-10z M130,30l10,0 0,10 -10,0 0,-10z M140,30l10,0 0,10 -10,0 0,-10z M150,30l10,0 0,10 -10,0 0,-10z M160,30l10,0 0,10 -10,0 0,-10z M210,30l10,0 0,10 -10,0 0,-10z M240,30l10,0 0,10 -10,0 0,-10z M260,30l10,0 0,10 -10,0 0,-10z M280,30l10,0 0,10 -10,0 0,-10z M310,30l10,0 0,10 -10,0 0,-10z M330,30l10,0 0,10 -10,0 0,-10z M340,30l10,0 0,10 -10,0 0,-10z M360,30l10,0 0,10 -10,0 0,-10z M390,30l10,0 0,10 -10,0 0,-10z M410,30l10,0 0,10 -10,0 0,-10z M420,30l10,0 0,10 -10,0 0,-10z M430,30l10,0 0,10 -10,0 0,-10z M450,30l10,0 0,10 -10,0 0,-10z M10,40l10,0 0,10 -10,0 0,-10z M30,40l10,0 0,10 -10,0 0,-10z M40,40l10,0 0,10 -10,0 0,-10z M50,40l10,0 0,10 -10,0 0,-10z M70,40l10,0 0,10 -10,0 0,-10z M120,40l10,0 0,10 -10,0 0,-10z M140,40l10,0 0,10 -10,0 0,-10z M160,40l10,0 0,10 -10,0 0,-10z M180,40l10,0 0,10 -10,0 0,-10z M260,40l10,0 0,10 -10,0 0,-10z M270,40l10,0 0,10 -10,0 0,-10z M280,40l10,0 0,10 -10,0 0,-10z M290,40l10,0 0,10 -10,0 0,-10z M320,40l10,0 0,10 -10,0 0,-10z M360,40l10,0 0,10 -10,0 0,-10z M370,40l10,0 0,10 -10,0 0,-10z M390,40l10,0 0,10 -10,0 0,-10z M410,40l10,0 0,10 -10,0 0,-10z M420,40l10,0 0,10 -10,0 0,-10z M430,40l10,0 0,10 -10,0 0,-10z M450,40l10,0 0,10 -10,0 0,-10z M10,50l10,0 0,10 -10,0 0,-10z M30,50l10,0 0,10 -10,0 0,-10z M40,50l10,0 0,10 -10,0 0,-10z M50,50l10,0 0,10 -10,0 0,-10z M70,50l10,0 0,10 -10,0 0,-10z M90,50l10,0 0,10 -10,0 0,-10z M110,50l10,0 0,10 -10,0 0,-10z M170,50l10,0 0,10 -10,0 0,-10z M180,50l10,0 0,10 -10,0 0,-10z M200,50l10,0 0,10 -10,0 0,-10z M210,50l10,0 0,10 -10,0 0,-10z M220,50l10,0 0,10 -10,0 0,-10z M230,50l10,0 0,10 -10,0 0,-10z M240,50l10,0 0,10 -10,0 0,-10z M250,50l10,0 0,10 -10,0 0,-10z M270,50l10,0 0,10 -10,0 0,-10z M290,50l10,0 0,10 -10,0 0,-10z M310,50l10,0 0,10 -10,0 0,-10z M330,50l10,0 0,10 -10,0 0,-10z M340,50l10,0 0,10 -10,0 0,-10z M350,50l10,0 0,10 -10,0 0,-10z M360,50l10,0 0,10 -10,0 0,-10z M370,50l10,0 0,10 -10,0 0,-10z M390,50l10,0 0,10 -10,0 0,-10z M410,50l10,0 0,10 -10,0 0,-10z M420,50l10,0 0,10 -10,0 0,-10z M430,50l10,0 0,10 -10,0 0,-10z M450,50l10,0 0,10 -10,0 0,-10z M10,60l10,0 0,10 -10,0 0,-10z M70,60l10,0 0,10 -10,0 0,-10z M90,60l10,0 0,10 -10,0 0,-10z M120,60l10,0 0,10 -10,0 0,-10z M140,60l10,0 0,10 -10,0 0,-10z M150,60l10,0 0,10 -10,0 0,-10z M170,60l10,0 0,10 -10,0 0,-10z M210,60l10,0 0,10 -10,0 0,-10z M250,60l10,0 0,10 -10,0 0,-10z M280,60l10,0 0,10 -10,0 0,-10z M330,60l10,0 0,10 -10,0 0,-10z M390,60l10,0 0,10 -10,0 0,-10z M450,60l10,0 0,10 -10,0 0,-10z M10,70l10,0 0,10 -10,0 0,-10z M20,70l10,0 0,10 -10,0 0,-10z M30,70l10,0 0,10 -10,0 0,-10z M40,70l10,0 0,10 -10,0 0,-10z M50,70l10,0 0,10 -10,0 0,-10z M60,70l10,0 0,10 -10,0 0,-10z M70,70l10,0 0,10 -10,0 0,-10z M90,70l10,0 0,10 -10,0 0,-10z M110,70l10,0 0,10 -10,0 0,-10z M130,70l10,0 0,10 -10,0 0,-10z M150,70l10,0 0,10 -10,0 0,-10z M170,70l10,0 0,10 -10,0 0,-10z M190,70l10,0 0,10 -10,0 0,-10z M210,70l10,0 0,10 -10,0 0,-10z M230,70l10,0 0,10 -10,0 0,-10z M250,70l10,0 0,10 -10,0 0,-10z M270,70l10,0 0,10 -10,0 0,-10z M290,70l10,0 0,10 -10,0 0,-10z M310,70l10,0 0,10 -10,0 0,-10z M330,70l10,0 0,10 -10,0 0,-10z M350,70l10,0 0,10 -10,0 0,-10z M370,70l10,0 0,10 -10,0 0,-10z M390,70l10,0 0,10 -10,0 0,-10z M400,70l10,0 0,10 -10,0 0,-10z M410,70l10,0 0,10 -10,0 0,-10z M420,70l10,0 0,10 -10,0 0,-10z M430,70l10,0 0,10 -10,0 0,-10z M440,70l10,0 0,10 -10,0 0,-10z M450,70l10,0 0,10 -10,0 0,-10z M100,80l10,0 0,10 -10,0 0,-10z M110,80l10,0 0,10 -10,0 0,-10z M140,80l10,0 0,10 -10,0 0,-10z M160,80l10,0 0,10 -10,0 0,-10z M180,80l10,0 0,10 -10,0 0,-10z M210,80l10,0 0,10 -10,0 0,-10z M250,80l10,0 0,10 -10,0 0,-10z M260,80l10,0 0,10 -10,0 0,-10z M270,80l10,0 0,10 -10,0 0,-10z M280,80l10,0 0,10 -10,0 0,-10z M330,80l10,0 0,10 -10,0 0,-10z M340,80l10,0 0,10 -10,0 0,-10z M370,80l10,0 0,10 -10,0 0,-10z M20,90l10,0 0,10 -10,0 0,-10z M50,90l10,0 0,10 -10,0 0,-10z M70,90l10,0 0,10 -10,0 0,-10z M90,90l10,0 0,10 -10,0 0,-10z M100,90l10,0 0,10 -10,0 0,-10z M120,90l10,0 0,10 -10,0 0,-10z M130,90l10,0 0,10 -10,0 0,-10z M170,90l10,0 0,10 -10,0 0,-10z M210,90l10,0 0,10 -10,0 0,-10z M220,90l10,0 0,10 -10,0 0,-10z M230,90l10,0 0,10 -10,0 0,-10z M240,90l10,0 0,10 -10,0 0,-10z M250,90l10,0 0,10 -10,0 0,-10z M260,90l10,0 0,10 -10,0 0,-10z M270,90l10,0 0,10 -10,0 0,-10z M280,90l10,0 0,10 -10,0 0,-10z M300,90l10,0 0,10 -10,0 0,-10z M310,90l10,0 0,10 -10,0 0,-10z M330,90l10,0 0,10 -10,0 0,-10z M340,90l10,0 0,10 -10,0 0,-10z M360,90l10,0 0,10 -10,0 0,-10z M380,90l10,0 0,10 -10,0 0,-10z M400,90l10,0 0,10 -10,0 0,-10z M410,90l10,0 0,10 -10,0 0,-10z M430,90l10,0 0,10 -10,0 0,-10z M10,100l10,0 0,10 -10,0 0,-10z M20,100l10,0 0,10 -10,0 0,-10z M30,100l10,0 0,10 -10,0 0,-10z M80,100l10,0 0,10 -10,0 0,-10z M110,100l10,0 0,10 -10,0 0,-10z M120,100l10,0 0,10 -10,0 0,-10z M140,100l10,0 0,10 -10,0 0,-10z M170,100l10,0 0,10 -10,0 0,-10z M180,100l10,0 0,10 -10,0 0,-10z M200,100l10,0 0,10 -10,0 0,-10z M220,100l10,0 0,10 -10,0 0,-10z M270,100l10,0 0,10 -10,0 0,-10z M280,100l10,0 0,10 -10,0 0,-10z M300,100l10,0 0,10 -10,0 0,-10z M310,100l10,0 0,10 -10,0 0,-10z M340,100l10,0 0,10 -10,0 0,-10z M360,100l10,0 0,10 -10,0 0,-10z M370,100l10,0 0,10 -10,0 0,-10z M390,100l10,0 0,10 -10,0 0,-10z M420,100l10,0 0,10 -10,0 0,-10z M440,100l10,0 0,10 -10,0 0,-10z M30,110l10,0 0,10 -10,0 0,-10z M40,110l10,0 0,10 -10,0 0,-10z M70,110l10,0 0,10 -10,0 0,-10z M90,110l10,0 0,10 -10,0 0,-10z M100,110l10,0 0,10 -10,0 0,-10z M120,110l10,0 0,10 -10,0 0,-10z M160,110l10,0 0,10 -10,0 0,-10z M190,110l10,0 0,10 -10,0 0,-10z M200,110l10,0 0,10 -10,0 0,-10z M210,110l10,0 0,10 -10,0 0,-10z M230,110l10,0 0,10 -10,0 0,-10z M250,110l10,0 0,10 -10,0 0,-10z M260,110l10,0 0,10 -10,0 0,-10z M270,110l10,0 0,10 -10,0 0,-10z M280,110l10,0 0,10 -10,0 0,-10z M310,110l10,0 0,10 -10,0 0,-10z M340,110l10,0 0,10 -10,0 0,-10z M360,110l10,0 0,10 -10,0 0,-10z M380,110l10,0 0,10 -10,0 0,-10z M390,110l10,0 0,10 -10,0 0,-10z M410,110l10,0 0,10 -10,0 0,-10z M430,110l10,0 0,10 -10,0 0,-10z M440,110l10,0 0,10 -10,0 0,-10z M10,120l10,0 0,10 -10,0 0,-10z M20,120l10,0 0,10 -10,0 0,-10z M80,120l10,0 0,10 -10,0 0,-10z M100,120l10,0 0,10 -10,0 0,-10z M120,120l10,0 0,10 -10,0 0,-10z M130,120l10,0 0,10 -10,0 0,-10z M160,120l10,0 0,10 -10,0 0,-10z M180,120l10,0 0,10 -10,0 0,-10z M190,120l10,0 0,10 -10,0 0,-10z M230,120l10,0 0,10 -10,0 0,-10z M250,120l10,0 0,10 -10,0 0,-10z M260,120l10,0 0,10 -10,0 0,-10z M270,120l10,0 0,10 -10,0 0,-10z M280,120l10,0 0,10 -10,0 0,-10z M300,120l10,0 0,10 -10,0 0,-10z M320,120l10,0 0,10 -10,0 0,-10z M330,120l10,0 0,10 -10,0 0,-10z M360,120l10,0 0,10 -10,0 0,-10z M380,120l10,0 0,10 -10,0 0,-10z M400,120l10,0 0,10 -10,0 0,-10z M450,120l10,0 0,10 -10,0 0,-10z M40,130l10,0 0,10 -10,0 0,-10z M60,130l10,0 0,10 -10,0 0,-10z M70,130l10,0 0,10 -10,0 0,-10z M80,130l10,0 0,10 -10,0 0,-10z M90,130l10,0 0,10 -10,0 0,-10z M120,130l10,0 0,10 -10,0 0,-10z M130,130l10,0 0,10 -10,0 0,-10z M180,130l10,0 0,10 -10,0 0,-10z M190,130l10,0 0,10 -10,0 0,-10z M210,130l10,0 0,10 -10,0 0,-10z M220,130l10,0 0,10 -10,0 0,-10z M230,130l10,0 0,10 -10,0 0,-10z M240,130l10,0 0,10 -10,0 0,-10z M260,130l10,0 0,10 -10,0 0,-10z M280,130l10,0 0,10 -10,0 0,-10z M300,130l10,0 0,10 -10,0 0,-10z M330,130l10,0 0,10 -10,0 0,-10z M400,130l10,0 0,10 -10,0 0,-10z M440,130l10,0 0,10 -10,0 0,-10z M450,130l10,0 0,10 -10,0 0,-10z M20,140l10,0 0,10 -10,0 0,-10z M30,140l10,0 0,10 -10,0 0,-10z M80,140l10,0 0,10 -10,0 0,-10z M100,140l10,0 0,10 -10,0 0,-10z M120,140l10,0 0,10 -10,0 0,-10z M130,140l10,0 0,10 -10,0 0,-10z M190,140l10,0 0,10 -10,0 0,-10z M200,140l10,0 0,10 -10,0 0,-10z M220,140l10,0 0,10 -10,0 0,-10z M230,140l10,0 0,10 -10,0 0,-10z M250,140l10,0 0,10 -10,0 0,-10z M270,140l10,0 0,10 -10,0 0,-10z M300,140l10,0 0,10 -10,0 0,-10z M310,140l10,0 0,10 -10,0 0,-10z M330,140l10,0 0,10 -10,0 0,-10z M340,140l10,0 0,10 -10,0 0,-10z M370,140l10,0 0,10 -10,0 0,-10z M390,140l10,0 0,10 -10,0 0,-10z M400,140l10,0 0,10 -10,0 0,-10z M440,140l10,0 0,10 -10,0 0,-10z M10,150l10,0 0,10 -10,0 0,-10z M50,150l10,0 0,10 -10,0 0,-10z M60,150l10,0 0,10 -10,0 0,-10z M70,150l10,0 0,10 -10,0 0,-10z M100,150l10,0 0,10 -10,0 0,-10z M110,150l10,0 0,10 -10,0 0,-10z M130,150l10,0 0,10 -10,0 0,-10z M150,150l10,0 0,10 -10,0 0,-10z M160,150l10,0 0,10 -10,0 0,-10z M190,150l10,0 0,10 -10,0 0,-10z M210,150l10,0 0,10 -10,0 0,-10z M220,150l10,0 0,10 -10,0 0,-10z M230,150l10,0 0,10 -10,0 0,-10z M290,150l10,0 0,10 -10,0 0,-10z M300,150l10,0 0,10 -10,0 0,-10z M310,150l10,0 0,10 -10,0 0,-10z M330,150l10,0 0,10 -10,0 0,-10z M340,150l10,0 0,10 -10,0 0,-10z M390,150l10,0 0,10 -10,0 0,-10z M400,150l10,0 0,10 -10,0 0,-10z M410,150l10,0 0,10 -10,0 0,-10z M430,150l10,0 0,10 -10,0 0,-10z M440,150l10,0 0,10 -10,0 0,-10z M30,160l10,0 0,10 -10,0 0,-10z M60,160l10,0 0,10 -10,0 0,-10z M80,160l10,0 0,10 -10,0 0,-10z M90,160l10,0 0,10 -10,0 0,-10z M100,160l10,0 0,10 -10,0 0,-10z M130,160l10,0 0,10 -10,0 0,-10z M140,160l10,0 0,10 -10,0 0,-10z M170,160l10,0 0,10 -10,0 0,-10z M190,160l10,0 0,10 -10,0 0,-10z M220,160l10,0 0,10 -10,0 0,-10z M230,160l10,0 0,10 -10,0 0,-10z M240,160l10,0 0,10 -10,0 0,-10z M260,160l10,0 0,10 -10,0 0,-10z M280,160l10,0 0,10 -10,0 0,-10z M300,160l10,0 0,10 -10,0 0,-10z M330,160l10,0 0,10 -10,0 0,-10z M340,160l10,0 0,10 -10,0 0,-10z M400,160l10,0 0,10 -10,0 0,-10z M440,160l10,0 0,10 -10,0 0,-10z M450,160l10,0 0,10 -10,0 0,-10z M10,170l10,0 0,10 -10,0 0,-10z M40,170l10,0 0,10 -10,0 0,-10z M50,170l10,0 0,10 -10,0 0,-10z M70,170l10,0 0,10 -10,0 0,-10z M110,170l10,0 0,10 -10,0 0,-10z M120,170l10,0 0,10 -10,0 0,-10z M130,170l10,0 0,10 -10,0 0,-10z M180,170l10,0 0,10 -10,0 0,-10z M190,170l10,0 0,10 -10,0 0,-10z M210,170l10,0 0,10 -10,0 0,-10z M270,170l10,0 0,10 -10,0 0,-10z M300,170l10,0 0,10 -10,0 0,-10z M310,170l10,0 0,10 -10,0 0,-10z M330,170l10,0 0,10 -10,0 0,-10z M350,170l10,0 0,10 -10,0 0,-10z M360,170l10,0 0,10 -10,0 0,-10z M390,170l10,0 0,10 -10,0 0,-10z M400,170l10,0 0,10 -10,0 0,-10z M430,170l10,0 0,10 -10,0 0,-10z M450,170l10,0 0,10 -10,0 0,-10z M20,180l10,0 0,10 -10,0 0,-10z M100,180l10,0 0,10 -10,0 0,-10z M130,180l10,0 0,10 -10,0 0,-10z M140,180l10,0 0,10 -10,0 0,-10z M150,180l10,0 0,10 -10,0 0,-10z M200,180l10,0 0,10 -10,0 0,-10z M220,180l10,0 0,10 -10,0 0,-10z M250,180l10,0 0,10 -10,0 0,-10z M270,180l10,0 0,10 -10,0 0,-10z M280,180l10,0 0,10 -10,0 0,-10z M300,180l10,0 0,10 -10,0 0,-10z M310,180l10,0 0,10 -10,0 0,-10z M320,180l10,0 0,10 -10,0 0,-10z M330,180l10,0 0,10 -10,0 0,-10z M370,180l10,0 0,10 -10,0 0,-10z M390,180l10,0 0,10 -10,0 0,-10z M400,180l10,0 0,10 -10,0 0,-10z M420,180l10,0 0,10 -10,0 0,-10z M440,180l10,0 0,10 -10,0 0,-10z M20,190l10,0 0,10 -10,0 0,-10z M30,190l10,0 0,10 -10,0 0,-10z M40,190l10,0 0,10 -10,0 0,-10z M50,190l10,0 0,10 -10,0 0,-10z M70,190l10,0 0,10 -10,0 0,-10z M80,190l10,0 0,10 -10,0 0,-10z M110,190l10,0 0,10 -10,0 0,-10z M140,190l10,0 0,10 -10,0 0,-10z M150,190l10,0 0,10 -10,0 0,-10z M160,190l10,0 0,10 -10,0 0,-10z M170,190l10,0 0,10 -10,0 0,-10z M180,190l10,0 0,10 -10,0 0,-10z M190,190l10,0 0,10 -10,0 0,-10z M200,190l10,0 0,10 -10,0 0,-10z M230,190l10,0 0,10 -10,0 0,-10z M250,190l10,0 0,10 -10,0 0,-10z M260,190l10,0 0,10 -10,0 0,-10z M270,190l10,0 0,10 -10,0 0,-10z M280,190l10,0 0,10 -10,0 0,-10z M300,190l10,0 0,10 -10,0 0,-10z M310,190l10,0 0,10 -10,0 0,-10z M320,190l10,0 0,10 -10,0 0,-10z M340,190l10,0 0,10 -10,0 0,-10z M370,190l10,0 0,10 -10,0 0,-10z M380,190l10,0 0,10 -10,0 0,-10z M390,190l10,0 0,10 -10,0 0,-10z M420,190l10,0 0,10 -10,0 0,-10z M430,190l10,0 0,10 -10,0 0,-10z M440,190l10,0 0,10 -10,0 0,-10z M10,200l10,0 0,10 -10,0 0,-10z M40,200l10,0 0,10 -10,0 0,-10z M50,200l10,0 0,10 -10,0 0,-10z M60,200l10,0 0,10 -10,0 0,-10z M80,200l10,0 0,10 -10,0 0,-10z M90,200l10,0 0,10 -10,0 0,-10z M100,200l10,0 0,10 -10,0 0,-10z M120,200l10,0 0,10 -10,0 0,-10z M130,200l10,0 0,10 -10,0 0,-10z M150,200l10,0 0,10 -10,0 0,-10z M160,200l10,0 0,10 -10,0 0,-10z M170,200l10,0 0,10 -10,0 0,-10z M180,200l10,0 0,10 -10,0 0,-10z M190,200l10,0 0,10 -10,0 0,-10z M200,200l10,0 0,10 -10,0 0,-10z M230,200l10,0 0,10 -10,0 0,-10z M250,200l10,0 0,10 -10,0 0,-10z M270,200l10,0 0,10 -10,0 0,-10z M280,200l10,0 0,10 -10,0 0,-10z M310,200l10,0 0,10 -10,0 0,-10z M330,200l10,0 0,10 -10,0 0,-10z M360,200l10,0 0,10 -10,0 0,-10z M380,200l10,0 0,10 -10,0 0,-10z M390,200l10,0 0,10 -10,0 0,-10z M450,200l10,0 0,10 -10,0 0,-10z M10,210l10,0 0,10 -10,0 0,-10z M20,210l10,0 0,10 -10,0 0,-10z M50,210l10,0 0,10 -10,0 0,-10z M60,210l10,0 0,10 -10,0 0,-10z M70,210l10,0 0,10 -10,0 0,-10z M80,210l10,0 0,10 -10,0 0,-10z M90,210l10,0 0,10 -10,0 0,-10z M100,210l10,0 0,10 -10,0 0,-10z M130,210l10,0 0,10 -10,0 0,-10z M160,210l10,0 0,10 -10,0 0,-10z M180,210l10,0 0,10 -10,0 0,-10z M210,210l10,0 0,10 -10,0 0,-10z M220,210l10,0 0,10 -10,0 0,-10z M230,210l10,0 0,10 -10,0 0,-10z M240,210l10,0 0,10 -10,0 0,-10z M250,210l10,0 0,10 -10,0 0,-10z M270,210l10,0 0,10 -10,0 0,-10z M280,210l10,0 0,10 -10,0 0,-10z M330,210l10,0 0,10 -10,0 0,-10z M350,210l10,0 0,10 -10,0 0,-10z M370,210l10,0 0,10 -10,0 0,-10z M380,210l10,0 0,10 -10,0 0,-10z M390,210l10,0 0,10 -10,0 0,-10z M400,210l10,0 0,10 -10,0 0,-10z M410,210l10,0 0,10 -10,0 0,-10z M420,210l10,0 0,10 -10,0 0,-10z M450,210l10,0 0,10 -10,0 0,-10z M10,220l10,0 0,10 -10,0 0,-10z M20,220l10,0 0,10 -10,0 0,-10z M30,220l10,0 0,10 -10,0 0,-10z M50,220l10,0 0,10 -10,0 0,-10z M90,220l10,0 0,10 -10,0 0,-10z M120,220l10,0 0,10 -10,0 0,-10z M190,220l10,0 0,10 -10,0 0,-10z M200,220l10,0 0,10 -10,0 0,-10z M210,220l10,0 0,10 -10,0 0,-10z M250,220l10,0 0,10 -10,0 0,-10z M260,220l10,0 0,10 -10,0 0,-10z M270,220l10,0 0,10 -10,0 0,-10z M290,220l10,0 0,10 -10,0 0,-10z M300,220l10,0 0,10 -10,0 0,-10z M310,220l10,0 0,10 -10,0 0,-10z M340,220l10,0 0,10 -10,0 0,-10z M360,220l10,0 0,10 -10,0 0,-10z M370,220l10,0 0,10 -10,0 0,-10z M410,220l10,0 0,10 -10,0 0,-10z M440,220l10,0 0,10 -10,0 0,-10z M10,230l10,0 0,10 -10,0 0,-10z M30,230l10,0 0,10 -10,0 0,-10z M50,230l10,0 0,10 -10,0 0,-10z M70,230l10,0 0,10 -10,0 0,-10z M90,230l10,0 0,10 -10,0 0,-10z M100,230l10,0 0,10 -10,0 0,-10z M120,230l10,0 0,10 -10,0 0,-10z M150,230l10,0 0,10 -10,0 0,-10z M170,230l10,0 0,10 -10,0 0,-10z M210,230l10,0 0,10 -10,0 0,-10z M230,230l10,0 0,10 -10,0 0,-10z M250,230l10,0 0,10 -10,0 0,-10z M280,230l10,0 0,10 -10,0 0,-10z M290,230l10,0 0,10 -10,0 0,-10z M300,230l10,0 0,10 -10,0 0,-10z M310,230l10,0 0,10 -10,0 0,-10z M320,230l10,0 0,10 -10,0 0,-10z M330,230l10,0 0,10 -10,0 0,-10z M340,230l10,0 0,10 -10,0 0,-10z M370,230l10,0 0,10 -10,0 0,-10z M390,230l10,0 0,10 -10,0 0,-10z M410,230l10,0 0,10 -10,0 0,-10z M420,230l10,0 0,10 -10,0 0,-10z M10,240l10,0 0,10 -10,0 0,-10z M20,240l10,0 0,10 -10,0 0,-10z M30,240l10,0 0,10 -10,0 0,-10z M50,240l10,0 0,10 -10,0 0,-10z M90,240l10,0 0,10 -10,0 0,-10z M100,240l10,0 0,10 -10,0 0,-10z M120,240l10,0 0,10 -10,0 0,-10z M130,240l10,0 0,10 -10,0 0,-10z M140,240l10,0 0,10 -10,0 0,-10z M160,240l10,0 0,10 -10,0 0,-10z M170,240l10,0 0,10 -10,0 0,-10z M180,240l10,0 0,10 -10,0 0,-10z M200,240l10,0 0,10 -10,0 0,-10z M210,240l10,0 0,10 -10,0 0,-10z M250,240l10,0 0,10 -10,0 0,-10z M270,240l10,0 0,10 -10,0 0,-10z M280,240l10,0 0,10 -10,0 0,-10z M310,240l10,0 0,10 -10,0 0,-10z M320,240l10,0 0,10 -10,0 0,-10z M330,240l10,0 0,10 -10,0 0,-10z M340,240l10,0 0,10 -10,0 0,-10z M350,240l10,0 0,10 -10,0 0,-10z M360,240l10,0 0,10 -10,0 0,-10z M370,240l10,0 0,10 -10,0 0,-10z M410,240l10,0 0,10 -10,0 0,-10z M20,250l10,0 0,10 -10,0 0,-10z M30,250l10,0 0,10 -10,0 0,-10z M40,250l10,0 0,10 -10,0 0,-10z M50,250l10,0 0,10 -10,0 0,-10z M60,250l10,0 0,10 -10,0 0,-10z M70,250l10,0 0,10 -10,0 0,-10z M80,250l10,0 0,10 -10,0 0,-10z M90,250l10,0 0,10 -10,0 0,-10z M110,250l10,0 0,10 -10,0 0,-10z M130,250l10,0 0,10 -10,0 0,-10z M150,250l10,0 0,10 -10,0 0,-10z M180,250l10,0 0,10 -10,0 0,-10z M190,250l10,0 0,10 -10,0 0,-10z M200,250l10,0 0,10 -10,0 0,-10z M210,250l10,0 0,10 -10,0 0,-10z M220,250l10,0 0,10 -10,0 0,-10z M230,250l10,0 0,10 -10,0 0,-10z M240,250l10,0 0,10 -10,0 0,-10z M250,250l10,0 0,10 -10,0 0,-10z M280,250l10,0 0,10 -10,0 0,-10z M310,250l10,0 0,10 -10,0 0,-10z M330,250l10,0 0,10 -10,0 0,-10z M340,250l10,0 0,10 -10,0 0,-10z M350,250l10,0 0,10 -10,0 0,-10z M360,250l10,0 0,10 -10,0 0,-10z M370,250l10,0 0,10 -10,0 0,-10z M380,250l10,0 0,10 -10,0 0,-10z M390,250l10,0 0,10 -10,0 0,-10z M400,250l10,0 0,10 -10,0 0,-10z M410,250l10,0 0,10 -10,0 0,-10z M420,250l10,0 0,10 -10,0 0,-10z M450,250l10,0 0,10 -10,0 0,-10z M10,260l10,0 0,10 -10,0 0,-10z M20,260l10,0 0,10 -10,0 0,-10z M40,260l10,0 0,10 -10,0 0,-10z M60,260l10,0 0,10 -10,0 0,-10z M100,260l10,0 0,10 -10,0 0,-10z M110,260l10,0 0,10 -10,0 0,-10z M130,260l10,0 0,10 -10,0 0,-10z M150,260l10,0 0,10 -10,0 0,-10z M170,260l10,0 0,10 -10,0 0,-10z M180,260l10,0 0,10 -10,0 0,-10z M270,260l10,0 0,10 -10,0 0,-10z M280,260l10,0 0,10 -10,0 0,-10z M300,260l10,0 0,10 -10,0 0,-10z M310,260l10,0 0,10 -10,0 0,-10z M370,260l10,0 0,10 -10,0 0,-10z M390,260l10,0 0,10 -10,0 0,-10z M420,260l10,0 0,10 -10,0 0,-10z M440,260l10,0 0,10 -10,0 0,-10z M450,260l10,0 0,10 -10,0 0,-10z M20,270l10,0 0,10 -10,0 0,-10z M50,270l10,0 0,10 -10,0 0,-10z M60,270l10,0 0,10 -10,0 0,-10z M70,270l10,0 0,10 -10,0 0,-10z M80,270l10,0 0,10 -10,0 0,-10z M140,270l10,0 0,10 -10,0 0,-10z M170,270l10,0 0,10 -10,0 0,-10z M180,270l10,0 0,10 -10,0 0,-10z M190,270l10,0 0,10 -10,0 0,-10z M200,270l10,0 0,10 -10,0 0,-10z M210,270l10,0 0,10 -10,0 0,-10z M220,270l10,0 0,10 -10,0 0,-10z M230,270l10,0 0,10 -10,0 0,-10z M250,270l10,0 0,10 -10,0 0,-10z M260,270l10,0 0,10 -10,0 0,-10z M280,270l10,0 0,10 -10,0 0,-10z M300,270l10,0 0,10 -10,0 0,-10z M310,270l10,0 0,10 -10,0 0,-10z M320,270l10,0 0,10 -10,0 0,-10z M330,270l10,0 0,10 -10,0 0,-10z M340,270l10,0 0,10 -10,0 0,-10z M360,270l10,0 0,10 -10,0 0,-10z M380,270l10,0 0,10 -10,0 0,-10z M400,270l10,0 0,10 -10,0 0,-10z M410,270l10,0 0,10 -10,0 0,-10z M430,270l10,0 0,10 -10,0 0,-10z M440,270l10,0 0,10 -10,0 0,-10z M30,280l10,0 0,10 -10,0 0,-10z M60,280l10,0 0,10 -10,0 0,-10z M100,280l10,0 0,10 -10,0 0,-10z M110,280l10,0 0,10 -10,0 0,-10z M140,280l10,0 0,10 -10,0 0,-10z M220,280l10,0 0,10 -10,0 0,-10z M230,280l10,0 0,10 -10,0 0,-10z M250,280l10,0 0,10 -10,0 0,-10z M270,280l10,0 0,10 -10,0 0,-10z M310,280l10,0 0,10 -10,0 0,-10z M370,280l10,0 0,10 -10,0 0,-10z M390,280l10,0 0,10 -10,0 0,-10z M410,280l10,0 0,10 -10,0 0,-10z M450,280l10,0 0,10 -10,0 0,-10z M10,290l10,0 0,10 -10,0 0,-10z M20,290l10,0 0,10 -10,0 0,-10z M70,290l10,0 0,10 -10,0 0,-10z M80,290l10,0 0,10 -10,0 0,-10z M110,290l10,0 0,10 -10,0 0,-10z M120,290l10,0 0,10 -10,0 0,-10z M130,290l10,0 0,10 -10,0 0,-10z M140,290l10,0 0,10 -10,0 0,-10z M160,290l10,0 0,10 -10,0 0,-10z M170,290l10,0 0,10 -10,0 0,-10z M190,290l10,0 0,10 -10,0 0,-10z M200,290l10,0 0,10 -10,0 0,-10z M240,290l10,0 0,10 -10,0 0,-10z M250,290l10,0 0,10 -10,0 0,-10z M270,290l10,0 0,10 -10,0 0,-10z M280,290l10,0 0,10 -10,0 0,-10z M300,290l10,0 0,10 -10,0 0,-10z M330,290l10,0 0,10 -10,0 0,-10z M340,290l10,0 0,10 -10,0 0,-10z M370,290l10,0 0,10 -10,0 0,-10z M410,290l10,0 0,10 -10,0 0,-10z M440,290l10,0 0,10 -10,0 0,-10z M20,300l10,0 0,10 -10,0 0,-10z M30,300l10,0 0,10 -10,0 0,-10z M60,300l10,0 0,10 -10,0 0,-10z M100,300l10,0 0,10 -10,0 0,-10z M110,300l10,0 0,10 -10,0 0,-10z M120,300l10,0 0,10 -10,0 0,-10z M160,300l10,0 0,10 -10,0 0,-10z M170,300l10,0 0,10 -10,0 0,-10z M220,300l10,0 0,10 -10,0 0,-10z M230,300l10,0 0,10 -10,0 0,-10z M240,300l10,0 0,10 -10,0 0,-10z M260,300l10,0 0,10 -10,0 0,-10z M270,300l10,0 0,10 -10,0 0,-10z M290,300l10,0 0,10 -10,0 0,-10z M300,300l10,0 0,10 -10,0 0,-10z M310,300l10,0 0,10 -10,0 0,-10z M320,300l10,0 0,10 -10,0 0,-10z M360,300l10,0 0,10 -10,0 0,-10z M370,300l10,0 0,10 -10,0 0,-10z M400,300l10,0 0,10 -10,0 0,-10z M420,300l10,0 0,10 -10,0 0,-10z M430,300l10,0 0,10 -10,0 0,-10z M50,310l10,0 0,10 -10,0 0,-10z M70,310l10,0 0,10 -10,0 0,-10z M80,310l10,0 0,10 -10,0 0,-10z M130,310l10,0 0,10 -10,0 0,-10z M140,310l10,0 0,10 -10,0 0,-10z M160,310l10,0 0,10 -10,0 0,-10z M190,310l10,0 0,10 -10,0 0,-10z M200,310l10,0 0,10 -10,0 0,-10z M250,310l10,0 0,10 -10,0 0,-10z M260,310l10,0 0,10 -10,0 0,-10z M280,310l10,0 0,10 -10,0 0,-10z M290,310l10,0 0,10 -10,0 0,-10z M310,310l10,0 0,10 -10,0 0,-10z M320,310l10,0 0,10 -10,0 0,-10z M330,310l10,0 0,10 -10,0 0,-10z M340,310l10,0 0,10 -10,0 0,-10z M360,310l10,0 0,10 -10,0 0,-10z M380,310l10,0 0,10 -10,0 0,-10z M10,320l10,0 0,10 -10,0 0,-10z M20,320l10,0 0,10 -10,0 0,-10z M40,320l10,0 0,10 -10,0 0,-10z M50,320l10,0 0,10 -10,0 0,-10z M60,320l10,0 0,10 -10,0 0,-10z M80,320l10,0 0,10 -10,0 0,-10z M110,320l10,0 0,10 -10,0 0,-10z M120,320l10,0 0,10 -10,0 0,-10z M170,320l10,0 0,10 -10,0 0,-10z M200,320l10,0 0,10 -10,0 0,-10z M220,320l10,0 0,10 -10,0 0,-10z M240,320l10,0 0,10 -10,0 0,-10z M260,320l10,0 0,10 -10,0 0,-10z M280,320l10,0 0,10 -10,0 0,-10z M370,320l10,0 0,10 -10,0 0,-10z M390,320l10,0 0,10 -10,0 0,-10z M420,320l10,0 0,10 -10,0 0,-10z M440,320l10,0 0,10 -10,0 0,-10z M450,320l10,0 0,10 -10,0 0,-10z M10,330l10,0 0,10 -10,0 0,-10z M30,330l10,0 0,10 -10,0 0,-10z M50,330l10,0 0,10 -10,0 0,-10z M60,330l10,0 0,10 -10,0 0,-10z M70,330l10,0 0,10 -10,0 0,-10z M90,330l10,0 0,10 -10,0 0,-10z M100,330l10,0 0,10 -10,0 0,-10z M130,330l10,0 0,10 -10,0 0,-10z M150,330l10,0 0,10 -10,0 0,-10z M180,330l10,0 0,10 -10,0 0,-10z M210,330l10,0 0,10 -10,0 0,-10z M220,330l10,0 0,10 -10,0 0,-10z M240,330l10,0 0,10 -10,0 0,-10z M250,330l10,0 0,10 -10,0 0,-10z M270,330l10,0 0,10 -10,0 0,-10z M280,330l10,0 0,10 -10,0 0,-10z M310,330l10,0 0,10 -10,0 0,-10z M330,330l10,0 0,10 -10,0 0,-10z M380,330l10,0 0,10 -10,0 0,-10z M410,330l10,0 0,10 -10,0 0,-10z M440,330l10,0 0,10 -10,0 0,-10z M450,330l10,0 0,10 -10,0 0,-10z M10,340l10,0 0,10 -10,0 0,-10z M20,340l10,0 0,10 -10,0 0,-10z M30,340l10,0 0,10 -10,0 0,-10z M40,340l10,0 0,10 -10,0 0,-10z M50,340l10,0 0,10 -10,0 0,-10z M60,340l10,0 0,10 -10,0 0,-10z M80,340l10,0 0,10 -10,0 0,-10z M90,340l10,0 0,10 -10,0 0,-10z M110,340l10,0 0,10 -10,0 0,-10z M120,340l10,0 0,10 -10,0 0,-10z M130,340l10,0 0,10 -10,0 0,-10z M150,340l10,0 0,10 -10,0 0,-10z M170,340l10,0 0,10 -10,0 0,-10z M190,340l10,0 0,10 -10,0 0,-10z M200,340l10,0 0,10 -10,0 0,-10z M210,340l10,0 0,10 -10,0 0,-10z M230,340l10,0 0,10 -10,0 0,-10z M240,340l10,0 0,10 -10,0 0,-10z M250,340l10,0 0,10 -10,0 0,-10z M280,340l10,0 0,10 -10,0 0,-10z M300,340l10,0 0,10 -10,0 0,-10z M310,340l10,0 0,10 -10,0 0,-10z M330,340l10,0 0,10 -10,0 0,-10z M340,340l10,0 0,10 -10,0 0,-10z M360,340l10,0 0,10 -10,0 0,-10z M370,340l10,0 0,10 -10,0 0,-10z M380,340l10,0 0,10 -10,0 0,-10z M390,340l10,0 0,10 -10,0 0,-10z M400,340l10,0 0,10 -10,0 0,-10z M50,350l10,0 0,10 -10,0 0,-10z M70,350l10,0 0,10 -10,0 0,-10z M120,350l10,0 0,10 -10,0 0,-10z M150,350l10,0 0,10 -10,0 0,-10z M210,350l10,0 0,10 -10,0 0,-10z M260,350l10,0 0,10 -10,0 0,-10z M280,350l10,0 0,10 -10,0 0,-10z M290,350l10,0 0,10 -10,0 0,-10z M300,350l10,0 0,10 -10,0 0,-10z M310,350l10,0 0,10 -10,0 0,-10z M320,350l10,0 0,10 -10,0 0,-10z M340,350l10,0 0,10 -10,0 0,-10z M360,350l10,0 0,10 -10,0 0,-10z M370,350l10,0 0,10 -10,0 0,-10z M380,350l10,0 0,10 -10,0 0,-10z M440,350l10,0 0,10 -10,0 0,-10z M20,360l10,0 0,10 -10,0 0,-10z M30,360l10,0 0,10 -10,0 0,-10z M40,360l10,0 0,10 -10,0 0,-10z M50,360l10,0 0,10 -10,0 0,-10z M80,360l10,0 0,10 -10,0 0,-10z M90,360l10,0 0,10 -10,0 0,-10z M110,360l10,0 0,10 -10,0 0,-10z M130,360l10,0 0,10 -10,0 0,-10z M140,360l10,0 0,10 -10,0 0,-10z M150,360l10,0 0,10 -10,0 0,-10z M160,360l10,0 0,10 -10,0 0,-10z M180,360l10,0 0,10 -10,0 0,-10z M200,360l10,0 0,10 -10,0 0,-10z M210,360l10,0 0,10 -10,0 0,-10z M220,360l10,0 0,10 -10,0 0,-10z M240,360l10,0 0,10 -10,0 0,-10z M250,360l10,0 0,10 -10,0 0,-10z M260,360l10,0 0,10 -10,0 0,-10z M330,360l10,0 0,10 -10,0 0,-10z M340,360l10,0 0,10 -10,0 0,-10z M370,360l10,0 0,10 -10,0 0,-10z M390,360l10,0 0,10 -10,0 0,-10z M440,360l10,0 0,10 -10,0 0,-10z M450,360l10,0 0,10 -10,0 0,-10z M10,370l10,0 0,10 -10,0 0,-10z M40,370l10,0 0,10 -10,0 0,-10z M50,370l10,0 0,10 -10,0 0,-10z M70,370l10,0 0,10 -10,0 0,-10z M80,370l10,0 0,10 -10,0 0,-10z M100,370l10,0 0,10 -10,0 0,-10z M110,370l10,0 0,10 -10,0 0,-10z M130,370l10,0 0,10 -10,0 0,-10z M160,370l10,0 0,10 -10,0 0,-10z M170,370l10,0 0,10 -10,0 0,-10z M180,370l10,0 0,10 -10,0 0,-10z M190,370l10,0 0,10 -10,0 0,-10z M210,370l10,0 0,10 -10,0 0,-10z M220,370l10,0 0,10 -10,0 0,-10z M230,370l10,0 0,10 -10,0 0,-10z M240,370l10,0 0,10 -10,0 0,-10z M250,370l10,0 0,10 -10,0 0,-10z M260,370l10,0 0,10 -10,0 0,-10z M280,370l10,0 0,10 -10,0 0,-10z M300,370l10,0 0,10 -10,0 0,-10z M310,370l10,0 0,10 -10,0 0,-10z M330,370l10,0 0,10 -10,0 0,-10z M340,370l10,0 0,10 -10,0 0,-10z M370,370l10,0 0,10 -10,0 0,-10z M380,370l10,0 0,10 -10,0 0,-10z M390,370l10,0 0,10 -10,0 0,-10z M400,370l10,0 0,10 -10,0 0,-10z M410,370l10,0 0,10 -10,0 0,-10z M90,380l10,0 0,10 -10,0 0,-10z M110,380l10,0 0,10 -10,0 0,-10z M140,380l10,0 0,10 -10,0 0,-10z M150,380l10,0 0,10 -10,0 0,-10z M160,380l10,0 0,10 -10,0 0,-10z M180,380l10,0 0,10 -10,0 0,-10z M210,380l10,0 0,10 -10,0 0,-10z M250,380l10,0 0,10 -10,0 0,-10z M280,380l10,0 0,10 -10,0 0,-10z M290,380l10,0 0,10 -10,0 0,-10z M300,380l10,0 0,10 -10,0 0,-10z M310,380l10,0 0,10 -10,0 0,-10z M320,380l10,0 0,10 -10,0 0,-10z M340,380l10,0 0,10 -10,0 0,-10z M370,380l10,0 0,10 -10,0 0,-10z M410,380l10,0 0,10 -10,0 0,-10z M440,380l10,0 0,10 -10,0 0,-10z M10,390l10,0 0,10 -10,0 0,-10z M20,390l10,0 0,10 -10,0 0,-10z M30,390l10,0 0,10 -10,0 0,-10z M40,390l10,0 0,10 -10,0 0,-10z M50,390l10,0 0,10 -10,0 0,-10z M60,390l10,0 0,10 -10,0 0,-10z M70,390l10,0 0,10 -10,0 0,-10z M100,390l10,0 0,10 -10,0 0,-10z M110,390l10,0 0,10 -10,0 0,-10z M120,390l10,0 0,10 -10,0 0,-10z M130,390l10,0 0,10 -10,0 0,-10z M160,390l10,0 0,10 -10,0 0,-10z M170,390l10,0 0,10 -10,0 0,-10z M210,390l10,0 0,10 -10,0 0,-10z M230,390l10,0 0,10 -10,0 0,-10z M250,390l10,0 0,10 -10,0 0,-10z M270,390l10,0 0,10 -10,0 0,-10z M280,390l10,0 0,10 -10,0 0,-10z M290,390l10,0 0,10 -10,0 0,-10z M310,390l10,0 0,10 -10,0 0,-10z M320,390l10,0 0,10 -10,0 0,-10z M330,390l10,0 0,10 -10,0 0,-10z M340,390l10,0 0,10 -10,0 0,-10z M360,390l10,0 0,10 -10,0 0,-10z M370,390l10,0 0,10 -10,0 0,-10z M390,390l10,0 0,10 -10,0 0,-10z M410,390l10,0 0,10 -10,0 0,-10z M420,390l10,0 0,10 -10,0 0,-10z M440,390l10,0 0,10 -10,0 0,-10z M10,400l10,0 0,10 -10,0 0,-10z M70,400l10,0 0,10 -10,0 0,-10z M110,400l10,0 0,10 -10,0 0,-10z M120,400l10,0 0,10 -10,0 0,-10z M130,400l10,0 0,10 -10,0 0,-10z M140,400l10,0 0,10 -10,0 0,-10z M170,400l10,0 0,10 -10,0 0,-10z M190,400l10,0 0,10 -10,0 0,-10z M200,400l10,0 0,10 -10,0 0,-10z M210,400l10,0 0,10 -10,0 0,-10z M250,400l10,0 0,10 -10,0 0,-10z M260,400l10,0 0,10 -10,0 0,-10z M300,400l10,0 0,10 -10,0 0,-10z M330,400l10,0 0,10 -10,0 0,-10z M360,400l10,0 0,10 -10,0 0,-10z M370,400l10,0 0,10 -10,0 0,-10z M410,400l10,0 0,10 -10,0 0,-10z M450,400l10,0 0,10 -10,0 0,-10z M10,410l10,0 0,10 -10,0 0,-10z M30,410l10,0 0,10 -10,0 0,-10z M40,410l10,0 0,10 -10,0 0,-10z M50,410l10,0 0,10 -10,0 0,-10z M70,410l10,0 0,10 -10,0 0,-10z M90,410l10,0 0,10 -10,0 0,-10z M120,410l10,0 0,10 -10,0 0,-10z M130,410l10,0 0,10 -10,0 0,-10z M160,410l10,0 0,10 -10,0 0,-10z M170,410l10,0 0,10 -10,0 0,-10z M180,410l10,0 0,10 -10,0 0,-10z M190,410l10,0 0,10 -10,0 0,-10z M200,410l10,0 0,10 -10,0 0,-10z M210,410l10,0 0,10 -10,0 0,-10z M220,410l10,0 0,10 -10,0 0,-10z M230,410l10,0 0,10 -10,0 0,-10z M240,410l10,0 0,10 -10,0 0,-10z M250,410l10,0 0,10 -10,0 0,-10z M270,410l10,0 0,10 -10,0 0,-10z M280,410l10,0 0,10 -10,0 0,-10z M330,410l10,0 0,10 -10,0 0,-10z M340,410l10,0 0,10 -10,0 0,-10z M350,410l10,0 0,10 -10,0 0,-10z M370,410l10,0 0,10 -10,0 0,-10z M380,410l10,0 0,10 -10,0 0,-10z M390,410l10,0 0,10 -10,0 0,-10z M400,410l10,0 0,10 -10,0 0,-10z M410,410l10,0 0,10 -10,0 0,-10z M430,410l10,0 0,10 -10,0 0,-10z M10,420l10,0 0,10 -10,0 0,-10z M30,420l10,0 0,10 -10,0 0,-10z M40,420l10,0 0,10 -10,0 0,-10z M50,420l10,0 0,10 -10,0 0,-10z M70,420l10,0 0,10 -10,0 0,-10z M100,420l10,0 0,10 -10,0 0,-10z M120,420l10,0 0,10 -10,0 0,-10z M130,420l10,0 0,10 -10,0 0,-10z M140,420l10,0 0,10 -10,0 0,-10z M150,420l10,0 0,10 -10,0 0,-10z M160,420l10,0 0,10 -10,0 0,-10z M190,420l10,0 0,10 -10,0 0,-10z M200,420l10,0 0,10 -10,0 0,-10z M210,420l10,0 0,10 -10,0 0,-10z M220,420l10,0 0,10 -10,0 0,-10z M230,420l10,0 0,10 -10,0 0,-10z M240,420l10,0 0,10 -10,0 0,-10z M260,420l10,0 0,10 -10,0 0,-10z M270,420l10,0 0,10 -10,0 0,-10z M280,420l10,0 0,10 -10,0 0,-10z M300,420l10,0 0,10 -10,0 0,-10z M310,420l10,0 0,10 -10,0 0,-10z M380,420l10,0 0,10 -10,0 0,-10z M390,420l10,0 0,10 -10,0 0,-10z M400,420l10,0 0,10 -10,0 0,-10z M410,420l10,0 0,10 -10,0 0,-10z M430,420l10,0 0,10 -10,0 0,-10z M450,420l10,0 0,10 -10,0 0,-10z M10,430l10,0 0,10 -10,0 0,-10z M30,430l10,0 0,10 -10,0 0,-10z M40,430l10,0 0,10 -10,0 0,-10z M50,430l10,0 0,10 -10,0 0,-10z M70,430l10,0 0,10 -10,0 0,-10z M120,430l10,0 0,10 -10,0 0,-10z M130,430l10,0 0,10 -10,0 0,-10z M140,430l10,0 0,10 -10,0 0,-10z M170,430l10,0 0,10 -10,0 0,-10z M180,430l10,0 0,10 -10,0 0,-10z M190,430l10,0 0,10 -10,0 0,-10z M220,430l10,0 0,10 -10,0 0,-10z M230,430l10,0 0,10 -10,0 0,-10z M260,430l10,0 0,10 -10,0 0,-10z M280,430l10,0 0,10 -10,0 0,-10z M290,430l10,0 0,10 -10,0 0,-10z M300,430l10,0 0,10 -10,0 0,-10z M310,430l10,0 0,10 -10,0 0,-10z M320,430l10,0 0,10 -10,0 0,-10z M330,430l10,0 0,10 -10,0 0,-10z M340,430l10,0 0,10 -10,0 0,-10z M410,430l10,0 0,10 -10,0 0,-10z M430,430l10,0 0,10 -10,0 0,-10z M440,430l10,0 0,10 -10,0 0,-10z M10,440l10,0 0,10 -10,0 0,-10z M70,440l10,0 0,10 -10,0 0,-10z M90,440l10,0 0,10 -10,0 0,-10z M100,440l10,0 0,10 -10,0 0,-10z M110,440l10,0 0,10 -10,0 0,-10z M120,440l10,0 0,10 -10,0 0,-10z M130,440l10,0 0,10 -10,0 0,-10z M140,440l10,0 0,10 -10,0 0,-10z M150,440l10,0 0,10 -10,0 0,-10z M180,440l10,0 0,10 -10,0 0,-10z M190,440l10,0 0,10 -10,0 0,-10z M200,440l10,0 0,10 -10,0 0,-10z M210,440l10,0 0,10 -10,0 0,-10z M220,440l10,0 0,10 -10,0 0,-10z M230,440l10,0 0,10 -10,0 0,-10z M250,440l10,0 0,10 -10,0 0,-10z M270,440l10,0 0,10 -10,0 0,-10z M330,440l10,0 0,10 -10,0 0,-10z M340,440l10,0 0,10 -10,0 0,-10z M350,440l10,0 0,10 -10,0 0,-10z M360,440l10,0 0,10 -10,0 0,-10z M380,440l10,0 0,10 -10,0 0,-10z M400,440l10,0 0,10 -10,0 0,-10z M410,440l10,0 0,10 -10,0 0,-10z M10,450l10,0 0,10 -10,0 0,-10z M20,450l10,0 0,10 -10,0 0,-10z M30,450l10,0 0,10 -10,0 0,-10z M40,450l10,0 0,10 -10,0 0,-10z M50,450l10,0 0,10 -10,0 0,-10z M60,450l10,0 0,10 -10,0 0,-10z M70,450l10,0 0,10 -10,0 0,-10z M100,450l10,0 0,10 -10,0 0,-10z M110,450l10,0 0,10 -10,0 0,-10z M120,450l10,0 0,10 -10,0 0,-10z M200,450l10,0 0,10 -10,0 0,-10z M210,450l10,0 0,10 -10,0 0,-10z M230,450l10,0 0,10 -10,0 0,-10z M250,450l10,0 0,10 -10,0 0,-10z M260,450l10,0 0,10 -10,0 0,-10z M280,450l10,0 0,10 -10,0 0,-10z M300,450l10,0 0,10 -10,0 0,-10z M310,450l10,0 0,10 -10,0 0,-10z M330,450l10,0 0,10 -10,0 0,-10z M340,450l10,0 0,10 -10,0 0,-10z M350,450l10,0 0,10 -10,0 0,-10z M360,450l10,0 0,10 -10,0 0,-10z M400,450l10,0 0,10 -10,0 0,-10z M450,450l10,0 0,10 -10,0 0,-10z " stroke="transparent" fill="rgb(0, 0, 0)"/></svg>