<?xml version="1.0" standalone="no"?>
<svg xmlns:xlink="http://www.w3.org/1999/xlink" version="1.1" xmlns="http://www.w3.org/2000/svg" id="QRCodeGenerate" class="img-fluid mw-75" data-copyright="my-qrcode.net" data-modulecount="61" data-defaultsize="630" data-defaultclass="img-fluid mw-75" data-text="https://apps.apple.com/ru/app/%D0%BB%D0%B8%D1%87%D0%BD%D1%8B%D0%B9-%D0%BA%D0%B0%D0%B1%D0%B8%D0%BD%D0%B5%D1%82-%D0%BF%D0%B0%D0%BE-%D0%B4%D1%8D%D0%BA/id1188929755" data-color="rgb(0, 0, 0)" data-backcolor="none" data-typeicon="none" data-framesize="none" data-framewidth="0" data-titlelocation="none" data-titlefont="sans-serif" data-titletext="" data-typenumber="0" data-errorcorrectionlevel="Q" data-mode="Byte" data-mb="UTF-8" width="630px" height="630px" x="0px" y="0px" viewBox="0 0 630 630" preserveAspectRatio="xMinYMin meet"><rect width="100%" height="100%" fill="none" x="0" y="0"/><path d="M10,10l10,0 0,10 -10,0 0,-10z M20,10l10,0 0,10 -10,0 0,-10z M30,10l10,0 0,10 -10,0 0,-10z M40,10l10,0 0,10 -10,0 0,-10z M50,10l10,0 0,10 -10,0 0,-10z M60,10l10,0 0,10 -10,0 0,-10z M70,10l10,0 0,10 -10,0 0,-10z M100,10l10,0 0,10 -10,0 0,-10z M110,10l10,0 0,10 -10,0 0,-10z M140,10l10,0 0,10 -10,0 0,-10z M160,10l10,0 0,10 -10,0 0,-10z M170,10l10,0 0,10 -10,0 0,-10z M180,10l10,0 0,10 -10,0 0,-10z M190,10l10,0 0,10 -10,0 0,-10z M230,10l10,0 0,10 -10,0 0,-10z M250,10l10,0 0,10 -10,0 0,-10z M280,10l10,0 0,10 -10,0 0,-10z M300,10l10,0 0,10 -10,0 0,-10z M310,10l10,0 0,10 -10,0 0,-10z M320,10l10,0 0,10 -10,0 0,-10z M340,10l10,0 0,10 -10,0 0,-10z M370,10l10,0 0,10 -10,0 0,-10z M380,10l10,0 0,10 -10,0 0,-10z M420,10l10,0 0,10 -10,0 0,-10z M430,10l10,0 0,10 -10,0 0,-10z M450,10l10,0 0,10 -10,0 0,-10z M480,10l10,0 0,10 -10,0 0,-10z M490,10l10,0 0,10 -10,0 0,-10z M520,10l10,0 0,10 -10,0 0,-10z M530,10l10,0 0,10 -10,0 0,-10z M550,10l10,0 0,10 -10,0 0,-10z M560,10l10,0 0,10 -10,0 0,-10z M570,10l10,0 0,10 -10,0 0,-10z M580,10l10,0 0,10 -10,0 0,-10z M590,10l10,0 0,10 -10,0 0,-10z M600,10l10,0 0,10 -10,0 0,-10z M610,10l10,0 0,10 -10,0 0,-10z M10,20l10,0 0,10 -10,0 0,-10z M70,20l10,0 0,10 -10,0 0,-10z M90,20l10,0 0,10 -10,0 0,-10z M100,20l10,0 0,10 -10,0 0,-10z M110,20l10,0 0,10 -10,0 0,-10z M130,20l10,0 0,10 -10,0 0,-10z M140,20l10,0 0,10 -10,0 0,-10z M150,20l10,0 0,10 -10,0 0,-10z M160,20l10,0 0,10 -10,0 0,-10z M180,20l10,0 0,10 -10,0 0,-10z M190,20l10,0 0,10 -10,0 0,-10z M200,20l10,0 0,10 -10,0 0,-10z M250,20l10,0 0,10 -10,0 0,-10z M260,20l10,0 0,10 -10,0 0,-10z M280,20l10,0 0,10 -10,0 0,-10z M290,20l10,0 0,10 -10,0 0,-10z M310,20l10,0 0,10 -10,0 0,-10z M330,20l10,0 0,10 -10,0 0,-10z M340,20l10,0 0,10 -10,0 0,-10z M350,20l10,0 0,10 -10,0 0,-10z M360,20l10,0 0,10 -10,0 0,-10z M370,20l10,0 0,10 -10,0 0,-10z M390,20l10,0 0,10 -10,0 0,-10z M400,20l10,0 0,10 -10,0 0,-10z M420,20l10,0 0,10 -10,0 0,-10z M450,20l10,0 0,10 -10,0 0,-10z M460,20l10,0 0,10 -10,0 0,-10z M470,20l10,0 0,10 -10,0 0,-10z M480,20l10,0 0,10 -10,0 0,-10z M500,20l10,0 0,10 -10,0 0,-10z M520,20l10,0 0,10 -10,0 0,-10z M530,20l10,0 0,10 -10,0 0,-10z M550,20l10,0 0,10 -10,0 0,-10z M610,20l10,0 0,10 -10,0 0,-10z M10,30l10,0 0,10 -10,0 0,-10z M30,30l10,0 0,10 -10,0 0,-10z M40,30l10,0 0,10 -10,0 0,-10z M50,30l10,0 0,10 -10,0 0,-10z M70,30l10,0 0,10 -10,0 0,-10z M90,30l10,0 0,10 -10,0 0,-10z M120,30l10,0 0,10 -10,0 0,-10z M130,30l10,0 0,10 -10,0 0,-10z M160,30l10,0 0,10 -10,0 0,-10z M180,30l10,0 0,10 -10,0 0,-10z M200,30l10,0 0,10 -10,0 0,-10z M240,30l10,0 0,10 -10,0 0,-10z M250,30l10,0 0,10 -10,0 0,-10z M290,30l10,0 0,10 -10,0 0,-10z M320,30l10,0 0,10 -10,0 0,-10z M340,30l10,0 0,10 -10,0 0,-10z M360,30l10,0 0,10 -10,0 0,-10z M370,30l10,0 0,10 -10,0 0,-10z M380,30l10,0 0,10 -10,0 0,-10z M420,30l10,0 0,10 -10,0 0,-10z M430,30l10,0 0,10 -10,0 0,-10z M440,30l10,0 0,10 -10,0 0,-10z M460,30l10,0 0,10 -10,0 0,-10z M470,30l10,0 0,10 -10,0 0,-10z M500,30l10,0 0,10 -10,0 0,-10z M510,30l10,0 0,10 -10,0 0,-10z M520,30l10,0 0,10 -10,0 0,-10z M530,30l10,0 0,10 -10,0 0,-10z M550,30l10,0 0,10 -10,0 0,-10z M570,30l10,0 0,10 -10,0 0,-10z M580,30l10,0 0,10 -10,0 0,-10z M590,30l10,0 0,10 -10,0 0,-10z M610,30l10,0 0,10 -10,0 0,-10z M10,40l10,0 0,10 -10,0 0,-10z M30,40l10,0 0,10 -10,0 0,-10z M40,40l10,0 0,10 -10,0 0,-10z M50,40l10,0 0,10 -10,0 0,-10z M70,40l10,0 0,10 -10,0 0,-10z M100,40l10,0 0,10 -10,0 0,-10z M110,40l10,0 0,10 -10,0 0,-10z M130,40l10,0 0,10 -10,0 0,-10z M140,40l10,0 0,10 -10,0 0,-10z M150,40l10,0 0,10 -10,0 0,-10z M160,40l10,0 0,10 -10,0 0,-10z M170,40l10,0 0,10 -10,0 0,-10z M180,40l10,0 0,10 -10,0 0,-10z M200,40l10,0 0,10 -10,0 0,-10z M230,40l10,0 0,10 -10,0 0,-10z M240,40l10,0 0,10 -10,0 0,-10z M270,40l10,0 0,10 -10,0 0,-10z M290,40l10,0 0,10 -10,0 0,-10z M300,40l10,0 0,10 -10,0 0,-10z M320,40l10,0 0,10 -10,0 0,-10z M330,40l10,0 0,10 -10,0 0,-10z M340,40l10,0 0,10 -10,0 0,-10z M350,40l10,0 0,10 -10,0 0,-10z M370,40l10,0 0,10 -10,0 0,-10z M390,40l10,0 0,10 -10,0 0,-10z M400,40l10,0 0,10 -10,0 0,-10z M440,40l10,0 0,10 -10,0 0,-10z M480,40l10,0 0,10 -10,0 0,-10z M500,40l10,0 0,10 -10,0 0,-10z M510,40l10,0 0,10 -10,0 0,-10z M530,40l10,0 0,10 -10,0 0,-10z M550,40l10,0 0,10 -10,0 0,-10z M570,40l10,0 0,10 -10,0 0,-10z M580,40l10,0 0,10 -10,0 0,-10z M590,40l10,0 0,10 -10,0 0,-10z M610,40l10,0 0,10 -10,0 0,-10z M10,50l10,0 0,10 -10,0 0,-10z M30,50l10,0 0,10 -10,0 0,-10z M40,50l10,0 0,10 -10,0 0,-10z M50,50l10,0 0,10 -10,0 0,-10z M70,50l10,0 0,10 -10,0 0,-10z M100,50l10,0 0,10 -10,0 0,-10z M120,50l10,0 0,10 -10,0 0,-10z M130,50l10,0 0,10 -10,0 0,-10z M140,50l10,0 0,10 -10,0 0,-10z M180,50l10,0 0,10 -10,0 0,-10z M200,50l10,0 0,10 -10,0 0,-10z M230,50l10,0 0,10 -10,0 0,-10z M240,50l10,0 0,10 -10,0 0,-10z M270,50l10,0 0,10 -10,0 0,-10z M290,50l10,0 0,10 -10,0 0,-10z M300,50l10,0 0,10 -10,0 0,-10z M310,50l10,0 0,10 -10,0 0,-10z M320,50l10,0 0,10 -10,0 0,-10z M330,50l10,0 0,10 -10,0 0,-10z M340,50l10,0 0,10 -10,0 0,-10z M350,50l10,0 0,10 -10,0 0,-10z M360,50l10,0 0,10 -10,0 0,-10z M380,50l10,0 0,10 -10,0 0,-10z M390,50l10,0 0,10 -10,0 0,-10z M430,50l10,0 0,10 -10,0 0,-10z M440,50l10,0 0,10 -10,0 0,-10z M450,50l10,0 0,10 -10,0 0,-10z M460,50l10,0 0,10 -10,0 0,-10z M480,50l10,0 0,10 -10,0 0,-10z M490,50l10,0 0,10 -10,0 0,-10z M510,50l10,0 0,10 -10,0 0,-10z M520,50l10,0 0,10 -10,0 0,-10z M550,50l10,0 0,10 -10,0 0,-10z M570,50l10,0 0,10 -10,0 0,-10z M580,50l10,0 0,10 -10,0 0,-10z M590,50l10,0 0,10 -10,0 0,-10z M610,50l10,0 0,10 -10,0 0,-10z M10,60l10,0 0,10 -10,0 0,-10z M70,60l10,0 0,10 -10,0 0,-10z M120,60l10,0 0,10 -10,0 0,-10z M130,60l10,0 0,10 -10,0 0,-10z M150,60l10,0 0,10 -10,0 0,-10z M160,60l10,0 0,10 -10,0 0,-10z M190,60l10,0 0,10 -10,0 0,-10z M220,60l10,0 0,10 -10,0 0,-10z M260,60l10,0 0,10 -10,0 0,-10z M280,60l10,0 0,10 -10,0 0,-10z M290,60l10,0 0,10 -10,0 0,-10z M330,60l10,0 0,10 -10,0 0,-10z M350,60l10,0 0,10 -10,0 0,-10z M360,60l10,0 0,10 -10,0 0,-10z M380,60l10,0 0,10 -10,0 0,-10z M410,60l10,0 0,10 -10,0 0,-10z M470,60l10,0 0,10 -10,0 0,-10z M480,60l10,0 0,10 -10,0 0,-10z M490,60l10,0 0,10 -10,0 0,-10z M500,60l10,0 0,10 -10,0 0,-10z M510,60l10,0 0,10 -10,0 0,-10z M550,60l10,0 0,10 -10,0 0,-10z M610,60l10,0 0,10 -10,0 0,-10z M10,70l10,0 0,10 -10,0 0,-10z M20,70l10,0 0,10 -10,0 0,-10z M30,70l10,0 0,10 -10,0 0,-10z M40,70l10,0 0,10 -10,0 0,-10z M50,70l10,0 0,10 -10,0 0,-10z M60,70l10,0 0,10 -10,0 0,-10z M70,70l10,0 0,10 -10,0 0,-10z M90,70l10,0 0,10 -10,0 0,-10z M110,70l10,0 0,10 -10,0 0,-10z M130,70l10,0 0,10 -10,0 0,-10z M150,70l10,0 0,10 -10,0 0,-10z M170,70l10,0 0,10 -10,0 0,-10z M190,70l10,0 0,10 -10,0 0,-10z M210,70l10,0 0,10 -10,0 0,-10z M230,70l10,0 0,10 -10,0 0,-10z M250,70l10,0 0,10 -10,0 0,-10z M270,70l10,0 0,10 -10,0 0,-10z M290,70l10,0 0,10 -10,0 0,-10z M310,70l10,0 0,10 -10,0 0,-10z M330,70l10,0 0,10 -10,0 0,-10z M350,70l10,0 0,10 -10,0 0,-10z M370,70l10,0 0,10 -10,0 0,-10z M390,70l10,0 0,10 -10,0 0,-10z M410,70l10,0 0,10 -10,0 0,-10z M430,70l10,0 0,10 -10,0 0,-10z M450,70l10,0 0,10 -10,0 0,-10z M470,70l10,0 0,10 -10,0 0,-10z M490,70l10,0 0,10 -10,0 0,-10z M510,70l10,0 0,10 -10,0 0,-10z M530,70l10,0 0,10 -10,0 0,-10z M550,70l10,0 0,10 -10,0 0,-10z M560,70l10,0 0,10 -10,0 0,-10z M570,70l10,0 0,10 -10,0 0,-10z M580,70l10,0 0,10 -10,0 0,-10z M590,70l10,0 0,10 -10,0 0,-10z M600,70l10,0 0,10 -10,0 0,-10z M610,70l10,0 0,10 -10,0 0,-10z M100,80l10,0 0,10 -10,0 0,-10z M130,80l10,0 0,10 -10,0 0,-10z M140,80l10,0 0,10 -10,0 0,-10z M150,80l10,0 0,10 -10,0 0,-10z M160,80l10,0 0,10 -10,0 0,-10z M210,80l10,0 0,10 -10,0 0,-10z M230,80l10,0 0,10 -10,0 0,-10z M240,80l10,0 0,10 -10,0 0,-10z M280,80l10,0 0,10 -10,0 0,-10z M290,80l10,0 0,10 -10,0 0,-10z M330,80l10,0 0,10 -10,0 0,-10z M370,80l10,0 0,10 -10,0 0,-10z M380,80l10,0 0,10 -10,0 0,-10z M390,80l10,0 0,10 -10,0 0,-10z M410,80l10,0 0,10 -10,0 0,-10z M430,80l10,0 0,10 -10,0 0,-10z M480,80l10,0 0,10 -10,0 0,-10z M500,80l10,0 0,10 -10,0 0,-10z M510,80l10,0 0,10 -10,0 0,-10z M520,80l10,0 0,10 -10,0 0,-10z M20,90l10,0 0,10 -10,0 0,-10z M30,90l10,0 0,10 -10,0 0,-10z M40,90l10,0 0,10 -10,0 0,-10z M60,90l10,0 0,10 -10,0 0,-10z M70,90l10,0 0,10 -10,0 0,-10z M120,90l10,0 0,10 -10,0 0,-10z M130,90l10,0 0,10 -10,0 0,-10z M160,90l10,0 0,10 -10,0 0,-10z M170,90l10,0 0,10 -10,0 0,-10z M190,90l10,0 0,10 -10,0 0,-10z M270,90l10,0 0,10 -10,0 0,-10z M280,90l10,0 0,10 -10,0 0,-10z M290,90l10,0 0,10 -10,0 0,-10z M300,90l10,0 0,10 -10,0 0,-10z M310,90l10,0 0,10 -10,0 0,-10z M320,90l10,0 0,10 -10,0 0,-10z M330,90l10,0 0,10 -10,0 0,-10z M340,90l10,0 0,10 -10,0 0,-10z M350,90l10,0 0,10 -10,0 0,-10z M380,90l10,0 0,10 -10,0 0,-10z M410,90l10,0 0,10 -10,0 0,-10z M430,90l10,0 0,10 -10,0 0,-10z M440,90l10,0 0,10 -10,0 0,-10z M480,90l10,0 0,10 -10,0 0,-10z M500,90l10,0 0,10 -10,0 0,-10z M530,90l10,0 0,10 -10,0 0,-10z M590,90l10,0 0,10 -10,0 0,-10z M600,90l10,0 0,10 -10,0 0,-10z M30,100l10,0 0,10 -10,0 0,-10z M50,100l10,0 0,10 -10,0 0,-10z M60,100l10,0 0,10 -10,0 0,-10z M90,100l10,0 0,10 -10,0 0,-10z M100,100l10,0 0,10 -10,0 0,-10z M110,100l10,0 0,10 -10,0 0,-10z M140,100l10,0 0,10 -10,0 0,-10z M150,100l10,0 0,10 -10,0 0,-10z M170,100l10,0 0,10 -10,0 0,-10z M180,100l10,0 0,10 -10,0 0,-10z M190,100l10,0 0,10 -10,0 0,-10z M200,100l10,0 0,10 -10,0 0,-10z M210,100l10,0 0,10 -10,0 0,-10z M220,100l10,0 0,10 -10,0 0,-10z M250,100l10,0 0,10 -10,0 0,-10z M270,100l10,0 0,10 -10,0 0,-10z M280,100l10,0 0,10 -10,0 0,-10z M290,100l10,0 0,10 -10,0 0,-10z M300,100l10,0 0,10 -10,0 0,-10z M320,100l10,0 0,10 -10,0 0,-10z M330,100l10,0 0,10 -10,0 0,-10z M340,100l10,0 0,10 -10,0 0,-10z M350,100l10,0 0,10 -10,0 0,-10z M370,100l10,0 0,10 -10,0 0,-10z M400,100l10,0 0,10 -10,0 0,-10z M410,100l10,0 0,10 -10,0 0,-10z M420,100l10,0 0,10 -10,0 0,-10z M430,100l10,0 0,10 -10,0 0,-10z M480,100l10,0 0,10 -10,0 0,-10z M490,100l10,0 0,10 -10,0 0,-10z M550,100l10,0 0,10 -10,0 0,-10z M570,100l10,0 0,10 -10,0 0,-10z M590,100l10,0 0,10 -10,0 0,-10z M600,100l10,0 0,10 -10,0 0,-10z M20,110l10,0 0,10 -10,0 0,-10z M30,110l10,0 0,10 -10,0 0,-10z M50,110l10,0 0,10 -10,0 0,-10z M60,110l10,0 0,10 -10,0 0,-10z M70,110l10,0 0,10 -10,0 0,-10z M80,110l10,0 0,10 -10,0 0,-10z M90,110l10,0 0,10 -10,0 0,-10z M100,110l10,0 0,10 -10,0 0,-10z M110,110l10,0 0,10 -10,0 0,-10z M120,110l10,0 0,10 -10,0 0,-10z M130,110l10,0 0,10 -10,0 0,-10z M160,110l10,0 0,10 -10,0 0,-10z M170,110l10,0 0,10 -10,0 0,-10z M190,110l10,0 0,10 -10,0 0,-10z M200,110l10,0 0,10 -10,0 0,-10z M210,110l10,0 0,10 -10,0 0,-10z M230,110l10,0 0,10 -10,0 0,-10z M250,110l10,0 0,10 -10,0 0,-10z M260,110l10,0 0,10 -10,0 0,-10z M270,110l10,0 0,10 -10,0 0,-10z M280,110l10,0 0,10 -10,0 0,-10z M360,110l10,0 0,10 -10,0 0,-10z M370,110l10,0 0,10 -10,0 0,-10z M380,110l10,0 0,10 -10,0 0,-10z M420,110l10,0 0,10 -10,0 0,-10z M430,110l10,0 0,10 -10,0 0,-10z M450,110l10,0 0,10 -10,0 0,-10z M500,110l10,0 0,10 -10,0 0,-10z M520,110l10,0 0,10 -10,0 0,-10z M550,110l10,0 0,10 -10,0 0,-10z M570,110l10,0 0,10 -10,0 0,-10z M580,110l10,0 0,10 -10,0 0,-10z M600,110l10,0 0,10 -10,0 0,-10z M10,120l10,0 0,10 -10,0 0,-10z M20,120l10,0 0,10 -10,0 0,-10z M30,120l10,0 0,10 -10,0 0,-10z M50,120l10,0 0,10 -10,0 0,-10z M60,120l10,0 0,10 -10,0 0,-10z M80,120l10,0 0,10 -10,0 0,-10z M100,120l10,0 0,10 -10,0 0,-10z M120,120l10,0 0,10 -10,0 0,-10z M130,120l10,0 0,10 -10,0 0,-10z M140,120l10,0 0,10 -10,0 0,-10z M150,120l10,0 0,10 -10,0 0,-10z M160,120l10,0 0,10 -10,0 0,-10z M180,120l10,0 0,10 -10,0 0,-10z M210,120l10,0 0,10 -10,0 0,-10z M230,120l10,0 0,10 -10,0 0,-10z M240,120l10,0 0,10 -10,0 0,-10z M280,120l10,0 0,10 -10,0 0,-10z M290,120l10,0 0,10 -10,0 0,-10z M300,120l10,0 0,10 -10,0 0,-10z M310,120l10,0 0,10 -10,0 0,-10z M330,120l10,0 0,10 -10,0 0,-10z M350,120l10,0 0,10 -10,0 0,-10z M360,120l10,0 0,10 -10,0 0,-10z M390,120l10,0 0,10 -10,0 0,-10z M400,120l10,0 0,10 -10,0 0,-10z M450,120l10,0 0,10 -10,0 0,-10z M460,120l10,0 0,10 -10,0 0,-10z M470,120l10,0 0,10 -10,0 0,-10z M490,120l10,0 0,10 -10,0 0,-10z M520,120l10,0 0,10 -10,0 0,-10z M530,120l10,0 0,10 -10,0 0,-10z M560,120l10,0 0,10 -10,0 0,-10z M590,120l10,0 0,10 -10,0 0,-10z M20,130l10,0 0,10 -10,0 0,-10z M30,130l10,0 0,10 -10,0 0,-10z M40,130l10,0 0,10 -10,0 0,-10z M50,130l10,0 0,10 -10,0 0,-10z M70,130l10,0 0,10 -10,0 0,-10z M100,130l10,0 0,10 -10,0 0,-10z M130,130l10,0 0,10 -10,0 0,-10z M140,130l10,0 0,10 -10,0 0,-10z M150,130l10,0 0,10 -10,0 0,-10z M190,130l10,0 0,10 -10,0 0,-10z M200,130l10,0 0,10 -10,0 0,-10z M210,130l10,0 0,10 -10,0 0,-10z M220,130l10,0 0,10 -10,0 0,-10z M240,130l10,0 0,10 -10,0 0,-10z M250,130l10,0 0,10 -10,0 0,-10z M260,130l10,0 0,10 -10,0 0,-10z M280,130l10,0 0,10 -10,0 0,-10z M300,130l10,0 0,10 -10,0 0,-10z M340,130l10,0 0,10 -10,0 0,-10z M350,130l10,0 0,10 -10,0 0,-10z M370,130l10,0 0,10 -10,0 0,-10z M390,130l10,0 0,10 -10,0 0,-10z M400,130l10,0 0,10 -10,0 0,-10z M460,130l10,0 0,10 -10,0 0,-10z M490,130l10,0 0,10 -10,0 0,-10z M510,130l10,0 0,10 -10,0 0,-10z M530,130l10,0 0,10 -10,0 0,-10z M550,130l10,0 0,10 -10,0 0,-10z M560,130l10,0 0,10 -10,0 0,-10z M580,130l10,0 0,10 -10,0 0,-10z M590,130l10,0 0,10 -10,0 0,-10z M600,130l10,0 0,10 -10,0 0,-10z M610,130l10,0 0,10 -10,0 0,-10z M10,140l10,0 0,10 -10,0 0,-10z M20,140l10,0 0,10 -10,0 0,-10z M30,140l10,0 0,10 -10,0 0,-10z M50,140l10,0 0,10 -10,0 0,-10z M60,140l10,0 0,10 -10,0 0,-10z M90,140l10,0 0,10 -10,0 0,-10z M140,140l10,0 0,10 -10,0 0,-10z M150,140l10,0 0,10 -10,0 0,-10z M200,140l10,0 0,10 -10,0 0,-10z M210,140l10,0 0,10 -10,0 0,-10z M220,140l10,0 0,10 -10,0 0,-10z M250,140l10,0 0,10 -10,0 0,-10z M280,140l10,0 0,10 -10,0 0,-10z M290,140l10,0 0,10 -10,0 0,-10z M310,140l10,0 0,10 -10,0 0,-10z M350,140l10,0 0,10 -10,0 0,-10z M380,140l10,0 0,10 -10,0 0,-10z M480,140l10,0 0,10 -10,0 0,-10z M510,140l10,0 0,10 -10,0 0,-10z M520,140l10,0 0,10 -10,0 0,-10z M540,140l10,0 0,10 -10,0 0,-10z M560,140l10,0 0,10 -10,0 0,-10z M570,140l10,0 0,10 -10,0 0,-10z M580,140l10,0 0,10 -10,0 0,-10z M610,140l10,0 0,10 -10,0 0,-10z M30,150l10,0 0,10 -10,0 0,-10z M60,150l10,0 0,10 -10,0 0,-10z M70,150l10,0 0,10 -10,0 0,-10z M80,150l10,0 0,10 -10,0 0,-10z M120,150l10,0 0,10 -10,0 0,-10z M140,150l10,0 0,10 -10,0 0,-10z M160,150l10,0 0,10 -10,0 0,-10z M200,150l10,0 0,10 -10,0 0,-10z M230,150l10,0 0,10 -10,0 0,-10z M270,150l10,0 0,10 -10,0 0,-10z M290,150l10,0 0,10 -10,0 0,-10z M310,150l10,0 0,10 -10,0 0,-10z M340,150l10,0 0,10 -10,0 0,-10z M380,150l10,0 0,10 -10,0 0,-10z M400,150l10,0 0,10 -10,0 0,-10z M410,150l10,0 0,10 -10,0 0,-10z M440,150l10,0 0,10 -10,0 0,-10z M460,150l10,0 0,10 -10,0 0,-10z M500,150l10,0 0,10 -10,0 0,-10z M510,150l10,0 0,10 -10,0 0,-10z M520,150l10,0 0,10 -10,0 0,-10z M530,150l10,0 0,10 -10,0 0,-10z M550,150l10,0 0,10 -10,0 0,-10z M580,150l10,0 0,10 -10,0 0,-10z M590,150l10,0 0,10 -10,0 0,-10z M10,160l10,0 0,10 -10,0 0,-10z M20,160l10,0 0,10 -10,0 0,-10z M40,160l10,0 0,10 -10,0 0,-10z M50,160l10,0 0,10 -10,0 0,-10z M60,160l10,0 0,10 -10,0 0,-10z M80,160l10,0 0,10 -10,0 0,-10z M100,160l10,0 0,10 -10,0 0,-10z M120,160l10,0 0,10 -10,0 0,-10z M130,160l10,0 0,10 -10,0 0,-10z M160,160l10,0 0,10 -10,0 0,-10z M170,160l10,0 0,10 -10,0 0,-10z M180,160l10,0 0,10 -10,0 0,-10z M220,160l10,0 0,10 -10,0 0,-10z M230,160l10,0 0,10 -10,0 0,-10z M240,160l10,0 0,10 -10,0 0,-10z M250,160l10,0 0,10 -10,0 0,-10z M260,160l10,0 0,10 -10,0 0,-10z M280,160l10,0 0,10 -10,0 0,-10z M310,160l10,0 0,10 -10,0 0,-10z M320,160l10,0 0,10 -10,0 0,-10z M340,160l10,0 0,10 -10,0 0,-10z M350,160l10,0 0,10 -10,0 0,-10z M360,160l10,0 0,10 -10,0 0,-10z M380,160l10,0 0,10 -10,0 0,-10z M390,160l10,0 0,10 -10,0 0,-10z M400,160l10,0 0,10 -10,0 0,-10z M410,160l10,0 0,10 -10,0 0,-10z M430,160l10,0 0,10 -10,0 0,-10z M440,160l10,0 0,10 -10,0 0,-10z M450,160l10,0 0,10 -10,0 0,-10z M490,160l10,0 0,10 -10,0 0,-10z M500,160l10,0 0,10 -10,0 0,-10z M520,160l10,0 0,10 -10,0 0,-10z M540,160l10,0 0,10 -10,0 0,-10z M550,160l10,0 0,10 -10,0 0,-10z M560,160l10,0 0,10 -10,0 0,-10z M570,160l10,0 0,10 -10,0 0,-10z M20,170l10,0 0,10 -10,0 0,-10z M40,170l10,0 0,10 -10,0 0,-10z M60,170l10,0 0,10 -10,0 0,-10z M70,170l10,0 0,10 -10,0 0,-10z M80,170l10,0 0,10 -10,0 0,-10z M90,170l10,0 0,10 -10,0 0,-10z M110,170l10,0 0,10 -10,0 0,-10z M120,170l10,0 0,10 -10,0 0,-10z M150,170l10,0 0,10 -10,0 0,-10z M160,170l10,0 0,10 -10,0 0,-10z M170,170l10,0 0,10 -10,0 0,-10z M200,170l10,0 0,10 -10,0 0,-10z M240,170l10,0 0,10 -10,0 0,-10z M270,170l10,0 0,10 -10,0 0,-10z M280,170l10,0 0,10 -10,0 0,-10z M300,170l10,0 0,10 -10,0 0,-10z M310,170l10,0 0,10 -10,0 0,-10z M320,170l10,0 0,10 -10,0 0,-10z M330,170l10,0 0,10 -10,0 0,-10z M350,170l10,0 0,10 -10,0 0,-10z M360,170l10,0 0,10 -10,0 0,-10z M390,170l10,0 0,10 -10,0 0,-10z M400,170l10,0 0,10 -10,0 0,-10z M450,170l10,0 0,10 -10,0 0,-10z M500,170l10,0 0,10 -10,0 0,-10z M510,170l10,0 0,10 -10,0 0,-10z M520,170l10,0 0,10 -10,0 0,-10z M530,170l10,0 0,10 -10,0 0,-10z M570,170l10,0 0,10 -10,0 0,-10z M600,170l10,0 0,10 -10,0 0,-10z M10,180l10,0 0,10 -10,0 0,-10z M20,180l10,0 0,10 -10,0 0,-10z M40,180l10,0 0,10 -10,0 0,-10z M50,180l10,0 0,10 -10,0 0,-10z M60,180l10,0 0,10 -10,0 0,-10z M80,180l10,0 0,10 -10,0 0,-10z M90,180l10,0 0,10 -10,0 0,-10z M120,180l10,0 0,10 -10,0 0,-10z M130,180l10,0 0,10 -10,0 0,-10z M150,180l10,0 0,10 -10,0 0,-10z M220,180l10,0 0,10 -10,0 0,-10z M260,180l10,0 0,10 -10,0 0,-10z M280,180l10,0 0,10 -10,0 0,-10z M290,180l10,0 0,10 -10,0 0,-10z M300,180l10,0 0,10 -10,0 0,-10z M330,180l10,0 0,10 -10,0 0,-10z M340,180l10,0 0,10 -10,0 0,-10z M410,180l10,0 0,10 -10,0 0,-10z M440,180l10,0 0,10 -10,0 0,-10z M470,180l10,0 0,10 -10,0 0,-10z M490,180l10,0 0,10 -10,0 0,-10z M500,180l10,0 0,10 -10,0 0,-10z M530,180l10,0 0,10 -10,0 0,-10z M540,180l10,0 0,10 -10,0 0,-10z M590,180l10,0 0,10 -10,0 0,-10z M20,190l10,0 0,10 -10,0 0,-10z M60,190l10,0 0,10 -10,0 0,-10z M70,190l10,0 0,10 -10,0 0,-10z M80,190l10,0 0,10 -10,0 0,-10z M180,190l10,0 0,10 -10,0 0,-10z M190,190l10,0 0,10 -10,0 0,-10z M200,190l10,0 0,10 -10,0 0,-10z M220,190l10,0 0,10 -10,0 0,-10z M250,190l10,0 0,10 -10,0 0,-10z M280,190l10,0 0,10 -10,0 0,-10z M320,190l10,0 0,10 -10,0 0,-10z M390,190l10,0 0,10 -10,0 0,-10z M400,190l10,0 0,10 -10,0 0,-10z M440,190l10,0 0,10 -10,0 0,-10z M460,190l10,0 0,10 -10,0 0,-10z M470,190l10,0 0,10 -10,0 0,-10z M490,190l10,0 0,10 -10,0 0,-10z M500,190l10,0 0,10 -10,0 0,-10z M510,190l10,0 0,10 -10,0 0,-10z M530,190l10,0 0,10 -10,0 0,-10z M550,190l10,0 0,10 -10,0 0,-10z M560,190l10,0 0,10 -10,0 0,-10z M580,190l10,0 0,10 -10,0 0,-10z M590,190l10,0 0,10 -10,0 0,-10z M600,190l10,0 0,10 -10,0 0,-10z M610,190l10,0 0,10 -10,0 0,-10z M10,200l10,0 0,10 -10,0 0,-10z M20,200l10,0 0,10 -10,0 0,-10z M40,200l10,0 0,10 -10,0 0,-10z M50,200l10,0 0,10 -10,0 0,-10z M60,200l10,0 0,10 -10,0 0,-10z M80,200l10,0 0,10 -10,0 0,-10z M90,200l10,0 0,10 -10,0 0,-10z M140,200l10,0 0,10 -10,0 0,-10z M170,200l10,0 0,10 -10,0 0,-10z M180,200l10,0 0,10 -10,0 0,-10z M190,200l10,0 0,10 -10,0 0,-10z M220,200l10,0 0,10 -10,0 0,-10z M230,200l10,0 0,10 -10,0 0,-10z M250,200l10,0 0,10 -10,0 0,-10z M260,200l10,0 0,10 -10,0 0,-10z M300,200l10,0 0,10 -10,0 0,-10z M320,200l10,0 0,10 -10,0 0,-10z M340,200l10,0 0,10 -10,0 0,-10z M350,200l10,0 0,10 -10,0 0,-10z M360,200l10,0 0,10 -10,0 0,-10z M390,200l10,0 0,10 -10,0 0,-10z M400,200l10,0 0,10 -10,0 0,-10z M420,200l10,0 0,10 -10,0 0,-10z M450,200l10,0 0,10 -10,0 0,-10z M460,200l10,0 0,10 -10,0 0,-10z M480,200l10,0 0,10 -10,0 0,-10z M510,200l10,0 0,10 -10,0 0,-10z M560,200l10,0 0,10 -10,0 0,-10z M20,210l10,0 0,10 -10,0 0,-10z M60,210l10,0 0,10 -10,0 0,-10z M70,210l10,0 0,10 -10,0 0,-10z M110,210l10,0 0,10 -10,0 0,-10z M130,210l10,0 0,10 -10,0 0,-10z M150,210l10,0 0,10 -10,0 0,-10z M180,210l10,0 0,10 -10,0 0,-10z M210,210l10,0 0,10 -10,0 0,-10z M240,210l10,0 0,10 -10,0 0,-10z M250,210l10,0 0,10 -10,0 0,-10z M310,210l10,0 0,10 -10,0 0,-10z M340,210l10,0 0,10 -10,0 0,-10z M350,210l10,0 0,10 -10,0 0,-10z M360,210l10,0 0,10 -10,0 0,-10z M380,210l10,0 0,10 -10,0 0,-10z M410,210l10,0 0,10 -10,0 0,-10z M460,210l10,0 0,10 -10,0 0,-10z M470,210l10,0 0,10 -10,0 0,-10z M480,210l10,0 0,10 -10,0 0,-10z M530,210l10,0 0,10 -10,0 0,-10z M540,210l10,0 0,10 -10,0 0,-10z M580,210l10,0 0,10 -10,0 0,-10z M600,210l10,0 0,10 -10,0 0,-10z M40,220l10,0 0,10 -10,0 0,-10z M60,220l10,0 0,10 -10,0 0,-10z M90,220l10,0 0,10 -10,0 0,-10z M120,220l10,0 0,10 -10,0 0,-10z M130,220l10,0 0,10 -10,0 0,-10z M140,220l10,0 0,10 -10,0 0,-10z M150,220l10,0 0,10 -10,0 0,-10z M180,220l10,0 0,10 -10,0 0,-10z M220,220l10,0 0,10 -10,0 0,-10z M230,220l10,0 0,10 -10,0 0,-10z M240,220l10,0 0,10 -10,0 0,-10z M250,220l10,0 0,10 -10,0 0,-10z M270,220l10,0 0,10 -10,0 0,-10z M320,220l10,0 0,10 -10,0 0,-10z M340,220l10,0 0,10 -10,0 0,-10z M360,220l10,0 0,10 -10,0 0,-10z M370,220l10,0 0,10 -10,0 0,-10z M430,220l10,0 0,10 -10,0 0,-10z M440,220l10,0 0,10 -10,0 0,-10z M480,220l10,0 0,10 -10,0 0,-10z M490,220l10,0 0,10 -10,0 0,-10z M530,220l10,0 0,10 -10,0 0,-10z M550,220l10,0 0,10 -10,0 0,-10z M570,220l10,0 0,10 -10,0 0,-10z M580,220l10,0 0,10 -10,0 0,-10z M10,230l10,0 0,10 -10,0 0,-10z M40,230l10,0 0,10 -10,0 0,-10z M50,230l10,0 0,10 -10,0 0,-10z M60,230l10,0 0,10 -10,0 0,-10z M70,230l10,0 0,10 -10,0 0,-10z M90,230l10,0 0,10 -10,0 0,-10z M100,230l10,0 0,10 -10,0 0,-10z M110,230l10,0 0,10 -10,0 0,-10z M120,230l10,0 0,10 -10,0 0,-10z M130,230l10,0 0,10 -10,0 0,-10z M140,230l10,0 0,10 -10,0 0,-10z M150,230l10,0 0,10 -10,0 0,-10z M160,230l10,0 0,10 -10,0 0,-10z M170,230l10,0 0,10 -10,0 0,-10z M190,230l10,0 0,10 -10,0 0,-10z M200,230l10,0 0,10 -10,0 0,-10z M220,230l10,0 0,10 -10,0 0,-10z M300,230l10,0 0,10 -10,0 0,-10z M310,230l10,0 0,10 -10,0 0,-10z M420,230l10,0 0,10 -10,0 0,-10z M430,230l10,0 0,10 -10,0 0,-10z M440,230l10,0 0,10 -10,0 0,-10z M450,230l10,0 0,10 -10,0 0,-10z M500,230l10,0 0,10 -10,0 0,-10z M510,230l10,0 0,10 -10,0 0,-10z M530,230l10,0 0,10 -10,0 0,-10z M550,230l10,0 0,10 -10,0 0,-10z M570,230l10,0 0,10 -10,0 0,-10z M10,240l10,0 0,10 -10,0 0,-10z M40,240l10,0 0,10 -10,0 0,-10z M80,240l10,0 0,10 -10,0 0,-10z M100,240l10,0 0,10 -10,0 0,-10z M120,240l10,0 0,10 -10,0 0,-10z M150,240l10,0 0,10 -10,0 0,-10z M160,240l10,0 0,10 -10,0 0,-10z M170,240l10,0 0,10 -10,0 0,-10z M200,240l10,0 0,10 -10,0 0,-10z M220,240l10,0 0,10 -10,0 0,-10z M250,240l10,0 0,10 -10,0 0,-10z M270,240l10,0 0,10 -10,0 0,-10z M300,240l10,0 0,10 -10,0 0,-10z M320,240l10,0 0,10 -10,0 0,-10z M330,240l10,0 0,10 -10,0 0,-10z M350,240l10,0 0,10 -10,0 0,-10z M360,240l10,0 0,10 -10,0 0,-10z M370,240l10,0 0,10 -10,0 0,-10z M420,240l10,0 0,10 -10,0 0,-10z M440,240l10,0 0,10 -10,0 0,-10z M450,240l10,0 0,10 -10,0 0,-10z M460,240l10,0 0,10 -10,0 0,-10z M470,240l10,0 0,10 -10,0 0,-10z M500,240l10,0 0,10 -10,0 0,-10z M510,240l10,0 0,10 -10,0 0,-10z M520,240l10,0 0,10 -10,0 0,-10z M540,240l10,0 0,10 -10,0 0,-10z M570,240l10,0 0,10 -10,0 0,-10z M580,240l10,0 0,10 -10,0 0,-10z M590,240l10,0 0,10 -10,0 0,-10z M600,240l10,0 0,10 -10,0 0,-10z M610,240l10,0 0,10 -10,0 0,-10z M70,250l10,0 0,10 -10,0 0,-10z M80,250l10,0 0,10 -10,0 0,-10z M100,250l10,0 0,10 -10,0 0,-10z M130,250l10,0 0,10 -10,0 0,-10z M140,250l10,0 0,10 -10,0 0,-10z M150,250l10,0 0,10 -10,0 0,-10z M170,250l10,0 0,10 -10,0 0,-10z M180,250l10,0 0,10 -10,0 0,-10z M200,250l10,0 0,10 -10,0 0,-10z M210,250l10,0 0,10 -10,0 0,-10z M220,250l10,0 0,10 -10,0 0,-10z M240,250l10,0 0,10 -10,0 0,-10z M260,250l10,0 0,10 -10,0 0,-10z M280,250l10,0 0,10 -10,0 0,-10z M290,250l10,0 0,10 -10,0 0,-10z M300,250l10,0 0,10 -10,0 0,-10z M310,250l10,0 0,10 -10,0 0,-10z M370,250l10,0 0,10 -10,0 0,-10z M380,250l10,0 0,10 -10,0 0,-10z M420,250l10,0 0,10 -10,0 0,-10z M430,250l10,0 0,10 -10,0 0,-10z M460,250l10,0 0,10 -10,0 0,-10z M480,250l10,0 0,10 -10,0 0,-10z M490,250l10,0 0,10 -10,0 0,-10z M510,250l10,0 0,10 -10,0 0,-10z M520,250l10,0 0,10 -10,0 0,-10z M530,250l10,0 0,10 -10,0 0,-10z M550,250l10,0 0,10 -10,0 0,-10z M560,250l10,0 0,10 -10,0 0,-10z M580,250l10,0 0,10 -10,0 0,-10z M590,250l10,0 0,10 -10,0 0,-10z M600,250l10,0 0,10 -10,0 0,-10z M50,260l10,0 0,10 -10,0 0,-10z M60,260l10,0 0,10 -10,0 0,-10z M80,260l10,0 0,10 -10,0 0,-10z M90,260l10,0 0,10 -10,0 0,-10z M100,260l10,0 0,10 -10,0 0,-10z M110,260l10,0 0,10 -10,0 0,-10z M120,260l10,0 0,10 -10,0 0,-10z M130,260l10,0 0,10 -10,0 0,-10z M160,260l10,0 0,10 -10,0 0,-10z M180,260l10,0 0,10 -10,0 0,-10z M200,260l10,0 0,10 -10,0 0,-10z M210,260l10,0 0,10 -10,0 0,-10z M240,260l10,0 0,10 -10,0 0,-10z M250,260l10,0 0,10 -10,0 0,-10z M270,260l10,0 0,10 -10,0 0,-10z M280,260l10,0 0,10 -10,0 0,-10z M290,260l10,0 0,10 -10,0 0,-10z M300,260l10,0 0,10 -10,0 0,-10z M320,260l10,0 0,10 -10,0 0,-10z M350,260l10,0 0,10 -10,0 0,-10z M380,260l10,0 0,10 -10,0 0,-10z M390,260l10,0 0,10 -10,0 0,-10z M400,260l10,0 0,10 -10,0 0,-10z M440,260l10,0 0,10 -10,0 0,-10z M510,260l10,0 0,10 -10,0 0,-10z M570,260l10,0 0,10 -10,0 0,-10z M580,260l10,0 0,10 -10,0 0,-10z M590,260l10,0 0,10 -10,0 0,-10z M600,260l10,0 0,10 -10,0 0,-10z M610,260l10,0 0,10 -10,0 0,-10z M30,270l10,0 0,10 -10,0 0,-10z M40,270l10,0 0,10 -10,0 0,-10z M50,270l10,0 0,10 -10,0 0,-10z M70,270l10,0 0,10 -10,0 0,-10z M80,270l10,0 0,10 -10,0 0,-10z M110,270l10,0 0,10 -10,0 0,-10z M140,270l10,0 0,10 -10,0 0,-10z M150,270l10,0 0,10 -10,0 0,-10z M170,270l10,0 0,10 -10,0 0,-10z M190,270l10,0 0,10 -10,0 0,-10z M210,270l10,0 0,10 -10,0 0,-10z M240,270l10,0 0,10 -10,0 0,-10z M250,270l10,0 0,10 -10,0 0,-10z M270,270l10,0 0,10 -10,0 0,-10z M310,270l10,0 0,10 -10,0 0,-10z M320,270l10,0 0,10 -10,0 0,-10z M330,270l10,0 0,10 -10,0 0,-10z M340,270l10,0 0,10 -10,0 0,-10z M360,270l10,0 0,10 -10,0 0,-10z M380,270l10,0 0,10 -10,0 0,-10z M440,270l10,0 0,10 -10,0 0,-10z M460,270l10,0 0,10 -10,0 0,-10z M480,270l10,0 0,10 -10,0 0,-10z M500,270l10,0 0,10 -10,0 0,-10z M510,270l10,0 0,10 -10,0 0,-10z M520,270l10,0 0,10 -10,0 0,-10z M530,270l10,0 0,10 -10,0 0,-10z M540,270l10,0 0,10 -10,0 0,-10z M550,270l10,0 0,10 -10,0 0,-10z M580,270l10,0 0,10 -10,0 0,-10z M590,270l10,0 0,10 -10,0 0,-10z M610,270l10,0 0,10 -10,0 0,-10z M20,280l10,0 0,10 -10,0 0,-10z M40,280l10,0 0,10 -10,0 0,-10z M50,280l10,0 0,10 -10,0 0,-10z M60,280l10,0 0,10 -10,0 0,-10z M100,280l10,0 0,10 -10,0 0,-10z M110,280l10,0 0,10 -10,0 0,-10z M120,280l10,0 0,10 -10,0 0,-10z M150,280l10,0 0,10 -10,0 0,-10z M190,280l10,0 0,10 -10,0 0,-10z M200,280l10,0 0,10 -10,0 0,-10z M210,280l10,0 0,10 -10,0 0,-10z M230,280l10,0 0,10 -10,0 0,-10z M240,280l10,0 0,10 -10,0 0,-10z M270,280l10,0 0,10 -10,0 0,-10z M280,280l10,0 0,10 -10,0 0,-10z M290,280l10,0 0,10 -10,0 0,-10z M300,280l10,0 0,10 -10,0 0,-10z M380,280l10,0 0,10 -10,0 0,-10z M400,280l10,0 0,10 -10,0 0,-10z M420,280l10,0 0,10 -10,0 0,-10z M430,280l10,0 0,10 -10,0 0,-10z M440,280l10,0 0,10 -10,0 0,-10z M460,280l10,0 0,10 -10,0 0,-10z M520,280l10,0 0,10 -10,0 0,-10z M540,280l10,0 0,10 -10,0 0,-10z M550,280l10,0 0,10 -10,0 0,-10z M560,280l10,0 0,10 -10,0 0,-10z M570,280l10,0 0,10 -10,0 0,-10z M580,280l10,0 0,10 -10,0 0,-10z M610,280l10,0 0,10 -10,0 0,-10z M10,290l10,0 0,10 -10,0 0,-10z M20,290l10,0 0,10 -10,0 0,-10z M40,290l10,0 0,10 -10,0 0,-10z M50,290l10,0 0,10 -10,0 0,-10z M60,290l10,0 0,10 -10,0 0,-10z M70,290l10,0 0,10 -10,0 0,-10z M80,290l10,0 0,10 -10,0 0,-10z M90,290l10,0 0,10 -10,0 0,-10z M160,290l10,0 0,10 -10,0 0,-10z M170,290l10,0 0,10 -10,0 0,-10z M180,290l10,0 0,10 -10,0 0,-10z M200,290l10,0 0,10 -10,0 0,-10z M220,290l10,0 0,10 -10,0 0,-10z M230,290l10,0 0,10 -10,0 0,-10z M270,290l10,0 0,10 -10,0 0,-10z M280,290l10,0 0,10 -10,0 0,-10z M290,290l10,0 0,10 -10,0 0,-10z M300,290l10,0 0,10 -10,0 0,-10z M310,290l10,0 0,10 -10,0 0,-10z M320,290l10,0 0,10 -10,0 0,-10z M330,290l10,0 0,10 -10,0 0,-10z M340,290l10,0 0,10 -10,0 0,-10z M350,290l10,0 0,10 -10,0 0,-10z M360,290l10,0 0,10 -10,0 0,-10z M380,290l10,0 0,10 -10,0 0,-10z M390,290l10,0 0,10 -10,0 0,-10z M400,290l10,0 0,10 -10,0 0,-10z M420,290l10,0 0,10 -10,0 0,-10z M450,290l10,0 0,10 -10,0 0,-10z M460,290l10,0 0,10 -10,0 0,-10z M480,290l10,0 0,10 -10,0 0,-10z M510,290l10,0 0,10 -10,0 0,-10z M530,290l10,0 0,10 -10,0 0,-10z M540,290l10,0 0,10 -10,0 0,-10z M550,290l10,0 0,10 -10,0 0,-10z M560,290l10,0 0,10 -10,0 0,-10z M570,290l10,0 0,10 -10,0 0,-10z M590,290l10,0 0,10 -10,0 0,-10z M600,290l10,0 0,10 -10,0 0,-10z M10,300l10,0 0,10 -10,0 0,-10z M20,300l10,0 0,10 -10,0 0,-10z M30,300l10,0 0,10 -10,0 0,-10z M50,300l10,0 0,10 -10,0 0,-10z M90,300l10,0 0,10 -10,0 0,-10z M120,300l10,0 0,10 -10,0 0,-10z M140,300l10,0 0,10 -10,0 0,-10z M150,300l10,0 0,10 -10,0 0,-10z M240,300l10,0 0,10 -10,0 0,-10z M250,300l10,0 0,10 -10,0 0,-10z M270,300l10,0 0,10 -10,0 0,-10z M290,300l10,0 0,10 -10,0 0,-10z M330,300l10,0 0,10 -10,0 0,-10z M360,300l10,0 0,10 -10,0 0,-10z M400,300l10,0 0,10 -10,0 0,-10z M410,300l10,0 0,10 -10,0 0,-10z M470,300l10,0 0,10 -10,0 0,-10z M480,300l10,0 0,10 -10,0 0,-10z M490,300l10,0 0,10 -10,0 0,-10z M530,300l10,0 0,10 -10,0 0,-10z M570,300l10,0 0,10 -10,0 0,-10z M580,300l10,0 0,10 -10,0 0,-10z M590,300l10,0 0,10 -10,0 0,-10z M600,300l10,0 0,10 -10,0 0,-10z M610,300l10,0 0,10 -10,0 0,-10z M50,310l10,0 0,10 -10,0 0,-10z M70,310l10,0 0,10 -10,0 0,-10z M90,310l10,0 0,10 -10,0 0,-10z M100,310l10,0 0,10 -10,0 0,-10z M140,310l10,0 0,10 -10,0 0,-10z M160,310l10,0 0,10 -10,0 0,-10z M170,310l10,0 0,10 -10,0 0,-10z M180,310l10,0 0,10 -10,0 0,-10z M200,310l10,0 0,10 -10,0 0,-10z M220,310l10,0 0,10 -10,0 0,-10z M240,310l10,0 0,10 -10,0 0,-10z M250,310l10,0 0,10 -10,0 0,-10z M260,310l10,0 0,10 -10,0 0,-10z M290,310l10,0 0,10 -10,0 0,-10z M310,310l10,0 0,10 -10,0 0,-10z M330,310l10,0 0,10 -10,0 0,-10z M370,310l10,0 0,10 -10,0 0,-10z M420,310l10,0 0,10 -10,0 0,-10z M480,310l10,0 0,10 -10,0 0,-10z M500,310l10,0 0,10 -10,0 0,-10z M510,310l10,0 0,10 -10,0 0,-10z M530,310l10,0 0,10 -10,0 0,-10z M550,310l10,0 0,10 -10,0 0,-10z M570,310l10,0 0,10 -10,0 0,-10z M580,310l10,0 0,10 -10,0 0,-10z M610,310l10,0 0,10 -10,0 0,-10z M10,320l10,0 0,10 -10,0 0,-10z M20,320l10,0 0,10 -10,0 0,-10z M30,320l10,0 0,10 -10,0 0,-10z M40,320l10,0 0,10 -10,0 0,-10z M50,320l10,0 0,10 -10,0 0,-10z M90,320l10,0 0,10 -10,0 0,-10z M120,320l10,0 0,10 -10,0 0,-10z M140,320l10,0 0,10 -10,0 0,-10z M150,320l10,0 0,10 -10,0 0,-10z M160,320l10,0 0,10 -10,0 0,-10z M170,320l10,0 0,10 -10,0 0,-10z M180,320l10,0 0,10 -10,0 0,-10z M200,320l10,0 0,10 -10,0 0,-10z M210,320l10,0 0,10 -10,0 0,-10z M250,320l10,0 0,10 -10,0 0,-10z M260,320l10,0 0,10 -10,0 0,-10z M290,320l10,0 0,10 -10,0 0,-10z M330,320l10,0 0,10 -10,0 0,-10z M340,320l10,0 0,10 -10,0 0,-10z M350,320l10,0 0,10 -10,0 0,-10z M360,320l10,0 0,10 -10,0 0,-10z M370,320l10,0 0,10 -10,0 0,-10z M380,320l10,0 0,10 -10,0 0,-10z M390,320l10,0 0,10 -10,0 0,-10z M410,320l10,0 0,10 -10,0 0,-10z M420,320l10,0 0,10 -10,0 0,-10z M450,320l10,0 0,10 -10,0 0,-10z M480,320l10,0 0,10 -10,0 0,-10z M490,320l10,0 0,10 -10,0 0,-10z M500,320l10,0 0,10 -10,0 0,-10z M510,320l10,0 0,10 -10,0 0,-10z M530,320l10,0 0,10 -10,0 0,-10z M570,320l10,0 0,10 -10,0 0,-10z M30,330l10,0 0,10 -10,0 0,-10z M40,330l10,0 0,10 -10,0 0,-10z M50,330l10,0 0,10 -10,0 0,-10z M60,330l10,0 0,10 -10,0 0,-10z M70,330l10,0 0,10 -10,0 0,-10z M80,330l10,0 0,10 -10,0 0,-10z M90,330l10,0 0,10 -10,0 0,-10z M180,330l10,0 0,10 -10,0 0,-10z M190,330l10,0 0,10 -10,0 0,-10z M200,330l10,0 0,10 -10,0 0,-10z M220,330l10,0 0,10 -10,0 0,-10z M230,330l10,0 0,10 -10,0 0,-10z M240,330l10,0 0,10 -10,0 0,-10z M270,330l10,0 0,10 -10,0 0,-10z M290,330l10,0 0,10 -10,0 0,-10z M300,330l10,0 0,10 -10,0 0,-10z M310,330l10,0 0,10 -10,0 0,-10z M320,330l10,0 0,10 -10,0 0,-10z M330,330l10,0 0,10 -10,0 0,-10z M350,330l10,0 0,10 -10,0 0,-10z M380,330l10,0 0,10 -10,0 0,-10z M410,330l10,0 0,10 -10,0 0,-10z M420,330l10,0 0,10 -10,0 0,-10z M470,330l10,0 0,10 -10,0 0,-10z M480,330l10,0 0,10 -10,0 0,-10z M500,330l10,0 0,10 -10,0 0,-10z M530,330l10,0 0,10 -10,0 0,-10z M540,330l10,0 0,10 -10,0 0,-10z M550,330l10,0 0,10 -10,0 0,-10z M560,330l10,0 0,10 -10,0 0,-10z M570,330l10,0 0,10 -10,0 0,-10z M580,330l10,0 0,10 -10,0 0,-10z M610,330l10,0 0,10 -10,0 0,-10z M10,340l10,0 0,10 -10,0 0,-10z M20,340l10,0 0,10 -10,0 0,-10z M30,340l10,0 0,10 -10,0 0,-10z M50,340l10,0 0,10 -10,0 0,-10z M60,340l10,0 0,10 -10,0 0,-10z M80,340l10,0 0,10 -10,0 0,-10z M90,340l10,0 0,10 -10,0 0,-10z M110,340l10,0 0,10 -10,0 0,-10z M160,340l10,0 0,10 -10,0 0,-10z M170,340l10,0 0,10 -10,0 0,-10z M200,340l10,0 0,10 -10,0 0,-10z M210,340l10,0 0,10 -10,0 0,-10z M220,340l10,0 0,10 -10,0 0,-10z M230,340l10,0 0,10 -10,0 0,-10z M240,340l10,0 0,10 -10,0 0,-10z M250,340l10,0 0,10 -10,0 0,-10z M260,340l10,0 0,10 -10,0 0,-10z M310,340l10,0 0,10 -10,0 0,-10z M320,340l10,0 0,10 -10,0 0,-10z M330,340l10,0 0,10 -10,0 0,-10z M340,340l10,0 0,10 -10,0 0,-10z M350,340l10,0 0,10 -10,0 0,-10z M370,340l10,0 0,10 -10,0 0,-10z M430,340l10,0 0,10 -10,0 0,-10z M440,340l10,0 0,10 -10,0 0,-10z M480,340l10,0 0,10 -10,0 0,-10z M540,340l10,0 0,10 -10,0 0,-10z M550,340l10,0 0,10 -10,0 0,-10z M580,340l10,0 0,10 -10,0 0,-10z M590,340l10,0 0,10 -10,0 0,-10z M10,350l10,0 0,10 -10,0 0,-10z M20,350l10,0 0,10 -10,0 0,-10z M50,350l10,0 0,10 -10,0 0,-10z M60,350l10,0 0,10 -10,0 0,-10z M70,350l10,0 0,10 -10,0 0,-10z M100,350l10,0 0,10 -10,0 0,-10z M110,350l10,0 0,10 -10,0 0,-10z M130,350l10,0 0,10 -10,0 0,-10z M170,350l10,0 0,10 -10,0 0,-10z M180,350l10,0 0,10 -10,0 0,-10z M210,350l10,0 0,10 -10,0 0,-10z M220,350l10,0 0,10 -10,0 0,-10z M260,350l10,0 0,10 -10,0 0,-10z M270,350l10,0 0,10 -10,0 0,-10z M290,350l10,0 0,10 -10,0 0,-10z M300,350l10,0 0,10 -10,0 0,-10z M310,350l10,0 0,10 -10,0 0,-10z M360,350l10,0 0,10 -10,0 0,-10z M380,350l10,0 0,10 -10,0 0,-10z M400,350l10,0 0,10 -10,0 0,-10z M420,350l10,0 0,10 -10,0 0,-10z M430,350l10,0 0,10 -10,0 0,-10z M440,350l10,0 0,10 -10,0 0,-10z M450,350l10,0 0,10 -10,0 0,-10z M460,350l10,0 0,10 -10,0 0,-10z M470,350l10,0 0,10 -10,0 0,-10z M490,350l10,0 0,10 -10,0 0,-10z M500,350l10,0 0,10 -10,0 0,-10z M540,350l10,0 0,10 -10,0 0,-10z M560,350l10,0 0,10 -10,0 0,-10z M580,350l10,0 0,10 -10,0 0,-10z M600,350l10,0 0,10 -10,0 0,-10z M10,360l10,0 0,10 -10,0 0,-10z M40,360l10,0 0,10 -10,0 0,-10z M50,360l10,0 0,10 -10,0 0,-10z M60,360l10,0 0,10 -10,0 0,-10z M80,360l10,0 0,10 -10,0 0,-10z M90,360l10,0 0,10 -10,0 0,-10z M100,360l10,0 0,10 -10,0 0,-10z M110,360l10,0 0,10 -10,0 0,-10z M120,360l10,0 0,10 -10,0 0,-10z M130,360l10,0 0,10 -10,0 0,-10z M150,360l10,0 0,10 -10,0 0,-10z M170,360l10,0 0,10 -10,0 0,-10z M180,360l10,0 0,10 -10,0 0,-10z M210,360l10,0 0,10 -10,0 0,-10z M220,360l10,0 0,10 -10,0 0,-10z M260,360l10,0 0,10 -10,0 0,-10z M270,360l10,0 0,10 -10,0 0,-10z M290,360l10,0 0,10 -10,0 0,-10z M300,360l10,0 0,10 -10,0 0,-10z M310,360l10,0 0,10 -10,0 0,-10z M350,360l10,0 0,10 -10,0 0,-10z M360,360l10,0 0,10 -10,0 0,-10z M370,360l10,0 0,10 -10,0 0,-10z M400,360l10,0 0,10 -10,0 0,-10z M440,360l10,0 0,10 -10,0 0,-10z M450,360l10,0 0,10 -10,0 0,-10z M460,360l10,0 0,10 -10,0 0,-10z M470,360l10,0 0,10 -10,0 0,-10z M480,360l10,0 0,10 -10,0 0,-10z M500,360l10,0 0,10 -10,0 0,-10z M550,360l10,0 0,10 -10,0 0,-10z M590,360l10,0 0,10 -10,0 0,-10z M10,370l10,0 0,10 -10,0 0,-10z M20,370l10,0 0,10 -10,0 0,-10z M50,370l10,0 0,10 -10,0 0,-10z M70,370l10,0 0,10 -10,0 0,-10z M80,370l10,0 0,10 -10,0 0,-10z M90,370l10,0 0,10 -10,0 0,-10z M150,370l10,0 0,10 -10,0 0,-10z M170,370l10,0 0,10 -10,0 0,-10z M180,370l10,0 0,10 -10,0 0,-10z M220,370l10,0 0,10 -10,0 0,-10z M250,370l10,0 0,10 -10,0 0,-10z M280,370l10,0 0,10 -10,0 0,-10z M290,370l10,0 0,10 -10,0 0,-10z M300,370l10,0 0,10 -10,0 0,-10z M320,370l10,0 0,10 -10,0 0,-10z M340,370l10,0 0,10 -10,0 0,-10z M350,370l10,0 0,10 -10,0 0,-10z M370,370l10,0 0,10 -10,0 0,-10z M380,370l10,0 0,10 -10,0 0,-10z M400,370l10,0 0,10 -10,0 0,-10z M420,370l10,0 0,10 -10,0 0,-10z M430,370l10,0 0,10 -10,0 0,-10z M460,370l10,0 0,10 -10,0 0,-10z M490,370l10,0 0,10 -10,0 0,-10z M510,370l10,0 0,10 -10,0 0,-10z M520,370l10,0 0,10 -10,0 0,-10z M530,370l10,0 0,10 -10,0 0,-10z M570,370l10,0 0,10 -10,0 0,-10z M580,370l10,0 0,10 -10,0 0,-10z M590,370l10,0 0,10 -10,0 0,-10z M610,370l10,0 0,10 -10,0 0,-10z M20,380l10,0 0,10 -10,0 0,-10z M30,380l10,0 0,10 -10,0 0,-10z M40,380l10,0 0,10 -10,0 0,-10z M60,380l10,0 0,10 -10,0 0,-10z M110,380l10,0 0,10 -10,0 0,-10z M120,380l10,0 0,10 -10,0 0,-10z M140,380l10,0 0,10 -10,0 0,-10z M180,380l10,0 0,10 -10,0 0,-10z M190,380l10,0 0,10 -10,0 0,-10z M200,380l10,0 0,10 -10,0 0,-10z M220,380l10,0 0,10 -10,0 0,-10z M230,380l10,0 0,10 -10,0 0,-10z M260,380l10,0 0,10 -10,0 0,-10z M290,380l10,0 0,10 -10,0 0,-10z M300,380l10,0 0,10 -10,0 0,-10z M340,380l10,0 0,10 -10,0 0,-10z M350,380l10,0 0,10 -10,0 0,-10z M360,380l10,0 0,10 -10,0 0,-10z M370,380l10,0 0,10 -10,0 0,-10z M390,380l10,0 0,10 -10,0 0,-10z M420,380l10,0 0,10 -10,0 0,-10z M450,380l10,0 0,10 -10,0 0,-10z M500,380l10,0 0,10 -10,0 0,-10z M510,380l10,0 0,10 -10,0 0,-10z M530,380l10,0 0,10 -10,0 0,-10z M540,380l10,0 0,10 -10,0 0,-10z M570,380l10,0 0,10 -10,0 0,-10z M600,380l10,0 0,10 -10,0 0,-10z M610,380l10,0 0,10 -10,0 0,-10z M10,390l10,0 0,10 -10,0 0,-10z M20,390l10,0 0,10 -10,0 0,-10z M30,390l10,0 0,10 -10,0 0,-10z M60,390l10,0 0,10 -10,0 0,-10z M70,390l10,0 0,10 -10,0 0,-10z M80,390l10,0 0,10 -10,0 0,-10z M90,390l10,0 0,10 -10,0 0,-10z M110,390l10,0 0,10 -10,0 0,-10z M150,390l10,0 0,10 -10,0 0,-10z M200,390l10,0 0,10 -10,0 0,-10z M210,390l10,0 0,10 -10,0 0,-10z M220,390l10,0 0,10 -10,0 0,-10z M270,390l10,0 0,10 -10,0 0,-10z M280,390l10,0 0,10 -10,0 0,-10z M290,390l10,0 0,10 -10,0 0,-10z M300,390l10,0 0,10 -10,0 0,-10z M310,390l10,0 0,10 -10,0 0,-10z M330,390l10,0 0,10 -10,0 0,-10z M350,390l10,0 0,10 -10,0 0,-10z M380,390l10,0 0,10 -10,0 0,-10z M390,390l10,0 0,10 -10,0 0,-10z M400,390l10,0 0,10 -10,0 0,-10z M410,390l10,0 0,10 -10,0 0,-10z M420,390l10,0 0,10 -10,0 0,-10z M440,390l10,0 0,10 -10,0 0,-10z M460,390l10,0 0,10 -10,0 0,-10z M500,390l10,0 0,10 -10,0 0,-10z M530,390l10,0 0,10 -10,0 0,-10z M560,390l10,0 0,10 -10,0 0,-10z M590,390l10,0 0,10 -10,0 0,-10z M30,400l10,0 0,10 -10,0 0,-10z M40,400l10,0 0,10 -10,0 0,-10z M50,400l10,0 0,10 -10,0 0,-10z M80,400l10,0 0,10 -10,0 0,-10z M110,400l10,0 0,10 -10,0 0,-10z M150,400l10,0 0,10 -10,0 0,-10z M170,400l10,0 0,10 -10,0 0,-10z M180,400l10,0 0,10 -10,0 0,-10z M190,400l10,0 0,10 -10,0 0,-10z M210,400l10,0 0,10 -10,0 0,-10z M220,400l10,0 0,10 -10,0 0,-10z M240,400l10,0 0,10 -10,0 0,-10z M260,400l10,0 0,10 -10,0 0,-10z M270,400l10,0 0,10 -10,0 0,-10z M280,400l10,0 0,10 -10,0 0,-10z M310,400l10,0 0,10 -10,0 0,-10z M340,400l10,0 0,10 -10,0 0,-10z M350,400l10,0 0,10 -10,0 0,-10z M400,400l10,0 0,10 -10,0 0,-10z M430,400l10,0 0,10 -10,0 0,-10z M440,400l10,0 0,10 -10,0 0,-10z M450,400l10,0 0,10 -10,0 0,-10z M540,400l10,0 0,10 -10,0 0,-10z M560,400l10,0 0,10 -10,0 0,-10z M580,400l10,0 0,10 -10,0 0,-10z M10,410l10,0 0,10 -10,0 0,-10z M30,410l10,0 0,10 -10,0 0,-10z M50,410l10,0 0,10 -10,0 0,-10z M60,410l10,0 0,10 -10,0 0,-10z M70,410l10,0 0,10 -10,0 0,-10z M110,410l10,0 0,10 -10,0 0,-10z M130,410l10,0 0,10 -10,0 0,-10z M150,410l10,0 0,10 -10,0 0,-10z M200,410l10,0 0,10 -10,0 0,-10z M220,410l10,0 0,10 -10,0 0,-10z M240,410l10,0 0,10 -10,0 0,-10z M250,410l10,0 0,10 -10,0 0,-10z M260,410l10,0 0,10 -10,0 0,-10z M270,410l10,0 0,10 -10,0 0,-10z M290,410l10,0 0,10 -10,0 0,-10z M330,410l10,0 0,10 -10,0 0,-10z M380,410l10,0 0,10 -10,0 0,-10z M390,410l10,0 0,10 -10,0 0,-10z M400,410l10,0 0,10 -10,0 0,-10z M450,410l10,0 0,10 -10,0 0,-10z M480,410l10,0 0,10 -10,0 0,-10z M510,410l10,0 0,10 -10,0 0,-10z M560,410l10,0 0,10 -10,0 0,-10z M590,410l10,0 0,10 -10,0 0,-10z M600,410l10,0 0,10 -10,0 0,-10z M20,420l10,0 0,10 -10,0 0,-10z M50,420l10,0 0,10 -10,0 0,-10z M60,420l10,0 0,10 -10,0 0,-10z M110,420l10,0 0,10 -10,0 0,-10z M180,420l10,0 0,10 -10,0 0,-10z M190,420l10,0 0,10 -10,0 0,-10z M200,420l10,0 0,10 -10,0 0,-10z M220,420l10,0 0,10 -10,0 0,-10z M250,420l10,0 0,10 -10,0 0,-10z M260,420l10,0 0,10 -10,0 0,-10z M270,420l10,0 0,10 -10,0 0,-10z M320,420l10,0 0,10 -10,0 0,-10z M340,420l10,0 0,10 -10,0 0,-10z M370,420l10,0 0,10 -10,0 0,-10z M380,420l10,0 0,10 -10,0 0,-10z M410,420l10,0 0,10 -10,0 0,-10z M420,420l10,0 0,10 -10,0 0,-10z M440,420l10,0 0,10 -10,0 0,-10z M470,420l10,0 0,10 -10,0 0,-10z M500,420l10,0 0,10 -10,0 0,-10z M530,420l10,0 0,10 -10,0 0,-10z M560,420l10,0 0,10 -10,0 0,-10z M580,420l10,0 0,10 -10,0 0,-10z M590,420l10,0 0,10 -10,0 0,-10z M20,430l10,0 0,10 -10,0 0,-10z M30,430l10,0 0,10 -10,0 0,-10z M40,430l10,0 0,10 -10,0 0,-10z M50,430l10,0 0,10 -10,0 0,-10z M70,430l10,0 0,10 -10,0 0,-10z M80,430l10,0 0,10 -10,0 0,-10z M90,430l10,0 0,10 -10,0 0,-10z M100,430l10,0 0,10 -10,0 0,-10z M120,430l10,0 0,10 -10,0 0,-10z M140,430l10,0 0,10 -10,0 0,-10z M170,430l10,0 0,10 -10,0 0,-10z M180,430l10,0 0,10 -10,0 0,-10z M190,430l10,0 0,10 -10,0 0,-10z M230,430l10,0 0,10 -10,0 0,-10z M240,430l10,0 0,10 -10,0 0,-10z M270,430l10,0 0,10 -10,0 0,-10z M280,430l10,0 0,10 -10,0 0,-10z M290,430l10,0 0,10 -10,0 0,-10z M310,430l10,0 0,10 -10,0 0,-10z M320,430l10,0 0,10 -10,0 0,-10z M360,430l10,0 0,10 -10,0 0,-10z M380,430l10,0 0,10 -10,0 0,-10z M390,430l10,0 0,10 -10,0 0,-10z M400,430l10,0 0,10 -10,0 0,-10z M410,430l10,0 0,10 -10,0 0,-10z M420,430l10,0 0,10 -10,0 0,-10z M440,430l10,0 0,10 -10,0 0,-10z M460,430l10,0 0,10 -10,0 0,-10z M470,430l10,0 0,10 -10,0 0,-10z M480,430l10,0 0,10 -10,0 0,-10z M490,430l10,0 0,10 -10,0 0,-10z M510,430l10,0 0,10 -10,0 0,-10z M520,430l10,0 0,10 -10,0 0,-10z M550,430l10,0 0,10 -10,0 0,-10z M600,430l10,0 0,10 -10,0 0,-10z M610,430l10,0 0,10 -10,0 0,-10z M10,440l10,0 0,10 -10,0 0,-10z M20,440l10,0 0,10 -10,0 0,-10z M40,440l10,0 0,10 -10,0 0,-10z M50,440l10,0 0,10 -10,0 0,-10z M80,440l10,0 0,10 -10,0 0,-10z M90,440l10,0 0,10 -10,0 0,-10z M100,440l10,0 0,10 -10,0 0,-10z M110,440l10,0 0,10 -10,0 0,-10z M130,440l10,0 0,10 -10,0 0,-10z M150,440l10,0 0,10 -10,0 0,-10z M160,440l10,0 0,10 -10,0 0,-10z M170,440l10,0 0,10 -10,0 0,-10z M190,440l10,0 0,10 -10,0 0,-10z M210,440l10,0 0,10 -10,0 0,-10z M230,440l10,0 0,10 -10,0 0,-10z M240,440l10,0 0,10 -10,0 0,-10z M250,440l10,0 0,10 -10,0 0,-10z M260,440l10,0 0,10 -10,0 0,-10z M280,440l10,0 0,10 -10,0 0,-10z M300,440l10,0 0,10 -10,0 0,-10z M310,440l10,0 0,10 -10,0 0,-10z M320,440l10,0 0,10 -10,0 0,-10z M330,440l10,0 0,10 -10,0 0,-10z M340,440l10,0 0,10 -10,0 0,-10z M350,440l10,0 0,10 -10,0 0,-10z M360,440l10,0 0,10 -10,0 0,-10z M390,440l10,0 0,10 -10,0 0,-10z M420,440l10,0 0,10 -10,0 0,-10z M450,440l10,0 0,10 -10,0 0,-10z M490,440l10,0 0,10 -10,0 0,-10z M500,440l10,0 0,10 -10,0 0,-10z M510,440l10,0 0,10 -10,0 0,-10z M520,440l10,0 0,10 -10,0 0,-10z M550,440l10,0 0,10 -10,0 0,-10z M560,440l10,0 0,10 -10,0 0,-10z M570,440l10,0 0,10 -10,0 0,-10z M580,440l10,0 0,10 -10,0 0,-10z M10,450l10,0 0,10 -10,0 0,-10z M20,450l10,0 0,10 -10,0 0,-10z M40,450l10,0 0,10 -10,0 0,-10z M50,450l10,0 0,10 -10,0 0,-10z M70,450l10,0 0,10 -10,0 0,-10z M80,450l10,0 0,10 -10,0 0,-10z M110,450l10,0 0,10 -10,0 0,-10z M180,450l10,0 0,10 -10,0 0,-10z M190,450l10,0 0,10 -10,0 0,-10z M210,450l10,0 0,10 -10,0 0,-10z M230,450l10,0 0,10 -10,0 0,-10z M260,450l10,0 0,10 -10,0 0,-10z M310,450l10,0 0,10 -10,0 0,-10z M330,450l10,0 0,10 -10,0 0,-10z M340,450l10,0 0,10 -10,0 0,-10z M360,450l10,0 0,10 -10,0 0,-10z M370,450l10,0 0,10 -10,0 0,-10z M400,450l10,0 0,10 -10,0 0,-10z M410,450l10,0 0,10 -10,0 0,-10z M430,450l10,0 0,10 -10,0 0,-10z M470,450l10,0 0,10 -10,0 0,-10z M550,450l10,0 0,10 -10,0 0,-10z M560,450l10,0 0,10 -10,0 0,-10z M590,450l10,0 0,10 -10,0 0,-10z M600,450l10,0 0,10 -10,0 0,-10z M10,460l10,0 0,10 -10,0 0,-10z M20,460l10,0 0,10 -10,0 0,-10z M40,460l10,0 0,10 -10,0 0,-10z M50,460l10,0 0,10 -10,0 0,-10z M90,460l10,0 0,10 -10,0 0,-10z M100,460l10,0 0,10 -10,0 0,-10z M110,460l10,0 0,10 -10,0 0,-10z M120,460l10,0 0,10 -10,0 0,-10z M140,460l10,0 0,10 -10,0 0,-10z M160,460l10,0 0,10 -10,0 0,-10z M200,460l10,0 0,10 -10,0 0,-10z M220,460l10,0 0,10 -10,0 0,-10z M240,460l10,0 0,10 -10,0 0,-10z M250,460l10,0 0,10 -10,0 0,-10z M260,460l10,0 0,10 -10,0 0,-10z M270,460l10,0 0,10 -10,0 0,-10z M280,460l10,0 0,10 -10,0 0,-10z M290,460l10,0 0,10 -10,0 0,-10z M310,460l10,0 0,10 -10,0 0,-10z M330,460l10,0 0,10 -10,0 0,-10z M340,460l10,0 0,10 -10,0 0,-10z M350,460l10,0 0,10 -10,0 0,-10z M430,460l10,0 0,10 -10,0 0,-10z M440,460l10,0 0,10 -10,0 0,-10z M460,460l10,0 0,10 -10,0 0,-10z M490,460l10,0 0,10 -10,0 0,-10z M500,460l10,0 0,10 -10,0 0,-10z M530,460l10,0 0,10 -10,0 0,-10z M550,460l10,0 0,10 -10,0 0,-10z M560,460l10,0 0,10 -10,0 0,-10z M580,460l10,0 0,10 -10,0 0,-10z M610,460l10,0 0,10 -10,0 0,-10z M20,470l10,0 0,10 -10,0 0,-10z M30,470l10,0 0,10 -10,0 0,-10z M40,470l10,0 0,10 -10,0 0,-10z M60,470l10,0 0,10 -10,0 0,-10z M70,470l10,0 0,10 -10,0 0,-10z M80,470l10,0 0,10 -10,0 0,-10z M110,470l10,0 0,10 -10,0 0,-10z M220,470l10,0 0,10 -10,0 0,-10z M230,470l10,0 0,10 -10,0 0,-10z M250,470l10,0 0,10 -10,0 0,-10z M270,470l10,0 0,10 -10,0 0,-10z M300,470l10,0 0,10 -10,0 0,-10z M320,470l10,0 0,10 -10,0 0,-10z M330,470l10,0 0,10 -10,0 0,-10z M350,470l10,0 0,10 -10,0 0,-10z M370,470l10,0 0,10 -10,0 0,-10z M380,470l10,0 0,10 -10,0 0,-10z M390,470l10,0 0,10 -10,0 0,-10z M400,470l10,0 0,10 -10,0 0,-10z M420,470l10,0 0,10 -10,0 0,-10z M430,470l10,0 0,10 -10,0 0,-10z M440,470l10,0 0,10 -10,0 0,-10z M450,470l10,0 0,10 -10,0 0,-10z M470,470l10,0 0,10 -10,0 0,-10z M510,470l10,0 0,10 -10,0 0,-10z M540,470l10,0 0,10 -10,0 0,-10z M560,470l10,0 0,10 -10,0 0,-10z M570,470l10,0 0,10 -10,0 0,-10z M590,470l10,0 0,10 -10,0 0,-10z M50,480l10,0 0,10 -10,0 0,-10z M60,480l10,0 0,10 -10,0 0,-10z M80,480l10,0 0,10 -10,0 0,-10z M90,480l10,0 0,10 -10,0 0,-10z M170,480l10,0 0,10 -10,0 0,-10z M180,480l10,0 0,10 -10,0 0,-10z M190,480l10,0 0,10 -10,0 0,-10z M200,480l10,0 0,10 -10,0 0,-10z M210,480l10,0 0,10 -10,0 0,-10z M230,480l10,0 0,10 -10,0 0,-10z M250,480l10,0 0,10 -10,0 0,-10z M280,480l10,0 0,10 -10,0 0,-10z M360,480l10,0 0,10 -10,0 0,-10z M370,480l10,0 0,10 -10,0 0,-10z M400,480l10,0 0,10 -10,0 0,-10z M420,480l10,0 0,10 -10,0 0,-10z M440,480l10,0 0,10 -10,0 0,-10z M460,480l10,0 0,10 -10,0 0,-10z M470,480l10,0 0,10 -10,0 0,-10z M500,480l10,0 0,10 -10,0 0,-10z M510,480l10,0 0,10 -10,0 0,-10z M520,480l10,0 0,10 -10,0 0,-10z M550,480l10,0 0,10 -10,0 0,-10z M590,480l10,0 0,10 -10,0 0,-10z M600,480l10,0 0,10 -10,0 0,-10z M30,490l10,0 0,10 -10,0 0,-10z M60,490l10,0 0,10 -10,0 0,-10z M70,490l10,0 0,10 -10,0 0,-10z M80,490l10,0 0,10 -10,0 0,-10z M110,490l10,0 0,10 -10,0 0,-10z M120,490l10,0 0,10 -10,0 0,-10z M130,490l10,0 0,10 -10,0 0,-10z M140,490l10,0 0,10 -10,0 0,-10z M150,490l10,0 0,10 -10,0 0,-10z M160,490l10,0 0,10 -10,0 0,-10z M190,490l10,0 0,10 -10,0 0,-10z M200,490l10,0 0,10 -10,0 0,-10z M220,490l10,0 0,10 -10,0 0,-10z M230,490l10,0 0,10 -10,0 0,-10z M270,490l10,0 0,10 -10,0 0,-10z M290,490l10,0 0,10 -10,0 0,-10z M300,490l10,0 0,10 -10,0 0,-10z M310,490l10,0 0,10 -10,0 0,-10z M320,490l10,0 0,10 -10,0 0,-10z M350,490l10,0 0,10 -10,0 0,-10z M370,490l10,0 0,10 -10,0 0,-10z M380,490l10,0 0,10 -10,0 0,-10z M420,490l10,0 0,10 -10,0 0,-10z M430,490l10,0 0,10 -10,0 0,-10z M440,490l10,0 0,10 -10,0 0,-10z M480,490l10,0 0,10 -10,0 0,-10z M490,490l10,0 0,10 -10,0 0,-10z M520,490l10,0 0,10 -10,0 0,-10z M530,490l10,0 0,10 -10,0 0,-10z M540,490l10,0 0,10 -10,0 0,-10z M550,490l10,0 0,10 -10,0 0,-10z M570,490l10,0 0,10 -10,0 0,-10z M590,490l10,0 0,10 -10,0 0,-10z M600,490l10,0 0,10 -10,0 0,-10z M610,490l10,0 0,10 -10,0 0,-10z M20,500l10,0 0,10 -10,0 0,-10z M30,500l10,0 0,10 -10,0 0,-10z M40,500l10,0 0,10 -10,0 0,-10z M60,500l10,0 0,10 -10,0 0,-10z M80,500l10,0 0,10 -10,0 0,-10z M90,500l10,0 0,10 -10,0 0,-10z M100,500l10,0 0,10 -10,0 0,-10z M130,500l10,0 0,10 -10,0 0,-10z M160,500l10,0 0,10 -10,0 0,-10z M180,500l10,0 0,10 -10,0 0,-10z M190,500l10,0 0,10 -10,0 0,-10z M200,500l10,0 0,10 -10,0 0,-10z M210,500l10,0 0,10 -10,0 0,-10z M260,500l10,0 0,10 -10,0 0,-10z M270,500l10,0 0,10 -10,0 0,-10z M290,500l10,0 0,10 -10,0 0,-10z M320,500l10,0 0,10 -10,0 0,-10z M330,500l10,0 0,10 -10,0 0,-10z M340,500l10,0 0,10 -10,0 0,-10z M390,500l10,0 0,10 -10,0 0,-10z M420,500l10,0 0,10 -10,0 0,-10z M440,500l10,0 0,10 -10,0 0,-10z M450,500l10,0 0,10 -10,0 0,-10z M460,500l10,0 0,10 -10,0 0,-10z M500,500l10,0 0,10 -10,0 0,-10z M510,500l10,0 0,10 -10,0 0,-10z M520,500l10,0 0,10 -10,0 0,-10z M530,500l10,0 0,10 -10,0 0,-10z M570,500l10,0 0,10 -10,0 0,-10z M590,500l10,0 0,10 -10,0 0,-10z M600,500l10,0 0,10 -10,0 0,-10z M610,500l10,0 0,10 -10,0 0,-10z M30,510l10,0 0,10 -10,0 0,-10z M40,510l10,0 0,10 -10,0 0,-10z M50,510l10,0 0,10 -10,0 0,-10z M60,510l10,0 0,10 -10,0 0,-10z M70,510l10,0 0,10 -10,0 0,-10z M90,510l10,0 0,10 -10,0 0,-10z M100,510l10,0 0,10 -10,0 0,-10z M150,510l10,0 0,10 -10,0 0,-10z M160,510l10,0 0,10 -10,0 0,-10z M170,510l10,0 0,10 -10,0 0,-10z M190,510l10,0 0,10 -10,0 0,-10z M200,510l10,0 0,10 -10,0 0,-10z M210,510l10,0 0,10 -10,0 0,-10z M220,510l10,0 0,10 -10,0 0,-10z M230,510l10,0 0,10 -10,0 0,-10z M240,510l10,0 0,10 -10,0 0,-10z M270,510l10,0 0,10 -10,0 0,-10z M280,510l10,0 0,10 -10,0 0,-10z M310,510l10,0 0,10 -10,0 0,-10z M320,510l10,0 0,10 -10,0 0,-10z M350,510l10,0 0,10 -10,0 0,-10z M380,510l10,0 0,10 -10,0 0,-10z M390,510l10,0 0,10 -10,0 0,-10z M410,510l10,0 0,10 -10,0 0,-10z M420,510l10,0 0,10 -10,0 0,-10z M430,510l10,0 0,10 -10,0 0,-10z M470,510l10,0 0,10 -10,0 0,-10z M480,510l10,0 0,10 -10,0 0,-10z M500,510l10,0 0,10 -10,0 0,-10z M520,510l10,0 0,10 -10,0 0,-10z M540,510l10,0 0,10 -10,0 0,-10z M580,510l10,0 0,10 -10,0 0,-10z M590,510l10,0 0,10 -10,0 0,-10z M10,520l10,0 0,10 -10,0 0,-10z M20,520l10,0 0,10 -10,0 0,-10z M30,520l10,0 0,10 -10,0 0,-10z M50,520l10,0 0,10 -10,0 0,-10z M90,520l10,0 0,10 -10,0 0,-10z M100,520l10,0 0,10 -10,0 0,-10z M130,520l10,0 0,10 -10,0 0,-10z M190,520l10,0 0,10 -10,0 0,-10z M200,520l10,0 0,10 -10,0 0,-10z M220,520l10,0 0,10 -10,0 0,-10z M230,520l10,0 0,10 -10,0 0,-10z M240,520l10,0 0,10 -10,0 0,-10z M250,520l10,0 0,10 -10,0 0,-10z M260,520l10,0 0,10 -10,0 0,-10z M290,520l10,0 0,10 -10,0 0,-10z M310,520l10,0 0,10 -10,0 0,-10z M320,520l10,0 0,10 -10,0 0,-10z M350,520l10,0 0,10 -10,0 0,-10z M380,520l10,0 0,10 -10,0 0,-10z M400,520l10,0 0,10 -10,0 0,-10z M420,520l10,0 0,10 -10,0 0,-10z M430,520l10,0 0,10 -10,0 0,-10z M450,520l10,0 0,10 -10,0 0,-10z M460,520l10,0 0,10 -10,0 0,-10z M500,520l10,0 0,10 -10,0 0,-10z M510,520l10,0 0,10 -10,0 0,-10z M530,520l10,0 0,10 -10,0 0,-10z M550,520l10,0 0,10 -10,0 0,-10z M560,520l10,0 0,10 -10,0 0,-10z M570,520l10,0 0,10 -10,0 0,-10z M580,520l10,0 0,10 -10,0 0,-10z M610,520l10,0 0,10 -10,0 0,-10z M10,530l10,0 0,10 -10,0 0,-10z M20,530l10,0 0,10 -10,0 0,-10z M30,530l10,0 0,10 -10,0 0,-10z M40,530l10,0 0,10 -10,0 0,-10z M70,530l10,0 0,10 -10,0 0,-10z M120,530l10,0 0,10 -10,0 0,-10z M130,530l10,0 0,10 -10,0 0,-10z M140,530l10,0 0,10 -10,0 0,-10z M180,530l10,0 0,10 -10,0 0,-10z M190,530l10,0 0,10 -10,0 0,-10z M220,530l10,0 0,10 -10,0 0,-10z M230,530l10,0 0,10 -10,0 0,-10z M240,530l10,0 0,10 -10,0 0,-10z M260,530l10,0 0,10 -10,0 0,-10z M280,530l10,0 0,10 -10,0 0,-10z M290,530l10,0 0,10 -10,0 0,-10z M300,530l10,0 0,10 -10,0 0,-10z M310,530l10,0 0,10 -10,0 0,-10z M320,530l10,0 0,10 -10,0 0,-10z M330,530l10,0 0,10 -10,0 0,-10z M340,530l10,0 0,10 -10,0 0,-10z M360,530l10,0 0,10 -10,0 0,-10z M380,530l10,0 0,10 -10,0 0,-10z M390,530l10,0 0,10 -10,0 0,-10z M400,530l10,0 0,10 -10,0 0,-10z M410,530l10,0 0,10 -10,0 0,-10z M450,530l10,0 0,10 -10,0 0,-10z M470,530l10,0 0,10 -10,0 0,-10z M480,530l10,0 0,10 -10,0 0,-10z M530,530l10,0 0,10 -10,0 0,-10z M540,530l10,0 0,10 -10,0 0,-10z M550,530l10,0 0,10 -10,0 0,-10z M560,530l10,0 0,10 -10,0 0,-10z M570,530l10,0 0,10 -10,0 0,-10z M580,530l10,0 0,10 -10,0 0,-10z M590,530l10,0 0,10 -10,0 0,-10z M600,530l10,0 0,10 -10,0 0,-10z M610,530l10,0 0,10 -10,0 0,-10z M90,540l10,0 0,10 -10,0 0,-10z M110,540l10,0 0,10 -10,0 0,-10z M120,540l10,0 0,10 -10,0 0,-10z M130,540l10,0 0,10 -10,0 0,-10z M150,540l10,0 0,10 -10,0 0,-10z M160,540l10,0 0,10 -10,0 0,-10z M250,540l10,0 0,10 -10,0 0,-10z M290,540l10,0 0,10 -10,0 0,-10z M330,540l10,0 0,10 -10,0 0,-10z M340,540l10,0 0,10 -10,0 0,-10z M360,540l10,0 0,10 -10,0 0,-10z M420,540l10,0 0,10 -10,0 0,-10z M440,540l10,0 0,10 -10,0 0,-10z M470,540l10,0 0,10 -10,0 0,-10z M480,540l10,0 0,10 -10,0 0,-10z M510,540l10,0 0,10 -10,0 0,-10z M530,540l10,0 0,10 -10,0 0,-10z M570,540l10,0 0,10 -10,0 0,-10z M610,540l10,0 0,10 -10,0 0,-10z M10,550l10,0 0,10 -10,0 0,-10z M20,550l10,0 0,10 -10,0 0,-10z M30,550l10,0 0,10 -10,0 0,-10z M40,550l10,0 0,10 -10,0 0,-10z M50,550l10,0 0,10 -10,0 0,-10z M60,550l10,0 0,10 -10,0 0,-10z M70,550l10,0 0,10 -10,0 0,-10z M110,550l10,0 0,10 -10,0 0,-10z M130,550l10,0 0,10 -10,0 0,-10z M140,550l10,0 0,10 -10,0 0,-10z M150,550l10,0 0,10 -10,0 0,-10z M160,550l10,0 0,10 -10,0 0,-10z M180,550l10,0 0,10 -10,0 0,-10z M200,550l10,0 0,10 -10,0 0,-10z M220,550l10,0 0,10 -10,0 0,-10z M230,550l10,0 0,10 -10,0 0,-10z M240,550l10,0 0,10 -10,0 0,-10z M250,550l10,0 0,10 -10,0 0,-10z M260,550l10,0 0,10 -10,0 0,-10z M290,550l10,0 0,10 -10,0 0,-10z M310,550l10,0 0,10 -10,0 0,-10z M330,550l10,0 0,10 -10,0 0,-10z M360,550l10,0 0,10 -10,0 0,-10z M410,550l10,0 0,10 -10,0 0,-10z M430,550l10,0 0,10 -10,0 0,-10z M470,550l10,0 0,10 -10,0 0,-10z M490,550l10,0 0,10 -10,0 0,-10z M520,550l10,0 0,10 -10,0 0,-10z M530,550l10,0 0,10 -10,0 0,-10z M550,550l10,0 0,10 -10,0 0,-10z M570,550l10,0 0,10 -10,0 0,-10z M580,550l10,0 0,10 -10,0 0,-10z M600,550l10,0 0,10 -10,0 0,-10z M610,550l10,0 0,10 -10,0 0,-10z M10,560l10,0 0,10 -10,0 0,-10z M70,560l10,0 0,10 -10,0 0,-10z M90,560l10,0 0,10 -10,0 0,-10z M100,560l10,0 0,10 -10,0 0,-10z M110,560l10,0 0,10 -10,0 0,-10z M120,560l10,0 0,10 -10,0 0,-10z M130,560l10,0 0,10 -10,0 0,-10z M140,560l10,0 0,10 -10,0 0,-10z M150,560l10,0 0,10 -10,0 0,-10z M160,560l10,0 0,10 -10,0 0,-10z M190,560l10,0 0,10 -10,0 0,-10z M210,560l10,0 0,10 -10,0 0,-10z M220,560l10,0 0,10 -10,0 0,-10z M230,560l10,0 0,10 -10,0 0,-10z M240,560l10,0 0,10 -10,0 0,-10z M250,560l10,0 0,10 -10,0 0,-10z M260,560l10,0 0,10 -10,0 0,-10z M290,560l10,0 0,10 -10,0 0,-10z M330,560l10,0 0,10 -10,0 0,-10z M360,560l10,0 0,10 -10,0 0,-10z M370,560l10,0 0,10 -10,0 0,-10z M380,560l10,0 0,10 -10,0 0,-10z M390,560l10,0 0,10 -10,0 0,-10z M410,560l10,0 0,10 -10,0 0,-10z M420,560l10,0 0,10 -10,0 0,-10z M440,560l10,0 0,10 -10,0 0,-10z M480,560l10,0 0,10 -10,0 0,-10z M490,560l10,0 0,10 -10,0 0,-10z M500,560l10,0 0,10 -10,0 0,-10z M530,560l10,0 0,10 -10,0 0,-10z M570,560l10,0 0,10 -10,0 0,-10z M580,560l10,0 0,10 -10,0 0,-10z M610,560l10,0 0,10 -10,0 0,-10z M10,570l10,0 0,10 -10,0 0,-10z M30,570l10,0 0,10 -10,0 0,-10z M40,570l10,0 0,10 -10,0 0,-10z M50,570l10,0 0,10 -10,0 0,-10z M70,570l10,0 0,10 -10,0 0,-10z M110,570l10,0 0,10 -10,0 0,-10z M170,570l10,0 0,10 -10,0 0,-10z M180,570l10,0 0,10 -10,0 0,-10z M200,570l10,0 0,10 -10,0 0,-10z M210,570l10,0 0,10 -10,0 0,-10z M220,570l10,0 0,10 -10,0 0,-10z M230,570l10,0 0,10 -10,0 0,-10z M290,570l10,0 0,10 -10,0 0,-10z M300,570l10,0 0,10 -10,0 0,-10z M310,570l10,0 0,10 -10,0 0,-10z M320,570l10,0 0,10 -10,0 0,-10z M330,570l10,0 0,10 -10,0 0,-10z M340,570l10,0 0,10 -10,0 0,-10z M350,570l10,0 0,10 -10,0 0,-10z M380,570l10,0 0,10 -10,0 0,-10z M400,570l10,0 0,10 -10,0 0,-10z M410,570l10,0 0,10 -10,0 0,-10z M430,570l10,0 0,10 -10,0 0,-10z M470,570l10,0 0,10 -10,0 0,-10z M510,570l10,0 0,10 -10,0 0,-10z M530,570l10,0 0,10 -10,0 0,-10z M540,570l10,0 0,10 -10,0 0,-10z M550,570l10,0 0,10 -10,0 0,-10z M560,570l10,0 0,10 -10,0 0,-10z M570,570l10,0 0,10 -10,0 0,-10z M580,570l10,0 0,10 -10,0 0,-10z M10,580l10,0 0,10 -10,0 0,-10z M30,580l10,0 0,10 -10,0 0,-10z M40,580l10,0 0,10 -10,0 0,-10z M50,580l10,0 0,10 -10,0 0,-10z M70,580l10,0 0,10 -10,0 0,-10z M90,580l10,0 0,10 -10,0 0,-10z M180,580l10,0 0,10 -10,0 0,-10z M220,580l10,0 0,10 -10,0 0,-10z M240,580l10,0 0,10 -10,0 0,-10z M260,580l10,0 0,10 -10,0 0,-10z M310,580l10,0 0,10 -10,0 0,-10z M340,580l10,0 0,10 -10,0 0,-10z M360,580l10,0 0,10 -10,0 0,-10z M370,580l10,0 0,10 -10,0 0,-10z M410,580l10,0 0,10 -10,0 0,-10z M430,580l10,0 0,10 -10,0 0,-10z M460,580l10,0 0,10 -10,0 0,-10z M490,580l10,0 0,10 -10,0 0,-10z M520,580l10,0 0,10 -10,0 0,-10z M540,580l10,0 0,10 -10,0 0,-10z M550,580l10,0 0,10 -10,0 0,-10z M570,580l10,0 0,10 -10,0 0,-10z M590,580l10,0 0,10 -10,0 0,-10z M610,580l10,0 0,10 -10,0 0,-10z M10,590l10,0 0,10 -10,0 0,-10z M30,590l10,0 0,10 -10,0 0,-10z M40,590l10,0 0,10 -10,0 0,-10z M50,590l10,0 0,10 -10,0 0,-10z M70,590l10,0 0,10 -10,0 0,-10z M90,590l10,0 0,10 -10,0 0,-10z M110,590l10,0 0,10 -10,0 0,-10z M140,590l10,0 0,10 -10,0 0,-10z M160,590l10,0 0,10 -10,0 0,-10z M180,590l10,0 0,10 -10,0 0,-10z M200,590l10,0 0,10 -10,0 0,-10z M250,590l10,0 0,10 -10,0 0,-10z M260,590l10,0 0,10 -10,0 0,-10z M270,590l10,0 0,10 -10,0 0,-10z M290,590l10,0 0,10 -10,0 0,-10z M300,590l10,0 0,10 -10,0 0,-10z M320,590l10,0 0,10 -10,0 0,-10z M360,590l10,0 0,10 -10,0 0,-10z M380,590l10,0 0,10 -10,0 0,-10z M400,590l10,0 0,10 -10,0 0,-10z M410,590l10,0 0,10 -10,0 0,-10z M430,590l10,0 0,10 -10,0 0,-10z M450,590l10,0 0,10 -10,0 0,-10z M470,590l10,0 0,10 -10,0 0,-10z M480,590l10,0 0,10 -10,0 0,-10z M540,590l10,0 0,10 -10,0 0,-10z M570,590l10,0 0,10 -10,0 0,-10z M580,590l10,0 0,10 -10,0 0,-10z M590,590l10,0 0,10 -10,0 0,-10z M600,590l10,0 0,10 -10,0 0,-10z M10,600l10,0 0,10 -10,0 0,-10z M70,600l10,0 0,10 -10,0 0,-10z M90,600l10,0 0,10 -10,0 0,-10z M120,600l10,0 0,10 -10,0 0,-10z M130,600l10,0 0,10 -10,0 0,-10z M170,600l10,0 0,10 -10,0 0,-10z M200,600l10,0 0,10 -10,0 0,-10z M220,600l10,0 0,10 -10,0 0,-10z M230,600l10,0 0,10 -10,0 0,-10z M270,600l10,0 0,10 -10,0 0,-10z M290,600l10,0 0,10 -10,0 0,-10z M310,600l10,0 0,10 -10,0 0,-10z M330,600l10,0 0,10 -10,0 0,-10z M340,600l10,0 0,10 -10,0 0,-10z M360,600l10,0 0,10 -10,0 0,-10z M370,600l10,0 0,10 -10,0 0,-10z M380,600l10,0 0,10 -10,0 0,-10z M440,600l10,0 0,10 -10,0 0,-10z M460,600l10,0 0,10 -10,0 0,-10z M490,600l10,0 0,10 -10,0 0,-10z M500,600l10,0 0,10 -10,0 0,-10z M520,600l10,0 0,10 -10,0 0,-10z M530,600l10,0 0,10 -10,0 0,-10z M580,600l10,0 0,10 -10,0 0,-10z M590,600l10,0 0,10 -10,0 0,-10z M10,610l10,0 0,10 -10,0 0,-10z M20,610l10,0 0,10 -10,0 0,-10z M30,610l10,0 0,10 -10,0 0,-10z M40,610l10,0 0,10 -10,0 0,-10z M50,610l10,0 0,10 -10,0 0,-10z M60,610l10,0 0,10 -10,0 0,-10z M70,610l10,0 0,10 -10,0 0,-10z M100,610l10,0 0,10 -10,0 0,-10z M120,610l10,0 0,10 -10,0 0,-10z M130,610l10,0 0,10 -10,0 0,-10z M160,610l10,0 0,10 -10,0 0,-10z M170,610l10,0 0,10 -10,0 0,-10z M190,610l10,0 0,10 -10,0 0,-10z M200,610l10,0 0,10 -10,0 0,-10z M210,610l10,0 0,10 -10,0 0,-10z M240,610l10,0 0,10 -10,0 0,-10z M270,610l10,0 0,10 -10,0 0,-10z M290,610l10,0 0,10 -10,0 0,-10z M300,610l10,0 0,10 -10,0 0,-10z M320,610l10,0 0,10 -10,0 0,-10z M350,610l10,0 0,10 -10,0 0,-10z M370,610l10,0 0,10 -10,0 0,-10z M390,610l10,0 0,10 -10,0 0,-10z M400,610l10,0 0,10 -10,0 0,-10z M430,610l10,0 0,10 -10,0 0,-10z M440,610l10,0 0,10 -10,0 0,-10z M450,610l10,0 0,10 -10,0 0,-10z M460,610l10,0 0,10 -10,0 0,-10z M470,610l10,0 0,10 -10,0 0,-10z M490,610l10,0 0,10 -10,0 0,-10z M540,610l10,0 0,10 -10,0 0,-10z M590,610l10,0 0,10 -10,0 0,-10z M600,610l10,0 0,10 -10,0 0,-10z M610,610l10,0 0,10 -10,0 0,-10z " stroke="transparent" fill="rgb(0, 0, 0)"/></svg>