<?xml version="1.0"?>
<svg xmlns="http://www.w3.org/2000/svg" xmlns:xlink="http://www.w3.org/1999/xlink" version="1.1" width="500px" height="500px" viewBox="0 0 500 500"><defs><rect id="block" width="9.4339622641509" height="9.4339622641509" fill="#000000" fill-opacity="1"/></defs><rect x="0" y="0" width="500" height="500" fill="#ffffff" fill-opacity="1"/><use x="0" y="0" xlink:href="#block"/><use x="9.4339622641509" y="0" xlink:href="#block"/><use x="18.867924528302" y="0" xlink:href="#block"/><use x="28.301886792453" y="0" xlink:href="#block"/><use x="37.735849056604" y="0" xlink:href="#block"/><use x="47.169811320755" y="0" xlink:href="#block"/><use x="56.603773584906" y="0" xlink:href="#block"/><use x="75.471698113208" y="0" xlink:href="#block"/><use x="84.905660377359" y="0" xlink:href="#block"/><use x="122.64150943396" y="0" xlink:href="#block"/><use x="141.50943396226" y="0" xlink:href="#block"/><use x="150.94339622642" y="0" xlink:href="#block"/><use x="160.37735849057" y="0" xlink:href="#block"/><use x="169.81132075472" y="0" xlink:href="#block"/><use x="179.24528301887" y="0" xlink:href="#block"/><use x="216.98113207547" y="0" xlink:href="#block"/><use x="226.41509433962" y="0" xlink:href="#block"/><use x="235.84905660377" y="0" xlink:href="#block"/><use x="245.28301886792" y="0" xlink:href="#block"/><use x="254.71698113208" y="0" xlink:href="#block"/><use x="273.58490566038" y="0" xlink:href="#block"/><use x="283.01886792453" y="0" xlink:href="#block"/><use x="301.88679245283" y="0" xlink:href="#block"/><use x="330.18867924528" y="0" xlink:href="#block"/><use x="367.92452830189" y="0" xlink:href="#block"/><use x="377.35849056604" y="0" xlink:href="#block"/><use x="386.79245283019" y="0" xlink:href="#block"/><use x="396.22641509434" y="0" xlink:href="#block"/><use x="433.96226415094" y="0" xlink:href="#block"/><use x="443.39622641509" y="0" xlink:href="#block"/><use x="452.83018867925" y="0" xlink:href="#block"/><use x="462.2641509434" y="0" xlink:href="#block"/><use x="471.69811320755" y="0" xlink:href="#block"/><use x="481.1320754717" y="0" xlink:href="#block"/><use x="490.56603773585" y="0" xlink:href="#block"/><use x="0" y="9.4339622641509" xlink:href="#block"/><use x="56.603773584906" y="9.4339622641509" xlink:href="#block"/><use x="75.471698113208" y="9.4339622641509" xlink:href="#block"/><use x="84.905660377359" y="9.4339622641509" xlink:href="#block"/><use x="94.339622641509" y="9.4339622641509" xlink:href="#block"/><use x="103.77358490566" y="9.4339622641509" xlink:href="#block"/><use x="113.20754716981" y="9.4339622641509" xlink:href="#block"/><use x="132.07547169811" y="9.4339622641509" xlink:href="#block"/><use x="141.50943396226" y="9.4339622641509" xlink:href="#block"/><use x="160.37735849057" y="9.4339622641509" xlink:href="#block"/><use x="169.81132075472" y="9.4339622641509" xlink:href="#block"/><use x="198.11320754717" y="9.4339622641509" xlink:href="#block"/><use x="207.54716981132" y="9.4339622641509" xlink:href="#block"/><use x="235.84905660377" y="9.4339622641509" xlink:href="#block"/><use x="254.71698113208" y="9.4339622641509" xlink:href="#block"/><use x="283.01886792453" y="9.4339622641509" xlink:href="#block"/><use x="292.45283018868" y="9.4339622641509" xlink:href="#block"/><use x="301.88679245283" y="9.4339622641509" xlink:href="#block"/><use x="330.18867924528" y="9.4339622641509" xlink:href="#block"/><use x="349.05660377358" y="9.4339622641509" xlink:href="#block"/><use x="396.22641509434" y="9.4339622641509" xlink:href="#block"/><use x="405.66037735849" y="9.4339622641509" xlink:href="#block"/><use x="433.96226415094" y="9.4339622641509" xlink:href="#block"/><use x="490.56603773585" y="9.4339622641509" xlink:href="#block"/><use x="0" y="18.867924528302" xlink:href="#block"/><use x="18.867924528302" y="18.867924528302" xlink:href="#block"/><use x="28.301886792453" y="18.867924528302" xlink:href="#block"/><use x="37.735849056604" y="18.867924528302" xlink:href="#block"/><use x="56.603773584906" y="18.867924528302" xlink:href="#block"/><use x="75.471698113208" y="18.867924528302" xlink:href="#block"/><use x="94.339622641509" y="18.867924528302" xlink:href="#block"/><use x="103.77358490566" y="18.867924528302" xlink:href="#block"/><use x="150.94339622642" y="18.867924528302" xlink:href="#block"/><use x="160.37735849057" y="18.867924528302" xlink:href="#block"/><use x="169.81132075472" y="18.867924528302" xlink:href="#block"/><use x="179.24528301887" y="18.867924528302" xlink:href="#block"/><use x="198.11320754717" y="18.867924528302" xlink:href="#block"/><use x="254.71698113208" y="18.867924528302" xlink:href="#block"/><use x="264.15094339623" y="18.867924528302" xlink:href="#block"/><use x="273.58490566038" y="18.867924528302" xlink:href="#block"/><use x="311.32075471698" y="18.867924528302" xlink:href="#block"/><use x="339.62264150943" y="18.867924528302" xlink:href="#block"/><use x="386.79245283019" y="18.867924528302" xlink:href="#block"/><use x="405.66037735849" y="18.867924528302" xlink:href="#block"/><use x="433.96226415094" y="18.867924528302" xlink:href="#block"/><use x="452.83018867925" y="18.867924528302" xlink:href="#block"/><use x="462.2641509434" y="18.867924528302" xlink:href="#block"/><use x="471.69811320755" y="18.867924528302" xlink:href="#block"/><use x="490.56603773585" y="18.867924528302" xlink:href="#block"/><use x="0" y="28.301886792453" xlink:href="#block"/><use x="18.867924528302" y="28.301886792453" xlink:href="#block"/><use x="28.301886792453" y="28.301886792453" xlink:href="#block"/><use x="37.735849056604" y="28.301886792453" xlink:href="#block"/><use x="56.603773584906" y="28.301886792453" xlink:href="#block"/><use x="94.339622641509" y="28.301886792453" xlink:href="#block"/><use x="103.77358490566" y="28.301886792453" xlink:href="#block"/><use x="132.07547169811" y="28.301886792453" xlink:href="#block"/><use x="169.81132075472" y="28.301886792453" xlink:href="#block"/><use x="188.67924528302" y="28.301886792453" xlink:href="#block"/><use x="207.54716981132" y="28.301886792453" xlink:href="#block"/><use x="216.98113207547" y="28.301886792453" xlink:href="#block"/><use x="226.41509433962" y="28.301886792453" xlink:href="#block"/><use x="235.84905660377" y="28.301886792453" xlink:href="#block"/><use x="245.28301886792" y="28.301886792453" xlink:href="#block"/><use x="283.01886792453" y="28.301886792453" xlink:href="#block"/><use x="292.45283018868" y="28.301886792453" xlink:href="#block"/><use x="301.88679245283" y="28.301886792453" xlink:href="#block"/><use x="320.75471698113" y="28.301886792453" xlink:href="#block"/><use x="330.18867924528" y="28.301886792453" xlink:href="#block"/><use x="349.05660377358" y="28.301886792453" xlink:href="#block"/><use x="358.49056603774" y="28.301886792453" xlink:href="#block"/><use x="386.79245283019" y="28.301886792453" xlink:href="#block"/><use x="396.22641509434" y="28.301886792453" xlink:href="#block"/><use x="415.09433962264" y="28.301886792453" xlink:href="#block"/><use x="433.96226415094" y="28.301886792453" xlink:href="#block"/><use x="452.83018867925" y="28.301886792453" xlink:href="#block"/><use x="462.2641509434" y="28.301886792453" xlink:href="#block"/><use x="471.69811320755" y="28.301886792453" xlink:href="#block"/><use x="490.56603773585" y="28.301886792453" xlink:href="#block"/><use x="0" y="37.735849056604" xlink:href="#block"/><use x="18.867924528302" y="37.735849056604" xlink:href="#block"/><use x="28.301886792453" y="37.735849056604" xlink:href="#block"/><use x="37.735849056604" y="37.735849056604" xlink:href="#block"/><use x="56.603773584906" y="37.735849056604" xlink:href="#block"/><use x="84.905660377359" y="37.735849056604" xlink:href="#block"/><use x="94.339622641509" y="37.735849056604" xlink:href="#block"/><use x="160.37735849057" y="37.735849056604" xlink:href="#block"/><use x="179.24528301887" y="37.735849056604" xlink:href="#block"/><use x="207.54716981132" y="37.735849056604" xlink:href="#block"/><use x="216.98113207547" y="37.735849056604" xlink:href="#block"/><use x="226.41509433962" y="37.735849056604" xlink:href="#block"/><use x="235.84905660377" y="37.735849056604" xlink:href="#block"/><use x="245.28301886792" y="37.735849056604" xlink:href="#block"/><use x="254.71698113208" y="37.735849056604" xlink:href="#block"/><use x="264.15094339623" y="37.735849056604" xlink:href="#block"/><use x="273.58490566038" y="37.735849056604" xlink:href="#block"/><use x="283.01886792453" y="37.735849056604" xlink:href="#block"/><use x="301.88679245283" y="37.735849056604" xlink:href="#block"/><use x="311.32075471698" y="37.735849056604" xlink:href="#block"/><use x="349.05660377358" y="37.735849056604" xlink:href="#block"/><use x="358.49056603774" y="37.735849056604" xlink:href="#block"/><use x="367.92452830189" y="37.735849056604" xlink:href="#block"/><use x="377.35849056604" y="37.735849056604" xlink:href="#block"/><use x="386.79245283019" y="37.735849056604" xlink:href="#block"/><use x="396.22641509434" y="37.735849056604" xlink:href="#block"/><use x="433.96226415094" y="37.735849056604" xlink:href="#block"/><use x="452.83018867925" y="37.735849056604" xlink:href="#block"/><use x="462.2641509434" y="37.735849056604" xlink:href="#block"/><use x="471.69811320755" y="37.735849056604" xlink:href="#block"/><use x="490.56603773585" y="37.735849056604" xlink:href="#block"/><use x="0" y="47.169811320755" xlink:href="#block"/><use x="56.603773584906" y="47.169811320755" xlink:href="#block"/><use x="75.471698113208" y="47.169811320755" xlink:href="#block"/><use x="141.50943396226" y="47.169811320755" xlink:href="#block"/><use x="150.94339622642" y="47.169811320755" xlink:href="#block"/><use x="169.81132075472" y="47.169811320755" xlink:href="#block"/><use x="198.11320754717" y="47.169811320755" xlink:href="#block"/><use x="207.54716981132" y="47.169811320755" xlink:href="#block"/><use x="226.41509433962" y="47.169811320755" xlink:href="#block"/><use x="264.15094339623" y="47.169811320755" xlink:href="#block"/><use x="292.45283018868" y="47.169811320755" xlink:href="#block"/><use x="330.18867924528" y="47.169811320755" xlink:href="#block"/><use x="349.05660377358" y="47.169811320755" xlink:href="#block"/><use x="358.49056603774" y="47.169811320755" xlink:href="#block"/><use x="386.79245283019" y="47.169811320755" xlink:href="#block"/><use x="396.22641509434" y="47.169811320755" xlink:href="#block"/><use x="433.96226415094" y="47.169811320755" xlink:href="#block"/><use x="490.56603773585" y="47.169811320755" xlink:href="#block"/><use x="0" y="56.603773584906" xlink:href="#block"/><use x="9.4339622641509" y="56.603773584906" xlink:href="#block"/><use x="18.867924528302" y="56.603773584906" xlink:href="#block"/><use x="28.301886792453" y="56.603773584906" xlink:href="#block"/><use x="37.735849056604" y="56.603773584906" xlink:href="#block"/><use x="47.169811320755" y="56.603773584906" xlink:href="#block"/><use x="56.603773584906" y="56.603773584906" xlink:href="#block"/><use x="75.471698113208" y="56.603773584906" xlink:href="#block"/><use x="94.339622641509" y="56.603773584906" xlink:href="#block"/><use x="113.20754716981" y="56.603773584906" xlink:href="#block"/><use x="132.07547169811" y="56.603773584906" xlink:href="#block"/><use x="150.94339622642" y="56.603773584906" xlink:href="#block"/><use x="169.81132075472" y="56.603773584906" xlink:href="#block"/><use x="188.67924528302" y="56.603773584906" xlink:href="#block"/><use x="207.54716981132" y="56.603773584906" xlink:href="#block"/><use x="226.41509433962" y="56.603773584906" xlink:href="#block"/><use x="245.28301886792" y="56.603773584906" xlink:href="#block"/><use x="264.15094339623" y="56.603773584906" xlink:href="#block"/><use x="283.01886792453" y="56.603773584906" xlink:href="#block"/><use x="301.88679245283" y="56.603773584906" xlink:href="#block"/><use x="320.75471698113" y="56.603773584906" xlink:href="#block"/><use x="339.62264150943" y="56.603773584906" xlink:href="#block"/><use x="358.49056603774" y="56.603773584906" xlink:href="#block"/><use x="377.35849056604" y="56.603773584906" xlink:href="#block"/><use x="396.22641509434" y="56.603773584906" xlink:href="#block"/><use x="415.09433962264" y="56.603773584906" xlink:href="#block"/><use x="433.96226415094" y="56.603773584906" xlink:href="#block"/><use x="443.39622641509" y="56.603773584906" xlink:href="#block"/><use x="452.83018867925" y="56.603773584906" xlink:href="#block"/><use x="462.2641509434" y="56.603773584906" xlink:href="#block"/><use x="471.69811320755" y="56.603773584906" xlink:href="#block"/><use x="481.1320754717" y="56.603773584906" xlink:href="#block"/><use x="490.56603773585" y="56.603773584906" xlink:href="#block"/><use x="75.471698113208" y="66.037735849057" xlink:href="#block"/><use x="103.77358490566" y="66.037735849057" xlink:href="#block"/><use x="113.20754716981" y="66.037735849057" xlink:href="#block"/><use x="122.64150943396" y="66.037735849057" xlink:href="#block"/><use x="150.94339622642" y="66.037735849057" xlink:href="#block"/><use x="169.81132075472" y="66.037735849057" xlink:href="#block"/><use x="179.24528301887" y="66.037735849057" xlink:href="#block"/><use x="188.67924528302" y="66.037735849057" xlink:href="#block"/><use x="207.54716981132" y="66.037735849057" xlink:href="#block"/><use x="226.41509433962" y="66.037735849057" xlink:href="#block"/><use x="264.15094339623" y="66.037735849057" xlink:href="#block"/><use x="283.01886792453" y="66.037735849057" xlink:href="#block"/><use x="339.62264150943" y="66.037735849057" xlink:href="#block"/><use x="349.05660377358" y="66.037735849057" xlink:href="#block"/><use x="377.35849056604" y="66.037735849057" xlink:href="#block"/><use x="386.79245283019" y="66.037735849057" xlink:href="#block"/><use x="396.22641509434" y="66.037735849057" xlink:href="#block"/><use x="405.66037735849" y="66.037735849057" xlink:href="#block"/><use x="18.867924528302" y="75.471698113208" xlink:href="#block"/><use x="28.301886792453" y="75.471698113208" xlink:href="#block"/><use x="37.735849056604" y="75.471698113208" xlink:href="#block"/><use x="56.603773584906" y="75.471698113208" xlink:href="#block"/><use x="75.471698113208" y="75.471698113208" xlink:href="#block"/><use x="94.339622641509" y="75.471698113208" xlink:href="#block"/><use x="103.77358490566" y="75.471698113208" xlink:href="#block"/><use x="113.20754716981" y="75.471698113208" xlink:href="#block"/><use x="122.64150943396" y="75.471698113208" xlink:href="#block"/><use x="141.50943396226" y="75.471698113208" xlink:href="#block"/><use x="169.81132075472" y="75.471698113208" xlink:href="#block"/><use x="179.24528301887" y="75.471698113208" xlink:href="#block"/><use x="207.54716981132" y="75.471698113208" xlink:href="#block"/><use x="226.41509433962" y="75.471698113208" xlink:href="#block"/><use x="235.84905660377" y="75.471698113208" xlink:href="#block"/><use x="245.28301886792" y="75.471698113208" xlink:href="#block"/><use x="254.71698113208" y="75.471698113208" xlink:href="#block"/><use x="264.15094339623" y="75.471698113208" xlink:href="#block"/><use x="273.58490566038" y="75.471698113208" xlink:href="#block"/><use x="301.88679245283" y="75.471698113208" xlink:href="#block"/><use x="320.75471698113" y="75.471698113208" xlink:href="#block"/><use x="339.62264150943" y="75.471698113208" xlink:href="#block"/><use x="349.05660377358" y="75.471698113208" xlink:href="#block"/><use x="358.49056603774" y="75.471698113208" xlink:href="#block"/><use x="377.35849056604" y="75.471698113208" xlink:href="#block"/><use x="386.79245283019" y="75.471698113208" xlink:href="#block"/><use x="424.52830188679" y="75.471698113208" xlink:href="#block"/><use x="433.96226415094" y="75.471698113208" xlink:href="#block"/><use x="443.39622641509" y="75.471698113208" xlink:href="#block"/><use x="471.69811320755" y="75.471698113208" xlink:href="#block"/><use x="481.1320754717" y="75.471698113208" xlink:href="#block"/><use x="490.56603773585" y="75.471698113208" xlink:href="#block"/><use x="0" y="84.905660377359" xlink:href="#block"/><use x="28.301886792453" y="84.905660377359" xlink:href="#block"/><use x="84.905660377359" y="84.905660377359" xlink:href="#block"/><use x="103.77358490566" y="84.905660377359" xlink:href="#block"/><use x="113.20754716981" y="84.905660377359" xlink:href="#block"/><use x="122.64150943396" y="84.905660377359" xlink:href="#block"/><use x="132.07547169811" y="84.905660377359" xlink:href="#block"/><use x="141.50943396226" y="84.905660377359" xlink:href="#block"/><use x="150.94339622642" y="84.905660377359" xlink:href="#block"/><use x="198.11320754717" y="84.905660377359" xlink:href="#block"/><use x="245.28301886792" y="84.905660377359" xlink:href="#block"/><use x="264.15094339623" y="84.905660377359" xlink:href="#block"/><use x="283.01886792453" y="84.905660377359" xlink:href="#block"/><use x="292.45283018868" y="84.905660377359" xlink:href="#block"/><use x="301.88679245283" y="84.905660377359" xlink:href="#block"/><use x="311.32075471698" y="84.905660377359" xlink:href="#block"/><use x="339.62264150943" y="84.905660377359" xlink:href="#block"/><use x="349.05660377358" y="84.905660377359" xlink:href="#block"/><use x="367.92452830189" y="84.905660377359" xlink:href="#block"/><use x="377.35849056604" y="84.905660377359" xlink:href="#block"/><use x="396.22641509434" y="84.905660377359" xlink:href="#block"/><use x="424.52830188679" y="84.905660377359" xlink:href="#block"/><use x="443.39622641509" y="84.905660377359" xlink:href="#block"/><use x="9.4339622641509" y="94.339622641509" xlink:href="#block"/><use x="37.735849056604" y="94.339622641509" xlink:href="#block"/><use x="47.169811320755" y="94.339622641509" xlink:href="#block"/><use x="56.603773584906" y="94.339622641509" xlink:href="#block"/><use x="66.037735849057" y="94.339622641509" xlink:href="#block"/><use x="75.471698113208" y="94.339622641509" xlink:href="#block"/><use x="94.339622641509" y="94.339622641509" xlink:href="#block"/><use x="103.77358490566" y="94.339622641509" xlink:href="#block"/><use x="122.64150943396" y="94.339622641509" xlink:href="#block"/><use x="132.07547169811" y="94.339622641509" xlink:href="#block"/><use x="150.94339622642" y="94.339622641509" xlink:href="#block"/><use x="169.81132075472" y="94.339622641509" xlink:href="#block"/><use x="207.54716981132" y="94.339622641509" xlink:href="#block"/><use x="216.98113207547" y="94.339622641509" xlink:href="#block"/><use x="245.28301886792" y="94.339622641509" xlink:href="#block"/><use x="273.58490566038" y="94.339622641509" xlink:href="#block"/><use x="283.01886792453" y="94.339622641509" xlink:href="#block"/><use x="301.88679245283" y="94.339622641509" xlink:href="#block"/><use x="311.32075471698" y="94.339622641509" xlink:href="#block"/><use x="320.75471698113" y="94.339622641509" xlink:href="#block"/><use x="339.62264150943" y="94.339622641509" xlink:href="#block"/><use x="358.49056603774" y="94.339622641509" xlink:href="#block"/><use x="367.92452830189" y="94.339622641509" xlink:href="#block"/><use x="405.66037735849" y="94.339622641509" xlink:href="#block"/><use x="415.09433962264" y="94.339622641509" xlink:href="#block"/><use x="424.52830188679" y="94.339622641509" xlink:href="#block"/><use x="433.96226415094" y="94.339622641509" xlink:href="#block"/><use x="443.39622641509" y="94.339622641509" xlink:href="#block"/><use x="452.83018867925" y="94.339622641509" xlink:href="#block"/><use x="471.69811320755" y="94.339622641509" xlink:href="#block"/><use x="490.56603773585" y="94.339622641509" xlink:href="#block"/><use x="0" y="103.77358490566" xlink:href="#block"/><use x="66.037735849057" y="103.77358490566" xlink:href="#block"/><use x="84.905660377359" y="103.77358490566" xlink:href="#block"/><use x="94.339622641509" y="103.77358490566" xlink:href="#block"/><use x="141.50943396226" y="103.77358490566" xlink:href="#block"/><use x="160.37735849057" y="103.77358490566" xlink:href="#block"/><use x="179.24528301887" y="103.77358490566" xlink:href="#block"/><use x="198.11320754717" y="103.77358490566" xlink:href="#block"/><use x="207.54716981132" y="103.77358490566" xlink:href="#block"/><use x="216.98113207547" y="103.77358490566" xlink:href="#block"/><use x="235.84905660377" y="103.77358490566" xlink:href="#block"/><use x="273.58490566038" y="103.77358490566" xlink:href="#block"/><use x="283.01886792453" y="103.77358490566" xlink:href="#block"/><use x="292.45283018868" y="103.77358490566" xlink:href="#block"/><use x="301.88679245283" y="103.77358490566" xlink:href="#block"/><use x="311.32075471698" y="103.77358490566" xlink:href="#block"/><use x="330.18867924528" y="103.77358490566" xlink:href="#block"/><use x="339.62264150943" y="103.77358490566" xlink:href="#block"/><use x="349.05660377358" y="103.77358490566" xlink:href="#block"/><use x="367.92452830189" y="103.77358490566" xlink:href="#block"/><use x="386.79245283019" y="103.77358490566" xlink:href="#block"/><use x="396.22641509434" y="103.77358490566" xlink:href="#block"/><use x="405.66037735849" y="103.77358490566" xlink:href="#block"/><use x="424.52830188679" y="103.77358490566" xlink:href="#block"/><use x="462.2641509434" y="103.77358490566" xlink:href="#block"/><use x="471.69811320755" y="103.77358490566" xlink:href="#block"/><use x="481.1320754717" y="103.77358490566" xlink:href="#block"/><use x="490.56603773585" y="103.77358490566" xlink:href="#block"/><use x="18.867924528302" y="113.20754716981" xlink:href="#block"/><use x="28.301886792453" y="113.20754716981" xlink:href="#block"/><use x="37.735849056604" y="113.20754716981" xlink:href="#block"/><use x="47.169811320755" y="113.20754716981" xlink:href="#block"/><use x="56.603773584906" y="113.20754716981" xlink:href="#block"/><use x="75.471698113208" y="113.20754716981" xlink:href="#block"/><use x="84.905660377359" y="113.20754716981" xlink:href="#block"/><use x="94.339622641509" y="113.20754716981" xlink:href="#block"/><use x="103.77358490566" y="113.20754716981" xlink:href="#block"/><use x="113.20754716981" y="113.20754716981" xlink:href="#block"/><use x="132.07547169811" y="113.20754716981" xlink:href="#block"/><use x="150.94339622642" y="113.20754716981" xlink:href="#block"/><use x="160.37735849057" y="113.20754716981" xlink:href="#block"/><use x="179.24528301887" y="113.20754716981" xlink:href="#block"/><use x="188.67924528302" y="113.20754716981" xlink:href="#block"/><use x="216.98113207547" y="113.20754716981" xlink:href="#block"/><use x="226.41509433962" y="113.20754716981" xlink:href="#block"/><use x="235.84905660377" y="113.20754716981" xlink:href="#block"/><use x="264.15094339623" y="113.20754716981" xlink:href="#block"/><use x="283.01886792453" y="113.20754716981" xlink:href="#block"/><use x="292.45283018868" y="113.20754716981" xlink:href="#block"/><use x="320.75471698113" y="113.20754716981" xlink:href="#block"/><use x="330.18867924528" y="113.20754716981" xlink:href="#block"/><use x="339.62264150943" y="113.20754716981" xlink:href="#block"/><use x="358.49056603774" y="113.20754716981" xlink:href="#block"/><use x="377.35849056604" y="113.20754716981" xlink:href="#block"/><use x="405.66037735849" y="113.20754716981" xlink:href="#block"/><use x="452.83018867925" y="113.20754716981" xlink:href="#block"/><use x="462.2641509434" y="113.20754716981" xlink:href="#block"/><use x="471.69811320755" y="113.20754716981" xlink:href="#block"/><use x="0" y="122.64150943396" xlink:href="#block"/><use x="9.4339622641509" y="122.64150943396" xlink:href="#block"/><use x="28.301886792453" y="122.64150943396" xlink:href="#block"/><use x="47.169811320755" y="122.64150943396" xlink:href="#block"/><use x="66.037735849057" y="122.64150943396" xlink:href="#block"/><use x="75.471698113208" y="122.64150943396" xlink:href="#block"/><use x="94.339622641509" y="122.64150943396" xlink:href="#block"/><use x="103.77358490566" y="122.64150943396" xlink:href="#block"/><use x="113.20754716981" y="122.64150943396" xlink:href="#block"/><use x="122.64150943396" y="122.64150943396" xlink:href="#block"/><use x="150.94339622642" y="122.64150943396" xlink:href="#block"/><use x="160.37735849057" y="122.64150943396" xlink:href="#block"/><use x="169.81132075472" y="122.64150943396" xlink:href="#block"/><use x="179.24528301887" y="122.64150943396" xlink:href="#block"/><use x="198.11320754717" y="122.64150943396" xlink:href="#block"/><use x="207.54716981132" y="122.64150943396" xlink:href="#block"/><use x="235.84905660377" y="122.64150943396" xlink:href="#block"/><use x="264.15094339623" y="122.64150943396" xlink:href="#block"/><use x="273.58490566038" y="122.64150943396" xlink:href="#block"/><use x="311.32075471698" y="122.64150943396" xlink:href="#block"/><use x="320.75471698113" y="122.64150943396" xlink:href="#block"/><use x="367.92452830189" y="122.64150943396" xlink:href="#block"/><use x="377.35849056604" y="122.64150943396" xlink:href="#block"/><use x="424.52830188679" y="122.64150943396" xlink:href="#block"/><use x="462.2641509434" y="122.64150943396" xlink:href="#block"/><use x="18.867924528302" y="132.07547169811" xlink:href="#block"/><use x="47.169811320755" y="132.07547169811" xlink:href="#block"/><use x="56.603773584906" y="132.07547169811" xlink:href="#block"/><use x="66.037735849057" y="132.07547169811" xlink:href="#block"/><use x="84.905660377359" y="132.07547169811" xlink:href="#block"/><use x="94.339622641509" y="132.07547169811" xlink:href="#block"/><use x="103.77358490566" y="132.07547169811" xlink:href="#block"/><use x="122.64150943396" y="132.07547169811" xlink:href="#block"/><use x="132.07547169811" y="132.07547169811" xlink:href="#block"/><use x="141.50943396226" y="132.07547169811" xlink:href="#block"/><use x="169.81132075472" y="132.07547169811" xlink:href="#block"/><use x="179.24528301887" y="132.07547169811" xlink:href="#block"/><use x="216.98113207547" y="132.07547169811" xlink:href="#block"/><use x="235.84905660377" y="132.07547169811" xlink:href="#block"/><use x="254.71698113208" y="132.07547169811" xlink:href="#block"/><use x="264.15094339623" y="132.07547169811" xlink:href="#block"/><use x="311.32075471698" y="132.07547169811" xlink:href="#block"/><use x="330.18867924528" y="132.07547169811" xlink:href="#block"/><use x="339.62264150943" y="132.07547169811" xlink:href="#block"/><use x="358.49056603774" y="132.07547169811" xlink:href="#block"/><use x="377.35849056604" y="132.07547169811" xlink:href="#block"/><use x="386.79245283019" y="132.07547169811" xlink:href="#block"/><use x="396.22641509434" y="132.07547169811" xlink:href="#block"/><use x="405.66037735849" y="132.07547169811" xlink:href="#block"/><use x="443.39622641509" y="132.07547169811" xlink:href="#block"/><use x="452.83018867925" y="132.07547169811" xlink:href="#block"/><use x="471.69811320755" y="132.07547169811" xlink:href="#block"/><use x="481.1320754717" y="132.07547169811" xlink:href="#block"/><use x="0" y="141.50943396226" xlink:href="#block"/><use x="9.4339622641509" y="141.50943396226" xlink:href="#block"/><use x="28.301886792453" y="141.50943396226" xlink:href="#block"/><use x="84.905660377359" y="141.50943396226" xlink:href="#block"/><use x="94.339622641509" y="141.50943396226" xlink:href="#block"/><use x="103.77358490566" y="141.50943396226" xlink:href="#block"/><use x="132.07547169811" y="141.50943396226" xlink:href="#block"/><use x="141.50943396226" y="141.50943396226" xlink:href="#block"/><use x="160.37735849057" y="141.50943396226" xlink:href="#block"/><use x="179.24528301887" y="141.50943396226" xlink:href="#block"/><use x="207.54716981132" y="141.50943396226" xlink:href="#block"/><use x="226.41509433962" y="141.50943396226" xlink:href="#block"/><use x="235.84905660377" y="141.50943396226" xlink:href="#block"/><use x="245.28301886792" y="141.50943396226" xlink:href="#block"/><use x="264.15094339623" y="141.50943396226" xlink:href="#block"/><use x="311.32075471698" y="141.50943396226" xlink:href="#block"/><use x="330.18867924528" y="141.50943396226" xlink:href="#block"/><use x="349.05660377358" y="141.50943396226" xlink:href="#block"/><use x="386.79245283019" y="141.50943396226" xlink:href="#block"/><use x="396.22641509434" y="141.50943396226" xlink:href="#block"/><use x="443.39622641509" y="141.50943396226" xlink:href="#block"/><use x="452.83018867925" y="141.50943396226" xlink:href="#block"/><use x="481.1320754717" y="141.50943396226" xlink:href="#block"/><use x="490.56603773585" y="141.50943396226" xlink:href="#block"/><use x="0" y="150.94339622642" xlink:href="#block"/><use x="9.4339622641509" y="150.94339622642" xlink:href="#block"/><use x="28.301886792453" y="150.94339622642" xlink:href="#block"/><use x="56.603773584906" y="150.94339622642" xlink:href="#block"/><use x="75.471698113208" y="150.94339622642" xlink:href="#block"/><use x="84.905660377359" y="150.94339622642" xlink:href="#block"/><use x="94.339622641509" y="150.94339622642" xlink:href="#block"/><use x="113.20754716981" y="150.94339622642" xlink:href="#block"/><use x="122.64150943396" y="150.94339622642" xlink:href="#block"/><use x="132.07547169811" y="150.94339622642" xlink:href="#block"/><use x="150.94339622642" y="150.94339622642" xlink:href="#block"/><use x="160.37735849057" y="150.94339622642" xlink:href="#block"/><use x="198.11320754717" y="150.94339622642" xlink:href="#block"/><use x="207.54716981132" y="150.94339622642" xlink:href="#block"/><use x="254.71698113208" y="150.94339622642" xlink:href="#block"/><use x="264.15094339623" y="150.94339622642" xlink:href="#block"/><use x="273.58490566038" y="150.94339622642" xlink:href="#block"/><use x="301.88679245283" y="150.94339622642" xlink:href="#block"/><use x="320.75471698113" y="150.94339622642" xlink:href="#block"/><use x="349.05660377358" y="150.94339622642" xlink:href="#block"/><use x="358.49056603774" y="150.94339622642" xlink:href="#block"/><use x="386.79245283019" y="150.94339622642" xlink:href="#block"/><use x="405.66037735849" y="150.94339622642" xlink:href="#block"/><use x="433.96226415094" y="150.94339622642" xlink:href="#block"/><use x="443.39622641509" y="150.94339622642" xlink:href="#block"/><use x="462.2641509434" y="150.94339622642" xlink:href="#block"/><use x="471.69811320755" y="150.94339622642" xlink:href="#block"/><use x="0" y="160.37735849057" xlink:href="#block"/><use x="9.4339622641509" y="160.37735849057" xlink:href="#block"/><use x="18.867924528302" y="160.37735849057" xlink:href="#block"/><use x="28.301886792453" y="160.37735849057" xlink:href="#block"/><use x="66.037735849057" y="160.37735849057" xlink:href="#block"/><use x="75.471698113208" y="160.37735849057" xlink:href="#block"/><use x="94.339622641509" y="160.37735849057" xlink:href="#block"/><use x="103.77358490566" y="160.37735849057" xlink:href="#block"/><use x="113.20754716981" y="160.37735849057" xlink:href="#block"/><use x="132.07547169811" y="160.37735849057" xlink:href="#block"/><use x="141.50943396226" y="160.37735849057" xlink:href="#block"/><use x="169.81132075472" y="160.37735849057" xlink:href="#block"/><use x="179.24528301887" y="160.37735849057" xlink:href="#block"/><use x="226.41509433962" y="160.37735849057" xlink:href="#block"/><use x="273.58490566038" y="160.37735849057" xlink:href="#block"/><use x="283.01886792453" y="160.37735849057" xlink:href="#block"/><use x="301.88679245283" y="160.37735849057" xlink:href="#block"/><use x="320.75471698113" y="160.37735849057" xlink:href="#block"/><use x="339.62264150943" y="160.37735849057" xlink:href="#block"/><use x="367.92452830189" y="160.37735849057" xlink:href="#block"/><use x="377.35849056604" y="160.37735849057" xlink:href="#block"/><use x="396.22641509434" y="160.37735849057" xlink:href="#block"/><use x="405.66037735849" y="160.37735849057" xlink:href="#block"/><use x="415.09433962264" y="160.37735849057" xlink:href="#block"/><use x="462.2641509434" y="160.37735849057" xlink:href="#block"/><use x="481.1320754717" y="160.37735849057" xlink:href="#block"/><use x="0" y="169.81132075472" xlink:href="#block"/><use x="18.867924528302" y="169.81132075472" xlink:href="#block"/><use x="28.301886792453" y="169.81132075472" xlink:href="#block"/><use x="56.603773584906" y="169.81132075472" xlink:href="#block"/><use x="66.037735849057" y="169.81132075472" xlink:href="#block"/><use x="84.905660377359" y="169.81132075472" xlink:href="#block"/><use x="94.339622641509" y="169.81132075472" xlink:href="#block"/><use x="122.64150943396" y="169.81132075472" xlink:href="#block"/><use x="132.07547169811" y="169.81132075472" xlink:href="#block"/><use x="141.50943396226" y="169.81132075472" xlink:href="#block"/><use x="160.37735849057" y="169.81132075472" xlink:href="#block"/><use x="188.67924528302" y="169.81132075472" xlink:href="#block"/><use x="207.54716981132" y="169.81132075472" xlink:href="#block"/><use x="216.98113207547" y="169.81132075472" xlink:href="#block"/><use x="226.41509433962" y="169.81132075472" xlink:href="#block"/><use x="235.84905660377" y="169.81132075472" xlink:href="#block"/><use x="254.71698113208" y="169.81132075472" xlink:href="#block"/><use x="264.15094339623" y="169.81132075472" xlink:href="#block"/><use x="283.01886792453" y="169.81132075472" xlink:href="#block"/><use x="292.45283018868" y="169.81132075472" xlink:href="#block"/><use x="301.88679245283" y="169.81132075472" xlink:href="#block"/><use x="311.32075471698" y="169.81132075472" xlink:href="#block"/><use x="330.18867924528" y="169.81132075472" xlink:href="#block"/><use x="339.62264150943" y="169.81132075472" xlink:href="#block"/><use x="358.49056603774" y="169.81132075472" xlink:href="#block"/><use x="386.79245283019" y="169.81132075472" xlink:href="#block"/><use x="415.09433962264" y="169.81132075472" xlink:href="#block"/><use x="424.52830188679" y="169.81132075472" xlink:href="#block"/><use x="443.39622641509" y="169.81132075472" xlink:href="#block"/><use x="452.83018867925" y="169.81132075472" xlink:href="#block"/><use x="0" y="179.24528301887" xlink:href="#block"/><use x="18.867924528302" y="179.24528301887" xlink:href="#block"/><use x="66.037735849057" y="179.24528301887" xlink:href="#block"/><use x="75.471698113208" y="179.24528301887" xlink:href="#block"/><use x="84.905660377359" y="179.24528301887" xlink:href="#block"/><use x="113.20754716981" y="179.24528301887" xlink:href="#block"/><use x="122.64150943396" y="179.24528301887" xlink:href="#block"/><use x="141.50943396226" y="179.24528301887" xlink:href="#block"/><use x="150.94339622642" y="179.24528301887" xlink:href="#block"/><use x="160.37735849057" y="179.24528301887" xlink:href="#block"/><use x="169.81132075472" y="179.24528301887" xlink:href="#block"/><use x="198.11320754717" y="179.24528301887" xlink:href="#block"/><use x="216.98113207547" y="179.24528301887" xlink:href="#block"/><use x="226.41509433962" y="179.24528301887" xlink:href="#block"/><use x="264.15094339623" y="179.24528301887" xlink:href="#block"/><use x="273.58490566038" y="179.24528301887" xlink:href="#block"/><use x="283.01886792453" y="179.24528301887" xlink:href="#block"/><use x="301.88679245283" y="179.24528301887" xlink:href="#block"/><use x="320.75471698113" y="179.24528301887" xlink:href="#block"/><use x="330.18867924528" y="179.24528301887" xlink:href="#block"/><use x="339.62264150943" y="179.24528301887" xlink:href="#block"/><use x="386.79245283019" y="179.24528301887" xlink:href="#block"/><use x="396.22641509434" y="179.24528301887" xlink:href="#block"/><use x="405.66037735849" y="179.24528301887" xlink:href="#block"/><use x="443.39622641509" y="179.24528301887" xlink:href="#block"/><use x="452.83018867925" y="179.24528301887" xlink:href="#block"/><use x="462.2641509434" y="179.24528301887" xlink:href="#block"/><use x="471.69811320755" y="179.24528301887" xlink:href="#block"/><use x="481.1320754717" y="179.24528301887" xlink:href="#block"/><use x="490.56603773585" y="179.24528301887" xlink:href="#block"/><use x="9.4339622641509" y="188.67924528302" xlink:href="#block"/><use x="18.867924528302" y="188.67924528302" xlink:href="#block"/><use x="56.603773584906" y="188.67924528302" xlink:href="#block"/><use x="66.037735849057" y="188.67924528302" xlink:href="#block"/><use x="75.471698113208" y="188.67924528302" xlink:href="#block"/><use x="84.905660377359" y="188.67924528302" xlink:href="#block"/><use x="103.77358490566" y="188.67924528302" xlink:href="#block"/><use x="113.20754716981" y="188.67924528302" xlink:href="#block"/><use x="150.94339622642" y="188.67924528302" xlink:href="#block"/><use x="179.24528301887" y="188.67924528302" xlink:href="#block"/><use x="188.67924528302" y="188.67924528302" xlink:href="#block"/><use x="207.54716981132" y="188.67924528302" xlink:href="#block"/><use x="216.98113207547" y="188.67924528302" xlink:href="#block"/><use x="226.41509433962" y="188.67924528302" xlink:href="#block"/><use x="235.84905660377" y="188.67924528302" xlink:href="#block"/><use x="245.28301886792" y="188.67924528302" xlink:href="#block"/><use x="254.71698113208" y="188.67924528302" xlink:href="#block"/><use x="283.01886792453" y="188.67924528302" xlink:href="#block"/><use x="292.45283018868" y="188.67924528302" xlink:href="#block"/><use x="301.88679245283" y="188.67924528302" xlink:href="#block"/><use x="320.75471698113" y="188.67924528302" xlink:href="#block"/><use x="339.62264150943" y="188.67924528302" xlink:href="#block"/><use x="349.05660377358" y="188.67924528302" xlink:href="#block"/><use x="367.92452830189" y="188.67924528302" xlink:href="#block"/><use x="424.52830188679" y="188.67924528302" xlink:href="#block"/><use x="433.96226415094" y="188.67924528302" xlink:href="#block"/><use x="443.39622641509" y="188.67924528302" xlink:href="#block"/><use x="452.83018867925" y="188.67924528302" xlink:href="#block"/><use x="462.2641509434" y="188.67924528302" xlink:href="#block"/><use x="481.1320754717" y="188.67924528302" xlink:href="#block"/><use x="490.56603773585" y="188.67924528302" xlink:href="#block"/><use x="9.4339622641509" y="198.11320754717" xlink:href="#block"/><use x="66.037735849057" y="198.11320754717" xlink:href="#block"/><use x="84.905660377359" y="198.11320754717" xlink:href="#block"/><use x="103.77358490566" y="198.11320754717" xlink:href="#block"/><use x="122.64150943396" y="198.11320754717" xlink:href="#block"/><use x="141.50943396226" y="198.11320754717" xlink:href="#block"/><use x="150.94339622642" y="198.11320754717" xlink:href="#block"/><use x="160.37735849057" y="198.11320754717" xlink:href="#block"/><use x="169.81132075472" y="198.11320754717" xlink:href="#block"/><use x="179.24528301887" y="198.11320754717" xlink:href="#block"/><use x="207.54716981132" y="198.11320754717" xlink:href="#block"/><use x="235.84905660377" y="198.11320754717" xlink:href="#block"/><use x="245.28301886792" y="198.11320754717" xlink:href="#block"/><use x="264.15094339623" y="198.11320754717" xlink:href="#block"/><use x="273.58490566038" y="198.11320754717" xlink:href="#block"/><use x="320.75471698113" y="198.11320754717" xlink:href="#block"/><use x="330.18867924528" y="198.11320754717" xlink:href="#block"/><use x="339.62264150943" y="198.11320754717" xlink:href="#block"/><use x="367.92452830189" y="198.11320754717" xlink:href="#block"/><use x="377.35849056604" y="198.11320754717" xlink:href="#block"/><use x="386.79245283019" y="198.11320754717" xlink:href="#block"/><use x="396.22641509434" y="198.11320754717" xlink:href="#block"/><use x="405.66037735849" y="198.11320754717" xlink:href="#block"/><use x="415.09433962264" y="198.11320754717" xlink:href="#block"/><use x="481.1320754717" y="198.11320754717" xlink:href="#block"/><use x="0" y="207.54716981132" xlink:href="#block"/><use x="9.4339622641509" y="207.54716981132" xlink:href="#block"/><use x="37.735849056604" y="207.54716981132" xlink:href="#block"/><use x="47.169811320755" y="207.54716981132" xlink:href="#block"/><use x="56.603773584906" y="207.54716981132" xlink:href="#block"/><use x="75.471698113208" y="207.54716981132" xlink:href="#block"/><use x="113.20754716981" y="207.54716981132" xlink:href="#block"/><use x="141.50943396226" y="207.54716981132" xlink:href="#block"/><use x="160.37735849057" y="207.54716981132" xlink:href="#block"/><use x="179.24528301887" y="207.54716981132" xlink:href="#block"/><use x="188.67924528302" y="207.54716981132" xlink:href="#block"/><use x="207.54716981132" y="207.54716981132" xlink:href="#block"/><use x="264.15094339623" y="207.54716981132" xlink:href="#block"/><use x="273.58490566038" y="207.54716981132" xlink:href="#block"/><use x="283.01886792453" y="207.54716981132" xlink:href="#block"/><use x="292.45283018868" y="207.54716981132" xlink:href="#block"/><use x="301.88679245283" y="207.54716981132" xlink:href="#block"/><use x="320.75471698113" y="207.54716981132" xlink:href="#block"/><use x="339.62264150943" y="207.54716981132" xlink:href="#block"/><use x="349.05660377358" y="207.54716981132" xlink:href="#block"/><use x="386.79245283019" y="207.54716981132" xlink:href="#block"/><use x="396.22641509434" y="207.54716981132" xlink:href="#block"/><use x="415.09433962264" y="207.54716981132" xlink:href="#block"/><use x="433.96226415094" y="207.54716981132" xlink:href="#block"/><use x="443.39622641509" y="207.54716981132" xlink:href="#block"/><use x="452.83018867925" y="207.54716981132" xlink:href="#block"/><use x="471.69811320755" y="207.54716981132" xlink:href="#block"/><use x="490.56603773585" y="207.54716981132" xlink:href="#block"/><use x="0" y="216.98113207547" xlink:href="#block"/><use x="37.735849056604" y="216.98113207547" xlink:href="#block"/><use x="75.471698113208" y="216.98113207547" xlink:href="#block"/><use x="84.905660377359" y="216.98113207547" xlink:href="#block"/><use x="113.20754716981" y="216.98113207547" xlink:href="#block"/><use x="122.64150943396" y="216.98113207547" xlink:href="#block"/><use x="160.37735849057" y="216.98113207547" xlink:href="#block"/><use x="188.67924528302" y="216.98113207547" xlink:href="#block"/><use x="198.11320754717" y="216.98113207547" xlink:href="#block"/><use x="235.84905660377" y="216.98113207547" xlink:href="#block"/><use x="245.28301886792" y="216.98113207547" xlink:href="#block"/><use x="254.71698113208" y="216.98113207547" xlink:href="#block"/><use x="273.58490566038" y="216.98113207547" xlink:href="#block"/><use x="283.01886792453" y="216.98113207547" xlink:href="#block"/><use x="292.45283018868" y="216.98113207547" xlink:href="#block"/><use x="301.88679245283" y="216.98113207547" xlink:href="#block"/><use x="311.32075471698" y="216.98113207547" xlink:href="#block"/><use x="330.18867924528" y="216.98113207547" xlink:href="#block"/><use x="339.62264150943" y="216.98113207547" xlink:href="#block"/><use x="367.92452830189" y="216.98113207547" xlink:href="#block"/><use x="377.35849056604" y="216.98113207547" xlink:href="#block"/><use x="386.79245283019" y="216.98113207547" xlink:href="#block"/><use x="396.22641509434" y="216.98113207547" xlink:href="#block"/><use x="405.66037735849" y="216.98113207547" xlink:href="#block"/><use x="443.39622641509" y="216.98113207547" xlink:href="#block"/><use x="462.2641509434" y="216.98113207547" xlink:href="#block"/><use x="471.69811320755" y="216.98113207547" xlink:href="#block"/><use x="481.1320754717" y="216.98113207547" xlink:href="#block"/><use x="490.56603773585" y="216.98113207547" xlink:href="#block"/><use x="0" y="226.41509433962" xlink:href="#block"/><use x="18.867924528302" y="226.41509433962" xlink:href="#block"/><use x="37.735849056604" y="226.41509433962" xlink:href="#block"/><use x="47.169811320755" y="226.41509433962" xlink:href="#block"/><use x="56.603773584906" y="226.41509433962" xlink:href="#block"/><use x="66.037735849057" y="226.41509433962" xlink:href="#block"/><use x="75.471698113208" y="226.41509433962" xlink:href="#block"/><use x="84.905660377359" y="226.41509433962" xlink:href="#block"/><use x="94.339622641509" y="226.41509433962" xlink:href="#block"/><use x="103.77358490566" y="226.41509433962" xlink:href="#block"/><use x="113.20754716981" y="226.41509433962" xlink:href="#block"/><use x="122.64150943396" y="226.41509433962" xlink:href="#block"/><use x="132.07547169811" y="226.41509433962" xlink:href="#block"/><use x="141.50943396226" y="226.41509433962" xlink:href="#block"/><use x="160.37735849057" y="226.41509433962" xlink:href="#block"/><use x="179.24528301887" y="226.41509433962" xlink:href="#block"/><use x="188.67924528302" y="226.41509433962" xlink:href="#block"/><use x="198.11320754717" y="226.41509433962" xlink:href="#block"/><use x="207.54716981132" y="226.41509433962" xlink:href="#block"/><use x="216.98113207547" y="226.41509433962" xlink:href="#block"/><use x="226.41509433962" y="226.41509433962" xlink:href="#block"/><use x="235.84905660377" y="226.41509433962" xlink:href="#block"/><use x="245.28301886792" y="226.41509433962" xlink:href="#block"/><use x="254.71698113208" y="226.41509433962" xlink:href="#block"/><use x="264.15094339623" y="226.41509433962" xlink:href="#block"/><use x="273.58490566038" y="226.41509433962" xlink:href="#block"/><use x="283.01886792453" y="226.41509433962" xlink:href="#block"/><use x="292.45283018868" y="226.41509433962" xlink:href="#block"/><use x="311.32075471698" y="226.41509433962" xlink:href="#block"/><use x="358.49056603774" y="226.41509433962" xlink:href="#block"/><use x="367.92452830189" y="226.41509433962" xlink:href="#block"/><use x="396.22641509434" y="226.41509433962" xlink:href="#block"/><use x="405.66037735849" y="226.41509433962" xlink:href="#block"/><use x="415.09433962264" y="226.41509433962" xlink:href="#block"/><use x="424.52830188679" y="226.41509433962" xlink:href="#block"/><use x="433.96226415094" y="226.41509433962" xlink:href="#block"/><use x="443.39622641509" y="226.41509433962" xlink:href="#block"/><use x="452.83018867925" y="226.41509433962" xlink:href="#block"/><use x="471.69811320755" y="226.41509433962" xlink:href="#block"/><use x="490.56603773585" y="226.41509433962" xlink:href="#block"/><use x="0" y="235.84905660377" xlink:href="#block"/><use x="9.4339622641509" y="235.84905660377" xlink:href="#block"/><use x="37.735849056604" y="235.84905660377" xlink:href="#block"/><use x="75.471698113208" y="235.84905660377" xlink:href="#block"/><use x="84.905660377359" y="235.84905660377" xlink:href="#block"/><use x="132.07547169811" y="235.84905660377" xlink:href="#block"/><use x="160.37735849057" y="235.84905660377" xlink:href="#block"/><use x="188.67924528302" y="235.84905660377" xlink:href="#block"/><use x="198.11320754717" y="235.84905660377" xlink:href="#block"/><use x="226.41509433962" y="235.84905660377" xlink:href="#block"/><use x="264.15094339623" y="235.84905660377" xlink:href="#block"/><use x="292.45283018868" y="235.84905660377" xlink:href="#block"/><use x="320.75471698113" y="235.84905660377" xlink:href="#block"/><use x="330.18867924528" y="235.84905660377" xlink:href="#block"/><use x="349.05660377358" y="235.84905660377" xlink:href="#block"/><use x="358.49056603774" y="235.84905660377" xlink:href="#block"/><use x="377.35849056604" y="235.84905660377" xlink:href="#block"/><use x="386.79245283019" y="235.84905660377" xlink:href="#block"/><use x="396.22641509434" y="235.84905660377" xlink:href="#block"/><use x="415.09433962264" y="235.84905660377" xlink:href="#block"/><use x="452.83018867925" y="235.84905660377" xlink:href="#block"/><use x="481.1320754717" y="235.84905660377" xlink:href="#block"/><use x="9.4339622641509" y="245.28301886792" xlink:href="#block"/><use x="37.735849056604" y="245.28301886792" xlink:href="#block"/><use x="56.603773584906" y="245.28301886792" xlink:href="#block"/><use x="75.471698113208" y="245.28301886792" xlink:href="#block"/><use x="94.339622641509" y="245.28301886792" xlink:href="#block"/><use x="103.77358490566" y="245.28301886792" xlink:href="#block"/><use x="113.20754716981" y="245.28301886792" xlink:href="#block"/><use x="122.64150943396" y="245.28301886792" xlink:href="#block"/><use x="169.81132075472" y="245.28301886792" xlink:href="#block"/><use x="207.54716981132" y="245.28301886792" xlink:href="#block"/><use x="226.41509433962" y="245.28301886792" xlink:href="#block"/><use x="245.28301886792" y="245.28301886792" xlink:href="#block"/><use x="264.15094339623" y="245.28301886792" xlink:href="#block"/><use x="273.58490566038" y="245.28301886792" xlink:href="#block"/><use x="292.45283018868" y="245.28301886792" xlink:href="#block"/><use x="301.88679245283" y="245.28301886792" xlink:href="#block"/><use x="320.75471698113" y="245.28301886792" xlink:href="#block"/><use x="330.18867924528" y="245.28301886792" xlink:href="#block"/><use x="339.62264150943" y="245.28301886792" xlink:href="#block"/><use x="349.05660377358" y="245.28301886792" xlink:href="#block"/><use x="358.49056603774" y="245.28301886792" xlink:href="#block"/><use x="386.79245283019" y="245.28301886792" xlink:href="#block"/><use x="396.22641509434" y="245.28301886792" xlink:href="#block"/><use x="415.09433962264" y="245.28301886792" xlink:href="#block"/><use x="433.96226415094" y="245.28301886792" xlink:href="#block"/><use x="452.83018867925" y="245.28301886792" xlink:href="#block"/><use x="462.2641509434" y="245.28301886792" xlink:href="#block"/><use x="9.4339622641509" y="254.71698113208" xlink:href="#block"/><use x="18.867924528302" y="254.71698113208" xlink:href="#block"/><use x="28.301886792453" y="254.71698113208" xlink:href="#block"/><use x="37.735849056604" y="254.71698113208" xlink:href="#block"/><use x="75.471698113208" y="254.71698113208" xlink:href="#block"/><use x="84.905660377359" y="254.71698113208" xlink:href="#block"/><use x="103.77358490566" y="254.71698113208" xlink:href="#block"/><use x="113.20754716981" y="254.71698113208" xlink:href="#block"/><use x="141.50943396226" y="254.71698113208" xlink:href="#block"/><use x="160.37735849057" y="254.71698113208" xlink:href="#block"/><use x="179.24528301887" y="254.71698113208" xlink:href="#block"/><use x="207.54716981132" y="254.71698113208" xlink:href="#block"/><use x="216.98113207547" y="254.71698113208" xlink:href="#block"/><use x="226.41509433962" y="254.71698113208" xlink:href="#block"/><use x="264.15094339623" y="254.71698113208" xlink:href="#block"/><use x="320.75471698113" y="254.71698113208" xlink:href="#block"/><use x="377.35849056604" y="254.71698113208" xlink:href="#block"/><use x="386.79245283019" y="254.71698113208" xlink:href="#block"/><use x="405.66037735849" y="254.71698113208" xlink:href="#block"/><use x="415.09433962264" y="254.71698113208" xlink:href="#block"/><use x="452.83018867925" y="254.71698113208" xlink:href="#block"/><use x="490.56603773585" y="254.71698113208" xlink:href="#block"/><use x="9.4339622641509" y="264.15094339623" xlink:href="#block"/><use x="18.867924528302" y="264.15094339623" xlink:href="#block"/><use x="28.301886792453" y="264.15094339623" xlink:href="#block"/><use x="37.735849056604" y="264.15094339623" xlink:href="#block"/><use x="47.169811320755" y="264.15094339623" xlink:href="#block"/><use x="56.603773584906" y="264.15094339623" xlink:href="#block"/><use x="66.037735849057" y="264.15094339623" xlink:href="#block"/><use x="75.471698113208" y="264.15094339623" xlink:href="#block"/><use x="122.64150943396" y="264.15094339623" xlink:href="#block"/><use x="141.50943396226" y="264.15094339623" xlink:href="#block"/><use x="150.94339622642" y="264.15094339623" xlink:href="#block"/><use x="160.37735849057" y="264.15094339623" xlink:href="#block"/><use x="169.81132075472" y="264.15094339623" xlink:href="#block"/><use x="179.24528301887" y="264.15094339623" xlink:href="#block"/><use x="188.67924528302" y="264.15094339623" xlink:href="#block"/><use x="207.54716981132" y="264.15094339623" xlink:href="#block"/><use x="226.41509433962" y="264.15094339623" xlink:href="#block"/><use x="235.84905660377" y="264.15094339623" xlink:href="#block"/><use x="245.28301886792" y="264.15094339623" xlink:href="#block"/><use x="254.71698113208" y="264.15094339623" xlink:href="#block"/><use x="264.15094339623" y="264.15094339623" xlink:href="#block"/><use x="273.58490566038" y="264.15094339623" xlink:href="#block"/><use x="292.45283018868" y="264.15094339623" xlink:href="#block"/><use x="301.88679245283" y="264.15094339623" xlink:href="#block"/><use x="311.32075471698" y="264.15094339623" xlink:href="#block"/><use x="320.75471698113" y="264.15094339623" xlink:href="#block"/><use x="330.18867924528" y="264.15094339623" xlink:href="#block"/><use x="358.49056603774" y="264.15094339623" xlink:href="#block"/><use x="367.92452830189" y="264.15094339623" xlink:href="#block"/><use x="415.09433962264" y="264.15094339623" xlink:href="#block"/><use x="424.52830188679" y="264.15094339623" xlink:href="#block"/><use x="433.96226415094" y="264.15094339623" xlink:href="#block"/><use x="443.39622641509" y="264.15094339623" xlink:href="#block"/><use x="452.83018867925" y="264.15094339623" xlink:href="#block"/><use x="462.2641509434" y="264.15094339623" xlink:href="#block"/><use x="0" y="273.58490566038" xlink:href="#block"/><use x="28.301886792453" y="273.58490566038" xlink:href="#block"/><use x="75.471698113208" y="273.58490566038" xlink:href="#block"/><use x="84.905660377359" y="273.58490566038" xlink:href="#block"/><use x="103.77358490566" y="273.58490566038" xlink:href="#block"/><use x="122.64150943396" y="273.58490566038" xlink:href="#block"/><use x="132.07547169811" y="273.58490566038" xlink:href="#block"/><use x="141.50943396226" y="273.58490566038" xlink:href="#block"/><use x="150.94339622642" y="273.58490566038" xlink:href="#block"/><use x="160.37735849057" y="273.58490566038" xlink:href="#block"/><use x="179.24528301887" y="273.58490566038" xlink:href="#block"/><use x="198.11320754717" y="273.58490566038" xlink:href="#block"/><use x="207.54716981132" y="273.58490566038" xlink:href="#block"/><use x="216.98113207547" y="273.58490566038" xlink:href="#block"/><use x="226.41509433962" y="273.58490566038" xlink:href="#block"/><use x="245.28301886792" y="273.58490566038" xlink:href="#block"/><use x="264.15094339623" y="273.58490566038" xlink:href="#block"/><use x="283.01886792453" y="273.58490566038" xlink:href="#block"/><use x="301.88679245283" y="273.58490566038" xlink:href="#block"/><use x="311.32075471698" y="273.58490566038" xlink:href="#block"/><use x="349.05660377358" y="273.58490566038" xlink:href="#block"/><use x="358.49056603774" y="273.58490566038" xlink:href="#block"/><use x="377.35849056604" y="273.58490566038" xlink:href="#block"/><use x="386.79245283019" y="273.58490566038" xlink:href="#block"/><use x="405.66037735849" y="273.58490566038" xlink:href="#block"/><use x="415.09433962264" y="273.58490566038" xlink:href="#block"/><use x="433.96226415094" y="273.58490566038" xlink:href="#block"/><use x="452.83018867925" y="273.58490566038" xlink:href="#block"/><use x="462.2641509434" y="273.58490566038" xlink:href="#block"/><use x="481.1320754717" y="273.58490566038" xlink:href="#block"/><use x="0" y="283.01886792453" xlink:href="#block"/><use x="28.301886792453" y="283.01886792453" xlink:href="#block"/><use x="47.169811320755" y="283.01886792453" xlink:href="#block"/><use x="56.603773584906" y="283.01886792453" xlink:href="#block"/><use x="75.471698113208" y="283.01886792453" xlink:href="#block"/><use x="84.905660377359" y="283.01886792453" xlink:href="#block"/><use x="94.339622641509" y="283.01886792453" xlink:href="#block"/><use x="132.07547169811" y="283.01886792453" xlink:href="#block"/><use x="160.37735849057" y="283.01886792453" xlink:href="#block"/><use x="169.81132075472" y="283.01886792453" xlink:href="#block"/><use x="179.24528301887" y="283.01886792453" xlink:href="#block"/><use x="198.11320754717" y="283.01886792453" xlink:href="#block"/><use x="207.54716981132" y="283.01886792453" xlink:href="#block"/><use x="216.98113207547" y="283.01886792453" xlink:href="#block"/><use x="235.84905660377" y="283.01886792453" xlink:href="#block"/><use x="254.71698113208" y="283.01886792453" xlink:href="#block"/><use x="264.15094339623" y="283.01886792453" xlink:href="#block"/><use x="292.45283018868" y="283.01886792453" xlink:href="#block"/><use x="301.88679245283" y="283.01886792453" xlink:href="#block"/><use x="311.32075471698" y="283.01886792453" xlink:href="#block"/><use x="320.75471698113" y="283.01886792453" xlink:href="#block"/><use x="330.18867924528" y="283.01886792453" xlink:href="#block"/><use x="339.62264150943" y="283.01886792453" xlink:href="#block"/><use x="358.49056603774" y="283.01886792453" xlink:href="#block"/><use x="396.22641509434" y="283.01886792453" xlink:href="#block"/><use x="415.09433962264" y="283.01886792453" xlink:href="#block"/><use x="443.39622641509" y="283.01886792453" xlink:href="#block"/><use x="462.2641509434" y="283.01886792453" xlink:href="#block"/><use x="481.1320754717" y="283.01886792453" xlink:href="#block"/><use x="490.56603773585" y="283.01886792453" xlink:href="#block"/><use x="9.4339622641509" y="292.45283018868" xlink:href="#block"/><use x="18.867924528302" y="292.45283018868" xlink:href="#block"/><use x="94.339622641509" y="292.45283018868" xlink:href="#block"/><use x="113.20754716981" y="292.45283018868" xlink:href="#block"/><use x="122.64150943396" y="292.45283018868" xlink:href="#block"/><use x="160.37735849057" y="292.45283018868" xlink:href="#block"/><use x="169.81132075472" y="292.45283018868" xlink:href="#block"/><use x="188.67924528302" y="292.45283018868" xlink:href="#block"/><use x="198.11320754717" y="292.45283018868" xlink:href="#block"/><use x="207.54716981132" y="292.45283018868" xlink:href="#block"/><use x="216.98113207547" y="292.45283018868" xlink:href="#block"/><use x="245.28301886792" y="292.45283018868" xlink:href="#block"/><use x="254.71698113208" y="292.45283018868" xlink:href="#block"/><use x="264.15094339623" y="292.45283018868" xlink:href="#block"/><use x="273.58490566038" y="292.45283018868" xlink:href="#block"/><use x="283.01886792453" y="292.45283018868" xlink:href="#block"/><use x="301.88679245283" y="292.45283018868" xlink:href="#block"/><use x="320.75471698113" y="292.45283018868" xlink:href="#block"/><use x="349.05660377358" y="292.45283018868" xlink:href="#block"/><use x="377.35849056604" y="292.45283018868" xlink:href="#block"/><use x="386.79245283019" y="292.45283018868" xlink:href="#block"/><use x="396.22641509434" y="292.45283018868" xlink:href="#block"/><use x="424.52830188679" y="292.45283018868" xlink:href="#block"/><use x="443.39622641509" y="292.45283018868" xlink:href="#block"/><use x="452.83018867925" y="292.45283018868" xlink:href="#block"/><use x="481.1320754717" y="292.45283018868" xlink:href="#block"/><use x="18.867924528302" y="301.88679245283" xlink:href="#block"/><use x="28.301886792453" y="301.88679245283" xlink:href="#block"/><use x="47.169811320755" y="301.88679245283" xlink:href="#block"/><use x="56.603773584906" y="301.88679245283" xlink:href="#block"/><use x="113.20754716981" y="301.88679245283" xlink:href="#block"/><use x="132.07547169811" y="301.88679245283" xlink:href="#block"/><use x="150.94339622642" y="301.88679245283" xlink:href="#block"/><use x="160.37735849057" y="301.88679245283" xlink:href="#block"/><use x="169.81132075472" y="301.88679245283" xlink:href="#block"/><use x="179.24528301887" y="301.88679245283" xlink:href="#block"/><use x="188.67924528302" y="301.88679245283" xlink:href="#block"/><use x="207.54716981132" y="301.88679245283" xlink:href="#block"/><use x="216.98113207547" y="301.88679245283" xlink:href="#block"/><use x="226.41509433962" y="301.88679245283" xlink:href="#block"/><use x="254.71698113208" y="301.88679245283" xlink:href="#block"/><use x="273.58490566038" y="301.88679245283" xlink:href="#block"/><use x="311.32075471698" y="301.88679245283" xlink:href="#block"/><use x="320.75471698113" y="301.88679245283" xlink:href="#block"/><use x="349.05660377358" y="301.88679245283" xlink:href="#block"/><use x="358.49056603774" y="301.88679245283" xlink:href="#block"/><use x="377.35849056604" y="301.88679245283" xlink:href="#block"/><use x="386.79245283019" y="301.88679245283" xlink:href="#block"/><use x="462.2641509434" y="301.88679245283" xlink:href="#block"/><use x="471.69811320755" y="301.88679245283" xlink:href="#block"/><use x="0" y="311.32075471698" xlink:href="#block"/><use x="28.301886792453" y="311.32075471698" xlink:href="#block"/><use x="47.169811320755" y="311.32075471698" xlink:href="#block"/><use x="66.037735849057" y="311.32075471698" xlink:href="#block"/><use x="75.471698113208" y="311.32075471698" xlink:href="#block"/><use x="94.339622641509" y="311.32075471698" xlink:href="#block"/><use x="113.20754716981" y="311.32075471698" xlink:href="#block"/><use x="141.50943396226" y="311.32075471698" xlink:href="#block"/><use x="188.67924528302" y="311.32075471698" xlink:href="#block"/><use x="216.98113207547" y="311.32075471698" xlink:href="#block"/><use x="264.15094339623" y="311.32075471698" xlink:href="#block"/><use x="273.58490566038" y="311.32075471698" xlink:href="#block"/><use x="283.01886792453" y="311.32075471698" xlink:href="#block"/><use x="292.45283018868" y="311.32075471698" xlink:href="#block"/><use x="301.88679245283" y="311.32075471698" xlink:href="#block"/><use x="311.32075471698" y="311.32075471698" xlink:href="#block"/><use x="339.62264150943" y="311.32075471698" xlink:href="#block"/><use x="367.92452830189" y="311.32075471698" xlink:href="#block"/><use x="377.35849056604" y="311.32075471698" xlink:href="#block"/><use x="396.22641509434" y="311.32075471698" xlink:href="#block"/><use x="405.66037735849" y="311.32075471698" xlink:href="#block"/><use x="415.09433962264" y="311.32075471698" xlink:href="#block"/><use x="433.96226415094" y="311.32075471698" xlink:href="#block"/><use x="443.39622641509" y="311.32075471698" xlink:href="#block"/><use x="462.2641509434" y="311.32075471698" xlink:href="#block"/><use x="0" y="320.75471698113" xlink:href="#block"/><use x="47.169811320755" y="320.75471698113" xlink:href="#block"/><use x="56.603773584906" y="320.75471698113" xlink:href="#block"/><use x="66.037735849057" y="320.75471698113" xlink:href="#block"/><use x="75.471698113208" y="320.75471698113" xlink:href="#block"/><use x="84.905660377359" y="320.75471698113" xlink:href="#block"/><use x="103.77358490566" y="320.75471698113" xlink:href="#block"/><use x="160.37735849057" y="320.75471698113" xlink:href="#block"/><use x="169.81132075472" y="320.75471698113" xlink:href="#block"/><use x="207.54716981132" y="320.75471698113" xlink:href="#block"/><use x="216.98113207547" y="320.75471698113" xlink:href="#block"/><use x="226.41509433962" y="320.75471698113" xlink:href="#block"/><use x="235.84905660377" y="320.75471698113" xlink:href="#block"/><use x="254.71698113208" y="320.75471698113" xlink:href="#block"/><use x="264.15094339623" y="320.75471698113" xlink:href="#block"/><use x="273.58490566038" y="320.75471698113" xlink:href="#block"/><use x="292.45283018868" y="320.75471698113" xlink:href="#block"/><use x="330.18867924528" y="320.75471698113" xlink:href="#block"/><use x="339.62264150943" y="320.75471698113" xlink:href="#block"/><use x="367.92452830189" y="320.75471698113" xlink:href="#block"/><use x="386.79245283019" y="320.75471698113" xlink:href="#block"/><use x="415.09433962264" y="320.75471698113" xlink:href="#block"/><use x="462.2641509434" y="320.75471698113" xlink:href="#block"/><use x="471.69811320755" y="320.75471698113" xlink:href="#block"/><use x="490.56603773585" y="320.75471698113" xlink:href="#block"/><use x="0" y="330.18867924528" xlink:href="#block"/><use x="113.20754716981" y="330.18867924528" xlink:href="#block"/><use x="132.07547169811" y="330.18867924528" xlink:href="#block"/><use x="169.81132075472" y="330.18867924528" xlink:href="#block"/><use x="179.24528301887" y="330.18867924528" xlink:href="#block"/><use x="235.84905660377" y="330.18867924528" xlink:href="#block"/><use x="245.28301886792" y="330.18867924528" xlink:href="#block"/><use x="283.01886792453" y="330.18867924528" xlink:href="#block"/><use x="301.88679245283" y="330.18867924528" xlink:href="#block"/><use x="311.32075471698" y="330.18867924528" xlink:href="#block"/><use x="320.75471698113" y="330.18867924528" xlink:href="#block"/><use x="339.62264150943" y="330.18867924528" xlink:href="#block"/><use x="349.05660377358" y="330.18867924528" xlink:href="#block"/><use x="367.92452830189" y="330.18867924528" xlink:href="#block"/><use x="386.79245283019" y="330.18867924528" xlink:href="#block"/><use x="396.22641509434" y="330.18867924528" xlink:href="#block"/><use x="405.66037735849" y="330.18867924528" xlink:href="#block"/><use x="415.09433962264" y="330.18867924528" xlink:href="#block"/><use x="424.52830188679" y="330.18867924528" xlink:href="#block"/><use x="452.83018867925" y="330.18867924528" xlink:href="#block"/><use x="471.69811320755" y="330.18867924528" xlink:href="#block"/><use x="490.56603773585" y="330.18867924528" xlink:href="#block"/><use x="0" y="339.62264150943" xlink:href="#block"/><use x="9.4339622641509" y="339.62264150943" xlink:href="#block"/><use x="28.301886792453" y="339.62264150943" xlink:href="#block"/><use x="37.735849056604" y="339.62264150943" xlink:href="#block"/><use x="47.169811320755" y="339.62264150943" xlink:href="#block"/><use x="56.603773584906" y="339.62264150943" xlink:href="#block"/><use x="66.037735849057" y="339.62264150943" xlink:href="#block"/><use x="75.471698113208" y="339.62264150943" xlink:href="#block"/><use x="84.905660377359" y="339.62264150943" xlink:href="#block"/><use x="113.20754716981" y="339.62264150943" xlink:href="#block"/><use x="122.64150943396" y="339.62264150943" xlink:href="#block"/><use x="150.94339622642" y="339.62264150943" xlink:href="#block"/><use x="169.81132075472" y="339.62264150943" xlink:href="#block"/><use x="235.84905660377" y="339.62264150943" xlink:href="#block"/><use x="264.15094339623" y="339.62264150943" xlink:href="#block"/><use x="320.75471698113" y="339.62264150943" xlink:href="#block"/><use x="330.18867924528" y="339.62264150943" xlink:href="#block"/><use x="339.62264150943" y="339.62264150943" xlink:href="#block"/><use x="358.49056603774" y="339.62264150943" xlink:href="#block"/><use x="377.35849056604" y="339.62264150943" xlink:href="#block"/><use x="405.66037735849" y="339.62264150943" xlink:href="#block"/><use x="424.52830188679" y="339.62264150943" xlink:href="#block"/><use x="452.83018867925" y="339.62264150943" xlink:href="#block"/><use x="462.2641509434" y="339.62264150943" xlink:href="#block"/><use x="481.1320754717" y="339.62264150943" xlink:href="#block"/><use x="0" y="349.05660377358" xlink:href="#block"/><use x="9.4339622641509" y="349.05660377358" xlink:href="#block"/><use x="28.301886792453" y="349.05660377358" xlink:href="#block"/><use x="37.735849056604" y="349.05660377358" xlink:href="#block"/><use x="47.169811320755" y="349.05660377358" xlink:href="#block"/><use x="75.471698113208" y="349.05660377358" xlink:href="#block"/><use x="84.905660377359" y="349.05660377358" xlink:href="#block"/><use x="103.77358490566" y="349.05660377358" xlink:href="#block"/><use x="113.20754716981" y="349.05660377358" xlink:href="#block"/><use x="122.64150943396" y="349.05660377358" xlink:href="#block"/><use x="150.94339622642" y="349.05660377358" xlink:href="#block"/><use x="169.81132075472" y="349.05660377358" xlink:href="#block"/><use x="179.24528301887" y="349.05660377358" xlink:href="#block"/><use x="188.67924528302" y="349.05660377358" xlink:href="#block"/><use x="198.11320754717" y="349.05660377358" xlink:href="#block"/><use x="245.28301886792" y="349.05660377358" xlink:href="#block"/><use x="254.71698113208" y="349.05660377358" xlink:href="#block"/><use x="283.01886792453" y="349.05660377358" xlink:href="#block"/><use x="311.32075471698" y="349.05660377358" xlink:href="#block"/><use x="358.49056603774" y="349.05660377358" xlink:href="#block"/><use x="367.92452830189" y="349.05660377358" xlink:href="#block"/><use x="377.35849056604" y="349.05660377358" xlink:href="#block"/><use x="386.79245283019" y="349.05660377358" xlink:href="#block"/><use x="396.22641509434" y="349.05660377358" xlink:href="#block"/><use x="405.66037735849" y="349.05660377358" xlink:href="#block"/><use x="415.09433962264" y="349.05660377358" xlink:href="#block"/><use x="424.52830188679" y="349.05660377358" xlink:href="#block"/><use x="433.96226415094" y="349.05660377358" xlink:href="#block"/><use x="490.56603773585" y="349.05660377358" xlink:href="#block"/><use x="0" y="358.49056603774" xlink:href="#block"/><use x="18.867924528302" y="358.49056603774" xlink:href="#block"/><use x="28.301886792453" y="358.49056603774" xlink:href="#block"/><use x="37.735849056604" y="358.49056603774" xlink:href="#block"/><use x="47.169811320755" y="358.49056603774" xlink:href="#block"/><use x="56.603773584906" y="358.49056603774" xlink:href="#block"/><use x="66.037735849057" y="358.49056603774" xlink:href="#block"/><use x="84.905660377359" y="358.49056603774" xlink:href="#block"/><use x="113.20754716981" y="358.49056603774" xlink:href="#block"/><use x="132.07547169811" y="358.49056603774" xlink:href="#block"/><use x="141.50943396226" y="358.49056603774" xlink:href="#block"/><use x="150.94339622642" y="358.49056603774" xlink:href="#block"/><use x="169.81132075472" y="358.49056603774" xlink:href="#block"/><use x="179.24528301887" y="358.49056603774" xlink:href="#block"/><use x="207.54716981132" y="358.49056603774" xlink:href="#block"/><use x="226.41509433962" y="358.49056603774" xlink:href="#block"/><use x="235.84905660377" y="358.49056603774" xlink:href="#block"/><use x="245.28301886792" y="358.49056603774" xlink:href="#block"/><use x="264.15094339623" y="358.49056603774" xlink:href="#block"/><use x="273.58490566038" y="358.49056603774" xlink:href="#block"/><use x="311.32075471698" y="358.49056603774" xlink:href="#block"/><use x="330.18867924528" y="358.49056603774" xlink:href="#block"/><use x="339.62264150943" y="358.49056603774" xlink:href="#block"/><use x="349.05660377358" y="358.49056603774" xlink:href="#block"/><use x="386.79245283019" y="358.49056603774" xlink:href="#block"/><use x="415.09433962264" y="358.49056603774" xlink:href="#block"/><use x="433.96226415094" y="358.49056603774" xlink:href="#block"/><use x="471.69811320755" y="358.49056603774" xlink:href="#block"/><use x="481.1320754717" y="358.49056603774" xlink:href="#block"/><use x="0" y="367.92452830189" xlink:href="#block"/><use x="9.4339622641509" y="367.92452830189" xlink:href="#block"/><use x="18.867924528302" y="367.92452830189" xlink:href="#block"/><use x="28.301886792453" y="367.92452830189" xlink:href="#block"/><use x="47.169811320755" y="367.92452830189" xlink:href="#block"/><use x="75.471698113208" y="367.92452830189" xlink:href="#block"/><use x="94.339622641509" y="367.92452830189" xlink:href="#block"/><use x="113.20754716981" y="367.92452830189" xlink:href="#block"/><use x="122.64150943396" y="367.92452830189" xlink:href="#block"/><use x="150.94339622642" y="367.92452830189" xlink:href="#block"/><use x="160.37735849057" y="367.92452830189" xlink:href="#block"/><use x="226.41509433962" y="367.92452830189" xlink:href="#block"/><use x="245.28301886792" y="367.92452830189" xlink:href="#block"/><use x="254.71698113208" y="367.92452830189" xlink:href="#block"/><use x="273.58490566038" y="367.92452830189" xlink:href="#block"/><use x="283.01886792453" y="367.92452830189" xlink:href="#block"/><use x="301.88679245283" y="367.92452830189" xlink:href="#block"/><use x="320.75471698113" y="367.92452830189" xlink:href="#block"/><use x="339.62264150943" y="367.92452830189" xlink:href="#block"/><use x="367.92452830189" y="367.92452830189" xlink:href="#block"/><use x="377.35849056604" y="367.92452830189" xlink:href="#block"/><use x="386.79245283019" y="367.92452830189" xlink:href="#block"/><use x="396.22641509434" y="367.92452830189" xlink:href="#block"/><use x="405.66037735849" y="367.92452830189" xlink:href="#block"/><use x="415.09433962264" y="367.92452830189" xlink:href="#block"/><use x="424.52830188679" y="367.92452830189" xlink:href="#block"/><use x="433.96226415094" y="367.92452830189" xlink:href="#block"/><use x="443.39622641509" y="367.92452830189" xlink:href="#block"/><use x="452.83018867925" y="367.92452830189" xlink:href="#block"/><use x="462.2641509434" y="367.92452830189" xlink:href="#block"/><use x="471.69811320755" y="367.92452830189" xlink:href="#block"/><use x="490.56603773585" y="367.92452830189" xlink:href="#block"/><use x="0" y="377.35849056604" xlink:href="#block"/><use x="18.867924528302" y="377.35849056604" xlink:href="#block"/><use x="28.301886792453" y="377.35849056604" xlink:href="#block"/><use x="37.735849056604" y="377.35849056604" xlink:href="#block"/><use x="56.603773584906" y="377.35849056604" xlink:href="#block"/><use x="66.037735849057" y="377.35849056604" xlink:href="#block"/><use x="75.471698113208" y="377.35849056604" xlink:href="#block"/><use x="94.339622641509" y="377.35849056604" xlink:href="#block"/><use x="113.20754716981" y="377.35849056604" xlink:href="#block"/><use x="122.64150943396" y="377.35849056604" xlink:href="#block"/><use x="141.50943396226" y="377.35849056604" xlink:href="#block"/><use x="169.81132075472" y="377.35849056604" xlink:href="#block"/><use x="179.24528301887" y="377.35849056604" xlink:href="#block"/><use x="188.67924528302" y="377.35849056604" xlink:href="#block"/><use x="198.11320754717" y="377.35849056604" xlink:href="#block"/><use x="226.41509433962" y="377.35849056604" xlink:href="#block"/><use x="273.58490566038" y="377.35849056604" xlink:href="#block"/><use x="292.45283018868" y="377.35849056604" xlink:href="#block"/><use x="301.88679245283" y="377.35849056604" xlink:href="#block"/><use x="339.62264150943" y="377.35849056604" xlink:href="#block"/><use x="358.49056603774" y="377.35849056604" xlink:href="#block"/><use x="367.92452830189" y="377.35849056604" xlink:href="#block"/><use x="377.35849056604" y="377.35849056604" xlink:href="#block"/><use x="405.66037735849" y="377.35849056604" xlink:href="#block"/><use x="452.83018867925" y="377.35849056604" xlink:href="#block"/><use x="462.2641509434" y="377.35849056604" xlink:href="#block"/><use x="471.69811320755" y="377.35849056604" xlink:href="#block"/><use x="0" y="386.79245283019" xlink:href="#block"/><use x="18.867924528302" y="386.79245283019" xlink:href="#block"/><use x="37.735849056604" y="386.79245283019" xlink:href="#block"/><use x="84.905660377359" y="386.79245283019" xlink:href="#block"/><use x="94.339622641509" y="386.79245283019" xlink:href="#block"/><use x="103.77358490566" y="386.79245283019" xlink:href="#block"/><use x="122.64150943396" y="386.79245283019" xlink:href="#block"/><use x="132.07547169811" y="386.79245283019" xlink:href="#block"/><use x="141.50943396226" y="386.79245283019" xlink:href="#block"/><use x="150.94339622642" y="386.79245283019" xlink:href="#block"/><use x="179.24528301887" y="386.79245283019" xlink:href="#block"/><use x="207.54716981132" y="386.79245283019" xlink:href="#block"/><use x="216.98113207547" y="386.79245283019" xlink:href="#block"/><use x="235.84905660377" y="386.79245283019" xlink:href="#block"/><use x="245.28301886792" y="386.79245283019" xlink:href="#block"/><use x="264.15094339623" y="386.79245283019" xlink:href="#block"/><use x="283.01886792453" y="386.79245283019" xlink:href="#block"/><use x="301.88679245283" y="386.79245283019" xlink:href="#block"/><use x="311.32075471698" y="386.79245283019" xlink:href="#block"/><use x="320.75471698113" y="386.79245283019" xlink:href="#block"/><use x="330.18867924528" y="386.79245283019" xlink:href="#block"/><use x="349.05660377358" y="386.79245283019" xlink:href="#block"/><use x="358.49056603774" y="386.79245283019" xlink:href="#block"/><use x="377.35849056604" y="386.79245283019" xlink:href="#block"/><use x="386.79245283019" y="386.79245283019" xlink:href="#block"/><use x="396.22641509434" y="386.79245283019" xlink:href="#block"/><use x="405.66037735849" y="386.79245283019" xlink:href="#block"/><use x="415.09433962264" y="386.79245283019" xlink:href="#block"/><use x="424.52830188679" y="386.79245283019" xlink:href="#block"/><use x="433.96226415094" y="386.79245283019" xlink:href="#block"/><use x="443.39622641509" y="386.79245283019" xlink:href="#block"/><use x="462.2641509434" y="386.79245283019" xlink:href="#block"/><use x="490.56603773585" y="386.79245283019" xlink:href="#block"/><use x="0" y="396.22641509434" xlink:href="#block"/><use x="9.4339622641509" y="396.22641509434" xlink:href="#block"/><use x="28.301886792453" y="396.22641509434" xlink:href="#block"/><use x="37.735849056604" y="396.22641509434" xlink:href="#block"/><use x="47.169811320755" y="396.22641509434" xlink:href="#block"/><use x="56.603773584906" y="396.22641509434" xlink:href="#block"/><use x="66.037735849057" y="396.22641509434" xlink:href="#block"/><use x="75.471698113208" y="396.22641509434" xlink:href="#block"/><use x="84.905660377359" y="396.22641509434" xlink:href="#block"/><use x="103.77358490566" y="396.22641509434" xlink:href="#block"/><use x="132.07547169811" y="396.22641509434" xlink:href="#block"/><use x="141.50943396226" y="396.22641509434" xlink:href="#block"/><use x="169.81132075472" y="396.22641509434" xlink:href="#block"/><use x="188.67924528302" y="396.22641509434" xlink:href="#block"/><use x="198.11320754717" y="396.22641509434" xlink:href="#block"/><use x="216.98113207547" y="396.22641509434" xlink:href="#block"/><use x="226.41509433962" y="396.22641509434" xlink:href="#block"/><use x="235.84905660377" y="396.22641509434" xlink:href="#block"/><use x="264.15094339623" y="396.22641509434" xlink:href="#block"/><use x="292.45283018868" y="396.22641509434" xlink:href="#block"/><use x="301.88679245283" y="396.22641509434" xlink:href="#block"/><use x="311.32075471698" y="396.22641509434" xlink:href="#block"/><use x="330.18867924528" y="396.22641509434" xlink:href="#block"/><use x="339.62264150943" y="396.22641509434" xlink:href="#block"/><use x="358.49056603774" y="396.22641509434" xlink:href="#block"/><use x="367.92452830189" y="396.22641509434" xlink:href="#block"/><use x="386.79245283019" y="396.22641509434" xlink:href="#block"/><use x="396.22641509434" y="396.22641509434" xlink:href="#block"/><use x="424.52830188679" y="396.22641509434" xlink:href="#block"/><use x="433.96226415094" y="396.22641509434" xlink:href="#block"/><use x="471.69811320755" y="396.22641509434" xlink:href="#block"/><use x="490.56603773585" y="396.22641509434" xlink:href="#block"/><use x="9.4339622641509" y="405.66037735849" xlink:href="#block"/><use x="18.867924528302" y="405.66037735849" xlink:href="#block"/><use x="66.037735849057" y="405.66037735849" xlink:href="#block"/><use x="84.905660377359" y="405.66037735849" xlink:href="#block"/><use x="94.339622641509" y="405.66037735849" xlink:href="#block"/><use x="103.77358490566" y="405.66037735849" xlink:href="#block"/><use x="122.64150943396" y="405.66037735849" xlink:href="#block"/><use x="132.07547169811" y="405.66037735849" xlink:href="#block"/><use x="141.50943396226" y="405.66037735849" xlink:href="#block"/><use x="150.94339622642" y="405.66037735849" xlink:href="#block"/><use x="179.24528301887" y="405.66037735849" xlink:href="#block"/><use x="198.11320754717" y="405.66037735849" xlink:href="#block"/><use x="216.98113207547" y="405.66037735849" xlink:href="#block"/><use x="226.41509433962" y="405.66037735849" xlink:href="#block"/><use x="273.58490566038" y="405.66037735849" xlink:href="#block"/><use x="283.01886792453" y="405.66037735849" xlink:href="#block"/><use x="330.18867924528" y="405.66037735849" xlink:href="#block"/><use x="349.05660377358" y="405.66037735849" xlink:href="#block"/><use x="386.79245283019" y="405.66037735849" xlink:href="#block"/><use x="396.22641509434" y="405.66037735849" xlink:href="#block"/><use x="415.09433962264" y="405.66037735849" xlink:href="#block"/><use x="443.39622641509" y="405.66037735849" xlink:href="#block"/><use x="462.2641509434" y="405.66037735849" xlink:href="#block"/><use x="481.1320754717" y="405.66037735849" xlink:href="#block"/><use x="490.56603773585" y="405.66037735849" xlink:href="#block"/><use x="28.301886792453" y="415.09433962264" xlink:href="#block"/><use x="56.603773584906" y="415.09433962264" xlink:href="#block"/><use x="66.037735849057" y="415.09433962264" xlink:href="#block"/><use x="84.905660377359" y="415.09433962264" xlink:href="#block"/><use x="94.339622641509" y="415.09433962264" xlink:href="#block"/><use x="103.77358490566" y="415.09433962264" xlink:href="#block"/><use x="113.20754716981" y="415.09433962264" xlink:href="#block"/><use x="122.64150943396" y="415.09433962264" xlink:href="#block"/><use x="150.94339622642" y="415.09433962264" xlink:href="#block"/><use x="160.37735849057" y="415.09433962264" xlink:href="#block"/><use x="169.81132075472" y="415.09433962264" xlink:href="#block"/><use x="188.67924528302" y="415.09433962264" xlink:href="#block"/><use x="207.54716981132" y="415.09433962264" xlink:href="#block"/><use x="226.41509433962" y="415.09433962264" xlink:href="#block"/><use x="235.84905660377" y="415.09433962264" xlink:href="#block"/><use x="245.28301886792" y="415.09433962264" xlink:href="#block"/><use x="254.71698113208" y="415.09433962264" xlink:href="#block"/><use x="264.15094339623" y="415.09433962264" xlink:href="#block"/><use x="283.01886792453" y="415.09433962264" xlink:href="#block"/><use x="292.45283018868" y="415.09433962264" xlink:href="#block"/><use x="339.62264150943" y="415.09433962264" xlink:href="#block"/><use x="358.49056603774" y="415.09433962264" xlink:href="#block"/><use x="367.92452830189" y="415.09433962264" xlink:href="#block"/><use x="415.09433962264" y="415.09433962264" xlink:href="#block"/><use x="424.52830188679" y="415.09433962264" xlink:href="#block"/><use x="433.96226415094" y="415.09433962264" xlink:href="#block"/><use x="443.39622641509" y="415.09433962264" xlink:href="#block"/><use x="452.83018867925" y="415.09433962264" xlink:href="#block"/><use x="75.471698113208" y="424.52830188679" xlink:href="#block"/><use x="84.905660377359" y="424.52830188679" xlink:href="#block"/><use x="94.339622641509" y="424.52830188679" xlink:href="#block"/><use x="103.77358490566" y="424.52830188679" xlink:href="#block"/><use x="132.07547169811" y="424.52830188679" xlink:href="#block"/><use x="141.50943396226" y="424.52830188679" xlink:href="#block"/><use x="207.54716981132" y="424.52830188679" xlink:href="#block"/><use x="226.41509433962" y="424.52830188679" xlink:href="#block"/><use x="264.15094339623" y="424.52830188679" xlink:href="#block"/><use x="292.45283018868" y="424.52830188679" xlink:href="#block"/><use x="301.88679245283" y="424.52830188679" xlink:href="#block"/><use x="320.75471698113" y="424.52830188679" xlink:href="#block"/><use x="358.49056603774" y="424.52830188679" xlink:href="#block"/><use x="386.79245283019" y="424.52830188679" xlink:href="#block"/><use x="405.66037735849" y="424.52830188679" xlink:href="#block"/><use x="415.09433962264" y="424.52830188679" xlink:href="#block"/><use x="452.83018867925" y="424.52830188679" xlink:href="#block"/><use x="462.2641509434" y="424.52830188679" xlink:href="#block"/><use x="481.1320754717" y="424.52830188679" xlink:href="#block"/><use x="0" y="433.96226415094" xlink:href="#block"/><use x="9.4339622641509" y="433.96226415094" xlink:href="#block"/><use x="18.867924528302" y="433.96226415094" xlink:href="#block"/><use x="28.301886792453" y="433.96226415094" xlink:href="#block"/><use x="37.735849056604" y="433.96226415094" xlink:href="#block"/><use x="47.169811320755" y="433.96226415094" xlink:href="#block"/><use x="56.603773584906" y="433.96226415094" xlink:href="#block"/><use x="122.64150943396" y="433.96226415094" xlink:href="#block"/><use x="141.50943396226" y="433.96226415094" xlink:href="#block"/><use x="150.94339622642" y="433.96226415094" xlink:href="#block"/><use x="198.11320754717" y="433.96226415094" xlink:href="#block"/><use x="216.98113207547" y="433.96226415094" xlink:href="#block"/><use x="226.41509433962" y="433.96226415094" xlink:href="#block"/><use x="245.28301886792" y="433.96226415094" xlink:href="#block"/><use x="264.15094339623" y="433.96226415094" xlink:href="#block"/><use x="283.01886792453" y="433.96226415094" xlink:href="#block"/><use x="311.32075471698" y="433.96226415094" xlink:href="#block"/><use x="320.75471698113" y="433.96226415094" xlink:href="#block"/><use x="330.18867924528" y="433.96226415094" xlink:href="#block"/><use x="339.62264150943" y="433.96226415094" xlink:href="#block"/><use x="349.05660377358" y="433.96226415094" xlink:href="#block"/><use x="367.92452830189" y="433.96226415094" xlink:href="#block"/><use x="396.22641509434" y="433.96226415094" xlink:href="#block"/><use x="405.66037735849" y="433.96226415094" xlink:href="#block"/><use x="415.09433962264" y="433.96226415094" xlink:href="#block"/><use x="433.96226415094" y="433.96226415094" xlink:href="#block"/><use x="452.83018867925" y="433.96226415094" xlink:href="#block"/><use x="471.69811320755" y="433.96226415094" xlink:href="#block"/><use x="490.56603773585" y="433.96226415094" xlink:href="#block"/><use x="0" y="443.39622641509" xlink:href="#block"/><use x="56.603773584906" y="443.39622641509" xlink:href="#block"/><use x="94.339622641509" y="443.39622641509" xlink:href="#block"/><use x="103.77358490566" y="443.39622641509" xlink:href="#block"/><use x="122.64150943396" y="443.39622641509" xlink:href="#block"/><use x="160.37735849057" y="443.39622641509" xlink:href="#block"/><use x="169.81132075472" y="443.39622641509" xlink:href="#block"/><use x="179.24528301887" y="443.39622641509" xlink:href="#block"/><use x="188.67924528302" y="443.39622641509" xlink:href="#block"/><use x="216.98113207547" y="443.39622641509" xlink:href="#block"/><use x="226.41509433962" y="443.39622641509" xlink:href="#block"/><use x="264.15094339623" y="443.39622641509" xlink:href="#block"/><use x="273.58490566038" y="443.39622641509" xlink:href="#block"/><use x="283.01886792453" y="443.39622641509" xlink:href="#block"/><use x="320.75471698113" y="443.39622641509" xlink:href="#block"/><use x="339.62264150943" y="443.39622641509" xlink:href="#block"/><use x="349.05660377358" y="443.39622641509" xlink:href="#block"/><use x="367.92452830189" y="443.39622641509" xlink:href="#block"/><use x="377.35849056604" y="443.39622641509" xlink:href="#block"/><use x="386.79245283019" y="443.39622641509" xlink:href="#block"/><use x="396.22641509434" y="443.39622641509" xlink:href="#block"/><use x="405.66037735849" y="443.39622641509" xlink:href="#block"/><use x="415.09433962264" y="443.39622641509" xlink:href="#block"/><use x="452.83018867925" y="443.39622641509" xlink:href="#block"/><use x="462.2641509434" y="443.39622641509" xlink:href="#block"/><use x="471.69811320755" y="443.39622641509" xlink:href="#block"/><use x="481.1320754717" y="443.39622641509" xlink:href="#block"/><use x="490.56603773585" y="443.39622641509" xlink:href="#block"/><use x="0" y="452.83018867925" xlink:href="#block"/><use x="18.867924528302" y="452.83018867925" xlink:href="#block"/><use x="28.301886792453" y="452.83018867925" xlink:href="#block"/><use x="37.735849056604" y="452.83018867925" xlink:href="#block"/><use x="56.603773584906" y="452.83018867925" xlink:href="#block"/><use x="75.471698113208" y="452.83018867925" xlink:href="#block"/><use x="103.77358490566" y="452.83018867925" xlink:href="#block"/><use x="113.20754716981" y="452.83018867925" xlink:href="#block"/><use x="122.64150943396" y="452.83018867925" xlink:href="#block"/><use x="132.07547169811" y="452.83018867925" xlink:href="#block"/><use x="141.50943396226" y="452.83018867925" xlink:href="#block"/><use x="160.37735849057" y="452.83018867925" xlink:href="#block"/><use x="179.24528301887" y="452.83018867925" xlink:href="#block"/><use x="188.67924528302" y="452.83018867925" xlink:href="#block"/><use x="226.41509433962" y="452.83018867925" xlink:href="#block"/><use x="235.84905660377" y="452.83018867925" xlink:href="#block"/><use x="245.28301886792" y="452.83018867925" xlink:href="#block"/><use x="254.71698113208" y="452.83018867925" xlink:href="#block"/><use x="264.15094339623" y="452.83018867925" xlink:href="#block"/><use x="273.58490566038" y="452.83018867925" xlink:href="#block"/><use x="292.45283018868" y="452.83018867925" xlink:href="#block"/><use x="311.32075471698" y="452.83018867925" xlink:href="#block"/><use x="339.62264150943" y="452.83018867925" xlink:href="#block"/><use x="358.49056603774" y="452.83018867925" xlink:href="#block"/><use x="377.35849056604" y="452.83018867925" xlink:href="#block"/><use x="415.09433962264" y="452.83018867925" xlink:href="#block"/><use x="424.52830188679" y="452.83018867925" xlink:href="#block"/><use x="433.96226415094" y="452.83018867925" xlink:href="#block"/><use x="443.39622641509" y="452.83018867925" xlink:href="#block"/><use x="452.83018867925" y="452.83018867925" xlink:href="#block"/><use x="462.2641509434" y="452.83018867925" xlink:href="#block"/><use x="471.69811320755" y="452.83018867925" xlink:href="#block"/><use x="0" y="462.2641509434" xlink:href="#block"/><use x="18.867924528302" y="462.2641509434" xlink:href="#block"/><use x="28.301886792453" y="462.2641509434" xlink:href="#block"/><use x="37.735849056604" y="462.2641509434" xlink:href="#block"/><use x="56.603773584906" y="462.2641509434" xlink:href="#block"/><use x="75.471698113208" y="462.2641509434" xlink:href="#block"/><use x="94.339622641509" y="462.2641509434" xlink:href="#block"/><use x="103.77358490566" y="462.2641509434" xlink:href="#block"/><use x="113.20754716981" y="462.2641509434" xlink:href="#block"/><use x="141.50943396226" y="462.2641509434" xlink:href="#block"/><use x="150.94339622642" y="462.2641509434" xlink:href="#block"/><use x="179.24528301887" y="462.2641509434" xlink:href="#block"/><use x="188.67924528302" y="462.2641509434" xlink:href="#block"/><use x="254.71698113208" y="462.2641509434" xlink:href="#block"/><use x="264.15094339623" y="462.2641509434" xlink:href="#block"/><use x="273.58490566038" y="462.2641509434" xlink:href="#block"/><use x="301.88679245283" y="462.2641509434" xlink:href="#block"/><use x="311.32075471698" y="462.2641509434" xlink:href="#block"/><use x="320.75471698113" y="462.2641509434" xlink:href="#block"/><use x="330.18867924528" y="462.2641509434" xlink:href="#block"/><use x="349.05660377358" y="462.2641509434" xlink:href="#block"/><use x="367.92452830189" y="462.2641509434" xlink:href="#block"/><use x="377.35849056604" y="462.2641509434" xlink:href="#block"/><use x="386.79245283019" y="462.2641509434" xlink:href="#block"/><use x="396.22641509434" y="462.2641509434" xlink:href="#block"/><use x="452.83018867925" y="462.2641509434" xlink:href="#block"/><use x="462.2641509434" y="462.2641509434" xlink:href="#block"/><use x="0" y="471.69811320755" xlink:href="#block"/><use x="18.867924528302" y="471.69811320755" xlink:href="#block"/><use x="28.301886792453" y="471.69811320755" xlink:href="#block"/><use x="37.735849056604" y="471.69811320755" xlink:href="#block"/><use x="56.603773584906" y="471.69811320755" xlink:href="#block"/><use x="75.471698113208" y="471.69811320755" xlink:href="#block"/><use x="94.339622641509" y="471.69811320755" xlink:href="#block"/><use x="103.77358490566" y="471.69811320755" xlink:href="#block"/><use x="122.64150943396" y="471.69811320755" xlink:href="#block"/><use x="150.94339622642" y="471.69811320755" xlink:href="#block"/><use x="169.81132075472" y="471.69811320755" xlink:href="#block"/><use x="179.24528301887" y="471.69811320755" xlink:href="#block"/><use x="216.98113207547" y="471.69811320755" xlink:href="#block"/><use x="254.71698113208" y="471.69811320755" xlink:href="#block"/><use x="264.15094339623" y="471.69811320755" xlink:href="#block"/><use x="273.58490566038" y="471.69811320755" xlink:href="#block"/><use x="292.45283018868" y="471.69811320755" xlink:href="#block"/><use x="301.88679245283" y="471.69811320755" xlink:href="#block"/><use x="320.75471698113" y="471.69811320755" xlink:href="#block"/><use x="330.18867924528" y="471.69811320755" xlink:href="#block"/><use x="339.62264150943" y="471.69811320755" xlink:href="#block"/><use x="349.05660377358" y="471.69811320755" xlink:href="#block"/><use x="358.49056603774" y="471.69811320755" xlink:href="#block"/><use x="386.79245283019" y="471.69811320755" xlink:href="#block"/><use x="396.22641509434" y="471.69811320755" xlink:href="#block"/><use x="405.66037735849" y="471.69811320755" xlink:href="#block"/><use x="415.09433962264" y="471.69811320755" xlink:href="#block"/><use x="424.52830188679" y="471.69811320755" xlink:href="#block"/><use x="433.96226415094" y="471.69811320755" xlink:href="#block"/><use x="452.83018867925" y="471.69811320755" xlink:href="#block"/><use x="471.69811320755" y="471.69811320755" xlink:href="#block"/><use x="481.1320754717" y="471.69811320755" xlink:href="#block"/><use x="0" y="481.1320754717" xlink:href="#block"/><use x="56.603773584906" y="481.1320754717" xlink:href="#block"/><use x="84.905660377359" y="481.1320754717" xlink:href="#block"/><use x="94.339622641509" y="481.1320754717" xlink:href="#block"/><use x="103.77358490566" y="481.1320754717" xlink:href="#block"/><use x="122.64150943396" y="481.1320754717" xlink:href="#block"/><use x="132.07547169811" y="481.1320754717" xlink:href="#block"/><use x="141.50943396226" y="481.1320754717" xlink:href="#block"/><use x="169.81132075472" y="481.1320754717" xlink:href="#block"/><use x="179.24528301887" y="481.1320754717" xlink:href="#block"/><use x="188.67924528302" y="481.1320754717" xlink:href="#block"/><use x="226.41509433962" y="481.1320754717" xlink:href="#block"/><use x="235.84905660377" y="481.1320754717" xlink:href="#block"/><use x="245.28301886792" y="481.1320754717" xlink:href="#block"/><use x="264.15094339623" y="481.1320754717" xlink:href="#block"/><use x="283.01886792453" y="481.1320754717" xlink:href="#block"/><use x="292.45283018868" y="481.1320754717" xlink:href="#block"/><use x="301.88679245283" y="481.1320754717" xlink:href="#block"/><use x="311.32075471698" y="481.1320754717" xlink:href="#block"/><use x="320.75471698113" y="481.1320754717" xlink:href="#block"/><use x="339.62264150943" y="481.1320754717" xlink:href="#block"/><use x="349.05660377358" y="481.1320754717" xlink:href="#block"/><use x="358.49056603774" y="481.1320754717" xlink:href="#block"/><use x="377.35849056604" y="481.1320754717" xlink:href="#block"/><use x="386.79245283019" y="481.1320754717" xlink:href="#block"/><use x="396.22641509434" y="481.1320754717" xlink:href="#block"/><use x="415.09433962264" y="481.1320754717" xlink:href="#block"/><use x="424.52830188679" y="481.1320754717" xlink:href="#block"/><use x="433.96226415094" y="481.1320754717" xlink:href="#block"/><use x="443.39622641509" y="481.1320754717" xlink:href="#block"/><use x="452.83018867925" y="481.1320754717" xlink:href="#block"/><use x="462.2641509434" y="481.1320754717" xlink:href="#block"/><use x="471.69811320755" y="481.1320754717" xlink:href="#block"/><use x="490.56603773585" y="481.1320754717" xlink:href="#block"/><use x="0" y="490.56603773585" xlink:href="#block"/><use x="9.4339622641509" y="490.56603773585" xlink:href="#block"/><use x="18.867924528302" y="490.56603773585" xlink:href="#block"/><use x="28.301886792453" y="490.56603773585" xlink:href="#block"/><use x="37.735849056604" y="490.56603773585" xlink:href="#block"/><use x="47.169811320755" y="490.56603773585" xlink:href="#block"/><use x="56.603773584906" y="490.56603773585" xlink:href="#block"/><use x="94.339622641509" y="490.56603773585" xlink:href="#block"/><use x="103.77358490566" y="490.56603773585" xlink:href="#block"/><use x="113.20754716981" y="490.56603773585" xlink:href="#block"/><use x="132.07547169811" y="490.56603773585" xlink:href="#block"/><use x="169.81132075472" y="490.56603773585" xlink:href="#block"/><use x="179.24528301887" y="490.56603773585" xlink:href="#block"/><use x="207.54716981132" y="490.56603773585" xlink:href="#block"/><use x="226.41509433962" y="490.56603773585" xlink:href="#block"/><use x="235.84905660377" y="490.56603773585" xlink:href="#block"/><use x="254.71698113208" y="490.56603773585" xlink:href="#block"/><use x="264.15094339623" y="490.56603773585" xlink:href="#block"/><use x="273.58490566038" y="490.56603773585" xlink:href="#block"/><use x="283.01886792453" y="490.56603773585" xlink:href="#block"/><use x="301.88679245283" y="490.56603773585" xlink:href="#block"/><use x="320.75471698113" y="490.56603773585" xlink:href="#block"/><use x="330.18867924528" y="490.56603773585" xlink:href="#block"/><use x="358.49056603774" y="490.56603773585" xlink:href="#block"/><use x="367.92452830189" y="490.56603773585" xlink:href="#block"/><use x="396.22641509434" y="490.56603773585" xlink:href="#block"/><use x="405.66037735849" y="490.56603773585" xlink:href="#block"/><use x="415.09433962264" y="490.56603773585" xlink:href="#block"/><use x="443.39622641509" y="490.56603773585" xlink:href="#block"/><use x="452.83018867925" y="490.56603773585" xlink:href="#block"/><use x="462.2641509434" y="490.56603773585" xlink:href="#block"/><use x="471.69811320755" y="490.56603773585" xlink:href="#block"/></svg>
