<?xml version="1.0"?>
<svg xmlns="http://www.w3.org/2000/svg" xmlns:xlink="http://www.w3.org/1999/xlink" version="1.1" width="500px" height="500px" viewBox="0 0 500 500"><defs><rect id="block" width="10.204081632653" height="10.204081632653" fill="#000000" fill-opacity="1"/></defs><rect x="0" y="0" width="500" height="500" fill="#ffffff" fill-opacity="1"/><use x="0" y="0" xlink:href="#block"/><use x="10.204081632653" y="0" xlink:href="#block"/><use x="20.408163265306" y="0" xlink:href="#block"/><use x="30.612244897959" y="0" xlink:href="#block"/><use x="40.816326530612" y="0" xlink:href="#block"/><use x="51.020408163265" y="0" xlink:href="#block"/><use x="61.224489795918" y="0" xlink:href="#block"/><use x="81.632653061224" y="0" xlink:href="#block"/><use x="91.836734693878" y="0" xlink:href="#block"/><use x="112.24489795918" y="0" xlink:href="#block"/><use x="142.85714285714" y="0" xlink:href="#block"/><use x="204.08163265306" y="0" xlink:href="#block"/><use x="214.28571428571" y="0" xlink:href="#block"/><use x="224.48979591837" y="0" xlink:href="#block"/><use x="255.10204081633" y="0" xlink:href="#block"/><use x="306.12244897959" y="0" xlink:href="#block"/><use x="316.32653061224" y="0" xlink:href="#block"/><use x="326.5306122449" y="0" xlink:href="#block"/><use x="346.9387755102" y="0" xlink:href="#block"/><use x="408.16326530612" y="0" xlink:href="#block"/><use x="428.57142857143" y="0" xlink:href="#block"/><use x="438.77551020408" y="0" xlink:href="#block"/><use x="448.97959183673" y="0" xlink:href="#block"/><use x="459.18367346939" y="0" xlink:href="#block"/><use x="469.38775510204" y="0" xlink:href="#block"/><use x="479.59183673469" y="0" xlink:href="#block"/><use x="489.79591836735" y="0" xlink:href="#block"/><use x="0" y="10.204081632653" xlink:href="#block"/><use x="61.224489795918" y="10.204081632653" xlink:href="#block"/><use x="81.632653061224" y="10.204081632653" xlink:href="#block"/><use x="91.836734693878" y="10.204081632653" xlink:href="#block"/><use x="102.04081632653" y="10.204081632653" xlink:href="#block"/><use x="112.24489795918" y="10.204081632653" xlink:href="#block"/><use x="132.65306122449" y="10.204081632653" xlink:href="#block"/><use x="142.85714285714" y="10.204081632653" xlink:href="#block"/><use x="163.26530612245" y="10.204081632653" xlink:href="#block"/><use x="173.4693877551" y="10.204081632653" xlink:href="#block"/><use x="193.87755102041" y="10.204081632653" xlink:href="#block"/><use x="214.28571428571" y="10.204081632653" xlink:href="#block"/><use x="224.48979591837" y="10.204081632653" xlink:href="#block"/><use x="234.69387755102" y="10.204081632653" xlink:href="#block"/><use x="255.10204081633" y="10.204081632653" xlink:href="#block"/><use x="295.91836734694" y="10.204081632653" xlink:href="#block"/><use x="306.12244897959" y="10.204081632653" xlink:href="#block"/><use x="326.5306122449" y="10.204081632653" xlink:href="#block"/><use x="346.9387755102" y="10.204081632653" xlink:href="#block"/><use x="367.34693877551" y="10.204081632653" xlink:href="#block"/><use x="377.55102040816" y="10.204081632653" xlink:href="#block"/><use x="387.75510204082" y="10.204081632653" xlink:href="#block"/><use x="397.95918367347" y="10.204081632653" xlink:href="#block"/><use x="408.16326530612" y="10.204081632653" xlink:href="#block"/><use x="428.57142857143" y="10.204081632653" xlink:href="#block"/><use x="489.79591836735" y="10.204081632653" xlink:href="#block"/><use x="0" y="20.408163265306" xlink:href="#block"/><use x="20.408163265306" y="20.408163265306" xlink:href="#block"/><use x="30.612244897959" y="20.408163265306" xlink:href="#block"/><use x="40.816326530612" y="20.408163265306" xlink:href="#block"/><use x="61.224489795918" y="20.408163265306" xlink:href="#block"/><use x="81.632653061224" y="20.408163265306" xlink:href="#block"/><use x="91.836734693878" y="20.408163265306" xlink:href="#block"/><use x="102.04081632653" y="20.408163265306" xlink:href="#block"/><use x="112.24489795918" y="20.408163265306" xlink:href="#block"/><use x="132.65306122449" y="20.408163265306" xlink:href="#block"/><use x="142.85714285714" y="20.408163265306" xlink:href="#block"/><use x="163.26530612245" y="20.408163265306" xlink:href="#block"/><use x="173.4693877551" y="20.408163265306" xlink:href="#block"/><use x="183.67346938776" y="20.408163265306" xlink:href="#block"/><use x="204.08163265306" y="20.408163265306" xlink:href="#block"/><use x="214.28571428571" y="20.408163265306" xlink:href="#block"/><use x="224.48979591837" y="20.408163265306" xlink:href="#block"/><use x="234.69387755102" y="20.408163265306" xlink:href="#block"/><use x="255.10204081633" y="20.408163265306" xlink:href="#block"/><use x="265.30612244898" y="20.408163265306" xlink:href="#block"/><use x="275.51020408163" y="20.408163265306" xlink:href="#block"/><use x="295.91836734694" y="20.408163265306" xlink:href="#block"/><use x="306.12244897959" y="20.408163265306" xlink:href="#block"/><use x="316.32653061224" y="20.408163265306" xlink:href="#block"/><use x="326.5306122449" y="20.408163265306" xlink:href="#block"/><use x="336.73469387755" y="20.408163265306" xlink:href="#block"/><use x="357.14285714286" y="20.408163265306" xlink:href="#block"/><use x="367.34693877551" y="20.408163265306" xlink:href="#block"/><use x="397.95918367347" y="20.408163265306" xlink:href="#block"/><use x="408.16326530612" y="20.408163265306" xlink:href="#block"/><use x="428.57142857143" y="20.408163265306" xlink:href="#block"/><use x="448.97959183673" y="20.408163265306" xlink:href="#block"/><use x="459.18367346939" y="20.408163265306" xlink:href="#block"/><use x="469.38775510204" y="20.408163265306" xlink:href="#block"/><use x="489.79591836735" y="20.408163265306" xlink:href="#block"/><use x="0" y="30.612244897959" xlink:href="#block"/><use x="20.408163265306" y="30.612244897959" xlink:href="#block"/><use x="30.612244897959" y="30.612244897959" xlink:href="#block"/><use x="40.816326530612" y="30.612244897959" xlink:href="#block"/><use x="61.224489795918" y="30.612244897959" xlink:href="#block"/><use x="91.836734693878" y="30.612244897959" xlink:href="#block"/><use x="102.04081632653" y="30.612244897959" xlink:href="#block"/><use x="112.24489795918" y="30.612244897959" xlink:href="#block"/><use x="122.44897959184" y="30.612244897959" xlink:href="#block"/><use x="132.65306122449" y="30.612244897959" xlink:href="#block"/><use x="193.87755102041" y="30.612244897959" xlink:href="#block"/><use x="204.08163265306" y="30.612244897959" xlink:href="#block"/><use x="224.48979591837" y="30.612244897959" xlink:href="#block"/><use x="234.69387755102" y="30.612244897959" xlink:href="#block"/><use x="255.10204081633" y="30.612244897959" xlink:href="#block"/><use x="265.30612244898" y="30.612244897959" xlink:href="#block"/><use x="285.71428571429" y="30.612244897959" xlink:href="#block"/><use x="336.73469387755" y="30.612244897959" xlink:href="#block"/><use x="346.9387755102" y="30.612244897959" xlink:href="#block"/><use x="367.34693877551" y="30.612244897959" xlink:href="#block"/><use x="397.95918367347" y="30.612244897959" xlink:href="#block"/><use x="428.57142857143" y="30.612244897959" xlink:href="#block"/><use x="448.97959183673" y="30.612244897959" xlink:href="#block"/><use x="459.18367346939" y="30.612244897959" xlink:href="#block"/><use x="469.38775510204" y="30.612244897959" xlink:href="#block"/><use x="489.79591836735" y="30.612244897959" xlink:href="#block"/><use x="0" y="40.816326530612" xlink:href="#block"/><use x="20.408163265306" y="40.816326530612" xlink:href="#block"/><use x="30.612244897959" y="40.816326530612" xlink:href="#block"/><use x="40.816326530612" y="40.816326530612" xlink:href="#block"/><use x="61.224489795918" y="40.816326530612" xlink:href="#block"/><use x="91.836734693878" y="40.816326530612" xlink:href="#block"/><use x="112.24489795918" y="40.816326530612" xlink:href="#block"/><use x="122.44897959184" y="40.816326530612" xlink:href="#block"/><use x="142.85714285714" y="40.816326530612" xlink:href="#block"/><use x="153.0612244898" y="40.816326530612" xlink:href="#block"/><use x="193.87755102041" y="40.816326530612" xlink:href="#block"/><use x="214.28571428571" y="40.816326530612" xlink:href="#block"/><use x="224.48979591837" y="40.816326530612" xlink:href="#block"/><use x="234.69387755102" y="40.816326530612" xlink:href="#block"/><use x="244.89795918367" y="40.816326530612" xlink:href="#block"/><use x="255.10204081633" y="40.816326530612" xlink:href="#block"/><use x="265.30612244898" y="40.816326530612" xlink:href="#block"/><use x="275.51020408163" y="40.816326530612" xlink:href="#block"/><use x="285.71428571429" y="40.816326530612" xlink:href="#block"/><use x="295.91836734694" y="40.816326530612" xlink:href="#block"/><use x="346.9387755102" y="40.816326530612" xlink:href="#block"/><use x="428.57142857143" y="40.816326530612" xlink:href="#block"/><use x="448.97959183673" y="40.816326530612" xlink:href="#block"/><use x="459.18367346939" y="40.816326530612" xlink:href="#block"/><use x="469.38775510204" y="40.816326530612" xlink:href="#block"/><use x="489.79591836735" y="40.816326530612" xlink:href="#block"/><use x="0" y="51.020408163265" xlink:href="#block"/><use x="61.224489795918" y="51.020408163265" xlink:href="#block"/><use x="81.632653061224" y="51.020408163265" xlink:href="#block"/><use x="91.836734693878" y="51.020408163265" xlink:href="#block"/><use x="102.04081632653" y="51.020408163265" xlink:href="#block"/><use x="132.65306122449" y="51.020408163265" xlink:href="#block"/><use x="142.85714285714" y="51.020408163265" xlink:href="#block"/><use x="163.26530612245" y="51.020408163265" xlink:href="#block"/><use x="183.67346938776" y="51.020408163265" xlink:href="#block"/><use x="193.87755102041" y="51.020408163265" xlink:href="#block"/><use x="204.08163265306" y="51.020408163265" xlink:href="#block"/><use x="224.48979591837" y="51.020408163265" xlink:href="#block"/><use x="265.30612244898" y="51.020408163265" xlink:href="#block"/><use x="275.51020408163" y="51.020408163265" xlink:href="#block"/><use x="306.12244897959" y="51.020408163265" xlink:href="#block"/><use x="357.14285714286" y="51.020408163265" xlink:href="#block"/><use x="367.34693877551" y="51.020408163265" xlink:href="#block"/><use x="377.55102040816" y="51.020408163265" xlink:href="#block"/><use x="387.75510204082" y="51.020408163265" xlink:href="#block"/><use x="428.57142857143" y="51.020408163265" xlink:href="#block"/><use x="489.79591836735" y="51.020408163265" xlink:href="#block"/><use x="0" y="61.224489795918" xlink:href="#block"/><use x="10.204081632653" y="61.224489795918" xlink:href="#block"/><use x="20.408163265306" y="61.224489795918" xlink:href="#block"/><use x="30.612244897959" y="61.224489795918" xlink:href="#block"/><use x="40.816326530612" y="61.224489795918" xlink:href="#block"/><use x="51.020408163265" y="61.224489795918" xlink:href="#block"/><use x="61.224489795918" y="61.224489795918" xlink:href="#block"/><use x="81.632653061224" y="61.224489795918" xlink:href="#block"/><use x="102.04081632653" y="61.224489795918" xlink:href="#block"/><use x="122.44897959184" y="61.224489795918" xlink:href="#block"/><use x="142.85714285714" y="61.224489795918" xlink:href="#block"/><use x="163.26530612245" y="61.224489795918" xlink:href="#block"/><use x="183.67346938776" y="61.224489795918" xlink:href="#block"/><use x="204.08163265306" y="61.224489795918" xlink:href="#block"/><use x="224.48979591837" y="61.224489795918" xlink:href="#block"/><use x="244.89795918367" y="61.224489795918" xlink:href="#block"/><use x="265.30612244898" y="61.224489795918" xlink:href="#block"/><use x="285.71428571429" y="61.224489795918" xlink:href="#block"/><use x="306.12244897959" y="61.224489795918" xlink:href="#block"/><use x="326.5306122449" y="61.224489795918" xlink:href="#block"/><use x="346.9387755102" y="61.224489795918" xlink:href="#block"/><use x="367.34693877551" y="61.224489795918" xlink:href="#block"/><use x="387.75510204082" y="61.224489795918" xlink:href="#block"/><use x="408.16326530612" y="61.224489795918" xlink:href="#block"/><use x="428.57142857143" y="61.224489795918" xlink:href="#block"/><use x="438.77551020408" y="61.224489795918" xlink:href="#block"/><use x="448.97959183673" y="61.224489795918" xlink:href="#block"/><use x="459.18367346939" y="61.224489795918" xlink:href="#block"/><use x="469.38775510204" y="61.224489795918" xlink:href="#block"/><use x="479.59183673469" y="61.224489795918" xlink:href="#block"/><use x="489.79591836735" y="61.224489795918" xlink:href="#block"/><use x="81.632653061224" y="71.428571428571" xlink:href="#block"/><use x="91.836734693878" y="71.428571428571" xlink:href="#block"/><use x="102.04081632653" y="71.428571428571" xlink:href="#block"/><use x="112.24489795918" y="71.428571428571" xlink:href="#block"/><use x="122.44897959184" y="71.428571428571" xlink:href="#block"/><use x="132.65306122449" y="71.428571428571" xlink:href="#block"/><use x="153.0612244898" y="71.428571428571" xlink:href="#block"/><use x="163.26530612245" y="71.428571428571" xlink:href="#block"/><use x="193.87755102041" y="71.428571428571" xlink:href="#block"/><use x="224.48979591837" y="71.428571428571" xlink:href="#block"/><use x="265.30612244898" y="71.428571428571" xlink:href="#block"/><use x="275.51020408163" y="71.428571428571" xlink:href="#block"/><use x="285.71428571429" y="71.428571428571" xlink:href="#block"/><use x="306.12244897959" y="71.428571428571" xlink:href="#block"/><use x="316.32653061224" y="71.428571428571" xlink:href="#block"/><use x="336.73469387755" y="71.428571428571" xlink:href="#block"/><use x="346.9387755102" y="71.428571428571" xlink:href="#block"/><use x="367.34693877551" y="71.428571428571" xlink:href="#block"/><use x="387.75510204082" y="71.428571428571" xlink:href="#block"/><use x="408.16326530612" y="71.428571428571" xlink:href="#block"/><use x="20.408163265306" y="81.632653061224" xlink:href="#block"/><use x="30.612244897959" y="81.632653061224" xlink:href="#block"/><use x="40.816326530612" y="81.632653061224" xlink:href="#block"/><use x="61.224489795918" y="81.632653061224" xlink:href="#block"/><use x="81.632653061224" y="81.632653061224" xlink:href="#block"/><use x="112.24489795918" y="81.632653061224" xlink:href="#block"/><use x="163.26530612245" y="81.632653061224" xlink:href="#block"/><use x="173.4693877551" y="81.632653061224" xlink:href="#block"/><use x="193.87755102041" y="81.632653061224" xlink:href="#block"/><use x="214.28571428571" y="81.632653061224" xlink:href="#block"/><use x="224.48979591837" y="81.632653061224" xlink:href="#block"/><use x="234.69387755102" y="81.632653061224" xlink:href="#block"/><use x="244.89795918367" y="81.632653061224" xlink:href="#block"/><use x="255.10204081633" y="81.632653061224" xlink:href="#block"/><use x="265.30612244898" y="81.632653061224" xlink:href="#block"/><use x="275.51020408163" y="81.632653061224" xlink:href="#block"/><use x="285.71428571429" y="81.632653061224" xlink:href="#block"/><use x="306.12244897959" y="81.632653061224" xlink:href="#block"/><use x="316.32653061224" y="81.632653061224" xlink:href="#block"/><use x="346.9387755102" y="81.632653061224" xlink:href="#block"/><use x="367.34693877551" y="81.632653061224" xlink:href="#block"/><use x="397.95918367347" y="81.632653061224" xlink:href="#block"/><use x="408.16326530612" y="81.632653061224" xlink:href="#block"/><use x="418.36734693878" y="81.632653061224" xlink:href="#block"/><use x="428.57142857143" y="81.632653061224" xlink:href="#block"/><use x="438.77551020408" y="81.632653061224" xlink:href="#block"/><use x="469.38775510204" y="81.632653061224" xlink:href="#block"/><use x="479.59183673469" y="81.632653061224" xlink:href="#block"/><use x="489.79591836735" y="81.632653061224" xlink:href="#block"/><use x="81.632653061224" y="91.836734693878" xlink:href="#block"/><use x="112.24489795918" y="91.836734693878" xlink:href="#block"/><use x="163.26530612245" y="91.836734693878" xlink:href="#block"/><use x="173.4693877551" y="91.836734693878" xlink:href="#block"/><use x="183.67346938776" y="91.836734693878" xlink:href="#block"/><use x="193.87755102041" y="91.836734693878" xlink:href="#block"/><use x="204.08163265306" y="91.836734693878" xlink:href="#block"/><use x="224.48979591837" y="91.836734693878" xlink:href="#block"/><use x="234.69387755102" y="91.836734693878" xlink:href="#block"/><use x="244.89795918367" y="91.836734693878" xlink:href="#block"/><use x="316.32653061224" y="91.836734693878" xlink:href="#block"/><use x="326.5306122449" y="91.836734693878" xlink:href="#block"/><use x="367.34693877551" y="91.836734693878" xlink:href="#block"/><use x="377.55102040816" y="91.836734693878" xlink:href="#block"/><use x="387.75510204082" y="91.836734693878" xlink:href="#block"/><use x="408.16326530612" y="91.836734693878" xlink:href="#block"/><use x="428.57142857143" y="91.836734693878" xlink:href="#block"/><use x="438.77551020408" y="91.836734693878" xlink:href="#block"/><use x="459.18367346939" y="91.836734693878" xlink:href="#block"/><use x="469.38775510204" y="91.836734693878" xlink:href="#block"/><use x="489.79591836735" y="91.836734693878" xlink:href="#block"/><use x="20.408163265306" y="102.04081632653" xlink:href="#block"/><use x="30.612244897959" y="102.04081632653" xlink:href="#block"/><use x="51.020408163265" y="102.04081632653" xlink:href="#block"/><use x="61.224489795918" y="102.04081632653" xlink:href="#block"/><use x="91.836734693878" y="102.04081632653" xlink:href="#block"/><use x="122.44897959184" y="102.04081632653" xlink:href="#block"/><use x="142.85714285714" y="102.04081632653" xlink:href="#block"/><use x="173.4693877551" y="102.04081632653" xlink:href="#block"/><use x="183.67346938776" y="102.04081632653" xlink:href="#block"/><use x="204.08163265306" y="102.04081632653" xlink:href="#block"/><use x="214.28571428571" y="102.04081632653" xlink:href="#block"/><use x="224.48979591837" y="102.04081632653" xlink:href="#block"/><use x="234.69387755102" y="102.04081632653" xlink:href="#block"/><use x="244.89795918367" y="102.04081632653" xlink:href="#block"/><use x="265.30612244898" y="102.04081632653" xlink:href="#block"/><use x="295.91836734694" y="102.04081632653" xlink:href="#block"/><use x="306.12244897959" y="102.04081632653" xlink:href="#block"/><use x="326.5306122449" y="102.04081632653" xlink:href="#block"/><use x="367.34693877551" y="102.04081632653" xlink:href="#block"/><use x="377.55102040816" y="102.04081632653" xlink:href="#block"/><use x="397.95918367347" y="102.04081632653" xlink:href="#block"/><use x="408.16326530612" y="102.04081632653" xlink:href="#block"/><use x="418.36734693878" y="102.04081632653" xlink:href="#block"/><use x="428.57142857143" y="102.04081632653" xlink:href="#block"/><use x="438.77551020408" y="102.04081632653" xlink:href="#block"/><use x="448.97959183673" y="102.04081632653" xlink:href="#block"/><use x="469.38775510204" y="102.04081632653" xlink:href="#block"/><use x="489.79591836735" y="102.04081632653" xlink:href="#block"/><use x="0" y="112.24489795918" xlink:href="#block"/><use x="10.204081632653" y="112.24489795918" xlink:href="#block"/><use x="20.408163265306" y="112.24489795918" xlink:href="#block"/><use x="40.816326530612" y="112.24489795918" xlink:href="#block"/><use x="51.020408163265" y="112.24489795918" xlink:href="#block"/><use x="71.428571428571" y="112.24489795918" xlink:href="#block"/><use x="81.632653061224" y="112.24489795918" xlink:href="#block"/><use x="102.04081632653" y="112.24489795918" xlink:href="#block"/><use x="112.24489795918" y="112.24489795918" xlink:href="#block"/><use x="132.65306122449" y="112.24489795918" xlink:href="#block"/><use x="142.85714285714" y="112.24489795918" xlink:href="#block"/><use x="163.26530612245" y="112.24489795918" xlink:href="#block"/><use x="183.67346938776" y="112.24489795918" xlink:href="#block"/><use x="214.28571428571" y="112.24489795918" xlink:href="#block"/><use x="265.30612244898" y="112.24489795918" xlink:href="#block"/><use x="285.71428571429" y="112.24489795918" xlink:href="#block"/><use x="306.12244897959" y="112.24489795918" xlink:href="#block"/><use x="336.73469387755" y="112.24489795918" xlink:href="#block"/><use x="346.9387755102" y="112.24489795918" xlink:href="#block"/><use x="357.14285714286" y="112.24489795918" xlink:href="#block"/><use x="367.34693877551" y="112.24489795918" xlink:href="#block"/><use x="387.75510204082" y="112.24489795918" xlink:href="#block"/><use x="397.95918367347" y="112.24489795918" xlink:href="#block"/><use x="418.36734693878" y="112.24489795918" xlink:href="#block"/><use x="438.77551020408" y="112.24489795918" xlink:href="#block"/><use x="448.97959183673" y="112.24489795918" xlink:href="#block"/><use x="459.18367346939" y="112.24489795918" xlink:href="#block"/><use x="479.59183673469" y="112.24489795918" xlink:href="#block"/><use x="51.020408163265" y="122.44897959184" xlink:href="#block"/><use x="61.224489795918" y="122.44897959184" xlink:href="#block"/><use x="71.428571428571" y="122.44897959184" xlink:href="#block"/><use x="112.24489795918" y="122.44897959184" xlink:href="#block"/><use x="142.85714285714" y="122.44897959184" xlink:href="#block"/><use x="204.08163265306" y="122.44897959184" xlink:href="#block"/><use x="214.28571428571" y="122.44897959184" xlink:href="#block"/><use x="255.10204081633" y="122.44897959184" xlink:href="#block"/><use x="285.71428571429" y="122.44897959184" xlink:href="#block"/><use x="295.91836734694" y="122.44897959184" xlink:href="#block"/><use x="306.12244897959" y="122.44897959184" xlink:href="#block"/><use x="336.73469387755" y="122.44897959184" xlink:href="#block"/><use x="367.34693877551" y="122.44897959184" xlink:href="#block"/><use x="377.55102040816" y="122.44897959184" xlink:href="#block"/><use x="387.75510204082" y="122.44897959184" xlink:href="#block"/><use x="408.16326530612" y="122.44897959184" xlink:href="#block"/><use x="418.36734693878" y="122.44897959184" xlink:href="#block"/><use x="428.57142857143" y="122.44897959184" xlink:href="#block"/><use x="438.77551020408" y="122.44897959184" xlink:href="#block"/><use x="448.97959183673" y="122.44897959184" xlink:href="#block"/><use x="469.38775510204" y="122.44897959184" xlink:href="#block"/><use x="0" y="132.65306122449" xlink:href="#block"/><use x="20.408163265306" y="132.65306122449" xlink:href="#block"/><use x="112.24489795918" y="132.65306122449" xlink:href="#block"/><use x="122.44897959184" y="132.65306122449" xlink:href="#block"/><use x="132.65306122449" y="132.65306122449" xlink:href="#block"/><use x="142.85714285714" y="132.65306122449" xlink:href="#block"/><use x="153.0612244898" y="132.65306122449" xlink:href="#block"/><use x="163.26530612245" y="132.65306122449" xlink:href="#block"/><use x="193.87755102041" y="132.65306122449" xlink:href="#block"/><use x="204.08163265306" y="132.65306122449" xlink:href="#block"/><use x="214.28571428571" y="132.65306122449" xlink:href="#block"/><use x="224.48979591837" y="132.65306122449" xlink:href="#block"/><use x="234.69387755102" y="132.65306122449" xlink:href="#block"/><use x="244.89795918367" y="132.65306122449" xlink:href="#block"/><use x="255.10204081633" y="132.65306122449" xlink:href="#block"/><use x="265.30612244898" y="132.65306122449" xlink:href="#block"/><use x="275.51020408163" y="132.65306122449" xlink:href="#block"/><use x="295.91836734694" y="132.65306122449" xlink:href="#block"/><use x="326.5306122449" y="132.65306122449" xlink:href="#block"/><use x="336.73469387755" y="132.65306122449" xlink:href="#block"/><use x="357.14285714286" y="132.65306122449" xlink:href="#block"/><use x="367.34693877551" y="132.65306122449" xlink:href="#block"/><use x="397.95918367347" y="132.65306122449" xlink:href="#block"/><use x="428.57142857143" y="132.65306122449" xlink:href="#block"/><use x="448.97959183673" y="132.65306122449" xlink:href="#block"/><use x="459.18367346939" y="132.65306122449" xlink:href="#block"/><use x="479.59183673469" y="132.65306122449" xlink:href="#block"/><use x="489.79591836735" y="132.65306122449" xlink:href="#block"/><use x="0" y="142.85714285714" xlink:href="#block"/><use x="10.204081632653" y="142.85714285714" xlink:href="#block"/><use x="61.224489795918" y="142.85714285714" xlink:href="#block"/><use x="81.632653061224" y="142.85714285714" xlink:href="#block"/><use x="112.24489795918" y="142.85714285714" xlink:href="#block"/><use x="122.44897959184" y="142.85714285714" xlink:href="#block"/><use x="132.65306122449" y="142.85714285714" xlink:href="#block"/><use x="142.85714285714" y="142.85714285714" xlink:href="#block"/><use x="193.87755102041" y="142.85714285714" xlink:href="#block"/><use x="214.28571428571" y="142.85714285714" xlink:href="#block"/><use x="244.89795918367" y="142.85714285714" xlink:href="#block"/><use x="255.10204081633" y="142.85714285714" xlink:href="#block"/><use x="265.30612244898" y="142.85714285714" xlink:href="#block"/><use x="275.51020408163" y="142.85714285714" xlink:href="#block"/><use x="295.91836734694" y="142.85714285714" xlink:href="#block"/><use x="306.12244897959" y="142.85714285714" xlink:href="#block"/><use x="336.73469387755" y="142.85714285714" xlink:href="#block"/><use x="346.9387755102" y="142.85714285714" xlink:href="#block"/><use x="357.14285714286" y="142.85714285714" xlink:href="#block"/><use x="377.55102040816" y="142.85714285714" xlink:href="#block"/><use x="408.16326530612" y="142.85714285714" xlink:href="#block"/><use x="418.36734693878" y="142.85714285714" xlink:href="#block"/><use x="428.57142857143" y="142.85714285714" xlink:href="#block"/><use x="469.38775510204" y="142.85714285714" xlink:href="#block"/><use x="489.79591836735" y="142.85714285714" xlink:href="#block"/><use x="10.204081632653" y="153.0612244898" xlink:href="#block"/><use x="20.408163265306" y="153.0612244898" xlink:href="#block"/><use x="71.428571428571" y="153.0612244898" xlink:href="#block"/><use x="81.632653061224" y="153.0612244898" xlink:href="#block"/><use x="102.04081632653" y="153.0612244898" xlink:href="#block"/><use x="112.24489795918" y="153.0612244898" xlink:href="#block"/><use x="122.44897959184" y="153.0612244898" xlink:href="#block"/><use x="153.0612244898" y="153.0612244898" xlink:href="#block"/><use x="173.4693877551" y="153.0612244898" xlink:href="#block"/><use x="183.67346938776" y="153.0612244898" xlink:href="#block"/><use x="193.87755102041" y="153.0612244898" xlink:href="#block"/><use x="204.08163265306" y="153.0612244898" xlink:href="#block"/><use x="224.48979591837" y="153.0612244898" xlink:href="#block"/><use x="244.89795918367" y="153.0612244898" xlink:href="#block"/><use x="255.10204081633" y="153.0612244898" xlink:href="#block"/><use x="295.91836734694" y="153.0612244898" xlink:href="#block"/><use x="306.12244897959" y="153.0612244898" xlink:href="#block"/><use x="346.9387755102" y="153.0612244898" xlink:href="#block"/><use x="367.34693877551" y="153.0612244898" xlink:href="#block"/><use x="428.57142857143" y="153.0612244898" xlink:href="#block"/><use x="0" y="163.26530612245" xlink:href="#block"/><use x="20.408163265306" y="163.26530612245" xlink:href="#block"/><use x="40.816326530612" y="163.26530612245" xlink:href="#block"/><use x="61.224489795918" y="163.26530612245" xlink:href="#block"/><use x="173.4693877551" y="163.26530612245" xlink:href="#block"/><use x="214.28571428571" y="163.26530612245" xlink:href="#block"/><use x="224.48979591837" y="163.26530612245" xlink:href="#block"/><use x="244.89795918367" y="163.26530612245" xlink:href="#block"/><use x="285.71428571429" y="163.26530612245" xlink:href="#block"/><use x="295.91836734694" y="163.26530612245" xlink:href="#block"/><use x="316.32653061224" y="163.26530612245" xlink:href="#block"/><use x="326.5306122449" y="163.26530612245" xlink:href="#block"/><use x="336.73469387755" y="163.26530612245" xlink:href="#block"/><use x="346.9387755102" y="163.26530612245" xlink:href="#block"/><use x="367.34693877551" y="163.26530612245" xlink:href="#block"/><use x="377.55102040816" y="163.26530612245" xlink:href="#block"/><use x="387.75510204082" y="163.26530612245" xlink:href="#block"/><use x="408.16326530612" y="163.26530612245" xlink:href="#block"/><use x="418.36734693878" y="163.26530612245" xlink:href="#block"/><use x="459.18367346939" y="163.26530612245" xlink:href="#block"/><use x="479.59183673469" y="163.26530612245" xlink:href="#block"/><use x="489.79591836735" y="163.26530612245" xlink:href="#block"/><use x="0" y="173.4693877551" xlink:href="#block"/><use x="30.612244897959" y="173.4693877551" xlink:href="#block"/><use x="40.816326530612" y="173.4693877551" xlink:href="#block"/><use x="51.020408163265" y="173.4693877551" xlink:href="#block"/><use x="132.65306122449" y="173.4693877551" xlink:href="#block"/><use x="183.67346938776" y="173.4693877551" xlink:href="#block"/><use x="193.87755102041" y="173.4693877551" xlink:href="#block"/><use x="204.08163265306" y="173.4693877551" xlink:href="#block"/><use x="234.69387755102" y="173.4693877551" xlink:href="#block"/><use x="255.10204081633" y="173.4693877551" xlink:href="#block"/><use x="285.71428571429" y="173.4693877551" xlink:href="#block"/><use x="295.91836734694" y="173.4693877551" xlink:href="#block"/><use x="306.12244897959" y="173.4693877551" xlink:href="#block"/><use x="346.9387755102" y="173.4693877551" xlink:href="#block"/><use x="357.14285714286" y="173.4693877551" xlink:href="#block"/><use x="367.34693877551" y="173.4693877551" xlink:href="#block"/><use x="397.95918367347" y="173.4693877551" xlink:href="#block"/><use x="438.77551020408" y="173.4693877551" xlink:href="#block"/><use x="448.97959183673" y="173.4693877551" xlink:href="#block"/><use x="10.204081632653" y="183.67346938776" xlink:href="#block"/><use x="40.816326530612" y="183.67346938776" xlink:href="#block"/><use x="51.020408163265" y="183.67346938776" xlink:href="#block"/><use x="61.224489795918" y="183.67346938776" xlink:href="#block"/><use x="71.428571428571" y="183.67346938776" xlink:href="#block"/><use x="81.632653061224" y="183.67346938776" xlink:href="#block"/><use x="91.836734693878" y="183.67346938776" xlink:href="#block"/><use x="112.24489795918" y="183.67346938776" xlink:href="#block"/><use x="122.44897959184" y="183.67346938776" xlink:href="#block"/><use x="132.65306122449" y="183.67346938776" xlink:href="#block"/><use x="142.85714285714" y="183.67346938776" xlink:href="#block"/><use x="153.0612244898" y="183.67346938776" xlink:href="#block"/><use x="163.26530612245" y="183.67346938776" xlink:href="#block"/><use x="183.67346938776" y="183.67346938776" xlink:href="#block"/><use x="214.28571428571" y="183.67346938776" xlink:href="#block"/><use x="224.48979591837" y="183.67346938776" xlink:href="#block"/><use x="234.69387755102" y="183.67346938776" xlink:href="#block"/><use x="275.51020408163" y="183.67346938776" xlink:href="#block"/><use x="295.91836734694" y="183.67346938776" xlink:href="#block"/><use x="336.73469387755" y="183.67346938776" xlink:href="#block"/><use x="357.14285714286" y="183.67346938776" xlink:href="#block"/><use x="377.55102040816" y="183.67346938776" xlink:href="#block"/><use x="387.75510204082" y="183.67346938776" xlink:href="#block"/><use x="408.16326530612" y="183.67346938776" xlink:href="#block"/><use x="428.57142857143" y="183.67346938776" xlink:href="#block"/><use x="438.77551020408" y="183.67346938776" xlink:href="#block"/><use x="459.18367346939" y="183.67346938776" xlink:href="#block"/><use x="479.59183673469" y="183.67346938776" xlink:href="#block"/><use x="20.408163265306" y="193.87755102041" xlink:href="#block"/><use x="51.020408163265" y="193.87755102041" xlink:href="#block"/><use x="71.428571428571" y="193.87755102041" xlink:href="#block"/><use x="91.836734693878" y="193.87755102041" xlink:href="#block"/><use x="102.04081632653" y="193.87755102041" xlink:href="#block"/><use x="122.44897959184" y="193.87755102041" xlink:href="#block"/><use x="173.4693877551" y="193.87755102041" xlink:href="#block"/><use x="183.67346938776" y="193.87755102041" xlink:href="#block"/><use x="244.89795918367" y="193.87755102041" xlink:href="#block"/><use x="255.10204081633" y="193.87755102041" xlink:href="#block"/><use x="275.51020408163" y="193.87755102041" xlink:href="#block"/><use x="295.91836734694" y="193.87755102041" xlink:href="#block"/><use x="306.12244897959" y="193.87755102041" xlink:href="#block"/><use x="326.5306122449" y="193.87755102041" xlink:href="#block"/><use x="397.95918367347" y="193.87755102041" xlink:href="#block"/><use x="418.36734693878" y="193.87755102041" xlink:href="#block"/><use x="428.57142857143" y="193.87755102041" xlink:href="#block"/><use x="469.38775510204" y="193.87755102041" xlink:href="#block"/><use x="0" y="204.08163265306" xlink:href="#block"/><use x="30.612244897959" y="204.08163265306" xlink:href="#block"/><use x="40.816326530612" y="204.08163265306" xlink:href="#block"/><use x="51.020408163265" y="204.08163265306" xlink:href="#block"/><use x="61.224489795918" y="204.08163265306" xlink:href="#block"/><use x="71.428571428571" y="204.08163265306" xlink:href="#block"/><use x="81.632653061224" y="204.08163265306" xlink:href="#block"/><use x="91.836734693878" y="204.08163265306" xlink:href="#block"/><use x="132.65306122449" y="204.08163265306" xlink:href="#block"/><use x="142.85714285714" y="204.08163265306" xlink:href="#block"/><use x="153.0612244898" y="204.08163265306" xlink:href="#block"/><use x="163.26530612245" y="204.08163265306" xlink:href="#block"/><use x="183.67346938776" y="204.08163265306" xlink:href="#block"/><use x="204.08163265306" y="204.08163265306" xlink:href="#block"/><use x="244.89795918367" y="204.08163265306" xlink:href="#block"/><use x="285.71428571429" y="204.08163265306" xlink:href="#block"/><use x="306.12244897959" y="204.08163265306" xlink:href="#block"/><use x="346.9387755102" y="204.08163265306" xlink:href="#block"/><use x="377.55102040816" y="204.08163265306" xlink:href="#block"/><use x="387.75510204082" y="204.08163265306" xlink:href="#block"/><use x="397.95918367347" y="204.08163265306" xlink:href="#block"/><use x="418.36734693878" y="204.08163265306" xlink:href="#block"/><use x="438.77551020408" y="204.08163265306" xlink:href="#block"/><use x="459.18367346939" y="204.08163265306" xlink:href="#block"/><use x="469.38775510204" y="204.08163265306" xlink:href="#block"/><use x="489.79591836735" y="204.08163265306" xlink:href="#block"/><use x="10.204081632653" y="214.28571428571" xlink:href="#block"/><use x="20.408163265306" y="214.28571428571" xlink:href="#block"/><use x="71.428571428571" y="214.28571428571" xlink:href="#block"/><use x="91.836734693878" y="214.28571428571" xlink:href="#block"/><use x="112.24489795918" y="214.28571428571" xlink:href="#block"/><use x="132.65306122449" y="214.28571428571" xlink:href="#block"/><use x="153.0612244898" y="214.28571428571" xlink:href="#block"/><use x="163.26530612245" y="214.28571428571" xlink:href="#block"/><use x="183.67346938776" y="214.28571428571" xlink:href="#block"/><use x="204.08163265306" y="214.28571428571" xlink:href="#block"/><use x="244.89795918367" y="214.28571428571" xlink:href="#block"/><use x="255.10204081633" y="214.28571428571" xlink:href="#block"/><use x="326.5306122449" y="214.28571428571" xlink:href="#block"/><use x="336.73469387755" y="214.28571428571" xlink:href="#block"/><use x="357.14285714286" y="214.28571428571" xlink:href="#block"/><use x="387.75510204082" y="214.28571428571" xlink:href="#block"/><use x="397.95918367347" y="214.28571428571" xlink:href="#block"/><use x="418.36734693878" y="214.28571428571" xlink:href="#block"/><use x="428.57142857143" y="214.28571428571" xlink:href="#block"/><use x="438.77551020408" y="214.28571428571" xlink:href="#block"/><use x="448.97959183673" y="214.28571428571" xlink:href="#block"/><use x="489.79591836735" y="214.28571428571" xlink:href="#block"/><use x="0" y="224.48979591837" xlink:href="#block"/><use x="10.204081632653" y="224.48979591837" xlink:href="#block"/><use x="20.408163265306" y="224.48979591837" xlink:href="#block"/><use x="40.816326530612" y="224.48979591837" xlink:href="#block"/><use x="51.020408163265" y="224.48979591837" xlink:href="#block"/><use x="61.224489795918" y="224.48979591837" xlink:href="#block"/><use x="71.428571428571" y="224.48979591837" xlink:href="#block"/><use x="81.632653061224" y="224.48979591837" xlink:href="#block"/><use x="91.836734693878" y="224.48979591837" xlink:href="#block"/><use x="163.26530612245" y="224.48979591837" xlink:href="#block"/><use x="193.87755102041" y="224.48979591837" xlink:href="#block"/><use x="204.08163265306" y="224.48979591837" xlink:href="#block"/><use x="214.28571428571" y="224.48979591837" xlink:href="#block"/><use x="224.48979591837" y="224.48979591837" xlink:href="#block"/><use x="234.69387755102" y="224.48979591837" xlink:href="#block"/><use x="244.89795918367" y="224.48979591837" xlink:href="#block"/><use x="255.10204081633" y="224.48979591837" xlink:href="#block"/><use x="265.30612244898" y="224.48979591837" xlink:href="#block"/><use x="275.51020408163" y="224.48979591837" xlink:href="#block"/><use x="295.91836734694" y="224.48979591837" xlink:href="#block"/><use x="306.12244897959" y="224.48979591837" xlink:href="#block"/><use x="326.5306122449" y="224.48979591837" xlink:href="#block"/><use x="336.73469387755" y="224.48979591837" xlink:href="#block"/><use x="387.75510204082" y="224.48979591837" xlink:href="#block"/><use x="408.16326530612" y="224.48979591837" xlink:href="#block"/><use x="418.36734693878" y="224.48979591837" xlink:href="#block"/><use x="428.57142857143" y="224.48979591837" xlink:href="#block"/><use x="438.77551020408" y="224.48979591837" xlink:href="#block"/><use x="448.97959183673" y="224.48979591837" xlink:href="#block"/><use x="459.18367346939" y="224.48979591837" xlink:href="#block"/><use x="469.38775510204" y="224.48979591837" xlink:href="#block"/><use x="479.59183673469" y="224.48979591837" xlink:href="#block"/><use x="489.79591836735" y="224.48979591837" xlink:href="#block"/><use x="0" y="234.69387755102" xlink:href="#block"/><use x="10.204081632653" y="234.69387755102" xlink:href="#block"/><use x="20.408163265306" y="234.69387755102" xlink:href="#block"/><use x="30.612244897959" y="234.69387755102" xlink:href="#block"/><use x="40.816326530612" y="234.69387755102" xlink:href="#block"/><use x="81.632653061224" y="234.69387755102" xlink:href="#block"/><use x="112.24489795918" y="234.69387755102" xlink:href="#block"/><use x="122.44897959184" y="234.69387755102" xlink:href="#block"/><use x="132.65306122449" y="234.69387755102" xlink:href="#block"/><use x="142.85714285714" y="234.69387755102" xlink:href="#block"/><use x="163.26530612245" y="234.69387755102" xlink:href="#block"/><use x="183.67346938776" y="234.69387755102" xlink:href="#block"/><use x="193.87755102041" y="234.69387755102" xlink:href="#block"/><use x="204.08163265306" y="234.69387755102" xlink:href="#block"/><use x="224.48979591837" y="234.69387755102" xlink:href="#block"/><use x="265.30612244898" y="234.69387755102" xlink:href="#block"/><use x="275.51020408163" y="234.69387755102" xlink:href="#block"/><use x="285.71428571429" y="234.69387755102" xlink:href="#block"/><use x="295.91836734694" y="234.69387755102" xlink:href="#block"/><use x="316.32653061224" y="234.69387755102" xlink:href="#block"/><use x="357.14285714286" y="234.69387755102" xlink:href="#block"/><use x="367.34693877551" y="234.69387755102" xlink:href="#block"/><use x="377.55102040816" y="234.69387755102" xlink:href="#block"/><use x="397.95918367347" y="234.69387755102" xlink:href="#block"/><use x="408.16326530612" y="234.69387755102" xlink:href="#block"/><use x="448.97959183673" y="234.69387755102" xlink:href="#block"/><use x="459.18367346939" y="234.69387755102" xlink:href="#block"/><use x="40.816326530612" y="244.89795918367" xlink:href="#block"/><use x="61.224489795918" y="244.89795918367" xlink:href="#block"/><use x="81.632653061224" y="244.89795918367" xlink:href="#block"/><use x="91.836734693878" y="244.89795918367" xlink:href="#block"/><use x="102.04081632653" y="244.89795918367" xlink:href="#block"/><use x="112.24489795918" y="244.89795918367" xlink:href="#block"/><use x="173.4693877551" y="244.89795918367" xlink:href="#block"/><use x="183.67346938776" y="244.89795918367" xlink:href="#block"/><use x="204.08163265306" y="244.89795918367" xlink:href="#block"/><use x="224.48979591837" y="244.89795918367" xlink:href="#block"/><use x="244.89795918367" y="244.89795918367" xlink:href="#block"/><use x="265.30612244898" y="244.89795918367" xlink:href="#block"/><use x="275.51020408163" y="244.89795918367" xlink:href="#block"/><use x="285.71428571429" y="244.89795918367" xlink:href="#block"/><use x="295.91836734694" y="244.89795918367" xlink:href="#block"/><use x="306.12244897959" y="244.89795918367" xlink:href="#block"/><use x="346.9387755102" y="244.89795918367" xlink:href="#block"/><use x="357.14285714286" y="244.89795918367" xlink:href="#block"/><use x="387.75510204082" y="244.89795918367" xlink:href="#block"/><use x="408.16326530612" y="244.89795918367" xlink:href="#block"/><use x="428.57142857143" y="244.89795918367" xlink:href="#block"/><use x="448.97959183673" y="244.89795918367" xlink:href="#block"/><use x="10.204081632653" y="255.10204081633" xlink:href="#block"/><use x="40.816326530612" y="255.10204081633" xlink:href="#block"/><use x="81.632653061224" y="255.10204081633" xlink:href="#block"/><use x="91.836734693878" y="255.10204081633" xlink:href="#block"/><use x="112.24489795918" y="255.10204081633" xlink:href="#block"/><use x="132.65306122449" y="255.10204081633" xlink:href="#block"/><use x="183.67346938776" y="255.10204081633" xlink:href="#block"/><use x="204.08163265306" y="255.10204081633" xlink:href="#block"/><use x="214.28571428571" y="255.10204081633" xlink:href="#block"/><use x="224.48979591837" y="255.10204081633" xlink:href="#block"/><use x="265.30612244898" y="255.10204081633" xlink:href="#block"/><use x="275.51020408163" y="255.10204081633" xlink:href="#block"/><use x="285.71428571429" y="255.10204081633" xlink:href="#block"/><use x="295.91836734694" y="255.10204081633" xlink:href="#block"/><use x="306.12244897959" y="255.10204081633" xlink:href="#block"/><use x="316.32653061224" y="255.10204081633" xlink:href="#block"/><use x="336.73469387755" y="255.10204081633" xlink:href="#block"/><use x="408.16326530612" y="255.10204081633" xlink:href="#block"/><use x="448.97959183673" y="255.10204081633" xlink:href="#block"/><use x="0" y="265.30612244898" xlink:href="#block"/><use x="10.204081632653" y="265.30612244898" xlink:href="#block"/><use x="30.612244897959" y="265.30612244898" xlink:href="#block"/><use x="40.816326530612" y="265.30612244898" xlink:href="#block"/><use x="51.020408163265" y="265.30612244898" xlink:href="#block"/><use x="61.224489795918" y="265.30612244898" xlink:href="#block"/><use x="71.428571428571" y="265.30612244898" xlink:href="#block"/><use x="81.632653061224" y="265.30612244898" xlink:href="#block"/><use x="102.04081632653" y="265.30612244898" xlink:href="#block"/><use x="142.85714285714" y="265.30612244898" xlink:href="#block"/><use x="163.26530612245" y="265.30612244898" xlink:href="#block"/><use x="183.67346938776" y="265.30612244898" xlink:href="#block"/><use x="214.28571428571" y="265.30612244898" xlink:href="#block"/><use x="224.48979591837" y="265.30612244898" xlink:href="#block"/><use x="234.69387755102" y="265.30612244898" xlink:href="#block"/><use x="244.89795918367" y="265.30612244898" xlink:href="#block"/><use x="255.10204081633" y="265.30612244898" xlink:href="#block"/><use x="265.30612244898" y="265.30612244898" xlink:href="#block"/><use x="295.91836734694" y="265.30612244898" xlink:href="#block"/><use x="336.73469387755" y="265.30612244898" xlink:href="#block"/><use x="346.9387755102" y="265.30612244898" xlink:href="#block"/><use x="357.14285714286" y="265.30612244898" xlink:href="#block"/><use x="367.34693877551" y="265.30612244898" xlink:href="#block"/><use x="377.55102040816" y="265.30612244898" xlink:href="#block"/><use x="387.75510204082" y="265.30612244898" xlink:href="#block"/><use x="408.16326530612" y="265.30612244898" xlink:href="#block"/><use x="418.36734693878" y="265.30612244898" xlink:href="#block"/><use x="428.57142857143" y="265.30612244898" xlink:href="#block"/><use x="438.77551020408" y="265.30612244898" xlink:href="#block"/><use x="448.97959183673" y="265.30612244898" xlink:href="#block"/><use x="469.38775510204" y="265.30612244898" xlink:href="#block"/><use x="479.59183673469" y="265.30612244898" xlink:href="#block"/><use x="489.79591836735" y="265.30612244898" xlink:href="#block"/><use x="0" y="275.51020408163" xlink:href="#block"/><use x="10.204081632653" y="275.51020408163" xlink:href="#block"/><use x="20.408163265306" y="275.51020408163" xlink:href="#block"/><use x="51.020408163265" y="275.51020408163" xlink:href="#block"/><use x="71.428571428571" y="275.51020408163" xlink:href="#block"/><use x="91.836734693878" y="275.51020408163" xlink:href="#block"/><use x="112.24489795918" y="275.51020408163" xlink:href="#block"/><use x="153.0612244898" y="275.51020408163" xlink:href="#block"/><use x="163.26530612245" y="275.51020408163" xlink:href="#block"/><use x="183.67346938776" y="275.51020408163" xlink:href="#block"/><use x="193.87755102041" y="275.51020408163" xlink:href="#block"/><use x="204.08163265306" y="275.51020408163" xlink:href="#block"/><use x="214.28571428571" y="275.51020408163" xlink:href="#block"/><use x="234.69387755102" y="275.51020408163" xlink:href="#block"/><use x="244.89795918367" y="275.51020408163" xlink:href="#block"/><use x="255.10204081633" y="275.51020408163" xlink:href="#block"/><use x="275.51020408163" y="275.51020408163" xlink:href="#block"/><use x="295.91836734694" y="275.51020408163" xlink:href="#block"/><use x="306.12244897959" y="275.51020408163" xlink:href="#block"/><use x="346.9387755102" y="275.51020408163" xlink:href="#block"/><use x="357.14285714286" y="275.51020408163" xlink:href="#block"/><use x="387.75510204082" y="275.51020408163" xlink:href="#block"/><use x="397.95918367347" y="275.51020408163" xlink:href="#block"/><use x="428.57142857143" y="275.51020408163" xlink:href="#block"/><use x="438.77551020408" y="275.51020408163" xlink:href="#block"/><use x="459.18367346939" y="275.51020408163" xlink:href="#block"/><use x="479.59183673469" y="275.51020408163" xlink:href="#block"/><use x="10.204081632653" y="285.71428571429" xlink:href="#block"/><use x="20.408163265306" y="285.71428571429" xlink:href="#block"/><use x="30.612244897959" y="285.71428571429" xlink:href="#block"/><use x="40.816326530612" y="285.71428571429" xlink:href="#block"/><use x="61.224489795918" y="285.71428571429" xlink:href="#block"/><use x="71.428571428571" y="285.71428571429" xlink:href="#block"/><use x="91.836734693878" y="285.71428571429" xlink:href="#block"/><use x="112.24489795918" y="285.71428571429" xlink:href="#block"/><use x="122.44897959184" y="285.71428571429" xlink:href="#block"/><use x="142.85714285714" y="285.71428571429" xlink:href="#block"/><use x="173.4693877551" y="285.71428571429" xlink:href="#block"/><use x="193.87755102041" y="285.71428571429" xlink:href="#block"/><use x="234.69387755102" y="285.71428571429" xlink:href="#block"/><use x="265.30612244898" y="285.71428571429" xlink:href="#block"/><use x="295.91836734694" y="285.71428571429" xlink:href="#block"/><use x="306.12244897959" y="285.71428571429" xlink:href="#block"/><use x="316.32653061224" y="285.71428571429" xlink:href="#block"/><use x="357.14285714286" y="285.71428571429" xlink:href="#block"/><use x="397.95918367347" y="285.71428571429" xlink:href="#block"/><use x="408.16326530612" y="285.71428571429" xlink:href="#block"/><use x="418.36734693878" y="285.71428571429" xlink:href="#block"/><use x="428.57142857143" y="285.71428571429" xlink:href="#block"/><use x="438.77551020408" y="285.71428571429" xlink:href="#block"/><use x="459.18367346939" y="285.71428571429" xlink:href="#block"/><use x="489.79591836735" y="285.71428571429" xlink:href="#block"/><use x="10.204081632653" y="295.91836734694" xlink:href="#block"/><use x="40.816326530612" y="295.91836734694" xlink:href="#block"/><use x="51.020408163265" y="295.91836734694" xlink:href="#block"/><use x="71.428571428571" y="295.91836734694" xlink:href="#block"/><use x="102.04081632653" y="295.91836734694" xlink:href="#block"/><use x="112.24489795918" y="295.91836734694" xlink:href="#block"/><use x="132.65306122449" y="295.91836734694" xlink:href="#block"/><use x="163.26530612245" y="295.91836734694" xlink:href="#block"/><use x="173.4693877551" y="295.91836734694" xlink:href="#block"/><use x="234.69387755102" y="295.91836734694" xlink:href="#block"/><use x="244.89795918367" y="295.91836734694" xlink:href="#block"/><use x="255.10204081633" y="295.91836734694" xlink:href="#block"/><use x="275.51020408163" y="295.91836734694" xlink:href="#block"/><use x="285.71428571429" y="295.91836734694" xlink:href="#block"/><use x="306.12244897959" y="295.91836734694" xlink:href="#block"/><use x="326.5306122449" y="295.91836734694" xlink:href="#block"/><use x="336.73469387755" y="295.91836734694" xlink:href="#block"/><use x="377.55102040816" y="295.91836734694" xlink:href="#block"/><use x="387.75510204082" y="295.91836734694" xlink:href="#block"/><use x="397.95918367347" y="295.91836734694" xlink:href="#block"/><use x="408.16326530612" y="295.91836734694" xlink:href="#block"/><use x="438.77551020408" y="295.91836734694" xlink:href="#block"/><use x="469.38775510204" y="295.91836734694" xlink:href="#block"/><use x="489.79591836735" y="295.91836734694" xlink:href="#block"/><use x="20.408163265306" y="306.12244897959" xlink:href="#block"/><use x="40.816326530612" y="306.12244897959" xlink:href="#block"/><use x="61.224489795918" y="306.12244897959" xlink:href="#block"/><use x="71.428571428571" y="306.12244897959" xlink:href="#block"/><use x="112.24489795918" y="306.12244897959" xlink:href="#block"/><use x="122.44897959184" y="306.12244897959" xlink:href="#block"/><use x="132.65306122449" y="306.12244897959" xlink:href="#block"/><use x="153.0612244898" y="306.12244897959" xlink:href="#block"/><use x="173.4693877551" y="306.12244897959" xlink:href="#block"/><use x="204.08163265306" y="306.12244897959" xlink:href="#block"/><use x="224.48979591837" y="306.12244897959" xlink:href="#block"/><use x="244.89795918367" y="306.12244897959" xlink:href="#block"/><use x="275.51020408163" y="306.12244897959" xlink:href="#block"/><use x="306.12244897959" y="306.12244897959" xlink:href="#block"/><use x="316.32653061224" y="306.12244897959" xlink:href="#block"/><use x="336.73469387755" y="306.12244897959" xlink:href="#block"/><use x="367.34693877551" y="306.12244897959" xlink:href="#block"/><use x="377.55102040816" y="306.12244897959" xlink:href="#block"/><use x="418.36734693878" y="306.12244897959" xlink:href="#block"/><use x="438.77551020408" y="306.12244897959" xlink:href="#block"/><use x="448.97959183673" y="306.12244897959" xlink:href="#block"/><use x="489.79591836735" y="306.12244897959" xlink:href="#block"/><use x="20.408163265306" y="316.32653061224" xlink:href="#block"/><use x="40.816326530612" y="316.32653061224" xlink:href="#block"/><use x="51.020408163265" y="316.32653061224" xlink:href="#block"/><use x="81.632653061224" y="316.32653061224" xlink:href="#block"/><use x="112.24489795918" y="316.32653061224" xlink:href="#block"/><use x="142.85714285714" y="316.32653061224" xlink:href="#block"/><use x="204.08163265306" y="316.32653061224" xlink:href="#block"/><use x="224.48979591837" y="316.32653061224" xlink:href="#block"/><use x="234.69387755102" y="316.32653061224" xlink:href="#block"/><use x="244.89795918367" y="316.32653061224" xlink:href="#block"/><use x="255.10204081633" y="316.32653061224" xlink:href="#block"/><use x="295.91836734694" y="316.32653061224" xlink:href="#block"/><use x="346.9387755102" y="316.32653061224" xlink:href="#block"/><use x="357.14285714286" y="316.32653061224" xlink:href="#block"/><use x="377.55102040816" y="316.32653061224" xlink:href="#block"/><use x="387.75510204082" y="316.32653061224" xlink:href="#block"/><use x="397.95918367347" y="316.32653061224" xlink:href="#block"/><use x="408.16326530612" y="316.32653061224" xlink:href="#block"/><use x="428.57142857143" y="316.32653061224" xlink:href="#block"/><use x="459.18367346939" y="316.32653061224" xlink:href="#block"/><use x="479.59183673469" y="316.32653061224" xlink:href="#block"/><use x="489.79591836735" y="316.32653061224" xlink:href="#block"/><use x="0" y="326.5306122449" xlink:href="#block"/><use x="30.612244897959" y="326.5306122449" xlink:href="#block"/><use x="51.020408163265" y="326.5306122449" xlink:href="#block"/><use x="61.224489795918" y="326.5306122449" xlink:href="#block"/><use x="71.428571428571" y="326.5306122449" xlink:href="#block"/><use x="81.632653061224" y="326.5306122449" xlink:href="#block"/><use x="132.65306122449" y="326.5306122449" xlink:href="#block"/><use x="142.85714285714" y="326.5306122449" xlink:href="#block"/><use x="153.0612244898" y="326.5306122449" xlink:href="#block"/><use x="173.4693877551" y="326.5306122449" xlink:href="#block"/><use x="204.08163265306" y="326.5306122449" xlink:href="#block"/><use x="224.48979591837" y="326.5306122449" xlink:href="#block"/><use x="244.89795918367" y="326.5306122449" xlink:href="#block"/><use x="295.91836734694" y="326.5306122449" xlink:href="#block"/><use x="316.32653061224" y="326.5306122449" xlink:href="#block"/><use x="326.5306122449" y="326.5306122449" xlink:href="#block"/><use x="357.14285714286" y="326.5306122449" xlink:href="#block"/><use x="367.34693877551" y="326.5306122449" xlink:href="#block"/><use x="377.55102040816" y="326.5306122449" xlink:href="#block"/><use x="397.95918367347" y="326.5306122449" xlink:href="#block"/><use x="408.16326530612" y="326.5306122449" xlink:href="#block"/><use x="418.36734693878" y="326.5306122449" xlink:href="#block"/><use x="448.97959183673" y="326.5306122449" xlink:href="#block"/><use x="459.18367346939" y="326.5306122449" xlink:href="#block"/><use x="479.59183673469" y="326.5306122449" xlink:href="#block"/><use x="20.408163265306" y="336.73469387755" xlink:href="#block"/><use x="40.816326530612" y="336.73469387755" xlink:href="#block"/><use x="51.020408163265" y="336.73469387755" xlink:href="#block"/><use x="71.428571428571" y="336.73469387755" xlink:href="#block"/><use x="81.632653061224" y="336.73469387755" xlink:href="#block"/><use x="122.44897959184" y="336.73469387755" xlink:href="#block"/><use x="132.65306122449" y="336.73469387755" xlink:href="#block"/><use x="142.85714285714" y="336.73469387755" xlink:href="#block"/><use x="153.0612244898" y="336.73469387755" xlink:href="#block"/><use x="173.4693877551" y="336.73469387755" xlink:href="#block"/><use x="183.67346938776" y="336.73469387755" xlink:href="#block"/><use x="193.87755102041" y="336.73469387755" xlink:href="#block"/><use x="204.08163265306" y="336.73469387755" xlink:href="#block"/><use x="214.28571428571" y="336.73469387755" xlink:href="#block"/><use x="244.89795918367" y="336.73469387755" xlink:href="#block"/><use x="265.30612244898" y="336.73469387755" xlink:href="#block"/><use x="275.51020408163" y="336.73469387755" xlink:href="#block"/><use x="295.91836734694" y="336.73469387755" xlink:href="#block"/><use x="306.12244897959" y="336.73469387755" xlink:href="#block"/><use x="326.5306122449" y="336.73469387755" xlink:href="#block"/><use x="336.73469387755" y="336.73469387755" xlink:href="#block"/><use x="357.14285714286" y="336.73469387755" xlink:href="#block"/><use x="418.36734693878" y="336.73469387755" xlink:href="#block"/><use x="428.57142857143" y="336.73469387755" xlink:href="#block"/><use x="438.77551020408" y="336.73469387755" xlink:href="#block"/><use x="448.97959183673" y="336.73469387755" xlink:href="#block"/><use x="469.38775510204" y="336.73469387755" xlink:href="#block"/><use x="489.79591836735" y="336.73469387755" xlink:href="#block"/><use x="30.612244897959" y="346.9387755102" xlink:href="#block"/><use x="40.816326530612" y="346.9387755102" xlink:href="#block"/><use x="61.224489795918" y="346.9387755102" xlink:href="#block"/><use x="81.632653061224" y="346.9387755102" xlink:href="#block"/><use x="112.24489795918" y="346.9387755102" xlink:href="#block"/><use x="132.65306122449" y="346.9387755102" xlink:href="#block"/><use x="142.85714285714" y="346.9387755102" xlink:href="#block"/><use x="153.0612244898" y="346.9387755102" xlink:href="#block"/><use x="163.26530612245" y="346.9387755102" xlink:href="#block"/><use x="173.4693877551" y="346.9387755102" xlink:href="#block"/><use x="193.87755102041" y="346.9387755102" xlink:href="#block"/><use x="204.08163265306" y="346.9387755102" xlink:href="#block"/><use x="214.28571428571" y="346.9387755102" xlink:href="#block"/><use x="234.69387755102" y="346.9387755102" xlink:href="#block"/><use x="244.89795918367" y="346.9387755102" xlink:href="#block"/><use x="275.51020408163" y="346.9387755102" xlink:href="#block"/><use x="306.12244897959" y="346.9387755102" xlink:href="#block"/><use x="316.32653061224" y="346.9387755102" xlink:href="#block"/><use x="326.5306122449" y="346.9387755102" xlink:href="#block"/><use x="367.34693877551" y="346.9387755102" xlink:href="#block"/><use x="408.16326530612" y="346.9387755102" xlink:href="#block"/><use x="428.57142857143" y="346.9387755102" xlink:href="#block"/><use x="438.77551020408" y="346.9387755102" xlink:href="#block"/><use x="448.97959183673" y="346.9387755102" xlink:href="#block"/><use x="489.79591836735" y="346.9387755102" xlink:href="#block"/><use x="0" y="357.14285714286" xlink:href="#block"/><use x="10.204081632653" y="357.14285714286" xlink:href="#block"/><use x="20.408163265306" y="357.14285714286" xlink:href="#block"/><use x="30.612244897959" y="357.14285714286" xlink:href="#block"/><use x="102.04081632653" y="357.14285714286" xlink:href="#block"/><use x="142.85714285714" y="357.14285714286" xlink:href="#block"/><use x="163.26530612245" y="357.14285714286" xlink:href="#block"/><use x="193.87755102041" y="357.14285714286" xlink:href="#block"/><use x="224.48979591837" y="357.14285714286" xlink:href="#block"/><use x="244.89795918367" y="357.14285714286" xlink:href="#block"/><use x="255.10204081633" y="357.14285714286" xlink:href="#block"/><use x="265.30612244898" y="357.14285714286" xlink:href="#block"/><use x="285.71428571429" y="357.14285714286" xlink:href="#block"/><use x="295.91836734694" y="357.14285714286" xlink:href="#block"/><use x="316.32653061224" y="357.14285714286" xlink:href="#block"/><use x="336.73469387755" y="357.14285714286" xlink:href="#block"/><use x="357.14285714286" y="357.14285714286" xlink:href="#block"/><use x="377.55102040816" y="357.14285714286" xlink:href="#block"/><use x="387.75510204082" y="357.14285714286" xlink:href="#block"/><use x="397.95918367347" y="357.14285714286" xlink:href="#block"/><use x="408.16326530612" y="357.14285714286" xlink:href="#block"/><use x="428.57142857143" y="357.14285714286" xlink:href="#block"/><use x="448.97959183673" y="357.14285714286" xlink:href="#block"/><use x="459.18367346939" y="357.14285714286" xlink:href="#block"/><use x="479.59183673469" y="357.14285714286" xlink:href="#block"/><use x="489.79591836735" y="357.14285714286" xlink:href="#block"/><use x="30.612244897959" y="367.34693877551" xlink:href="#block"/><use x="61.224489795918" y="367.34693877551" xlink:href="#block"/><use x="71.428571428571" y="367.34693877551" xlink:href="#block"/><use x="81.632653061224" y="367.34693877551" xlink:href="#block"/><use x="102.04081632653" y="367.34693877551" xlink:href="#block"/><use x="112.24489795918" y="367.34693877551" xlink:href="#block"/><use x="122.44897959184" y="367.34693877551" xlink:href="#block"/><use x="132.65306122449" y="367.34693877551" xlink:href="#block"/><use x="163.26530612245" y="367.34693877551" xlink:href="#block"/><use x="173.4693877551" y="367.34693877551" xlink:href="#block"/><use x="183.67346938776" y="367.34693877551" xlink:href="#block"/><use x="193.87755102041" y="367.34693877551" xlink:href="#block"/><use x="204.08163265306" y="367.34693877551" xlink:href="#block"/><use x="224.48979591837" y="367.34693877551" xlink:href="#block"/><use x="234.69387755102" y="367.34693877551" xlink:href="#block"/><use x="275.51020408163" y="367.34693877551" xlink:href="#block"/><use x="285.71428571429" y="367.34693877551" xlink:href="#block"/><use x="306.12244897959" y="367.34693877551" xlink:href="#block"/><use x="326.5306122449" y="367.34693877551" xlink:href="#block"/><use x="336.73469387755" y="367.34693877551" xlink:href="#block"/><use x="346.9387755102" y="367.34693877551" xlink:href="#block"/><use x="377.55102040816" y="367.34693877551" xlink:href="#block"/><use x="397.95918367347" y="367.34693877551" xlink:href="#block"/><use x="438.77551020408" y="367.34693877551" xlink:href="#block"/><use x="448.97959183673" y="367.34693877551" xlink:href="#block"/><use x="459.18367346939" y="367.34693877551" xlink:href="#block"/><use x="479.59183673469" y="367.34693877551" xlink:href="#block"/><use x="40.816326530612" y="377.55102040816" xlink:href="#block"/><use x="71.428571428571" y="377.55102040816" xlink:href="#block"/><use x="91.836734693878" y="377.55102040816" xlink:href="#block"/><use x="112.24489795918" y="377.55102040816" xlink:href="#block"/><use x="122.44897959184" y="377.55102040816" xlink:href="#block"/><use x="142.85714285714" y="377.55102040816" xlink:href="#block"/><use x="163.26530612245" y="377.55102040816" xlink:href="#block"/><use x="173.4693877551" y="377.55102040816" xlink:href="#block"/><use x="193.87755102041" y="377.55102040816" xlink:href="#block"/><use x="234.69387755102" y="377.55102040816" xlink:href="#block"/><use x="275.51020408163" y="377.55102040816" xlink:href="#block"/><use x="295.91836734694" y="377.55102040816" xlink:href="#block"/><use x="326.5306122449" y="377.55102040816" xlink:href="#block"/><use x="346.9387755102" y="377.55102040816" xlink:href="#block"/><use x="367.34693877551" y="377.55102040816" xlink:href="#block"/><use x="408.16326530612" y="377.55102040816" xlink:href="#block"/><use x="428.57142857143" y="377.55102040816" xlink:href="#block"/><use x="448.97959183673" y="377.55102040816" xlink:href="#block"/><use x="459.18367346939" y="377.55102040816" xlink:href="#block"/><use x="479.59183673469" y="377.55102040816" xlink:href="#block"/><use x="10.204081632653" y="387.75510204082" xlink:href="#block"/><use x="51.020408163265" y="387.75510204082" xlink:href="#block"/><use x="61.224489795918" y="387.75510204082" xlink:href="#block"/><use x="81.632653061224" y="387.75510204082" xlink:href="#block"/><use x="91.836734693878" y="387.75510204082" xlink:href="#block"/><use x="102.04081632653" y="387.75510204082" xlink:href="#block"/><use x="112.24489795918" y="387.75510204082" xlink:href="#block"/><use x="122.44897959184" y="387.75510204082" xlink:href="#block"/><use x="142.85714285714" y="387.75510204082" xlink:href="#block"/><use x="153.0612244898" y="387.75510204082" xlink:href="#block"/><use x="183.67346938776" y="387.75510204082" xlink:href="#block"/><use x="193.87755102041" y="387.75510204082" xlink:href="#block"/><use x="214.28571428571" y="387.75510204082" xlink:href="#block"/><use x="224.48979591837" y="387.75510204082" xlink:href="#block"/><use x="234.69387755102" y="387.75510204082" xlink:href="#block"/><use x="244.89795918367" y="387.75510204082" xlink:href="#block"/><use x="255.10204081633" y="387.75510204082" xlink:href="#block"/><use x="285.71428571429" y="387.75510204082" xlink:href="#block"/><use x="295.91836734694" y="387.75510204082" xlink:href="#block"/><use x="306.12244897959" y="387.75510204082" xlink:href="#block"/><use x="316.32653061224" y="387.75510204082" xlink:href="#block"/><use x="346.9387755102" y="387.75510204082" xlink:href="#block"/><use x="377.55102040816" y="387.75510204082" xlink:href="#block"/><use x="397.95918367347" y="387.75510204082" xlink:href="#block"/><use x="418.36734693878" y="387.75510204082" xlink:href="#block"/><use x="438.77551020408" y="387.75510204082" xlink:href="#block"/><use x="448.97959183673" y="387.75510204082" xlink:href="#block"/><use x="469.38775510204" y="387.75510204082" xlink:href="#block"/><use x="479.59183673469" y="387.75510204082" xlink:href="#block"/><use x="10.204081632653" y="397.95918367347" xlink:href="#block"/><use x="20.408163265306" y="397.95918367347" xlink:href="#block"/><use x="30.612244897959" y="397.95918367347" xlink:href="#block"/><use x="71.428571428571" y="397.95918367347" xlink:href="#block"/><use x="81.632653061224" y="397.95918367347" xlink:href="#block"/><use x="102.04081632653" y="397.95918367347" xlink:href="#block"/><use x="112.24489795918" y="397.95918367347" xlink:href="#block"/><use x="132.65306122449" y="397.95918367347" xlink:href="#block"/><use x="183.67346938776" y="397.95918367347" xlink:href="#block"/><use x="224.48979591837" y="397.95918367347" xlink:href="#block"/><use x="234.69387755102" y="397.95918367347" xlink:href="#block"/><use x="255.10204081633" y="397.95918367347" xlink:href="#block"/><use x="275.51020408163" y="397.95918367347" xlink:href="#block"/><use x="336.73469387755" y="397.95918367347" xlink:href="#block"/><use x="357.14285714286" y="397.95918367347" xlink:href="#block"/><use x="367.34693877551" y="397.95918367347" xlink:href="#block"/><use x="397.95918367347" y="397.95918367347" xlink:href="#block"/><use x="428.57142857143" y="397.95918367347" xlink:href="#block"/><use x="448.97959183673" y="397.95918367347" xlink:href="#block"/><use x="0" y="408.16326530612" xlink:href="#block"/><use x="10.204081632653" y="408.16326530612" xlink:href="#block"/><use x="20.408163265306" y="408.16326530612" xlink:href="#block"/><use x="61.224489795918" y="408.16326530612" xlink:href="#block"/><use x="71.428571428571" y="408.16326530612" xlink:href="#block"/><use x="81.632653061224" y="408.16326530612" xlink:href="#block"/><use x="102.04081632653" y="408.16326530612" xlink:href="#block"/><use x="112.24489795918" y="408.16326530612" xlink:href="#block"/><use x="122.44897959184" y="408.16326530612" xlink:href="#block"/><use x="142.85714285714" y="408.16326530612" xlink:href="#block"/><use x="153.0612244898" y="408.16326530612" xlink:href="#block"/><use x="173.4693877551" y="408.16326530612" xlink:href="#block"/><use x="193.87755102041" y="408.16326530612" xlink:href="#block"/><use x="204.08163265306" y="408.16326530612" xlink:href="#block"/><use x="214.28571428571" y="408.16326530612" xlink:href="#block"/><use x="224.48979591837" y="408.16326530612" xlink:href="#block"/><use x="234.69387755102" y="408.16326530612" xlink:href="#block"/><use x="244.89795918367" y="408.16326530612" xlink:href="#block"/><use x="255.10204081633" y="408.16326530612" xlink:href="#block"/><use x="265.30612244898" y="408.16326530612" xlink:href="#block"/><use x="275.51020408163" y="408.16326530612" xlink:href="#block"/><use x="285.71428571429" y="408.16326530612" xlink:href="#block"/><use x="306.12244897959" y="408.16326530612" xlink:href="#block"/><use x="357.14285714286" y="408.16326530612" xlink:href="#block"/><use x="377.55102040816" y="408.16326530612" xlink:href="#block"/><use x="387.75510204082" y="408.16326530612" xlink:href="#block"/><use x="397.95918367347" y="408.16326530612" xlink:href="#block"/><use x="408.16326530612" y="408.16326530612" xlink:href="#block"/><use x="418.36734693878" y="408.16326530612" xlink:href="#block"/><use x="428.57142857143" y="408.16326530612" xlink:href="#block"/><use x="438.77551020408" y="408.16326530612" xlink:href="#block"/><use x="448.97959183673" y="408.16326530612" xlink:href="#block"/><use x="459.18367346939" y="408.16326530612" xlink:href="#block"/><use x="469.38775510204" y="408.16326530612" xlink:href="#block"/><use x="489.79591836735" y="408.16326530612" xlink:href="#block"/><use x="81.632653061224" y="418.36734693878" xlink:href="#block"/><use x="91.836734693878" y="418.36734693878" xlink:href="#block"/><use x="122.44897959184" y="418.36734693878" xlink:href="#block"/><use x="132.65306122449" y="418.36734693878" xlink:href="#block"/><use x="142.85714285714" y="418.36734693878" xlink:href="#block"/><use x="183.67346938776" y="418.36734693878" xlink:href="#block"/><use x="214.28571428571" y="418.36734693878" xlink:href="#block"/><use x="224.48979591837" y="418.36734693878" xlink:href="#block"/><use x="265.30612244898" y="418.36734693878" xlink:href="#block"/><use x="275.51020408163" y="418.36734693878" xlink:href="#block"/><use x="285.71428571429" y="418.36734693878" xlink:href="#block"/><use x="336.73469387755" y="418.36734693878" xlink:href="#block"/><use x="357.14285714286" y="418.36734693878" xlink:href="#block"/><use x="387.75510204082" y="418.36734693878" xlink:href="#block"/><use x="408.16326530612" y="418.36734693878" xlink:href="#block"/><use x="448.97959183673" y="418.36734693878" xlink:href="#block"/><use x="479.59183673469" y="418.36734693878" xlink:href="#block"/><use x="0" y="428.57142857143" xlink:href="#block"/><use x="10.204081632653" y="428.57142857143" xlink:href="#block"/><use x="20.408163265306" y="428.57142857143" xlink:href="#block"/><use x="30.612244897959" y="428.57142857143" xlink:href="#block"/><use x="40.816326530612" y="428.57142857143" xlink:href="#block"/><use x="51.020408163265" y="428.57142857143" xlink:href="#block"/><use x="61.224489795918" y="428.57142857143" xlink:href="#block"/><use x="91.836734693878" y="428.57142857143" xlink:href="#block"/><use x="112.24489795918" y="428.57142857143" xlink:href="#block"/><use x="142.85714285714" y="428.57142857143" xlink:href="#block"/><use x="193.87755102041" y="428.57142857143" xlink:href="#block"/><use x="204.08163265306" y="428.57142857143" xlink:href="#block"/><use x="224.48979591837" y="428.57142857143" xlink:href="#block"/><use x="244.89795918367" y="428.57142857143" xlink:href="#block"/><use x="265.30612244898" y="428.57142857143" xlink:href="#block"/><use x="285.71428571429" y="428.57142857143" xlink:href="#block"/><use x="295.91836734694" y="428.57142857143" xlink:href="#block"/><use x="326.5306122449" y="428.57142857143" xlink:href="#block"/><use x="408.16326530612" y="428.57142857143" xlink:href="#block"/><use x="428.57142857143" y="428.57142857143" xlink:href="#block"/><use x="448.97959183673" y="428.57142857143" xlink:href="#block"/><use x="459.18367346939" y="428.57142857143" xlink:href="#block"/><use x="469.38775510204" y="428.57142857143" xlink:href="#block"/><use x="489.79591836735" y="428.57142857143" xlink:href="#block"/><use x="0" y="438.77551020408" xlink:href="#block"/><use x="61.224489795918" y="438.77551020408" xlink:href="#block"/><use x="102.04081632653" y="438.77551020408" xlink:href="#block"/><use x="112.24489795918" y="438.77551020408" xlink:href="#block"/><use x="163.26530612245" y="438.77551020408" xlink:href="#block"/><use x="193.87755102041" y="438.77551020408" xlink:href="#block"/><use x="224.48979591837" y="438.77551020408" xlink:href="#block"/><use x="265.30612244898" y="438.77551020408" xlink:href="#block"/><use x="275.51020408163" y="438.77551020408" xlink:href="#block"/><use x="367.34693877551" y="438.77551020408" xlink:href="#block"/><use x="408.16326530612" y="438.77551020408" xlink:href="#block"/><use x="448.97959183673" y="438.77551020408" xlink:href="#block"/><use x="459.18367346939" y="438.77551020408" xlink:href="#block"/><use x="469.38775510204" y="438.77551020408" xlink:href="#block"/><use x="479.59183673469" y="438.77551020408" xlink:href="#block"/><use x="0" y="448.97959183673" xlink:href="#block"/><use x="20.408163265306" y="448.97959183673" xlink:href="#block"/><use x="30.612244897959" y="448.97959183673" xlink:href="#block"/><use x="40.816326530612" y="448.97959183673" xlink:href="#block"/><use x="61.224489795918" y="448.97959183673" xlink:href="#block"/><use x="81.632653061224" y="448.97959183673" xlink:href="#block"/><use x="112.24489795918" y="448.97959183673" xlink:href="#block"/><use x="142.85714285714" y="448.97959183673" xlink:href="#block"/><use x="153.0612244898" y="448.97959183673" xlink:href="#block"/><use x="163.26530612245" y="448.97959183673" xlink:href="#block"/><use x="204.08163265306" y="448.97959183673" xlink:href="#block"/><use x="214.28571428571" y="448.97959183673" xlink:href="#block"/><use x="224.48979591837" y="448.97959183673" xlink:href="#block"/><use x="234.69387755102" y="448.97959183673" xlink:href="#block"/><use x="244.89795918367" y="448.97959183673" xlink:href="#block"/><use x="255.10204081633" y="448.97959183673" xlink:href="#block"/><use x="265.30612244898" y="448.97959183673" xlink:href="#block"/><use x="295.91836734694" y="448.97959183673" xlink:href="#block"/><use x="316.32653061224" y="448.97959183673" xlink:href="#block"/><use x="346.9387755102" y="448.97959183673" xlink:href="#block"/><use x="367.34693877551" y="448.97959183673" xlink:href="#block"/><use x="387.75510204082" y="448.97959183673" xlink:href="#block"/><use x="397.95918367347" y="448.97959183673" xlink:href="#block"/><use x="408.16326530612" y="448.97959183673" xlink:href="#block"/><use x="418.36734693878" y="448.97959183673" xlink:href="#block"/><use x="428.57142857143" y="448.97959183673" xlink:href="#block"/><use x="438.77551020408" y="448.97959183673" xlink:href="#block"/><use x="448.97959183673" y="448.97959183673" xlink:href="#block"/><use x="459.18367346939" y="448.97959183673" xlink:href="#block"/><use x="479.59183673469" y="448.97959183673" xlink:href="#block"/><use x="489.79591836735" y="448.97959183673" xlink:href="#block"/><use x="0" y="459.18367346939" xlink:href="#block"/><use x="20.408163265306" y="459.18367346939" xlink:href="#block"/><use x="30.612244897959" y="459.18367346939" xlink:href="#block"/><use x="40.816326530612" y="459.18367346939" xlink:href="#block"/><use x="61.224489795918" y="459.18367346939" xlink:href="#block"/><use x="81.632653061224" y="459.18367346939" xlink:href="#block"/><use x="91.836734693878" y="459.18367346939" xlink:href="#block"/><use x="132.65306122449" y="459.18367346939" xlink:href="#block"/><use x="153.0612244898" y="459.18367346939" xlink:href="#block"/><use x="163.26530612245" y="459.18367346939" xlink:href="#block"/><use x="204.08163265306" y="459.18367346939" xlink:href="#block"/><use x="234.69387755102" y="459.18367346939" xlink:href="#block"/><use x="244.89795918367" y="459.18367346939" xlink:href="#block"/><use x="255.10204081633" y="459.18367346939" xlink:href="#block"/><use x="306.12244897959" y="459.18367346939" xlink:href="#block"/><use x="316.32653061224" y="459.18367346939" xlink:href="#block"/><use x="326.5306122449" y="459.18367346939" xlink:href="#block"/><use x="336.73469387755" y="459.18367346939" xlink:href="#block"/><use x="357.14285714286" y="459.18367346939" xlink:href="#block"/><use x="367.34693877551" y="459.18367346939" xlink:href="#block"/><use x="377.55102040816" y="459.18367346939" xlink:href="#block"/><use x="387.75510204082" y="459.18367346939" xlink:href="#block"/><use x="479.59183673469" y="459.18367346939" xlink:href="#block"/><use x="489.79591836735" y="459.18367346939" xlink:href="#block"/><use x="0" y="469.38775510204" xlink:href="#block"/><use x="20.408163265306" y="469.38775510204" xlink:href="#block"/><use x="30.612244897959" y="469.38775510204" xlink:href="#block"/><use x="40.816326530612" y="469.38775510204" xlink:href="#block"/><use x="61.224489795918" y="469.38775510204" xlink:href="#block"/><use x="81.632653061224" y="469.38775510204" xlink:href="#block"/><use x="91.836734693878" y="469.38775510204" xlink:href="#block"/><use x="102.04081632653" y="469.38775510204" xlink:href="#block"/><use x="112.24489795918" y="469.38775510204" xlink:href="#block"/><use x="122.44897959184" y="469.38775510204" xlink:href="#block"/><use x="132.65306122449" y="469.38775510204" xlink:href="#block"/><use x="173.4693877551" y="469.38775510204" xlink:href="#block"/><use x="204.08163265306" y="469.38775510204" xlink:href="#block"/><use x="265.30612244898" y="469.38775510204" xlink:href="#block"/><use x="275.51020408163" y="469.38775510204" xlink:href="#block"/><use x="306.12244897959" y="469.38775510204" xlink:href="#block"/><use x="326.5306122449" y="469.38775510204" xlink:href="#block"/><use x="336.73469387755" y="469.38775510204" xlink:href="#block"/><use x="357.14285714286" y="469.38775510204" xlink:href="#block"/><use x="377.55102040816" y="469.38775510204" xlink:href="#block"/><use x="387.75510204082" y="469.38775510204" xlink:href="#block"/><use x="397.95918367347" y="469.38775510204" xlink:href="#block"/><use x="408.16326530612" y="469.38775510204" xlink:href="#block"/><use x="428.57142857143" y="469.38775510204" xlink:href="#block"/><use x="469.38775510204" y="469.38775510204" xlink:href="#block"/><use x="489.79591836735" y="469.38775510204" xlink:href="#block"/><use x="0" y="479.59183673469" xlink:href="#block"/><use x="61.224489795918" y="479.59183673469" xlink:href="#block"/><use x="112.24489795918" y="479.59183673469" xlink:href="#block"/><use x="122.44897959184" y="479.59183673469" xlink:href="#block"/><use x="142.85714285714" y="479.59183673469" xlink:href="#block"/><use x="153.0612244898" y="479.59183673469" xlink:href="#block"/><use x="183.67346938776" y="479.59183673469" xlink:href="#block"/><use x="204.08163265306" y="479.59183673469" xlink:href="#block"/><use x="224.48979591837" y="479.59183673469" xlink:href="#block"/><use x="255.10204081633" y="479.59183673469" xlink:href="#block"/><use x="265.30612244898" y="479.59183673469" xlink:href="#block"/><use x="285.71428571429" y="479.59183673469" xlink:href="#block"/><use x="316.32653061224" y="479.59183673469" xlink:href="#block"/><use x="357.14285714286" y="479.59183673469" xlink:href="#block"/><use x="377.55102040816" y="479.59183673469" xlink:href="#block"/><use x="408.16326530612" y="479.59183673469" xlink:href="#block"/><use x="428.57142857143" y="479.59183673469" xlink:href="#block"/><use x="438.77551020408" y="479.59183673469" xlink:href="#block"/><use x="448.97959183673" y="479.59183673469" xlink:href="#block"/><use x="459.18367346939" y="479.59183673469" xlink:href="#block"/><use x="479.59183673469" y="479.59183673469" xlink:href="#block"/><use x="0" y="489.79591836735" xlink:href="#block"/><use x="10.204081632653" y="489.79591836735" xlink:href="#block"/><use x="20.408163265306" y="489.79591836735" xlink:href="#block"/><use x="30.612244897959" y="489.79591836735" xlink:href="#block"/><use x="40.816326530612" y="489.79591836735" xlink:href="#block"/><use x="51.020408163265" y="489.79591836735" xlink:href="#block"/><use x="61.224489795918" y="489.79591836735" xlink:href="#block"/><use x="91.836734693878" y="489.79591836735" xlink:href="#block"/><use x="122.44897959184" y="489.79591836735" xlink:href="#block"/><use x="142.85714285714" y="489.79591836735" xlink:href="#block"/><use x="153.0612244898" y="489.79591836735" xlink:href="#block"/><use x="183.67346938776" y="489.79591836735" xlink:href="#block"/><use x="193.87755102041" y="489.79591836735" xlink:href="#block"/><use x="224.48979591837" y="489.79591836735" xlink:href="#block"/><use x="234.69387755102" y="489.79591836735" xlink:href="#block"/><use x="255.10204081633" y="489.79591836735" xlink:href="#block"/><use x="275.51020408163" y="489.79591836735" xlink:href="#block"/><use x="295.91836734694" y="489.79591836735" xlink:href="#block"/><use x="316.32653061224" y="489.79591836735" xlink:href="#block"/><use x="346.9387755102" y="489.79591836735" xlink:href="#block"/><use x="357.14285714286" y="489.79591836735" xlink:href="#block"/><use x="387.75510204082" y="489.79591836735" xlink:href="#block"/><use x="397.95918367347" y="489.79591836735" xlink:href="#block"/><use x="418.36734693878" y="489.79591836735" xlink:href="#block"/><use x="428.57142857143" y="489.79591836735" xlink:href="#block"/><use x="438.77551020408" y="489.79591836735" xlink:href="#block"/><use x="459.18367346939" y="489.79591836735" xlink:href="#block"/><use x="479.59183673469" y="489.79591836735" xlink:href="#block"/><use x="489.79591836735" y="489.79591836735" xlink:href="#block"/></svg>
