<?xml version="1.0" standalone="no"?>
<svg xmlns:xlink="http://www.w3.org/1999/xlink" version="1.1" xmlns="http://www.w3.org/2000/svg" id="QRCodeGenerate" class="img-fluid mw-75" data-copyright="my-qrcode.net" data-modulecount="65" data-defaultsize="670" data-defaultclass="img-fluid mw-75" data-text="https://apps.apple.com/ru/app/%D0%BB%D0%B8%D1%87%D0%BD%D1%8B%D0%B9-%D0%BA%D0%B0%D0%B1%D0%B8%D0%BD%D0%B5%D1%82-%D0%B4%D1%8D%D0%BA-%D1%82%D0%B5%D0%BF%D0%BB%D0%BE%D1%81%D0%B1%D1%8B%D1%82/id1438839124" data-color="rgb(0, 0, 0)" data-backcolor="none" data-typeicon="none" data-framesize="none" data-framewidth="0" data-titlelocation="none" data-titlefont="sans-serif" data-titletext="" data-typenumber="0" data-errorcorrectionlevel="Q" data-mode="Byte" data-mb="UTF-8" width="670px" height="670px" x="0px" y="0px" viewBox="0 0 670 670" preserveAspectRatio="xMinYMin meet"><rect width="100%" height="100%" fill="none" x="0" y="0"/><path d="M10,10l10,0 0,10 -10,0 0,-10z M20,10l10,0 0,10 -10,0 0,-10z M30,10l10,0 0,10 -10,0 0,-10z M40,10l10,0 0,10 -10,0 0,-10z M50,10l10,0 0,10 -10,0 0,-10z M60,10l10,0 0,10 -10,0 0,-10z M70,10l10,0 0,10 -10,0 0,-10z M100,10l10,0 0,10 -10,0 0,-10z M110,10l10,0 0,10 -10,0 0,-10z M120,10l10,0 0,10 -10,0 0,-10z M150,10l10,0 0,10 -10,0 0,-10z M220,10l10,0 0,10 -10,0 0,-10z M230,10l10,0 0,10 -10,0 0,-10z M240,10l10,0 0,10 -10,0 0,-10z M250,10l10,0 0,10 -10,0 0,-10z M270,10l10,0 0,10 -10,0 0,-10z M300,10l10,0 0,10 -10,0 0,-10z M320,10l10,0 0,10 -10,0 0,-10z M350,10l10,0 0,10 -10,0 0,-10z M380,10l10,0 0,10 -10,0 0,-10z M430,10l10,0 0,10 -10,0 0,-10z M440,10l10,0 0,10 -10,0 0,-10z M460,10l10,0 0,10 -10,0 0,-10z M520,10l10,0 0,10 -10,0 0,-10z M540,10l10,0 0,10 -10,0 0,-10z M560,10l10,0 0,10 -10,0 0,-10z M590,10l10,0 0,10 -10,0 0,-10z M600,10l10,0 0,10 -10,0 0,-10z M610,10l10,0 0,10 -10,0 0,-10z M620,10l10,0 0,10 -10,0 0,-10z M630,10l10,0 0,10 -10,0 0,-10z M640,10l10,0 0,10 -10,0 0,-10z M650,10l10,0 0,10 -10,0 0,-10z M10,20l10,0 0,10 -10,0 0,-10z M70,20l10,0 0,10 -10,0 0,-10z M90,20l10,0 0,10 -10,0 0,-10z M100,20l10,0 0,10 -10,0 0,-10z M110,20l10,0 0,10 -10,0 0,-10z M130,20l10,0 0,10 -10,0 0,-10z M140,20l10,0 0,10 -10,0 0,-10z M190,20l10,0 0,10 -10,0 0,-10z M210,20l10,0 0,10 -10,0 0,-10z M230,20l10,0 0,10 -10,0 0,-10z M260,20l10,0 0,10 -10,0 0,-10z M270,20l10,0 0,10 -10,0 0,-10z M280,20l10,0 0,10 -10,0 0,-10z M290,20l10,0 0,10 -10,0 0,-10z M300,20l10,0 0,10 -10,0 0,-10z M320,20l10,0 0,10 -10,0 0,-10z M340,20l10,0 0,10 -10,0 0,-10z M370,20l10,0 0,10 -10,0 0,-10z M390,20l10,0 0,10 -10,0 0,-10z M400,20l10,0 0,10 -10,0 0,-10z M450,20l10,0 0,10 -10,0 0,-10z M470,20l10,0 0,10 -10,0 0,-10z M480,20l10,0 0,10 -10,0 0,-10z M500,20l10,0 0,10 -10,0 0,-10z M530,20l10,0 0,10 -10,0 0,-10z M540,20l10,0 0,10 -10,0 0,-10z M570,20l10,0 0,10 -10,0 0,-10z M590,20l10,0 0,10 -10,0 0,-10z M650,20l10,0 0,10 -10,0 0,-10z M10,30l10,0 0,10 -10,0 0,-10z M30,30l10,0 0,10 -10,0 0,-10z M40,30l10,0 0,10 -10,0 0,-10z M50,30l10,0 0,10 -10,0 0,-10z M70,30l10,0 0,10 -10,0 0,-10z M90,30l10,0 0,10 -10,0 0,-10z M100,30l10,0 0,10 -10,0 0,-10z M120,30l10,0 0,10 -10,0 0,-10z M160,30l10,0 0,10 -10,0 0,-10z M200,30l10,0 0,10 -10,0 0,-10z M230,30l10,0 0,10 -10,0 0,-10z M250,30l10,0 0,10 -10,0 0,-10z M260,30l10,0 0,10 -10,0 0,-10z M270,30l10,0 0,10 -10,0 0,-10z M290,30l10,0 0,10 -10,0 0,-10z M310,30l10,0 0,10 -10,0 0,-10z M320,30l10,0 0,10 -10,0 0,-10z M340,30l10,0 0,10 -10,0 0,-10z M370,30l10,0 0,10 -10,0 0,-10z M380,30l10,0 0,10 -10,0 0,-10z M440,30l10,0 0,10 -10,0 0,-10z M450,30l10,0 0,10 -10,0 0,-10z M470,30l10,0 0,10 -10,0 0,-10z M490,30l10,0 0,10 -10,0 0,-10z M510,30l10,0 0,10 -10,0 0,-10z M520,30l10,0 0,10 -10,0 0,-10z M550,30l10,0 0,10 -10,0 0,-10z M570,30l10,0 0,10 -10,0 0,-10z M590,30l10,0 0,10 -10,0 0,-10z M610,30l10,0 0,10 -10,0 0,-10z M620,30l10,0 0,10 -10,0 0,-10z M630,30l10,0 0,10 -10,0 0,-10z M650,30l10,0 0,10 -10,0 0,-10z M10,40l10,0 0,10 -10,0 0,-10z M30,40l10,0 0,10 -10,0 0,-10z M40,40l10,0 0,10 -10,0 0,-10z M50,40l10,0 0,10 -10,0 0,-10z M70,40l10,0 0,10 -10,0 0,-10z M110,40l10,0 0,10 -10,0 0,-10z M140,40l10,0 0,10 -10,0 0,-10z M150,40l10,0 0,10 -10,0 0,-10z M160,40l10,0 0,10 -10,0 0,-10z M180,40l10,0 0,10 -10,0 0,-10z M190,40l10,0 0,10 -10,0 0,-10z M200,40l10,0 0,10 -10,0 0,-10z M240,40l10,0 0,10 -10,0 0,-10z M270,40l10,0 0,10 -10,0 0,-10z M320,40l10,0 0,10 -10,0 0,-10z M330,40l10,0 0,10 -10,0 0,-10z M380,40l10,0 0,10 -10,0 0,-10z M420,40l10,0 0,10 -10,0 0,-10z M430,40l10,0 0,10 -10,0 0,-10z M490,40l10,0 0,10 -10,0 0,-10z M500,40l10,0 0,10 -10,0 0,-10z M520,40l10,0 0,10 -10,0 0,-10z M550,40l10,0 0,10 -10,0 0,-10z M560,40l10,0 0,10 -10,0 0,-10z M590,40l10,0 0,10 -10,0 0,-10z M610,40l10,0 0,10 -10,0 0,-10z M620,40l10,0 0,10 -10,0 0,-10z M630,40l10,0 0,10 -10,0 0,-10z M650,40l10,0 0,10 -10,0 0,-10z M10,50l10,0 0,10 -10,0 0,-10z M30,50l10,0 0,10 -10,0 0,-10z M40,50l10,0 0,10 -10,0 0,-10z M50,50l10,0 0,10 -10,0 0,-10z M70,50l10,0 0,10 -10,0 0,-10z M100,50l10,0 0,10 -10,0 0,-10z M110,50l10,0 0,10 -10,0 0,-10z M140,50l10,0 0,10 -10,0 0,-10z M160,50l10,0 0,10 -10,0 0,-10z M180,50l10,0 0,10 -10,0 0,-10z M190,50l10,0 0,10 -10,0 0,-10z M200,50l10,0 0,10 -10,0 0,-10z M210,50l10,0 0,10 -10,0 0,-10z M230,50l10,0 0,10 -10,0 0,-10z M260,50l10,0 0,10 -10,0 0,-10z M280,50l10,0 0,10 -10,0 0,-10z M290,50l10,0 0,10 -10,0 0,-10z M300,50l10,0 0,10 -10,0 0,-10z M310,50l10,0 0,10 -10,0 0,-10z M320,50l10,0 0,10 -10,0 0,-10z M330,50l10,0 0,10 -10,0 0,-10z M340,50l10,0 0,10 -10,0 0,-10z M350,50l10,0 0,10 -10,0 0,-10z M360,50l10,0 0,10 -10,0 0,-10z M390,50l10,0 0,10 -10,0 0,-10z M510,50l10,0 0,10 -10,0 0,-10z M570,50l10,0 0,10 -10,0 0,-10z M590,50l10,0 0,10 -10,0 0,-10z M610,50l10,0 0,10 -10,0 0,-10z M620,50l10,0 0,10 -10,0 0,-10z M630,50l10,0 0,10 -10,0 0,-10z M650,50l10,0 0,10 -10,0 0,-10z M10,60l10,0 0,10 -10,0 0,-10z M70,60l10,0 0,10 -10,0 0,-10z M100,60l10,0 0,10 -10,0 0,-10z M120,60l10,0 0,10 -10,0 0,-10z M140,60l10,0 0,10 -10,0 0,-10z M160,60l10,0 0,10 -10,0 0,-10z M170,60l10,0 0,10 -10,0 0,-10z M190,60l10,0 0,10 -10,0 0,-10z M230,60l10,0 0,10 -10,0 0,-10z M240,60l10,0 0,10 -10,0 0,-10z M270,60l10,0 0,10 -10,0 0,-10z M300,60l10,0 0,10 -10,0 0,-10z M310,60l10,0 0,10 -10,0 0,-10z M350,60l10,0 0,10 -10,0 0,-10z M370,60l10,0 0,10 -10,0 0,-10z M380,60l10,0 0,10 -10,0 0,-10z M390,60l10,0 0,10 -10,0 0,-10z M400,60l10,0 0,10 -10,0 0,-10z M420,60l10,0 0,10 -10,0 0,-10z M430,60l10,0 0,10 -10,0 0,-10z M440,60l10,0 0,10 -10,0 0,-10z M500,60l10,0 0,10 -10,0 0,-10z M510,60l10,0 0,10 -10,0 0,-10z M520,60l10,0 0,10 -10,0 0,-10z M530,60l10,0 0,10 -10,0 0,-10z M540,60l10,0 0,10 -10,0 0,-10z M550,60l10,0 0,10 -10,0 0,-10z M590,60l10,0 0,10 -10,0 0,-10z M650,60l10,0 0,10 -10,0 0,-10z M10,70l10,0 0,10 -10,0 0,-10z M20,70l10,0 0,10 -10,0 0,-10z M30,70l10,0 0,10 -10,0 0,-10z M40,70l10,0 0,10 -10,0 0,-10z M50,70l10,0 0,10 -10,0 0,-10z M60,70l10,0 0,10 -10,0 0,-10z M70,70l10,0 0,10 -10,0 0,-10z M90,70l10,0 0,10 -10,0 0,-10z M110,70l10,0 0,10 -10,0 0,-10z M130,70l10,0 0,10 -10,0 0,-10z M150,70l10,0 0,10 -10,0 0,-10z M170,70l10,0 0,10 -10,0 0,-10z M190,70l10,0 0,10 -10,0 0,-10z M210,70l10,0 0,10 -10,0 0,-10z M230,70l10,0 0,10 -10,0 0,-10z M250,70l10,0 0,10 -10,0 0,-10z M270,70l10,0 0,10 -10,0 0,-10z M290,70l10,0 0,10 -10,0 0,-10z M310,70l10,0 0,10 -10,0 0,-10z M330,70l10,0 0,10 -10,0 0,-10z M350,70l10,0 0,10 -10,0 0,-10z M370,70l10,0 0,10 -10,0 0,-10z M390,70l10,0 0,10 -10,0 0,-10z M410,70l10,0 0,10 -10,0 0,-10z M430,70l10,0 0,10 -10,0 0,-10z M450,70l10,0 0,10 -10,0 0,-10z M470,70l10,0 0,10 -10,0 0,-10z M490,70l10,0 0,10 -10,0 0,-10z M510,70l10,0 0,10 -10,0 0,-10z M530,70l10,0 0,10 -10,0 0,-10z M550,70l10,0 0,10 -10,0 0,-10z M570,70l10,0 0,10 -10,0 0,-10z M590,70l10,0 0,10 -10,0 0,-10z M600,70l10,0 0,10 -10,0 0,-10z M610,70l10,0 0,10 -10,0 0,-10z M620,70l10,0 0,10 -10,0 0,-10z M630,70l10,0 0,10 -10,0 0,-10z M640,70l10,0 0,10 -10,0 0,-10z M650,70l10,0 0,10 -10,0 0,-10z M140,80l10,0 0,10 -10,0 0,-10z M150,80l10,0 0,10 -10,0 0,-10z M170,80l10,0 0,10 -10,0 0,-10z M190,80l10,0 0,10 -10,0 0,-10z M210,80l10,0 0,10 -10,0 0,-10z M220,80l10,0 0,10 -10,0 0,-10z M230,80l10,0 0,10 -10,0 0,-10z M270,80l10,0 0,10 -10,0 0,-10z M280,80l10,0 0,10 -10,0 0,-10z M310,80l10,0 0,10 -10,0 0,-10z M350,80l10,0 0,10 -10,0 0,-10z M370,80l10,0 0,10 -10,0 0,-10z M380,80l10,0 0,10 -10,0 0,-10z M390,80l10,0 0,10 -10,0 0,-10z M480,80l10,0 0,10 -10,0 0,-10z M510,80l10,0 0,10 -10,0 0,-10z M530,80l10,0 0,10 -10,0 0,-10z M570,80l10,0 0,10 -10,0 0,-10z M20,90l10,0 0,10 -10,0 0,-10z M30,90l10,0 0,10 -10,0 0,-10z M40,90l10,0 0,10 -10,0 0,-10z M60,90l10,0 0,10 -10,0 0,-10z M70,90l10,0 0,10 -10,0 0,-10z M100,90l10,0 0,10 -10,0 0,-10z M160,90l10,0 0,10 -10,0 0,-10z M170,90l10,0 0,10 -10,0 0,-10z M190,90l10,0 0,10 -10,0 0,-10z M210,90l10,0 0,10 -10,0 0,-10z M230,90l10,0 0,10 -10,0 0,-10z M240,90l10,0 0,10 -10,0 0,-10z M260,90l10,0 0,10 -10,0 0,-10z M280,90l10,0 0,10 -10,0 0,-10z M310,90l10,0 0,10 -10,0 0,-10z M320,90l10,0 0,10 -10,0 0,-10z M330,90l10,0 0,10 -10,0 0,-10z M340,90l10,0 0,10 -10,0 0,-10z M350,90l10,0 0,10 -10,0 0,-10z M360,90l10,0 0,10 -10,0 0,-10z M370,90l10,0 0,10 -10,0 0,-10z M400,90l10,0 0,10 -10,0 0,-10z M420,90l10,0 0,10 -10,0 0,-10z M440,90l10,0 0,10 -10,0 0,-10z M480,90l10,0 0,10 -10,0 0,-10z M500,90l10,0 0,10 -10,0 0,-10z M530,90l10,0 0,10 -10,0 0,-10z M560,90l10,0 0,10 -10,0 0,-10z M630,90l10,0 0,10 -10,0 0,-10z M640,90l10,0 0,10 -10,0 0,-10z M10,100l10,0 0,10 -10,0 0,-10z M20,100l10,0 0,10 -10,0 0,-10z M80,100l10,0 0,10 -10,0 0,-10z M110,100l10,0 0,10 -10,0 0,-10z M140,100l10,0 0,10 -10,0 0,-10z M150,100l10,0 0,10 -10,0 0,-10z M170,100l10,0 0,10 -10,0 0,-10z M190,100l10,0 0,10 -10,0 0,-10z M200,100l10,0 0,10 -10,0 0,-10z M250,100l10,0 0,10 -10,0 0,-10z M290,100l10,0 0,10 -10,0 0,-10z M340,100l10,0 0,10 -10,0 0,-10z M360,100l10,0 0,10 -10,0 0,-10z M380,100l10,0 0,10 -10,0 0,-10z M400,100l10,0 0,10 -10,0 0,-10z M410,100l10,0 0,10 -10,0 0,-10z M420,100l10,0 0,10 -10,0 0,-10z M430,100l10,0 0,10 -10,0 0,-10z M460,100l10,0 0,10 -10,0 0,-10z M480,100l10,0 0,10 -10,0 0,-10z M490,100l10,0 0,10 -10,0 0,-10z M550,100l10,0 0,10 -10,0 0,-10z M560,100l10,0 0,10 -10,0 0,-10z M580,100l10,0 0,10 -10,0 0,-10z M610,100l10,0 0,10 -10,0 0,-10z M640,100l10,0 0,10 -10,0 0,-10z M10,110l10,0 0,10 -10,0 0,-10z M30,110l10,0 0,10 -10,0 0,-10z M40,110l10,0 0,10 -10,0 0,-10z M60,110l10,0 0,10 -10,0 0,-10z M70,110l10,0 0,10 -10,0 0,-10z M80,110l10,0 0,10 -10,0 0,-10z M100,110l10,0 0,10 -10,0 0,-10z M110,110l10,0 0,10 -10,0 0,-10z M120,110l10,0 0,10 -10,0 0,-10z M130,110l10,0 0,10 -10,0 0,-10z M140,110l10,0 0,10 -10,0 0,-10z M150,110l10,0 0,10 -10,0 0,-10z M180,110l10,0 0,10 -10,0 0,-10z M210,110l10,0 0,10 -10,0 0,-10z M230,110l10,0 0,10 -10,0 0,-10z M240,110l10,0 0,10 -10,0 0,-10z M280,110l10,0 0,10 -10,0 0,-10z M310,110l10,0 0,10 -10,0 0,-10z M350,110l10,0 0,10 -10,0 0,-10z M360,110l10,0 0,10 -10,0 0,-10z M370,110l10,0 0,10 -10,0 0,-10z M390,110l10,0 0,10 -10,0 0,-10z M400,110l10,0 0,10 -10,0 0,-10z M410,110l10,0 0,10 -10,0 0,-10z M420,110l10,0 0,10 -10,0 0,-10z M450,110l10,0 0,10 -10,0 0,-10z M460,110l10,0 0,10 -10,0 0,-10z M470,110l10,0 0,10 -10,0 0,-10z M520,110l10,0 0,10 -10,0 0,-10z M530,110l10,0 0,10 -10,0 0,-10z M550,110l10,0 0,10 -10,0 0,-10z M560,110l10,0 0,10 -10,0 0,-10z M570,110l10,0 0,10 -10,0 0,-10z M580,110l10,0 0,10 -10,0 0,-10z M590,110l10,0 0,10 -10,0 0,-10z M630,110l10,0 0,10 -10,0 0,-10z M640,110l10,0 0,10 -10,0 0,-10z M20,120l10,0 0,10 -10,0 0,-10z M40,120l10,0 0,10 -10,0 0,-10z M50,120l10,0 0,10 -10,0 0,-10z M60,120l10,0 0,10 -10,0 0,-10z M80,120l10,0 0,10 -10,0 0,-10z M120,120l10,0 0,10 -10,0 0,-10z M150,120l10,0 0,10 -10,0 0,-10z M230,120l10,0 0,10 -10,0 0,-10z M240,120l10,0 0,10 -10,0 0,-10z M250,120l10,0 0,10 -10,0 0,-10z M260,120l10,0 0,10 -10,0 0,-10z M280,120l10,0 0,10 -10,0 0,-10z M300,120l10,0 0,10 -10,0 0,-10z M370,120l10,0 0,10 -10,0 0,-10z M420,120l10,0 0,10 -10,0 0,-10z M440,120l10,0 0,10 -10,0 0,-10z M450,120l10,0 0,10 -10,0 0,-10z M470,120l10,0 0,10 -10,0 0,-10z M480,120l10,0 0,10 -10,0 0,-10z M490,120l10,0 0,10 -10,0 0,-10z M500,120l10,0 0,10 -10,0 0,-10z M520,120l10,0 0,10 -10,0 0,-10z M540,120l10,0 0,10 -10,0 0,-10z M580,120l10,0 0,10 -10,0 0,-10z M590,120l10,0 0,10 -10,0 0,-10z M610,120l10,0 0,10 -10,0 0,-10z M620,120l10,0 0,10 -10,0 0,-10z M650,120l10,0 0,10 -10,0 0,-10z M20,130l10,0 0,10 -10,0 0,-10z M40,130l10,0 0,10 -10,0 0,-10z M50,130l10,0 0,10 -10,0 0,-10z M60,130l10,0 0,10 -10,0 0,-10z M70,130l10,0 0,10 -10,0 0,-10z M80,130l10,0 0,10 -10,0 0,-10z M110,130l10,0 0,10 -10,0 0,-10z M140,130l10,0 0,10 -10,0 0,-10z M170,130l10,0 0,10 -10,0 0,-10z M200,130l10,0 0,10 -10,0 0,-10z M260,130l10,0 0,10 -10,0 0,-10z M280,130l10,0 0,10 -10,0 0,-10z M300,130l10,0 0,10 -10,0 0,-10z M340,130l10,0 0,10 -10,0 0,-10z M350,130l10,0 0,10 -10,0 0,-10z M360,130l10,0 0,10 -10,0 0,-10z M400,130l10,0 0,10 -10,0 0,-10z M430,130l10,0 0,10 -10,0 0,-10z M460,130l10,0 0,10 -10,0 0,-10z M490,130l10,0 0,10 -10,0 0,-10z M500,130l10,0 0,10 -10,0 0,-10z M520,130l10,0 0,10 -10,0 0,-10z M540,130l10,0 0,10 -10,0 0,-10z M550,130l10,0 0,10 -10,0 0,-10z M560,130l10,0 0,10 -10,0 0,-10z M570,130l10,0 0,10 -10,0 0,-10z M580,130l10,0 0,10 -10,0 0,-10z M610,130l10,0 0,10 -10,0 0,-10z M630,130l10,0 0,10 -10,0 0,-10z M640,130l10,0 0,10 -10,0 0,-10z M650,130l10,0 0,10 -10,0 0,-10z M20,140l10,0 0,10 -10,0 0,-10z M60,140l10,0 0,10 -10,0 0,-10z M80,140l10,0 0,10 -10,0 0,-10z M90,140l10,0 0,10 -10,0 0,-10z M100,140l10,0 0,10 -10,0 0,-10z M150,140l10,0 0,10 -10,0 0,-10z M190,140l10,0 0,10 -10,0 0,-10z M200,140l10,0 0,10 -10,0 0,-10z M210,140l10,0 0,10 -10,0 0,-10z M260,140l10,0 0,10 -10,0 0,-10z M280,140l10,0 0,10 -10,0 0,-10z M290,140l10,0 0,10 -10,0 0,-10z M300,140l10,0 0,10 -10,0 0,-10z M310,140l10,0 0,10 -10,0 0,-10z M320,140l10,0 0,10 -10,0 0,-10z M330,140l10,0 0,10 -10,0 0,-10z M350,140l10,0 0,10 -10,0 0,-10z M390,140l10,0 0,10 -10,0 0,-10z M400,140l10,0 0,10 -10,0 0,-10z M420,140l10,0 0,10 -10,0 0,-10z M460,140l10,0 0,10 -10,0 0,-10z M480,140l10,0 0,10 -10,0 0,-10z M490,140l10,0 0,10 -10,0 0,-10z M510,140l10,0 0,10 -10,0 0,-10z M570,140l10,0 0,10 -10,0 0,-10z M580,140l10,0 0,10 -10,0 0,-10z M630,140l10,0 0,10 -10,0 0,-10z M650,140l10,0 0,10 -10,0 0,-10z M10,150l10,0 0,10 -10,0 0,-10z M20,150l10,0 0,10 -10,0 0,-10z M60,150l10,0 0,10 -10,0 0,-10z M70,150l10,0 0,10 -10,0 0,-10z M80,150l10,0 0,10 -10,0 0,-10z M90,150l10,0 0,10 -10,0 0,-10z M100,150l10,0 0,10 -10,0 0,-10z M110,150l10,0 0,10 -10,0 0,-10z M130,150l10,0 0,10 -10,0 0,-10z M140,150l10,0 0,10 -10,0 0,-10z M150,150l10,0 0,10 -10,0 0,-10z M160,150l10,0 0,10 -10,0 0,-10z M220,150l10,0 0,10 -10,0 0,-10z M240,150l10,0 0,10 -10,0 0,-10z M250,150l10,0 0,10 -10,0 0,-10z M270,150l10,0 0,10 -10,0 0,-10z M300,150l10,0 0,10 -10,0 0,-10z M310,150l10,0 0,10 -10,0 0,-10z M330,150l10,0 0,10 -10,0 0,-10z M350,150l10,0 0,10 -10,0 0,-10z M380,150l10,0 0,10 -10,0 0,-10z M390,150l10,0 0,10 -10,0 0,-10z M410,150l10,0 0,10 -10,0 0,-10z M430,150l10,0 0,10 -10,0 0,-10z M440,150l10,0 0,10 -10,0 0,-10z M460,150l10,0 0,10 -10,0 0,-10z M500,150l10,0 0,10 -10,0 0,-10z M510,150l10,0 0,10 -10,0 0,-10z M560,150l10,0 0,10 -10,0 0,-10z M580,150l10,0 0,10 -10,0 0,-10z M620,150l10,0 0,10 -10,0 0,-10z M650,150l10,0 0,10 -10,0 0,-10z M10,160l10,0 0,10 -10,0 0,-10z M20,160l10,0 0,10 -10,0 0,-10z M30,160l10,0 0,10 -10,0 0,-10z M50,160l10,0 0,10 -10,0 0,-10z M60,160l10,0 0,10 -10,0 0,-10z M80,160l10,0 0,10 -10,0 0,-10z M100,160l10,0 0,10 -10,0 0,-10z M110,160l10,0 0,10 -10,0 0,-10z M140,160l10,0 0,10 -10,0 0,-10z M150,160l10,0 0,10 -10,0 0,-10z M180,160l10,0 0,10 -10,0 0,-10z M200,160l10,0 0,10 -10,0 0,-10z M210,160l10,0 0,10 -10,0 0,-10z M240,160l10,0 0,10 -10,0 0,-10z M260,160l10,0 0,10 -10,0 0,-10z M270,160l10,0 0,10 -10,0 0,-10z M280,160l10,0 0,10 -10,0 0,-10z M290,160l10,0 0,10 -10,0 0,-10z M300,160l10,0 0,10 -10,0 0,-10z M360,160l10,0 0,10 -10,0 0,-10z M380,160l10,0 0,10 -10,0 0,-10z M400,160l10,0 0,10 -10,0 0,-10z M410,160l10,0 0,10 -10,0 0,-10z M420,160l10,0 0,10 -10,0 0,-10z M430,160l10,0 0,10 -10,0 0,-10z M530,160l10,0 0,10 -10,0 0,-10z M540,160l10,0 0,10 -10,0 0,-10z M550,160l10,0 0,10 -10,0 0,-10z M560,160l10,0 0,10 -10,0 0,-10z M590,160l10,0 0,10 -10,0 0,-10z M640,160l10,0 0,10 -10,0 0,-10z M10,170l10,0 0,10 -10,0 0,-10z M20,170l10,0 0,10 -10,0 0,-10z M30,170l10,0 0,10 -10,0 0,-10z M40,170l10,0 0,10 -10,0 0,-10z M70,170l10,0 0,10 -10,0 0,-10z M90,170l10,0 0,10 -10,0 0,-10z M110,170l10,0 0,10 -10,0 0,-10z M130,170l10,0 0,10 -10,0 0,-10z M140,170l10,0 0,10 -10,0 0,-10z M190,170l10,0 0,10 -10,0 0,-10z M220,170l10,0 0,10 -10,0 0,-10z M250,170l10,0 0,10 -10,0 0,-10z M270,170l10,0 0,10 -10,0 0,-10z M280,170l10,0 0,10 -10,0 0,-10z M290,170l10,0 0,10 -10,0 0,-10z M300,170l10,0 0,10 -10,0 0,-10z M310,170l10,0 0,10 -10,0 0,-10z M330,170l10,0 0,10 -10,0 0,-10z M360,170l10,0 0,10 -10,0 0,-10z M370,170l10,0 0,10 -10,0 0,-10z M390,170l10,0 0,10 -10,0 0,-10z M440,170l10,0 0,10 -10,0 0,-10z M450,170l10,0 0,10 -10,0 0,-10z M460,170l10,0 0,10 -10,0 0,-10z M480,170l10,0 0,10 -10,0 0,-10z M500,170l10,0 0,10 -10,0 0,-10z M520,170l10,0 0,10 -10,0 0,-10z M540,170l10,0 0,10 -10,0 0,-10z M550,170l10,0 0,10 -10,0 0,-10z M560,170l10,0 0,10 -10,0 0,-10z M580,170l10,0 0,10 -10,0 0,-10z M600,170l10,0 0,10 -10,0 0,-10z M10,180l10,0 0,10 -10,0 0,-10z M20,180l10,0 0,10 -10,0 0,-10z M30,180l10,0 0,10 -10,0 0,-10z M40,180l10,0 0,10 -10,0 0,-10z M50,180l10,0 0,10 -10,0 0,-10z M80,180l10,0 0,10 -10,0 0,-10z M90,180l10,0 0,10 -10,0 0,-10z M100,180l10,0 0,10 -10,0 0,-10z M120,180l10,0 0,10 -10,0 0,-10z M130,180l10,0 0,10 -10,0 0,-10z M180,180l10,0 0,10 -10,0 0,-10z M190,180l10,0 0,10 -10,0 0,-10z M200,180l10,0 0,10 -10,0 0,-10z M270,180l10,0 0,10 -10,0 0,-10z M290,180l10,0 0,10 -10,0 0,-10z M300,180l10,0 0,10 -10,0 0,-10z M310,180l10,0 0,10 -10,0 0,-10z M330,180l10,0 0,10 -10,0 0,-10z M350,180l10,0 0,10 -10,0 0,-10z M380,180l10,0 0,10 -10,0 0,-10z M400,180l10,0 0,10 -10,0 0,-10z M410,180l10,0 0,10 -10,0 0,-10z M420,180l10,0 0,10 -10,0 0,-10z M460,180l10,0 0,10 -10,0 0,-10z M470,180l10,0 0,10 -10,0 0,-10z M500,180l10,0 0,10 -10,0 0,-10z M520,180l10,0 0,10 -10,0 0,-10z M530,180l10,0 0,10 -10,0 0,-10z M590,180l10,0 0,10 -10,0 0,-10z M620,180l10,0 0,10 -10,0 0,-10z M630,180l10,0 0,10 -10,0 0,-10z M20,190l10,0 0,10 -10,0 0,-10z M70,190l10,0 0,10 -10,0 0,-10z M90,190l10,0 0,10 -10,0 0,-10z M120,190l10,0 0,10 -10,0 0,-10z M150,190l10,0 0,10 -10,0 0,-10z M180,190l10,0 0,10 -10,0 0,-10z M200,190l10,0 0,10 -10,0 0,-10z M230,190l10,0 0,10 -10,0 0,-10z M250,190l10,0 0,10 -10,0 0,-10z M260,190l10,0 0,10 -10,0 0,-10z M270,190l10,0 0,10 -10,0 0,-10z M280,190l10,0 0,10 -10,0 0,-10z M290,190l10,0 0,10 -10,0 0,-10z M340,190l10,0 0,10 -10,0 0,-10z M350,190l10,0 0,10 -10,0 0,-10z M360,190l10,0 0,10 -10,0 0,-10z M370,190l10,0 0,10 -10,0 0,-10z M380,190l10,0 0,10 -10,0 0,-10z M390,190l10,0 0,10 -10,0 0,-10z M430,190l10,0 0,10 -10,0 0,-10z M440,190l10,0 0,10 -10,0 0,-10z M460,190l10,0 0,10 -10,0 0,-10z M490,190l10,0 0,10 -10,0 0,-10z M500,190l10,0 0,10 -10,0 0,-10z M510,190l10,0 0,10 -10,0 0,-10z M520,190l10,0 0,10 -10,0 0,-10z M570,190l10,0 0,10 -10,0 0,-10z M580,190l10,0 0,10 -10,0 0,-10z M590,190l10,0 0,10 -10,0 0,-10z M610,190l10,0 0,10 -10,0 0,-10z M20,200l10,0 0,10 -10,0 0,-10z M40,200l10,0 0,10 -10,0 0,-10z M50,200l10,0 0,10 -10,0 0,-10z M60,200l10,0 0,10 -10,0 0,-10z M80,200l10,0 0,10 -10,0 0,-10z M170,200l10,0 0,10 -10,0 0,-10z M180,200l10,0 0,10 -10,0 0,-10z M200,200l10,0 0,10 -10,0 0,-10z M230,200l10,0 0,10 -10,0 0,-10z M270,200l10,0 0,10 -10,0 0,-10z M290,200l10,0 0,10 -10,0 0,-10z M300,200l10,0 0,10 -10,0 0,-10z M340,200l10,0 0,10 -10,0 0,-10z M350,200l10,0 0,10 -10,0 0,-10z M370,200l10,0 0,10 -10,0 0,-10z M380,200l10,0 0,10 -10,0 0,-10z M390,200l10,0 0,10 -10,0 0,-10z M410,200l10,0 0,10 -10,0 0,-10z M420,200l10,0 0,10 -10,0 0,-10z M440,200l10,0 0,10 -10,0 0,-10z M490,200l10,0 0,10 -10,0 0,-10z M500,200l10,0 0,10 -10,0 0,-10z M530,200l10,0 0,10 -10,0 0,-10z M540,200l10,0 0,10 -10,0 0,-10z M570,200l10,0 0,10 -10,0 0,-10z M590,200l10,0 0,10 -10,0 0,-10z M600,200l10,0 0,10 -10,0 0,-10z M620,200l10,0 0,10 -10,0 0,-10z M630,200l10,0 0,10 -10,0 0,-10z M650,200l10,0 0,10 -10,0 0,-10z M10,210l10,0 0,10 -10,0 0,-10z M40,210l10,0 0,10 -10,0 0,-10z M70,210l10,0 0,10 -10,0 0,-10z M80,210l10,0 0,10 -10,0 0,-10z M100,210l10,0 0,10 -10,0 0,-10z M180,210l10,0 0,10 -10,0 0,-10z M220,210l10,0 0,10 -10,0 0,-10z M230,210l10,0 0,10 -10,0 0,-10z M240,210l10,0 0,10 -10,0 0,-10z M250,210l10,0 0,10 -10,0 0,-10z M260,210l10,0 0,10 -10,0 0,-10z M330,210l10,0 0,10 -10,0 0,-10z M340,210l10,0 0,10 -10,0 0,-10z M350,210l10,0 0,10 -10,0 0,-10z M410,210l10,0 0,10 -10,0 0,-10z M440,210l10,0 0,10 -10,0 0,-10z M470,210l10,0 0,10 -10,0 0,-10z M510,210l10,0 0,10 -10,0 0,-10z M530,210l10,0 0,10 -10,0 0,-10z M570,210l10,0 0,10 -10,0 0,-10z M590,210l10,0 0,10 -10,0 0,-10z M600,210l10,0 0,10 -10,0 0,-10z M620,210l10,0 0,10 -10,0 0,-10z M640,210l10,0 0,10 -10,0 0,-10z M20,220l10,0 0,10 -10,0 0,-10z M50,220l10,0 0,10 -10,0 0,-10z M60,220l10,0 0,10 -10,0 0,-10z M90,220l10,0 0,10 -10,0 0,-10z M140,220l10,0 0,10 -10,0 0,-10z M150,220l10,0 0,10 -10,0 0,-10z M190,220l10,0 0,10 -10,0 0,-10z M200,220l10,0 0,10 -10,0 0,-10z M210,220l10,0 0,10 -10,0 0,-10z M220,220l10,0 0,10 -10,0 0,-10z M290,220l10,0 0,10 -10,0 0,-10z M300,220l10,0 0,10 -10,0 0,-10z M310,220l10,0 0,10 -10,0 0,-10z M320,220l10,0 0,10 -10,0 0,-10z M330,220l10,0 0,10 -10,0 0,-10z M340,220l10,0 0,10 -10,0 0,-10z M380,220l10,0 0,10 -10,0 0,-10z M400,220l10,0 0,10 -10,0 0,-10z M430,220l10,0 0,10 -10,0 0,-10z M460,220l10,0 0,10 -10,0 0,-10z M490,220l10,0 0,10 -10,0 0,-10z M500,220l10,0 0,10 -10,0 0,-10z M530,220l10,0 0,10 -10,0 0,-10z M550,220l10,0 0,10 -10,0 0,-10z M560,220l10,0 0,10 -10,0 0,-10z M580,220l10,0 0,10 -10,0 0,-10z M600,220l10,0 0,10 -10,0 0,-10z M610,220l10,0 0,10 -10,0 0,-10z M620,220l10,0 0,10 -10,0 0,-10z M640,220l10,0 0,10 -10,0 0,-10z M10,230l10,0 0,10 -10,0 0,-10z M20,230l10,0 0,10 -10,0 0,-10z M40,230l10,0 0,10 -10,0 0,-10z M50,230l10,0 0,10 -10,0 0,-10z M70,230l10,0 0,10 -10,0 0,-10z M90,230l10,0 0,10 -10,0 0,-10z M120,230l10,0 0,10 -10,0 0,-10z M130,230l10,0 0,10 -10,0 0,-10z M160,230l10,0 0,10 -10,0 0,-10z M200,230l10,0 0,10 -10,0 0,-10z M250,230l10,0 0,10 -10,0 0,-10z M270,230l10,0 0,10 -10,0 0,-10z M280,230l10,0 0,10 -10,0 0,-10z M300,230l10,0 0,10 -10,0 0,-10z M310,230l10,0 0,10 -10,0 0,-10z M320,230l10,0 0,10 -10,0 0,-10z M330,230l10,0 0,10 -10,0 0,-10z M340,230l10,0 0,10 -10,0 0,-10z M350,230l10,0 0,10 -10,0 0,-10z M370,230l10,0 0,10 -10,0 0,-10z M390,230l10,0 0,10 -10,0 0,-10z M420,230l10,0 0,10 -10,0 0,-10z M430,230l10,0 0,10 -10,0 0,-10z M440,230l10,0 0,10 -10,0 0,-10z M450,230l10,0 0,10 -10,0 0,-10z M470,230l10,0 0,10 -10,0 0,-10z M520,230l10,0 0,10 -10,0 0,-10z M530,230l10,0 0,10 -10,0 0,-10z M540,230l10,0 0,10 -10,0 0,-10z M550,230l10,0 0,10 -10,0 0,-10z M570,230l10,0 0,10 -10,0 0,-10z M590,230l10,0 0,10 -10,0 0,-10z M620,230l10,0 0,10 -10,0 0,-10z M630,230l10,0 0,10 -10,0 0,-10z M640,230l10,0 0,10 -10,0 0,-10z M650,230l10,0 0,10 -10,0 0,-10z M10,240l10,0 0,10 -10,0 0,-10z M50,240l10,0 0,10 -10,0 0,-10z M60,240l10,0 0,10 -10,0 0,-10z M90,240l10,0 0,10 -10,0 0,-10z M110,240l10,0 0,10 -10,0 0,-10z M130,240l10,0 0,10 -10,0 0,-10z M140,240l10,0 0,10 -10,0 0,-10z M160,240l10,0 0,10 -10,0 0,-10z M180,240l10,0 0,10 -10,0 0,-10z M190,240l10,0 0,10 -10,0 0,-10z M200,240l10,0 0,10 -10,0 0,-10z M220,240l10,0 0,10 -10,0 0,-10z M230,240l10,0 0,10 -10,0 0,-10z M240,240l10,0 0,10 -10,0 0,-10z M290,240l10,0 0,10 -10,0 0,-10z M300,240l10,0 0,10 -10,0 0,-10z M320,240l10,0 0,10 -10,0 0,-10z M340,240l10,0 0,10 -10,0 0,-10z M350,240l10,0 0,10 -10,0 0,-10z M360,240l10,0 0,10 -10,0 0,-10z M410,240l10,0 0,10 -10,0 0,-10z M440,240l10,0 0,10 -10,0 0,-10z M450,240l10,0 0,10 -10,0 0,-10z M460,240l10,0 0,10 -10,0 0,-10z M470,240l10,0 0,10 -10,0 0,-10z M490,240l10,0 0,10 -10,0 0,-10z M500,240l10,0 0,10 -10,0 0,-10z M520,240l10,0 0,10 -10,0 0,-10z M560,240l10,0 0,10 -10,0 0,-10z M580,240l10,0 0,10 -10,0 0,-10z M590,240l10,0 0,10 -10,0 0,-10z M600,240l10,0 0,10 -10,0 0,-10z M610,240l10,0 0,10 -10,0 0,-10z M650,240l10,0 0,10 -10,0 0,-10z M10,250l10,0 0,10 -10,0 0,-10z M30,250l10,0 0,10 -10,0 0,-10z M50,250l10,0 0,10 -10,0 0,-10z M60,250l10,0 0,10 -10,0 0,-10z M70,250l10,0 0,10 -10,0 0,-10z M90,250l10,0 0,10 -10,0 0,-10z M100,250l10,0 0,10 -10,0 0,-10z M130,250l10,0 0,10 -10,0 0,-10z M140,250l10,0 0,10 -10,0 0,-10z M150,250l10,0 0,10 -10,0 0,-10z M170,250l10,0 0,10 -10,0 0,-10z M180,250l10,0 0,10 -10,0 0,-10z M200,250l10,0 0,10 -10,0 0,-10z M210,250l10,0 0,10 -10,0 0,-10z M220,250l10,0 0,10 -10,0 0,-10z M230,250l10,0 0,10 -10,0 0,-10z M250,250l10,0 0,10 -10,0 0,-10z M280,250l10,0 0,10 -10,0 0,-10z M310,250l10,0 0,10 -10,0 0,-10z M330,250l10,0 0,10 -10,0 0,-10z M340,250l10,0 0,10 -10,0 0,-10z M360,250l10,0 0,10 -10,0 0,-10z M370,250l10,0 0,10 -10,0 0,-10z M380,250l10,0 0,10 -10,0 0,-10z M490,250l10,0 0,10 -10,0 0,-10z M520,250l10,0 0,10 -10,0 0,-10z M540,250l10,0 0,10 -10,0 0,-10z M560,250l10,0 0,10 -10,0 0,-10z M570,250l10,0 0,10 -10,0 0,-10z M580,250l10,0 0,10 -10,0 0,-10z M610,250l10,0 0,10 -10,0 0,-10z M640,250l10,0 0,10 -10,0 0,-10z M20,260l10,0 0,10 -10,0 0,-10z M30,260l10,0 0,10 -10,0 0,-10z M50,260l10,0 0,10 -10,0 0,-10z M100,260l10,0 0,10 -10,0 0,-10z M160,260l10,0 0,10 -10,0 0,-10z M170,260l10,0 0,10 -10,0 0,-10z M250,260l10,0 0,10 -10,0 0,-10z M260,260l10,0 0,10 -10,0 0,-10z M270,260l10,0 0,10 -10,0 0,-10z M320,260l10,0 0,10 -10,0 0,-10z M330,260l10,0 0,10 -10,0 0,-10z M340,260l10,0 0,10 -10,0 0,-10z M350,260l10,0 0,10 -10,0 0,-10z M380,260l10,0 0,10 -10,0 0,-10z M390,260l10,0 0,10 -10,0 0,-10z M400,260l10,0 0,10 -10,0 0,-10z M420,260l10,0 0,10 -10,0 0,-10z M440,260l10,0 0,10 -10,0 0,-10z M450,260l10,0 0,10 -10,0 0,-10z M460,260l10,0 0,10 -10,0 0,-10z M490,260l10,0 0,10 -10,0 0,-10z M500,260l10,0 0,10 -10,0 0,-10z M510,260l10,0 0,10 -10,0 0,-10z M540,260l10,0 0,10 -10,0 0,-10z M570,260l10,0 0,10 -10,0 0,-10z M600,260l10,0 0,10 -10,0 0,-10z M610,260l10,0 0,10 -10,0 0,-10z M620,260l10,0 0,10 -10,0 0,-10z M630,260l10,0 0,10 -10,0 0,-10z M650,260l10,0 0,10 -10,0 0,-10z M40,270l10,0 0,10 -10,0 0,-10z M70,270l10,0 0,10 -10,0 0,-10z M110,270l10,0 0,10 -10,0 0,-10z M120,270l10,0 0,10 -10,0 0,-10z M130,270l10,0 0,10 -10,0 0,-10z M150,270l10,0 0,10 -10,0 0,-10z M170,270l10,0 0,10 -10,0 0,-10z M190,270l10,0 0,10 -10,0 0,-10z M250,270l10,0 0,10 -10,0 0,-10z M260,270l10,0 0,10 -10,0 0,-10z M270,270l10,0 0,10 -10,0 0,-10z M280,270l10,0 0,10 -10,0 0,-10z M290,270l10,0 0,10 -10,0 0,-10z M300,270l10,0 0,10 -10,0 0,-10z M310,270l10,0 0,10 -10,0 0,-10z M320,270l10,0 0,10 -10,0 0,-10z M340,270l10,0 0,10 -10,0 0,-10z M350,270l10,0 0,10 -10,0 0,-10z M370,270l10,0 0,10 -10,0 0,-10z M380,270l10,0 0,10 -10,0 0,-10z M400,270l10,0 0,10 -10,0 0,-10z M410,270l10,0 0,10 -10,0 0,-10z M420,270l10,0 0,10 -10,0 0,-10z M430,270l10,0 0,10 -10,0 0,-10z M440,270l10,0 0,10 -10,0 0,-10z M470,270l10,0 0,10 -10,0 0,-10z M480,270l10,0 0,10 -10,0 0,-10z M490,270l10,0 0,10 -10,0 0,-10z M510,270l10,0 0,10 -10,0 0,-10z M540,270l10,0 0,10 -10,0 0,-10z M550,270l10,0 0,10 -10,0 0,-10z M560,270l10,0 0,10 -10,0 0,-10z M580,270l10,0 0,10 -10,0 0,-10z M650,270l10,0 0,10 -10,0 0,-10z M10,280l10,0 0,10 -10,0 0,-10z M30,280l10,0 0,10 -10,0 0,-10z M40,280l10,0 0,10 -10,0 0,-10z M50,280l10,0 0,10 -10,0 0,-10z M60,280l10,0 0,10 -10,0 0,-10z M80,280l10,0 0,10 -10,0 0,-10z M100,280l10,0 0,10 -10,0 0,-10z M110,280l10,0 0,10 -10,0 0,-10z M120,280l10,0 0,10 -10,0 0,-10z M130,280l10,0 0,10 -10,0 0,-10z M150,280l10,0 0,10 -10,0 0,-10z M160,280l10,0 0,10 -10,0 0,-10z M230,280l10,0 0,10 -10,0 0,-10z M250,280l10,0 0,10 -10,0 0,-10z M260,280l10,0 0,10 -10,0 0,-10z M270,280l10,0 0,10 -10,0 0,-10z M290,280l10,0 0,10 -10,0 0,-10z M300,280l10,0 0,10 -10,0 0,-10z M320,280l10,0 0,10 -10,0 0,-10z M330,280l10,0 0,10 -10,0 0,-10z M360,280l10,0 0,10 -10,0 0,-10z M380,280l10,0 0,10 -10,0 0,-10z M400,280l10,0 0,10 -10,0 0,-10z M420,280l10,0 0,10 -10,0 0,-10z M430,280l10,0 0,10 -10,0 0,-10z M460,280l10,0 0,10 -10,0 0,-10z M470,280l10,0 0,10 -10,0 0,-10z M480,280l10,0 0,10 -10,0 0,-10z M500,280l10,0 0,10 -10,0 0,-10z M530,280l10,0 0,10 -10,0 0,-10z M550,280l10,0 0,10 -10,0 0,-10z M560,280l10,0 0,10 -10,0 0,-10z M580,280l10,0 0,10 -10,0 0,-10z M600,280l10,0 0,10 -10,0 0,-10z M640,280l10,0 0,10 -10,0 0,-10z M650,280l10,0 0,10 -10,0 0,-10z M20,290l10,0 0,10 -10,0 0,-10z M40,290l10,0 0,10 -10,0 0,-10z M50,290l10,0 0,10 -10,0 0,-10z M70,290l10,0 0,10 -10,0 0,-10z M100,290l10,0 0,10 -10,0 0,-10z M110,290l10,0 0,10 -10,0 0,-10z M140,290l10,0 0,10 -10,0 0,-10z M150,290l10,0 0,10 -10,0 0,-10z M170,290l10,0 0,10 -10,0 0,-10z M180,290l10,0 0,10 -10,0 0,-10z M190,290l10,0 0,10 -10,0 0,-10z M220,290l10,0 0,10 -10,0 0,-10z M230,290l10,0 0,10 -10,0 0,-10z M240,290l10,0 0,10 -10,0 0,-10z M270,290l10,0 0,10 -10,0 0,-10z M280,290l10,0 0,10 -10,0 0,-10z M320,290l10,0 0,10 -10,0 0,-10z M330,290l10,0 0,10 -10,0 0,-10z M340,290l10,0 0,10 -10,0 0,-10z M350,290l10,0 0,10 -10,0 0,-10z M370,290l10,0 0,10 -10,0 0,-10z M380,290l10,0 0,10 -10,0 0,-10z M390,290l10,0 0,10 -10,0 0,-10z M400,290l10,0 0,10 -10,0 0,-10z M440,290l10,0 0,10 -10,0 0,-10z M450,290l10,0 0,10 -10,0 0,-10z M500,290l10,0 0,10 -10,0 0,-10z M550,290l10,0 0,10 -10,0 0,-10z M560,290l10,0 0,10 -10,0 0,-10z M600,290l10,0 0,10 -10,0 0,-10z M620,290l10,0 0,10 -10,0 0,-10z M30,300l10,0 0,10 -10,0 0,-10z M50,300l10,0 0,10 -10,0 0,-10z M80,300l10,0 0,10 -10,0 0,-10z M100,300l10,0 0,10 -10,0 0,-10z M110,300l10,0 0,10 -10,0 0,-10z M130,300l10,0 0,10 -10,0 0,-10z M150,300l10,0 0,10 -10,0 0,-10z M160,300l10,0 0,10 -10,0 0,-10z M190,300l10,0 0,10 -10,0 0,-10z M200,300l10,0 0,10 -10,0 0,-10z M210,300l10,0 0,10 -10,0 0,-10z M230,300l10,0 0,10 -10,0 0,-10z M240,300l10,0 0,10 -10,0 0,-10z M250,300l10,0 0,10 -10,0 0,-10z M270,300l10,0 0,10 -10,0 0,-10z M280,300l10,0 0,10 -10,0 0,-10z M290,300l10,0 0,10 -10,0 0,-10z M310,300l10,0 0,10 -10,0 0,-10z M320,300l10,0 0,10 -10,0 0,-10z M360,300l10,0 0,10 -10,0 0,-10z M380,300l10,0 0,10 -10,0 0,-10z M420,300l10,0 0,10 -10,0 0,-10z M440,300l10,0 0,10 -10,0 0,-10z M450,300l10,0 0,10 -10,0 0,-10z M470,300l10,0 0,10 -10,0 0,-10z M500,300l10,0 0,10 -10,0 0,-10z M560,300l10,0 0,10 -10,0 0,-10z M590,300l10,0 0,10 -10,0 0,-10z M630,300l10,0 0,10 -10,0 0,-10z M10,310l10,0 0,10 -10,0 0,-10z M20,310l10,0 0,10 -10,0 0,-10z M30,310l10,0 0,10 -10,0 0,-10z M50,310l10,0 0,10 -10,0 0,-10z M60,310l10,0 0,10 -10,0 0,-10z M70,310l10,0 0,10 -10,0 0,-10z M80,310l10,0 0,10 -10,0 0,-10z M90,310l10,0 0,10 -10,0 0,-10z M150,310l10,0 0,10 -10,0 0,-10z M160,310l10,0 0,10 -10,0 0,-10z M170,310l10,0 0,10 -10,0 0,-10z M180,310l10,0 0,10 -10,0 0,-10z M200,310l10,0 0,10 -10,0 0,-10z M220,310l10,0 0,10 -10,0 0,-10z M240,310l10,0 0,10 -10,0 0,-10z M250,310l10,0 0,10 -10,0 0,-10z M270,310l10,0 0,10 -10,0 0,-10z M290,310l10,0 0,10 -10,0 0,-10z M300,310l10,0 0,10 -10,0 0,-10z M310,310l10,0 0,10 -10,0 0,-10z M320,310l10,0 0,10 -10,0 0,-10z M330,310l10,0 0,10 -10,0 0,-10z M340,310l10,0 0,10 -10,0 0,-10z M350,310l10,0 0,10 -10,0 0,-10z M360,310l10,0 0,10 -10,0 0,-10z M380,310l10,0 0,10 -10,0 0,-10z M390,310l10,0 0,10 -10,0 0,-10z M400,310l10,0 0,10 -10,0 0,-10z M430,310l10,0 0,10 -10,0 0,-10z M460,310l10,0 0,10 -10,0 0,-10z M470,310l10,0 0,10 -10,0 0,-10z M490,310l10,0 0,10 -10,0 0,-10z M510,310l10,0 0,10 -10,0 0,-10z M520,310l10,0 0,10 -10,0 0,-10z M540,310l10,0 0,10 -10,0 0,-10z M570,310l10,0 0,10 -10,0 0,-10z M580,310l10,0 0,10 -10,0 0,-10z M590,310l10,0 0,10 -10,0 0,-10z M600,310l10,0 0,10 -10,0 0,-10z M610,310l10,0 0,10 -10,0 0,-10z M620,310l10,0 0,10 -10,0 0,-10z M630,310l10,0 0,10 -10,0 0,-10z M640,310l10,0 0,10 -10,0 0,-10z M20,320l10,0 0,10 -10,0 0,-10z M40,320l10,0 0,10 -10,0 0,-10z M50,320l10,0 0,10 -10,0 0,-10z M90,320l10,0 0,10 -10,0 0,-10z M110,320l10,0 0,10 -10,0 0,-10z M150,320l10,0 0,10 -10,0 0,-10z M170,320l10,0 0,10 -10,0 0,-10z M180,320l10,0 0,10 -10,0 0,-10z M200,320l10,0 0,10 -10,0 0,-10z M210,320l10,0 0,10 -10,0 0,-10z M220,320l10,0 0,10 -10,0 0,-10z M260,320l10,0 0,10 -10,0 0,-10z M280,320l10,0 0,10 -10,0 0,-10z M300,320l10,0 0,10 -10,0 0,-10z M310,320l10,0 0,10 -10,0 0,-10z M350,320l10,0 0,10 -10,0 0,-10z M360,320l10,0 0,10 -10,0 0,-10z M390,320l10,0 0,10 -10,0 0,-10z M410,320l10,0 0,10 -10,0 0,-10z M460,320l10,0 0,10 -10,0 0,-10z M490,320l10,0 0,10 -10,0 0,-10z M500,320l10,0 0,10 -10,0 0,-10z M510,320l10,0 0,10 -10,0 0,-10z M520,320l10,0 0,10 -10,0 0,-10z M530,320l10,0 0,10 -10,0 0,-10z M570,320l10,0 0,10 -10,0 0,-10z M610,320l10,0 0,10 -10,0 0,-10z M620,320l10,0 0,10 -10,0 0,-10z M630,320l10,0 0,10 -10,0 0,-10z M640,320l10,0 0,10 -10,0 0,-10z M10,330l10,0 0,10 -10,0 0,-10z M20,330l10,0 0,10 -10,0 0,-10z M50,330l10,0 0,10 -10,0 0,-10z M70,330l10,0 0,10 -10,0 0,-10z M90,330l10,0 0,10 -10,0 0,-10z M100,330l10,0 0,10 -10,0 0,-10z M110,330l10,0 0,10 -10,0 0,-10z M140,330l10,0 0,10 -10,0 0,-10z M170,330l10,0 0,10 -10,0 0,-10z M180,330l10,0 0,10 -10,0 0,-10z M190,330l10,0 0,10 -10,0 0,-10z M200,330l10,0 0,10 -10,0 0,-10z M210,330l10,0 0,10 -10,0 0,-10z M230,330l10,0 0,10 -10,0 0,-10z M240,330l10,0 0,10 -10,0 0,-10z M310,330l10,0 0,10 -10,0 0,-10z M330,330l10,0 0,10 -10,0 0,-10z M350,330l10,0 0,10 -10,0 0,-10z M360,330l10,0 0,10 -10,0 0,-10z M410,330l10,0 0,10 -10,0 0,-10z M420,330l10,0 0,10 -10,0 0,-10z M440,330l10,0 0,10 -10,0 0,-10z M470,330l10,0 0,10 -10,0 0,-10z M530,330l10,0 0,10 -10,0 0,-10z M540,330l10,0 0,10 -10,0 0,-10z M570,330l10,0 0,10 -10,0 0,-10z M590,330l10,0 0,10 -10,0 0,-10z M610,330l10,0 0,10 -10,0 0,-10z M620,330l10,0 0,10 -10,0 0,-10z M630,330l10,0 0,10 -10,0 0,-10z M650,330l10,0 0,10 -10,0 0,-10z M20,340l10,0 0,10 -10,0 0,-10z M30,340l10,0 0,10 -10,0 0,-10z M50,340l10,0 0,10 -10,0 0,-10z M90,340l10,0 0,10 -10,0 0,-10z M100,340l10,0 0,10 -10,0 0,-10z M110,340l10,0 0,10 -10,0 0,-10z M150,340l10,0 0,10 -10,0 0,-10z M160,340l10,0 0,10 -10,0 0,-10z M170,340l10,0 0,10 -10,0 0,-10z M190,340l10,0 0,10 -10,0 0,-10z M230,340l10,0 0,10 -10,0 0,-10z M260,340l10,0 0,10 -10,0 0,-10z M290,340l10,0 0,10 -10,0 0,-10z M310,340l10,0 0,10 -10,0 0,-10z M350,340l10,0 0,10 -10,0 0,-10z M360,340l10,0 0,10 -10,0 0,-10z M400,340l10,0 0,10 -10,0 0,-10z M420,340l10,0 0,10 -10,0 0,-10z M430,340l10,0 0,10 -10,0 0,-10z M460,340l10,0 0,10 -10,0 0,-10z M480,340l10,0 0,10 -10,0 0,-10z M490,340l10,0 0,10 -10,0 0,-10z M500,340l10,0 0,10 -10,0 0,-10z M520,340l10,0 0,10 -10,0 0,-10z M550,340l10,0 0,10 -10,0 0,-10z M570,340l10,0 0,10 -10,0 0,-10z M610,340l10,0 0,10 -10,0 0,-10z M620,340l10,0 0,10 -10,0 0,-10z M640,340l10,0 0,10 -10,0 0,-10z M650,340l10,0 0,10 -10,0 0,-10z M10,350l10,0 0,10 -10,0 0,-10z M50,350l10,0 0,10 -10,0 0,-10z M60,350l10,0 0,10 -10,0 0,-10z M70,350l10,0 0,10 -10,0 0,-10z M80,350l10,0 0,10 -10,0 0,-10z M90,350l10,0 0,10 -10,0 0,-10z M110,350l10,0 0,10 -10,0 0,-10z M120,350l10,0 0,10 -10,0 0,-10z M140,350l10,0 0,10 -10,0 0,-10z M150,350l10,0 0,10 -10,0 0,-10z M160,350l10,0 0,10 -10,0 0,-10z M180,350l10,0 0,10 -10,0 0,-10z M200,350l10,0 0,10 -10,0 0,-10z M210,350l10,0 0,10 -10,0 0,-10z M230,350l10,0 0,10 -10,0 0,-10z M250,350l10,0 0,10 -10,0 0,-10z M270,350l10,0 0,10 -10,0 0,-10z M290,350l10,0 0,10 -10,0 0,-10z M310,350l10,0 0,10 -10,0 0,-10z M320,350l10,0 0,10 -10,0 0,-10z M330,350l10,0 0,10 -10,0 0,-10z M340,350l10,0 0,10 -10,0 0,-10z M350,350l10,0 0,10 -10,0 0,-10z M360,350l10,0 0,10 -10,0 0,-10z M370,350l10,0 0,10 -10,0 0,-10z M380,350l10,0 0,10 -10,0 0,-10z M390,350l10,0 0,10 -10,0 0,-10z M420,350l10,0 0,10 -10,0 0,-10z M450,350l10,0 0,10 -10,0 0,-10z M460,350l10,0 0,10 -10,0 0,-10z M470,350l10,0 0,10 -10,0 0,-10z M480,350l10,0 0,10 -10,0 0,-10z M510,350l10,0 0,10 -10,0 0,-10z M520,350l10,0 0,10 -10,0 0,-10z M540,350l10,0 0,10 -10,0 0,-10z M550,350l10,0 0,10 -10,0 0,-10z M570,350l10,0 0,10 -10,0 0,-10z M580,350l10,0 0,10 -10,0 0,-10z M590,350l10,0 0,10 -10,0 0,-10z M600,350l10,0 0,10 -10,0 0,-10z M610,350l10,0 0,10 -10,0 0,-10z M630,350l10,0 0,10 -10,0 0,-10z M20,360l10,0 0,10 -10,0 0,-10z M30,360l10,0 0,10 -10,0 0,-10z M60,360l10,0 0,10 -10,0 0,-10z M80,360l10,0 0,10 -10,0 0,-10z M90,360l10,0 0,10 -10,0 0,-10z M100,360l10,0 0,10 -10,0 0,-10z M110,360l10,0 0,10 -10,0 0,-10z M130,360l10,0 0,10 -10,0 0,-10z M140,360l10,0 0,10 -10,0 0,-10z M170,360l10,0 0,10 -10,0 0,-10z M180,360l10,0 0,10 -10,0 0,-10z M190,360l10,0 0,10 -10,0 0,-10z M280,360l10,0 0,10 -10,0 0,-10z M290,360l10,0 0,10 -10,0 0,-10z M310,360l10,0 0,10 -10,0 0,-10z M320,360l10,0 0,10 -10,0 0,-10z M330,360l10,0 0,10 -10,0 0,-10z M350,360l10,0 0,10 -10,0 0,-10z M400,360l10,0 0,10 -10,0 0,-10z M420,360l10,0 0,10 -10,0 0,-10z M440,360l10,0 0,10 -10,0 0,-10z M450,360l10,0 0,10 -10,0 0,-10z M460,360l10,0 0,10 -10,0 0,-10z M470,360l10,0 0,10 -10,0 0,-10z M480,360l10,0 0,10 -10,0 0,-10z M490,360l10,0 0,10 -10,0 0,-10z M500,360l10,0 0,10 -10,0 0,-10z M560,360l10,0 0,10 -10,0 0,-10z M570,360l10,0 0,10 -10,0 0,-10z M600,360l10,0 0,10 -10,0 0,-10z M640,360l10,0 0,10 -10,0 0,-10z M650,360l10,0 0,10 -10,0 0,-10z M40,370l10,0 0,10 -10,0 0,-10z M60,370l10,0 0,10 -10,0 0,-10z M70,370l10,0 0,10 -10,0 0,-10z M100,370l10,0 0,10 -10,0 0,-10z M110,370l10,0 0,10 -10,0 0,-10z M140,370l10,0 0,10 -10,0 0,-10z M150,370l10,0 0,10 -10,0 0,-10z M170,370l10,0 0,10 -10,0 0,-10z M190,370l10,0 0,10 -10,0 0,-10z M200,370l10,0 0,10 -10,0 0,-10z M210,370l10,0 0,10 -10,0 0,-10z M220,370l10,0 0,10 -10,0 0,-10z M240,370l10,0 0,10 -10,0 0,-10z M260,370l10,0 0,10 -10,0 0,-10z M290,370l10,0 0,10 -10,0 0,-10z M320,370l10,0 0,10 -10,0 0,-10z M340,370l10,0 0,10 -10,0 0,-10z M350,370l10,0 0,10 -10,0 0,-10z M360,370l10,0 0,10 -10,0 0,-10z M370,370l10,0 0,10 -10,0 0,-10z M380,370l10,0 0,10 -10,0 0,-10z M400,370l10,0 0,10 -10,0 0,-10z M420,370l10,0 0,10 -10,0 0,-10z M430,370l10,0 0,10 -10,0 0,-10z M440,370l10,0 0,10 -10,0 0,-10z M490,370l10,0 0,10 -10,0 0,-10z M520,370l10,0 0,10 -10,0 0,-10z M540,370l10,0 0,10 -10,0 0,-10z M550,370l10,0 0,10 -10,0 0,-10z M610,370l10,0 0,10 -10,0 0,-10z M630,370l10,0 0,10 -10,0 0,-10z M30,380l10,0 0,10 -10,0 0,-10z M40,380l10,0 0,10 -10,0 0,-10z M80,380l10,0 0,10 -10,0 0,-10z M100,380l10,0 0,10 -10,0 0,-10z M140,380l10,0 0,10 -10,0 0,-10z M160,380l10,0 0,10 -10,0 0,-10z M170,380l10,0 0,10 -10,0 0,-10z M180,380l10,0 0,10 -10,0 0,-10z M190,380l10,0 0,10 -10,0 0,-10z M200,380l10,0 0,10 -10,0 0,-10z M230,380l10,0 0,10 -10,0 0,-10z M240,380l10,0 0,10 -10,0 0,-10z M250,380l10,0 0,10 -10,0 0,-10z M260,380l10,0 0,10 -10,0 0,-10z M270,380l10,0 0,10 -10,0 0,-10z M290,380l10,0 0,10 -10,0 0,-10z M300,380l10,0 0,10 -10,0 0,-10z M310,380l10,0 0,10 -10,0 0,-10z M330,380l10,0 0,10 -10,0 0,-10z M370,380l10,0 0,10 -10,0 0,-10z M380,380l10,0 0,10 -10,0 0,-10z M390,380l10,0 0,10 -10,0 0,-10z M480,380l10,0 0,10 -10,0 0,-10z M510,380l10,0 0,10 -10,0 0,-10z M520,380l10,0 0,10 -10,0 0,-10z M540,380l10,0 0,10 -10,0 0,-10z M560,380l10,0 0,10 -10,0 0,-10z M570,380l10,0 0,10 -10,0 0,-10z M580,380l10,0 0,10 -10,0 0,-10z M630,380l10,0 0,10 -10,0 0,-10z M640,380l10,0 0,10 -10,0 0,-10z M650,380l10,0 0,10 -10,0 0,-10z M10,390l10,0 0,10 -10,0 0,-10z M30,390l10,0 0,10 -10,0 0,-10z M50,390l10,0 0,10 -10,0 0,-10z M70,390l10,0 0,10 -10,0 0,-10z M100,390l10,0 0,10 -10,0 0,-10z M130,390l10,0 0,10 -10,0 0,-10z M150,390l10,0 0,10 -10,0 0,-10z M170,390l10,0 0,10 -10,0 0,-10z M180,390l10,0 0,10 -10,0 0,-10z M210,390l10,0 0,10 -10,0 0,-10z M230,390l10,0 0,10 -10,0 0,-10z M240,390l10,0 0,10 -10,0 0,-10z M260,390l10,0 0,10 -10,0 0,-10z M270,390l10,0 0,10 -10,0 0,-10z M280,390l10,0 0,10 -10,0 0,-10z M300,390l10,0 0,10 -10,0 0,-10z M380,390l10,0 0,10 -10,0 0,-10z M400,390l10,0 0,10 -10,0 0,-10z M410,390l10,0 0,10 -10,0 0,-10z M450,390l10,0 0,10 -10,0 0,-10z M460,390l10,0 0,10 -10,0 0,-10z M480,390l10,0 0,10 -10,0 0,-10z M500,390l10,0 0,10 -10,0 0,-10z M510,390l10,0 0,10 -10,0 0,-10z M530,390l10,0 0,10 -10,0 0,-10z M550,390l10,0 0,10 -10,0 0,-10z M560,390l10,0 0,10 -10,0 0,-10z M590,390l10,0 0,10 -10,0 0,-10z M600,390l10,0 0,10 -10,0 0,-10z M630,390l10,0 0,10 -10,0 0,-10z M650,390l10,0 0,10 -10,0 0,-10z M10,400l10,0 0,10 -10,0 0,-10z M20,400l10,0 0,10 -10,0 0,-10z M30,400l10,0 0,10 -10,0 0,-10z M40,400l10,0 0,10 -10,0 0,-10z M50,400l10,0 0,10 -10,0 0,-10z M80,400l10,0 0,10 -10,0 0,-10z M90,400l10,0 0,10 -10,0 0,-10z M130,400l10,0 0,10 -10,0 0,-10z M140,400l10,0 0,10 -10,0 0,-10z M150,400l10,0 0,10 -10,0 0,-10z M160,400l10,0 0,10 -10,0 0,-10z M170,400l10,0 0,10 -10,0 0,-10z M180,400l10,0 0,10 -10,0 0,-10z M230,400l10,0 0,10 -10,0 0,-10z M250,400l10,0 0,10 -10,0 0,-10z M260,400l10,0 0,10 -10,0 0,-10z M310,400l10,0 0,10 -10,0 0,-10z M320,400l10,0 0,10 -10,0 0,-10z M340,400l10,0 0,10 -10,0 0,-10z M350,400l10,0 0,10 -10,0 0,-10z M360,400l10,0 0,10 -10,0 0,-10z M370,400l10,0 0,10 -10,0 0,-10z M400,400l10,0 0,10 -10,0 0,-10z M410,400l10,0 0,10 -10,0 0,-10z M420,400l10,0 0,10 -10,0 0,-10z M490,400l10,0 0,10 -10,0 0,-10z M530,400l10,0 0,10 -10,0 0,-10z M550,400l10,0 0,10 -10,0 0,-10z M560,400l10,0 0,10 -10,0 0,-10z M580,400l10,0 0,10 -10,0 0,-10z M590,400l10,0 0,10 -10,0 0,-10z M600,400l10,0 0,10 -10,0 0,-10z M610,400l10,0 0,10 -10,0 0,-10z M620,400l10,0 0,10 -10,0 0,-10z M30,410l10,0 0,10 -10,0 0,-10z M40,410l10,0 0,10 -10,0 0,-10z M50,410l10,0 0,10 -10,0 0,-10z M60,410l10,0 0,10 -10,0 0,-10z M70,410l10,0 0,10 -10,0 0,-10z M80,410l10,0 0,10 -10,0 0,-10z M100,410l10,0 0,10 -10,0 0,-10z M110,410l10,0 0,10 -10,0 0,-10z M120,410l10,0 0,10 -10,0 0,-10z M130,410l10,0 0,10 -10,0 0,-10z M140,410l10,0 0,10 -10,0 0,-10z M180,410l10,0 0,10 -10,0 0,-10z M200,410l10,0 0,10 -10,0 0,-10z M210,410l10,0 0,10 -10,0 0,-10z M220,410l10,0 0,10 -10,0 0,-10z M240,410l10,0 0,10 -10,0 0,-10z M260,410l10,0 0,10 -10,0 0,-10z M270,410l10,0 0,10 -10,0 0,-10z M290,410l10,0 0,10 -10,0 0,-10z M300,410l10,0 0,10 -10,0 0,-10z M340,410l10,0 0,10 -10,0 0,-10z M360,410l10,0 0,10 -10,0 0,-10z M370,410l10,0 0,10 -10,0 0,-10z M380,410l10,0 0,10 -10,0 0,-10z M390,410l10,0 0,10 -10,0 0,-10z M420,410l10,0 0,10 -10,0 0,-10z M430,410l10,0 0,10 -10,0 0,-10z M440,410l10,0 0,10 -10,0 0,-10z M460,410l10,0 0,10 -10,0 0,-10z M540,410l10,0 0,10 -10,0 0,-10z M550,410l10,0 0,10 -10,0 0,-10z M570,410l10,0 0,10 -10,0 0,-10z M580,410l10,0 0,10 -10,0 0,-10z M610,410l10,0 0,10 -10,0 0,-10z M640,410l10,0 0,10 -10,0 0,-10z M10,420l10,0 0,10 -10,0 0,-10z M40,420l10,0 0,10 -10,0 0,-10z M50,420l10,0 0,10 -10,0 0,-10z M60,420l10,0 0,10 -10,0 0,-10z M100,420l10,0 0,10 -10,0 0,-10z M110,420l10,0 0,10 -10,0 0,-10z M130,420l10,0 0,10 -10,0 0,-10z M140,420l10,0 0,10 -10,0 0,-10z M150,420l10,0 0,10 -10,0 0,-10z M170,420l10,0 0,10 -10,0 0,-10z M210,420l10,0 0,10 -10,0 0,-10z M220,420l10,0 0,10 -10,0 0,-10z M230,420l10,0 0,10 -10,0 0,-10z M240,420l10,0 0,10 -10,0 0,-10z M260,420l10,0 0,10 -10,0 0,-10z M270,420l10,0 0,10 -10,0 0,-10z M310,420l10,0 0,10 -10,0 0,-10z M320,420l10,0 0,10 -10,0 0,-10z M340,420l10,0 0,10 -10,0 0,-10z M360,420l10,0 0,10 -10,0 0,-10z M380,420l10,0 0,10 -10,0 0,-10z M420,420l10,0 0,10 -10,0 0,-10z M430,420l10,0 0,10 -10,0 0,-10z M440,420l10,0 0,10 -10,0 0,-10z M450,420l10,0 0,10 -10,0 0,-10z M460,420l10,0 0,10 -10,0 0,-10z M470,420l10,0 0,10 -10,0 0,-10z M490,420l10,0 0,10 -10,0 0,-10z M500,420l10,0 0,10 -10,0 0,-10z M520,420l10,0 0,10 -10,0 0,-10z M530,420l10,0 0,10 -10,0 0,-10z M560,420l10,0 0,10 -10,0 0,-10z M590,420l10,0 0,10 -10,0 0,-10z M640,420l10,0 0,10 -10,0 0,-10z M10,430l10,0 0,10 -10,0 0,-10z M30,430l10,0 0,10 -10,0 0,-10z M40,430l10,0 0,10 -10,0 0,-10z M70,430l10,0 0,10 -10,0 0,-10z M90,430l10,0 0,10 -10,0 0,-10z M100,430l10,0 0,10 -10,0 0,-10z M110,430l10,0 0,10 -10,0 0,-10z M120,430l10,0 0,10 -10,0 0,-10z M130,430l10,0 0,10 -10,0 0,-10z M160,430l10,0 0,10 -10,0 0,-10z M170,430l10,0 0,10 -10,0 0,-10z M210,430l10,0 0,10 -10,0 0,-10z M230,430l10,0 0,10 -10,0 0,-10z M240,430l10,0 0,10 -10,0 0,-10z M250,430l10,0 0,10 -10,0 0,-10z M260,430l10,0 0,10 -10,0 0,-10z M270,430l10,0 0,10 -10,0 0,-10z M280,430l10,0 0,10 -10,0 0,-10z M290,430l10,0 0,10 -10,0 0,-10z M300,430l10,0 0,10 -10,0 0,-10z M320,430l10,0 0,10 -10,0 0,-10z M340,430l10,0 0,10 -10,0 0,-10z M370,430l10,0 0,10 -10,0 0,-10z M390,430l10,0 0,10 -10,0 0,-10z M400,430l10,0 0,10 -10,0 0,-10z M430,430l10,0 0,10 -10,0 0,-10z M440,430l10,0 0,10 -10,0 0,-10z M450,430l10,0 0,10 -10,0 0,-10z M460,430l10,0 0,10 -10,0 0,-10z M490,430l10,0 0,10 -10,0 0,-10z M510,430l10,0 0,10 -10,0 0,-10z M540,430l10,0 0,10 -10,0 0,-10z M580,430l10,0 0,10 -10,0 0,-10z M620,430l10,0 0,10 -10,0 0,-10z M640,430l10,0 0,10 -10,0 0,-10z M30,440l10,0 0,10 -10,0 0,-10z M40,440l10,0 0,10 -10,0 0,-10z M80,440l10,0 0,10 -10,0 0,-10z M90,440l10,0 0,10 -10,0 0,-10z M100,440l10,0 0,10 -10,0 0,-10z M110,440l10,0 0,10 -10,0 0,-10z M120,440l10,0 0,10 -10,0 0,-10z M130,440l10,0 0,10 -10,0 0,-10z M150,440l10,0 0,10 -10,0 0,-10z M160,440l10,0 0,10 -10,0 0,-10z M170,440l10,0 0,10 -10,0 0,-10z M180,440l10,0 0,10 -10,0 0,-10z M190,440l10,0 0,10 -10,0 0,-10z M200,440l10,0 0,10 -10,0 0,-10z M210,440l10,0 0,10 -10,0 0,-10z M220,440l10,0 0,10 -10,0 0,-10z M280,440l10,0 0,10 -10,0 0,-10z M300,440l10,0 0,10 -10,0 0,-10z M320,440l10,0 0,10 -10,0 0,-10z M340,440l10,0 0,10 -10,0 0,-10z M350,440l10,0 0,10 -10,0 0,-10z M360,440l10,0 0,10 -10,0 0,-10z M390,440l10,0 0,10 -10,0 0,-10z M410,440l10,0 0,10 -10,0 0,-10z M420,440l10,0 0,10 -10,0 0,-10z M450,440l10,0 0,10 -10,0 0,-10z M460,440l10,0 0,10 -10,0 0,-10z M490,440l10,0 0,10 -10,0 0,-10z M500,440l10,0 0,10 -10,0 0,-10z M510,440l10,0 0,10 -10,0 0,-10z M540,440l10,0 0,10 -10,0 0,-10z M580,440l10,0 0,10 -10,0 0,-10z M590,440l10,0 0,10 -10,0 0,-10z M600,440l10,0 0,10 -10,0 0,-10z M620,440l10,0 0,10 -10,0 0,-10z M630,440l10,0 0,10 -10,0 0,-10z M20,450l10,0 0,10 -10,0 0,-10z M40,450l10,0 0,10 -10,0 0,-10z M60,450l10,0 0,10 -10,0 0,-10z M70,450l10,0 0,10 -10,0 0,-10z M90,450l10,0 0,10 -10,0 0,-10z M100,450l10,0 0,10 -10,0 0,-10z M110,450l10,0 0,10 -10,0 0,-10z M120,450l10,0 0,10 -10,0 0,-10z M130,450l10,0 0,10 -10,0 0,-10z M150,450l10,0 0,10 -10,0 0,-10z M160,450l10,0 0,10 -10,0 0,-10z M170,450l10,0 0,10 -10,0 0,-10z M180,450l10,0 0,10 -10,0 0,-10z M200,450l10,0 0,10 -10,0 0,-10z M210,450l10,0 0,10 -10,0 0,-10z M220,450l10,0 0,10 -10,0 0,-10z M250,450l10,0 0,10 -10,0 0,-10z M260,450l10,0 0,10 -10,0 0,-10z M290,450l10,0 0,10 -10,0 0,-10z M300,450l10,0 0,10 -10,0 0,-10z M310,450l10,0 0,10 -10,0 0,-10z M350,450l10,0 0,10 -10,0 0,-10z M360,450l10,0 0,10 -10,0 0,-10z M370,450l10,0 0,10 -10,0 0,-10z M380,450l10,0 0,10 -10,0 0,-10z M390,450l10,0 0,10 -10,0 0,-10z M400,450l10,0 0,10 -10,0 0,-10z M410,450l10,0 0,10 -10,0 0,-10z M460,450l10,0 0,10 -10,0 0,-10z M470,450l10,0 0,10 -10,0 0,-10z M520,450l10,0 0,10 -10,0 0,-10z M530,450l10,0 0,10 -10,0 0,-10z M540,450l10,0 0,10 -10,0 0,-10z M560,450l10,0 0,10 -10,0 0,-10z M570,450l10,0 0,10 -10,0 0,-10z M580,450l10,0 0,10 -10,0 0,-10z M590,450l10,0 0,10 -10,0 0,-10z M610,450l10,0 0,10 -10,0 0,-10z M620,450l10,0 0,10 -10,0 0,-10z M640,450l10,0 0,10 -10,0 0,-10z M650,450l10,0 0,10 -10,0 0,-10z M10,460l10,0 0,10 -10,0 0,-10z M20,460l10,0 0,10 -10,0 0,-10z M30,460l10,0 0,10 -10,0 0,-10z M90,460l10,0 0,10 -10,0 0,-10z M100,460l10,0 0,10 -10,0 0,-10z M110,460l10,0 0,10 -10,0 0,-10z M160,460l10,0 0,10 -10,0 0,-10z M180,460l10,0 0,10 -10,0 0,-10z M190,460l10,0 0,10 -10,0 0,-10z M250,460l10,0 0,10 -10,0 0,-10z M260,460l10,0 0,10 -10,0 0,-10z M300,460l10,0 0,10 -10,0 0,-10z M320,460l10,0 0,10 -10,0 0,-10z M330,460l10,0 0,10 -10,0 0,-10z M370,460l10,0 0,10 -10,0 0,-10z M400,460l10,0 0,10 -10,0 0,-10z M420,460l10,0 0,10 -10,0 0,-10z M430,460l10,0 0,10 -10,0 0,-10z M460,460l10,0 0,10 -10,0 0,-10z M490,460l10,0 0,10 -10,0 0,-10z M500,460l10,0 0,10 -10,0 0,-10z M550,460l10,0 0,10 -10,0 0,-10z M570,460l10,0 0,10 -10,0 0,-10z M600,460l10,0 0,10 -10,0 0,-10z M610,460l10,0 0,10 -10,0 0,-10z M650,460l10,0 0,10 -10,0 0,-10z M10,470l10,0 0,10 -10,0 0,-10z M60,470l10,0 0,10 -10,0 0,-10z M70,470l10,0 0,10 -10,0 0,-10z M90,470l10,0 0,10 -10,0 0,-10z M110,470l10,0 0,10 -10,0 0,-10z M120,470l10,0 0,10 -10,0 0,-10z M130,470l10,0 0,10 -10,0 0,-10z M150,470l10,0 0,10 -10,0 0,-10z M160,470l10,0 0,10 -10,0 0,-10z M180,470l10,0 0,10 -10,0 0,-10z M210,470l10,0 0,10 -10,0 0,-10z M250,470l10,0 0,10 -10,0 0,-10z M280,470l10,0 0,10 -10,0 0,-10z M310,470l10,0 0,10 -10,0 0,-10z M330,470l10,0 0,10 -10,0 0,-10z M340,470l10,0 0,10 -10,0 0,-10z M350,470l10,0 0,10 -10,0 0,-10z M360,470l10,0 0,10 -10,0 0,-10z M370,470l10,0 0,10 -10,0 0,-10z M380,470l10,0 0,10 -10,0 0,-10z M430,470l10,0 0,10 -10,0 0,-10z M460,470l10,0 0,10 -10,0 0,-10z M470,470l10,0 0,10 -10,0 0,-10z M510,470l10,0 0,10 -10,0 0,-10z M520,470l10,0 0,10 -10,0 0,-10z M540,470l10,0 0,10 -10,0 0,-10z M550,470l10,0 0,10 -10,0 0,-10z M570,470l10,0 0,10 -10,0 0,-10z M580,470l10,0 0,10 -10,0 0,-10z M610,470l10,0 0,10 -10,0 0,-10z M10,480l10,0 0,10 -10,0 0,-10z M20,480l10,0 0,10 -10,0 0,-10z M50,480l10,0 0,10 -10,0 0,-10z M90,480l10,0 0,10 -10,0 0,-10z M120,480l10,0 0,10 -10,0 0,-10z M140,480l10,0 0,10 -10,0 0,-10z M180,480l10,0 0,10 -10,0 0,-10z M190,480l10,0 0,10 -10,0 0,-10z M200,480l10,0 0,10 -10,0 0,-10z M210,480l10,0 0,10 -10,0 0,-10z M220,480l10,0 0,10 -10,0 0,-10z M230,480l10,0 0,10 -10,0 0,-10z M250,480l10,0 0,10 -10,0 0,-10z M260,480l10,0 0,10 -10,0 0,-10z M270,480l10,0 0,10 -10,0 0,-10z M280,480l10,0 0,10 -10,0 0,-10z M290,480l10,0 0,10 -10,0 0,-10z M300,480l10,0 0,10 -10,0 0,-10z M310,480l10,0 0,10 -10,0 0,-10z M320,480l10,0 0,10 -10,0 0,-10z M330,480l10,0 0,10 -10,0 0,-10z M340,480l10,0 0,10 -10,0 0,-10z M370,480l10,0 0,10 -10,0 0,-10z M400,480l10,0 0,10 -10,0 0,-10z M410,480l10,0 0,10 -10,0 0,-10z M450,480l10,0 0,10 -10,0 0,-10z M460,480l10,0 0,10 -10,0 0,-10z M470,480l10,0 0,10 -10,0 0,-10z M490,480l10,0 0,10 -10,0 0,-10z M560,480l10,0 0,10 -10,0 0,-10z M570,480l10,0 0,10 -10,0 0,-10z M590,480l10,0 0,10 -10,0 0,-10z M600,480l10,0 0,10 -10,0 0,-10z M610,480l10,0 0,10 -10,0 0,-10z M620,480l10,0 0,10 -10,0 0,-10z M10,490l10,0 0,10 -10,0 0,-10z M20,490l10,0 0,10 -10,0 0,-10z M30,490l10,0 0,10 -10,0 0,-10z M50,490l10,0 0,10 -10,0 0,-10z M60,490l10,0 0,10 -10,0 0,-10z M70,490l10,0 0,10 -10,0 0,-10z M110,490l10,0 0,10 -10,0 0,-10z M120,490l10,0 0,10 -10,0 0,-10z M130,490l10,0 0,10 -10,0 0,-10z M140,490l10,0 0,10 -10,0 0,-10z M160,490l10,0 0,10 -10,0 0,-10z M170,490l10,0 0,10 -10,0 0,-10z M210,490l10,0 0,10 -10,0 0,-10z M220,490l10,0 0,10 -10,0 0,-10z M250,490l10,0 0,10 -10,0 0,-10z M260,490l10,0 0,10 -10,0 0,-10z M300,490l10,0 0,10 -10,0 0,-10z M320,490l10,0 0,10 -10,0 0,-10z M340,490l10,0 0,10 -10,0 0,-10z M350,490l10,0 0,10 -10,0 0,-10z M360,490l10,0 0,10 -10,0 0,-10z M400,490l10,0 0,10 -10,0 0,-10z M460,490l10,0 0,10 -10,0 0,-10z M490,490l10,0 0,10 -10,0 0,-10z M500,490l10,0 0,10 -10,0 0,-10z M520,490l10,0 0,10 -10,0 0,-10z M540,490l10,0 0,10 -10,0 0,-10z M550,490l10,0 0,10 -10,0 0,-10z M570,490l10,0 0,10 -10,0 0,-10z M600,490l10,0 0,10 -10,0 0,-10z M630,490l10,0 0,10 -10,0 0,-10z M640,490l10,0 0,10 -10,0 0,-10z M10,500l10,0 0,10 -10,0 0,-10z M30,500l10,0 0,10 -10,0 0,-10z M60,500l10,0 0,10 -10,0 0,-10z M80,500l10,0 0,10 -10,0 0,-10z M110,500l10,0 0,10 -10,0 0,-10z M120,500l10,0 0,10 -10,0 0,-10z M130,500l10,0 0,10 -10,0 0,-10z M140,500l10,0 0,10 -10,0 0,-10z M180,500l10,0 0,10 -10,0 0,-10z M190,500l10,0 0,10 -10,0 0,-10z M200,500l10,0 0,10 -10,0 0,-10z M210,500l10,0 0,10 -10,0 0,-10z M220,500l10,0 0,10 -10,0 0,-10z M230,500l10,0 0,10 -10,0 0,-10z M250,500l10,0 0,10 -10,0 0,-10z M280,500l10,0 0,10 -10,0 0,-10z M290,500l10,0 0,10 -10,0 0,-10z M320,500l10,0 0,10 -10,0 0,-10z M340,500l10,0 0,10 -10,0 0,-10z M360,500l10,0 0,10 -10,0 0,-10z M370,500l10,0 0,10 -10,0 0,-10z M390,500l10,0 0,10 -10,0 0,-10z M400,500l10,0 0,10 -10,0 0,-10z M450,500l10,0 0,10 -10,0 0,-10z M500,500l10,0 0,10 -10,0 0,-10z M510,500l10,0 0,10 -10,0 0,-10z M520,500l10,0 0,10 -10,0 0,-10z M540,500l10,0 0,10 -10,0 0,-10z M580,500l10,0 0,10 -10,0 0,-10z M620,500l10,0 0,10 -10,0 0,-10z M630,500l10,0 0,10 -10,0 0,-10z M640,500l10,0 0,10 -10,0 0,-10z M650,500l10,0 0,10 -10,0 0,-10z M20,510l10,0 0,10 -10,0 0,-10z M30,510l10,0 0,10 -10,0 0,-10z M50,510l10,0 0,10 -10,0 0,-10z M60,510l10,0 0,10 -10,0 0,-10z M70,510l10,0 0,10 -10,0 0,-10z M80,510l10,0 0,10 -10,0 0,-10z M110,510l10,0 0,10 -10,0 0,-10z M120,510l10,0 0,10 -10,0 0,-10z M140,510l10,0 0,10 -10,0 0,-10z M150,510l10,0 0,10 -10,0 0,-10z M160,510l10,0 0,10 -10,0 0,-10z M170,510l10,0 0,10 -10,0 0,-10z M190,510l10,0 0,10 -10,0 0,-10z M210,510l10,0 0,10 -10,0 0,-10z M220,510l10,0 0,10 -10,0 0,-10z M230,510l10,0 0,10 -10,0 0,-10z M240,510l10,0 0,10 -10,0 0,-10z M250,510l10,0 0,10 -10,0 0,-10z M270,510l10,0 0,10 -10,0 0,-10z M280,510l10,0 0,10 -10,0 0,-10z M300,510l10,0 0,10 -10,0 0,-10z M310,510l10,0 0,10 -10,0 0,-10z M330,510l10,0 0,10 -10,0 0,-10z M340,510l10,0 0,10 -10,0 0,-10z M350,510l10,0 0,10 -10,0 0,-10z M360,510l10,0 0,10 -10,0 0,-10z M370,510l10,0 0,10 -10,0 0,-10z M390,510l10,0 0,10 -10,0 0,-10z M410,510l10,0 0,10 -10,0 0,-10z M470,510l10,0 0,10 -10,0 0,-10z M480,510l10,0 0,10 -10,0 0,-10z M490,510l10,0 0,10 -10,0 0,-10z M500,510l10,0 0,10 -10,0 0,-10z M550,510l10,0 0,10 -10,0 0,-10z M560,510l10,0 0,10 -10,0 0,-10z M580,510l10,0 0,10 -10,0 0,-10z M590,510l10,0 0,10 -10,0 0,-10z M650,510l10,0 0,10 -10,0 0,-10z M60,520l10,0 0,10 -10,0 0,-10z M80,520l10,0 0,10 -10,0 0,-10z M100,520l10,0 0,10 -10,0 0,-10z M130,520l10,0 0,10 -10,0 0,-10z M140,520l10,0 0,10 -10,0 0,-10z M150,520l10,0 0,10 -10,0 0,-10z M180,520l10,0 0,10 -10,0 0,-10z M190,520l10,0 0,10 -10,0 0,-10z M210,520l10,0 0,10 -10,0 0,-10z M230,520l10,0 0,10 -10,0 0,-10z M250,520l10,0 0,10 -10,0 0,-10z M270,520l10,0 0,10 -10,0 0,-10z M290,520l10,0 0,10 -10,0 0,-10z M320,520l10,0 0,10 -10,0 0,-10z M330,520l10,0 0,10 -10,0 0,-10z M350,520l10,0 0,10 -10,0 0,-10z M370,520l10,0 0,10 -10,0 0,-10z M390,520l10,0 0,10 -10,0 0,-10z M410,520l10,0 0,10 -10,0 0,-10z M420,520l10,0 0,10 -10,0 0,-10z M430,520l10,0 0,10 -10,0 0,-10z M440,520l10,0 0,10 -10,0 0,-10z M450,520l10,0 0,10 -10,0 0,-10z M460,520l10,0 0,10 -10,0 0,-10z M490,520l10,0 0,10 -10,0 0,-10z M500,520l10,0 0,10 -10,0 0,-10z M530,520l10,0 0,10 -10,0 0,-10z M550,520l10,0 0,10 -10,0 0,-10z M560,520l10,0 0,10 -10,0 0,-10z M580,520l10,0 0,10 -10,0 0,-10z M620,520l10,0 0,10 -10,0 0,-10z M30,530l10,0 0,10 -10,0 0,-10z M50,530l10,0 0,10 -10,0 0,-10z M70,530l10,0 0,10 -10,0 0,-10z M80,530l10,0 0,10 -10,0 0,-10z M100,530l10,0 0,10 -10,0 0,-10z M110,530l10,0 0,10 -10,0 0,-10z M120,530l10,0 0,10 -10,0 0,-10z M130,530l10,0 0,10 -10,0 0,-10z M140,530l10,0 0,10 -10,0 0,-10z M180,530l10,0 0,10 -10,0 0,-10z M190,530l10,0 0,10 -10,0 0,-10z M220,530l10,0 0,10 -10,0 0,-10z M250,530l10,0 0,10 -10,0 0,-10z M280,530l10,0 0,10 -10,0 0,-10z M290,530l10,0 0,10 -10,0 0,-10z M300,530l10,0 0,10 -10,0 0,-10z M310,530l10,0 0,10 -10,0 0,-10z M330,530l10,0 0,10 -10,0 0,-10z M370,530l10,0 0,10 -10,0 0,-10z M390,530l10,0 0,10 -10,0 0,-10z M450,530l10,0 0,10 -10,0 0,-10z M460,530l10,0 0,10 -10,0 0,-10z M470,530l10,0 0,10 -10,0 0,-10z M500,530l10,0 0,10 -10,0 0,-10z M510,530l10,0 0,10 -10,0 0,-10z M540,530l10,0 0,10 -10,0 0,-10z M550,530l10,0 0,10 -10,0 0,-10z M570,530l10,0 0,10 -10,0 0,-10z M600,530l10,0 0,10 -10,0 0,-10z M610,530l10,0 0,10 -10,0 0,-10z M630,530l10,0 0,10 -10,0 0,-10z M640,530l10,0 0,10 -10,0 0,-10z M10,540l10,0 0,10 -10,0 0,-10z M30,540l10,0 0,10 -10,0 0,-10z M80,540l10,0 0,10 -10,0 0,-10z M100,540l10,0 0,10 -10,0 0,-10z M110,540l10,0 0,10 -10,0 0,-10z M120,540l10,0 0,10 -10,0 0,-10z M150,540l10,0 0,10 -10,0 0,-10z M170,540l10,0 0,10 -10,0 0,-10z M180,540l10,0 0,10 -10,0 0,-10z M190,540l10,0 0,10 -10,0 0,-10z M200,540l10,0 0,10 -10,0 0,-10z M210,540l10,0 0,10 -10,0 0,-10z M250,540l10,0 0,10 -10,0 0,-10z M270,540l10,0 0,10 -10,0 0,-10z M280,540l10,0 0,10 -10,0 0,-10z M290,540l10,0 0,10 -10,0 0,-10z M310,540l10,0 0,10 -10,0 0,-10z M330,540l10,0 0,10 -10,0 0,-10z M340,540l10,0 0,10 -10,0 0,-10z M350,540l10,0 0,10 -10,0 0,-10z M360,540l10,0 0,10 -10,0 0,-10z M380,540l10,0 0,10 -10,0 0,-10z M410,540l10,0 0,10 -10,0 0,-10z M420,540l10,0 0,10 -10,0 0,-10z M440,540l10,0 0,10 -10,0 0,-10z M470,540l10,0 0,10 -10,0 0,-10z M480,540l10,0 0,10 -10,0 0,-10z M520,540l10,0 0,10 -10,0 0,-10z M530,540l10,0 0,10 -10,0 0,-10z M540,540l10,0 0,10 -10,0 0,-10z M560,540l10,0 0,10 -10,0 0,-10z M580,540l10,0 0,10 -10,0 0,-10z M590,540l10,0 0,10 -10,0 0,-10z M600,540l10,0 0,10 -10,0 0,-10z M640,540l10,0 0,10 -10,0 0,-10z M30,550l10,0 0,10 -10,0 0,-10z M40,550l10,0 0,10 -10,0 0,-10z M60,550l10,0 0,10 -10,0 0,-10z M70,550l10,0 0,10 -10,0 0,-10z M100,550l10,0 0,10 -10,0 0,-10z M110,550l10,0 0,10 -10,0 0,-10z M120,550l10,0 0,10 -10,0 0,-10z M130,550l10,0 0,10 -10,0 0,-10z M150,550l10,0 0,10 -10,0 0,-10z M190,550l10,0 0,10 -10,0 0,-10z M200,550l10,0 0,10 -10,0 0,-10z M210,550l10,0 0,10 -10,0 0,-10z M230,550l10,0 0,10 -10,0 0,-10z M240,550l10,0 0,10 -10,0 0,-10z M250,550l10,0 0,10 -10,0 0,-10z M280,550l10,0 0,10 -10,0 0,-10z M290,550l10,0 0,10 -10,0 0,-10z M300,550l10,0 0,10 -10,0 0,-10z M350,550l10,0 0,10 -10,0 0,-10z M360,550l10,0 0,10 -10,0 0,-10z M370,550l10,0 0,10 -10,0 0,-10z M380,550l10,0 0,10 -10,0 0,-10z M390,550l10,0 0,10 -10,0 0,-10z M430,550l10,0 0,10 -10,0 0,-10z M450,550l10,0 0,10 -10,0 0,-10z M460,550l10,0 0,10 -10,0 0,-10z M470,550l10,0 0,10 -10,0 0,-10z M480,550l10,0 0,10 -10,0 0,-10z M490,550l10,0 0,10 -10,0 0,-10z M550,550l10,0 0,10 -10,0 0,-10z M580,550l10,0 0,10 -10,0 0,-10z M600,550l10,0 0,10 -10,0 0,-10z M610,550l10,0 0,10 -10,0 0,-10z M620,550l10,0 0,10 -10,0 0,-10z M640,550l10,0 0,10 -10,0 0,-10z M10,560l10,0 0,10 -10,0 0,-10z M40,560l10,0 0,10 -10,0 0,-10z M80,560l10,0 0,10 -10,0 0,-10z M120,560l10,0 0,10 -10,0 0,-10z M140,560l10,0 0,10 -10,0 0,-10z M150,560l10,0 0,10 -10,0 0,-10z M190,560l10,0 0,10 -10,0 0,-10z M200,560l10,0 0,10 -10,0 0,-10z M230,560l10,0 0,10 -10,0 0,-10z M260,560l10,0 0,10 -10,0 0,-10z M280,560l10,0 0,10 -10,0 0,-10z M300,560l10,0 0,10 -10,0 0,-10z M340,560l10,0 0,10 -10,0 0,-10z M350,560l10,0 0,10 -10,0 0,-10z M360,560l10,0 0,10 -10,0 0,-10z M380,560l10,0 0,10 -10,0 0,-10z M460,560l10,0 0,10 -10,0 0,-10z M490,560l10,0 0,10 -10,0 0,-10z M530,560l10,0 0,10 -10,0 0,-10z M580,560l10,0 0,10 -10,0 0,-10z M590,560l10,0 0,10 -10,0 0,-10z M600,560l10,0 0,10 -10,0 0,-10z M610,560l10,0 0,10 -10,0 0,-10z M620,560l10,0 0,10 -10,0 0,-10z M630,560l10,0 0,10 -10,0 0,-10z M20,570l10,0 0,10 -10,0 0,-10z M30,570l10,0 0,10 -10,0 0,-10z M50,570l10,0 0,10 -10,0 0,-10z M70,570l10,0 0,10 -10,0 0,-10z M100,570l10,0 0,10 -10,0 0,-10z M110,570l10,0 0,10 -10,0 0,-10z M120,570l10,0 0,10 -10,0 0,-10z M140,570l10,0 0,10 -10,0 0,-10z M160,570l10,0 0,10 -10,0 0,-10z M180,570l10,0 0,10 -10,0 0,-10z M210,570l10,0 0,10 -10,0 0,-10z M220,570l10,0 0,10 -10,0 0,-10z M240,570l10,0 0,10 -10,0 0,-10z M270,570l10,0 0,10 -10,0 0,-10z M290,570l10,0 0,10 -10,0 0,-10z M300,570l10,0 0,10 -10,0 0,-10z M310,570l10,0 0,10 -10,0 0,-10z M320,570l10,0 0,10 -10,0 0,-10z M330,570l10,0 0,10 -10,0 0,-10z M340,570l10,0 0,10 -10,0 0,-10z M350,570l10,0 0,10 -10,0 0,-10z M360,570l10,0 0,10 -10,0 0,-10z M380,570l10,0 0,10 -10,0 0,-10z M390,570l10,0 0,10 -10,0 0,-10z M400,570l10,0 0,10 -10,0 0,-10z M410,570l10,0 0,10 -10,0 0,-10z M440,570l10,0 0,10 -10,0 0,-10z M470,570l10,0 0,10 -10,0 0,-10z M520,570l10,0 0,10 -10,0 0,-10z M530,570l10,0 0,10 -10,0 0,-10z M540,570l10,0 0,10 -10,0 0,-10z M560,570l10,0 0,10 -10,0 0,-10z M570,570l10,0 0,10 -10,0 0,-10z M580,570l10,0 0,10 -10,0 0,-10z M590,570l10,0 0,10 -10,0 0,-10z M600,570l10,0 0,10 -10,0 0,-10z M610,570l10,0 0,10 -10,0 0,-10z M620,570l10,0 0,10 -10,0 0,-10z M640,570l10,0 0,10 -10,0 0,-10z M650,570l10,0 0,10 -10,0 0,-10z M90,580l10,0 0,10 -10,0 0,-10z M100,580l10,0 0,10 -10,0 0,-10z M110,580l10,0 0,10 -10,0 0,-10z M120,580l10,0 0,10 -10,0 0,-10z M140,580l10,0 0,10 -10,0 0,-10z M150,580l10,0 0,10 -10,0 0,-10z M180,580l10,0 0,10 -10,0 0,-10z M240,580l10,0 0,10 -10,0 0,-10z M270,580l10,0 0,10 -10,0 0,-10z M290,580l10,0 0,10 -10,0 0,-10z M310,580l10,0 0,10 -10,0 0,-10z M350,580l10,0 0,10 -10,0 0,-10z M360,580l10,0 0,10 -10,0 0,-10z M380,580l10,0 0,10 -10,0 0,-10z M390,580l10,0 0,10 -10,0 0,-10z M400,580l10,0 0,10 -10,0 0,-10z M410,580l10,0 0,10 -10,0 0,-10z M430,580l10,0 0,10 -10,0 0,-10z M460,580l10,0 0,10 -10,0 0,-10z M490,580l10,0 0,10 -10,0 0,-10z M530,580l10,0 0,10 -10,0 0,-10z M540,580l10,0 0,10 -10,0 0,-10z M550,580l10,0 0,10 -10,0 0,-10z M560,580l10,0 0,10 -10,0 0,-10z M570,580l10,0 0,10 -10,0 0,-10z M610,580l10,0 0,10 -10,0 0,-10z M620,580l10,0 0,10 -10,0 0,-10z M640,580l10,0 0,10 -10,0 0,-10z M650,580l10,0 0,10 -10,0 0,-10z M10,590l10,0 0,10 -10,0 0,-10z M20,590l10,0 0,10 -10,0 0,-10z M30,590l10,0 0,10 -10,0 0,-10z M40,590l10,0 0,10 -10,0 0,-10z M50,590l10,0 0,10 -10,0 0,-10z M60,590l10,0 0,10 -10,0 0,-10z M70,590l10,0 0,10 -10,0 0,-10z M100,590l10,0 0,10 -10,0 0,-10z M130,590l10,0 0,10 -10,0 0,-10z M150,590l10,0 0,10 -10,0 0,-10z M200,590l10,0 0,10 -10,0 0,-10z M210,590l10,0 0,10 -10,0 0,-10z M220,590l10,0 0,10 -10,0 0,-10z M250,590l10,0 0,10 -10,0 0,-10z M270,590l10,0 0,10 -10,0 0,-10z M280,590l10,0 0,10 -10,0 0,-10z M290,590l10,0 0,10 -10,0 0,-10z M300,590l10,0 0,10 -10,0 0,-10z M310,590l10,0 0,10 -10,0 0,-10z M330,590l10,0 0,10 -10,0 0,-10z M350,590l10,0 0,10 -10,0 0,-10z M360,590l10,0 0,10 -10,0 0,-10z M390,590l10,0 0,10 -10,0 0,-10z M430,590l10,0 0,10 -10,0 0,-10z M450,590l10,0 0,10 -10,0 0,-10z M460,590l10,0 0,10 -10,0 0,-10z M470,590l10,0 0,10 -10,0 0,-10z M500,590l10,0 0,10 -10,0 0,-10z M520,590l10,0 0,10 -10,0 0,-10z M530,590l10,0 0,10 -10,0 0,-10z M540,590l10,0 0,10 -10,0 0,-10z M570,590l10,0 0,10 -10,0 0,-10z M590,590l10,0 0,10 -10,0 0,-10z M610,590l10,0 0,10 -10,0 0,-10z M630,590l10,0 0,10 -10,0 0,-10z M10,600l10,0 0,10 -10,0 0,-10z M70,600l10,0 0,10 -10,0 0,-10z M90,600l10,0 0,10 -10,0 0,-10z M100,600l10,0 0,10 -10,0 0,-10z M150,600l10,0 0,10 -10,0 0,-10z M160,600l10,0 0,10 -10,0 0,-10z M180,600l10,0 0,10 -10,0 0,-10z M200,600l10,0 0,10 -10,0 0,-10z M210,600l10,0 0,10 -10,0 0,-10z M220,600l10,0 0,10 -10,0 0,-10z M230,600l10,0 0,10 -10,0 0,-10z M240,600l10,0 0,10 -10,0 0,-10z M260,600l10,0 0,10 -10,0 0,-10z M270,600l10,0 0,10 -10,0 0,-10z M280,600l10,0 0,10 -10,0 0,-10z M310,600l10,0 0,10 -10,0 0,-10z M350,600l10,0 0,10 -10,0 0,-10z M360,600l10,0 0,10 -10,0 0,-10z M370,600l10,0 0,10 -10,0 0,-10z M390,600l10,0 0,10 -10,0 0,-10z M400,600l10,0 0,10 -10,0 0,-10z M420,600l10,0 0,10 -10,0 0,-10z M440,600l10,0 0,10 -10,0 0,-10z M460,600l10,0 0,10 -10,0 0,-10z M470,600l10,0 0,10 -10,0 0,-10z M500,600l10,0 0,10 -10,0 0,-10z M540,600l10,0 0,10 -10,0 0,-10z M570,600l10,0 0,10 -10,0 0,-10z M610,600l10,0 0,10 -10,0 0,-10z M620,600l10,0 0,10 -10,0 0,-10z M640,600l10,0 0,10 -10,0 0,-10z M650,600l10,0 0,10 -10,0 0,-10z M10,610l10,0 0,10 -10,0 0,-10z M30,610l10,0 0,10 -10,0 0,-10z M40,610l10,0 0,10 -10,0 0,-10z M50,610l10,0 0,10 -10,0 0,-10z M70,610l10,0 0,10 -10,0 0,-10z M110,610l10,0 0,10 -10,0 0,-10z M150,610l10,0 0,10 -10,0 0,-10z M180,610l10,0 0,10 -10,0 0,-10z M190,610l10,0 0,10 -10,0 0,-10z M200,610l10,0 0,10 -10,0 0,-10z M210,610l10,0 0,10 -10,0 0,-10z M220,610l10,0 0,10 -10,0 0,-10z M230,610l10,0 0,10 -10,0 0,-10z M240,610l10,0 0,10 -10,0 0,-10z M300,610l10,0 0,10 -10,0 0,-10z M310,610l10,0 0,10 -10,0 0,-10z M320,610l10,0 0,10 -10,0 0,-10z M330,610l10,0 0,10 -10,0 0,-10z M340,610l10,0 0,10 -10,0 0,-10z M350,610l10,0 0,10 -10,0 0,-10z M360,610l10,0 0,10 -10,0 0,-10z M380,610l10,0 0,10 -10,0 0,-10z M390,610l10,0 0,10 -10,0 0,-10z M400,610l10,0 0,10 -10,0 0,-10z M420,610l10,0 0,10 -10,0 0,-10z M430,610l10,0 0,10 -10,0 0,-10z M440,610l10,0 0,10 -10,0 0,-10z M480,610l10,0 0,10 -10,0 0,-10z M490,610l10,0 0,10 -10,0 0,-10z M500,610l10,0 0,10 -10,0 0,-10z M520,610l10,0 0,10 -10,0 0,-10z M540,610l10,0 0,10 -10,0 0,-10z M550,610l10,0 0,10 -10,0 0,-10z M570,610l10,0 0,10 -10,0 0,-10z M580,610l10,0 0,10 -10,0 0,-10z M590,610l10,0 0,10 -10,0 0,-10z M600,610l10,0 0,10 -10,0 0,-10z M610,610l10,0 0,10 -10,0 0,-10z M630,610l10,0 0,10 -10,0 0,-10z M10,620l10,0 0,10 -10,0 0,-10z M30,620l10,0 0,10 -10,0 0,-10z M40,620l10,0 0,10 -10,0 0,-10z M50,620l10,0 0,10 -10,0 0,-10z M70,620l10,0 0,10 -10,0 0,-10z M90,620l10,0 0,10 -10,0 0,-10z M100,620l10,0 0,10 -10,0 0,-10z M110,620l10,0 0,10 -10,0 0,-10z M120,620l10,0 0,10 -10,0 0,-10z M140,620l10,0 0,10 -10,0 0,-10z M160,620l10,0 0,10 -10,0 0,-10z M190,620l10,0 0,10 -10,0 0,-10z M200,620l10,0 0,10 -10,0 0,-10z M210,620l10,0 0,10 -10,0 0,-10z M220,620l10,0 0,10 -10,0 0,-10z M230,620l10,0 0,10 -10,0 0,-10z M280,620l10,0 0,10 -10,0 0,-10z M300,620l10,0 0,10 -10,0 0,-10z M310,620l10,0 0,10 -10,0 0,-10z M320,620l10,0 0,10 -10,0 0,-10z M390,620l10,0 0,10 -10,0 0,-10z M440,620l10,0 0,10 -10,0 0,-10z M450,620l10,0 0,10 -10,0 0,-10z M460,620l10,0 0,10 -10,0 0,-10z M500,620l10,0 0,10 -10,0 0,-10z M510,620l10,0 0,10 -10,0 0,-10z M530,620l10,0 0,10 -10,0 0,-10z M560,620l10,0 0,10 -10,0 0,-10z M580,620l10,0 0,10 -10,0 0,-10z M610,620l10,0 0,10 -10,0 0,-10z M620,620l10,0 0,10 -10,0 0,-10z M630,620l10,0 0,10 -10,0 0,-10z M10,630l10,0 0,10 -10,0 0,-10z M30,630l10,0 0,10 -10,0 0,-10z M40,630l10,0 0,10 -10,0 0,-10z M50,630l10,0 0,10 -10,0 0,-10z M70,630l10,0 0,10 -10,0 0,-10z M90,630l10,0 0,10 -10,0 0,-10z M100,630l10,0 0,10 -10,0 0,-10z M120,630l10,0 0,10 -10,0 0,-10z M140,630l10,0 0,10 -10,0 0,-10z M220,630l10,0 0,10 -10,0 0,-10z M230,630l10,0 0,10 -10,0 0,-10z M240,630l10,0 0,10 -10,0 0,-10z M250,630l10,0 0,10 -10,0 0,-10z M260,630l10,0 0,10 -10,0 0,-10z M270,630l10,0 0,10 -10,0 0,-10z M280,630l10,0 0,10 -10,0 0,-10z M300,630l10,0 0,10 -10,0 0,-10z M320,630l10,0 0,10 -10,0 0,-10z M330,630l10,0 0,10 -10,0 0,-10z M340,630l10,0 0,10 -10,0 0,-10z M360,630l10,0 0,10 -10,0 0,-10z M370,630l10,0 0,10 -10,0 0,-10z M400,630l10,0 0,10 -10,0 0,-10z M410,630l10,0 0,10 -10,0 0,-10z M470,630l10,0 0,10 -10,0 0,-10z M480,630l10,0 0,10 -10,0 0,-10z M510,630l10,0 0,10 -10,0 0,-10z M590,630l10,0 0,10 -10,0 0,-10z M620,630l10,0 0,10 -10,0 0,-10z M650,630l10,0 0,10 -10,0 0,-10z M10,640l10,0 0,10 -10,0 0,-10z M70,640l10,0 0,10 -10,0 0,-10z M90,640l10,0 0,10 -10,0 0,-10z M100,640l10,0 0,10 -10,0 0,-10z M110,640l10,0 0,10 -10,0 0,-10z M130,640l10,0 0,10 -10,0 0,-10z M140,640l10,0 0,10 -10,0 0,-10z M150,640l10,0 0,10 -10,0 0,-10z M180,640l10,0 0,10 -10,0 0,-10z M190,640l10,0 0,10 -10,0 0,-10z M200,640l10,0 0,10 -10,0 0,-10z M210,640l10,0 0,10 -10,0 0,-10z M220,640l10,0 0,10 -10,0 0,-10z M230,640l10,0 0,10 -10,0 0,-10z M240,640l10,0 0,10 -10,0 0,-10z M270,640l10,0 0,10 -10,0 0,-10z M290,640l10,0 0,10 -10,0 0,-10z M320,640l10,0 0,10 -10,0 0,-10z M350,640l10,0 0,10 -10,0 0,-10z M360,640l10,0 0,10 -10,0 0,-10z M370,640l10,0 0,10 -10,0 0,-10z M380,640l10,0 0,10 -10,0 0,-10z M390,640l10,0 0,10 -10,0 0,-10z M400,640l10,0 0,10 -10,0 0,-10z M410,640l10,0 0,10 -10,0 0,-10z M420,640l10,0 0,10 -10,0 0,-10z M430,640l10,0 0,10 -10,0 0,-10z M460,640l10,0 0,10 -10,0 0,-10z M530,640l10,0 0,10 -10,0 0,-10z M560,640l10,0 0,10 -10,0 0,-10z M570,640l10,0 0,10 -10,0 0,-10z M610,640l10,0 0,10 -10,0 0,-10z M640,640l10,0 0,10 -10,0 0,-10z M10,650l10,0 0,10 -10,0 0,-10z M20,650l10,0 0,10 -10,0 0,-10z M30,650l10,0 0,10 -10,0 0,-10z M40,650l10,0 0,10 -10,0 0,-10z M50,650l10,0 0,10 -10,0 0,-10z M60,650l10,0 0,10 -10,0 0,-10z M70,650l10,0 0,10 -10,0 0,-10z M120,650l10,0 0,10 -10,0 0,-10z M130,650l10,0 0,10 -10,0 0,-10z M140,650l10,0 0,10 -10,0 0,-10z M150,650l10,0 0,10 -10,0 0,-10z M170,650l10,0 0,10 -10,0 0,-10z M180,650l10,0 0,10 -10,0 0,-10z M190,650l10,0 0,10 -10,0 0,-10z M210,650l10,0 0,10 -10,0 0,-10z M220,650l10,0 0,10 -10,0 0,-10z M240,650l10,0 0,10 -10,0 0,-10z M250,650l10,0 0,10 -10,0 0,-10z M260,650l10,0 0,10 -10,0 0,-10z M270,650l10,0 0,10 -10,0 0,-10z M290,650l10,0 0,10 -10,0 0,-10z M310,650l10,0 0,10 -10,0 0,-10z M320,650l10,0 0,10 -10,0 0,-10z M340,650l10,0 0,10 -10,0 0,-10z M360,650l10,0 0,10 -10,0 0,-10z M370,650l10,0 0,10 -10,0 0,-10z M420,650l10,0 0,10 -10,0 0,-10z M440,650l10,0 0,10 -10,0 0,-10z M450,650l10,0 0,10 -10,0 0,-10z M470,650l10,0 0,10 -10,0 0,-10z M480,650l10,0 0,10 -10,0 0,-10z M510,650l10,0 0,10 -10,0 0,-10z M540,650l10,0 0,10 -10,0 0,-10z M560,650l10,0 0,10 -10,0 0,-10z M580,650l10,0 0,10 -10,0 0,-10z M590,650l10,0 0,10 -10,0 0,-10z M600,650l10,0 0,10 -10,0 0,-10z M610,650l10,0 0,10 -10,0 0,-10z M620,650l10,0 0,10 -10,0 0,-10z M640,650l10,0 0,10 -10,0 0,-10z " stroke="transparent" fill="rgb(0, 0, 0)"/></svg>