<?xml version="1.0" encoding="UTF-8" standalone="no"?>
<svg
   xmlns:dc="http://purl.org/dc/elements/1.1/"
   xmlns:cc="http://creativecommons.org/ns#"
   xmlns:rdf="http://www.w3.org/1999/02/22-rdf-syntax-ns#"
   xmlns:svg="http://www.w3.org/2000/svg"
   xmlns="http://www.w3.org/2000/svg"
   xmlns:sodipodi="http://sodipodi.sourceforge.net/DTD/sodipodi-0.dtd"
   xmlns:inkscape="http://www.inkscape.org/namespaces/inkscape"
   inkscape:version="1.0 (4035a4fb49, 2020-05-01)"
   sodipodi:docname="alert-red1.svg"
   xml:space="preserve"
   style="enable-background:new 0 0 512 512;"
   viewBox="0 0 512 512"
   y="0px"
   x="0px"
   id="Layer_1"
   version="1.1"><metadata
   id="metadata165"><rdf:RDF><cc:Work
       rdf:about=""><dc:format>image/svg+xml</dc:format><dc:type
         rdf:resource="http://purl.org/dc/dcmitype/StillImage" /><dc:title></dc:title></cc:Work></rdf:RDF></metadata><defs
   id="defs163" /><sodipodi:namedview
   inkscape:current-layer="Layer_1"
   inkscape:window-maximized="1"
   inkscape:window-y="-8"
   inkscape:window-x="85"
   inkscape:cy="256"
   inkscape:cx="256"
   inkscape:zoom="1.4335938"
   showgrid="false"
   id="namedview161"
   inkscape:window-height="1057"
   inkscape:window-width="1827"
   inkscape:pageshadow="2"
   inkscape:pageopacity="0"
   guidetolerance="10"
   gridtolerance="10"
   objecttolerance="10"
   borderopacity="1"
   bordercolor="#666666"
   pagecolor="#ffffff" />
<g
   style="fill:#c83737"
   id="g128">
	<g
   style="fill:#c83737"
   id="g126">
		<path
   style="fill:#c83737"
   id="path124"
   d="M507.494,426.066L282.864,53.537c-5.677-9.415-15.87-15.172-26.865-15.172c-10.995,0-21.188,5.756-26.865,15.172    L4.506,426.066c-5.842,9.689-6.015,21.774-0.451,31.625c5.564,9.852,16.001,15.944,27.315,15.944h449.259    c11.314,0,21.751-6.093,27.315-15.944C513.508,447.839,513.336,435.755,507.494,426.066z M256.167,167.227    c12.901,0,23.817,7.278,23.817,20.178c0,39.363-4.631,95.929-4.631,135.292c0,10.255-11.247,14.554-19.186,14.554    c-10.584,0-19.516-4.3-19.516-14.554c0-39.363-4.63-95.929-4.63-135.292C232.021,174.505,242.605,167.227,256.167,167.227z     M256.498,411.018c-14.554,0-25.471-11.908-25.471-25.47c0-13.893,10.916-25.47,25.471-25.47c13.562,0,25.14,11.577,25.14,25.47    C281.638,399.11,270.06,411.018,256.498,411.018z" />
	</g>
</g>
<g
   id="g130">
</g>
<g
   id="g132">
</g>
<g
   id="g134">
</g>
<g
   id="g136">
</g>
<g
   id="g138">
</g>
<g
   id="g140">
</g>
<g
   id="g142">
</g>
<g
   id="g144">
</g>
<g
   id="g146">
</g>
<g
   id="g148">
</g>
<g
   id="g150">
</g>
<g
   id="g152">
</g>
<g
   id="g154">
</g>
<g
   id="g156">
</g>
<g
   id="g158">
</g>
</svg>
