<?xml version="1.0" encoding="iso-8859-1"?>
<!-- Generator: Adobe Illustrator 19.0.0, SVG Export Plug-In . SVG Version: 6.00 Build 0)  -->
<svg version="1.1" id="Capa_1" xmlns="http://www.w3.org/2000/svg" xmlns:xlink="http://www.w3.org/1999/xlink" x="0px" y="0px"
	 viewBox="0 0 447.366 447.366" style="enable-background:new 0 0 447.366 447.366;" xml:space="preserve">
<polygon style="fill:#F5F1EF;" points="335.366,127.683 335.366,79.683 447.366,79.683 447.366,423.683 15.366,423.683 
	15.366,127.683 "/>
<rect x="-13.46" y="215.667" transform="matrix(-0.7071 0.7071 -0.7071 -0.7071 285.5971 345.0362)" style="fill:#DEDAD8;" width="169.598" height="32"/>
<g>
	
		<rect x="6.627" y="264.512" transform="matrix(-0.7071 0.7071 -0.7071 -0.7071 236.9791 462.8643)" style="fill:#51ABD8;" width="32" height="32"/>
	<circle style="fill:#51ABD8;" cx="175.366" cy="127.683" r="104"/>
</g>
<circle style="fill:#FFC117;" cx="175.366" cy="127.683" r="72"/>
<path style="fill:#DEDAD8;" d="M382.566,79.683c0,4,0.8,8,0.8,12c0,153.6-162.4,279.2-368,291.2v40.8h432v-344H382.566z"/>
<g>
	<rect x="407.366" y="103.683" style="fill:#999999;" width="16" height="16"/>
	<rect x="39.366" y="383.683" style="fill:#999999;" width="144" height="16"/>
	<rect x="39.366" y="351.683" style="fill:#999999;" width="72" height="16"/>
</g>
<g>
	<rect x="167.366" y="119.683" style="fill:#E97424;" width="16" height="16"/>
	<rect x="135.366" y="119.683" style="fill:#E97424;" width="16" height="16"/>
	<rect x="199.366" y="119.683" style="fill:#E97424;" width="16" height="16"/>
</g>
<g>
</g>
<g>
</g>
<g>
</g>
<g>
</g>
<g>
</g>
<g>
</g>
<g>
</g>
<g>
</g>
<g>
</g>
<g>
</g>
<g>
</g>
<g>
</g>
<g>
</g>
<g>
</g>
<g>
</g>
</svg>
