<?xml version="1.0" encoding="iso-8859-1"?>
<!-- Generator: Adobe Illustrator 19.0.0, SVG Export Plug-In . SVG Version: 6.00 Build 0)  -->
<svg version="1.1" id="Capa_1" xmlns="http://www.w3.org/2000/svg" xmlns:xlink="http://www.w3.org/1999/xlink" x="0px" y="0px"
	 viewBox="0 0 512 512" style="enable-background:new 0 0 512 512;" xml:space="preserve">
<path style="fill:#ACE3FC;" d="M437.02,74.98C388.667,26.629,324.38,0,256,0S123.333,26.629,74.98,74.98
	C26.629,123.333,0,187.62,0,256s26.629,132.667,74.98,181.02C123.333,485.371,187.62,512,256,512s132.667-26.629,181.02-74.98
	C485.371,388.667,512,324.38,512,256S485.371,123.333,437.02,74.98z"/>
<path style="fill:#86D6F2;" d="M437.02,74.98C388.667,26.629,324.38,0,256,0v512c68.38,0,132.667-26.629,181.02-74.98
	C485.371,388.667,512,324.38,512,256S485.371,123.333,437.02,74.98z"/>
<path style="fill:#CCEFFF;" d="M322.098,117.078C300.911,119.649,278.685,121,256,121s-44.911-1.351-66.098-3.922
	C206.673,62.679,232.145,30,256,30S305.327,62.679,322.098,117.078z M171.199,241c0.896-34.96,4.892-66.857,11.032-94.675
	C205.885,149.394,230.717,151,256,151s50.115-1.606,73.769-4.675c6.141,27.817,10.136,59.714,11.032,94.675H171.199z M340.801,271
	c-0.896,34.96-4.892,66.857-11.032,94.675C306.115,362.606,281.283,361,256,361s-50.115,1.606-73.769,4.675
	c-6.141-27.817-10.136-59.714-11.032-94.675H340.801z M171.435,79.838c-4.238,10.214-8.063,21.142-11.458,32.663
	c-22.928-4.271-44.109-10.078-62.663-17.252c26.552-26.214,59.538-45.923,96.354-56.502
	C185.531,50.114,178.065,63.86,171.435,79.838z M152.594,141.591c-6.632,30.659-10.533,64.375-11.401,99.409H30.51
	c3.006-45.649,19.623-87.634,45.826-121.932C98.439,128.599,124.336,136.201,152.594,141.591z M141.193,271
	c0.868,35.034,4.769,68.75,11.401,99.409c-28.258,5.391-54.155,12.992-76.258,22.523C50.133,358.633,33.516,316.649,30.51,271
	H141.193z M159.976,399.498c3.396,11.521,7.22,22.45,11.458,32.664c6.63,15.979,14.097,29.725,22.232,41.091
	c-36.815-10.579-69.802-30.288-96.354-56.502C115.867,409.576,137.048,403.769,159.976,399.498z M189.902,394.922
	C211.089,392.351,233.315,391,256,391s44.911,1.351,66.098,3.922C305.327,449.321,279.855,482,256,482
	S206.673,449.321,189.902,394.922z"/>
<g>
	<path style="fill:#ACE3FC;" d="M329.769,146.325C306.115,149.394,281.283,151,256,151v90h84.801
		C339.905,206.04,335.909,174.143,329.769,146.325z"/>
	<path style="fill:#ACE3FC;" d="M340.801,271H256v90c25.283,0,50.115,1.606,73.769,4.675
		C335.909,337.857,339.905,305.96,340.801,271z"/>
	<path style="fill:#ACE3FC;" d="M256,121c22.685,0,44.911-1.351,66.098-3.922C305.327,62.679,279.855,30,256,30V121z"/>
	<path style="fill:#ACE3FC;" d="M256,391v91c23.855,0,49.327-32.679,66.098-87.078C300.911,392.351,278.685,391,256,391z"/>
	<path style="fill:#ACE3FC;" d="M370.807,241H481.49c-3.006-45.649-19.623-87.634-45.826-121.932
		c-22.103,9.53-48,17.132-76.258,22.523C366.039,172.25,369.939,205.966,370.807,241z"/>
	<path style="fill:#ACE3FC;" d="M352.024,112.502c22.928-4.271,44.109-10.078,62.663-17.253
		c-26.552-26.214-59.538-45.923-96.354-56.502c8.135,11.367,15.602,25.113,22.232,41.091
		C344.803,90.052,348.628,100.98,352.024,112.502z"/>
	<path style="fill:#ACE3FC;" d="M359.406,370.409c28.258,5.391,54.155,12.993,76.258,22.523
		c26.203-34.298,42.82-76.283,45.826-121.932H370.807C369.939,306.034,366.039,339.75,359.406,370.409z"/>
	<path style="fill:#ACE3FC;" d="M340.565,432.162c-6.63,15.979-14.097,29.725-22.232,41.091
		c36.815-10.579,69.802-30.288,96.354-56.502c-18.554-7.175-39.735-12.981-62.663-17.252
		C348.628,411.02,344.803,421.948,340.565,432.162z"/>
</g>
<g>
</g>
<g>
</g>
<g>
</g>
<g>
</g>
<g>
</g>
<g>
</g>
<g>
</g>
<g>
</g>
<g>
</g>
<g>
</g>
<g>
</g>
<g>
</g>
<g>
</g>
<g>
</g>
<g>
</g>
</svg>
