<?xml version="1.0" encoding="UTF-8" standalone="no"?>
<svg
   xmlns:dc="http://purl.org/dc/elements/1.1/"
   xmlns:cc="http://creativecommons.org/ns#"
   xmlns:rdf="http://www.w3.org/1999/02/22-rdf-syntax-ns#"
   xmlns:svg="http://www.w3.org/2000/svg"
   xmlns="http://www.w3.org/2000/svg"
   xmlns:sodipodi="http://sodipodi.sourceforge.net/DTD/sodipodi-0.dtd"
   xmlns:inkscape="http://www.inkscape.org/namespaces/inkscape"
   inkscape:export-ydpi="12"
   inkscape:export-xdpi="12"
   inkscape:export-filename="D:\meeeh\Downloads\internet.png"
   inkscape:version="1.0 (4035a4fb49, 2020-05-01)"
   sodipodi:docname="internet.svg"
   xml:space="preserve"
   style="enable-background:new 0 0 512 512;"
   viewBox="0 0 512 512"
   y="0px"
   x="0px"
   id="Capa_1"
   version="1.1"><metadata
   id="metadata199"><rdf:RDF><cc:Work
       rdf:about=""><dc:format>image/svg+xml</dc:format><dc:type
         rdf:resource="http://purl.org/dc/dcmitype/StillImage" /><dc:title></dc:title></cc:Work></rdf:RDF></metadata><defs
   id="defs197">
	
	
	
	
	
	
	
	
</defs><sodipodi:namedview
   inkscape:current-layer="Capa_1"
   inkscape:window-maximized="1"
   inkscape:window-y="-8"
   inkscape:window-x="85"
   inkscape:cy="247.38987"
   inkscape:cx="214.04036"
   inkscape:zoom="1.1973859"
   showguides="false"
   showgrid="false"
   id="namedview195"
   inkscape:window-height="1057"
   inkscape:window-width="1827"
   inkscape:pageshadow="2"
   inkscape:pageopacity="0"
   guidetolerance="10"
   gridtolerance="10"
   objecttolerance="10"
   borderopacity="1"
   bordercolor="#666666"
   pagecolor="#ffffff" />
<path
   id="path140"
   d="M437.02,74.98C388.667,26.629,324.38,0,256,0S123.333,26.629,74.98,74.98  C26.629,123.333,0,187.62,0,256s26.629,132.667,74.98,181.02C123.333,485.371,187.62,512,256,512s132.667-26.629,181.02-74.98  C485.371,388.667,512,324.38,512,256S485.371,123.333,437.02,74.98z"
   style="fill:#86d0f2;fill-opacity:1" />
<path
   id="path142"
   d="M437.02,74.98C388.667,26.629,324.38,0,256,0v512c68.38,0,132.667-26.629,181.02-74.98  C485.371,388.667,512,324.38,512,256S485.371,123.333,437.02,74.98z"
   style="fill:#86d0f2;fill-opacity:1" />
<path
   id="path144"
   d="M322.098,117.078C300.911,119.649,278.685,121,256,121s-44.911-1.351-66.098-3.922  C206.673,62.679,232.145,30,256,30S305.327,62.679,322.098,117.078z M171.199,241c0.896-34.96,4.892-66.857,11.032-94.675  C205.885,149.394,230.717,151,256,151s50.115-1.606,73.769-4.675c6.141,27.817,10.136,59.714,11.032,94.675H171.199z M340.801,271  c-0.896,34.96-4.892,66.857-11.032,94.675C306.115,362.606,281.283,361,256,361s-50.115,1.606-73.769,4.675  c-6.141-27.817-10.136-59.714-11.032-94.675H340.801z M171.435,79.838c-4.238,10.214-8.063,21.142-11.458,32.663  c-22.928-4.271-44.109-10.078-62.663-17.252c26.552-26.214,59.538-45.923,96.354-56.502  C185.531,50.114,178.065,63.86,171.435,79.838z M152.594,141.591c-6.632,30.659-10.533,64.375-11.401,99.409H30.51  c3.006-45.649,19.623-87.634,45.826-121.932C98.439,128.599,124.336,136.201,152.594,141.591z M141.193,271  c0.868,35.034,4.769,68.75,11.401,99.409c-28.258,5.391-54.155,12.992-76.258,22.523C50.133,358.633,33.516,316.649,30.51,271  H141.193z M159.976,399.498c3.396,11.521,7.22,22.45,11.458,32.664c6.63,15.979,14.097,29.725,22.232,41.091  c-36.815-10.579-69.802-30.288-96.354-56.502C115.867,409.576,137.048,403.769,159.976,399.498z M189.902,394.922  C211.089,392.351,233.315,391,256,391s44.911,1.351,66.098,3.922C305.327,449.321,279.855,482,256,482  S206.673,449.321,189.902,394.922z"
   style="fill:#e7f7fe;fill-opacity:1" />
<path
   style="fill:#e7f7fe;fill-opacity:1"
   d="M 329.769,146.325 C 306.115,149.394 281.283,151 256,151 v 90 h 84.801 c -0.896,-34.96 -4.892,-66.857 -11.032,-94.675 z"
   id="path146" /><path
   style="fill:#e7f7fe;fill-opacity:1"
   d="M 340.801,271 H 256 v 90 c 25.283,0 50.115,1.606 73.769,4.675 6.14,-27.818 10.136,-59.715 11.032,-94.675 z"
   id="path148" /><path
   style="fill:#e7f7fe;fill-opacity:1"
   d="m 256,121 c 22.685,0 44.911,-1.351 66.098,-3.922 C 305.327,62.679 279.855,30 256,30 Z"
   id="path150" /><path
   style="fill:#e7f7fe;fill-opacity:1"
   d="m 256,391 v 91 c 23.855,0 49.327,-32.679 66.098,-87.078 C 300.911,392.351 278.685,391 256,391 Z"
   id="path152" /><path
   style="fill:#e7f7fe;fill-opacity:1"
   d="M 370.807,241 H 481.49 c -3.006,-45.649 -19.623,-87.634 -45.826,-121.932 -22.103,9.53 -48,17.132 -76.258,22.523 6.633,30.659 10.533,64.375 11.401,99.409 z"
   id="path154" /><path
   style="fill:#e7f7fe;fill-opacity:1"
   d="m 352.024,112.502 c 22.928,-4.271 44.109,-10.078 62.663,-17.253 -26.552,-26.214 -59.538,-45.923 -96.354,-56.502 8.135,11.367 15.602,25.113 22.232,41.091 4.238,10.214 8.063,21.142 11.459,32.664 z"
   id="path156" /><path
   style="fill:#e7f7fe;fill-opacity:1"
   d="m 359.406,370.409 c 28.258,5.391 54.155,12.993 76.258,22.523 C 461.867,358.634 478.484,316.649 481.49,271 H 370.807 c -0.868,35.034 -4.768,68.75 -11.401,99.409 z"
   id="path158" /><path
   style="fill:#e7f7fe;fill-opacity:1"
   d="m 340.565,432.162 c -6.63,15.979 -14.097,29.725 -22.232,41.091 36.815,-10.579 69.802,-30.288 96.354,-56.502 -18.554,-7.175 -39.735,-12.981 -62.663,-17.252 -3.396,11.521 -7.221,22.449 -11.459,32.663 z"
   id="path160" />
<g
   id="g164">
</g>
<g
   id="g166">
</g>
<g
   id="g168">
</g>
<g
   id="g170">
</g>
<g
   id="g172">
</g>
<g
   id="g174">
</g>
<g
   id="g176">
</g>
<g
   id="g178">
</g>
<g
   id="g180">
</g>
<g
   id="g182">
</g>
<g
   id="g184">
</g>
<g
   id="g186">
</g>
<g
   id="g188">
</g>
<g
   id="g190">
</g>
<g
   id="g192">
</g>
</svg>
