<svg width="17" height="17" viewBox="0 0 17 17" fill="none" xmlns="http://www.w3.org/2000/svg">
<path d="M15.785 0.53757L10.775 2.52857L6.45799 0.548572C6.32799 0.488572 6.178 0.48457 6.045 0.53757L0.828003 2.61057C0.630003 2.68957 0.5 2.88057 0.5 3.09157V15.8786C0.5 16.2446 0.873996 16.4956 1.215 16.3586L6.217 14.3706L10.483 16.4466C10.615 16.5106 10.772 16.5186 10.914 16.4606L16.179 14.2826C16.373 14.2026 16.499 14.0126 16.499 13.8036V1.01757C16.5 0.651566 16.126 0.40157 15.785 0.53757ZM15.457 13.4586L10.732 15.4136L6.46899 13.3396C6.33599 13.2756 6.18201 13.2696 6.04601 13.3236L1.54401 15.1126V3.44257L6.22501 1.58257L10.543 3.56256C10.673 3.62256 10.822 3.62557 10.955 3.57357L15.457 1.78456V13.4586Z" fill="#B3CDD7"/>
<path d="M13.7199 3.59953L10.7879 4.61553L6.45694 2.62953C6.31894 2.56653 6.16093 2.56653 6.02293 2.62753L2.89294 4.03153C2.70594 4.11553 2.58594 4.30053 2.58594 4.50453V12.8235C2.58594 13.1795 2.94095 13.4295 3.27895 13.3125L6.21094 12.2975L10.5419 14.2815C10.6789 14.3435 10.8349 14.3455 10.9719 14.2855L14.1029 12.9025C14.2909 12.8185 14.4139 12.6325 14.4139 12.4275V4.08753C14.4139 3.73153 14.0579 3.48153 13.7199 3.59953ZM10.2419 13.0015L6.76094 11.4065V3.90853L10.2419 5.50353V13.0015Z" fill="#B3CDD7"/>
</svg>
