<svg width="204" height="36" viewBox="0 0 204 36" xmlns="http://www.w3.org/2000/svg">
    <defs>
        <radialGradient cx="74.443%" cy="-16.328%" fx="74.443%" fy="-16.328%" r="119.866%" gradientTransform="matrix(.62186 0 0 1 .281 0)" id="svgo-logo-mobile-1a">
            <stop stop-color="#F58921" offset="0%"/>
            <stop stop-color="#F58921" offset="68.2%"/>
            <stop stop-color="#F48321" offset="73.29%"/>
            <stop stop-color="#EF6722" offset="100%"/>
        </radialGradient>
        <radialGradient cx="22.514%" cy="131.059%" fx="22.514%" fy="131.059%" r="134.758%" gradientTransform="matrix(.62162 0 0 1 .085 0)" id="svgo-logo-mobile-2b">
            <stop stop-color="#F58921" offset="0%"/>
            <stop stop-color="#F58921" offset="27.78%"/>
            <stop stop-color="#F58921" offset="72.96%"/>
            <stop stop-color="#F48221" offset="82.16%"/>
            <stop stop-color="#F17022" offset="95.26%"/>
            <stop stop-color="#EF6722" offset="100%"/>
        </radialGradient>
        <radialGradient cx="20.615%" cy="49.331%" fx="20.615%" fy="49.331%" r="76.163%" gradientTransform="matrix(.6972 0 0 1 .062 0)" id="svgo-logo-mobile-3c">
            <stop stop-color="#005C9B" offset="0%"/>
            <stop stop-color="#004785" offset="24.74%"/>
            <stop stop-color="#00518F" offset="43.03%"/>
            <stop stop-color="#0065A3" offset="66.12%"/>
            <stop stop-color="#1572B0" offset="78.69%"/>
            <stop stop-color="#418ECC" offset="100%"/>
        </radialGradient>
        <radialGradient cx="68.922%" cy="32.62%" fx="68.922%" fy="32.62%" r="85.056%" gradientTransform="matrix(.90955 0 0 1 .062 0)" id="svgo-logo-mobile-4d">
            <stop stop-color="#6DA3D7" offset="0%"/>
            <stop stop-color="#518AC8" offset="20.86%"/>
            <stop stop-color="#4683C1" offset="25.17%"/>
            <stop stop-color="#1461A2" offset="46.07%"/>
            <stop stop-color="#005496" offset="56.36%"/>
            <stop stop-color="#004B8C" offset="69.47%"/>
            <stop stop-color="#005191" offset="79.07%"/>
            <stop stop-color="#00589B" offset="85.88%"/>
            <stop stop-color="#0062A9" offset="92.06%"/>
            <stop stop-color="#2578BA" offset="96.03%"/>
            <stop stop-color="#4E91CD" offset="100%"/>
        </radialGradient>
        <radialGradient cx="26.529%" cy=".001%" fx="26.529%" fy=".001%" r="109.369%" gradientTransform="matrix(.68978 0 0 1 .082 0)" id="svgo-logo-mobile-5e">
            <stop stop-color="#F58921" offset="0%"/>
            <stop stop-color="#F58921" offset="75.34%"/>
            <stop stop-color="#F37D21" offset="85.87%"/>
            <stop stop-color="#EF6722" offset="100%"/>
        </radialGradient>
        <radialGradient cx="95.02%" cy="72.924%" fx="95.02%" fy="72.924%" r="116.338%" gradientTransform="matrix(.68945 0 0 1 .295 0)" id="svgo-logo-mobile-6f">
            <stop stop-color="#F58921" offset="0%"/>
            <stop stop-color="#F58921" offset="65.82%"/>
            <stop stop-color="#EF6922" offset="97.82%"/>
            <stop stop-color="#EF6722" offset="100%"/>
        </radialGradient>
        <radialGradient cx="70.99%" cy="62.712%" fx="70.99%" fy="62.712%" r="75.314%" gradientTransform="matrix(.69718 0 0 1 .215 0)" id="svgo-logo-mobile-7g">
            <stop stop-color="#005C9B" offset="0%"/>
            <stop stop-color="#004785" offset="17.2%"/>
            <stop stop-color="#00518F" offset="31.81%"/>
            <stop stop-color="#0065A3" offset="50.25%"/>
            <stop stop-color="#418ECC" offset="94.44%"/>
            <stop stop-color="#418ECC" offset="100%"/>
        </radialGradient>
    </defs>
    <g fill="none">
        <polygon fill="#0066A5" points="41.1489 21.9938 41.1489 11.9453 42.9888 11.9453 42.9888 16.3023 46.0827 11.9453 48.2823 11.9453 44.5453 16.8862 48.2753 21.9938 46.0827 21.9938 42.9888 17.5926 42.9888 21.9938"/>
        <path d="M49.29 24.508V14.471h1.64v.98h.026c.223-.371.548-.67.966-.892a3.022 3.022 0 011.427-.332c1.04 0 1.92.37 2.645 1.113.73.742 1.09 1.707 1.09 2.894 0 1.094-.338 2.034-1.018 2.823-.681.787-1.589 1.182-2.717 1.182a3.13 3.13 0 01-1.243-.251 2.452 2.452 0 01-1.004-.81h-.025v3.33H49.29zm3.872-8.571c-.654.009-1.184.229-1.586.659-.405.43-.605.975-.605 1.637 0 .703.195 1.262.59 1.676.396.41.905.618 1.534.618.634 0 1.158-.22 1.57-.653.413-.436.624-.984.631-1.657-.007-.65-.21-1.194-.609-1.627-.399-.436-.907-.653-1.525-.653zm12.425-1.468v7.524h-1.64v-1.02h-.029a2.908 2.908 0 01-1.118.943c-.438.204-.89.312-1.367.318-.995 0-1.85-.361-2.57-1.087-.715-.722-1.072-1.674-1.072-2.852 0-1.166.357-2.137 1.068-2.912.712-.773 1.589-1.16 2.626-1.16.524 0 .987.111 1.407.332.414.222.757.546 1.026.972h.03v-1.06l1.64.002zm-3.819 1.467c-.646 0-1.173.225-1.579.672-.409.447-.61 1.011-.61 1.69-.01.653.19 1.187.596 1.605.407.416.94.626 1.593.626.638 0 1.151-.215 1.544-.641.396-.426.593-.984.593-1.672 0-.65-.198-1.194-.593-1.627-.392-.436-.906-.653-1.544-.653zm10.726 3.614h2.017c-.296.821-.76 1.478-1.393 1.963-.631.485-1.395.726-2.291.726-1.183 0-2.161-.383-2.945-1.14-.779-.76-1.169-1.737-1.169-2.92 0-1.12.382-2.061 1.15-2.819.766-.756 1.731-1.133 2.897-1.133.921 0 1.715.25 2.378.747.663.498 1.12 1.16 1.372 1.995h-2.017a1.863 1.863 0 00-.718-.76 2.166 2.166 0 00-1.044-.272c-.69 0-1.233.22-1.632.66-.398.438-.598.974-.598 1.606 0 .671.205 1.23.61 1.672.408.442.95.663 1.62.653.376 0 .721-.082 1.029-.24.31-.157.554-.402.734-.738z" fill="#0066A5"/>
        <polygon fill="#0066A5" points="75.6436 14.4688 77.4312 14.4688 77.4312 17.2381 80.2005 17.2381 80.2005 14.4688 81.9892 14.4688 81.9892 21.993 80.2005 21.993 80.2005 18.8419 77.4312 18.8419 77.4312 21.993 75.6436 21.993"/>
        <path d="M87.02 14.227c1.121 0 2.06.394 2.82 1.182.754.786 1.133 1.734 1.133 2.837 0 1.112-.38 2.056-1.134 2.83-.758.774-1.697 1.161-2.82 1.161-1.129 0-2.07-.387-2.823-1.161-.753-.775-1.126-1.718-1.126-2.83 0-1.104.374-2.05 1.126-2.837.755-.788 1.695-1.182 2.824-1.182zm0 1.71c-.645 0-1.164.228-1.565.68-.398.452-.598.995-.598 1.629-.009.635.19 1.175.59 1.615.405.443.927.667 1.572.667.638.01 1.156-.212 1.558-.661.404-.444.606-.986.606-1.621 0-.634-.202-1.177-.606-1.629-.4-.452-.918-.68-1.557-.68zm10.831-1.468v7.522h-1.787v-2.893l-2.213 2.893h-2.234l2.248-2.66c-.608-.063-1.088-.315-1.44-.758-.355-.447-.528-.98-.528-1.607 0-.68.24-1.261.726-1.75.482-.488 1.144-.737 1.989-.747h3.24zm-1.788 3.49V16.07h-1.386c-.314 0-.557.092-.734.272-.175.183-.259.422-.259.722 0 .262.084.478.26.646.176.167.42.25.733.25l1.386-.001zm3.242 6.549V14.471h1.64v.98h.027c.223-.371.548-.67.966-.892a3.028 3.028 0 011.426-.332c1.042 0 1.923.37 2.647 1.113.727.742 1.092 1.707 1.092 2.894 0 1.094-.343 2.034-1.022 2.823-.685.787-1.588 1.182-2.718 1.182-.438 0-.854-.084-1.24-.251a2.427 2.427 0 01-1.003-.81h-.029v3.33h-1.786zm3.872-8.571c-.654.009-1.184.229-1.586.659-.404.43-.605.975-.605 1.637 0 .703.195 1.262.591 1.676.395.41.904.618 1.534.618.635 0 1.157-.22 1.57-.653.416-.436.626-.984.634-1.657-.008-.65-.214-1.194-.61-1.627-.402-.436-.909-.653-1.528-.653zm10.467 3.613h2.018c-.295.821-.76 1.478-1.392 1.963-.634.485-1.397.726-2.29.726-1.184 0-2.165-.383-2.946-1.14-.779-.76-1.17-1.737-1.17-2.92 0-1.12.383-2.061 1.152-2.819.767-.756 1.73-1.133 2.897-1.133.92 0 1.713.25 2.378.747.665.498 1.117 1.16 1.371 1.995h-2.018a1.845 1.845 0 00-.72-.76 2.162 2.162 0 00-1.041-.272c-.691 0-1.235.22-1.634.66-.398.438-.598.974-.598 1.606 0 .671.204 1.23.611 1.672.406.442.947.663 1.62.653a2.21 2.21 0 001.026-.24c.312-.157.558-.402.736-.738z" fill="#0066A5"/>
        <polygon fill="#0066A5" points="116.775 21.9941 116.775 14.4688 118.566 14.4688 118.566 17.9194 121.224 14.4688 123.357 14.4688 120.382 18.0008 123.507 21.9941 121.252 21.9941 118.566 18.3816 118.566 21.9941"/>
        <path d="M123.586 19.55h2.016c.162.336.39.581.692.739.3.157.653.239 1.056.239.549.01 1.002-.126 1.372-.402.366-.275.62-.642.765-1.093h-3.077V17.43h3.077a2.058 2.058 0 00-.753-1.077c-.367-.277-.818-.415-1.359-.415-.387 0-.736.086-1.054.257-.32.174-.559.431-.722.775h-2.015c.244-.824.693-1.486 1.359-1.989.662-.502 1.466-.754 2.407-.754 1.146 0 2.104.375 2.875 1.127.773.752 1.157 1.694 1.157 2.825 0 1.186-.396 2.16-1.183 2.92-.788.757-1.763 1.14-2.918 1.14-.898 0-1.664-.238-2.312-.726-.642-.485-1.105-1.142-1.383-1.963z" fill="#0066A5"/>
        <polygon fill="#0066A5" points="132.51 14.4688 134.298 14.4688 134.298 17.2381 137.067 17.2381 137.067 14.4688 138.855 14.4688 138.855 21.993 137.067 21.993 137.067 18.8419 134.298 18.8419 134.298 21.993 132.51 21.993"/>
        <path d="M147.742 19.033h-5.838c.109.463.341.826.693 1.093.355.268.774.4 1.258.4.36.008.679-.047.962-.17a1.84 1.84 0 00.705-.535h2.016c-.314.75-.788 1.341-1.423 1.771-.639.433-1.367.647-2.193.647-1.12 0-2.056-.38-2.811-1.14-.751-.765-1.128-1.697-1.128-2.81 0-1.115.379-2.072 1.135-2.868.758-.797 1.702-1.194 2.83-1.194 1.119 0 2.034.383 2.749 1.155.713.769 1.07 1.718 1.083 2.849 0 .185-.007.333-.017.457a5.062 5.062 0 01-.021.345zm-5.862-1.6h4.035c-.128-.462-.367-.827-.729-1.093a2.003 2.003 0 00-1.235-.4 2.231 2.231 0 00-1.297.412 2.051 2.051 0 00-.774 1.081zm7.033 7.075V14.471h1.642v.98h.025c.224-.371.547-.67.97-.892a3.01 3.01 0 011.423-.332c1.039 0 1.92.37 2.649 1.113.726.742 1.09 1.707 1.09 2.894 0 1.094-.342 2.034-1.024 2.823-.679.787-1.588 1.182-2.715 1.182-.435 0-.853-.084-1.243-.251a2.46 2.46 0 01-1.003-.81h-.025v3.33h-1.789zm3.873-8.571c-.655.009-1.185.229-1.586.659-.404.43-.606.975-.606 1.637 0 .703.195 1.262.591 1.676.396.41.905.618 1.533.618.637 0 1.158-.22 1.572-.653.411-.436.624-.984.632-1.657-.008-.65-.216-1.194-.612-1.627-.398-.436-.906-.653-1.524-.653z" fill="#0066A5"/>
        <polygon fill="#0066A5" points="157.785 14.4688 162.008 14.4688 162.008 16.0705 159.573 16.0705 159.573 21.993 157.785 21.993"/>
        <path d="M166.473 14.227c1.117 0 2.061.394 2.819 1.182.756.786 1.135 1.734 1.135 2.837 0 1.112-.379 2.056-1.135 2.83-.758.774-1.7 1.161-2.819 1.161-1.128 0-2.072-.387-2.824-1.161-.752-.775-1.129-1.718-1.129-2.83 0-1.104.377-2.05 1.129-2.837.752-.788 1.696-1.182 2.824-1.182zm0 1.71c-.647 0-1.168.228-1.568.68-.398.452-.598.995-.598 1.629-.011.635.189 1.175.591 1.615.403.443.928.667 1.573.667.638.01 1.157-.212 1.561-.661.401-.444.605-.986.605-1.621 0-.634-.202-1.177-.605-1.629-.403-.452-.923-.68-1.559-.68zm10.48 3.613h2.015c-.295.821-.757 1.478-1.39 1.963-.633.485-1.399.726-2.293.726-1.183 0-2.164-.383-2.946-1.14-.775-.76-1.166-1.737-1.166-2.92 0-1.12.38-2.061 1.148-2.819.768-.756 1.734-1.133 2.895-1.133.926 0 1.72.25 2.381.747.665.498 1.123 1.16 1.371 1.995h-2.015a1.881 1.881 0 00-.719-.76 2.173 2.173 0 00-1.044-.272c-.69 0-1.234.22-1.633.66-.398.438-.598.974-.598 1.606 0 .671.204 1.23.611 1.672.406.442.946.663 1.618.653.377 0 .718-.082 1.026-.24a1.68 1.68 0 00.739-.738zm10.384-7.6v1.6l-2.891.054c-.94.02-1.679.23-2.208.634-.537.402-.857.978-.962 1.732h.024a3.198 3.198 0 011.169-1.021c.478-.245 1.02-.365 1.643-.365 1.029 0 1.878.334 2.538 1.004.664.67.995 1.551.995 2.647 0 1.176-.37 2.14-1.117 2.887-.739.747-1.71 1.122-2.902 1.122-1.28 0-2.249-.402-2.904-1.197-.655-.799-.982-1.961-.982-3.504-.009-1.701.369-3.04 1.15-4.018.775-.979 1.974-1.484 3.597-1.52l2.85-.056zm-3.602 4.235c-.618 0-1.128.2-1.526.598-.398.397-.598.923-.598 1.574 0 .67.189 1.198.576 1.588.386.39.901.584 1.546.584.635 0 1.149-.197 1.531-.6.386-.397.581-.922.591-1.572-.01-.671-.207-1.199-.598-1.59-.387-.387-.896-.582-1.522-.582zm4.974-1.716h1.787v2.633h1.598c.735 0 1.334.216 1.802.646.467.43.699 1.028.699 1.8-.009.759-.243 1.359-.706 1.79-.463.437-1.06.651-1.795.651h-3.385v-7.52zm1.787 4.236v1.684h1.409c.289.01.51-.062.667-.218.155-.15.234-.36.234-.624 0-.253-.076-.453-.229-.606-.152-.147-.376-.228-.674-.236h-1.407zm4.917-4.236h1.787v7.523h-1.787v-7.523z" fill="#0066A5"/>
        <polygon fill="#0066A5" points="198.061 14.4688 203.425 14.4688 203.425 16.0705 201.637 16.0705 201.637 21.993 199.848 21.993 199.848 16.0705 198.061 16.0705"/>
        <path d="M9.402 33.98l-.005-.002c.002.002.002.002.005.002zm-.93-3.761c-.023.025-.05.051-.074.074l-.002.002a3.92 3.92 0 00-.376.448l-.004.004-.046.065c-.002.004-.004.012-.007.015-.016.02-.025.042-.043.062a.03.03 0 01-.01.019c-.01.02-.022.037-.032.06-.002.006-.01.014-.013.018-.008.02-.023.041-.03.06-.002.003-.008.009-.01.018-.047.087-.085.18-.12.265-.001.01-.003.02-.006.022-.004.022-.012.038-.014.054l-.011.029c-.004.017-.01.034-.011.05 0 .01-.002.02-.005.03-.004.016-.011.028-.014.05-.002.01-.002.021-.002.03a.474.474 0 01-.015.08.18.18 0 00-.007.044v.035l-.002.048v.045c0 .022 0 .044.002.067v.04c0 .015 0 .025.002.041 0 .014.004.024.007.04.006.011.006.027.008.04a.16.16 0 01.004.042.086.086 0 00.012.034c.002.02.007.034.009.045a.08.08 0 00.007.036c.004.016.012.031.015.045.002.014.007.024.009.036.007.016.01.034.02.05a.096.096 0 00.01.029.35.35 0 01.033.08c.012.027.028.054.042.081a.07.07 0 00.011.023c.01.019.025.036.032.055.009.01.016.02.016.032.014.017.022.03.036.051.006.01.013.019.02.027.009.02.027.033.036.054.009.01.014.02.02.03.017.015.028.036.042.055l.02.022a.28.28 0 01.05.063c.008.002.015.012.017.022.023.02.045.046.068.073.002 0 .002.004.005.006.05.05.105.107.17.157.006.01.011.014.013.02a.462.462 0 00.078.064l.023.024a.532.532 0 01.067.062.069.069 0 01.03.02c.023.02.05.043.078.06.006.009.018.015.024.022.03.02.058.042.086.065.007.008.016.01.021.016.036.023.07.05.107.073l.004.008c.042.027.084.056.125.081.127.085.259.166.404.241.149.08.295.152.445.228l.03.012c2.77 1.29 7.729 1.912 8.366.76.596-1.066-1.786-3.178-8.056-6.056-.697.438-1.28.868-1.714 1.297z" fill="url(#svgo-logo-mobile-1a)"/>
        <path d="M16.792 1.906c-.593 1.061 1.787 3.177 8.057 6.057.041-.03.084-.055.122-.08V7.88c.28-.179.544-.352.78-.53 0-.002.005-.005.007-.007.035-.023.06-.048.091-.068.004 0 .007-.004.01-.008.036-.023.063-.048.09-.069a1.938 1.938 0 01.1-.074V7.12c.13-.103.245-.203.355-.305l.075-.063c.004-.004.004-.012.01-.017.02-.02.042-.044.063-.06a.032.032 0 00.016-.021c.022-.019.044-.036.066-.057a.035.035 0 01.014-.019l.058-.058a.114.114 0 00.014-.02c.022-.022.038-.044.06-.063.003-.004.006-.004.006-.006.061-.07.124-.146.176-.215l.002-.004c.015-.021.031-.041.043-.061.004-.008.014-.014.017-.022l.037-.055c.003-.01.014-.016.02-.029.008-.014.021-.03.03-.048.006-.009.011-.018.02-.028.008-.017.019-.033.028-.05a.345.345 0 00.046-.08c.007-.009.011-.015.011-.024.011-.02.022-.036.03-.052a.08.08 0 01.007-.02.81.81 0 00.054-.127l.002-.008c.007-.017.016-.032.02-.05a.072.072 0 01.012-.028c.002-.018.007-.031.012-.048.005-.013.01-.02.012-.034.002-.014.006-.026.012-.048.006-.007.008-.022.01-.03.001-.017.005-.03.006-.046a.098.098 0 01.01-.034l.006-.046c0-.012 0-.023.002-.04l.002-.04c.002-.01.002-.023.005-.036l.003-.044v-.05c0-.024 0-.042-.003-.064 0-.011 0-.023-.002-.041a.217.217 0 00-.004-.037c0-.012 0-.031-.002-.04a.168.168 0 00-.005-.04c-.002-.017-.006-.028-.009-.037-.002-.02-.004-.028-.007-.043 0-.014-.004-.026-.009-.043-.002-.013-.013-.022-.013-.04a.298.298 0 00-.013-.04c-.003-.011-.008-.025-.01-.037a.588.588 0 00-.02-.047.05.05 0 00-.013-.032c-.007-.019-.012-.041-.023-.06l-.01-.032c-.016-.022-.025-.046-.04-.066a.116.116 0 00-.017-.033c-.006-.014-.017-.031-.024-.046-.005-.012-.014-.024-.02-.036-.011-.015-.023-.029-.03-.045-.01-.014-.014-.025-.025-.035-.011-.016-.018-.032-.032-.047a.143.143 0 00-.027-.034l-.032-.046c-.008-.014-.019-.021-.027-.032a.2.2 0 00-.042-.05c-.007-.016-.016-.022-.029-.034a.626.626 0 01-.045-.056c-.012-.007-.02-.011-.024-.023l-.076-.08a.052.052 0 00-.024-.015c-.02-.026-.04-.045-.062-.067a.149.149 0 00-.03-.023.312.312 0 00-.059-.053c-.011-.015-.02-.021-.033-.031-.021-.017-.04-.034-.06-.048-.015-.012-.023-.023-.036-.037-.024-.015-.045-.027-.062-.043a.237.237 0 00-.045-.035l-.062-.05c-.017-.01-.025-.024-.046-.03a.984.984 0 00-.072-.057l-.038-.022c-.041-.028-.078-.057-.12-.083a4.413 4.413 0 00-.186-.117h-.002l-.2-.117c-.006-.002-.008-.008-.015-.008-.144-.075-.294-.15-.442-.224l-.03-.015c-1.756-.815-4.385-1.361-6.24-1.361-1.079 0-1.891.181-2.132.605z" fill="url(#svgo-logo-mobile-2b)"/>
        <path d="M25.123 30.938C20.034 33.33 14.647 35.984 17.53 36c7.691.035 14.391-4.946 16.736-12.23-.927 1.998-3.377 4.451-9.143 7.168z" fill="url(#svgo-logo-mobile-3c)"/>
        <path d="M25.648 2.906c.142.081.273.156.39.235 5.475 3.615-6.447 7.184-15.757 11.413C4.015 17.398.055 19.63.467 22.386c.42 2.828 2.802 8.384 8.933 11.595a4.343 4.343 0 01-.404-.243c-5.473-3.616 6.446-7.18 15.76-11.41 6.265-2.845 10.228-5.074 9.817-7.83-.426-2.829-2.801-8.375-8.922-11.591h-.003z" fill="url(#svgo-logo-mobile-4d)"/>
        <path d="M24.76 22.324c-2.352 1.072-4.875 2.097-7.236 3.095 3.962 1.664 7.485 3.253 9.047 4.801 1.771-.908 3.176-1.786 4.284-2.622.004 0 .007-.008.015-.01.085-.067.171-.136.255-.2.006-.005.013-.005.018-.013a8.06 8.06 0 00.244-.194c.009-.004.01-.01.014-.013.082-.062.156-.13.233-.19.002-.004.004-.004.007-.007.071-.063.143-.122.208-.18a.179.179 0 01.042-.035c.058-.057.117-.107.178-.162a.368.368 0 00.055-.053c.052-.046.107-.1.159-.148.02-.02.04-.041.062-.061.048-.048.097-.096.146-.142a.717.717 0 01.065-.063 2.36 2.36 0 01.106-.109c.03-.034.063-.067.09-.1.03-.029.055-.059.082-.087.036-.042.074-.081.11-.119.024-.023.046-.05.067-.075l.12-.14c.014-.017.034-.036.045-.053a7.98 7.98 0 00.241-.303c.003-.002.003-.008.008-.012.052-.064.097-.128.146-.19.002-.003.002-.009.002-.013.295-.4.517-.791.692-1.16.148-.51.249-.976.312-1.384.207-1.403-.712-2.668-2.488-3.945-1.725 1.24-4.247 2.487-7.329 3.887z" fill="url(#svgo-logo-mobile-5e)"/>
        <path d="M3.182 10.104l-.021.018c-.068.06-.134.118-.196.178a.42.42 0 01-.041.032c-.06.057-.117.11-.172.168-.022.013-.031.026-.045.044-.058.05-.112.106-.164.154a.847.847 0 01-.047.049c-.043.047-.088.092-.13.14a.322.322 0 00-.063.065 1.552 1.552 0 00-.108.11l-.076.087c-.032.033-.06.068-.096.104l-.064.073c-.034.042-.067.079-.095.12-.028.026-.05.055-.075.083-.023.032-.047.062-.07.095-.032.035-.06.073-.087.104a.202.202 0 01-.037.048c-.035.056-.076.103-.112.158-.007.011-.02.022-.02.031a5.126 5.126 0 00-.139.19 6.514 6.514 0 00-.547.966 9.96 9.96 0 00-.305 1.374c-.213 1.399.71 2.663 2.488 3.944 1.717-1.241 4.242-2.49 7.325-3.89 2.355-1.068 4.874-2.093 7.24-3.09-3.96-1.673-7.485-3.248-9.045-4.799-2.366 1.212-4.075 2.365-5.298 3.444z" fill="url(#svgo-logo-mobile-6f)"/>
        <path d="M17.431.891C9.769.891 3.109 5.861.773 13.121c.923-2 3.377-4.451 9.143-7.17C15 3.559 20.39.905 17.514.892h-.083z" fill="url(#svgo-logo-mobile-7g)"/>
    </g>
</svg>
