<?xml version="1.0" standalone="no"?>
<svg xmlns:xlink="http://www.w3.org/1999/xlink" version="1.1" xmlns="http://www.w3.org/2000/svg" id="QRCodeGenerate" class="img-fluid mw-75" data-copyright="my-qrcode.net" data-modulecount="65" data-defaultsize="670" data-defaultclass="img-fluid mw-75" data-text="https://apps.apple.com/ru/app/%D0%BB%D0%BA-%D0%B4%D1%8D%D0%BA-%D0%B5%D1%80%D0%B8%D1%86-%D0%B0%D0%BC%D1%83%D1%80%D1%81%D0%BA%D0%B0%D1%8F-%D0%BE%D0%B1%D0%BB%D0%B0%D1%81%D1%82%D1%8C/id1438220944" data-color="rgb(0, 0, 0)" data-backcolor="none" data-typeicon="none" data-framesize="none" data-framewidth="0" data-titlelocation="none" data-titlefont="sans-serif" data-titletext="" data-typenumber="0" data-errorcorrectionlevel="Q" data-mode="Byte" data-mb="UTF-8" width="670px" height="670px" x="0px" y="0px" viewBox="0 0 670 670" preserveAspectRatio="xMinYMin meet"><rect width="100%" height="100%" fill="none" x="0" y="0"/><path d="M10,10l10,0 0,10 -10,0 0,-10z M20,10l10,0 0,10 -10,0 0,-10z M30,10l10,0 0,10 -10,0 0,-10z M40,10l10,0 0,10 -10,0 0,-10z M50,10l10,0 0,10 -10,0 0,-10z M60,10l10,0 0,10 -10,0 0,-10z M70,10l10,0 0,10 -10,0 0,-10z M150,10l10,0 0,10 -10,0 0,-10z M170,10l10,0 0,10 -10,0 0,-10z M180,10l10,0 0,10 -10,0 0,-10z M220,10l10,0 0,10 -10,0 0,-10z M250,10l10,0 0,10 -10,0 0,-10z M260,10l10,0 0,10 -10,0 0,-10z M270,10l10,0 0,10 -10,0 0,-10z M300,10l10,0 0,10 -10,0 0,-10z M370,10l10,0 0,10 -10,0 0,-10z M380,10l10,0 0,10 -10,0 0,-10z M420,10l10,0 0,10 -10,0 0,-10z M450,10l10,0 0,10 -10,0 0,-10z M560,10l10,0 0,10 -10,0 0,-10z M590,10l10,0 0,10 -10,0 0,-10z M600,10l10,0 0,10 -10,0 0,-10z M610,10l10,0 0,10 -10,0 0,-10z M620,10l10,0 0,10 -10,0 0,-10z M630,10l10,0 0,10 -10,0 0,-10z M640,10l10,0 0,10 -10,0 0,-10z M650,10l10,0 0,10 -10,0 0,-10z M10,20l10,0 0,10 -10,0 0,-10z M70,20l10,0 0,10 -10,0 0,-10z M90,20l10,0 0,10 -10,0 0,-10z M100,20l10,0 0,10 -10,0 0,-10z M110,20l10,0 0,10 -10,0 0,-10z M130,20l10,0 0,10 -10,0 0,-10z M140,20l10,0 0,10 -10,0 0,-10z M160,20l10,0 0,10 -10,0 0,-10z M170,20l10,0 0,10 -10,0 0,-10z M180,20l10,0 0,10 -10,0 0,-10z M190,20l10,0 0,10 -10,0 0,-10z M200,20l10,0 0,10 -10,0 0,-10z M230,20l10,0 0,10 -10,0 0,-10z M250,20l10,0 0,10 -10,0 0,-10z M270,20l10,0 0,10 -10,0 0,-10z M280,20l10,0 0,10 -10,0 0,-10z M290,20l10,0 0,10 -10,0 0,-10z M300,20l10,0 0,10 -10,0 0,-10z M310,20l10,0 0,10 -10,0 0,-10z M320,20l10,0 0,10 -10,0 0,-10z M360,20l10,0 0,10 -10,0 0,-10z M370,20l10,0 0,10 -10,0 0,-10z M390,20l10,0 0,10 -10,0 0,-10z M400,20l10,0 0,10 -10,0 0,-10z M420,20l10,0 0,10 -10,0 0,-10z M440,20l10,0 0,10 -10,0 0,-10z M480,20l10,0 0,10 -10,0 0,-10z M570,20l10,0 0,10 -10,0 0,-10z M590,20l10,0 0,10 -10,0 0,-10z M650,20l10,0 0,10 -10,0 0,-10z M10,30l10,0 0,10 -10,0 0,-10z M30,30l10,0 0,10 -10,0 0,-10z M40,30l10,0 0,10 -10,0 0,-10z M50,30l10,0 0,10 -10,0 0,-10z M70,30l10,0 0,10 -10,0 0,-10z M90,30l10,0 0,10 -10,0 0,-10z M100,30l10,0 0,10 -10,0 0,-10z M200,30l10,0 0,10 -10,0 0,-10z M240,30l10,0 0,10 -10,0 0,-10z M270,30l10,0 0,10 -10,0 0,-10z M290,30l10,0 0,10 -10,0 0,-10z M320,30l10,0 0,10 -10,0 0,-10z M360,30l10,0 0,10 -10,0 0,-10z M370,30l10,0 0,10 -10,0 0,-10z M440,30l10,0 0,10 -10,0 0,-10z M460,30l10,0 0,10 -10,0 0,-10z M470,30l10,0 0,10 -10,0 0,-10z M490,30l10,0 0,10 -10,0 0,-10z M500,30l10,0 0,10 -10,0 0,-10z M550,30l10,0 0,10 -10,0 0,-10z M570,30l10,0 0,10 -10,0 0,-10z M590,30l10,0 0,10 -10,0 0,-10z M610,30l10,0 0,10 -10,0 0,-10z M620,30l10,0 0,10 -10,0 0,-10z M630,30l10,0 0,10 -10,0 0,-10z M650,30l10,0 0,10 -10,0 0,-10z M10,40l10,0 0,10 -10,0 0,-10z M30,40l10,0 0,10 -10,0 0,-10z M40,40l10,0 0,10 -10,0 0,-10z M50,40l10,0 0,10 -10,0 0,-10z M70,40l10,0 0,10 -10,0 0,-10z M110,40l10,0 0,10 -10,0 0,-10z M150,40l10,0 0,10 -10,0 0,-10z M170,40l10,0 0,10 -10,0 0,-10z M180,40l10,0 0,10 -10,0 0,-10z M190,40l10,0 0,10 -10,0 0,-10z M200,40l10,0 0,10 -10,0 0,-10z M230,40l10,0 0,10 -10,0 0,-10z M250,40l10,0 0,10 -10,0 0,-10z M310,40l10,0 0,10 -10,0 0,-10z M320,40l10,0 0,10 -10,0 0,-10z M330,40l10,0 0,10 -10,0 0,-10z M360,40l10,0 0,10 -10,0 0,-10z M420,40l10,0 0,10 -10,0 0,-10z M430,40l10,0 0,10 -10,0 0,-10z M440,40l10,0 0,10 -10,0 0,-10z M460,40l10,0 0,10 -10,0 0,-10z M490,40l10,0 0,10 -10,0 0,-10z M520,40l10,0 0,10 -10,0 0,-10z M550,40l10,0 0,10 -10,0 0,-10z M560,40l10,0 0,10 -10,0 0,-10z M590,40l10,0 0,10 -10,0 0,-10z M610,40l10,0 0,10 -10,0 0,-10z M620,40l10,0 0,10 -10,0 0,-10z M630,40l10,0 0,10 -10,0 0,-10z M650,40l10,0 0,10 -10,0 0,-10z M10,50l10,0 0,10 -10,0 0,-10z M30,50l10,0 0,10 -10,0 0,-10z M40,50l10,0 0,10 -10,0 0,-10z M50,50l10,0 0,10 -10,0 0,-10z M70,50l10,0 0,10 -10,0 0,-10z M100,50l10,0 0,10 -10,0 0,-10z M110,50l10,0 0,10 -10,0 0,-10z M130,50l10,0 0,10 -10,0 0,-10z M140,50l10,0 0,10 -10,0 0,-10z M150,50l10,0 0,10 -10,0 0,-10z M170,50l10,0 0,10 -10,0 0,-10z M180,50l10,0 0,10 -10,0 0,-10z M190,50l10,0 0,10 -10,0 0,-10z M200,50l10,0 0,10 -10,0 0,-10z M210,50l10,0 0,10 -10,0 0,-10z M220,50l10,0 0,10 -10,0 0,-10z M230,50l10,0 0,10 -10,0 0,-10z M250,50l10,0 0,10 -10,0 0,-10z M270,50l10,0 0,10 -10,0 0,-10z M280,50l10,0 0,10 -10,0 0,-10z M290,50l10,0 0,10 -10,0 0,-10z M300,50l10,0 0,10 -10,0 0,-10z M310,50l10,0 0,10 -10,0 0,-10z M320,50l10,0 0,10 -10,0 0,-10z M330,50l10,0 0,10 -10,0 0,-10z M340,50l10,0 0,10 -10,0 0,-10z M350,50l10,0 0,10 -10,0 0,-10z M390,50l10,0 0,10 -10,0 0,-10z M450,50l10,0 0,10 -10,0 0,-10z M510,50l10,0 0,10 -10,0 0,-10z M520,50l10,0 0,10 -10,0 0,-10z M570,50l10,0 0,10 -10,0 0,-10z M590,50l10,0 0,10 -10,0 0,-10z M610,50l10,0 0,10 -10,0 0,-10z M620,50l10,0 0,10 -10,0 0,-10z M630,50l10,0 0,10 -10,0 0,-10z M650,50l10,0 0,10 -10,0 0,-10z M10,60l10,0 0,10 -10,0 0,-10z M70,60l10,0 0,10 -10,0 0,-10z M110,60l10,0 0,10 -10,0 0,-10z M120,60l10,0 0,10 -10,0 0,-10z M130,60l10,0 0,10 -10,0 0,-10z M150,60l10,0 0,10 -10,0 0,-10z M160,60l10,0 0,10 -10,0 0,-10z M170,60l10,0 0,10 -10,0 0,-10z M200,60l10,0 0,10 -10,0 0,-10z M210,60l10,0 0,10 -10,0 0,-10z M220,60l10,0 0,10 -10,0 0,-10z M260,60l10,0 0,10 -10,0 0,-10z M270,60l10,0 0,10 -10,0 0,-10z M300,60l10,0 0,10 -10,0 0,-10z M310,60l10,0 0,10 -10,0 0,-10z M350,60l10,0 0,10 -10,0 0,-10z M370,60l10,0 0,10 -10,0 0,-10z M390,60l10,0 0,10 -10,0 0,-10z M400,60l10,0 0,10 -10,0 0,-10z M420,60l10,0 0,10 -10,0 0,-10z M430,60l10,0 0,10 -10,0 0,-10z M440,60l10,0 0,10 -10,0 0,-10z M450,60l10,0 0,10 -10,0 0,-10z M460,60l10,0 0,10 -10,0 0,-10z M500,60l10,0 0,10 -10,0 0,-10z M510,60l10,0 0,10 -10,0 0,-10z M520,60l10,0 0,10 -10,0 0,-10z M540,60l10,0 0,10 -10,0 0,-10z M550,60l10,0 0,10 -10,0 0,-10z M590,60l10,0 0,10 -10,0 0,-10z M650,60l10,0 0,10 -10,0 0,-10z M10,70l10,0 0,10 -10,0 0,-10z M20,70l10,0 0,10 -10,0 0,-10z M30,70l10,0 0,10 -10,0 0,-10z M40,70l10,0 0,10 -10,0 0,-10z M50,70l10,0 0,10 -10,0 0,-10z M60,70l10,0 0,10 -10,0 0,-10z M70,70l10,0 0,10 -10,0 0,-10z M90,70l10,0 0,10 -10,0 0,-10z M110,70l10,0 0,10 -10,0 0,-10z M130,70l10,0 0,10 -10,0 0,-10z M150,70l10,0 0,10 -10,0 0,-10z M170,70l10,0 0,10 -10,0 0,-10z M190,70l10,0 0,10 -10,0 0,-10z M210,70l10,0 0,10 -10,0 0,-10z M230,70l10,0 0,10 -10,0 0,-10z M250,70l10,0 0,10 -10,0 0,-10z M270,70l10,0 0,10 -10,0 0,-10z M290,70l10,0 0,10 -10,0 0,-10z M310,70l10,0 0,10 -10,0 0,-10z M330,70l10,0 0,10 -10,0 0,-10z M350,70l10,0 0,10 -10,0 0,-10z M370,70l10,0 0,10 -10,0 0,-10z M390,70l10,0 0,10 -10,0 0,-10z M410,70l10,0 0,10 -10,0 0,-10z M430,70l10,0 0,10 -10,0 0,-10z M450,70l10,0 0,10 -10,0 0,-10z M470,70l10,0 0,10 -10,0 0,-10z M490,70l10,0 0,10 -10,0 0,-10z M510,70l10,0 0,10 -10,0 0,-10z M530,70l10,0 0,10 -10,0 0,-10z M550,70l10,0 0,10 -10,0 0,-10z M570,70l10,0 0,10 -10,0 0,-10z M590,70l10,0 0,10 -10,0 0,-10z M600,70l10,0 0,10 -10,0 0,-10z M610,70l10,0 0,10 -10,0 0,-10z M620,70l10,0 0,10 -10,0 0,-10z M630,70l10,0 0,10 -10,0 0,-10z M640,70l10,0 0,10 -10,0 0,-10z M650,70l10,0 0,10 -10,0 0,-10z M110,80l10,0 0,10 -10,0 0,-10z M150,80l10,0 0,10 -10,0 0,-10z M180,80l10,0 0,10 -10,0 0,-10z M210,80l10,0 0,10 -10,0 0,-10z M240,80l10,0 0,10 -10,0 0,-10z M250,80l10,0 0,10 -10,0 0,-10z M270,80l10,0 0,10 -10,0 0,-10z M280,80l10,0 0,10 -10,0 0,-10z M300,80l10,0 0,10 -10,0 0,-10z M310,80l10,0 0,10 -10,0 0,-10z M350,80l10,0 0,10 -10,0 0,-10z M360,80l10,0 0,10 -10,0 0,-10z M390,80l10,0 0,10 -10,0 0,-10z M400,80l10,0 0,10 -10,0 0,-10z M440,80l10,0 0,10 -10,0 0,-10z M480,80l10,0 0,10 -10,0 0,-10z M490,80l10,0 0,10 -10,0 0,-10z M500,80l10,0 0,10 -10,0 0,-10z M510,80l10,0 0,10 -10,0 0,-10z M520,80l10,0 0,10 -10,0 0,-10z M530,80l10,0 0,10 -10,0 0,-10z M540,80l10,0 0,10 -10,0 0,-10z M560,80l10,0 0,10 -10,0 0,-10z M570,80l10,0 0,10 -10,0 0,-10z M20,90l10,0 0,10 -10,0 0,-10z M30,90l10,0 0,10 -10,0 0,-10z M40,90l10,0 0,10 -10,0 0,-10z M60,90l10,0 0,10 -10,0 0,-10z M70,90l10,0 0,10 -10,0 0,-10z M100,90l10,0 0,10 -10,0 0,-10z M140,90l10,0 0,10 -10,0 0,-10z M150,90l10,0 0,10 -10,0 0,-10z M180,90l10,0 0,10 -10,0 0,-10z M190,90l10,0 0,10 -10,0 0,-10z M200,90l10,0 0,10 -10,0 0,-10z M220,90l10,0 0,10 -10,0 0,-10z M240,90l10,0 0,10 -10,0 0,-10z M280,90l10,0 0,10 -10,0 0,-10z M290,90l10,0 0,10 -10,0 0,-10z M310,90l10,0 0,10 -10,0 0,-10z M320,90l10,0 0,10 -10,0 0,-10z M330,90l10,0 0,10 -10,0 0,-10z M340,90l10,0 0,10 -10,0 0,-10z M350,90l10,0 0,10 -10,0 0,-10z M360,90l10,0 0,10 -10,0 0,-10z M370,90l10,0 0,10 -10,0 0,-10z M380,90l10,0 0,10 -10,0 0,-10z M410,90l10,0 0,10 -10,0 0,-10z M420,90l10,0 0,10 -10,0 0,-10z M440,90l10,0 0,10 -10,0 0,-10z M460,90l10,0 0,10 -10,0 0,-10z M470,90l10,0 0,10 -10,0 0,-10z M500,90l10,0 0,10 -10,0 0,-10z M530,90l10,0 0,10 -10,0 0,-10z M540,90l10,0 0,10 -10,0 0,-10z M550,90l10,0 0,10 -10,0 0,-10z M570,90l10,0 0,10 -10,0 0,-10z M630,90l10,0 0,10 -10,0 0,-10z M640,90l10,0 0,10 -10,0 0,-10z M20,100l10,0 0,10 -10,0 0,-10z M30,100l10,0 0,10 -10,0 0,-10z M60,100l10,0 0,10 -10,0 0,-10z M120,100l10,0 0,10 -10,0 0,-10z M150,100l10,0 0,10 -10,0 0,-10z M170,100l10,0 0,10 -10,0 0,-10z M180,100l10,0 0,10 -10,0 0,-10z M190,100l10,0 0,10 -10,0 0,-10z M200,100l10,0 0,10 -10,0 0,-10z M210,100l10,0 0,10 -10,0 0,-10z M230,100l10,0 0,10 -10,0 0,-10z M240,100l10,0 0,10 -10,0 0,-10z M250,100l10,0 0,10 -10,0 0,-10z M280,100l10,0 0,10 -10,0 0,-10z M310,100l10,0 0,10 -10,0 0,-10z M340,100l10,0 0,10 -10,0 0,-10z M350,100l10,0 0,10 -10,0 0,-10z M360,100l10,0 0,10 -10,0 0,-10z M420,100l10,0 0,10 -10,0 0,-10z M430,100l10,0 0,10 -10,0 0,-10z M460,100l10,0 0,10 -10,0 0,-10z M490,100l10,0 0,10 -10,0 0,-10z M520,100l10,0 0,10 -10,0 0,-10z M530,100l10,0 0,10 -10,0 0,-10z M550,100l10,0 0,10 -10,0 0,-10z M580,100l10,0 0,10 -10,0 0,-10z M640,100l10,0 0,10 -10,0 0,-10z M10,110l10,0 0,10 -10,0 0,-10z M20,110l10,0 0,10 -10,0 0,-10z M30,110l10,0 0,10 -10,0 0,-10z M40,110l10,0 0,10 -10,0 0,-10z M60,110l10,0 0,10 -10,0 0,-10z M70,110l10,0 0,10 -10,0 0,-10z M80,110l10,0 0,10 -10,0 0,-10z M120,110l10,0 0,10 -10,0 0,-10z M130,110l10,0 0,10 -10,0 0,-10z M140,110l10,0 0,10 -10,0 0,-10z M150,110l10,0 0,10 -10,0 0,-10z M160,110l10,0 0,10 -10,0 0,-10z M170,110l10,0 0,10 -10,0 0,-10z M200,110l10,0 0,10 -10,0 0,-10z M220,110l10,0 0,10 -10,0 0,-10z M230,110l10,0 0,10 -10,0 0,-10z M250,110l10,0 0,10 -10,0 0,-10z M260,110l10,0 0,10 -10,0 0,-10z M270,110l10,0 0,10 -10,0 0,-10z M280,110l10,0 0,10 -10,0 0,-10z M310,110l10,0 0,10 -10,0 0,-10z M350,110l10,0 0,10 -10,0 0,-10z M360,110l10,0 0,10 -10,0 0,-10z M370,110l10,0 0,10 -10,0 0,-10z M420,110l10,0 0,10 -10,0 0,-10z M440,110l10,0 0,10 -10,0 0,-10z M450,110l10,0 0,10 -10,0 0,-10z M460,110l10,0 0,10 -10,0 0,-10z M480,110l10,0 0,10 -10,0 0,-10z M500,110l10,0 0,10 -10,0 0,-10z M540,110l10,0 0,10 -10,0 0,-10z M550,110l10,0 0,10 -10,0 0,-10z M570,110l10,0 0,10 -10,0 0,-10z M580,110l10,0 0,10 -10,0 0,-10z M590,110l10,0 0,10 -10,0 0,-10z M600,110l10,0 0,10 -10,0 0,-10z M640,110l10,0 0,10 -10,0 0,-10z M20,120l10,0 0,10 -10,0 0,-10z M80,120l10,0 0,10 -10,0 0,-10z M100,120l10,0 0,10 -10,0 0,-10z M130,120l10,0 0,10 -10,0 0,-10z M150,120l10,0 0,10 -10,0 0,-10z M180,120l10,0 0,10 -10,0 0,-10z M190,120l10,0 0,10 -10,0 0,-10z M230,120l10,0 0,10 -10,0 0,-10z M240,120l10,0 0,10 -10,0 0,-10z M250,120l10,0 0,10 -10,0 0,-10z M260,120l10,0 0,10 -10,0 0,-10z M270,120l10,0 0,10 -10,0 0,-10z M280,120l10,0 0,10 -10,0 0,-10z M320,120l10,0 0,10 -10,0 0,-10z M330,120l10,0 0,10 -10,0 0,-10z M350,120l10,0 0,10 -10,0 0,-10z M370,120l10,0 0,10 -10,0 0,-10z M430,120l10,0 0,10 -10,0 0,-10z M440,120l10,0 0,10 -10,0 0,-10z M450,120l10,0 0,10 -10,0 0,-10z M470,120l10,0 0,10 -10,0 0,-10z M490,120l10,0 0,10 -10,0 0,-10z M500,120l10,0 0,10 -10,0 0,-10z M510,120l10,0 0,10 -10,0 0,-10z M530,120l10,0 0,10 -10,0 0,-10z M580,120l10,0 0,10 -10,0 0,-10z M590,120l10,0 0,10 -10,0 0,-10z M600,120l10,0 0,10 -10,0 0,-10z M610,120l10,0 0,10 -10,0 0,-10z M620,120l10,0 0,10 -10,0 0,-10z M640,120l10,0 0,10 -10,0 0,-10z M650,120l10,0 0,10 -10,0 0,-10z M20,130l10,0 0,10 -10,0 0,-10z M30,130l10,0 0,10 -10,0 0,-10z M60,130l10,0 0,10 -10,0 0,-10z M70,130l10,0 0,10 -10,0 0,-10z M90,130l10,0 0,10 -10,0 0,-10z M110,130l10,0 0,10 -10,0 0,-10z M120,130l10,0 0,10 -10,0 0,-10z M140,130l10,0 0,10 -10,0 0,-10z M160,130l10,0 0,10 -10,0 0,-10z M170,130l10,0 0,10 -10,0 0,-10z M180,130l10,0 0,10 -10,0 0,-10z M200,130l10,0 0,10 -10,0 0,-10z M210,130l10,0 0,10 -10,0 0,-10z M220,130l10,0 0,10 -10,0 0,-10z M260,130l10,0 0,10 -10,0 0,-10z M270,130l10,0 0,10 -10,0 0,-10z M290,130l10,0 0,10 -10,0 0,-10z M300,130l10,0 0,10 -10,0 0,-10z M310,130l10,0 0,10 -10,0 0,-10z M320,130l10,0 0,10 -10,0 0,-10z M330,130l10,0 0,10 -10,0 0,-10z M340,130l10,0 0,10 -10,0 0,-10z M350,130l10,0 0,10 -10,0 0,-10z M360,130l10,0 0,10 -10,0 0,-10z M370,130l10,0 0,10 -10,0 0,-10z M380,130l10,0 0,10 -10,0 0,-10z M430,130l10,0 0,10 -10,0 0,-10z M460,130l10,0 0,10 -10,0 0,-10z M490,130l10,0 0,10 -10,0 0,-10z M550,130l10,0 0,10 -10,0 0,-10z M580,130l10,0 0,10 -10,0 0,-10z M610,130l10,0 0,10 -10,0 0,-10z M620,130l10,0 0,10 -10,0 0,-10z M630,130l10,0 0,10 -10,0 0,-10z M40,140l10,0 0,10 -10,0 0,-10z M50,140l10,0 0,10 -10,0 0,-10z M60,140l10,0 0,10 -10,0 0,-10z M80,140l10,0 0,10 -10,0 0,-10z M100,140l10,0 0,10 -10,0 0,-10z M110,140l10,0 0,10 -10,0 0,-10z M120,140l10,0 0,10 -10,0 0,-10z M150,140l10,0 0,10 -10,0 0,-10z M160,140l10,0 0,10 -10,0 0,-10z M180,140l10,0 0,10 -10,0 0,-10z M190,140l10,0 0,10 -10,0 0,-10z M200,140l10,0 0,10 -10,0 0,-10z M230,140l10,0 0,10 -10,0 0,-10z M260,140l10,0 0,10 -10,0 0,-10z M270,140l10,0 0,10 -10,0 0,-10z M300,140l10,0 0,10 -10,0 0,-10z M330,140l10,0 0,10 -10,0 0,-10z M350,140l10,0 0,10 -10,0 0,-10z M360,140l10,0 0,10 -10,0 0,-10z M370,140l10,0 0,10 -10,0 0,-10z M380,140l10,0 0,10 -10,0 0,-10z M390,140l10,0 0,10 -10,0 0,-10z M400,140l10,0 0,10 -10,0 0,-10z M460,140l10,0 0,10 -10,0 0,-10z M480,140l10,0 0,10 -10,0 0,-10z M510,140l10,0 0,10 -10,0 0,-10z M520,140l10,0 0,10 -10,0 0,-10z M540,140l10,0 0,10 -10,0 0,-10z M560,140l10,0 0,10 -10,0 0,-10z M570,140l10,0 0,10 -10,0 0,-10z M580,140l10,0 0,10 -10,0 0,-10z M600,140l10,0 0,10 -10,0 0,-10z M620,140l10,0 0,10 -10,0 0,-10z M630,140l10,0 0,10 -10,0 0,-10z M650,140l10,0 0,10 -10,0 0,-10z M40,150l10,0 0,10 -10,0 0,-10z M50,150l10,0 0,10 -10,0 0,-10z M60,150l10,0 0,10 -10,0 0,-10z M70,150l10,0 0,10 -10,0 0,-10z M90,150l10,0 0,10 -10,0 0,-10z M110,150l10,0 0,10 -10,0 0,-10z M180,150l10,0 0,10 -10,0 0,-10z M200,150l10,0 0,10 -10,0 0,-10z M240,150l10,0 0,10 -10,0 0,-10z M250,150l10,0 0,10 -10,0 0,-10z M270,150l10,0 0,10 -10,0 0,-10z M280,150l10,0 0,10 -10,0 0,-10z M290,150l10,0 0,10 -10,0 0,-10z M310,150l10,0 0,10 -10,0 0,-10z M360,150l10,0 0,10 -10,0 0,-10z M380,150l10,0 0,10 -10,0 0,-10z M460,150l10,0 0,10 -10,0 0,-10z M510,150l10,0 0,10 -10,0 0,-10z M520,150l10,0 0,10 -10,0 0,-10z M530,150l10,0 0,10 -10,0 0,-10z M550,150l10,0 0,10 -10,0 0,-10z M580,150l10,0 0,10 -10,0 0,-10z M610,150l10,0 0,10 -10,0 0,-10z M650,150l10,0 0,10 -10,0 0,-10z M20,160l10,0 0,10 -10,0 0,-10z M30,160l10,0 0,10 -10,0 0,-10z M40,160l10,0 0,10 -10,0 0,-10z M50,160l10,0 0,10 -10,0 0,-10z M60,160l10,0 0,10 -10,0 0,-10z M90,160l10,0 0,10 -10,0 0,-10z M100,160l10,0 0,10 -10,0 0,-10z M110,160l10,0 0,10 -10,0 0,-10z M140,160l10,0 0,10 -10,0 0,-10z M170,160l10,0 0,10 -10,0 0,-10z M200,160l10,0 0,10 -10,0 0,-10z M210,160l10,0 0,10 -10,0 0,-10z M220,160l10,0 0,10 -10,0 0,-10z M240,160l10,0 0,10 -10,0 0,-10z M260,160l10,0 0,10 -10,0 0,-10z M270,160l10,0 0,10 -10,0 0,-10z M280,160l10,0 0,10 -10,0 0,-10z M290,160l10,0 0,10 -10,0 0,-10z M310,160l10,0 0,10 -10,0 0,-10z M320,160l10,0 0,10 -10,0 0,-10z M340,160l10,0 0,10 -10,0 0,-10z M350,160l10,0 0,10 -10,0 0,-10z M380,160l10,0 0,10 -10,0 0,-10z M410,160l10,0 0,10 -10,0 0,-10z M430,160l10,0 0,10 -10,0 0,-10z M450,160l10,0 0,10 -10,0 0,-10z M480,160l10,0 0,10 -10,0 0,-10z M500,160l10,0 0,10 -10,0 0,-10z M510,160l10,0 0,10 -10,0 0,-10z M530,160l10,0 0,10 -10,0 0,-10z M550,160l10,0 0,10 -10,0 0,-10z M560,160l10,0 0,10 -10,0 0,-10z M590,160l10,0 0,10 -10,0 0,-10z M600,160l10,0 0,10 -10,0 0,-10z M620,160l10,0 0,10 -10,0 0,-10z M640,160l10,0 0,10 -10,0 0,-10z M20,170l10,0 0,10 -10,0 0,-10z M30,170l10,0 0,10 -10,0 0,-10z M40,170l10,0 0,10 -10,0 0,-10z M50,170l10,0 0,10 -10,0 0,-10z M70,170l10,0 0,10 -10,0 0,-10z M100,170l10,0 0,10 -10,0 0,-10z M110,170l10,0 0,10 -10,0 0,-10z M140,170l10,0 0,10 -10,0 0,-10z M160,170l10,0 0,10 -10,0 0,-10z M170,170l10,0 0,10 -10,0 0,-10z M180,170l10,0 0,10 -10,0 0,-10z M210,170l10,0 0,10 -10,0 0,-10z M240,170l10,0 0,10 -10,0 0,-10z M250,170l10,0 0,10 -10,0 0,-10z M260,170l10,0 0,10 -10,0 0,-10z M270,170l10,0 0,10 -10,0 0,-10z M280,170l10,0 0,10 -10,0 0,-10z M290,170l10,0 0,10 -10,0 0,-10z M340,170l10,0 0,10 -10,0 0,-10z M350,170l10,0 0,10 -10,0 0,-10z M370,170l10,0 0,10 -10,0 0,-10z M380,170l10,0 0,10 -10,0 0,-10z M390,170l10,0 0,10 -10,0 0,-10z M420,170l10,0 0,10 -10,0 0,-10z M450,170l10,0 0,10 -10,0 0,-10z M460,170l10,0 0,10 -10,0 0,-10z M480,170l10,0 0,10 -10,0 0,-10z M520,170l10,0 0,10 -10,0 0,-10z M540,170l10,0 0,10 -10,0 0,-10z M550,170l10,0 0,10 -10,0 0,-10z M560,170l10,0 0,10 -10,0 0,-10z M580,170l10,0 0,10 -10,0 0,-10z M600,170l10,0 0,10 -10,0 0,-10z M630,170l10,0 0,10 -10,0 0,-10z M30,180l10,0 0,10 -10,0 0,-10z M90,180l10,0 0,10 -10,0 0,-10z M100,180l10,0 0,10 -10,0 0,-10z M110,180l10,0 0,10 -10,0 0,-10z M120,180l10,0 0,10 -10,0 0,-10z M140,180l10,0 0,10 -10,0 0,-10z M170,180l10,0 0,10 -10,0 0,-10z M190,180l10,0 0,10 -10,0 0,-10z M200,180l10,0 0,10 -10,0 0,-10z M250,180l10,0 0,10 -10,0 0,-10z M260,180l10,0 0,10 -10,0 0,-10z M270,180l10,0 0,10 -10,0 0,-10z M280,180l10,0 0,10 -10,0 0,-10z M300,180l10,0 0,10 -10,0 0,-10z M310,180l10,0 0,10 -10,0 0,-10z M320,180l10,0 0,10 -10,0 0,-10z M330,180l10,0 0,10 -10,0 0,-10z M340,180l10,0 0,10 -10,0 0,-10z M350,180l10,0 0,10 -10,0 0,-10z M360,180l10,0 0,10 -10,0 0,-10z M370,180l10,0 0,10 -10,0 0,-10z M460,180l10,0 0,10 -10,0 0,-10z M470,180l10,0 0,10 -10,0 0,-10z M510,180l10,0 0,10 -10,0 0,-10z M520,180l10,0 0,10 -10,0 0,-10z M530,180l10,0 0,10 -10,0 0,-10z M590,180l10,0 0,10 -10,0 0,-10z M20,190l10,0 0,10 -10,0 0,-10z M30,190l10,0 0,10 -10,0 0,-10z M60,190l10,0 0,10 -10,0 0,-10z M70,190l10,0 0,10 -10,0 0,-10z M100,190l10,0 0,10 -10,0 0,-10z M140,190l10,0 0,10 -10,0 0,-10z M180,190l10,0 0,10 -10,0 0,-10z M200,190l10,0 0,10 -10,0 0,-10z M220,190l10,0 0,10 -10,0 0,-10z M230,190l10,0 0,10 -10,0 0,-10z M240,190l10,0 0,10 -10,0 0,-10z M250,190l10,0 0,10 -10,0 0,-10z M270,190l10,0 0,10 -10,0 0,-10z M280,190l10,0 0,10 -10,0 0,-10z M300,190l10,0 0,10 -10,0 0,-10z M310,190l10,0 0,10 -10,0 0,-10z M330,190l10,0 0,10 -10,0 0,-10z M340,190l10,0 0,10 -10,0 0,-10z M350,190l10,0 0,10 -10,0 0,-10z M370,190l10,0 0,10 -10,0 0,-10z M400,190l10,0 0,10 -10,0 0,-10z M460,190l10,0 0,10 -10,0 0,-10z M480,190l10,0 0,10 -10,0 0,-10z M490,190l10,0 0,10 -10,0 0,-10z M520,190l10,0 0,10 -10,0 0,-10z M540,190l10,0 0,10 -10,0 0,-10z M570,190l10,0 0,10 -10,0 0,-10z M580,190l10,0 0,10 -10,0 0,-10z M590,190l10,0 0,10 -10,0 0,-10z M600,190l10,0 0,10 -10,0 0,-10z M610,190l10,0 0,10 -10,0 0,-10z M620,190l10,0 0,10 -10,0 0,-10z M20,200l10,0 0,10 -10,0 0,-10z M40,200l10,0 0,10 -10,0 0,-10z M50,200l10,0 0,10 -10,0 0,-10z M60,200l10,0 0,10 -10,0 0,-10z M80,200l10,0 0,10 -10,0 0,-10z M100,200l10,0 0,10 -10,0 0,-10z M120,200l10,0 0,10 -10,0 0,-10z M130,200l10,0 0,10 -10,0 0,-10z M140,200l10,0 0,10 -10,0 0,-10z M180,200l10,0 0,10 -10,0 0,-10z M200,200l10,0 0,10 -10,0 0,-10z M220,200l10,0 0,10 -10,0 0,-10z M260,200l10,0 0,10 -10,0 0,-10z M290,200l10,0 0,10 -10,0 0,-10z M320,200l10,0 0,10 -10,0 0,-10z M340,200l10,0 0,10 -10,0 0,-10z M350,200l10,0 0,10 -10,0 0,-10z M390,200l10,0 0,10 -10,0 0,-10z M400,200l10,0 0,10 -10,0 0,-10z M410,200l10,0 0,10 -10,0 0,-10z M460,200l10,0 0,10 -10,0 0,-10z M480,200l10,0 0,10 -10,0 0,-10z M500,200l10,0 0,10 -10,0 0,-10z M530,200l10,0 0,10 -10,0 0,-10z M570,200l10,0 0,10 -10,0 0,-10z M600,200l10,0 0,10 -10,0 0,-10z M610,200l10,0 0,10 -10,0 0,-10z M620,200l10,0 0,10 -10,0 0,-10z M630,200l10,0 0,10 -10,0 0,-10z M650,200l10,0 0,10 -10,0 0,-10z M10,210l10,0 0,10 -10,0 0,-10z M30,210l10,0 0,10 -10,0 0,-10z M50,210l10,0 0,10 -10,0 0,-10z M70,210l10,0 0,10 -10,0 0,-10z M90,210l10,0 0,10 -10,0 0,-10z M100,210l10,0 0,10 -10,0 0,-10z M120,210l10,0 0,10 -10,0 0,-10z M130,210l10,0 0,10 -10,0 0,-10z M140,210l10,0 0,10 -10,0 0,-10z M160,210l10,0 0,10 -10,0 0,-10z M180,210l10,0 0,10 -10,0 0,-10z M220,210l10,0 0,10 -10,0 0,-10z M230,210l10,0 0,10 -10,0 0,-10z M250,210l10,0 0,10 -10,0 0,-10z M260,210l10,0 0,10 -10,0 0,-10z M270,210l10,0 0,10 -10,0 0,-10z M290,210l10,0 0,10 -10,0 0,-10z M300,210l10,0 0,10 -10,0 0,-10z M310,210l10,0 0,10 -10,0 0,-10z M320,210l10,0 0,10 -10,0 0,-10z M340,210l10,0 0,10 -10,0 0,-10z M350,210l10,0 0,10 -10,0 0,-10z M370,210l10,0 0,10 -10,0 0,-10z M380,210l10,0 0,10 -10,0 0,-10z M410,210l10,0 0,10 -10,0 0,-10z M420,210l10,0 0,10 -10,0 0,-10z M440,210l10,0 0,10 -10,0 0,-10z M470,210l10,0 0,10 -10,0 0,-10z M480,210l10,0 0,10 -10,0 0,-10z M510,210l10,0 0,10 -10,0 0,-10z M530,210l10,0 0,10 -10,0 0,-10z M570,210l10,0 0,10 -10,0 0,-10z M580,210l10,0 0,10 -10,0 0,-10z M590,210l10,0 0,10 -10,0 0,-10z M620,210l10,0 0,10 -10,0 0,-10z M640,210l10,0 0,10 -10,0 0,-10z M20,220l10,0 0,10 -10,0 0,-10z M30,220l10,0 0,10 -10,0 0,-10z M40,220l10,0 0,10 -10,0 0,-10z M120,220l10,0 0,10 -10,0 0,-10z M130,220l10,0 0,10 -10,0 0,-10z M170,220l10,0 0,10 -10,0 0,-10z M190,220l10,0 0,10 -10,0 0,-10z M200,220l10,0 0,10 -10,0 0,-10z M210,220l10,0 0,10 -10,0 0,-10z M230,220l10,0 0,10 -10,0 0,-10z M250,220l10,0 0,10 -10,0 0,-10z M260,220l10,0 0,10 -10,0 0,-10z M270,220l10,0 0,10 -10,0 0,-10z M280,220l10,0 0,10 -10,0 0,-10z M290,220l10,0 0,10 -10,0 0,-10z M310,220l10,0 0,10 -10,0 0,-10z M320,220l10,0 0,10 -10,0 0,-10z M330,220l10,0 0,10 -10,0 0,-10z M340,220l10,0 0,10 -10,0 0,-10z M370,220l10,0 0,10 -10,0 0,-10z M400,220l10,0 0,10 -10,0 0,-10z M420,220l10,0 0,10 -10,0 0,-10z M430,220l10,0 0,10 -10,0 0,-10z M460,220l10,0 0,10 -10,0 0,-10z M480,220l10,0 0,10 -10,0 0,-10z M490,220l10,0 0,10 -10,0 0,-10z M500,220l10,0 0,10 -10,0 0,-10z M530,220l10,0 0,10 -10,0 0,-10z M550,220l10,0 0,10 -10,0 0,-10z M560,220l10,0 0,10 -10,0 0,-10z M580,220l10,0 0,10 -10,0 0,-10z M600,220l10,0 0,10 -10,0 0,-10z M610,220l10,0 0,10 -10,0 0,-10z M620,220l10,0 0,10 -10,0 0,-10z M650,220l10,0 0,10 -10,0 0,-10z M10,230l10,0 0,10 -10,0 0,-10z M20,230l10,0 0,10 -10,0 0,-10z M30,230l10,0 0,10 -10,0 0,-10z M40,230l10,0 0,10 -10,0 0,-10z M70,230l10,0 0,10 -10,0 0,-10z M90,230l10,0 0,10 -10,0 0,-10z M100,230l10,0 0,10 -10,0 0,-10z M120,230l10,0 0,10 -10,0 0,-10z M130,230l10,0 0,10 -10,0 0,-10z M150,230l10,0 0,10 -10,0 0,-10z M160,230l10,0 0,10 -10,0 0,-10z M200,230l10,0 0,10 -10,0 0,-10z M220,230l10,0 0,10 -10,0 0,-10z M260,230l10,0 0,10 -10,0 0,-10z M270,230l10,0 0,10 -10,0 0,-10z M280,230l10,0 0,10 -10,0 0,-10z M290,230l10,0 0,10 -10,0 0,-10z M340,230l10,0 0,10 -10,0 0,-10z M350,230l10,0 0,10 -10,0 0,-10z M360,230l10,0 0,10 -10,0 0,-10z M400,230l10,0 0,10 -10,0 0,-10z M420,230l10,0 0,10 -10,0 0,-10z M450,230l10,0 0,10 -10,0 0,-10z M460,230l10,0 0,10 -10,0 0,-10z M470,230l10,0 0,10 -10,0 0,-10z M520,230l10,0 0,10 -10,0 0,-10z M530,230l10,0 0,10 -10,0 0,-10z M550,230l10,0 0,10 -10,0 0,-10z M570,230l10,0 0,10 -10,0 0,-10z M590,230l10,0 0,10 -10,0 0,-10z M600,230l10,0 0,10 -10,0 0,-10z M620,230l10,0 0,10 -10,0 0,-10z M630,230l10,0 0,10 -10,0 0,-10z M650,230l10,0 0,10 -10,0 0,-10z M20,240l10,0 0,10 -10,0 0,-10z M40,240l10,0 0,10 -10,0 0,-10z M50,240l10,0 0,10 -10,0 0,-10z M60,240l10,0 0,10 -10,0 0,-10z M80,240l10,0 0,10 -10,0 0,-10z M100,240l10,0 0,10 -10,0 0,-10z M130,240l10,0 0,10 -10,0 0,-10z M140,240l10,0 0,10 -10,0 0,-10z M160,240l10,0 0,10 -10,0 0,-10z M180,240l10,0 0,10 -10,0 0,-10z M200,240l10,0 0,10 -10,0 0,-10z M240,240l10,0 0,10 -10,0 0,-10z M270,240l10,0 0,10 -10,0 0,-10z M280,240l10,0 0,10 -10,0 0,-10z M290,240l10,0 0,10 -10,0 0,-10z M300,240l10,0 0,10 -10,0 0,-10z M330,240l10,0 0,10 -10,0 0,-10z M360,240l10,0 0,10 -10,0 0,-10z M380,240l10,0 0,10 -10,0 0,-10z M420,240l10,0 0,10 -10,0 0,-10z M450,240l10,0 0,10 -10,0 0,-10z M470,240l10,0 0,10 -10,0 0,-10z M490,240l10,0 0,10 -10,0 0,-10z M500,240l10,0 0,10 -10,0 0,-10z M530,240l10,0 0,10 -10,0 0,-10z M550,240l10,0 0,10 -10,0 0,-10z M560,240l10,0 0,10 -10,0 0,-10z M580,240l10,0 0,10 -10,0 0,-10z M610,240l10,0 0,10 -10,0 0,-10z M620,240l10,0 0,10 -10,0 0,-10z M650,240l10,0 0,10 -10,0 0,-10z M10,250l10,0 0,10 -10,0 0,-10z M20,250l10,0 0,10 -10,0 0,-10z M30,250l10,0 0,10 -10,0 0,-10z M40,250l10,0 0,10 -10,0 0,-10z M50,250l10,0 0,10 -10,0 0,-10z M60,250l10,0 0,10 -10,0 0,-10z M70,250l10,0 0,10 -10,0 0,-10z M80,250l10,0 0,10 -10,0 0,-10z M170,250l10,0 0,10 -10,0 0,-10z M200,250l10,0 0,10 -10,0 0,-10z M210,250l10,0 0,10 -10,0 0,-10z M240,250l10,0 0,10 -10,0 0,-10z M260,250l10,0 0,10 -10,0 0,-10z M280,250l10,0 0,10 -10,0 0,-10z M290,250l10,0 0,10 -10,0 0,-10z M300,250l10,0 0,10 -10,0 0,-10z M310,250l10,0 0,10 -10,0 0,-10z M340,250l10,0 0,10 -10,0 0,-10z M360,250l10,0 0,10 -10,0 0,-10z M370,250l10,0 0,10 -10,0 0,-10z M400,250l10,0 0,10 -10,0 0,-10z M420,250l10,0 0,10 -10,0 0,-10z M430,250l10,0 0,10 -10,0 0,-10z M490,250l10,0 0,10 -10,0 0,-10z M520,250l10,0 0,10 -10,0 0,-10z M540,250l10,0 0,10 -10,0 0,-10z M550,250l10,0 0,10 -10,0 0,-10z M560,250l10,0 0,10 -10,0 0,-10z M570,250l10,0 0,10 -10,0 0,-10z M610,250l10,0 0,10 -10,0 0,-10z M630,250l10,0 0,10 -10,0 0,-10z M640,250l10,0 0,10 -10,0 0,-10z M30,260l10,0 0,10 -10,0 0,-10z M50,260l10,0 0,10 -10,0 0,-10z M110,260l10,0 0,10 -10,0 0,-10z M120,260l10,0 0,10 -10,0 0,-10z M130,260l10,0 0,10 -10,0 0,-10z M150,260l10,0 0,10 -10,0 0,-10z M160,260l10,0 0,10 -10,0 0,-10z M190,260l10,0 0,10 -10,0 0,-10z M250,260l10,0 0,10 -10,0 0,-10z M260,260l10,0 0,10 -10,0 0,-10z M280,260l10,0 0,10 -10,0 0,-10z M300,260l10,0 0,10 -10,0 0,-10z M310,260l10,0 0,10 -10,0 0,-10z M320,260l10,0 0,10 -10,0 0,-10z M350,260l10,0 0,10 -10,0 0,-10z M390,260l10,0 0,10 -10,0 0,-10z M400,260l10,0 0,10 -10,0 0,-10z M420,260l10,0 0,10 -10,0 0,-10z M450,260l10,0 0,10 -10,0 0,-10z M490,260l10,0 0,10 -10,0 0,-10z M500,260l10,0 0,10 -10,0 0,-10z M510,260l10,0 0,10 -10,0 0,-10z M540,260l10,0 0,10 -10,0 0,-10z M570,260l10,0 0,10 -10,0 0,-10z M630,260l10,0 0,10 -10,0 0,-10z M640,260l10,0 0,10 -10,0 0,-10z M650,260l10,0 0,10 -10,0 0,-10z M10,270l10,0 0,10 -10,0 0,-10z M20,270l10,0 0,10 -10,0 0,-10z M40,270l10,0 0,10 -10,0 0,-10z M70,270l10,0 0,10 -10,0 0,-10z M100,270l10,0 0,10 -10,0 0,-10z M110,270l10,0 0,10 -10,0 0,-10z M140,270l10,0 0,10 -10,0 0,-10z M150,270l10,0 0,10 -10,0 0,-10z M160,270l10,0 0,10 -10,0 0,-10z M170,270l10,0 0,10 -10,0 0,-10z M190,270l10,0 0,10 -10,0 0,-10z M200,270l10,0 0,10 -10,0 0,-10z M250,270l10,0 0,10 -10,0 0,-10z M260,270l10,0 0,10 -10,0 0,-10z M270,270l10,0 0,10 -10,0 0,-10z M280,270l10,0 0,10 -10,0 0,-10z M330,270l10,0 0,10 -10,0 0,-10z M370,270l10,0 0,10 -10,0 0,-10z M380,270l10,0 0,10 -10,0 0,-10z M390,270l10,0 0,10 -10,0 0,-10z M410,270l10,0 0,10 -10,0 0,-10z M420,270l10,0 0,10 -10,0 0,-10z M430,270l10,0 0,10 -10,0 0,-10z M440,270l10,0 0,10 -10,0 0,-10z M450,270l10,0 0,10 -10,0 0,-10z M480,270l10,0 0,10 -10,0 0,-10z M490,270l10,0 0,10 -10,0 0,-10z M510,270l10,0 0,10 -10,0 0,-10z M520,270l10,0 0,10 -10,0 0,-10z M530,270l10,0 0,10 -10,0 0,-10z M540,270l10,0 0,10 -10,0 0,-10z M550,270l10,0 0,10 -10,0 0,-10z M560,270l10,0 0,10 -10,0 0,-10z M650,270l10,0 0,10 -10,0 0,-10z M30,280l10,0 0,10 -10,0 0,-10z M50,280l10,0 0,10 -10,0 0,-10z M120,280l10,0 0,10 -10,0 0,-10z M160,280l10,0 0,10 -10,0 0,-10z M180,280l10,0 0,10 -10,0 0,-10z M190,280l10,0 0,10 -10,0 0,-10z M230,280l10,0 0,10 -10,0 0,-10z M270,280l10,0 0,10 -10,0 0,-10z M300,280l10,0 0,10 -10,0 0,-10z M320,280l10,0 0,10 -10,0 0,-10z M330,280l10,0 0,10 -10,0 0,-10z M350,280l10,0 0,10 -10,0 0,-10z M360,280l10,0 0,10 -10,0 0,-10z M370,280l10,0 0,10 -10,0 0,-10z M380,280l10,0 0,10 -10,0 0,-10z M400,280l10,0 0,10 -10,0 0,-10z M410,280l10,0 0,10 -10,0 0,-10z M420,280l10,0 0,10 -10,0 0,-10z M440,280l10,0 0,10 -10,0 0,-10z M450,280l10,0 0,10 -10,0 0,-10z M480,280l10,0 0,10 -10,0 0,-10z M530,280l10,0 0,10 -10,0 0,-10z M550,280l10,0 0,10 -10,0 0,-10z M610,280l10,0 0,10 -10,0 0,-10z M640,280l10,0 0,10 -10,0 0,-10z M40,290l10,0 0,10 -10,0 0,-10z M50,290l10,0 0,10 -10,0 0,-10z M70,290l10,0 0,10 -10,0 0,-10z M90,290l10,0 0,10 -10,0 0,-10z M110,290l10,0 0,10 -10,0 0,-10z M150,290l10,0 0,10 -10,0 0,-10z M170,290l10,0 0,10 -10,0 0,-10z M180,290l10,0 0,10 -10,0 0,-10z M190,290l10,0 0,10 -10,0 0,-10z M200,290l10,0 0,10 -10,0 0,-10z M220,290l10,0 0,10 -10,0 0,-10z M230,290l10,0 0,10 -10,0 0,-10z M240,290l10,0 0,10 -10,0 0,-10z M250,290l10,0 0,10 -10,0 0,-10z M270,290l10,0 0,10 -10,0 0,-10z M280,290l10,0 0,10 -10,0 0,-10z M290,290l10,0 0,10 -10,0 0,-10z M300,290l10,0 0,10 -10,0 0,-10z M310,290l10,0 0,10 -10,0 0,-10z M320,290l10,0 0,10 -10,0 0,-10z M360,290l10,0 0,10 -10,0 0,-10z M370,290l10,0 0,10 -10,0 0,-10z M390,290l10,0 0,10 -10,0 0,-10z M450,290l10,0 0,10 -10,0 0,-10z M460,290l10,0 0,10 -10,0 0,-10z M550,290l10,0 0,10 -10,0 0,-10z M570,290l10,0 0,10 -10,0 0,-10z M640,290l10,0 0,10 -10,0 0,-10z M20,300l10,0 0,10 -10,0 0,-10z M50,300l10,0 0,10 -10,0 0,-10z M80,300l10,0 0,10 -10,0 0,-10z M90,300l10,0 0,10 -10,0 0,-10z M100,300l10,0 0,10 -10,0 0,-10z M120,300l10,0 0,10 -10,0 0,-10z M140,300l10,0 0,10 -10,0 0,-10z M160,300l10,0 0,10 -10,0 0,-10z M210,300l10,0 0,10 -10,0 0,-10z M230,300l10,0 0,10 -10,0 0,-10z M240,300l10,0 0,10 -10,0 0,-10z M260,300l10,0 0,10 -10,0 0,-10z M320,300l10,0 0,10 -10,0 0,-10z M330,300l10,0 0,10 -10,0 0,-10z M350,300l10,0 0,10 -10,0 0,-10z M360,300l10,0 0,10 -10,0 0,-10z M370,300l10,0 0,10 -10,0 0,-10z M380,300l10,0 0,10 -10,0 0,-10z M410,300l10,0 0,10 -10,0 0,-10z M460,300l10,0 0,10 -10,0 0,-10z M470,300l10,0 0,10 -10,0 0,-10z M500,300l10,0 0,10 -10,0 0,-10z M520,300l10,0 0,10 -10,0 0,-10z M530,300l10,0 0,10 -10,0 0,-10z M590,300l10,0 0,10 -10,0 0,-10z M600,300l10,0 0,10 -10,0 0,-10z M620,300l10,0 0,10 -10,0 0,-10z M640,300l10,0 0,10 -10,0 0,-10z M10,310l10,0 0,10 -10,0 0,-10z M20,310l10,0 0,10 -10,0 0,-10z M40,310l10,0 0,10 -10,0 0,-10z M50,310l10,0 0,10 -10,0 0,-10z M60,310l10,0 0,10 -10,0 0,-10z M70,310l10,0 0,10 -10,0 0,-10z M80,310l10,0 0,10 -10,0 0,-10z M90,310l10,0 0,10 -10,0 0,-10z M100,310l10,0 0,10 -10,0 0,-10z M110,310l10,0 0,10 -10,0 0,-10z M160,310l10,0 0,10 -10,0 0,-10z M170,310l10,0 0,10 -10,0 0,-10z M180,310l10,0 0,10 -10,0 0,-10z M190,310l10,0 0,10 -10,0 0,-10z M200,310l10,0 0,10 -10,0 0,-10z M240,310l10,0 0,10 -10,0 0,-10z M250,310l10,0 0,10 -10,0 0,-10z M260,310l10,0 0,10 -10,0 0,-10z M270,310l10,0 0,10 -10,0 0,-10z M300,310l10,0 0,10 -10,0 0,-10z M310,310l10,0 0,10 -10,0 0,-10z M320,310l10,0 0,10 -10,0 0,-10z M330,310l10,0 0,10 -10,0 0,-10z M340,310l10,0 0,10 -10,0 0,-10z M350,310l10,0 0,10 -10,0 0,-10z M370,310l10,0 0,10 -10,0 0,-10z M380,310l10,0 0,10 -10,0 0,-10z M390,310l10,0 0,10 -10,0 0,-10z M400,310l10,0 0,10 -10,0 0,-10z M440,310l10,0 0,10 -10,0 0,-10z M460,310l10,0 0,10 -10,0 0,-10z M490,310l10,0 0,10 -10,0 0,-10z M500,310l10,0 0,10 -10,0 0,-10z M510,310l10,0 0,10 -10,0 0,-10z M540,310l10,0 0,10 -10,0 0,-10z M560,310l10,0 0,10 -10,0 0,-10z M570,310l10,0 0,10 -10,0 0,-10z M580,310l10,0 0,10 -10,0 0,-10z M590,310l10,0 0,10 -10,0 0,-10z M600,310l10,0 0,10 -10,0 0,-10z M610,310l10,0 0,10 -10,0 0,-10z M620,310l10,0 0,10 -10,0 0,-10z M630,310l10,0 0,10 -10,0 0,-10z M640,310l10,0 0,10 -10,0 0,-10z M30,320l10,0 0,10 -10,0 0,-10z M40,320l10,0 0,10 -10,0 0,-10z M50,320l10,0 0,10 -10,0 0,-10z M90,320l10,0 0,10 -10,0 0,-10z M100,320l10,0 0,10 -10,0 0,-10z M130,320l10,0 0,10 -10,0 0,-10z M170,320l10,0 0,10 -10,0 0,-10z M180,320l10,0 0,10 -10,0 0,-10z M200,320l10,0 0,10 -10,0 0,-10z M230,320l10,0 0,10 -10,0 0,-10z M240,320l10,0 0,10 -10,0 0,-10z M260,320l10,0 0,10 -10,0 0,-10z M270,320l10,0 0,10 -10,0 0,-10z M310,320l10,0 0,10 -10,0 0,-10z M350,320l10,0 0,10 -10,0 0,-10z M360,320l10,0 0,10 -10,0 0,-10z M380,320l10,0 0,10 -10,0 0,-10z M400,320l10,0 0,10 -10,0 0,-10z M410,320l10,0 0,10 -10,0 0,-10z M420,320l10,0 0,10 -10,0 0,-10z M460,320l10,0 0,10 -10,0 0,-10z M480,320l10,0 0,10 -10,0 0,-10z M500,320l10,0 0,10 -10,0 0,-10z M510,320l10,0 0,10 -10,0 0,-10z M570,320l10,0 0,10 -10,0 0,-10z M610,320l10,0 0,10 -10,0 0,-10z M630,320l10,0 0,10 -10,0 0,-10z M20,330l10,0 0,10 -10,0 0,-10z M40,330l10,0 0,10 -10,0 0,-10z M50,330l10,0 0,10 -10,0 0,-10z M70,330l10,0 0,10 -10,0 0,-10z M90,330l10,0 0,10 -10,0 0,-10z M100,330l10,0 0,10 -10,0 0,-10z M110,330l10,0 0,10 -10,0 0,-10z M130,330l10,0 0,10 -10,0 0,-10z M140,330l10,0 0,10 -10,0 0,-10z M150,330l10,0 0,10 -10,0 0,-10z M180,330l10,0 0,10 -10,0 0,-10z M210,330l10,0 0,10 -10,0 0,-10z M220,330l10,0 0,10 -10,0 0,-10z M230,330l10,0 0,10 -10,0 0,-10z M260,330l10,0 0,10 -10,0 0,-10z M300,330l10,0 0,10 -10,0 0,-10z M310,330l10,0 0,10 -10,0 0,-10z M330,330l10,0 0,10 -10,0 0,-10z M350,330l10,0 0,10 -10,0 0,-10z M380,330l10,0 0,10 -10,0 0,-10z M390,330l10,0 0,10 -10,0 0,-10z M410,330l10,0 0,10 -10,0 0,-10z M440,330l10,0 0,10 -10,0 0,-10z M460,330l10,0 0,10 -10,0 0,-10z M470,330l10,0 0,10 -10,0 0,-10z M480,330l10,0 0,10 -10,0 0,-10z M490,330l10,0 0,10 -10,0 0,-10z M520,330l10,0 0,10 -10,0 0,-10z M530,330l10,0 0,10 -10,0 0,-10z M540,330l10,0 0,10 -10,0 0,-10z M570,330l10,0 0,10 -10,0 0,-10z M590,330l10,0 0,10 -10,0 0,-10z M610,330l10,0 0,10 -10,0 0,-10z M630,330l10,0 0,10 -10,0 0,-10z M640,330l10,0 0,10 -10,0 0,-10z M650,330l10,0 0,10 -10,0 0,-10z M20,340l10,0 0,10 -10,0 0,-10z M30,340l10,0 0,10 -10,0 0,-10z M50,340l10,0 0,10 -10,0 0,-10z M90,340l10,0 0,10 -10,0 0,-10z M110,340l10,0 0,10 -10,0 0,-10z M150,340l10,0 0,10 -10,0 0,-10z M160,340l10,0 0,10 -10,0 0,-10z M170,340l10,0 0,10 -10,0 0,-10z M180,340l10,0 0,10 -10,0 0,-10z M190,340l10,0 0,10 -10,0 0,-10z M200,340l10,0 0,10 -10,0 0,-10z M210,340l10,0 0,10 -10,0 0,-10z M220,340l10,0 0,10 -10,0 0,-10z M230,340l10,0 0,10 -10,0 0,-10z M250,340l10,0 0,10 -10,0 0,-10z M300,340l10,0 0,10 -10,0 0,-10z M310,340l10,0 0,10 -10,0 0,-10z M350,340l10,0 0,10 -10,0 0,-10z M360,340l10,0 0,10 -10,0 0,-10z M370,340l10,0 0,10 -10,0 0,-10z M380,340l10,0 0,10 -10,0 0,-10z M390,340l10,0 0,10 -10,0 0,-10z M400,340l10,0 0,10 -10,0 0,-10z M430,340l10,0 0,10 -10,0 0,-10z M550,340l10,0 0,10 -10,0 0,-10z M570,340l10,0 0,10 -10,0 0,-10z M610,340l10,0 0,10 -10,0 0,-10z M620,340l10,0 0,10 -10,0 0,-10z M630,340l10,0 0,10 -10,0 0,-10z M640,340l10,0 0,10 -10,0 0,-10z M50,350l10,0 0,10 -10,0 0,-10z M60,350l10,0 0,10 -10,0 0,-10z M70,350l10,0 0,10 -10,0 0,-10z M80,350l10,0 0,10 -10,0 0,-10z M90,350l10,0 0,10 -10,0 0,-10z M100,350l10,0 0,10 -10,0 0,-10z M120,350l10,0 0,10 -10,0 0,-10z M130,350l10,0 0,10 -10,0 0,-10z M150,350l10,0 0,10 -10,0 0,-10z M170,350l10,0 0,10 -10,0 0,-10z M240,350l10,0 0,10 -10,0 0,-10z M270,350l10,0 0,10 -10,0 0,-10z M280,350l10,0 0,10 -10,0 0,-10z M290,350l10,0 0,10 -10,0 0,-10z M300,350l10,0 0,10 -10,0 0,-10z M310,350l10,0 0,10 -10,0 0,-10z M320,350l10,0 0,10 -10,0 0,-10z M330,350l10,0 0,10 -10,0 0,-10z M340,350l10,0 0,10 -10,0 0,-10z M350,350l10,0 0,10 -10,0 0,-10z M360,350l10,0 0,10 -10,0 0,-10z M370,350l10,0 0,10 -10,0 0,-10z M390,350l10,0 0,10 -10,0 0,-10z M400,350l10,0 0,10 -10,0 0,-10z M420,350l10,0 0,10 -10,0 0,-10z M430,350l10,0 0,10 -10,0 0,-10z M450,350l10,0 0,10 -10,0 0,-10z M490,350l10,0 0,10 -10,0 0,-10z M520,350l10,0 0,10 -10,0 0,-10z M540,350l10,0 0,10 -10,0 0,-10z M550,350l10,0 0,10 -10,0 0,-10z M570,350l10,0 0,10 -10,0 0,-10z M580,350l10,0 0,10 -10,0 0,-10z M590,350l10,0 0,10 -10,0 0,-10z M600,350l10,0 0,10 -10,0 0,-10z M610,350l10,0 0,10 -10,0 0,-10z M620,350l10,0 0,10 -10,0 0,-10z M640,350l10,0 0,10 -10,0 0,-10z M10,360l10,0 0,10 -10,0 0,-10z M20,360l10,0 0,10 -10,0 0,-10z M80,360l10,0 0,10 -10,0 0,-10z M90,360l10,0 0,10 -10,0 0,-10z M120,360l10,0 0,10 -10,0 0,-10z M140,360l10,0 0,10 -10,0 0,-10z M160,360l10,0 0,10 -10,0 0,-10z M180,360l10,0 0,10 -10,0 0,-10z M190,360l10,0 0,10 -10,0 0,-10z M220,360l10,0 0,10 -10,0 0,-10z M230,360l10,0 0,10 -10,0 0,-10z M250,360l10,0 0,10 -10,0 0,-10z M290,360l10,0 0,10 -10,0 0,-10z M330,360l10,0 0,10 -10,0 0,-10z M340,360l10,0 0,10 -10,0 0,-10z M350,360l10,0 0,10 -10,0 0,-10z M380,360l10,0 0,10 -10,0 0,-10z M410,360l10,0 0,10 -10,0 0,-10z M440,360l10,0 0,10 -10,0 0,-10z M450,360l10,0 0,10 -10,0 0,-10z M460,360l10,0 0,10 -10,0 0,-10z M470,360l10,0 0,10 -10,0 0,-10z M520,360l10,0 0,10 -10,0 0,-10z M540,360l10,0 0,10 -10,0 0,-10z M560,360l10,0 0,10 -10,0 0,-10z M570,360l10,0 0,10 -10,0 0,-10z M580,360l10,0 0,10 -10,0 0,-10z M600,360l10,0 0,10 -10,0 0,-10z M40,370l10,0 0,10 -10,0 0,-10z M50,370l10,0 0,10 -10,0 0,-10z M70,370l10,0 0,10 -10,0 0,-10z M100,370l10,0 0,10 -10,0 0,-10z M110,370l10,0 0,10 -10,0 0,-10z M140,370l10,0 0,10 -10,0 0,-10z M150,370l10,0 0,10 -10,0 0,-10z M160,370l10,0 0,10 -10,0 0,-10z M170,370l10,0 0,10 -10,0 0,-10z M190,370l10,0 0,10 -10,0 0,-10z M200,370l10,0 0,10 -10,0 0,-10z M210,370l10,0 0,10 -10,0 0,-10z M240,370l10,0 0,10 -10,0 0,-10z M260,370l10,0 0,10 -10,0 0,-10z M280,370l10,0 0,10 -10,0 0,-10z M300,370l10,0 0,10 -10,0 0,-10z M310,370l10,0 0,10 -10,0 0,-10z M330,370l10,0 0,10 -10,0 0,-10z M350,370l10,0 0,10 -10,0 0,-10z M390,370l10,0 0,10 -10,0 0,-10z M420,370l10,0 0,10 -10,0 0,-10z M440,370l10,0 0,10 -10,0 0,-10z M480,370l10,0 0,10 -10,0 0,-10z M490,370l10,0 0,10 -10,0 0,-10z M500,370l10,0 0,10 -10,0 0,-10z M520,370l10,0 0,10 -10,0 0,-10z M550,370l10,0 0,10 -10,0 0,-10z M570,370l10,0 0,10 -10,0 0,-10z M630,370l10,0 0,10 -10,0 0,-10z M640,370l10,0 0,10 -10,0 0,-10z M20,380l10,0 0,10 -10,0 0,-10z M30,380l10,0 0,10 -10,0 0,-10z M40,380l10,0 0,10 -10,0 0,-10z M50,380l10,0 0,10 -10,0 0,-10z M80,380l10,0 0,10 -10,0 0,-10z M160,380l10,0 0,10 -10,0 0,-10z M250,380l10,0 0,10 -10,0 0,-10z M260,380l10,0 0,10 -10,0 0,-10z M270,380l10,0 0,10 -10,0 0,-10z M280,380l10,0 0,10 -10,0 0,-10z M290,380l10,0 0,10 -10,0 0,-10z M300,380l10,0 0,10 -10,0 0,-10z M310,380l10,0 0,10 -10,0 0,-10z M330,380l10,0 0,10 -10,0 0,-10z M360,380l10,0 0,10 -10,0 0,-10z M370,380l10,0 0,10 -10,0 0,-10z M380,380l10,0 0,10 -10,0 0,-10z M390,380l10,0 0,10 -10,0 0,-10z M400,380l10,0 0,10 -10,0 0,-10z M420,380l10,0 0,10 -10,0 0,-10z M500,380l10,0 0,10 -10,0 0,-10z M510,380l10,0 0,10 -10,0 0,-10z M530,380l10,0 0,10 -10,0 0,-10z M540,380l10,0 0,10 -10,0 0,-10z M580,380l10,0 0,10 -10,0 0,-10z M600,380l10,0 0,10 -10,0 0,-10z M630,380l10,0 0,10 -10,0 0,-10z M650,380l10,0 0,10 -10,0 0,-10z M10,390l10,0 0,10 -10,0 0,-10z M30,390l10,0 0,10 -10,0 0,-10z M50,390l10,0 0,10 -10,0 0,-10z M60,390l10,0 0,10 -10,0 0,-10z M70,390l10,0 0,10 -10,0 0,-10z M130,390l10,0 0,10 -10,0 0,-10z M140,390l10,0 0,10 -10,0 0,-10z M150,390l10,0 0,10 -10,0 0,-10z M180,390l10,0 0,10 -10,0 0,-10z M220,390l10,0 0,10 -10,0 0,-10z M240,390l10,0 0,10 -10,0 0,-10z M250,390l10,0 0,10 -10,0 0,-10z M270,390l10,0 0,10 -10,0 0,-10z M280,390l10,0 0,10 -10,0 0,-10z M290,390l10,0 0,10 -10,0 0,-10z M300,390l10,0 0,10 -10,0 0,-10z M320,390l10,0 0,10 -10,0 0,-10z M350,390l10,0 0,10 -10,0 0,-10z M360,390l10,0 0,10 -10,0 0,-10z M370,390l10,0 0,10 -10,0 0,-10z M380,390l10,0 0,10 -10,0 0,-10z M400,390l10,0 0,10 -10,0 0,-10z M410,390l10,0 0,10 -10,0 0,-10z M430,390l10,0 0,10 -10,0 0,-10z M450,390l10,0 0,10 -10,0 0,-10z M460,390l10,0 0,10 -10,0 0,-10z M480,390l10,0 0,10 -10,0 0,-10z M500,390l10,0 0,10 -10,0 0,-10z M530,390l10,0 0,10 -10,0 0,-10z M540,390l10,0 0,10 -10,0 0,-10z M550,390l10,0 0,10 -10,0 0,-10z M560,390l10,0 0,10 -10,0 0,-10z M570,390l10,0 0,10 -10,0 0,-10z M590,390l10,0 0,10 -10,0 0,-10z M600,390l10,0 0,10 -10,0 0,-10z M630,390l10,0 0,10 -10,0 0,-10z M650,390l10,0 0,10 -10,0 0,-10z M10,400l10,0 0,10 -10,0 0,-10z M20,400l10,0 0,10 -10,0 0,-10z M30,400l10,0 0,10 -10,0 0,-10z M40,400l10,0 0,10 -10,0 0,-10z M60,400l10,0 0,10 -10,0 0,-10z M80,400l10,0 0,10 -10,0 0,-10z M90,400l10,0 0,10 -10,0 0,-10z M100,400l10,0 0,10 -10,0 0,-10z M110,400l10,0 0,10 -10,0 0,-10z M130,400l10,0 0,10 -10,0 0,-10z M140,400l10,0 0,10 -10,0 0,-10z M160,400l10,0 0,10 -10,0 0,-10z M180,400l10,0 0,10 -10,0 0,-10z M190,400l10,0 0,10 -10,0 0,-10z M200,400l10,0 0,10 -10,0 0,-10z M210,400l10,0 0,10 -10,0 0,-10z M220,400l10,0 0,10 -10,0 0,-10z M230,400l10,0 0,10 -10,0 0,-10z M240,400l10,0 0,10 -10,0 0,-10z M280,400l10,0 0,10 -10,0 0,-10z M290,400l10,0 0,10 -10,0 0,-10z M320,400l10,0 0,10 -10,0 0,-10z M330,400l10,0 0,10 -10,0 0,-10z M340,400l10,0 0,10 -10,0 0,-10z M380,400l10,0 0,10 -10,0 0,-10z M400,400l10,0 0,10 -10,0 0,-10z M410,400l10,0 0,10 -10,0 0,-10z M430,400l10,0 0,10 -10,0 0,-10z M440,400l10,0 0,10 -10,0 0,-10z M460,400l10,0 0,10 -10,0 0,-10z M490,400l10,0 0,10 -10,0 0,-10z M500,400l10,0 0,10 -10,0 0,-10z M530,400l10,0 0,10 -10,0 0,-10z M550,400l10,0 0,10 -10,0 0,-10z M560,400l10,0 0,10 -10,0 0,-10z M590,400l10,0 0,10 -10,0 0,-10z M610,400l10,0 0,10 -10,0 0,-10z M620,400l10,0 0,10 -10,0 0,-10z M640,400l10,0 0,10 -10,0 0,-10z M60,410l10,0 0,10 -10,0 0,-10z M70,410l10,0 0,10 -10,0 0,-10z M90,410l10,0 0,10 -10,0 0,-10z M100,410l10,0 0,10 -10,0 0,-10z M110,410l10,0 0,10 -10,0 0,-10z M160,410l10,0 0,10 -10,0 0,-10z M170,410l10,0 0,10 -10,0 0,-10z M200,410l10,0 0,10 -10,0 0,-10z M210,410l10,0 0,10 -10,0 0,-10z M240,410l10,0 0,10 -10,0 0,-10z M280,410l10,0 0,10 -10,0 0,-10z M300,410l10,0 0,10 -10,0 0,-10z M340,410l10,0 0,10 -10,0 0,-10z M350,410l10,0 0,10 -10,0 0,-10z M390,410l10,0 0,10 -10,0 0,-10z M450,410l10,0 0,10 -10,0 0,-10z M470,410l10,0 0,10 -10,0 0,-10z M500,410l10,0 0,10 -10,0 0,-10z M510,410l10,0 0,10 -10,0 0,-10z M540,410l10,0 0,10 -10,0 0,-10z M570,410l10,0 0,10 -10,0 0,-10z M580,410l10,0 0,10 -10,0 0,-10z M600,410l10,0 0,10 -10,0 0,-10z M10,420l10,0 0,10 -10,0 0,-10z M30,420l10,0 0,10 -10,0 0,-10z M40,420l10,0 0,10 -10,0 0,-10z M60,420l10,0 0,10 -10,0 0,-10z M80,420l10,0 0,10 -10,0 0,-10z M90,420l10,0 0,10 -10,0 0,-10z M120,420l10,0 0,10 -10,0 0,-10z M130,420l10,0 0,10 -10,0 0,-10z M150,420l10,0 0,10 -10,0 0,-10z M160,420l10,0 0,10 -10,0 0,-10z M220,420l10,0 0,10 -10,0 0,-10z M240,420l10,0 0,10 -10,0 0,-10z M280,420l10,0 0,10 -10,0 0,-10z M310,420l10,0 0,10 -10,0 0,-10z M340,420l10,0 0,10 -10,0 0,-10z M350,420l10,0 0,10 -10,0 0,-10z M360,420l10,0 0,10 -10,0 0,-10z M370,420l10,0 0,10 -10,0 0,-10z M380,420l10,0 0,10 -10,0 0,-10z M470,420l10,0 0,10 -10,0 0,-10z M480,420l10,0 0,10 -10,0 0,-10z M500,420l10,0 0,10 -10,0 0,-10z M530,420l10,0 0,10 -10,0 0,-10z M560,420l10,0 0,10 -10,0 0,-10z M570,420l10,0 0,10 -10,0 0,-10z M580,420l10,0 0,10 -10,0 0,-10z M590,420l10,0 0,10 -10,0 0,-10z M600,420l10,0 0,10 -10,0 0,-10z M10,430l10,0 0,10 -10,0 0,-10z M20,430l10,0 0,10 -10,0 0,-10z M30,430l10,0 0,10 -10,0 0,-10z M40,430l10,0 0,10 -10,0 0,-10z M70,430l10,0 0,10 -10,0 0,-10z M80,430l10,0 0,10 -10,0 0,-10z M90,430l10,0 0,10 -10,0 0,-10z M100,430l10,0 0,10 -10,0 0,-10z M110,430l10,0 0,10 -10,0 0,-10z M120,430l10,0 0,10 -10,0 0,-10z M130,430l10,0 0,10 -10,0 0,-10z M160,430l10,0 0,10 -10,0 0,-10z M170,430l10,0 0,10 -10,0 0,-10z M180,430l10,0 0,10 -10,0 0,-10z M200,430l10,0 0,10 -10,0 0,-10z M210,430l10,0 0,10 -10,0 0,-10z M240,430l10,0 0,10 -10,0 0,-10z M250,430l10,0 0,10 -10,0 0,-10z M280,430l10,0 0,10 -10,0 0,-10z M290,430l10,0 0,10 -10,0 0,-10z M300,430l10,0 0,10 -10,0 0,-10z M330,430l10,0 0,10 -10,0 0,-10z M360,430l10,0 0,10 -10,0 0,-10z M380,430l10,0 0,10 -10,0 0,-10z M390,430l10,0 0,10 -10,0 0,-10z M400,430l10,0 0,10 -10,0 0,-10z M420,430l10,0 0,10 -10,0 0,-10z M430,430l10,0 0,10 -10,0 0,-10z M460,430l10,0 0,10 -10,0 0,-10z M470,430l10,0 0,10 -10,0 0,-10z M480,430l10,0 0,10 -10,0 0,-10z M490,430l10,0 0,10 -10,0 0,-10z M500,430l10,0 0,10 -10,0 0,-10z M510,430l10,0 0,10 -10,0 0,-10z M570,430l10,0 0,10 -10,0 0,-10z M620,430l10,0 0,10 -10,0 0,-10z M640,430l10,0 0,10 -10,0 0,-10z M10,440l10,0 0,10 -10,0 0,-10z M60,440l10,0 0,10 -10,0 0,-10z M100,440l10,0 0,10 -10,0 0,-10z M110,440l10,0 0,10 -10,0 0,-10z M130,440l10,0 0,10 -10,0 0,-10z M160,440l10,0 0,10 -10,0 0,-10z M170,440l10,0 0,10 -10,0 0,-10z M180,440l10,0 0,10 -10,0 0,-10z M190,440l10,0 0,10 -10,0 0,-10z M210,440l10,0 0,10 -10,0 0,-10z M220,440l10,0 0,10 -10,0 0,-10z M230,440l10,0 0,10 -10,0 0,-10z M240,440l10,0 0,10 -10,0 0,-10z M250,440l10,0 0,10 -10,0 0,-10z M260,440l10,0 0,10 -10,0 0,-10z M270,440l10,0 0,10 -10,0 0,-10z M290,440l10,0 0,10 -10,0 0,-10z M320,440l10,0 0,10 -10,0 0,-10z M330,440l10,0 0,10 -10,0 0,-10z M340,440l10,0 0,10 -10,0 0,-10z M380,440l10,0 0,10 -10,0 0,-10z M390,440l10,0 0,10 -10,0 0,-10z M410,440l10,0 0,10 -10,0 0,-10z M420,440l10,0 0,10 -10,0 0,-10z M440,440l10,0 0,10 -10,0 0,-10z M490,440l10,0 0,10 -10,0 0,-10z M500,440l10,0 0,10 -10,0 0,-10z M510,440l10,0 0,10 -10,0 0,-10z M530,440l10,0 0,10 -10,0 0,-10z M540,440l10,0 0,10 -10,0 0,-10z M550,440l10,0 0,10 -10,0 0,-10z M560,440l10,0 0,10 -10,0 0,-10z M570,440l10,0 0,10 -10,0 0,-10z M600,440l10,0 0,10 -10,0 0,-10z M620,440l10,0 0,10 -10,0 0,-10z M630,440l10,0 0,10 -10,0 0,-10z M640,440l10,0 0,10 -10,0 0,-10z M650,440l10,0 0,10 -10,0 0,-10z M10,450l10,0 0,10 -10,0 0,-10z M20,450l10,0 0,10 -10,0 0,-10z M70,450l10,0 0,10 -10,0 0,-10z M100,450l10,0 0,10 -10,0 0,-10z M110,450l10,0 0,10 -10,0 0,-10z M130,450l10,0 0,10 -10,0 0,-10z M160,450l10,0 0,10 -10,0 0,-10z M170,450l10,0 0,10 -10,0 0,-10z M190,450l10,0 0,10 -10,0 0,-10z M200,450l10,0 0,10 -10,0 0,-10z M270,450l10,0 0,10 -10,0 0,-10z M290,450l10,0 0,10 -10,0 0,-10z M300,450l10,0 0,10 -10,0 0,-10z M320,450l10,0 0,10 -10,0 0,-10z M330,450l10,0 0,10 -10,0 0,-10z M340,450l10,0 0,10 -10,0 0,-10z M350,450l10,0 0,10 -10,0 0,-10z M400,450l10,0 0,10 -10,0 0,-10z M410,450l10,0 0,10 -10,0 0,-10z M440,450l10,0 0,10 -10,0 0,-10z M460,450l10,0 0,10 -10,0 0,-10z M470,450l10,0 0,10 -10,0 0,-10z M530,450l10,0 0,10 -10,0 0,-10z M560,450l10,0 0,10 -10,0 0,-10z M590,450l10,0 0,10 -10,0 0,-10z M610,450l10,0 0,10 -10,0 0,-10z M620,450l10,0 0,10 -10,0 0,-10z M650,450l10,0 0,10 -10,0 0,-10z M20,460l10,0 0,10 -10,0 0,-10z M30,460l10,0 0,10 -10,0 0,-10z M40,460l10,0 0,10 -10,0 0,-10z M50,460l10,0 0,10 -10,0 0,-10z M60,460l10,0 0,10 -10,0 0,-10z M80,460l10,0 0,10 -10,0 0,-10z M90,460l10,0 0,10 -10,0 0,-10z M100,460l10,0 0,10 -10,0 0,-10z M110,460l10,0 0,10 -10,0 0,-10z M120,460l10,0 0,10 -10,0 0,-10z M170,460l10,0 0,10 -10,0 0,-10z M180,460l10,0 0,10 -10,0 0,-10z M220,460l10,0 0,10 -10,0 0,-10z M230,460l10,0 0,10 -10,0 0,-10z M260,460l10,0 0,10 -10,0 0,-10z M270,460l10,0 0,10 -10,0 0,-10z M310,460l10,0 0,10 -10,0 0,-10z M320,460l10,0 0,10 -10,0 0,-10z M360,460l10,0 0,10 -10,0 0,-10z M370,460l10,0 0,10 -10,0 0,-10z M380,460l10,0 0,10 -10,0 0,-10z M400,460l10,0 0,10 -10,0 0,-10z M420,460l10,0 0,10 -10,0 0,-10z M430,460l10,0 0,10 -10,0 0,-10z M440,460l10,0 0,10 -10,0 0,-10z M460,460l10,0 0,10 -10,0 0,-10z M490,460l10,0 0,10 -10,0 0,-10z M500,460l10,0 0,10 -10,0 0,-10z M520,460l10,0 0,10 -10,0 0,-10z M530,460l10,0 0,10 -10,0 0,-10z M550,460l10,0 0,10 -10,0 0,-10z M580,460l10,0 0,10 -10,0 0,-10z M600,460l10,0 0,10 -10,0 0,-10z M610,460l10,0 0,10 -10,0 0,-10z M640,460l10,0 0,10 -10,0 0,-10z M40,470l10,0 0,10 -10,0 0,-10z M50,470l10,0 0,10 -10,0 0,-10z M70,470l10,0 0,10 -10,0 0,-10z M110,470l10,0 0,10 -10,0 0,-10z M120,470l10,0 0,10 -10,0 0,-10z M160,470l10,0 0,10 -10,0 0,-10z M170,470l10,0 0,10 -10,0 0,-10z M180,470l10,0 0,10 -10,0 0,-10z M200,470l10,0 0,10 -10,0 0,-10z M210,470l10,0 0,10 -10,0 0,-10z M220,470l10,0 0,10 -10,0 0,-10z M230,470l10,0 0,10 -10,0 0,-10z M250,470l10,0 0,10 -10,0 0,-10z M280,470l10,0 0,10 -10,0 0,-10z M300,470l10,0 0,10 -10,0 0,-10z M310,470l10,0 0,10 -10,0 0,-10z M330,470l10,0 0,10 -10,0 0,-10z M350,470l10,0 0,10 -10,0 0,-10z M370,470l10,0 0,10 -10,0 0,-10z M390,470l10,0 0,10 -10,0 0,-10z M430,470l10,0 0,10 -10,0 0,-10z M440,470l10,0 0,10 -10,0 0,-10z M450,470l10,0 0,10 -10,0 0,-10z M470,470l10,0 0,10 -10,0 0,-10z M510,470l10,0 0,10 -10,0 0,-10z M520,470l10,0 0,10 -10,0 0,-10z M550,470l10,0 0,10 -10,0 0,-10z M560,470l10,0 0,10 -10,0 0,-10z M570,470l10,0 0,10 -10,0 0,-10z M610,470l10,0 0,10 -10,0 0,-10z M640,470l10,0 0,10 -10,0 0,-10z M10,480l10,0 0,10 -10,0 0,-10z M20,480l10,0 0,10 -10,0 0,-10z M30,480l10,0 0,10 -10,0 0,-10z M80,480l10,0 0,10 -10,0 0,-10z M120,480l10,0 0,10 -10,0 0,-10z M150,480l10,0 0,10 -10,0 0,-10z M160,480l10,0 0,10 -10,0 0,-10z M170,480l10,0 0,10 -10,0 0,-10z M190,480l10,0 0,10 -10,0 0,-10z M230,480l10,0 0,10 -10,0 0,-10z M240,480l10,0 0,10 -10,0 0,-10z M280,480l10,0 0,10 -10,0 0,-10z M290,480l10,0 0,10 -10,0 0,-10z M300,480l10,0 0,10 -10,0 0,-10z M310,480l10,0 0,10 -10,0 0,-10z M330,480l10,0 0,10 -10,0 0,-10z M340,480l10,0 0,10 -10,0 0,-10z M360,480l10,0 0,10 -10,0 0,-10z M370,480l10,0 0,10 -10,0 0,-10z M410,480l10,0 0,10 -10,0 0,-10z M440,480l10,0 0,10 -10,0 0,-10z M460,480l10,0 0,10 -10,0 0,-10z M480,480l10,0 0,10 -10,0 0,-10z M490,480l10,0 0,10 -10,0 0,-10z M500,480l10,0 0,10 -10,0 0,-10z M530,480l10,0 0,10 -10,0 0,-10z M540,480l10,0 0,10 -10,0 0,-10z M600,480l10,0 0,10 -10,0 0,-10z M610,480l10,0 0,10 -10,0 0,-10z M640,480l10,0 0,10 -10,0 0,-10z M650,480l10,0 0,10 -10,0 0,-10z M10,490l10,0 0,10 -10,0 0,-10z M40,490l10,0 0,10 -10,0 0,-10z M50,490l10,0 0,10 -10,0 0,-10z M60,490l10,0 0,10 -10,0 0,-10z M70,490l10,0 0,10 -10,0 0,-10z M80,490l10,0 0,10 -10,0 0,-10z M140,490l10,0 0,10 -10,0 0,-10z M150,490l10,0 0,10 -10,0 0,-10z M160,490l10,0 0,10 -10,0 0,-10z M180,490l10,0 0,10 -10,0 0,-10z M210,490l10,0 0,10 -10,0 0,-10z M220,490l10,0 0,10 -10,0 0,-10z M230,490l10,0 0,10 -10,0 0,-10z M240,490l10,0 0,10 -10,0 0,-10z M260,490l10,0 0,10 -10,0 0,-10z M280,490l10,0 0,10 -10,0 0,-10z M300,490l10,0 0,10 -10,0 0,-10z M340,490l10,0 0,10 -10,0 0,-10z M370,490l10,0 0,10 -10,0 0,-10z M380,490l10,0 0,10 -10,0 0,-10z M410,490l10,0 0,10 -10,0 0,-10z M440,490l10,0 0,10 -10,0 0,-10z M460,490l10,0 0,10 -10,0 0,-10z M470,490l10,0 0,10 -10,0 0,-10z M490,490l10,0 0,10 -10,0 0,-10z M540,490l10,0 0,10 -10,0 0,-10z M550,490l10,0 0,10 -10,0 0,-10z M570,490l10,0 0,10 -10,0 0,-10z M580,490l10,0 0,10 -10,0 0,-10z M600,490l10,0 0,10 -10,0 0,-10z M20,500l10,0 0,10 -10,0 0,-10z M30,500l10,0 0,10 -10,0 0,-10z M40,500l10,0 0,10 -10,0 0,-10z M50,500l10,0 0,10 -10,0 0,-10z M80,500l10,0 0,10 -10,0 0,-10z M100,500l10,0 0,10 -10,0 0,-10z M120,500l10,0 0,10 -10,0 0,-10z M140,500l10,0 0,10 -10,0 0,-10z M150,500l10,0 0,10 -10,0 0,-10z M160,500l10,0 0,10 -10,0 0,-10z M180,500l10,0 0,10 -10,0 0,-10z M190,500l10,0 0,10 -10,0 0,-10z M200,500l10,0 0,10 -10,0 0,-10z M220,500l10,0 0,10 -10,0 0,-10z M230,500l10,0 0,10 -10,0 0,-10z M260,500l10,0 0,10 -10,0 0,-10z M310,500l10,0 0,10 -10,0 0,-10z M320,500l10,0 0,10 -10,0 0,-10z M360,500l10,0 0,10 -10,0 0,-10z M370,500l10,0 0,10 -10,0 0,-10z M380,500l10,0 0,10 -10,0 0,-10z M390,500l10,0 0,10 -10,0 0,-10z M410,500l10,0 0,10 -10,0 0,-10z M440,500l10,0 0,10 -10,0 0,-10z M450,500l10,0 0,10 -10,0 0,-10z M460,500l10,0 0,10 -10,0 0,-10z M470,500l10,0 0,10 -10,0 0,-10z M480,500l10,0 0,10 -10,0 0,-10z M510,500l10,0 0,10 -10,0 0,-10z M520,500l10,0 0,10 -10,0 0,-10z M570,500l10,0 0,10 -10,0 0,-10z M580,500l10,0 0,10 -10,0 0,-10z M650,500l10,0 0,10 -10,0 0,-10z M70,510l10,0 0,10 -10,0 0,-10z M90,510l10,0 0,10 -10,0 0,-10z M100,510l10,0 0,10 -10,0 0,-10z M110,510l10,0 0,10 -10,0 0,-10z M130,510l10,0 0,10 -10,0 0,-10z M140,510l10,0 0,10 -10,0 0,-10z M150,510l10,0 0,10 -10,0 0,-10z M160,510l10,0 0,10 -10,0 0,-10z M170,510l10,0 0,10 -10,0 0,-10z M180,510l10,0 0,10 -10,0 0,-10z M230,510l10,0 0,10 -10,0 0,-10z M240,510l10,0 0,10 -10,0 0,-10z M250,510l10,0 0,10 -10,0 0,-10z M260,510l10,0 0,10 -10,0 0,-10z M280,510l10,0 0,10 -10,0 0,-10z M290,510l10,0 0,10 -10,0 0,-10z M330,510l10,0 0,10 -10,0 0,-10z M350,510l10,0 0,10 -10,0 0,-10z M370,510l10,0 0,10 -10,0 0,-10z M380,510l10,0 0,10 -10,0 0,-10z M400,510l10,0 0,10 -10,0 0,-10z M470,510l10,0 0,10 -10,0 0,-10z M490,510l10,0 0,10 -10,0 0,-10z M500,510l10,0 0,10 -10,0 0,-10z M510,510l10,0 0,10 -10,0 0,-10z M520,510l10,0 0,10 -10,0 0,-10z M530,510l10,0 0,10 -10,0 0,-10z M560,510l10,0 0,10 -10,0 0,-10z M590,510l10,0 0,10 -10,0 0,-10z M620,510l10,0 0,10 -10,0 0,-10z M650,510l10,0 0,10 -10,0 0,-10z M30,520l10,0 0,10 -10,0 0,-10z M40,520l10,0 0,10 -10,0 0,-10z M100,520l10,0 0,10 -10,0 0,-10z M120,520l10,0 0,10 -10,0 0,-10z M130,520l10,0 0,10 -10,0 0,-10z M140,520l10,0 0,10 -10,0 0,-10z M150,520l10,0 0,10 -10,0 0,-10z M210,520l10,0 0,10 -10,0 0,-10z M220,520l10,0 0,10 -10,0 0,-10z M230,520l10,0 0,10 -10,0 0,-10z M240,520l10,0 0,10 -10,0 0,-10z M260,520l10,0 0,10 -10,0 0,-10z M270,520l10,0 0,10 -10,0 0,-10z M290,520l10,0 0,10 -10,0 0,-10z M300,520l10,0 0,10 -10,0 0,-10z M310,520l10,0 0,10 -10,0 0,-10z M340,520l10,0 0,10 -10,0 0,-10z M350,520l10,0 0,10 -10,0 0,-10z M370,520l10,0 0,10 -10,0 0,-10z M400,520l10,0 0,10 -10,0 0,-10z M410,520l10,0 0,10 -10,0 0,-10z M420,520l10,0 0,10 -10,0 0,-10z M430,520l10,0 0,10 -10,0 0,-10z M460,520l10,0 0,10 -10,0 0,-10z M480,520l10,0 0,10 -10,0 0,-10z M520,520l10,0 0,10 -10,0 0,-10z M530,520l10,0 0,10 -10,0 0,-10z M540,520l10,0 0,10 -10,0 0,-10z M550,520l10,0 0,10 -10,0 0,-10z M570,520l10,0 0,10 -10,0 0,-10z M580,520l10,0 0,10 -10,0 0,-10z M590,520l10,0 0,10 -10,0 0,-10z M640,520l10,0 0,10 -10,0 0,-10z M40,530l10,0 0,10 -10,0 0,-10z M50,530l10,0 0,10 -10,0 0,-10z M70,530l10,0 0,10 -10,0 0,-10z M90,530l10,0 0,10 -10,0 0,-10z M100,530l10,0 0,10 -10,0 0,-10z M110,530l10,0 0,10 -10,0 0,-10z M120,530l10,0 0,10 -10,0 0,-10z M130,530l10,0 0,10 -10,0 0,-10z M140,530l10,0 0,10 -10,0 0,-10z M160,530l10,0 0,10 -10,0 0,-10z M180,530l10,0 0,10 -10,0 0,-10z M190,530l10,0 0,10 -10,0 0,-10z M200,530l10,0 0,10 -10,0 0,-10z M210,530l10,0 0,10 -10,0 0,-10z M220,530l10,0 0,10 -10,0 0,-10z M230,530l10,0 0,10 -10,0 0,-10z M250,530l10,0 0,10 -10,0 0,-10z M260,530l10,0 0,10 -10,0 0,-10z M270,530l10,0 0,10 -10,0 0,-10z M330,530l10,0 0,10 -10,0 0,-10z M370,530l10,0 0,10 -10,0 0,-10z M380,530l10,0 0,10 -10,0 0,-10z M390,530l10,0 0,10 -10,0 0,-10z M400,530l10,0 0,10 -10,0 0,-10z M420,530l10,0 0,10 -10,0 0,-10z M440,530l10,0 0,10 -10,0 0,-10z M450,530l10,0 0,10 -10,0 0,-10z M460,530l10,0 0,10 -10,0 0,-10z M470,530l10,0 0,10 -10,0 0,-10z M480,530l10,0 0,10 -10,0 0,-10z M610,530l10,0 0,10 -10,0 0,-10z M40,540l10,0 0,10 -10,0 0,-10z M50,540l10,0 0,10 -10,0 0,-10z M80,540l10,0 0,10 -10,0 0,-10z M100,540l10,0 0,10 -10,0 0,-10z M130,540l10,0 0,10 -10,0 0,-10z M150,540l10,0 0,10 -10,0 0,-10z M180,540l10,0 0,10 -10,0 0,-10z M190,540l10,0 0,10 -10,0 0,-10z M210,540l10,0 0,10 -10,0 0,-10z M220,540l10,0 0,10 -10,0 0,-10z M250,540l10,0 0,10 -10,0 0,-10z M260,540l10,0 0,10 -10,0 0,-10z M280,540l10,0 0,10 -10,0 0,-10z M290,540l10,0 0,10 -10,0 0,-10z M330,540l10,0 0,10 -10,0 0,-10z M340,540l10,0 0,10 -10,0 0,-10z M350,540l10,0 0,10 -10,0 0,-10z M380,540l10,0 0,10 -10,0 0,-10z M400,540l10,0 0,10 -10,0 0,-10z M440,540l10,0 0,10 -10,0 0,-10z M470,540l10,0 0,10 -10,0 0,-10z M500,540l10,0 0,10 -10,0 0,-10z M530,540l10,0 0,10 -10,0 0,-10z M540,540l10,0 0,10 -10,0 0,-10z M560,540l10,0 0,10 -10,0 0,-10z M570,540l10,0 0,10 -10,0 0,-10z M640,540l10,0 0,10 -10,0 0,-10z M30,550l10,0 0,10 -10,0 0,-10z M40,550l10,0 0,10 -10,0 0,-10z M60,550l10,0 0,10 -10,0 0,-10z M70,550l10,0 0,10 -10,0 0,-10z M90,550l10,0 0,10 -10,0 0,-10z M140,550l10,0 0,10 -10,0 0,-10z M150,550l10,0 0,10 -10,0 0,-10z M160,550l10,0 0,10 -10,0 0,-10z M180,550l10,0 0,10 -10,0 0,-10z M200,550l10,0 0,10 -10,0 0,-10z M210,550l10,0 0,10 -10,0 0,-10z M240,550l10,0 0,10 -10,0 0,-10z M250,550l10,0 0,10 -10,0 0,-10z M260,550l10,0 0,10 -10,0 0,-10z M300,550l10,0 0,10 -10,0 0,-10z M310,550l10,0 0,10 -10,0 0,-10z M340,550l10,0 0,10 -10,0 0,-10z M370,550l10,0 0,10 -10,0 0,-10z M380,550l10,0 0,10 -10,0 0,-10z M390,550l10,0 0,10 -10,0 0,-10z M410,550l10,0 0,10 -10,0 0,-10z M450,550l10,0 0,10 -10,0 0,-10z M460,550l10,0 0,10 -10,0 0,-10z M470,550l10,0 0,10 -10,0 0,-10z M480,550l10,0 0,10 -10,0 0,-10z M490,550l10,0 0,10 -10,0 0,-10z M510,550l10,0 0,10 -10,0 0,-10z M520,550l10,0 0,10 -10,0 0,-10z M550,550l10,0 0,10 -10,0 0,-10z M580,550l10,0 0,10 -10,0 0,-10z M610,550l10,0 0,10 -10,0 0,-10z M640,550l10,0 0,10 -10,0 0,-10z M10,560l10,0 0,10 -10,0 0,-10z M40,560l10,0 0,10 -10,0 0,-10z M120,560l10,0 0,10 -10,0 0,-10z M130,560l10,0 0,10 -10,0 0,-10z M160,560l10,0 0,10 -10,0 0,-10z M180,560l10,0 0,10 -10,0 0,-10z M190,560l10,0 0,10 -10,0 0,-10z M210,560l10,0 0,10 -10,0 0,-10z M230,560l10,0 0,10 -10,0 0,-10z M260,560l10,0 0,10 -10,0 0,-10z M290,560l10,0 0,10 -10,0 0,-10z M300,560l10,0 0,10 -10,0 0,-10z M310,560l10,0 0,10 -10,0 0,-10z M360,560l10,0 0,10 -10,0 0,-10z M370,560l10,0 0,10 -10,0 0,-10z M390,560l10,0 0,10 -10,0 0,-10z M440,560l10,0 0,10 -10,0 0,-10z M460,560l10,0 0,10 -10,0 0,-10z M480,560l10,0 0,10 -10,0 0,-10z M510,560l10,0 0,10 -10,0 0,-10z M530,560l10,0 0,10 -10,0 0,-10z M540,560l10,0 0,10 -10,0 0,-10z M560,560l10,0 0,10 -10,0 0,-10z M570,560l10,0 0,10 -10,0 0,-10z M580,560l10,0 0,10 -10,0 0,-10z M590,560l10,0 0,10 -10,0 0,-10z M600,560l10,0 0,10 -10,0 0,-10z M610,560l10,0 0,10 -10,0 0,-10z M630,560l10,0 0,10 -10,0 0,-10z M20,570l10,0 0,10 -10,0 0,-10z M30,570l10,0 0,10 -10,0 0,-10z M50,570l10,0 0,10 -10,0 0,-10z M70,570l10,0 0,10 -10,0 0,-10z M80,570l10,0 0,10 -10,0 0,-10z M100,570l10,0 0,10 -10,0 0,-10z M110,570l10,0 0,10 -10,0 0,-10z M120,570l10,0 0,10 -10,0 0,-10z M140,570l10,0 0,10 -10,0 0,-10z M150,570l10,0 0,10 -10,0 0,-10z M190,570l10,0 0,10 -10,0 0,-10z M200,570l10,0 0,10 -10,0 0,-10z M210,570l10,0 0,10 -10,0 0,-10z M220,570l10,0 0,10 -10,0 0,-10z M240,570l10,0 0,10 -10,0 0,-10z M250,570l10,0 0,10 -10,0 0,-10z M260,570l10,0 0,10 -10,0 0,-10z M310,570l10,0 0,10 -10,0 0,-10z M320,570l10,0 0,10 -10,0 0,-10z M330,570l10,0 0,10 -10,0 0,-10z M340,570l10,0 0,10 -10,0 0,-10z M350,570l10,0 0,10 -10,0 0,-10z M370,570l10,0 0,10 -10,0 0,-10z M400,570l10,0 0,10 -10,0 0,-10z M410,570l10,0 0,10 -10,0 0,-10z M420,570l10,0 0,10 -10,0 0,-10z M440,570l10,0 0,10 -10,0 0,-10z M470,570l10,0 0,10 -10,0 0,-10z M480,570l10,0 0,10 -10,0 0,-10z M520,570l10,0 0,10 -10,0 0,-10z M530,570l10,0 0,10 -10,0 0,-10z M540,570l10,0 0,10 -10,0 0,-10z M560,570l10,0 0,10 -10,0 0,-10z M570,570l10,0 0,10 -10,0 0,-10z M580,570l10,0 0,10 -10,0 0,-10z M590,570l10,0 0,10 -10,0 0,-10z M600,570l10,0 0,10 -10,0 0,-10z M610,570l10,0 0,10 -10,0 0,-10z M630,570l10,0 0,10 -10,0 0,-10z M640,570l10,0 0,10 -10,0 0,-10z M650,570l10,0 0,10 -10,0 0,-10z M90,580l10,0 0,10 -10,0 0,-10z M130,580l10,0 0,10 -10,0 0,-10z M140,580l10,0 0,10 -10,0 0,-10z M150,580l10,0 0,10 -10,0 0,-10z M180,580l10,0 0,10 -10,0 0,-10z M190,580l10,0 0,10 -10,0 0,-10z M210,580l10,0 0,10 -10,0 0,-10z M240,580l10,0 0,10 -10,0 0,-10z M250,580l10,0 0,10 -10,0 0,-10z M290,580l10,0 0,10 -10,0 0,-10z M300,580l10,0 0,10 -10,0 0,-10z M310,580l10,0 0,10 -10,0 0,-10z M350,580l10,0 0,10 -10,0 0,-10z M420,580l10,0 0,10 -10,0 0,-10z M430,580l10,0 0,10 -10,0 0,-10z M460,580l10,0 0,10 -10,0 0,-10z M480,580l10,0 0,10 -10,0 0,-10z M490,580l10,0 0,10 -10,0 0,-10z M530,580l10,0 0,10 -10,0 0,-10z M550,580l10,0 0,10 -10,0 0,-10z M560,580l10,0 0,10 -10,0 0,-10z M570,580l10,0 0,10 -10,0 0,-10z M610,580l10,0 0,10 -10,0 0,-10z M640,580l10,0 0,10 -10,0 0,-10z M650,580l10,0 0,10 -10,0 0,-10z M10,590l10,0 0,10 -10,0 0,-10z M20,590l10,0 0,10 -10,0 0,-10z M30,590l10,0 0,10 -10,0 0,-10z M40,590l10,0 0,10 -10,0 0,-10z M50,590l10,0 0,10 -10,0 0,-10z M60,590l10,0 0,10 -10,0 0,-10z M70,590l10,0 0,10 -10,0 0,-10z M100,590l10,0 0,10 -10,0 0,-10z M120,590l10,0 0,10 -10,0 0,-10z M130,590l10,0 0,10 -10,0 0,-10z M150,590l10,0 0,10 -10,0 0,-10z M160,590l10,0 0,10 -10,0 0,-10z M210,590l10,0 0,10 -10,0 0,-10z M220,590l10,0 0,10 -10,0 0,-10z M240,590l10,0 0,10 -10,0 0,-10z M270,590l10,0 0,10 -10,0 0,-10z M290,590l10,0 0,10 -10,0 0,-10z M310,590l10,0 0,10 -10,0 0,-10z M330,590l10,0 0,10 -10,0 0,-10z M350,590l10,0 0,10 -10,0 0,-10z M370,590l10,0 0,10 -10,0 0,-10z M380,590l10,0 0,10 -10,0 0,-10z M390,590l10,0 0,10 -10,0 0,-10z M400,590l10,0 0,10 -10,0 0,-10z M420,590l10,0 0,10 -10,0 0,-10z M440,590l10,0 0,10 -10,0 0,-10z M450,590l10,0 0,10 -10,0 0,-10z M460,590l10,0 0,10 -10,0 0,-10z M470,590l10,0 0,10 -10,0 0,-10z M500,590l10,0 0,10 -10,0 0,-10z M510,590l10,0 0,10 -10,0 0,-10z M520,590l10,0 0,10 -10,0 0,-10z M530,590l10,0 0,10 -10,0 0,-10z M540,590l10,0 0,10 -10,0 0,-10z M550,590l10,0 0,10 -10,0 0,-10z M570,590l10,0 0,10 -10,0 0,-10z M590,590l10,0 0,10 -10,0 0,-10z M610,590l10,0 0,10 -10,0 0,-10z M10,600l10,0 0,10 -10,0 0,-10z M70,600l10,0 0,10 -10,0 0,-10z M90,600l10,0 0,10 -10,0 0,-10z M120,600l10,0 0,10 -10,0 0,-10z M160,600l10,0 0,10 -10,0 0,-10z M170,600l10,0 0,10 -10,0 0,-10z M180,600l10,0 0,10 -10,0 0,-10z M200,600l10,0 0,10 -10,0 0,-10z M210,600l10,0 0,10 -10,0 0,-10z M220,600l10,0 0,10 -10,0 0,-10z M230,600l10,0 0,10 -10,0 0,-10z M240,600l10,0 0,10 -10,0 0,-10z M250,600l10,0 0,10 -10,0 0,-10z M260,600l10,0 0,10 -10,0 0,-10z M270,600l10,0 0,10 -10,0 0,-10z M290,600l10,0 0,10 -10,0 0,-10z M310,600l10,0 0,10 -10,0 0,-10z M350,600l10,0 0,10 -10,0 0,-10z M380,600l10,0 0,10 -10,0 0,-10z M390,600l10,0 0,10 -10,0 0,-10z M410,600l10,0 0,10 -10,0 0,-10z M420,600l10,0 0,10 -10,0 0,-10z M450,600l10,0 0,10 -10,0 0,-10z M470,600l10,0 0,10 -10,0 0,-10z M490,600l10,0 0,10 -10,0 0,-10z M500,600l10,0 0,10 -10,0 0,-10z M570,600l10,0 0,10 -10,0 0,-10z M610,600l10,0 0,10 -10,0 0,-10z M640,600l10,0 0,10 -10,0 0,-10z M650,600l10,0 0,10 -10,0 0,-10z M10,610l10,0 0,10 -10,0 0,-10z M30,610l10,0 0,10 -10,0 0,-10z M40,610l10,0 0,10 -10,0 0,-10z M50,610l10,0 0,10 -10,0 0,-10z M70,610l10,0 0,10 -10,0 0,-10z M110,610l10,0 0,10 -10,0 0,-10z M120,610l10,0 0,10 -10,0 0,-10z M130,610l10,0 0,10 -10,0 0,-10z M140,610l10,0 0,10 -10,0 0,-10z M150,610l10,0 0,10 -10,0 0,-10z M160,610l10,0 0,10 -10,0 0,-10z M170,610l10,0 0,10 -10,0 0,-10z M180,610l10,0 0,10 -10,0 0,-10z M190,610l10,0 0,10 -10,0 0,-10z M200,610l10,0 0,10 -10,0 0,-10z M210,610l10,0 0,10 -10,0 0,-10z M230,610l10,0 0,10 -10,0 0,-10z M240,610l10,0 0,10 -10,0 0,-10z M250,610l10,0 0,10 -10,0 0,-10z M280,610l10,0 0,10 -10,0 0,-10z M290,610l10,0 0,10 -10,0 0,-10z M300,610l10,0 0,10 -10,0 0,-10z M310,610l10,0 0,10 -10,0 0,-10z M320,610l10,0 0,10 -10,0 0,-10z M330,610l10,0 0,10 -10,0 0,-10z M340,610l10,0 0,10 -10,0 0,-10z M350,610l10,0 0,10 -10,0 0,-10z M360,610l10,0 0,10 -10,0 0,-10z M380,610l10,0 0,10 -10,0 0,-10z M390,610l10,0 0,10 -10,0 0,-10z M430,610l10,0 0,10 -10,0 0,-10z M490,610l10,0 0,10 -10,0 0,-10z M500,610l10,0 0,10 -10,0 0,-10z M520,610l10,0 0,10 -10,0 0,-10z M540,610l10,0 0,10 -10,0 0,-10z M550,610l10,0 0,10 -10,0 0,-10z M560,610l10,0 0,10 -10,0 0,-10z M570,610l10,0 0,10 -10,0 0,-10z M580,610l10,0 0,10 -10,0 0,-10z M590,610l10,0 0,10 -10,0 0,-10z M600,610l10,0 0,10 -10,0 0,-10z M610,610l10,0 0,10 -10,0 0,-10z M10,620l10,0 0,10 -10,0 0,-10z M30,620l10,0 0,10 -10,0 0,-10z M40,620l10,0 0,10 -10,0 0,-10z M50,620l10,0 0,10 -10,0 0,-10z M70,620l10,0 0,10 -10,0 0,-10z M90,620l10,0 0,10 -10,0 0,-10z M100,620l10,0 0,10 -10,0 0,-10z M110,620l10,0 0,10 -10,0 0,-10z M130,620l10,0 0,10 -10,0 0,-10z M140,620l10,0 0,10 -10,0 0,-10z M160,620l10,0 0,10 -10,0 0,-10z M170,620l10,0 0,10 -10,0 0,-10z M190,620l10,0 0,10 -10,0 0,-10z M200,620l10,0 0,10 -10,0 0,-10z M210,620l10,0 0,10 -10,0 0,-10z M230,620l10,0 0,10 -10,0 0,-10z M280,620l10,0 0,10 -10,0 0,-10z M290,620l10,0 0,10 -10,0 0,-10z M300,620l10,0 0,10 -10,0 0,-10z M330,620l10,0 0,10 -10,0 0,-10z M340,620l10,0 0,10 -10,0 0,-10z M360,620l10,0 0,10 -10,0 0,-10z M380,620l10,0 0,10 -10,0 0,-10z M400,620l10,0 0,10 -10,0 0,-10z M420,620l10,0 0,10 -10,0 0,-10z M480,620l10,0 0,10 -10,0 0,-10z M500,620l10,0 0,10 -10,0 0,-10z M510,620l10,0 0,10 -10,0 0,-10z M530,620l10,0 0,10 -10,0 0,-10z M540,620l10,0 0,10 -10,0 0,-10z M560,620l10,0 0,10 -10,0 0,-10z M580,620l10,0 0,10 -10,0 0,-10z M610,620l10,0 0,10 -10,0 0,-10z M620,620l10,0 0,10 -10,0 0,-10z M630,620l10,0 0,10 -10,0 0,-10z M10,630l10,0 0,10 -10,0 0,-10z M30,630l10,0 0,10 -10,0 0,-10z M40,630l10,0 0,10 -10,0 0,-10z M50,630l10,0 0,10 -10,0 0,-10z M70,630l10,0 0,10 -10,0 0,-10z M90,630l10,0 0,10 -10,0 0,-10z M100,630l10,0 0,10 -10,0 0,-10z M110,630l10,0 0,10 -10,0 0,-10z M130,630l10,0 0,10 -10,0 0,-10z M150,630l10,0 0,10 -10,0 0,-10z M160,630l10,0 0,10 -10,0 0,-10z M190,630l10,0 0,10 -10,0 0,-10z M230,630l10,0 0,10 -10,0 0,-10z M240,630l10,0 0,10 -10,0 0,-10z M250,630l10,0 0,10 -10,0 0,-10z M260,630l10,0 0,10 -10,0 0,-10z M270,630l10,0 0,10 -10,0 0,-10z M290,630l10,0 0,10 -10,0 0,-10z M320,630l10,0 0,10 -10,0 0,-10z M330,630l10,0 0,10 -10,0 0,-10z M340,630l10,0 0,10 -10,0 0,-10z M360,630l10,0 0,10 -10,0 0,-10z M380,630l10,0 0,10 -10,0 0,-10z M390,630l10,0 0,10 -10,0 0,-10z M400,630l10,0 0,10 -10,0 0,-10z M410,630l10,0 0,10 -10,0 0,-10z M420,630l10,0 0,10 -10,0 0,-10z M430,630l10,0 0,10 -10,0 0,-10z M440,630l10,0 0,10 -10,0 0,-10z M480,630l10,0 0,10 -10,0 0,-10z M510,630l10,0 0,10 -10,0 0,-10z M550,630l10,0 0,10 -10,0 0,-10z M590,630l10,0 0,10 -10,0 0,-10z M650,630l10,0 0,10 -10,0 0,-10z M10,640l10,0 0,10 -10,0 0,-10z M70,640l10,0 0,10 -10,0 0,-10z M90,640l10,0 0,10 -10,0 0,-10z M100,640l10,0 0,10 -10,0 0,-10z M110,640l10,0 0,10 -10,0 0,-10z M140,640l10,0 0,10 -10,0 0,-10z M150,640l10,0 0,10 -10,0 0,-10z M160,640l10,0 0,10 -10,0 0,-10z M170,640l10,0 0,10 -10,0 0,-10z M180,640l10,0 0,10 -10,0 0,-10z M200,640l10,0 0,10 -10,0 0,-10z M210,640l10,0 0,10 -10,0 0,-10z M220,640l10,0 0,10 -10,0 0,-10z M230,640l10,0 0,10 -10,0 0,-10z M280,640l10,0 0,10 -10,0 0,-10z M320,640l10,0 0,10 -10,0 0,-10z M330,640l10,0 0,10 -10,0 0,-10z M350,640l10,0 0,10 -10,0 0,-10z M360,640l10,0 0,10 -10,0 0,-10z M370,640l10,0 0,10 -10,0 0,-10z M380,640l10,0 0,10 -10,0 0,-10z M390,640l10,0 0,10 -10,0 0,-10z M410,640l10,0 0,10 -10,0 0,-10z M440,640l10,0 0,10 -10,0 0,-10z M450,640l10,0 0,10 -10,0 0,-10z M530,640l10,0 0,10 -10,0 0,-10z M540,640l10,0 0,10 -10,0 0,-10z M550,640l10,0 0,10 -10,0 0,-10z M560,640l10,0 0,10 -10,0 0,-10z M570,640l10,0 0,10 -10,0 0,-10z M600,640l10,0 0,10 -10,0 0,-10z M610,640l10,0 0,10 -10,0 0,-10z M620,640l10,0 0,10 -10,0 0,-10z M640,640l10,0 0,10 -10,0 0,-10z M10,650l10,0 0,10 -10,0 0,-10z M20,650l10,0 0,10 -10,0 0,-10z M30,650l10,0 0,10 -10,0 0,-10z M40,650l10,0 0,10 -10,0 0,-10z M50,650l10,0 0,10 -10,0 0,-10z M60,650l10,0 0,10 -10,0 0,-10z M70,650l10,0 0,10 -10,0 0,-10z M120,650l10,0 0,10 -10,0 0,-10z M140,650l10,0 0,10 -10,0 0,-10z M150,650l10,0 0,10 -10,0 0,-10z M160,650l10,0 0,10 -10,0 0,-10z M190,650l10,0 0,10 -10,0 0,-10z M200,650l10,0 0,10 -10,0 0,-10z M210,650l10,0 0,10 -10,0 0,-10z M220,650l10,0 0,10 -10,0 0,-10z M230,650l10,0 0,10 -10,0 0,-10z M240,650l10,0 0,10 -10,0 0,-10z M260,650l10,0 0,10 -10,0 0,-10z M280,650l10,0 0,10 -10,0 0,-10z M290,650l10,0 0,10 -10,0 0,-10z M300,650l10,0 0,10 -10,0 0,-10z M350,650l10,0 0,10 -10,0 0,-10z M360,650l10,0 0,10 -10,0 0,-10z M370,650l10,0 0,10 -10,0 0,-10z M420,650l10,0 0,10 -10,0 0,-10z M450,650l10,0 0,10 -10,0 0,-10z M460,650l10,0 0,10 -10,0 0,-10z M480,650l10,0 0,10 -10,0 0,-10z M510,650l10,0 0,10 -10,0 0,-10z M540,650l10,0 0,10 -10,0 0,-10z M560,650l10,0 0,10 -10,0 0,-10z M580,650l10,0 0,10 -10,0 0,-10z M590,650l10,0 0,10 -10,0 0,-10z M630,650l10,0 0,10 -10,0 0,-10z M640,650l10,0 0,10 -10,0 0,-10z " stroke="transparent" fill="rgb(0, 0, 0)"/></svg>