<?xml version="1.0" encoding="UTF-8"?>
<!DOCTYPE svg PUBLIC "-//W3C//DTD SVG 1.1//EN" "http://www.w3.org/Graphics/SVG/1.1/DTD/svg11.dtd">
<!-- Creator: CorelDRAW X8 -->
<svg xmlns="http://www.w3.org/2000/svg" xml:space="preserve" width="50.8mm" height="50.8mm" version="1.1" style="shape-rendering:geometricPrecision; text-rendering:geometricPrecision; image-rendering:optimizeQuality; fill-rule:evenodd; clip-rule:evenodd"
viewBox="0 0 5080 5080"
 xmlns:xlink="http://www.w3.org/1999/xlink">
 <defs>
  <style type="text/css">
   <![CDATA[
    .fil0 {fill:#1F8AB5}
    .fil5 {fill:#B3B3B3}
    .fil3 {fill:#ECF0F1}
    .fil1 {fill:#F5A209}
    .fil7 {fill:#F7FAFA}
    .fil6 {fill:#FBB429}
    .fil4 {fill:#FFCA4F}
    .fil2 {fill:white}
   ]]>
  </style>
 </defs>
 <g id="Слой_x0020_1">
  <metadata id="CorelCorpID_0Corel-Layer"/>
  <path class="fil0" d="M2540 0c1403,0 2540,1137 2540,2540 0,1403 -1137,2540 -2540,2540 -1403,0 -2540,-1137 -2540,-2540 0,-1403 1137,-2540 2540,-2540z"/>
  <g id="_811442272">
   <polygon class="fil1" points="4468,2426 612,2426 2540,1288 "/>
   <polygon class="fil1" points="612,2426 4468,2426 4468,4703 612,4703 "/>
  </g>
  <polygon class="fil2" points="1008,770 3433,770 4072,1409 4072,4703 1008,4703 1008,770 "/>
  <path class="fil3" d="M1470 1614l2140 0 0 48 -2140 0 0 -48zm0 520l0 0 2140 0 0 48 -2140 0 0 -48zm0 89l0 0 2140 0 0 48 -2140 0 0 -48zm0 90l0 0 2140 0 0 48 -2140 0 0 -48zm0 89l0 0 2140 0 0 48 -2140 0 0 -48zm0 -699l0 0 2140 0 0 49 -2140 0 0 -49zm0 90l0 0 2140 0 0 48 -2140 0 0 -48zm0 89l0 0 2140 0 0 49 -2140 0 0 -49zm0 90l0 0 1639 0 0 48 -1639 0 0 -48zm0 520l0 0 1639 0 0 48 -1639 0 0 -48z"/>
  <polygon class="fil4" points="3433,770 3433,1409 4072,1409 "/>
  <polygon class="fil5" points="2165,4229 2891,4229 2891,4300 2165,4300 "/>
  <g id="_811440544">
   <polygon class="fil6" points="612,2426 2540,3565 612,4703 "/>
   <polygon class="fil6" points="4468,2426 2540,3565 4468,4703 "/>
  </g>
  <polygon class="fil1" points="2540,3565 612,4703 4468,4703 "/>
  <polygon class="fil7" points="4072,2048 4072,1409 3433,1409 "/>
  <path class="fil4" d="M1030 165c335,0 607,271 607,606 0,335 -272,607 -607,607 -335,0 -606,-272 -606,-607 0,-335 271,-606 606,-606z"/>
  <g id="_811438752">
   <path class="fil2" d="M1076 931c-19,22 -40,40 -63,53 -24,13 -47,20 -71,20 -26,0 -51,-8 -75,-23 -25,-15 -45,-38 -60,-70 -15,-31 -23,-66 -23,-103 0,-47 12,-93 36,-140 23,-46 53,-81 88,-104 35,-23 69,-35 102,-35 26,0 50,6 73,20 23,13 43,33 59,60l16 -68 78 0 -63 294c-9,41 -14,63 -14,67 0,8 3,15 9,21 6,5 14,8 22,8 16,0 36,-8 61,-26 33,-23 59,-55 79,-94 19,-39 29,-79 29,-121 0,-48 -13,-94 -38,-136 -24,-42 -62,-75 -111,-101 -49,-25 -104,-38 -164,-38 -68,0 -131,16 -187,48 -56,32 -100,78 -131,137 -31,60 -47,123 -47,191 0,72 16,133 47,184 31,52 76,90 134,114 59,25 124,37 195,37 77,0 141,-13 192,-38 52,-26 90,-57 116,-94l79 0c-15,30 -41,62 -77,94 -36,31 -79,56 -128,75 -50,18 -110,28 -180,28 -65,0 -125,-9 -179,-25 -55,-17 -101,-42 -140,-75 -38,-33 -67,-72 -87,-115 -24,-55 -36,-114 -36,-178 0,-71 14,-138 43,-202 36,-79 87,-139 152,-181 65,-42 145,-63 238,-63 72,0 137,15 195,44 57,30 103,74 136,132 28,50 42,105 42,164 0,84 -29,159 -89,225 -53,58 -111,88 -173,88 -21,0 -37,-3 -49,-10 -12,-6 -21,-15 -27,-26 -4,-7 -7,-20 -9,-38zm-212 -118l0 0c0,40 10,71 29,93 19,22 40,33 65,33 16,0 33,-5 52,-14 18,-10 35,-25 51,-44 17,-19 30,-43 41,-73 10,-29 15,-59 15,-89 0,-39 -9,-70 -29,-92 -20,-22 -44,-33 -72,-33 -18,0 -36,5 -53,14 -16,10 -32,25 -47,46 -16,21 -28,46 -38,77 -9,30 -14,57 -14,82l0 0z"/>
   <polygon class="fil2" points="4696,587 4881,753 4898,769 4881,784 4696,951 4669,920 4814,789 4135,789 4135,748 4814,748 4669,617 4696,587 "/>
   <polygon class="fil2" points="4025,702 3840,869 3823,885 3840,900 4025,1067 4052,1036 3907,905 4586,905 4586,864 3907,864 4052,733 4025,702 "/>
  </g>
  <g id="_811438432">
  </g>
  <g id="_817135968">
  </g>
  <g id="_817135840">
  </g>
  <g id="_817138720">
  </g>
  <g id="_811557664">
  </g>
  <g id="_806762864">
  </g>
  <g id="_807603440">
  </g>
  <g id="_807604496">
  </g>
  <g id="_807600400">
  </g>
  <g id="_807609072">
  </g>
  <g id="_807604112">
  </g>
  <g id="_808665104">
  </g>
  <g id="_672169040">
  </g>
  <g id="_811338000">
  </g>
  <g id="_810286272">
  </g>
 </g>
</svg>
