<?xml version="1.0" encoding="utf-8"?>
<!-- Generator: Adobe Illustrator 15.1.0, SVG Export Plug-In  -->
<!DOCTYPE svg PUBLIC "-//W3C//DTD SVG 1.1//EN" "http://www.w3.org/Graphics/SVG/1.1/DTD/svg11.dtd" [
	<!ENTITY ns_flows "http://ns.adobe.com/Flows/1.0/">
]>
<svg version="1.1"
	 xmlns="http://www.w3.org/2000/svg" xmlns:xlink="http://www.w3.org/1999/xlink" xmlns:a="http://ns.adobe.com/AdobeSVGViewerExtensions/3.0/"
	 x="0px" y="0px" width="512px" height="512px" viewBox="0 0 512 512" enable-background="new 0 0 512 512" xml:space="preserve">
<defs>
</defs>
<path fill="#6A1616" d="M437.021,74.98C388.667,26.629,324.38,0,256,0S123.333,26.629,74.98,74.98C26.629,123.333,0,187.62,0,256
	s26.629,132.667,74.98,181.021C123.333,485.371,187.62,512,256,512s132.667-26.629,181.021-74.979
	C485.371,388.667,512,324.38,512,256S485.371,123.333,437.021,74.98z M30,256c0-55.339,19.768-107.633,55.943-148.844l92.555,92.555
	l-6.709,6.709c-33.276,33.277-36.519,85.374-9.756,122.336l-76.09,76.089C49.768,363.633,30,311.339,30,256z M348.9,254.466
	l-36.611,36.611l-91.366-91.366l36.611-36.611L348.9,254.466z M291.077,312.29l-6.709,6.709c-25.188,25.188-66.176,25.188-91.365,0
	l-0.001-0.001c-25.188-25.189-25.188-66.176,0-91.365l6.709-6.709L291.077,312.29z M107.156,426.057l76.09-76.089
	c16.476,11.931,35.954,17.907,55.439,17.907c24.227,0,48.452-9.223,66.896-27.664l6.709-6.709l92.555,92.555
	C363.633,462.232,311.339,482,256,482S148.368,462.232,107.156,426.057L107.156,426.057z M426.057,404.844l-92.555-92.555
	l57.824-57.824l-21.215-21.215l43.332-43.332l-21.214-21.213l-43.331,43.332L299.961,163.1l43.332-43.332L322.08,98.555
	l-43.332,43.332l-21.215-21.215l-57.824,57.824l-92.555-92.555C148.367,49.768,200.661,30,256,30
	c60.367,0,117.12,23.508,159.806,66.194C458.492,138.88,482,195.633,482,256C482,311.339,462.231,363.633,426.057,404.844z"/>
</svg>
