<svg width="46" height="37" viewBox="0 0 46 37" fill="none" xmlns="http://www.w3.org/2000/svg">
<path fill-rule="evenodd" clip-rule="evenodd" d="M1.84 18.4H3.68C4.69568 18.4 5.52 19.2243 5.52 20.24V34.96C5.52 35.9757 4.69568 36.8 3.68 36.8H1.84C0.82432 36.8 0 35.9757 0 34.96V20.24C0 19.2243 0.82432 18.4 1.84 18.4Z" fill="white"/>
<path fill-rule="evenodd" clip-rule="evenodd" d="M10.12 8.28003H11.96C12.9757 8.28003 13.8 9.10435 13.8 10.12V34.96C13.8 35.9757 12.9757 36.8 11.96 36.8H10.12C9.10435 36.8 8.28003 35.9757 8.28003 34.96V10.12C8.28003 9.10435 9.10435 8.28003 10.12 8.28003Z" fill="white"/>
<path fill-rule="evenodd" clip-rule="evenodd" d="M27.5696 12.8799C27.3874 12.8799 34.9903 12.8799 34.9903 12.8799C36.1762 12.7778 36.1762 10.325 34.9903 10.1199H27.5696C26.3837 10.4272 26.3837 12.7778 27.5696 12.8799Z" fill="white"/>
<path fill-rule="evenodd" clip-rule="evenodd" d="M44.1978 14.7198H18.3623C17.4138 14.9977 16.8443 15.6463 16.5601 16.6657V34.854C16.5601 35.7814 17.2243 36.7998 18.2667 36.7998H44.0938C45.4214 36.7998 45.8961 35.9663 45.9909 35.1328L46.0001 16.6666C45.7158 15.6463 45.1463 14.9977 44.1978 14.7198ZM43.2382 17.4642V22.9998H19.2934V17.4642H43.2382ZM19.2934 34.0325V24.8398H28.6047C28.5532 24.9843 28.5201 25.1379 28.5201 25.2998C28.5201 26.0616 29.1383 26.6798 29.9001 26.6798H32.6601C33.4218 26.6798 34.0401 26.0616 34.0401 25.2998C34.0401 25.1379 34.0069 24.9843 33.9554 24.8398H43.2382V34.0325H19.2934Z" fill="white"/>
<path fill-rule="evenodd" clip-rule="evenodd" d="M22.0801 1.84C22.0801 0.82432 21.2557 0 20.2401 0H18.4001C17.3844 0 16.5601 0.82432 16.5601 1.84V11.96H22.0801V1.84Z" fill="white"/>
</svg>
