<svg width="42" height="38" viewBox="0 0 42 38" fill="none" xmlns="http://www.w3.org/2000/svg">
    <path d="M40.3 21.071l-5.446-5.58c-.014-4.103-.032-7.772-.032-7.772 0-1.093-.891-1.98-1.99-1.98H20.495c-1.099 0-1.99.887-1.99 1.98v16.229H2.786V2.771h36.017v14.403c.738.704 2.245 2.25 2.785 2.808V1.98c0-1.093-.89-1.979-1.99-1.979H1.99A1.983 1.983 0 000 1.98v25.728c0 1.093.89 1.98 1.99 1.98h25.983c.156 1.782.878 3.915 3.07 5.542l1.19-1.586c-3.34-2.48-2.088-6.65-2.034-6.824l.183-.573-4.809-4.783c-.474-.468-.715-.933-.715-1.38 0-.577.388-1.036.48-1.137 1.114-.846 2.057-.165 2.248-.006l8.936 8.493 1.375-1.43-3.024-2.874c0-1.386-.004-3.06-.01-4.788l4.044 4.142c1.003.96 1.096 1.55 1.104 1.67l-.016.056V38h1.99V24.422c.063-.49.002-1.736-1.684-3.35zm-16.247-3.636l-.063.055c-.113.106-1.105 1.082-1.122 2.556-.012 1.008.427 1.958 1.301 2.82l2.424 2.412.07.253v2.573h-6.765V7.125h6.766v9.435c-.8-.05-1.709.16-2.61.875zm6.59 1.674V7.125h2.786s-.115 9.455-.016 14.616l-2.77-2.632z" fill="#fff"/>
    <path d="M27.904 36.88c-.02-.03-1.878-2.998-1.838-5.594l-1.989-.03c-.018 1.157.25 2.338.602 3.38H13.033c-.934 0-1.691.753-1.691 1.682 0 .929.757 1.682 1.691 1.682h15.52l-.659-1.115.01-.006z" fill="#fff"/>
</svg>
