<svg width="46" height="38" viewBox="0 0 46 38" fill="none" xmlns="http://www.w3.org/2000/svg">
<path fill-rule="evenodd" clip-rule="evenodd" d="M44 0H18C16.896 0 16 0.896 16 2V8H19V3H43V19H31V22H34L40 28V22H44C45.104 22 46 21.104 46 20V2C46 0.896 45.104 0 44 0Z" fill="white"/>
<path fill-rule="evenodd" clip-rule="evenodd" d="M26 11H2C0.896 11 0 11.896 0 13V30C0 31.104 0.896 32 2 32H7V38L13 32H26C27.104 32 28 31.104 28 30V13C28 11.896 27.104 11 26 11ZM7 24C5.896 24 5 23.104 5 22C5 20.896 5.896 20 7 20C8.104 20 9 20.896 9 22C9 23.104 8.104 24 7 24ZM14 24C12.896 24 12 23.104 12 22C12 20.896 12.896 20 14 20C15.104 20 16 20.896 16 22C16 23.104 15.104 24 14 24ZM21 24C19.896 24 19 23.104 19 22C19 20.896 19.896 20 21 20C22.104 20 23 20.896 23 22C23 23.104 22.104 24 21 24Z" fill="white"/>
</svg>
