<svg width="53" height="39" viewBox="0 0 53 39" fill="none" xmlns="http://www.w3.org/2000/svg">
<path d="M52.6841 16.9829L48.8191 2.43426C44.6313 3.19079 42.0553 3.40417 42.0553 3.40417C37.483 2.73396 36.3708 1.9493 32.3927 1.46434C31.2216 1.32177 30.1587 1.43428 29.234 1.66027C27.6069 0.668046 25.255 -0.166078 22.4374 0.62246C22.3968 0.635069 18.324 1.92893 12.54 4.22859C11.1844 4.25478 7.89138 4.21502 6.40914 3.7514L5.497 3.46624L0.684082 18.3757L10.709 24.7791C10.566 25.7121 10.794 26.6985 11.4472 27.4783C12.1564 28.327 13.1903 28.7266 14.2136 28.6733C14.2088 29.4502 14.4532 30.2319 14.9895 30.874C15.7934 31.8352 17.0128 32.2232 18.1617 32.0224C18.2264 32.6781 18.4815 33.3221 18.9347 33.8643C19.8903 35.0078 21.4335 35.3443 22.7476 34.8322C22.7273 35.6295 22.9727 36.4374 23.5244 37.097C24.7245 38.5324 26.857 38.7206 28.2881 37.516L31.295 34.3686L32.1589 35.1135C32.9435 35.7924 33.9165 36.1552 34.933 36.1552C35.0577 36.1552 35.1823 36.1494 35.3079 36.1387C36.4626 36.0378 37.5081 35.4801 38.2511 34.5694C39.0183 33.6286 39.3333 32.453 39.227 31.3182C39.4116 31.3425 39.5981 31.3687 39.7865 31.3687C39.9121 31.3687 40.0387 31.3629 40.1653 31.3512C41.319 31.2494 42.3635 30.6917 43.1046 29.7829C44.011 28.6713 44.2786 27.233 43.9704 25.9197C44.0796 25.9187 44.1907 25.9158 44.3008 25.9052C45.4555 25.8043 46.501 25.2456 47.2441 24.3358C48.2345 23.1225 48.4635 21.5192 48.0074 20.1138L52.6841 16.9829ZM45.7483 23.105C45.3376 23.6084 44.7637 23.9159 44.1318 23.9721C43.5085 24.0235 42.894 23.8276 42.4089 23.4086L34.9823 17.0014C34.9523 16.9761 34.9156 16.9674 34.8828 16.9461L34.8248 16.8966C34.4219 16.5484 33.8121 16.593 33.4624 16.9994C33.1155 17.4058 33.1609 18.0178 33.5648 18.367L41.3142 25.0526C42.3336 25.9333 42.465 27.5036 41.6079 28.554C41.1992 29.0564 40.6262 29.3629 39.9942 29.4191C39.37 29.4705 38.7545 29.2746 38.2695 28.8556L37.7883 28.4405C37.7641 28.4182 37.7458 28.391 37.7216 28.3697L31.4796 22.9809C31.0747 22.6327 30.465 22.6783 30.1162 23.0837C29.7693 23.4901 29.8147 24.1031 30.2186 24.4522L30.5008 24.6957C30.5143 24.7093 30.5201 24.7257 30.5336 24.7383L36.5293 29.9109C37.4801 30.8013 37.5931 32.3143 36.7554 33.3386C36.3447 33.8419 35.7707 34.1494 35.1388 34.2047C34.5098 34.2677 33.903 34.0602 33.4179 33.6412L32.5222 32.8691C33.0894 31.7014 32.9638 30.2601 32.0768 29.2009C31.3279 28.3037 30.2138 27.8944 29.1355 28.007C29.3906 26.9876 29.179 25.8654 28.4543 24.9983C27.2542 23.5628 25.1207 23.3747 23.6906 24.5793L23.2017 25.0865C23.0713 24.6811 22.8664 24.2932 22.5775 23.9469C21.6219 22.8034 20.0797 22.4668 18.7666 22.978C18.6535 22.4591 18.4323 21.9566 18.068 21.5212C16.8679 20.0857 14.7344 19.8975 13.3034 21.1022L11.8627 22.6947C11.7458 22.7937 11.6511 22.9072 11.5506 23.0168L2.9828 17.5435L6.76569 5.8241C9.09437 6.25183 12.5912 6.16745 12.7594 6.16163L12.9314 6.15775L13.0908 6.09373C18.8903 3.78243 22.9766 2.48275 22.9862 2.47984C24.4201 2.07927 25.7082 2.24221 26.7894 2.62242C26.0493 3.04045 25.6289 3.40417 25.6289 3.40417L16.9326 11.1635C20.6875 14.9432 23.6964 13.1033 23.6964 13.1033L33.359 9.22364L45.5666 19.7268C46.472 20.624 46.5696 22.0992 45.7483 23.105Z" fill="white"/>
</svg>
