<svg width="41" height="43" viewBox="0 0 41 43" fill="none" xmlns="http://www.w3.org/2000/svg">
<path fill-rule="evenodd" clip-rule="evenodd" d="M1.12176 39.1212L37.3758 4.2282C38.2098 3.4712 39.4498 3.4782 40.1438 4.2442C40.8388 5.0102 40.7258 6.2442 39.8908 7.0012L3.63676 41.8922C2.80276 42.6502 1.56276 42.6422 0.868763 41.8762C0.174763 41.1102 0.287763 39.8762 1.12176 39.1212Z" fill="white"/>
<path d="M6.568 29.715L9.357 27.03C9.293 27.032 9.23 27.038 9.166 27.038C5.766 27.038 3 24.891 3 22.251V11.614C3 10.785 2.329 10.114 1.5 10.114C0.671 10.114 0 10.785 0 11.614V22.252C0 25.779 2.777 28.761 6.568 29.715Z" fill="white"/>
<path d="M18.3311 18.394V7.787C18.3311 5.147 21.0971 3 24.4961 3C27.4091 3 29.8501 4.579 30.4911 6.691L32.7841 4.484C31.3171 1.839 28.1591 0 24.4961 0C19.4421 0 15.3311 3.493 15.3311 7.787V21.282L18.3311 18.394Z" fill="white"/>
<path fill-rule="evenodd" clip-rule="evenodd" d="M38.8311 31.519H38.3311V28.519C36.6811 25.691 33.8481 23.585 33.6651 22.519C33.6571 21.449 33.6651 19.519 33.6651 19.519H31.3311H31.2101L29.0001 21.645C29.0001 21.959 28.9991 22.264 28.9971 22.519C28.8141 23.585 25.9811 25.691 24.3311 28.519V31.519H23.8311C23.0031 31.519 22.3311 32.191 22.3311 33.019C22.3311 33.847 23.0031 34.519 23.8311 34.519H25.3311V41.019C25.3311 41.847 26.0031 42.519 26.8311 42.519C27.6591 42.519 28.3311 41.847 28.3311 41.019V34.519H34.3311V41.019C34.3311 41.847 35.0031 42.519 35.8311 42.519C36.6591 42.519 37.3311 41.847 37.3311 41.019V34.519H38.8311C39.6591 34.519 40.3311 33.847 40.3311 33.019C40.3311 32.191 39.6591 31.519 38.8311 31.519Z" fill="white"/>
</svg>
