<svg width="36" height="38" viewBox="0 0 36 38" fill="none" xmlns="http://www.w3.org/2000/svg">
<path d="M27 0C27.553 0 28 0.448 28 1V11C28 11.552 27.553 12 27 12C26.447 12 26 11.552 26 11V1C26 0.448 26.447 0 27 0Z" fill="white"/>
<path d="M22 5H32C32.553 5 33 5.448 33 6C33 6.552 32.553 7 32 7H22C21.447 7 21 6.552 21 6C21 5.448 21.447 5 22 5Z" fill="white"/>
<path d="M35 15.9998H20.299L18.215 18.0808C17.824 18.4708 17.192 18.4708 16.801 18.0788L6.741 6.99681C6.739 6.99481 6.741 6.98781 6.74 6.98481L5.888 6.04681C5.497 5.65581 4.864 5.6548 4.473 6.0448L3.056 7.45681C2.665 7.84681 2.664 8.4798 3.055 8.8708L9.527 15.9998H1C0.448 15.9998 0 16.4478 0 16.9998V19.9998C0 20.5528 0.448 20.9998 1 20.9998H3V35.9998C3 37.1038 3.896 37.9998 5 37.9998H31C32.104 37.9998 33 37.1038 33 35.9998V20.9998H35C35.553 20.9998 36 20.5528 36 19.9998V16.9998C36 16.4478 35.553 15.9998 35 15.9998ZM11 32.9998C11 33.5528 10.553 33.9998 10 33.9998H8C7.447 33.9998 7 33.5528 7 32.9998V22.9998C7 22.4468 7.447 21.9998 8 21.9998H10C10.553 21.9998 11 22.4468 11 22.9998V32.9998ZM17 32.9998C17 33.5528 16.553 33.9998 16 33.9998H14C13.447 33.9998 13 33.5528 13 32.9998V22.9998C13 22.4468 13.447 21.9998 14 21.9998H16C16.553 21.9998 17 22.4468 17 22.9998V32.9998ZM23 32.9998C23 33.5528 22.553 33.9998 22 33.9998H20C19.447 33.9998 19 33.5528 19 32.9998V22.9998C19 22.4468 19.447 21.9998 20 21.9998H22C22.553 21.9998 23 22.4468 23 22.9998V32.9998ZM29 32.9998C29 33.5528 28.553 33.9998 28 33.9998H26C25.447 33.9998 25 33.5528 25 32.9998V22.9998C25 22.4468 25.447 21.9998 26 21.9998H28C28.553 21.9998 29 22.4468 29 22.9998V32.9998Z" fill="white"/>
</svg>
