<svg width="38" height="45" viewBox="0 0 38 45" fill="none" xmlns="http://www.w3.org/2000/svg">
<path fill-rule="evenodd" clip-rule="evenodd" d="M27.5 24.5C21.977 24.5 17.5 28.977 17.5 34.5C17.5 40.023 21.977 44.5 27.5 44.5C33.023 44.5 37.5 40.023 37.5 34.5C37.5 28.977 33.023 24.5 27.5 24.5ZM32.5 35.5H28.5V39.5C28.5 40.053 28.053 40.5 27.5 40.5C26.947 40.5 26.5 40.053 26.5 39.5V35.5H22.5C21.947 35.5 21.5 35.053 21.5 34.5C21.5 33.947 21.947 33.5 22.5 33.5H26.5V29.5C26.5 28.947 26.947 28.5 27.5 28.5C28.053 28.5 28.5 28.947 28.5 29.5V33.5H32.5C33.053 33.5 33.5 33.947 33.5 34.5C33.5 35.053 33.053 35.5 32.5 35.5Z" fill="white"/>
<path d="M26.033 21.628C24.637 20.334 23.033 19.329 21.306 18.631C23.841 16.818 25.499 13.856 25.499 10.5C25.499 4.977 21.022 0.5 15.499 0.5C9.976 0.5 5.499 4.977 5.499 10.5C5.499 13.858 7.16 16.823 9.7 18.637C4.021 20.938 0 26.504 0 33C0 33.828 0.671 34.5 1.5 34.5C2.329 34.5 3 33.828 3 33C3 26.107 8.607 20.5 15.5 20.5C18.037 20.5 20.476 21.273 22.539 22.685C23.663 22.212 24.869 21.897 26.13 21.763C26.094 21.72 26.075 21.667 26.033 21.628ZM15.5 17.5C11.64 17.5 8.5 14.36 8.5 10.5C8.5 6.64 11.64 3.5 15.5 3.5C19.359 3.5 22.5 6.64 22.5 10.5C22.5 14.36 19.359 17.5 15.5 17.5Z" fill="white"/>
</svg>
