<svg width="42" height="45" viewBox="0 0 42 45" fill="none" xmlns="http://www.w3.org/2000/svg">
<path fill-rule="evenodd" clip-rule="evenodd" d="M26.505 10.5446C26.505 13.9109 24.9208 16.6832 22.3466 18.6634C24.2919 19.4013 26.0327 20.5481 27.4843 21.9886C26.4395 22.3031 25.4499 22.7449 24.5333 23.2959C22.3559 21.4856 19.521 20.4456 16.406 20.4456C9.67332 20.4456 3.93075 25.9901 3.93075 32.9208C3.93075 33.7129 3.33669 34.505 2.54461 34.505C1.75253 34.505 0.960449 33.7129 0.960449 32.9208C0.960449 26.3862 5.11887 20.8416 10.6634 18.6634C8.08916 16.8812 6.505 13.9109 6.505 10.5446C6.505 5.00001 11.0595 0.445557 16.406 0.445557C21.9505 0.445557 26.505 5.00001 26.505 10.5446ZM9.4753 10.5446C9.4753 14.3069 12.6436 17.4753 16.406 17.4753C20.3664 17.4753 23.5347 14.3069 23.5347 10.5446C23.5347 6.58417 20.3664 3.41585 16.406 3.41585C12.6436 3.41585 9.4753 6.58417 9.4753 10.5446Z" fill="white"/>
<path fill-rule="evenodd" clip-rule="evenodd" d="M41.1584 34.505C41.1584 39.9732 36.7256 44.406 31.2574 44.406C25.7893 44.406 21.3564 39.9732 21.3564 34.505C21.3564 29.0368 25.7893 24.604 31.2574 24.604C36.7256 24.604 41.1584 29.0368 41.1584 34.505ZM35.8182 32.8924C35.8182 32.8924 36 32.8924 36 33.0616V33.2308L29.0909 40H28.9091H28.7273V39.8308L30.3636 34.9231H28.1818L28 34.7539V34.5847L30.3636 29.1693L30.5455 29H34.5455H34.7273V29.3385L32.3636 32.8924H35.8182Z" fill="white"/>
</svg>
