<svg width="44" height="35" viewBox="0 0 44 35" fill="none" xmlns="http://www.w3.org/2000/svg">
<path d="M33.4583 13.749C27.6356 13.749 22.9166 18.468 22.9166 24.2907C22.9166 30.1134 27.6356 34.8324 33.4583 34.8324C39.281 34.8324 44 30.1134 44 24.2907C44 18.468 39.281 13.749 33.4583 13.749ZM34.8333 29.7907C34.8333 30.5497 34.2173 31.1657 33.4583 31.1657C32.6993 31.1657 32.0833 30.5497 32.0833 29.7907V23.374C32.0833 22.615 32.6993 21.999 33.4583 21.999C34.2173 21.999 34.8333 22.615 34.8333 23.374V29.7907ZM33.4583 20.1657C32.6993 20.1657 32.0833 19.5497 32.0833 18.7907C32.0833 18.0317 32.6993 17.4157 33.4583 17.4157C34.2173 17.4157 34.8333 18.0317 34.8333 18.7907C34.8333 19.5497 34.2173 20.1657 33.4583 20.1657Z" fill="white"/>
<path d="M10.0833 16.4991H6.41667C5.91067 16.4991 5.5 16.9089 5.5 17.4158C5.5 17.9227 5.91067 18.3325 6.41667 18.3325H10.0833C10.5893 18.3325 11 17.9227 11 17.4158C11 16.9089 10.5893 16.4991 10.0833 16.4991Z" fill="white"/>
<path d="M12.8333 11.9158H6.41667C5.91067 11.9158 5.5 12.3255 5.5 12.8324C5.5 13.3394 5.91067 13.7491 6.41667 13.7491H12.8333C13.3393 13.7491 13.75 13.3394 13.75 12.8324C13.75 12.3255 13.3393 11.9158 12.8333 11.9158Z" fill="white"/>
<path d="M12.8333 7.33252H6.41667C5.91067 7.33252 5.5 7.74227 5.5 8.24919C5.5 8.7561 5.91067 9.16585 6.41667 9.16585H12.8333C13.3393 9.16585 13.75 8.7561 13.75 8.24919C13.75 7.74227 13.3393 7.33252 12.8333 7.33252Z" fill="white"/>
<path d="M33 10.9991H35.75V0H21.0833C19.833 0 18.7018 0.50875 17.875 1.33008C17.0482 0.50875 15.917 0 14.6667 0H0V27.4927H12.8333C14.4137 27.4927 15.5861 28.1059 16.5 28.8328V28.8631C17.4928 29.9246 18.2572 29.9246 19.25 28.8631V28.8328V26.1241V10.9991V4.576C19.25 3.55392 20.0723 2.72342 21.0833 2.72342H33V10.9991ZM16.5 25.949C15.9748 25.2707 15.1507 24.7546 12.8333 24.7133H2.75V2.72342H14.6667C15.6778 2.72342 16.5 3.55483 16.5 4.576V25.949Z" fill="white"/>
</svg>
