<svg width="40" height="44" viewBox="0 0 40 44" fill="none" xmlns="http://www.w3.org/2000/svg">
<path d="M28.0379 26.3489L15.9895 38.6284C14.699 39.9433 14.699 41.698 15.9895 43.014C17.28 44.3289 19.0013 44.3289 20.2909 43.014L32.3393 30.7345C34.4905 31.6118 36.6426 30.7345 38.363 29.4195C39.6535 27.6649 40.5142 25.4725 39.6535 23.2792L36.2108 27.2262L32.7682 25.9102L31.4776 22.4019L35.3502 18.8936C33.199 18.0153 31.0468 18.8936 29.3264 20.2086C28.0379 21.9633 27.1753 24.1556 28.0379 26.3489Z" fill="white"/>
<path fill-rule="evenodd" clip-rule="evenodd" d="M0 0V32.9765H16.4007L22.5214 26.7393V3.9969L0 0ZM7.83318 26.9791C7.83318 27.5317 7.39452 27.9783 6.85403 27.9783H5.87488C5.33341 27.9783 4.89573 27.5317 4.89573 26.9791V23.9814C4.89573 23.4289 5.33341 22.9822 5.87488 22.9822H6.85403C7.39452 22.9822 7.83318 23.4289 7.83318 23.9814V26.9791ZM7.83318 18.9853C7.83318 19.5379 7.39452 19.9845 6.85403 19.9845H5.87488C5.33341 19.9845 4.89573 19.5379 4.89573 18.9853V15.9876C4.89573 15.435 5.33341 14.9884 5.87488 14.9884H6.85403C7.39452 14.9884 7.83318 15.435 7.83318 15.9876V18.9853ZM7.83318 10.9915C7.83318 11.5441 7.39452 11.9907 6.85403 11.9907H5.87488C5.33341 11.9907 4.89573 11.5441 4.89573 10.9915V7.99381C4.89573 7.44124 5.33341 6.99458 5.87488 6.99458H6.85403C7.39452 6.99458 7.83318 7.44124 7.83318 7.99381V10.9915ZM12.7289 26.9791C12.7289 27.5317 12.2903 27.9783 11.7498 27.9783H10.7706C10.2291 27.9783 9.79147 27.5317 9.79147 26.9791V23.9814C9.79147 23.4289 10.2291 22.9822 10.7706 22.9822H11.7498C12.2903 22.9822 12.7289 23.4289 12.7289 23.9814V26.9791ZM12.7289 18.9853C12.7289 19.5379 12.2903 19.9845 11.7498 19.9845H10.7706C10.2291 19.9845 9.79147 19.5379 9.79147 18.9853V15.9876C9.79147 15.435 10.2291 14.9884 10.7706 14.9884H11.7498C12.2903 14.9884 12.7289 15.435 12.7289 15.9876V18.9853ZM12.7289 10.9915C12.7289 11.5441 12.2903 11.9907 11.7498 11.9907H10.7706C10.2291 11.9907 9.79147 11.5441 9.79147 10.9915V7.99381C9.79147 7.44124 10.2291 6.99458 10.7706 6.99458H11.7498C12.2903 6.99458 12.7289 7.44124 12.7289 7.99381V10.9915ZM17.6246 26.9791C17.6246 27.5317 17.187 27.9783 16.6455 27.9783H15.6664C15.1249 27.9783 14.6872 27.5317 14.6872 26.9791V23.9814C14.6872 23.4289 15.1249 22.9822 15.6664 22.9822H16.6455C17.187 22.9822 17.6246 23.4289 17.6246 23.9814V26.9791ZM17.6246 18.9853C17.6246 19.5379 17.187 19.9845 16.6455 19.9845H15.6664C15.1249 19.9845 14.6872 19.5379 14.6872 18.9853V15.9876C14.6872 15.435 15.1249 14.9884 15.6664 14.9884H16.6455C17.187 14.9884 17.6246 15.435 17.6246 15.9876V18.9853ZM17.6246 10.9915C17.6246 11.5441 17.187 11.9907 16.6455 11.9907H15.6664C15.1249 11.9907 14.6872 11.5441 14.6872 10.9915V7.99381C14.6872 7.44124 15.1249 6.99458 15.6664 6.99458H16.6455C17.187 6.99458 17.6246 7.44124 17.6246 7.99381V10.9915Z" fill="white"/>
</svg>
