<svg width="46" height="36" viewBox="0 0 46 36" fill="none" xmlns="http://www.w3.org/2000/svg">
<path d="M22.708 22.1971C23.8182 22.9487 24.7879 23.8873 25.6052 24.9466H29.2197C27.4951 21.9088 24.7797 19.5037 21.5123 18.1801C24.0588 16.3618 25.7237 13.3893 25.7237 10.0236C25.7237 4.48768 21.2359 0 15.6994 0C15.6728 0 15.5654 0 15.5378 0C10.0013 0 5.51353 4.48768 5.51353 10.0236C5.51353 13.3893 7.17751 16.3618 9.7249 18.1801C4.0323 20.4856 0 26.0667 0 32.5771C0 33.4071 0.672202 34.0813 1.50419 34.0813C2.33618 34.0813 3.00838 33.408 3.00838 32.5771C3.00838 28.2626 5.20131 24.451 8.5311 22.1961C8.56692 22.2109 8.61926 22.105 8.65599 22.1206C10.4485 20.8937 12.5248 20.1503 14.7021 19.9726C14.827 19.9643 15.4478 19.9339 15.6342 19.933C15.8197 19.9339 16.4414 19.9643 16.5663 19.9726C18.7436 20.1494 20.8199 20.8937 22.6125 22.1206C22.6474 22.1059 22.6712 22.2118 22.708 22.1971ZM15.6186 17.037C11.7856 16.9946 8.67987 13.8674 8.67987 10.0245C8.67987 6.18253 11.7856 3.05442 15.6186 3.01205C19.4507 3.05442 22.5574 6.18253 22.5574 10.0245C22.5574 13.8665 19.4507 16.9937 15.6186 17.037Z" fill="white"/>
<path d="M34.1097 15.0666C33.9233 13.7227 32.7846 12.6846 31.3934 12.6846C29.8726 12.6846 28.6384 13.9216 28.6384 15.4479C28.6384 16.9742 29.8726 18.2113 31.3934 18.2113C32.0252 18.2113 32.6009 17.9884 33.0665 17.6291C37.1815 19.6473 39.8657 23.8853 39.8657 28.5904V33.6483H42.6206V28.5904C42.6206 22.7588 39.2541 17.5112 34.1097 15.0666Z" fill="white"/>
<path fill-rule="evenodd" clip-rule="evenodd" d="M22.1239 27.71H44.1633C45.1771 27.71 45.9999 28.5353 45.9999 29.5522V34.1578C45.9999 35.1747 45.1771 36 44.1633 36H18.4506C17.4368 36 16.614 35.1747 16.614 34.1578L19.3689 29.5522C20.0292 28.3722 21.1101 27.71 22.1239 27.71Z" fill="white"/>
</svg>
