<svg width="39" height="42" viewBox="0 0 39 42" fill="none" xmlns="http://www.w3.org/2000/svg">
<path fill-rule="evenodd" clip-rule="evenodd" d="M25.7726 17.1819C18.919 17.1819 13.3635 22.7373 13.3635 29.591C13.3635 36.4446 18.919 42.0001 25.7726 42.0001C32.6263 42.0001 38.1817 36.4446 38.1817 29.591C38.1817 22.7373 32.6263 17.1819 25.7726 17.1819ZM32.5699 26.7245L24.9336 35.3154C24.672 35.6113 24.2998 35.7841 23.9055 35.7955C23.8912 35.7955 23.8778 35.7955 23.8635 35.7955C23.4846 35.7955 23.1199 35.6457 22.8508 35.3765L18.078 30.6037C17.5187 30.0444 17.5187 29.1385 18.078 28.5792C18.6374 28.0198 19.5433 28.0198 20.1026 28.5792L23.8015 32.278L30.4289 24.8221C30.9539 24.2322 31.8598 24.1777 32.4497 24.7027C33.0415 25.2277 33.0959 26.1327 32.5699 26.7245Z" fill="white"/>
<path d="M10.0141 33.4015H2.835V12H9.12641C10.1105 11.7117 10.7014 11.0388 10.9964 9.98113V2.84836H23.8608V13.4868C24.4889 13.4133 25.1236 13.3646 25.7718 13.3646C26.0925 13.3646 26.4065 13.3942 26.7235 13.4123L26.7273 2.01886C26.4323 0.961227 25.8415 0.288273 24.8573 0H10.5229V0.00381791C10.1592 0.00763609 9.744 0.202364 9.49964 0.446728L0.238636 11.0069C0.0878182 11.1577 0.0362726 11.3591 0.0267272 11.5595H0.0143176V11.6875C0.0143176 11.6922 0.0143176 11.698 0.0143176 11.7037L0 34.2539C0 35.216 0.689181 36.2727 1.77068 36.2727H10.9964C10.5821 35.3573 10.2547 34.398 10.0141 33.4015Z" fill="white"/>
<path fill-rule="evenodd" clip-rule="evenodd" d="M32.4545 14.8155V0.954545C32.4545 0.427636 32.0278 0 31.4999 0H30.5454C30.0175 0 29.5908 0.427636 29.5908 0.954545V13.8342C30.5845 14.0748 31.5419 14.4012 32.4545 14.8155Z" fill="white"/>
<path fill-rule="evenodd" clip-rule="evenodd" d="M38.1818 19.1453V0.954545C38.1818 0.427636 37.7551 0 37.2272 0H36.2727C35.7448 0 35.3181 0.427636 35.3181 0.954545V16.4879C36.3738 17.2601 37.3398 18.1459 38.1818 19.1453Z" fill="white"/>
</svg>
