<svg width="48" height="40" viewBox="0 0 48 40" fill="none" xmlns="http://www.w3.org/2000/svg">
<path d="M23.2971 25.3465L27.0611 24.4365L23.4621 20.8875L22.5391 24.5675C22.4201 25.0375 22.8361 25.4535 23.2971 25.3465Z" fill="white"/>
<path d="M47.5598 3.0125L44.8718 0.3285C44.4328 -0.1095 43.7298 -0.1095 43.2918 0.3285L41.4268 2.1905L45.6948 6.4525L47.5608 4.5905C47.9978 4.1515 47.9978 3.4505 47.5598 3.0125Z" fill="white"/>
<path d="M40.5242 4.82352C40.0642 4.36352 39.3182 4.36352 38.8572 4.82352L25.4822 17.9915C25.0092 18.4635 25.0092 19.2185 25.4822 19.6905L28.1482 22.3075C28.6082 22.7685 29.3552 22.7685 29.8152 22.3075L43.1912 9.13951C43.6622 8.66851 43.6622 7.91252 43.1912 7.44152L40.5242 4.82352Z" fill="white"/>
<path d="M9 20.8795C8.448 20.8795 8 21.3275 8 21.8795C8 22.4325 8.448 22.8795 9 22.8795H17C17.553 22.8795 18 22.4325 18 21.8795C18 21.3275 17.553 20.8795 17 20.8795H9Z" fill="white"/>
<path d="M23 15.8794C23 15.3274 22.553 14.8794 22 14.8794H9C8.448 14.8794 8 15.3274 8 15.8794C8 16.4314 8.448 16.8794 9 16.8794H22C22.553 16.8794 23 16.4314 23 15.8794Z" fill="white"/>
<path d="M29 9.87939C29 9.32739 28.553 8.87939 28 8.87939H9C8.448 8.87939 8 9.32739 8 9.87939C8 10.4314 8.448 10.8794 9 10.8794H28C28.553 10.8794 29 10.4314 29 9.87939Z" fill="white"/>
<path d="M35.998 28.8714H22C22 28.8714 21.676 28.8794 21.5 28.8794C20.672 28.8794 20 29.5514 20 30.3794V35.7364L10.719 29.2544C10.438 29.0514 10 28.8714 10 28.8714H2.971V3.8624H35.998V3.8984L36 3.87939V0.879395H1.959C0.928 1.18139 0.309 1.88639 0 2.99439V29.7644C0 30.7724 0.722 31.8794 1.855 31.8794H9.214L20.148 39.4244C21.5 40.3014 22.89 39.3324 23 38.0514L23.006 31.8794H36.929C38.372 31.8794 38.888 30.9734 38.991 30.0674L38.995 18.8854L35.999 21.8814V28.8714H35.998Z" fill="white"/>
</svg>
