<svg width="17" height="17" viewBox="0 0 17 17" fill="none" xmlns="http://www.w3.org/2000/svg">
<path d="M16.1424 13.1553L13.6704 10.6783C13.1784 10.1873 12.3624 10.2024 11.8544 10.7124L10.6094 11.9604C10.5314 11.9164 10.4494 11.8704 10.3634 11.8224C9.57842 11.3854 8.50141 10.7884 7.36941 9.65135C6.23341 8.51435 5.63642 7.43435 5.19942 6.64535C5.15342 6.56235 5.10941 6.48135 5.06541 6.40535L5.9004 5.56935L6.31142 5.15735C6.82142 4.64535 6.83541 3.82935 6.34441 3.33635L3.87341 0.859344C3.38241 0.367344 2.56641 0.382356 2.05641 0.893356L1.36041 1.59535L1.37941 1.61435C1.14641 1.91235 0.950404 2.25736 0.805404 2.62836C0.671404 2.98236 0.588414 3.31935 0.550414 3.65735C0.224414 6.36835 1.46041 8.84535 4.81441 12.2074C9.45141 16.8534 13.1894 16.5033 13.3494 16.4863C13.7014 16.4433 14.0374 16.3593 14.3794 16.2263C14.7464 16.0813 15.0904 15.8864 15.3884 15.6544L15.4044 15.6683L16.1094 14.9754C16.6184 14.4654 16.6324 13.6483 16.1424 13.1553Z" fill="#B3CDD7"/>
</svg>
