<svg width="17" height="13" viewBox="0 0 17 13" fill="none" xmlns="http://www.w3.org/2000/svg">
<path d="M15.7557 0.5H1.24168C1.22068 0.5 1.19969 0.501006 1.17969 0.503006L1.87669 0.966995C1.91769 0.982995 1.95768 1.003 1.99568 1.028L8.49869 5.362L15.0017 1.028L15.7907 0.501999C15.7797 0.500999 15.7677 0.5 15.7557 0.5Z" fill="#B3CDD7"/>
<path d="M13.15 4.53769L8.832 7.41469C8.732 7.48169 8.616 7.51669 8.5 7.51669C8.384 7.51669 8.268 7.48269 8.168 7.41469L6.776 6.4877C6.734 6.4717 6.693 6.45169 6.655 6.42569L0.5 2.32269V11.7637C0.5 12.1697 0.832996 12.4977 1.243 12.4977H15.757C16.167 12.4977 16.499 12.1697 16.499 11.7637V2.30469L13.15 4.53769Z" fill="#B3CDD7"/>
</svg>
