<svg width="49" height="46" viewBox="0 0 49 46" fill="none" xmlns="http://www.w3.org/2000/svg">
    <path fill-rule="evenodd" clip-rule="evenodd" d="M36.491 17.287V2.5c0-1.104-.893-2-1.993-2H2.604a1.997 1.997 0 00-1.993 2v41c0 1.104.893 2 1.993 2h31.894a1.997 1.997 0 001.993-2v-8.787a10.872 10.872 0 01-4.983 1.736l-1.945.113-4.017-1.062-1.358-2.5-1.184-1.5c-.13-.123-1.248-.26-1.373-.389v1.352h-6.006V26.5h5.354c-.27-.955.98-3.083-.062-3.083-.167 0-2.365.059-2.365.046h-2.927V17.5h7.72c.573-.878 8.14-2.854 8.14-2.854V13.5H5.595v-8h25.913v10.05c1.827.167 3.525.783 4.983 1.737zM15.625 35.5h6.006v5.963h-6.006V35.5zm10 1h6.006v4.963h-6.006V36.5zm-20-19h6.006v5.963H5.625V17.5zm0 9h6.006v5.963H5.625V26.5zm0 9h6.006v5.963H5.625V35.5z" fill="#fff"/>
    <path d="M23.028 16.813h-1.43v5.604h1.43v-5.605z" fill="#fff"/>
    <path d="M48.051 42.087l-7.287-7.649a12.503 12.503 0 002.9-8.02c0-6.88-5.545-12.477-12.359-12.477-6.815 0-12.36 5.597-12.36 12.477s5.545 12.476 12.36 12.476c2.56 0 4.996-.778 7.08-2.258l7.342 7.708c.307.321.72.498 1.162.498.418 0 .815-.16 1.117-.453.64-.623.66-1.655.045-2.302zM31.305 17.195c5.037 0 9.135 4.137 9.135 9.222 0 5.084-4.098 9.221-9.135 9.221-5.038 0-9.136-4.137-9.136-9.22 0-5.086 4.098-9.223 9.136-9.223z" fill="#fff"/>
</svg>
