<?xml version="1.0" encoding="UTF-8"?>
<svg width="26px" height="36px" viewBox="0 0 26 36" version="1.1" xmlns="http://www.w3.org/2000/svg" xmlns:xlink="http://www.w3.org/1999/xlink">
    <!-- Generator: Sketch 50 (54983) - http://www.bohemiancoding.com/sketch -->
    <title>mark-1</title>
    <desc>Created with Sketch.</desc>
    <defs>
        <radialGradient cx="74.4418169%" cy="-16.3275977%" fx="74.4418169%" fy="-16.3275977%" r="123.194953%" gradientTransform="translate(0.744418,-0.163276),scale(0.605053,1.000000),translate(-0.744418,0.163276)" id="radialGradient-1">
            <stop stop-color="#F58921" offset="0%"></stop>
            <stop stop-color="#F58921" offset="68.2%"></stop>
            <stop stop-color="#F48321" offset="73.29%"></stop>
            <stop stop-color="#EF6722" offset="100%"></stop>
        </radialGradient>
        <radialGradient cx="22.5147704%" cy="131.060022%" fx="22.5147704%" fy="131.060022%" r="138.501987%" gradientTransform="translate(0.225148,1.310600),scale(0.604821,1.000000),translate(-0.225148,-1.310600)" id="radialGradient-2">
            <stop stop-color="#F58921" offset="0%"></stop>
            <stop stop-color="#F58921" offset="27.78%"></stop>
            <stop stop-color="#F58921" offset="72.96%"></stop>
            <stop stop-color="#F48221" offset="82.16%"></stop>
            <stop stop-color="#F17022" offset="95.26%"></stop>
            <stop stop-color="#EF6722" offset="100%"></stop>
        </radialGradient>
        <radialGradient cx="20.6151117%" cy="49.3316892%" fx="20.6151117%" fy="49.3316892%" r="78.2778518%" gradientTransform="translate(0.206151,0.493317),scale(0.678348,1.000000),translate(-0.206151,-0.493317)" id="radialGradient-3">
            <stop stop-color="#005C9B" offset="0%"></stop>
            <stop stop-color="#004785" offset="24.74%"></stop>
            <stop stop-color="#00518F" offset="43.03%"></stop>
            <stop stop-color="#0065A3" offset="66.12%"></stop>
            <stop stop-color="#1572B0" offset="78.69%"></stop>
            <stop stop-color="#418ECC" offset="100%"></stop>
        </radialGradient>
        <radialGradient cx="68.9216943%" cy="32.619598%" fx="68.9216943%" fy="32.619598%" r="87.4181016%" gradientTransform="translate(0.689217,0.326196),scale(0.884963,1.000000),translate(-0.689217,-0.326196)" id="radialGradient-4">
            <stop stop-color="#6DA3D7" offset="0%"></stop>
            <stop stop-color="#518AC8" offset="20.86%"></stop>
            <stop stop-color="#4683C1" offset="25.17%"></stop>
            <stop stop-color="#1461A2" offset="46.07%"></stop>
            <stop stop-color="#005496" offset="56.36%"></stop>
            <stop stop-color="#004B8C" offset="69.47%"></stop>
            <stop stop-color="#005191" offset="79.07%"></stop>
            <stop stop-color="#00589B" offset="85.88%"></stop>
            <stop stop-color="#0062A9" offset="92.06%"></stop>
            <stop stop-color="#2578BA" offset="96.03%"></stop>
            <stop stop-color="#4E91CD" offset="100%"></stop>
        </radialGradient>
        <radialGradient cx="26.528786%" cy="0.0018627524%" fx="26.528786%" fy="0.0018627524%" r="112.405745%" gradientTransform="translate(0.265288,0.000019),scale(0.671146,1.000000),translate(-0.265288,-0.000019)" id="radialGradient-5">
            <stop stop-color="#F58921" offset="0%"></stop>
            <stop stop-color="#F58921" offset="75.34%"></stop>
            <stop stop-color="#F37D21" offset="85.87%"></stop>
            <stop stop-color="#EF6722" offset="100%"></stop>
        </radialGradient>
        <radialGradient cx="95.0200272%" cy="72.9232157%" fx="95.0200272%" fy="72.9232157%" r="119.568106%" gradientTransform="translate(0.950200,0.729232),scale(0.670820,1.000000),translate(-0.950200,-0.729232)" id="radialGradient-6">
            <stop stop-color="#F58921" offset="0%"></stop>
            <stop stop-color="#F58921" offset="65.82%"></stop>
            <stop stop-color="#EF6922" offset="97.82%"></stop>
            <stop stop-color="#EF6722" offset="100%"></stop>
        </radialGradient>
        <radialGradient cx="70.9901194%" cy="62.711612%" fx="70.9901194%" fy="62.711612%" r="77.4059253%" gradientTransform="translate(0.709901,0.627116),scale(0.678338,1.000000),translate(-0.709901,-0.627116)" id="radialGradient-7">
            <stop stop-color="#005C9B" offset="0%"></stop>
            <stop stop-color="#004785" offset="17.2%"></stop>
            <stop stop-color="#00518F" offset="31.81%"></stop>
            <stop stop-color="#0065A3" offset="50.25%"></stop>
            <stop stop-color="#418ECC" offset="94.44%"></stop>
            <stop stop-color="#418ECC" offset="100%"></stop>
        </radialGradient>
    </defs>
    <g id="Page-1" stroke="none" stroke-width="1" fill="none" fill-rule="evenodd">
        <g id="mark-1">
            <path d="M13,0 C5.832,0 0,5.849 0,13.037 C0,21.959 11.634,35.055 12.129,35.608 C12.595,36.129 13.406,36.127 13.871,35.608 C14.366,35.054 26,21.959 26,13.037 C26,5.849 20.168,0 13,0 Z" id="Shape" fill="#55A5D7" fill-rule="nonzero"></path>
            <path d="M13,3 C18.5233,3 23,7.47667 23,13 C23,18.5233 18.5233,23 13,23 C7.47667,23 3,18.5233 3,13 C3,7.47667 7.47667,3 13,3 Z" id="Shape" fill="#FFFFFF"></path>
            <path d="M9.19763,20.08 C9.19671,20.08 9.19534,20.0791 9.19534,20.0791 C9.19626,20.08 9.19626,20.08 9.19763,20.08 Z M8.7625,18.3664 C8.75177,18.3776 8.73874,18.3897 8.72786,18.4001 L8.72694,18.401 C8.6598,18.4685 8.59972,18.538 8.55052,18.605 L8.54868,18.6068 C8.54209,18.6166 8.53458,18.6268 8.52738,18.6365 C8.52646,18.6382 8.52554,18.6418 8.52416,18.6436 C8.51665,18.6527 8.5122,18.6626 8.50393,18.6715 C8.50301,18.6766 8.50193,18.6775 8.49964,18.6803 C8.49442,18.6896 8.48875,18.6972 8.48416,18.7077 C8.48308,18.7103 8.47971,18.7139 8.47833,18.7158 C8.47419,18.7249 8.46745,18.7347 8.46423,18.7429 C8.46316,18.7447 8.4604,18.7471 8.45948,18.7514 C8.43725,18.791 8.41978,18.8333 8.40353,18.8719 C8.40261,18.8767 8.4017,18.8812 8.40032,18.8822 C8.39848,18.8921 8.3948,18.8992 8.39373,18.9068 L8.38867,18.92 C8.38683,18.9276 8.38422,18.9353 8.3833,18.9428 C8.3833,18.9472 8.38238,18.9522 8.381,18.9568 C8.37916,18.9637 8.37595,18.9693 8.37441,18.9796 C8.37349,18.9841 8.37349,18.989 8.37349,18.9926 C8.37257,19.0005 8.37165,19.0072 8.37028,19.0135 C8.36752,19.0193 8.3666,19.0249 8.3666,19.0294 C8.3646,19.0373 8.36322,19.043 8.36322,19.0494 L8.36322,19.0654 C8.36322,19.0727 8.3623,19.078 8.3623,19.0871 L8.3623,19.1077 C8.3623,19.1176 8.3623,19.1277 8.36322,19.1384 L8.36322,19.1563 C8.36322,19.1635 8.36322,19.168 8.36414,19.1753 C8.36414,19.1814 8.36614,19.1859 8.36752,19.1932 C8.37027,19.1985 8.37027,19.2057 8.37119,19.2112 C8.37303,19.2175 8.37303,19.2245 8.37303,19.2309 C8.37395,19.2363 8.37533,19.2407 8.37886,19.2462 C8.37978,19.2553 8.38208,19.2615 8.383,19.2668 C8.383,19.2732 8.38392,19.2786 8.38637,19.2831 C8.38821,19.2904 8.39189,19.2974 8.39326,19.3037 C8.39418,19.3101 8.39664,19.3146 8.39756,19.3199 C8.40078,19.3272 8.40262,19.3353 8.4066,19.3432 C8.40844,19.3486 8.40982,19.353 8.41166,19.3559 C8.41794,19.367 8.423,19.3791 8.42637,19.3916 C8.42729,19.3916 8.42729,19.3927 8.42729,19.3927 C8.43281,19.4048 8.44001,19.4169 8.4466,19.4295 C8.44752,19.433 8.44982,19.4367 8.45212,19.4397 C8.45657,19.4485 8.46346,19.4562 8.46683,19.465 C8.47097,19.4698 8.4745,19.4743 8.4745,19.4793 C8.48094,19.4871 8.48446,19.4934 8.49136,19.5027 C8.49381,19.5075 8.49718,19.5113 8.5004,19.5151 C8.50469,19.5242 8.51312,19.5302 8.51741,19.5396 C8.52155,19.5444 8.52401,19.5488 8.52646,19.553 C8.53458,19.5602 8.5401,19.5697 8.54638,19.5782 C8.5496,19.5818 8.55297,19.5858 8.55543,19.5885 C8.56493,19.597 8.57229,19.6056 8.57949,19.6171 C8.58286,19.618 8.58608,19.6225 8.58715,19.627 C8.59804,19.6361 8.60846,19.6479 8.61919,19.6602 C8.62011,19.6602 8.62011,19.6622 8.62164,19.6631 C8.64524,19.6856 8.67069,19.712 8.70073,19.7345 C8.70395,19.7393 8.70625,19.7412 8.70717,19.7437 C8.71805,19.7546 8.72939,19.7637 8.74364,19.773 L8.75453,19.7839 C8.76541,19.7918 8.77568,19.8016 8.78564,19.8119 C8.79192,19.8137 8.79698,19.8182 8.79959,19.821 C8.81047,19.8301 8.82304,19.8408 8.83622,19.8489 C8.83929,19.8525 8.8448,19.8551 8.84756,19.8587 C8.86151,19.8678 8.87454,19.8777 8.88803,19.888 C8.89124,19.8918 8.89538,19.8927 8.89784,19.8956 C8.9147,19.906 8.93033,19.9181 8.94796,19.9288 L8.94979,19.9324 C8.96911,19.9446 8.98903,19.9577 9.00834,19.9692 C9.06751,20.0079 9.12943,20.0448 9.19748,20.0793 C9.26707,20.1152 9.33558,20.1485 9.40593,20.1831 L9.41973,20.1884 C10.7169,20.7762 13.0389,21.0594 13.3375,20.5344 C13.6166,20.049 12.5009,19.0867 9.56518,17.7754 C9.23871,17.9749 8.96527,18.1707 8.7625,18.3664 Z" id="Shape" fill="url(#radialGradient-1)" fill-rule="nonzero"></path>
            <path d="M12.6574,5.46339 C12.3795,5.94672 13.4942,6.91054 16.4303,8.22272 C16.4496,8.20915 16.4696,8.19767 16.4875,8.18633 L16.4875,8.18559 C16.6184,8.10417 16.7421,8.02513 16.8526,7.94415 C16.8526,7.94326 16.855,7.94191 16.8558,7.94102 C16.872,7.93058 16.884,7.91925 16.8987,7.91 C16.9006,7.91 16.9019,7.90806 16.9028,7.90642 C16.9199,7.89568 16.9329,7.8845 16.9453,7.87495 C16.9478,7.87406 16.9496,7.87152 16.9508,7.86959 C16.9646,7.85974 16.9789,7.8499 16.9924,7.8414 L16.9924,7.83857 C17.0531,7.79144 17.1069,7.74611 17.1584,7.69958 C17.1697,7.69033 17.1807,7.68094 17.1935,7.67065 C17.1953,7.66871 17.1953,7.66528 17.1985,7.66289 C17.2076,7.65394 17.2178,7.64306 17.2278,7.6359 C17.231,7.63456 17.2344,7.63053 17.2353,7.62606 C17.2457,7.61741 17.2557,7.6095 17.2661,7.59996 C17.267,7.59683 17.2693,7.5937 17.2727,7.59146 C17.2817,7.58266 17.2922,7.57252 17.2997,7.56492 C17.3021,7.56208 17.3053,7.55761 17.3063,7.55552 C17.3167,7.54598 17.3242,7.53569 17.3348,7.52718 C17.3357,7.5254 17.3372,7.5254 17.3372,7.5245 C17.366,7.49214 17.3953,7.45784 17.4195,7.42652 L17.4204,7.42459 C17.4275,7.41489 17.4352,7.40579 17.4408,7.3967 C17.4427,7.39312 17.4476,7.39043 17.449,7.38686 C17.4545,7.37895 17.4598,7.3709 17.4661,7.3618 C17.4675,7.35733 17.4724,7.35449 17.4756,7.34868 C17.479,7.34242 17.4854,7.33481 17.4891,7.32676 C17.4923,7.32273 17.4946,7.31855 17.4986,7.31408 C17.5026,7.30603 17.5077,7.29887 17.5118,7.29126 C17.515,7.28739 17.5185,7.28217 17.5204,7.27918 C17.5257,7.27068 17.5302,7.26293 17.5334,7.25502 C17.5369,7.25085 17.5388,7.24772 17.5388,7.24369 C17.5438,7.23504 17.5492,7.22758 17.5524,7.21998 C17.5533,7.21729 17.5544,7.21372 17.5558,7.21058 C17.5662,7.19075 17.5749,7.17241 17.5812,7.15302 C17.5812,7.15153 17.5821,7.15153 17.5821,7.14944 C17.5855,7.14184 17.5895,7.13468 17.5917,7.12663 C17.5926,7.12126 17.595,7.11753 17.5973,7.11395 C17.5982,7.10575 17.6005,7.09963 17.6028,7.09203 C17.605,7.08621 17.6073,7.08263 17.6082,7.07637 C17.6091,7.0701 17.6114,7.06489 17.614,7.05489 C17.6168,7.05132 17.6176,7.0449 17.6185,7.04087 C17.6194,7.03312 17.6209,7.02701 17.6217,7.02 C17.6225,7.01463 17.6234,7.00896 17.626,7.00449 C17.6269,6.99718 17.6284,6.98987 17.6292,6.98376 C17.6292,6.97839 17.6292,6.97302 17.6301,6.96542 C17.6301,6.96124 17.631,6.95498 17.631,6.94692 C17.632,6.94245 17.632,6.93649 17.6333,6.93082 C17.6333,6.92634 17.6346,6.91635 17.6346,6.91084 L17.6346,6.88802 C17.6346,6.87683 17.6346,6.86878 17.6333,6.85894 C17.6333,6.85357 17.6333,6.8482 17.6324,6.84 C17.6324,6.83463 17.6315,6.82852 17.6306,6.82345 C17.6306,6.81763 17.6306,6.80913 17.6297,6.80465 C17.6297,6.79779 17.6286,6.79302 17.6274,6.78721 C17.6263,6.77901 17.6241,6.77393 17.6229,6.77006 C17.6219,6.76096 17.6211,6.75738 17.6197,6.75037 C17.6197,6.74411 17.6177,6.73859 17.6156,6.73099 C17.6146,6.72502 17.6093,6.72055 17.6093,6.71294 C17.6084,6.70757 17.6061,6.70176 17.6035,6.694 C17.6018,6.68923 17.5995,6.68282 17.5985,6.67745 C17.5961,6.67074 17.5926,6.66313 17.5894,6.65627 C17.5894,6.65239 17.588,6.64688 17.5831,6.64136 C17.5799,6.63286 17.5776,6.62257 17.5723,6.61392 C17.5705,6.609 17.5691,6.60273 17.5673,6.5996 C17.5602,6.58931 17.5561,6.57872 17.5489,6.56948 C17.5478,6.565 17.5444,6.55964 17.5408,6.55427 C17.5383,6.54785 17.5329,6.5401 17.5299,6.53339 C17.5276,6.52802 17.5231,6.52265 17.5201,6.51728 C17.5152,6.51013 17.5097,6.50386 17.5064,6.49655 C17.502,6.49029 17.4998,6.48537 17.4948,6.48045 C17.4894,6.47329 17.486,6.46613 17.4798,6.45927 C17.4775,6.45525 17.4732,6.44898 17.4672,6.44361 C17.4628,6.43646 17.4572,6.43019 17.4519,6.42288 C17.4482,6.41662 17.4433,6.41304 17.4391,6.40842 C17.4333,6.39858 17.4284,6.39321 17.4197,6.38516 C17.4163,6.378 17.412,6.37531 17.4062,6.36979 C17.3995,6.36249 17.3916,6.35369 17.385,6.34459 C17.3795,6.34116 17.3755,6.33922 17.3737,6.33385 C17.3619,6.32207 17.3493,6.3088 17.3384,6.29791 C17.3363,6.29478 17.3303,6.29165 17.327,6.29076 C17.3179,6.27897 17.3083,6.27003 17.2981,6.26018 C17.2958,6.2575 17.2883,6.25198 17.2836,6.24945 C17.2759,6.24035 17.267,6.23289 17.2564,6.22529 C17.2509,6.21888 17.2466,6.21589 17.241,6.21127 C17.231,6.20352 17.222,6.19591 17.2125,6.18935 C17.2059,6.18398 17.2017,6.17906 17.1959,6.17279 C17.1847,6.16593 17.1748,6.16012 17.1666,6.15296 C17.1591,6.14625 17.155,6.14267 17.1458,6.1373 C17.1355,6.1291 17.1265,6.12269 17.1167,6.11434 C17.109,6.10956 17.1049,6.1036 17.0954,6.10092 C17.0856,6.09227 17.0741,6.08391 17.0615,6.07482 C17.055,6.07169 17.0494,6.06721 17.0437,6.06483 C17.0244,6.05185 17.0069,6.03888 16.9879,6.0268 C16.9609,6.00965 16.9307,5.99086 16.9006,5.97371 L16.8995,5.97371 C16.8704,5.95686 16.8377,5.93792 16.8054,5.92002 C16.8031,5.91913 16.8022,5.91644 16.7989,5.91644 C16.7313,5.88229 16.661,5.84859 16.5917,5.81444 L16.5778,5.80773 C15.7555,5.43654 14.5242,5.1875 13.6559,5.1875 C13.1506,5.1878 12.77,5.27012 12.6574,5.46339 Z" id="Shape" fill="url(#radialGradient-2)" fill-rule="nonzero"></path>
            <path d="M16.5571,18.694 C14.1744,19.7836 11.6517,20.9928 13.0018,21.0001 C16.6031,21.016 19.7406,18.7465 20.8388,15.4277 C20.4047,16.3385 19.2573,17.4559 16.5571,18.694 Z" id="Shape" fill="url(#radialGradient-3)" fill-rule="nonzero"></path>
            <path d="M16.8062,5.91699 C16.8728,5.95383 16.9342,5.98799 16.989,6.02393 C19.5533,7.67135 13.9697,9.29715 9.60966,11.2242 C6.67532,12.5201 4.82103,13.5376 5.01371,14.7932 C5.21006,16.0816 6.32598,18.6133 9.19716,20.0763 C9.12865,20.0412 9.06718,20.0042 9.00801,19.9656 C6.44508,18.3182 12.0267,16.6937 16.3884,14.7663 C19.3226,13.4705 21.1789,12.4546 20.9862,11.199 C20.7866,9.90983 19.6742,7.38291 16.8076,5.91714 L16.8062,5.91714 L16.8062,5.91699 Z" id="Shape" fill="url(#radialGradient-4)" fill-rule="nonzero"></path>
            <path d="M16.3874,14.766 C15.2858,15.2544 14.1044,15.7213 12.999,16.176 C14.8541,16.9341 16.5037,17.6581 17.2351,18.3635 C18.0646,17.9498 18.7225,17.5497 19.2413,17.1686 C19.2433,17.1686 19.2445,17.1652 19.2484,17.1642 C19.2881,17.1336 19.3287,17.1021 19.3679,17.0735 C19.3705,17.0707 19.3737,17.0707 19.3762,17.0671 C19.4162,17.0376 19.4541,17.008 19.4905,16.979 C19.4947,16.9772 19.4956,16.9745 19.4973,16.9727 C19.5353,16.9446 19.5701,16.9135 19.6061,16.8866 C19.607,16.8847 19.6079,16.8847 19.6093,16.8831 C19.6429,16.8544 19.6765,16.8273 19.7068,16.8012 C19.7119,16.7954 19.7191,16.7896 19.7266,16.7851 C19.7537,16.7593 19.7814,16.7366 19.8098,16.7114 C19.8198,16.7041 19.8274,16.6962 19.8355,16.6873 C19.8599,16.6664 19.8855,16.6416 19.9099,16.6197 C19.9198,16.6107 19.9284,16.6009 19.9392,16.5918 C19.9615,16.5702 19.9844,16.5483 20.0077,16.5274 C20.0169,16.5172 20.0281,16.5068 20.038,16.4985 C20.0538,16.4813 20.0708,16.4651 20.0877,16.4489 C20.1019,16.4336 20.117,16.4185 20.1298,16.403 C20.1435,16.3903 20.1553,16.3765 20.1681,16.3635 C20.185,16.3446 20.2026,16.3267 20.2196,16.3095 C20.231,16.2989 20.241,16.2871 20.2512,16.2754 C20.2688,16.2546 20.2882,16.2332 20.3072,16.2115 C20.3136,16.2039 20.3231,16.1953 20.3285,16.1872 C20.3686,16.1408 20.4045,16.0957 20.4413,16.0491 C20.4423,16.0484 20.4423,16.0458 20.4446,16.0439 C20.4692,16.0148 20.4903,15.9855 20.5132,15.9571 C20.5141,15.9558 20.5141,15.9532 20.5141,15.9513 C20.6522,15.7694 20.7561,15.591 20.8381,15.4225 C20.9075,15.1906 20.9547,14.9782 20.9845,14.7924 C21.081,14.1531 20.6508,13.5769 19.8193,12.9951 C19.0116,13.5596 17.8306,14.1279 16.3874,14.766 Z" id="Shape" fill="url(#radialGradient-5)" fill-rule="nonzero"></path>
            <path d="M6.2853,9.2021 L6.27534,9.20985 C6.24376,9.23729 6.21249,9.26369 6.18368,9.29113 C6.17709,9.2965 6.17096,9.30142 6.16437,9.30559 C6.13647,9.33169 6.10965,9.35555 6.08405,9.38239 C6.07363,9.38821 6.06934,9.39418 6.06275,9.40238 C6.03577,9.42519 6.01064,9.4507 5.98611,9.47277 C5.97845,9.48097 5.97201,9.48738 5.96389,9.49484 C5.94412,9.51646 5.92281,9.53659 5.90304,9.55822 C5.89154,9.56746 5.88158,9.57716 5.87376,9.58834 C5.85568,9.6043 5.83867,9.62115 5.82288,9.63815 C5.812,9.65083 5.79943,9.6647 5.78762,9.67782 C5.77276,9.69318 5.75973,9.70884 5.74256,9.72539 C5.7326,9.73613 5.72264,9.74776 5.71283,9.75865 C5.69689,9.77759 5.68125,9.79459 5.66807,9.81353 C5.6552,9.82501 5.64432,9.83858 5.63298,9.85125 C5.62209,9.86557 5.61075,9.87929 5.60002,9.89435 C5.58515,9.91046 5.57197,9.92761 5.5594,9.94178 C5.55404,9.95132 5.54852,9.95729 5.54224,9.96355 C5.52568,9.9892 5.50668,10.0107 5.48982,10.0354 C5.48645,10.0408 5.48078,10.0456 5.48001,10.0499 C5.45855,10.0778 5.43909,10.1033 5.42039,10.1298 C5.41931,10.1327 5.41778,10.1342 5.41548,10.1359 C5.31003,10.2863 5.22635,10.4336 5.15921,10.5763 C5.09055,10.8055 5.04288,11.0176 5.01606,11.2027 C4.91643,11.8399 5.34881,12.416 6.18123,12.9994 C6.9856,12.434 8.16778,11.8651 9.61129,11.2271 C10.7141,10.7404 11.8938,10.2734 13.002,9.81934 C11.1471,9.05714 9.49665,8.33924 8.76615,7.63281 C7.65831,8.18489 6.85807,8.71012 6.2853,9.2021 Z" id="Shape" fill="url(#radialGradient-6)" fill-rule="nonzero"></path>
            <path d="M12.9585,5.0003 C9.37041,5.0003 6.2521,7.26467 5.1582,10.5727 C5.59043,9.66103 6.7395,8.54435 9.43938,7.30598 C11.8206,6.2151 14.3439,5.00626 12.9974,5 L12.9585,5 L12.9585,5.0003 Z" id="Shape" fill="url(#radialGradient-7)" fill-rule="nonzero"></path>
        </g>
    </g>
</svg>