<svg width="43" height="22" viewBox="0 0 43 22" fill="none" xmlns="http://www.w3.org/2000/svg">
    <path fill-rule="evenodd" clip-rule="evenodd" d="M1.658 17.505v3.82H0V10.86h2.84c2.03 0 2.912 1.207 2.912 3.122v.436c0 1.994-.962 3.087-3.017 3.087H1.658zM18.01 3.494A81.505 81.505 0 011.48 1.807 1.237 1.237 0 00.004 3.015c0 .538.351 1.025.874 1.175 7.07 2.03 14.548 3.1 22.278 3.1 6.042 0 11.93-.645 17.587-1.913a2.45 2.45 0 001.905-2.391c0-1.359-1.114-2.46-2.488-2.46-.216 0-.431.025-.64.082a81.214 81.214 0 01-21.51 2.886zM43 21.324h-1.826l-1.57-4.203h-1.01v4.204h-1.658V10.86h2.831c1.984 0 2.893 1.002 2.893 2.93v.106c0 1.363-.496 2.342-1.373 2.843L43 21.325zM6.81 10.86h1.66v10.465H6.81V10.86zm4.825 1.518H9.36V10.86h6.21v1.518h-2.276v8.947h-1.659v-8.947zM22 13.476c.013.15.02.307.02.471v.227h-1.59v-.532c0-.986-.414-1.483-1.226-1.483-.802 0-1.226.497-1.226 1.483v4.665c0 .88.298 1.622 1.306 1.622 1.013 0 1.305-.726 1.305-1.622v-.715h1.588v.646c0 1.885-.91 3.209-2.929 3.209-2.011 0-2.91-1.335-2.91-3.21V13.8c0-1.901.934-3.07 2.83-3.07 1.796 0 2.73 1.037 2.831 2.747zm5.445 3.367H24.86v4.482H23.2V10.86h1.659v4.482h2.585V10.86h1.659v10.465h-1.659v-4.482zm4.729-1.588h2.84v1.5h-2.84v3.052H35.7v1.518h-5.187V10.86H35.7v1.518h-3.528v2.877zm6.421.349h.82c1.121 0 1.606-.383 1.606-1.535v-.157c0-.921-.27-1.535-1.288-1.535h-1.138v3.227zm-36.936.401h1.076c1.036 0 1.376-.512 1.376-1.5v-.593c0-.916-.253-1.534-1.27-1.534H1.658v3.627z" fill="#667481"/>
</svg>
