<svg width="18" height="18" viewBox="0 0 18 18" fill="none" xmlns="http://www.w3.org/2000/svg">
    <path d="M16.73 4.16h-2.016V.59c0-.326-.244-.59-.544-.59H3.83c-.3 0-.544.264-.544.59v3.57H1.27C.57 4.16 0 4.776 0 5.535v7.57c0 .76.57 1.377 1.27 1.377h2.016v2.927c0 .326.244.59.544.59h10.34c.3 0 .544-.264.544-.59v-2.927h2.016c.7 0 1.27-.618 1.27-1.377v-7.57c0-.76-.57-1.377-1.27-1.377zM4.375 1.18h9.25v2.98h-9.25V1.18zm9.25 15.64h-9.25v-5.854h9.25v5.854zm3.287-3.714c0 .107-.084.197-.182.197h-2.016v-2.927c0-.326-.244-.59-.544-.59H3.83c-.3 0-.544.264-.544.59v2.927H1.27c-.098 0-.182-.09-.182-.197v-7.57c0-.107.084-.197.182-.197h15.46c.098 0 .181.09.181.197v7.57z" fill="#B3CDD7"/>
    <path d="M14.17 8.402c.427 0 .774-.376.774-.84 0-.463-.347-.839-.774-.839-.428 0-.774.376-.774.84 0 .463.346.839.774.839zm-2.694 3.728H6.524c-.3 0-.544.264-.544.59 0 .326.244.59.544.59h4.952c.3 0 .544-.264.544-.59 0-.325-.243-.59-.544-.59zm0 2.345H6.524c-.3 0-.544.264-.544.59 0 .326.244.59.544.59h4.952c.3 0 .544-.264.544-.59 0-.326-.243-.59-.544-.59z" fill="#B3CDD7"/>
</svg>
