<svg width="42" height="48" viewBox="0 0 42 48" fill="none" xmlns="http://www.w3.org/2000/svg">
<path fill-rule="evenodd" clip-rule="evenodd" d="M32.0795 2.27778C32.0795 1.29644 31.2963 0.5 30.3315 0.5H2.35928C1.39366 0.5 0.611328 1.29644 0.611328 2.27778V38.7222C0.611328 39.7036 1.39453 40.5 2.35928 40.5H17V36.9116H13.7792V31.6111H18.9088C19.5052 31.0549 20.2151 30.6188 21 30.3414V29C21 27.0324 21.5682 25.1976 22.5496 23.6506V23.6111H22.5748C23.248 22.5607 24.1123 21.6445 25.1186 20.9116H22.5496V15.6111H27.8171V19.5172C28.8169 19.1818 29.8872 19 31 19C31.3647 19 31.7249 19.0195 32.0795 19.0576V2.27778ZM27.7632 12.0556H4.98169V4.94444H27.7632V12.0556ZM13.7793 20.9116H16.3464C16.3464 20.9215 16.537 20.922 19.0467 20.9116V15.6111H13.7793V20.9116ZM5.00879 15.6111H10.2763V20.9116H5.00879V15.6111ZM10.2763 23.6111H5.00879V28.9116H10.2763V23.6111ZM5.00879 31.6111H10.2763V36.9116H5.00879V31.6111ZM19.0467 23.6111V28.9116H13.7793V23.6111H19.0467Z" fill="white"/>
<path fill-rule="evenodd" clip-rule="evenodd" d="M35 29V33H27V29C27 26.7909 28.7909 25 31 25C33.2091 25 35 26.7909 35 29ZM24 33V29C24 25.134 27.134 22 31 22C34.866 22 38 25.134 38 29V33H39C40.6569 33 42 34.3431 42 36V45C42 46.6569 40.6569 48 39 48H23C21.3431 48 20 46.6569 20 45V36C20 34.3431 21.3431 33 23 33H24ZM34 39.5455C34 40.5609 33.4161 41.4374 32.5714 41.846V43.9091C32.5714 44.5116 32.0917 45 31.5 45C30.9083 45 30.4286 44.5116 30.4286 43.9091V41.846C29.5839 41.4374 29 40.5609 29 39.5455C29 38.1396 30.1193 37 31.5 37C32.8807 37 34 38.1396 34 39.5455Z" fill="white"/>
</svg>
