<svg width="46" height="38" viewBox="0 0 46 38" fill="none" xmlns="http://www.w3.org/2000/svg">
<path fill-rule="evenodd" clip-rule="evenodd" d="M36.0507 21.6566C35.3757 20.3532 34.5773 19.1667 33.6784 18.1154C33.6458 18.0478 33.6055 17.9776 33.557 17.905C31.2295 14.8356 31.0632 10.0609 32.5595 9.71987C34.0558 9.37883 35.8846 12.1072 36.3833 13.8125C36.7158 15.5177 39.5421 12.2777 39.5421 12.2777C39.5421 12.2777 39.9825 7.30944 37.9146 3.68454C37.9138 3.65464 37.9025 3.62016 37.8796 3.58101C37.6388 3.16942 38.6765 2.99626 39.6649 2.83133C40.7239 2.6546 41.7263 2.48732 41.0384 2.04629C39.9155 1.32648 36.4229 0.606678 34.3616 0.502498C33.373 0.167499 32.3829 0 31.2295 0C22.2508 0 20.436 9.03182 20.2702 13.0264C17.8104 13.5025 15.5356 14.6801 13.5652 16.4192C11.5634 13.8899 6.73745 11.3146 3.13275 13.4714C0.80521 14.8356 4.62902 20.8039 6.12529 18.9282C7.20873 17.3406 10.3095 16.4921 12.208 17.7584C11.1737 18.8955 10.2472 20.2035 9.45031 21.6566C7.91522 24.4907 6.9471 27.6156 6.54595 31.1656C4.8417 30.1229 3.56132 28.8937 2.71689 27.5078C2.28658 26.8017 1.37962 26.587 0.691132 27.0284C0.00264381 27.4697 -0.206655 28.4 0.22365 29.1062C2.13333 32.2402 5.47832 34.4499 9.65052 35.8763C13.8056 37.2969 18.2868 38 23.0831 38C27.7102 38 32.3581 37.2978 36.5157 35.8763L36.5337 35.87C40.4836 34.4609 44.0533 32.2512 45.8109 29.0462C46.209 28.3204 45.958 27.4011 45.2504 26.9928C44.5428 26.5845 43.6464 26.842 43.2484 27.5678C42.4336 29.0535 40.9601 30.3787 38.9898 31.4873C38.6117 27.804 37.632 24.576 36.0507 21.6566ZM22.7505 23.1913C28.3967 23.1913 33.0624 27.3576 35.0763 33.1849C31.3808 34.3795 27.2414 34.9843 23.0831 34.9843C18.5693 34.9843 14.4053 34.3232 10.5803 33.0154L10.4981 32.9872C12.5725 27.2636 17.3192 23.1913 22.7505 23.1913Z" fill="white"/>
</svg>
