<svg width="56" height="53" viewBox="0 0 56 53" fill="none" xmlns="http://www.w3.org/2000/svg">
<path fill-rule="evenodd" clip-rule="evenodd" d="M28 12.5C20.82 12.5 15 18.32 15 25.5C15 32.68 20.82 38.5 28 38.5C35.18 38.5 41 32.68 41 25.5C41 18.32 35.18 12.5 28 12.5ZM21 27.5C19.896 27.5 19 26.604 19 25.5C19 24.396 19.896 23.5 21 23.5C22.104 23.5 23 24.396 23 25.5C23 26.604 22.104 27.5 21 27.5ZM28 27.5C26.896 27.5 26 26.604 26 25.5C26 24.396 26.896 23.5 28 23.5C29.104 23.5 30 24.396 30 25.5C30 26.604 29.104 27.5 28 27.5ZM35 27.5C33.896 27.5 33 26.604 33 25.5C33 24.396 33.896 23.5 35 23.5C36.104 23.5 37 24.396 37 25.5C37 26.604 36.104 27.5 35 27.5Z" fill="white"/>
<path d="M53 17.5H52.207C48.843 7.348 39.267 0 28 0C16.734 0 7.157 7.348 3.792 17.5H3C1.343 17.5 0 18.843 0 20.5V30.5C0 32.156 1.343 33.5 3 33.5H6C7.657 33.5 9 32.156 9 30.5V20.5C9 19.164 8.12 18.045 6.913 17.657C10.103 9.107 18.351 3 28 3C37.648 3 45.896 9.106 49.087 17.657H49.088C47.881 18.045 47 19.164 47 20.501V30.501C47 31.837 47.88 32.956 49.087 33.344C46.439 40.443 40.3 45.843 32.774 47.478C32.239 45.896 30.761 44.75 29 44.75C26.791 44.75 25 46.541 25 48.75C25 50.959 26.791 52.75 29 52.75C30.545 52.75 31.87 51.864 32.536 50.582C41.778 48.913 49.306 42.256 52.207 33.5H53C54.656 33.5 56 32.156 56 30.5V20.5C56 18.843 54.656 17.5 53 17.5ZM6 30.5H3V20.5H6V30.5ZM6 17.5C6.169 17.5 6.333 17.52 6.493 17.55C6.332 17.523 6.169 17.5 6 17.5ZM50 17.5C49.831 17.5 49.669 17.523 49.508 17.55C49.667 17.52 49.831 17.5 50 17.5ZM49.508 33.45C49.669 33.477 49.831 33.5 50 33.5C49.831 33.5 49.668 33.48 49.508 33.45ZM53 30.5H50V20.5H53V30.5Z" fill="white"/>
</svg>
