<svg width="44" height="34" viewBox="0 0 44 34" fill="none" xmlns="http://www.w3.org/2000/svg">
<path d="M2.5 24.906V2.5H40V2.115C39.691 1.007 39.072 0.302 38.041 0H1.959C0.928 0.302 0.309 1.007 0 2.115V25.885C0 26.893 0.722 28 1.855 28H37.928C39.371 28 39.887 27.094 39.99 26.188L39.991 24.907H2.5V24.906Z" fill="white"/>
<path fill-rule="evenodd" clip-rule="evenodd" d="M17 16H22C22.552 16 23 16.447 23 17C23 17.553 22.552 18 22 18H17C16.448 18 16 17.553 16 17C16 16.447 16.448 16 17 16Z" fill="white"/>
<path fill-rule="evenodd" clip-rule="evenodd" d="M13 11H22C22 11.5 22.5 11.5 23 12C23 12.552 22.552 13 22 13H13C12.448 13 12 12.552 12 12C12 11.448 12.448 11 13 11Z" fill="white"/>
<path fill-rule="evenodd" clip-rule="evenodd" d="M43 6H23C22.447 6 22 6.448 22 7V6.898L31.469 13.406C32.571 14.265 33.405 14.263 34.5 13.406L44 6.816V7C44 6.448 43.553 6 43 6Z" fill="white"/>
<path fill-rule="evenodd" clip-rule="evenodd" d="M42 12.0921V19.0001H24V12.1451L22 11V20.0001C22 20.5531 22.447 21.0001 23 21.0001H43C43.553 21.0001 44 20.5531 44 20.0001V10.5371L42 12.0921Z" fill="white"/>
<path d="M11.9668 34C10.6777 33.889 10.6777 31.334 11.9668 31H28.0328C29.3218 31.223 29.3218 33.889 28.0328 34C28.0328 34 11.7688 34 11.9668 34Z" fill="white"/>
</svg>
