<svg width="45" height="45" viewBox="0 0 45 45" fill="none" xmlns="http://www.w3.org/2000/svg">
<path d="M41.5269 40.152L44.4429 35.498L37.6069 35.515L40.4409 40.14C40.6889 40.557 41.2789 40.555 41.5269 40.152Z" fill="white"/>
<path d="M44.4918 10.511L37.4918 10.499L37.4858 7.61396C37.4848 6.99396 37.9798 6.49596 38.6008 6.49396L43.3688 6.48096C43.9888 6.47896 44.4858 6.97296 44.4868 7.59296L44.4918 10.511Z" fill="white"/>
<path d="M43.303 12.4829L38.66 12.4959C38.009 12.4969 37.482 13.0269 37.484 13.6779L37.478 32.2909C37.48 32.9569 38.016 33.4899 38.683 33.4879L43.294 33.5069C43.944 33.5059 44.472 32.9769 44.47 32.3249L44.506 13.6799C44.506 13.0139 43.969 12.4809 43.303 12.4829Z" fill="white"/>
<path d="M28.8913 25.622C28.8423 25.521 28.7393 25.458 28.6243 25.458H23.7233L27.1623 19.936C27.2193 19.848 27.2233 19.737 27.1713 19.647C27.1193 19.557 27.0203 19.5 26.9123 19.5H21.2073C21.0963 19.5 20.9933 19.561 20.9433 19.657L17.5313 28.157C17.4853 28.245 17.4903 28.349 17.5443 28.431C17.5983 28.515 17.6923 28.566 17.7953 28.566H20.8183L18.4393 36.107C18.3833 36.236 18.4333 36.384 18.5573 36.46C18.6053 36.486 18.6583 36.501 18.7103 36.501C18.7943 36.501 18.8783 36.466 18.9353 36.4L28.8483 25.924C28.9223 25.84 28.9383 25.723 28.8913 25.622Z" fill="white"/>
<path d="M31 10.5H32C32.828 10.5 33.5 11.171 33.5 12V14C33.5 14.829 32.828 15.5 32 15.5H31C30.172 15.5 29.5 14.829 29.5 14V12C29.5 11.171 30.172 10.5 31 10.5Z" fill="white"/>
<path d="M25 10.5H26C26.828 10.5 27.5 11.171 27.5 12V14C27.5 14.829 26.828 15.5 26 15.5H25C24.172 15.5 23.5 14.829 23.5 14V12C23.5 11.171 24.172 10.5 25 10.5Z" fill="white"/>
<path d="M19 10.5H20C20.828 10.5 21.5 11.171 21.5 12V14C21.5 14.829 20.828 15.5 20 15.5H19C18.172 15.5 17.5 14.829 17.5 14V12C17.5 11.171 18.172 10.5 19 10.5Z" fill="white"/>
<path d="M13 10.5H14C14.828 10.5 15.5 11.171 15.5 12V14C15.5 14.829 14.828 15.5 14 15.5H13C12.172 15.5 11.5 14.829 11.5 14V12C11.5 11.171 12.172 10.5 13 10.5Z" fill="white"/>
<path d="M34.557 37.183C31.276 39.88 27.078 41.5 22.5 41.5C12.007 41.5 3.5 32.993 3.5 22.5C3.5 12.007 12.007 3.5 22.5 3.5C27.078 3.5 31.276 5.12 34.557 7.817V4.101C31.094 1.827 26.953 0.5 22.5 0.5C10.35 0.5 0.5 10.35 0.5 22.5C0.5 34.65 10.35 44.5 22.5 44.5C26.953 44.5 31.094 43.173 34.557 40.899V37.183Z" fill="white"/>
</svg>
