<svg width="54" height="38" viewBox="0 0 54 38" fill="none" xmlns="http://www.w3.org/2000/svg">
<path fill-rule="evenodd" clip-rule="evenodd" d="M30.54 0.116417C31.0281 0.374835 31.2143 0.980027 30.9559 1.46815L30.4575 2.40964L30.4478 2.42739C30.0618 3.12223 30.0618 3.8626 30.4478 4.55744L30.4575 4.57519L30.9423 5.49106C31.7246 6.79135 31.7246 8.22382 30.9423 9.52411L30.4575 10.44C30.1991 10.9281 29.5939 11.1143 29.1057 10.8559C28.6176 10.5975 28.4314 9.99228 28.6898 9.50416L29.1883 8.56267C29.1979 8.54451 29.208 8.52664 29.2188 8.50911C29.6323 7.83236 29.6323 7.18281 29.2188 6.50606C29.208 6.48852 29.1979 6.47066 29.1883 6.4525L28.6943 5.5194C27.9796 4.2259 27.9796 2.75894 28.6943 1.46544L29.1883 0.532335C29.4467 0.0442117 30.0519 -0.142001 30.54 0.116417Z" fill="white"/>
<path fill-rule="evenodd" clip-rule="evenodd" d="M36.4104 0.116417C36.8985 0.374835 37.0847 0.980027 36.8263 1.46815L36.3279 2.40964L36.3183 2.42739C35.9322 3.12223 35.9322 3.8626 36.3183 4.55744L36.3279 4.57519L36.8219 5.50828C37.5366 6.80152 37.5366 8.21364 36.8219 9.50688L36.3279 10.44C36.0695 10.9281 35.4643 11.1143 34.9762 10.8559C34.488 10.5975 34.3018 9.99228 34.5602 9.50416L35.0587 8.56267L35.0683 8.54492C35.4543 7.85008 35.4543 7.16509 35.0683 6.47025L35.0587 6.4525L34.5647 5.5194C33.85 4.2259 33.85 2.75894 34.5647 1.46544L35.0587 0.532335C35.3171 0.0442117 35.9223 -0.142001 36.4104 0.116417Z" fill="white"/>
<path fill-rule="evenodd" clip-rule="evenodd" d="M42.5577 0.116417C43.0459 0.374835 43.2321 0.980027 42.9737 1.46815L42.4752 2.40964L42.4656 2.42739C42.0796 3.12223 42.0796 3.8626 42.4656 4.55744L42.4752 4.57519L42.9692 5.50828C43.6839 6.80152 43.6839 8.21364 42.9692 9.50688L42.4752 10.44C42.2168 10.9281 41.6116 11.1143 41.1235 10.8559C40.6354 10.5975 40.4492 9.99228 40.7076 9.50416L41.206 8.56267L41.2156 8.54492C41.6017 7.85008 41.6017 7.16509 41.2156 6.47025L41.206 6.4525L40.712 5.5194C39.9973 4.2259 39.9973 2.75894 40.712 1.46544L41.206 0.532335C41.4644 0.0442117 42.0696 -0.142001 42.5577 0.116417Z" fill="white"/>
<path fill-rule="evenodd" clip-rule="evenodd" d="M9.85788 14.7349C9.58098 14.2918 8.97178 14.0149 8.52873 14.0149C8.08568 14.0149 7.53187 14.2918 7.19958 14.7349C6.03657 16.6179 0 25.6451 0 29.6879C0 34.2846 3.82131 37.9952 8.52873 37.9952C13.2915 37.9952 17.1128 34.2846 17.1128 29.6879C17.1128 25.6451 11.0763 16.4517 9.85788 14.7349ZM9.41483 19.7746C7.08881 22.9314 5.59352 28.0819 5.31661 29.5218C4.87356 30.9617 2.76907 30.2417 3.10136 28.968C3.54441 25.5343 5.15047 22.2114 7.36572 19.0547C7.80877 18.0578 9.85788 18.1685 9.41483 19.7746Z" fill="white"/>
<path fill-rule="evenodd" clip-rule="evenodd" d="M25.0926 17.3144V34.6957C25.1067 34.7035 25.1222 34.7116 25.1393 34.7201C25.4313 34.8661 25.9396 34.9997 26.5831 34.9997C27.2265 34.9997 27.7349 34.8661 28.0268 34.7201C28.0439 34.7116 28.0594 34.7035 28.0735 34.6957V17.3144C28.0594 17.3066 28.0439 17.2985 28.0268 17.29C27.7349 17.144 27.2265 17.0104 26.5831 17.0104C25.9396 17.0104 25.4313 17.144 25.1393 17.29C25.1222 17.2985 25.1067 17.3066 25.0926 17.3144ZM23.7975 14.6064C24.5879 14.2112 25.5748 14.0101 26.5831 14.0101C27.5913 14.0101 28.5782 14.2112 29.3686 14.6064C30.0693 14.9568 31.0738 15.7183 31.0738 17.0055V35.0046C31.0738 36.2918 30.0693 37.0533 29.3686 37.4037C28.5782 37.7989 27.5913 38 26.5831 38C25.5748 38 24.5879 37.7989 23.7975 37.4037C23.0968 37.0533 22.0923 36.2918 22.0923 35.0046V17.0055C22.0923 15.7183 23.0968 14.9568 23.7975 14.6064Z" fill="white"/>
<path fill-rule="evenodd" clip-rule="evenodd" d="M31.1292 17.3144V34.6957C31.1433 34.7035 31.1588 34.7116 31.1758 34.7201C31.4678 34.8661 31.9762 34.9997 32.6196 34.9997C33.2631 34.9997 33.7714 34.8661 34.0634 34.7201C34.0804 34.7116 34.096 34.7035 34.1101 34.6957V17.3144C34.096 17.3066 34.0804 17.2985 34.0634 17.29C33.7714 17.144 33.2631 17.0104 32.6196 17.0104C31.9762 17.0104 31.4678 17.144 31.1758 17.29C31.1588 17.2985 31.1433 17.3066 31.1292 17.3144ZM29.8341 14.6064C30.6245 14.2112 31.6114 14.0101 32.6196 14.0101C33.6278 14.0101 34.6148 14.2112 35.4052 14.6064C36.1058 14.9568 37.1103 15.7183 37.1103 17.0055V35.0046C37.1103 36.2918 36.1058 37.0533 35.4052 37.4037C34.6148 37.7989 33.6278 38 32.6196 38C31.6114 38 30.6245 37.7989 29.8341 37.4037C29.1334 37.0533 28.1289 36.2918 28.1289 35.0046V17.0055C28.1289 15.7183 29.1334 14.9568 29.8341 14.6064Z" fill="white"/>
<path fill-rule="evenodd" clip-rule="evenodd" d="M37.1103 17.3144V34.6957C37.1245 34.7035 37.14 34.7116 37.157 34.7201C37.449 34.8661 37.9574 34.9997 38.6008 34.9997C39.2443 34.9997 39.7526 34.8661 40.0446 34.7201C40.0616 34.7116 40.0772 34.7035 40.0913 34.6957V17.3144C40.0772 17.3066 40.0616 17.2985 40.0446 17.29C39.7526 17.144 39.2443 17.0104 38.6008 17.0104C37.9574 17.0104 37.449 17.144 37.157 17.29C37.14 17.2985 37.1245 17.3066 37.1103 17.3144ZM35.8153 14.6064C36.6057 14.2112 37.5926 14.0101 38.6008 14.0101C39.609 14.0101 40.596 14.2112 41.3864 14.6064C42.087 14.9568 43.0915 15.7183 43.0915 17.0055V35.0046C43.0915 36.2918 42.087 37.0533 41.3864 37.4037C40.596 37.7989 39.609 38 38.6008 38C37.5926 38 36.6057 37.7989 35.8153 37.4037C35.1146 37.0533 34.1101 36.2918 34.1101 35.0046V17.0055C34.1101 15.7183 35.1146 14.9568 35.8153 14.6064Z" fill="white"/>
<path fill-rule="evenodd" clip-rule="evenodd" d="M43.0915 17.3144V34.6957C43.1057 34.7035 43.1212 34.7116 43.1382 34.7201C43.4302 34.8661 43.9386 34.9997 44.582 34.9997C45.2254 34.9997 45.7338 34.8661 46.0258 34.7201C46.0428 34.7116 46.0583 34.7035 46.0725 34.6957V17.3144C46.0583 17.3066 46.0428 17.2985 46.0258 17.29C45.7338 17.144 45.2254 17.0104 44.582 17.0104C43.9386 17.0104 43.4302 17.144 43.1382 17.29C43.1212 17.2985 43.1057 17.3066 43.0915 17.3144ZM41.7965 14.6064C42.5868 14.2112 43.5738 14.0101 44.582 14.0101C45.5902 14.0101 46.5771 14.2112 47.3675 14.6064C48.0682 14.9568 49.0727 15.7183 49.0727 17.0055V35.0046C49.0727 36.2918 48.0682 37.0533 47.3675 37.4037C46.5771 37.7989 45.5902 38 44.582 38C43.5738 38 42.5868 37.7989 41.7965 37.4037C41.0958 37.0533 40.0913 36.2918 40.0913 35.0046V17.0055C40.0913 15.7183 41.0958 14.9568 41.7965 14.6064Z" fill="white"/>
<path fill-rule="evenodd" clip-rule="evenodd" d="M18.9926 18.9993C18.9926 18.447 19.4404 17.9992 19.9927 17.9992H23.8694C24.4217 17.9992 24.8694 18.447 24.8694 18.9993C24.8694 19.5516 24.4217 19.9993 23.8694 19.9993H19.9927C19.4404 19.9993 18.9926 19.5516 18.9926 18.9993ZM46.8495 18.9993C46.8495 18.447 47.2972 17.9992 47.8495 17.9992H51.0062C52.6662 17.9992 54 19.3331 54 20.993V22.9867C54 23.5391 53.5523 23.9868 53 23.9868C52.4477 23.9868 51.9999 23.5391 51.9999 22.9867V20.993C51.9999 20.4377 51.5616 19.9993 51.0062 19.9993H47.8495C47.2972 19.9993 46.8495 19.5516 46.8495 18.9993Z" fill="white"/>
</svg>
