<svg width="39" height="33" viewBox="0 0 39 33" fill="none" xmlns="http://www.w3.org/2000/svg">
<path d="M4.50001 33C4.11601 33 3.73201 32.854 3.43901 32.561L0.439012 29.561C-0.146988 28.975 -0.146988 28.026 0.439012 27.44C1.02501 26.854 1.97401 26.854 2.56001 27.44L4.49901 29.379L9.43801 24.44C10.024 23.854 10.973 23.854 11.559 24.44C12.145 25.026 12.145 25.975 11.559 26.561L5.55901 32.561C5.26801 32.854 4.88401 33 4.50001 33Z" fill="white"/>
<path fill-rule="evenodd" clip-rule="evenodd" d="M15.5 28.5H37.5C38.053 28.5 38.5 28.947 38.5 29.5V30.5C38.5 31.053 38.053 31.5 37.5 31.5H15.5C14.947 31.5 14.5 31.053 14.5 30.5V29.5C14.5 28.947 14.947 28.5 15.5 28.5Z" fill="white"/>
<path d="M4.50001 21C4.11601 21 3.73201 20.854 3.43901 20.561L0.439012 17.561C-0.146988 16.975 -0.146988 16.026 0.439012 15.44C1.02501 14.854 1.97401 14.854 2.56001 15.44L4.49901 17.379L9.43801 12.44C10.024 11.854 10.973 11.854 11.559 12.44C12.145 13.025 12.145 13.976 11.559 14.561L5.55901 20.561C5.26801 20.854 4.88401 21 4.50001 21Z" fill="white"/>
<path fill-rule="evenodd" clip-rule="evenodd" d="M15.5 16.5H37.5C38.053 16.5 38.5 16.947 38.5 17.5V18.5C38.5 19.053 38.053 19.5 37.5 19.5H15.5C14.947 19.5 14.5 19.053 14.5 18.5V17.5C14.5 16.947 14.947 16.5 15.5 16.5Z" fill="white"/>
<path d="M4.50001 8.99999C4.11601 8.99999 3.73201 8.85399 3.43901 8.56099L0.439012 5.56099C-0.146988 4.97599 -0.146988 4.02499 0.439012 3.43999C1.02501 2.85399 1.97401 2.85399 2.56001 3.43999L4.49901 5.37899L9.43801 0.439988C10.024 -0.146012 10.973 -0.146012 11.559 0.439988C12.145 1.02499 12.145 1.97599 11.559 2.56099L5.55901 8.56099C5.26801 8.85399 4.88401 8.99999 4.50001 8.99999Z" fill="white"/>
<path fill-rule="evenodd" clip-rule="evenodd" d="M15.5 4.5H37.5C38.053 4.5 38.5 4.948 38.5 5.5V6.5C38.5 7.052 38.053 7.5 37.5 7.5H15.5C14.947 7.5 14.5 7.052 14.5 6.5V5.5C14.5 4.948 14.947 4.5 15.5 4.5Z" fill="white"/>
</svg>
