<svg width="80" height="80" viewBox="0 0 80 80" fill="none" xmlns="http://www.w3.org/2000/svg">
<rect width="80" height="80" rx="40" fill="url(#paint0_linear)"/>
<path fill-rule="evenodd" clip-rule="evenodd" d="M38.8256 38.7565L48.3247 48.2556C49.2919 49.2228 49.2919 50.8118 48.3247 51.779C47.3575 52.7461 45.7686 52.7461 44.8014 51.779L35.3022 42.2798C33.6442 42.7289 31.8135 42.3144 30.5009 41.0018C29.1882 39.6892 28.7737 37.8584 29.2228 36.2004L32.2625 39.2401L35.0604 38.5147L35.7858 35.7168L32.7461 32.6771C34.4041 32.228 36.2349 32.6771 37.5475 33.9551C38.8256 35.2677 39.2746 37.0985 38.8256 38.7565ZM50.2245 19.3092C49.5682 18.6529 48.4974 19.1365 48.4974 20V22.0035V22.0726V22.1417V22.1762V22.2453V22.3144V22.3835V22.4525V22.5216V22.5562V22.6253V22.6943V22.7634V22.8325V22.867V22.9361V23.0052V23.0743V23.1434V23.1779V23.247V23.3161V23.3852V23.4543V23.5234V23.5579V23.627V23.6961V23.7651V23.8342V23.8688V23.9379V24.0069V24.0415C48.5319 24.456 48.7392 24.7323 49.0155 24.8705C49.1537 24.9741 49.3264 25.0087 49.4991 25.0087C49.6718 25.0087 49.81 24.9741 49.9482 24.905C50.2591 24.7669 50.5009 24.4905 50.5009 24.0415V24.0069V23.9379V23.8688V23.8342V23.7651V23.6961V23.627V23.5579V23.5234V23.4543V23.3852V23.3161V23.247V23.1779V23.1434V23.0743V23.0052V22.9361V22.867V22.8325V22.7634V22.6943V22.6253V22.5562V22.5216V22.4525V22.3835V22.3144V22.2453V22.1762V22.1417V22.0726V22.0035V20C50.5009 19.7237 50.3972 19.4819 50.2245 19.3092ZM30.2245 19.3092C29.6028 18.6529 28.4974 19.1365 28.4974 20V22.0035V22.0726V22.1417V22.1762V22.2453V22.3144V22.3835V22.4525V22.5216V22.5562V22.6253V22.6943V22.7634V22.8325V22.867V22.9361V23.0052V23.0743V23.1434V23.1779V23.247V23.3161V23.3852V23.4543V23.5234V23.5579V23.627V23.6961V23.7651V23.8342V23.8688V23.9379V24.0069V24.0415C28.5319 24.456 28.7392 24.7323 29.0155 24.8705C29.1537 24.9741 29.3264 25.0087 29.4991 25.0087C29.6718 25.0087 29.81 24.9741 29.9482 24.905C30.2591 24.7669 30.5009 24.4905 30.5009 24.0415V24.0069V23.9379V23.8688V23.8342V23.7651V23.6961V23.627V23.5579V23.5234V23.4543V23.3852V23.3161V23.247V23.1779V23.1434V23.0743V23.0052V22.9361V22.867V22.8325V22.7634V22.6943V22.6253V22.5562V22.5216V22.4525V22.3835V22.3144V22.2453V22.1762V22.1417V22.0726V22.0035V20C30.5009 19.7237 30.3972 19.4819 30.2245 19.3092ZM58.5147 25.4923V54.5078C58.5147 55.475 58.1002 56.3386 57.4784 56.9949C56.8566 57.6166 55.9585 57.9966 54.9914 57.9966H24.0069C23.0397 57.9966 22.1762 57.6166 21.5199 56.9949V56.9603C20.8981 56.3386 20.5181 55.475 20.5181 54.5078V25.4923C20.5181 24.5596 20.8981 23.6615 21.5199 23.0398L21.6235 22.9361C22.2798 22.3489 23.1088 22.0035 24.0069 22.0035H26.4939V24.0069C26.4939 24.8014 26.8048 25.5268 27.323 26.0449L27.392 26.114C27.9447 26.6667 28.6701 27.0121 29.4991 27.0121C30.3281 27.0121 31.0881 26.6667 31.6408 26.114C32.1589 25.5959 32.5043 24.836 32.5043 24.0069V22.0035H46.4939V24.0069C46.4939 24.3524 46.563 24.6978 46.6667 25.0087L46.7012 25.0432V25.0778V25.1123H46.7357V25.1468V25.1814L46.7703 25.2159V25.2505L46.8048 25.285V25.3196L46.8394 25.3541V25.3886L46.8739 25.4232V25.4577H46.9085V25.4923V25.5268H46.943V25.5613V25.5959H46.9775V25.6304L47.0121 25.665L47.0466 25.6995V25.7341H47.0812V25.7686L47.1157 25.8031V25.8377H47.1503V25.8722H47.1848V25.9068L47.2193 25.9413L47.2539 25.9759L47.2884 26.0104V26.0449H47.323L47.392 26.114C47.9447 26.6667 48.6701 27.0121 49.4991 27.0121C50.3281 27.0121 51.0881 26.6667 51.6408 26.114V26.0795H51.6753L51.7098 26.0449V26.0104H51.7444V25.9759H51.7789V25.9413H51.8135V25.9068H51.848V25.8722L51.8825 25.8377V25.8031H51.9171V25.7686H51.9516V25.7341L51.9862 25.6995V25.665H52.0207V25.6304L52.0553 25.5959V25.5613H52.0898V25.5268V25.4923H52.1243V25.4577L52.1589 25.4232V25.3886L52.1934 25.3541V25.3196V25.285H52.228V25.2505L52.2625 25.2159V25.1814L52.2971 25.1468V25.1123V25.0778L52.3316 25.0432V25.0087C52.4352 24.6978 52.5043 24.3524 52.5043 24.0069V22.0035H54.9914C55.9585 22.0035 56.8566 22.3835 57.4784 23.0398C58.1002 23.6615 58.5147 24.5596 58.5147 25.4923ZM55.5095 30.0173H23.4888V54.5078C23.4888 54.646 23.5579 54.7841 23.6615 54.8532C23.7306 54.9569 23.8687 55.0259 24.0069 55.0259H54.9914C55.1295 55.0259 55.2677 54.9569 55.3713 54.8532C55.4404 54.7841 55.5095 54.646 55.5095 54.5078V30.0173ZM45.6995 49.1537C46.1831 48.6702 46.9775 48.6702 47.4611 49.1537C47.9447 49.6373 47.9447 50.4318 47.4611 50.9154C46.9775 51.399 46.1831 51.399 45.6995 50.9154C45.2159 50.4318 45.2159 49.6373 45.6995 49.1537Z" fill="white"/>
<defs>
<linearGradient id="paint0_linear" x1="40" y1="0" x2="40" y2="80" gradientUnits="userSpaceOnUse">
<stop stop-color="#F27026"/>
<stop offset="1" stop-color="#F06623"/>
</linearGradient>
</defs>
</svg>
