<svg width="30" height="40" viewBox="0 0 30 40" fill="none" xmlns="http://www.w3.org/2000/svg">
<path d="M17.3556 9.02246H6.75439V11.0249H17.3556V9.02246Z" fill="white"/>
<path d="M22.1744 14.0347H6.75439V16.0371H22.1744V14.0347Z" fill="white"/>
<path d="M22.1744 19.0469H6.75439V21.0493H22.1744V19.0469Z" fill="white"/>
<path d="M12.5368 24.0596H6.75439V26.062H12.5368V24.0596Z" fill="white"/>
<path d="M20.2628 33.0818C21.8615 33.0818 23.1575 31.7353 23.1575 30.0743C23.1575 28.4134 21.8615 27.0669 20.2628 27.0669C18.6642 27.0669 17.3682 28.4134 17.3682 30.0743C17.3682 31.7353 18.6642 33.0818 20.2628 33.0818Z" fill="white"/>
<path fill-rule="evenodd" clip-rule="evenodd" d="M3.08215 3.14716C2.9658 3.27812 2.89118 3.45796 2.89118 3.65007V36.5886C2.89118 36.6831 2.90857 36.7432 2.92453 36.7805C2.94111 36.8192 2.96473 36.8533 2.99675 36.8838C3.06729 36.9509 3.17544 36.9962 3.28348 36.9962H26.4868C26.7819 36.9962 26.9495 36.9043 27.0176 36.8444C27.0498 36.816 27.0678 36.7893 27.0797 36.7624C27.0915 36.736 27.1088 36.6832 27.1088 36.5886V7.63257L22.4599 3.0038H3.28348C3.28692 3.0038 3.28663 3.00299 3.28348 3.0038C3.2687 3.0076 3.18663 3.02956 3.08215 3.14716ZM0 3.65007C0 1.74262 1.45939 0 3.28348 0H23.0408C23.4135 0 23.7718 0.149593 24.041 0.417547L29.5546 5.9073C29.8391 6.19058 30 6.58225 30 6.99166V36.5886C30 37.6208 29.5877 38.5198 28.8851 39.1374C28.2066 39.7339 27.3403 40 26.4868 40H3.28348C1.68713 40 0 38.7319 0 36.5886V3.65007Z" fill="white"/>
<path fill-rule="evenodd" clip-rule="evenodd" d="M22.1925 2.00496L27.9818 8.01982H24.6736C23.2952 8.01982 22.1925 7.23527 22.1925 5.92769V2.00496Z" fill="white"/>
</svg>
