<svg width="43" height="42" viewBox="0 0 43 42" fill="none" xmlns="http://www.w3.org/2000/svg">
<path d="M42.4453 28.062C42.3843 27.939 42.2593 27.859 42.1173 27.859H36.1033L40.3243 21.037C40.3923 20.93 40.3983 20.792 40.3363 20.682C40.2723 20.569 40.1493 20.5 40.0183 20.5H33.0183C32.8823 20.5 32.7563 20.575 32.6943 20.694L28.5083 31.193C28.4513 31.302 28.4583 31.43 28.5243 31.533C28.5903 31.637 28.7063 31.7 28.8333 31.7H32.5433L29.6233 41.014C29.5543 41.174 29.6153 41.356 29.7673 41.449C29.8283 41.483 29.8923 41.5 29.9563 41.5C30.0593 41.5 30.1613 41.456 30.2313 41.375L42.3933 28.437C42.4833 28.331 42.5023 28.186 42.4453 28.062Z" fill="white"/>
<path d="M9.1629 2.12509C8.9039 1.74709 8.38791 1.49609 7.99991 1.49609C7.61191 1.49609 7.0949 1.74709 6.83591 2.12509C5.80291 3.76009 0.503906 11.6851 0.503906 15.2081C0.503906 19.2331 3.86391 22.5041 7.99891 22.5041C12.1339 22.5041 15.4939 19.2331 15.4939 15.2081C15.4949 11.6861 10.1969 3.63509 9.1629 2.12509ZM8.77491 6.52809C6.70691 9.29509 5.41491 13.8241 5.15591 15.0821C4.76791 16.3401 2.95891 15.7121 3.21791 14.5791C3.60591 11.5601 5.02691 8.66709 6.96591 5.89909C7.35391 5.01809 9.16291 5.14409 8.77491 6.52809Z" fill="white"/>
<path fill-rule="evenodd" clip-rule="evenodd" d="M4.31407 25.691C2.96207 25.144 1.74407 24.343 0.726074 23.345C2.11007 33.04 10.4231 40.5 20.5001 40.5C22.3601 40.5 24.1531 40.227 25.8611 39.752L26.9421 36.229C24.9541 37.043 22.7811 37.5 20.5001 37.5C12.9231 37.5 6.50907 32.54 4.31407 25.691Z" fill="white"/>
<path fill-rule="evenodd" clip-rule="evenodd" d="M20.5001 0.5C18.0631 0.5 15.7391 0.957999 13.5791 1.755C14.0771 2.59 14.5881 3.475 15.0971 4.391C16.7961 3.821 18.6091 3.499 20.5001 3.499C28.5091 3.499 35.2051 9.044 37.0071 16.499H40.0991C38.2451 7.371 30.1761 0.5 20.5001 0.5Z" fill="white"/>
</svg>
