<svg width="42" height="34" viewBox="0 0 42 34" fill="none" xmlns="http://www.w3.org/2000/svg">
<path d="M40.041 6H25.959C24.928 6.302 24.309 7.007 24 8.115V31.885C24 32.893 24.722 34 25.855 34H39.928C41.371 34 41.887 33.094 41.99 32.188L42 8.116C41.691 7.007 41.072 6.302 40.041 6ZM35 32H31C30.447 32 30 31.553 30 31C30 30.447 30.447 30 31 30H35C35.553 30 36 30.447 36 31C36 31.553 35.553 32 35 32ZM38.998 27.992H26.971V8.983H38.998V27.992Z" fill="white"/>
<path d="M21 21.992H2.971V2.983H36.998V3H40V2.115C39.691 1.007 39.072 0.302 38.041 0H1.959C0.928 0.302 0.309 1.007 0 2.115V25.885C0 26.893 0.722 28 1.855 28H21V21.992Z" fill="white"/>
<path d="M11.9668 31C10.6777 31.334 10.6777 33.889 11.9668 34C11.8588 34 16.6298 34 20.9998 34V31H11.9668Z" fill="white"/>
</svg>
