<svg width="40" height="41" viewBox="0 0 40 41" fill="none" xmlns="http://www.w3.org/2000/svg">
<path d="M19 11.834C18.447 11.834 18 12.282 18 12.834V28.834C18 29.387 18.447 29.834 19 29.834C19.553 29.834 20 29.387 20 28.834V12.834C20 12.282 19.553 11.834 19 11.834Z" fill="white"/>
<path d="M14 15.834C13.448 15.834 13 16.281 13 16.834V28.834C13 29.387 13.448 29.834 14 29.834C14.552 29.834 15 29.387 15 28.834V16.834C15 16.281 14.552 15.834 14 15.834Z" fill="white"/>
<path d="M9 19.834C8.448 19.834 8 20.281 8 20.834V28.834C8 29.387 8.448 29.834 9 29.834C9.552 29.834 10 29.387 10 28.834V20.834C10 20.281 9.552 19.834 9 19.834Z" fill="white"/>
<path d="M39 0.833984H38C37.447 0.833984 37 1.28198 37 1.83398V39.834C37 40.387 37.447 40.834 38 40.834H39C39.553 40.834 40 40.387 40 39.834V1.83398C40 1.28198 39.553 0.833984 39 0.833984Z" fill="white"/>
<path d="M33 0.833984H32C31.447 0.833984 31 1.28198 31 1.83398V39.834C31 40.387 31.447 40.834 32 40.834H33C33.553 40.834 34 40.387 34 39.834V1.83398C34 1.28198 33.553 0.833984 33 0.833984Z" fill="white"/>
<path d="M27.668 5.74694L22.505 1.18294C22.332 1.00994 22.148 0.887939 21.922 0.853939L21.625 0.835938L2.18595 0.853939C1.03695 1.18794 0.345953 1.96994 0.00195312 3.19894L0.0129528 38.8149C0.127953 39.8189 0.701952 40.8239 2.31295 40.8239H17.789H23.931H25.688C27.298 40.8239 27.873 39.8189 27.987 38.8149L27.989 30.8069L27.998 30.8149V8.60994L28.017 6.60194L27.998 6.39594C27.972 6.15294 27.855 5.93394 27.668 5.74694ZM24.982 37.8279H21.712H18.275H3.01795V3.85094H20.994V5.74694C21.03 7.49694 21.089 7.82294 22.741 7.85094H24.983V22.9869V28.0639V37.8279H24.982Z" fill="white"/>
</svg>
