<svg width="48" height="42" viewBox="0 0 48 42" fill="none" xmlns="http://www.w3.org/2000/svg">
<path d="M41.4883 30.2328L47.381 24.3829L41.4883 18.5311L42.4371 17.5889C44.0804 15.9572 44.0804 13.3039 42.4371 11.6732C41.6424 10.8834 40.584 10.4479 39.4579 10.4479C38.3335 10.4479 37.2752 10.8834 36.4804 11.6732L35.5307 12.6155L29.6389 6.76465L27.9 8.49214V11.2212C30.9749 11.9489 33.269 14.7009 33.269 17.9742C33.269 21.2484 30.9749 24.0003 27.9 24.7271V33.1892H22.7993L21.7817 34.199L29.6389 42.0001L35.5307 36.1493L36.3495 36.9619C37.9919 38.5926 40.6639 38.5926 42.3072 36.9619C43.9505 35.3303 43.9505 32.677 42.3072 31.0463L41.4883 30.2328Z" fill="white"/>
<path d="M13.5057 1.8261C14.8045 1.8261 15.862 2.88341 15.862 4.18359V5.51665V7.34275H17.7188H23.2661V13.7907V15.6168H25.1229H26.2797C27.5786 15.6168 28.6361 16.6741 28.6361 17.9743C28.6361 19.2745 27.5786 20.3318 26.2797 20.3318H25.1229H23.2661V22.1579V28.6058H19.5561C19.3027 25.5216 16.6855 23.0892 13.5057 23.0892C10.3268 23.0892 7.71047 25.5216 7.45609 28.6058H2.81679V23.9438C5.39501 23.6462 7.54708 21.7251 8.06885 19.1585L8.07535 19.1238L8.08091 19.0891C8.16261 18.5906 8.2666 17.6301 8.06142 16.7572C7.52851 14.2071 5.38387 12.3015 2.81679 12.0048V7.34275H9.29342H11.1503V5.51665V4.18359C11.1493 2.88341 12.2068 1.8261 13.5057 1.8261ZM13.5057 0C11.1828 0 9.29342 1.87632 9.29342 4.18359V5.51665H0.959961V13.7907H2.11677C4.15464 13.7907 5.85921 15.2361 6.24729 17.148C6.36984 17.6456 6.32621 18.3167 6.24729 18.8006C5.85921 20.7125 4.15464 22.1579 2.11677 22.1579H0.959961V30.4319H9.29342V29.098C9.29342 26.7925 11.1828 24.9153 13.5057 24.9153C15.8295 24.9153 17.7188 26.7925 17.7188 29.098V30.4319H25.1229V22.1579H26.2797C28.6036 22.1579 30.4929 20.2807 30.4929 17.9743C30.4929 15.6679 28.6036 13.7907 26.2797 13.7907H25.1229V5.51665H17.7188V4.18359C17.7188 1.87632 15.8286 0 13.5057 0Z" fill="white"/>
</svg>
