<svg width="46" height="38" viewBox="0 0 46 38" fill="none" xmlns="http://www.w3.org/2000/svg">
<path d="M32.9861 15.8413H2.10314C0.996224 15.8413 0 16.7366 0 17.9677V35.8738C0 36.9929 0.885532 38.0002 2.10314 38.0002H32.9861C34.093 38.0002 35.0892 37.1048 35.0892 35.8738V17.9677C34.9785 16.7366 34.093 15.8413 32.9861 15.8413ZM32.4326 32.5164H2.10314V18.4153H32.3219V32.5164H32.4326Z" fill="white"/>
<path d="M45.8262 18.1916L37.7457 1.18074C37.303 0.173524 36.0854 -0.27413 35.0891 0.173524L10.5156 11.9244C9.85146 12.2602 9.40869 12.9316 9.40869 13.6031H12.5081L36.3067 2.18796L37.5243 4.87388L19.3709 13.6031H29.9973L39.5168 9.01467L44.0551 18.6392L37.1923 21.9966V24.6825L44.9407 20.9894C45.8262 20.4298 46.269 19.1988 45.8262 18.1916Z" fill="white"/>
<path d="M27.5621 28.9353C28.7237 28.9353 29.6653 27.9833 29.6653 26.809C29.6653 25.6346 28.7237 24.6826 27.5621 24.6826C26.4006 24.6826 25.459 25.6346 25.459 26.809C25.459 27.9833 26.4006 28.9353 27.5621 28.9353Z" fill="white"/>
</svg>
