<svg width="51" height="42" viewBox="0 0 51 42" fill="none" xmlns="http://www.w3.org/2000/svg">
<path fill-rule="evenodd" clip-rule="evenodd" d="M43.8303 13.8158L50.8421 9.94737L32.0526 0L25.4211 3.65953L18.7895 0L0 9.94737L7.01179 13.8158L0 17.6842L7.73684 21.7803V32.0526L25.4211 42L43.1053 32.0526V30.9474V29.8421V21.7803L50.8421 17.6842L43.8303 13.8158ZM32.0747 2.51226L46.1934 9.98716L41.5424 12.5525L27.7089 4.92174L32.0747 2.51226ZM41.5424 15.0791L46.1934 17.6444L32.0747 25.1193L27.7101 22.7109L41.5424 15.0791ZM4.64874 9.98716L18.7674 2.51226L23.1321 4.92063L9.29858 12.5525L4.64874 9.98716ZM9.29969 15.0791L23.1332 22.7109L18.7685 25.1193L4.64984 17.6444L9.29969 15.0791ZM40.8947 31.0855L25.4211 39.7895V23.9721L32.0526 27.6316L40.8947 22.9508V31.0855Z" fill="white"/>
</svg>
