<svg width="33" height="44" viewBox="0 0 33 44" fill="none" xmlns="http://www.w3.org/2000/svg">
<path d="M22.917 23.749C17.3935 23.749 12.917 28.2255 12.917 33.749C12.917 39.2725 17.3935 43.749 22.917 43.749C28.4405 43.749 32.917 39.2725 32.917 33.749C32.917 28.2255 28.4405 23.749 22.917 23.749ZM24.2213 38.9664C24.2213 39.6864 23.637 40.2708 22.917 40.2708C22.197 40.2708 21.6126 39.6864 21.6126 38.9664V32.8795C21.6126 32.1595 22.197 31.5751 22.917 31.5751C23.637 31.5751 24.2213 32.1595 24.2213 32.8795V38.9664ZM22.917 29.836C22.197 29.836 21.6126 29.2516 21.6126 28.5316C21.6126 27.8116 22.197 27.2273 22.917 27.2273C23.637 27.2273 24.2213 27.8116 24.2213 28.5316C24.2213 29.2516 23.637 29.836 22.917 29.836Z" fill="white"/>
<path fill-rule="evenodd" clip-rule="evenodd" d="M0 32.9765V0L22.5214 3.9969V20.755C15.7813 20.9563 10.3313 26.2861 9.93932 32.9765H0ZM6.85403 27.9783C7.39452 27.9783 7.83318 27.5317 7.83318 26.9791V23.9814C7.83318 23.4289 7.39452 22.9822 6.85403 22.9822H5.87488C5.33341 22.9822 4.89573 23.4289 4.89573 23.9814V26.9791C4.89573 27.5317 5.33341 27.9783 5.87488 27.9783H6.85403ZM6.85403 19.9845C7.39452 19.9845 7.83318 19.5379 7.83318 18.9853V15.9876C7.83318 15.435 7.39452 14.9884 6.85403 14.9884H5.87488C5.33341 14.9884 4.89573 15.435 4.89573 15.9876V18.9853C4.89573 19.5379 5.33341 19.9845 5.87488 19.9845H6.85403ZM6.85403 11.9907C7.39452 11.9907 7.83318 11.5441 7.83318 10.9915V7.99381C7.83318 7.44124 7.39452 6.99458 6.85403 6.99458H5.87488C5.33341 6.99458 4.89573 7.44124 4.89573 7.99381V10.9915C4.89573 11.5441 5.33341 11.9907 5.87488 11.9907H6.85403ZM11.7498 19.9845C12.2903 19.9845 12.7289 19.5379 12.7289 18.9853V15.9876C12.7289 15.435 12.2903 14.9884 11.7498 14.9884H10.7706C10.2291 14.9884 9.79147 15.435 9.79147 15.9876V18.9853C9.79147 19.5379 10.2291 19.9845 10.7706 19.9845H11.7498ZM11.7498 11.9907C12.2903 11.9907 12.7289 11.5441 12.7289 10.9915V7.99381C12.7289 7.44124 12.2903 6.99458 11.7498 6.99458H10.7706C10.2291 6.99458 9.79147 7.44124 9.79147 7.99381V10.9915C9.79147 11.5441 10.2291 11.9907 10.7706 11.9907H11.7498ZM16.6455 19.9845C17.187 19.9845 17.6246 19.5379 17.6246 18.9853V15.9876C17.6246 15.435 17.187 14.9884 16.6455 14.9884H15.6664C15.1249 14.9884 14.6872 15.435 14.6872 15.9876V18.9853C14.6872 19.5379 15.1249 19.9845 15.6664 19.9845H16.6455ZM16.6455 11.9907C17.187 11.9907 17.6246 11.5441 17.6246 10.9915V7.99381C17.6246 7.44124 17.187 6.99458 16.6455 6.99458H15.6664C15.1249 6.99458 14.6872 7.44124 14.6872 7.99381V10.9915C14.6872 11.5441 15.1249 11.9907 15.6664 11.9907H16.6455Z" fill="white"/>
</svg>
