<svg width="38" height="40" viewBox="0 0 38 40" fill="none" xmlns="http://www.w3.org/2000/svg">
<path fill-rule="evenodd" clip-rule="evenodd" d="M37.7065 36.7379L27.1551 26.2258C28.38 24.4543 29.1009 22.3106 29.1009 19.9959C29.1009 13.9201 24.156 8.99463 18.0565 8.99463C11.957 8.99463 7.01318 13.9201 7.01318 19.9959C7.01318 26.0718 11.956 30.9972 18.0555 30.9972C20.3809 30.9972 22.5355 30.277 24.3157 29.0557L34.8661 39.5668C35.2576 39.9579 35.8932 39.9579 36.2858 39.5668L37.7055 38.1524C38.098 37.7613 38.098 37.1271 37.7065 36.7379ZM14.0545 23.505C14.0545 24.3332 13.3798 25.0054 12.5484 25.0054C11.7171 25.0054 11.0424 24.3332 11.0424 23.505V21.5044C11.0424 20.6761 11.7171 20.0039 12.5484 20.0039C13.3798 20.0039 14.0545 20.6761 14.0545 21.5044V23.505ZM19.0746 23.505C19.0746 24.3332 18.3999 25.0054 17.5686 25.0054C16.7372 25.0054 16.0625 24.3332 16.0625 23.505V18.5035C16.0625 17.6752 16.7372 17.003 17.5686 17.003C18.3999 17.003 19.0746 17.6752 19.0746 18.5035V23.505ZM24.0948 23.505C24.0948 24.3332 23.4201 25.0054 22.5887 25.0054C21.7574 25.0054 21.0827 24.3332 21.0827 23.505V15.5026C21.0827 14.6743 21.7574 14.0021 22.5887 14.0021C23.4201 14.0021 24.0948 14.6743 24.0948 15.5026V23.505Z" fill="white"/>
<path d="M26.8187 37.0031H3.02817V3.0159H29.1089V4.91247C29.1451 6.663 29.2043 6.9891 30.863 7.01711H33.114V27.2362L36.1412 29.987V7.77634L36.1602 5.76773L36.1412 5.56167C36.1161 5.3176 35.9986 5.09853 35.8108 4.91247L30.627 0.347104C30.4533 0.174052 30.2686 0.0520172 30.0417 0.018007L29.7435 0L2.19281 0.018007C1.04018 0.352107 0.345387 1.13434 0 2.36371L0.0120494 37.9904C0.126509 38.9947 0.702824 40 2.32032 40H29.0457L26.8187 37.0031Z" fill="white"/>
</svg>
