<svg width="54" height="28" viewBox="0 0 54 28" fill="none" xmlns="http://www.w3.org/2000/svg">
<path fill-rule="evenodd" clip-rule="evenodd" d="M11.6798 0H17.0824C17.9828 0 18.6581 0.668158 18.6581 1.55904C18.6581 2.44991 17.9828 3.11807 17.0824 3.11807H12.5986L5.6019 21.1583H5.15169C3.12572 21.1583 1.54997 20.0447 0.649534 18.4857C-0.250896 16.9267 -0.250896 14.9222 0.874642 13.3632L11.6798 3.00222e-05L11.6798 0H11.6798ZM20.459 0H34.8659C35.9914 0 36.8918 1.1136 36.8918 2.00447V19.1539C36.8918 20.2675 35.9914 21.1583 34.8659 21.1583H22.5798C22.6239 21.449 22.6468 21.7465 22.6468 22.0492C22.6468 25.3357 19.9539 28 16.6322 28C13.3104 28 10.6176 25.3357 10.6176 22.0492C10.6176 21.7465 10.6404 21.449 10.6845 21.1583H8.75338L14.8313 5.12255H17.0824C18.9676 5.12255 20.6841 3.44042 20.6841 1.55904C20.6841 1.1136 20.6841 0.668158 20.459 0ZM19.7837 16.9798C19.1723 16.6069 18.4884 16.3393 17.7577 16.2025V8.0179H19.7837V16.9798ZM23.8356 3.11807H25.8616V18.0403H23.8356V3.11807ZM29.9135 3.11807H31.9395V18.0403H29.9135V3.11807ZM51.974 21.1583H50.0431C50.0872 21.449 50.11 21.7465 50.11 22.0492C50.11 25.3357 47.4172 28 44.0954 28C40.7737 28 38.0809 25.3357 38.0809 22.0492C38.0809 20.9427 38.3861 19.9068 38.9178 19.0193V5.12255C38.9178 4.00895 39.8182 3.11807 40.9437 3.11807H44.9957C45.2208 3.11807 45.671 3.11807 45.8961 3.34079C49.0476 4.89983 51.974 7.12702 53.7749 10.2451C54 10.4678 54 10.9133 54 11.136V19.1539C54 20.2675 53.0996 21.1583 51.974 21.1583ZM42.0693 13.1404H51.5238C51.7489 13.1404 51.974 12.9177 51.974 12.4723V11.136V10.9133C50.3983 8.24062 47.9221 6.45886 45.2208 5.12255H44.9957H42.5195C42.2944 5.12255 42.0693 5.34527 42.0693 5.56799V13.1404ZM13.6424 22.0492C13.6424 20.4156 14.981 19.0912 16.6322 19.0912C18.2833 19.0912 19.6219 20.4156 19.6219 22.0492C19.6219 23.6829 18.2833 25.0072 16.6322 25.0072C14.981 25.0072 13.6424 23.6829 13.6424 22.0492ZM44.0954 19.0912C42.4443 19.0912 41.1057 20.4156 41.1057 22.0492C41.1057 23.6829 42.4443 25.0072 44.0954 25.0072C45.7466 25.0072 47.0852 23.6829 47.0852 22.0492C47.0852 20.4156 45.7466 19.0912 44.0954 19.0912Z" fill="white"/>
</svg>
