<svg width="48" height="48" viewBox="0 0 48 48" fill="none" xmlns="http://www.w3.org/2000/svg">
<path d="M46.3343 23.3911C42.8231 19.351 37.9736 21.2446 35.865 22.8393L31.7021 26.1925C31.6947 25.9984 31.6929 25.8062 31.6718 25.6048L31.5387 24.3724H15.6874C15.1881 24.3274 13.4742 24.2906 11.8862 25.6958L4.98041 32.6136L4.81793 32.4555C4.35069 31.9993 3.6255 31.9763 3.19866 32.4021L0.299753 35.3175C-0.127096 35.7451 -0.0940497 36.4597 0.37319 36.9159L11.3731 47.643C11.8421 48.0973 12.5664 48.1222 12.9932 47.6936L15.8912 44.7801C16.319 44.3524 16.2869 43.6369 15.8187 43.1826L15.29 42.6676L17.0791 40.9248H30.3013L30.506 40.9101C32.1436 40.6627 33.0735 39.6492 33.1112 39.6004L41.6995 30.4239L47.0769 24.2418L46.3343 23.3911ZM39.6911 28.5386L31.1027 37.7179C31.0999 37.7225 30.7593 38.0535 30.1856 38.1667H15.9849L13.3136 40.7408L6.95218 34.5394L13.7708 27.7053C14.5363 27.0312 15.402 27.1149 15.4139 27.1149L28.9198 27.1305C28.5654 29.6523 26.1999 30.5885 25.5123 30.8092H21.1217C20.3617 30.8092 19.7448 31.4273 19.7448 32.1888C19.7448 32.9502 20.3617 33.5683 21.1217 33.5683H25.7115L26.0613 33.5232C27.1821 33.2289 28.7756 32.4463 29.9874 31.0842C30.0498 31.0484 30.1122 31.0125 30.17 30.9656L37.5513 25.0162C37.9176 24.744 40.9092 22.6388 43.4354 24.446L39.6911 28.5386Z" fill="white"/>
<path fill-rule="evenodd" clip-rule="evenodd" d="M15.3313 21.5986C15.5113 21.5986 15.6664 21.606 15.7931 21.6143H31.5388H32.991L34.0953 20.724V3.59839L12.9823 0V21.9692C13.9296 21.6694 14.7659 21.5986 15.3313 21.5986ZM26.7516 7.35742C26.7516 6.84976 27.162 6.43774 27.6696 6.43774H28.5875C29.0952 6.43774 29.5055 6.84976 29.5055 7.35742V10.1164C29.5055 10.6241 29.0952 11.0361 28.5875 11.0361H27.6696C27.162 11.0361 26.7516 10.6241 26.7516 10.1164V7.35742ZM26.7516 14.7148C26.7516 14.2063 27.162 13.7952 27.6696 13.7952H28.5875C29.0952 13.7952 29.5055 14.2063 29.5055 14.7148V17.4739C29.5055 17.9824 29.0952 18.3935 28.5875 18.3935H27.6696C27.162 18.3935 26.7516 17.9824 26.7516 17.4739V14.7148ZM22.1619 7.35742C22.1619 6.84976 22.5722 6.43774 23.0798 6.43774H23.9978C24.5054 6.43774 24.9157 6.84976 24.9157 7.35742V10.1164C24.9157 10.6241 24.5054 11.0361 23.9978 11.0361H23.0798C22.5722 11.0361 22.1619 10.6241 22.1619 10.1164V7.35742ZM22.1619 14.7148C22.1619 14.2063 22.5722 13.7952 23.0798 13.7952H23.9978C24.5054 13.7952 24.9157 14.2063 24.9157 14.7148V17.4739C24.9157 17.9824 24.5054 18.3935 23.9978 18.3935H23.0798C22.5722 18.3935 22.1619 17.9824 22.1619 17.4739V14.7148ZM17.5721 7.35742C17.5721 6.84976 17.9824 6.43774 18.49 6.43774H19.408C19.9156 6.43774 20.3259 6.84976 20.3259 7.35742V10.1164C20.3259 10.6241 19.9156 11.0361 19.408 11.0361H18.49C17.9824 11.0361 17.5721 10.6241 17.5721 10.1164V7.35742ZM17.5721 14.7148C17.5721 14.2063 17.9824 13.7952 18.49 13.7952H19.408C19.9156 13.7952 20.3259 14.2063 20.3259 14.7148V17.4739C20.3259 17.9824 19.9156 18.3935 19.408 18.3935H18.49C17.9824 18.3935 17.5721 17.9824 17.5721 17.4739V14.7148Z" fill="white"/>
</svg>
