<svg width="46" height="42" viewBox="0 0 46 42" fill="none" xmlns="http://www.w3.org/2000/svg">
<path fill-rule="evenodd" clip-rule="evenodd" d="M41.0191 23.1213C40.6633 22.7603 40.3075 22.7603 39.9517 22.7603C39.9517 22.7603 39.5959 22.7603 39.2401 23.1213C38.5285 24.2046 34.2588 30.3429 34.2588 33.2315C34.2588 36.4812 37.1052 39.0088 39.9517 39.0088C43.1539 39.0088 46.0004 36.4812 46.0004 33.2315C46.0004 30.3429 41.7307 24.2046 41.0191 23.1213ZM40.6633 26.371C39.2401 28.5375 38.1727 32.1483 37.8168 33.2315C37.8168 33.9537 36.3936 33.5926 36.3936 32.8705C36.7494 30.3429 37.8168 28.1764 39.2401 26.01C39.5959 25.2878 41.0191 25.2878 40.6633 26.371Z" fill="white"/>
<path fill-rule="evenodd" clip-rule="evenodd" d="M32.6115 7.60362C33.2438 7.28099 34.2446 6.77023 35.3258 6.77023H43.1536C43.7443 6.77023 44.4674 6.92115 45.0319 7.49411C45.5965 8.06706 45.7453 8.80082 45.7453 9.40034V14.4554C45.7453 15.3217 45.4658 16.2019 44.9349 16.8946C44.3912 17.604 43.5309 18.1688 42.4419 18.1688H38.1723C37.1428 18.1688 36.2409 17.662 35.6267 17.0387C35.567 16.9781 35.5084 16.9148 35.4512 16.8488L16.2134 36.0464V40.4531C16.2134 41.3074 15.5309 42 14.6891 42H1.52429C0.682448 42 0 41.3074 0 40.4531V19.8716C0 19.0173 0.682448 18.3247 1.52429 18.3247H14.6891C15.5309 18.3247 16.2134 19.0173 16.2134 19.8716V21.5915L32.2064 7.8584C32.2991 7.77883 32.4007 7.71078 32.5093 7.65569C32.5422 7.639 32.5763 7.6216 32.6115 7.60362ZM34.0346 10.3412L15.6737 26.1076C15.2206 26.4967 14.5862 26.5835 14.0478 26.33C13.5093 26.0766 13.1648 25.5291 13.1648 24.9267V21.4185H3.04858V38.9062H13.1648V35.398C13.1648 34.9832 13.3289 34.5859 13.6204 34.2951L34.9687 12.9914C35.4066 12.5544 36.0602 12.4268 36.6267 12.6677C37.1931 12.9087 37.5617 13.4711 37.5617 14.0944V14.4554C37.5617 14.494 37.5961 14.662 37.7824 14.8511C37.9688 15.0402 38.1343 15.075 38.1723 15.075H42.4419C42.4467 15.075 42.4441 15.0757 42.4476 15.0738C42.456 15.0692 42.487 15.0494 42.5285 14.9952C42.6203 14.8754 42.6967 14.6724 42.6967 14.4554V9.86399H35.3258C35.0638 9.86399 34.7243 9.9962 34.0346 10.3412Z" fill="white"/>
<path fill-rule="evenodd" clip-rule="evenodd" d="M23.7293 0.529191C24.9087 1.21364 25.4643 2.45704 25.4643 3.62308V4.34524C25.4643 4.78838 25.2771 5.21024 24.95 5.50385L16.2134 13.3469V19.8716C16.2134 20.7259 15.5309 21.4185 14.6891 21.4185H1.52429C0.682448 21.4185 0 20.7259 0 19.8716V16.2608C0 13.0528 1.83323 10.8024 3.9423 9.51822C3.96086 9.50692 3.97966 9.49602 3.99867 9.48553L20.2349 0.530747C20.5196 0.312749 20.8218 0.194233 21.0529 0.12722C21.3653 0.0366446 21.6867 0 21.9831 0C22.2796 0 22.601 0.0366446 22.9133 0.12722C23.1439 0.194073 23.4452 0.312184 23.7293 0.529191ZM21.9542 3.09445C21.9114 3.12415 21.8671 3.15164 21.8215 3.17682L5.48437 12.1873C4.0495 13.07 3.04858 14.425 3.04858 16.2608V18.3247H13.1648V12.6501C13.1648 12.2069 13.3521 11.7851 13.6791 11.4914L22.4158 3.64837V3.62308C22.4158 3.51603 22.3888 3.42183 22.3497 3.35245C22.3142 3.28941 22.2654 3.23905 22.1909 3.20126C22.1289 3.16977 22.0691 3.13408 22.0121 3.09445C22.0032 3.09402 21.9936 3.09376 21.9831 3.09376C21.9727 3.09376 21.963 3.09402 21.9542 3.09445Z" fill="white"/>
</svg>
