<svg width="46" height="44" viewBox="0 0 46 44" fill="none" xmlns="http://www.w3.org/2000/svg">
<path fill-rule="evenodd" clip-rule="evenodd" d="M13.4867 30.7041C13.8631 31.0725 14.3508 31.2557 14.8385 31.2557C15.3416 31.2557 15.8438 31.0608 16.2232 30.6712L17.9591 28.8663C18.7061 28.1005 18.6916 26.8724 17.9262 26.1251L9.201 17.6136C8.82459 17.2452 8.3369 17.062 7.84921 17.062L7.85018 19.0026L16.5638 27.5219L14.8346 29.3161L6.12004 20.7968L7.84631 19.0016C7.84631 19.0016 7.84727 19.0016 7.84824 19.0016V17.063C7.34507 17.063 6.8419 17.2588 6.46355 17.6475L4.7276 19.4523C3.98059 20.2181 3.9951 21.4452 4.7605 22.1936L13.4867 30.7041Z" fill="white"/>
<path fill-rule="evenodd" clip-rule="evenodd" d="M30.0975 13.6421C30.4739 14.0104 30.9616 14.1936 31.4484 14.1936C31.9515 14.1936 32.4537 13.9988 32.834 13.6091L34.57 11.8043C35.317 11.0376 35.3025 9.81041 34.5371 9.06307L25.8128 0.551539C25.4364 0.1832 24.9487 0 24.461 0C23.9579 0 23.4557 0.194832 23.0763 0.584496L21.3404 2.38936C20.5934 3.15608 20.6079 4.38323 21.3733 5.13057L30.0975 13.6421ZM24.4581 1.93862C24.4581 1.93862 24.4591 1.93862 24.4601 1.93862L24.461 1.93959L33.1746 10.4589L31.4455 12.2531L22.7319 3.73379L24.4581 1.93862Z" fill="white"/>
<path fill-rule="evenodd" clip-rule="evenodd" d="M19.2801 24.7387C19.6566 25.1071 20.1442 25.2893 20.6319 25.2893C21.1351 25.2893 21.6373 25.0945 22.0166 24.7058L28.7766 17.7703C29.5236 17.0036 29.5091 15.7765 28.7437 15.0282L20.0194 6.51663C19.643 6.14829 19.1553 5.96509 18.6676 5.96509L18.6686 7.90565L27.3919 16.4152L20.63 23.3487L11.9067 14.8391L18.6647 7.90371C18.6647 7.90371 18.6657 7.90371 18.6667 7.90371V5.96509C18.1635 5.96509 17.6603 6.16089 17.282 6.54958L10.522 13.485C9.77502 14.2508 9.78954 15.4789 10.5549 16.2262L19.2801 24.7387Z" fill="white"/>
<path fill-rule="evenodd" clip-rule="evenodd" d="M45.4171 37.2266L29.9019 22.1421C29.1375 21.3948 27.9115 21.4093 27.1655 22.1751L26.3972 23.0106C25.6511 23.7774 25.6647 25.0045 26.4301 25.7519L41.9433 40.8363C42.7087 41.5836 43.9337 41.5691 44.6797 40.8033L45.449 39.9678C46.1951 39.203 46.1825 37.9739 45.4171 37.2266Z" fill="white"/>
<path fill-rule="evenodd" clip-rule="evenodd" d="M34.3512 41.0923H1.45146C0.649286 41.0923 0 41.7437 0 42.5463C0 43.3488 0.649286 44.0002 1.45146 44.0002H34.3512C35.1534 44.0002 35.8027 43.3488 35.8027 42.5463C35.8027 41.7437 35.1534 41.0923 34.3512 41.0923Z" fill="white"/>
<path fill-rule="evenodd" clip-rule="evenodd" d="M5.32206 39.1535H29.513C30.3152 39.1535 30.9645 38.5022 30.9645 37.6996C30.9645 36.897 30.3152 36.2456 29.513 36.2456H5.32206C4.51989 36.2456 3.87061 36.897 3.87061 37.6996C3.87061 38.5022 4.52086 39.1535 5.32206 39.1535Z" fill="white"/>
</svg>
