<svg width="24" height="24" viewBox="0 0 24 24" fill="none" xmlns="http://www.w3.org/2000/svg">
<g clip-path="url(#clip0_1097_455)">
<path fill-rule="evenodd" clip-rule="evenodd" d="M11 0C10.4477 0 10 0.447715 10 1L5 0.999999C3.34314 0.999998 2 2.34315 2 4L22 4C22 2.34315 20.6569 1 19 1L14 1C14 0.447715 13.5523 0 13 0H11ZM19 24C20.6569 24 22 22.6569 22 21L22 10H23C23.5523 10 24 9.55228 24 9C24 8.44771 23.5523 8 23 8H22V6.00001L2 6L2 8H1C0.447715 8 0 8.44772 0 9C0 9.55229 0.447715 10 1 10H2L2 21C2 22.6569 3.34315 24 5 24L6 24H12H18L19 24ZM18 24C19.1046 24 20 23.1517 20 22.1053C20 21.0588 18 18 18 18C18 18 16 21.0588 16 22.1053C16 23.1517 16.8954 24 18 24ZM12 24C13.1046 24 14 23.1517 14 22.1053C14 21.0588 12 18 12 18C12 18 10 21.0588 10 22.1053C10 23.1517 10.8954 24 12 24ZM6 24C7.10457 24 8 23.1517 8 22.1053C8 21.0588 6 18 6 18C6 18 4 21.0588 4 22.1053C4 23.1517 4.89543 24 6 24Z" fill="#005D9F"/>
</g>
<defs>
<clipPath id="clip0_1097_455">
<rect width="24" height="24" fill="white"/>
</clipPath>
</defs>
</svg>
