<svg width="24" height="24" viewBox="0 0 24 24" fill="none" xmlns="http://www.w3.org/2000/svg">
<g clip-path="url(#clip0_1093_403)">
<path d="M15.5303 15.7191C15.9551 15.9847 16.2187 16.4844 16.2187 17C16.2187 17.375 16.0869 17.7344 15.8525 18C16.0869 18.2656 16.2187 18.625 16.2187 19C16.2187 19.5156 15.9697 19.9844 15.5596 20.2656C15.6768 20.4844 15.75 20.75 15.75 21C15.75 22.0156 15.0029 22.5 14.1533 22.5C13.7725 23.4062 12.9229 24 12 24C11.0771 24 10.2275 23.4062 9.84668 22.5C8.99707 22.5 8.25 22.0156 8.25 21C8.25 20.75 8.32324 20.4844 8.44043 20.2656C8.03027 19.9844 7.78125 19.5156 7.78125 19C7.78125 18.625 7.91309 18.2656 8.14746 18C7.91309 17.7344 7.78125 17.375 7.78125 17C7.78125 16.4844 8.04492 15.9844 8.46973 15.7188L12 15.7188L15.5303 15.7191Z" fill="#005D9F"/>
<rect x="6" y="11.1055" width="12" height="2" rx="1" transform="rotate(-15 6 11.1055)" fill="#005D9F"/>
<rect x="5.9458" y="14.1055" width="12" height="2" rx="1" transform="rotate(-15 5.9458 14.1055)" fill="#005D9F"/>
<rect x="6" y="8.10547" width="12" height="2" rx="1" transform="rotate(-15 6 8.10547)" fill="#005D9F"/>
<rect x="6" y="5.10547" width="12" height="2" rx="1" transform="rotate(-15 6 5.10547)" fill="#005D9F"/>
<rect x="6" y="1.81152" width="7" height="2" rx="1" transform="rotate(-15 6 1.81152)" fill="#005D9F"/>
<rect x="11" y="19.0625" width="7" height="2" rx="1" transform="rotate(-60 11 19.0625)" fill="#005D9F"/>
<rect x="11.5" y="20.0625" width="7" height="2" rx="1" transform="rotate(-120 11.5 20.0625)" fill="#005D9F"/>
</g>
<defs>
<clipPath id="clip0_1093_403">
<rect width="24" height="24" fill="white"/>
</clipPath>
</defs>
</svg>
