<svg width="24" height="24" viewBox="0 0 24 24" fill="none" xmlns="http://www.w3.org/2000/svg">
<g clip-path="url(#clip0_1095_439)">
<path fill-rule="evenodd" clip-rule="evenodd" d="M8.43504 20H1.51888C0.879455 20 0.398165 19.4283 0.51853 18.8118L4.03256 0.811759C4.12454 0.340635 4.54431 0 5.03292 0H18.9671C19.4557 0 19.8755 0.340635 19.9674 0.81176L23.4815 18.8118C23.6018 19.4283 23.1205 20 22.4811 20H15.565V23C15.565 23.5523 15.1089 24 14.5464 24H9.4536C8.89106 24 8.43504 23.5523 8.43504 23V20ZM3.92255 12L4.70345 8L8.09552 8L7.86917 12H3.92255ZM3.5321 14L2.75121 18H7.52965L7.756 14H3.5321ZM9.79312 14L9.56677 18H14.4898L14.2635 14L9.79312 14ZM16.3006 14L16.5269 18H21.2488L20.4679 14H16.3006ZM20.0775 12H16.1874L15.9611 8L19.2966 8L20.0775 12ZM14.1503 12L9.90629 12L10.1326 8H13.9239L14.1503 12ZM8.20869 6L5.0939 6L5.87479 2H8.43504L8.20869 6ZM10.2458 6H13.8108L13.5844 2H10.4722L10.2458 6ZM15.8479 6L18.9061 6L18.1252 2H15.6215L15.8479 6ZM10.4722 20V22H13.5278V20H10.4722Z" fill="#005D9F"/>
</g>
<defs>
<clipPath id="clip0_1095_439">
<rect width="24" height="24" fill="white"/>
</clipPath>
</defs>
</svg>
