<svg width="24" height="24" viewBox="0 0 24 24" fill="none" xmlns="http://www.w3.org/2000/svg">
<g clip-path="url(#clip0_1093_423)">
<path fill-rule="evenodd" clip-rule="evenodd" d="M23 5.69208C21.6097 -0.263587 6 1.19208 6 1.19208V3.19208C6 3.19208 19.7619 2.67539 20 7.5C20.0685 8.88845 19.1727 10.0545 18.5574 10.6855C16.968 9.62109 15.0565 9.0003 13 9.0003H11C9.2221 9.0003 7.55256 9.46428 6.10587 10.2777L3.82843 8.0003L1 10.8287L3.07371 12.9024C1.77335 14.5902 1 16.7049 1 19.0003V24.0003H23V19.0003C23 16.8783 22.339 14.9106 21.2118 13.292C21.8389 12.0664 23.6059 8.28749 23 5.69208Z" fill="#005D9F"/>
</g>
<defs>
<clipPath id="clip0_1093_423">
<rect width="24" height="24" fill="white"/>
</clipPath>
</defs>
</svg>
