<?xml version="1.0" encoding="UTF-8"?>
<svg width="240px" height="150px" viewBox="0 0 240 150" version="1.1" xmlns="http://www.w3.org/2000/svg" xmlns:xlink="http://www.w3.org/1999/xlink">
    <!-- Generator: sketchtool 40.3 (33839) - http://www.bohemiancoding.com/sketch -->
    <title>77D4D270-7D8B-4FE3-9966-1D7DF62F3CF7</title>
    <desc>Created with sketchtool.</desc>
    <defs>
        <rect id="path-1" x="0" y="0" width="240" height="150" rx="4"/>
        <path d="M147.473831,69.1104064 C147.616378,69.4720074 147.694656,69.8657843 147.694656,70.2777778 C147.694656,72.0420207 146.259234,73.4722222 144.48855,73.4722222 C142.717866,73.4722222 141.282443,72.0420207 141.282443,70.2777778 C141.282443,68.5135348 142.717866,67.0833333 144.48855,67.0833333 C144.902047,67.0833333 145.297262,67.1613273 145.660183,67.3033557 L148.082588,64.889762 C148.583413,64.3907588 149.395411,64.3907587 149.896236,64.889762 C150.397061,65.3887653 150.397061,66.1978094 149.896236,66.6968127 L147.473831,69.1104064 L147.473831,69.1104064 Z" id="path-3"/>
        <mask id="mask-4" maskContentUnits="userSpaceOnUse" maskUnits="objectBoundingBox" x="0" y="0" width="8.98941212" height="8.95671265" fill="white">
            <use xlink:href="#path-3"/>
        </mask>
        <ellipse id="path-5" cx="2.55555556" cy="2.625" rx="2.55555556" ry="2.625"/>
        <mask id="mask-6" maskContentUnits="userSpaceOnUse" maskUnits="objectBoundingBox" x="0" y="0" width="5.11111111" height="5.25" fill="white">
            <use xlink:href="#path-5"/>
        </mask>
        <ellipse id="path-7" cx="9.58333333" cy="17.71875" rx="3.19444444" ry="3.28125"/>
        <mask id="mask-8" maskContentUnits="userSpaceOnUse" maskUnits="objectBoundingBox" x="0" y="0" width="6.38888889" height="6.5625" fill="white">
            <use xlink:href="#path-7"/>
        </mask>
        <ellipse id="path-9" cx="21.0833333" cy="9.84375" rx="1.91666667" ry="1.96875"/>
        <mask id="mask-10" maskContentUnits="userSpaceOnUse" maskUnits="objectBoundingBox" x="0" y="0" width="3.83333333" height="3.9375" fill="white">
            <use xlink:href="#path-9"/>
        </mask>
        <ellipse id="path-11" cx="1.91666667" cy="1.96875" rx="1.91666667" ry="1.96875"/>
        <mask id="mask-12" maskContentUnits="userSpaceOnUse" maskUnits="objectBoundingBox" x="0" y="0" width="3.83333333" height="3.9375" fill="white">
            <use xlink:href="#path-11"/>
        </mask>
        <ellipse id="path-13" cx="11.5" cy="18.375" rx="2.55555556" ry="2.625"/>
        <mask id="mask-14" maskContentUnits="userSpaceOnUse" maskUnits="objectBoundingBox" x="0" y="0" width="5.11111111" height="5.25" fill="white">
            <use xlink:href="#path-13"/>
        </mask>
        <ellipse id="path-15" cx="21.0833333" cy="3.9375" rx="1.91666667" ry="1.96875"/>
        <mask id="mask-16" maskContentUnits="userSpaceOnUse" maskUnits="objectBoundingBox" x="0" y="0" width="3.83333333" height="3.9375" fill="white">
            <use xlink:href="#path-15"/>
        </mask>
    </defs>
    <g id="Area-51" stroke="none" stroke-width="1" fill="none" fill-rule="evenodd">
        <g id="widget-off" transform="translate(-62.000000, -186.000000)">
            <g id="meter" transform="translate(62.000000, 186.000000)">
                <mask id="mask-2" fill="white">
                    <use xlink:href="#path-1"/>
                </mask>
                <use id="Mask" fill="#FFFFFF" xlink:href="#path-1"/>
                <g mask="url(#mask-2)">
                    <g transform="translate(7.000000, 62.000000)">
                        <g id="pipe" stroke="none" stroke-width="1" fill="none" fill-rule="evenodd" transform="translate(49.000000, 42.000000)">
                            <rect id="Rectangle-710" stroke="#C8D8E0" fill="#FFFFFF" x="0" y="0" width="128" height="28"/>
                        </g>
                        <g id="nut1" stroke="none" stroke-width="1" fill="none" fill-rule="evenodd" transform="translate(30.000000, 36.000000)">
                            <rect id="Rectangle-715-Copy-3" stroke="#C8D8E0" fill="#FFFFFF" x="0" y="0" width="20" height="40"/>
                            <rect id="Rectangle-715-Copy-2" stroke="#C8D8E0" x="0" y="20" width="20" height="20"/>
                            <rect id="Rectangle-715-Copy-5" stroke="#C8D8E0" fill="#FFFFFF" x="146" y="0" width="20" height="40"/>
                            <rect id="Rectangle-715-Copy-4" stroke="#C8D8E0" x="146" y="20" width="20" height="20"/>
                        </g>
                        <path d="M113,114 C144.480231,114 170,88.4802307 170,57 C170,25.5197693 144.480231,0 113,0 C81.5197693,0 56,25.5197693 56,57 C56,88.4802307 81.5197693,114 113,114 Z" id="Oval-115" stroke="#C8D8E0" stroke-width="1" fill="#FFFFFF" fill-rule="evenodd"/>
                        <circle id="Oval-115-Copy" stroke="#C8D8E0" stroke-width="1" fill="#FFFFFF" fill-rule="evenodd" cx="113" cy="57" r="52"/>
                        <ellipse id="Oval-117" stroke="#C8D8E0" stroke-width="1" fill="none" cx="144.5" cy="69.5012979" rx="11.5" ry="11.5012979"/>
                        <g id="mill" stroke="none" stroke-width="1" fill="none" fill-rule="evenodd" transform="translate(102.809160, 76.666667)">
                            <path d="M9.61832061,7.21297804 L9.61832061,0 L12.1832061,0 L12.1832061,7.21297804 C12.8624034,7.41438176 13.4742271,7.77165193 13.9768942,8.24315771 L20.2188341,4.639372 L21.5012769,6.860628 L15.2672726,10.459832 C15.347068,10.7936055 15.389313,11.1418873 15.389313,11.5 C15.389313,11.8581127 15.347068,12.2063945 15.2672726,12.540168 L21.5012769,16.139372 L20.2188341,18.360628 L13.9768942,14.7568423 C13.4742271,15.2283481 12.8624034,15.5856182 12.1832061,15.787022 L12.1832061,23 L9.61832061,23 L9.61832061,15.787022 C8.93912328,15.5856182 8.32729964,15.2283481 7.82463254,14.7568423 L1.58269259,18.360628 L0.300249841,16.139372 L6.53425407,12.540168 C6.45445867,12.2063945 6.41221374,11.8581127 6.41221374,11.5 C6.41221374,11.1418873 6.45445867,10.7936055 6.53425407,10.459832 L0.300249841,6.860628 L1.58269259,4.639372 L7.82463254,8.24315771 C8.32729964,7.77165193 8.93912328,7.41438176 9.61832061,7.21297804 Z" id="Combined-Shape" stroke="#C8D8E0"/>
                        </g>
                        <use id="Combined-Shape" stroke="#FF3D00" mask="url(#mask-4)" stroke-width="2" fill="none" xlink:href="#path-3"/>
                        <rect id="Rectangle-708" stroke="none" fill="#DBE6EB" fill-rule="evenodd" x="71.389313" y="58.7777778" width="30.778626" height="5.11111111" rx="1.28"/>
                        <rect id="Rectangle-708-Copy" stroke="none" fill="#DBE6EB" fill-rule="evenodd" x="71.389313" y="66.4444444" width="15.389313" height="5.11111111" rx="1.28"/>
                        <rect id="Rectangle-713" stroke="#C8D8E0" stroke-width="1" fill="none" x="78" y="28" width="70" height="20" rx="2.56"/>
                        <path d="M87.956875,38.844375 C87.956875,39.9318804 87.7215649,40.7493723 87.2509375,41.296875 C86.7803101,41.8443777 86.1231292,42.118125 85.279375,42.118125 C84.4356208,42.118125 83.7756274,41.8434402 83.299375,41.2940625 C82.8231226,40.7446848 82.585,39.9281304 82.585,38.844375 L82.585,36.97125 C82.585,35.8874946 82.8212476,35.0700028 83.29375,34.51875 C83.7662524,33.9674972 84.4243708,33.691875 85.268125,33.691875 C86.1118792,33.691875 86.7709351,33.9674972 87.2453125,34.51875 C87.7196899,35.0700028 87.956875,35.8874946 87.956875,36.97125 L87.956875,38.844375 Z M86.59,36.763125 C86.59,36.0806216 86.4793761,35.5809391 86.258125,35.2640625 C86.0368739,34.9471859 85.7068772,34.78875 85.268125,34.78875 C84.8293728,34.78875 84.5003136,34.9471859 84.2809375,35.2640625 C84.0615614,35.5809391 83.951875,36.0806216 83.951875,36.763125 L83.951875,39.04125 C83.951875,39.7312534 84.0634364,40.2346859 84.2865625,40.5515625 C84.5096886,40.8684391 84.8406228,41.026875 85.279375,41.026875 C85.7181272,41.026875 86.0462489,40.8693766 86.26375,40.554375 C86.4812511,40.2393734 86.59,39.7350035 86.59,39.04125 L86.59,36.763125 Z M95.784375,38.844375 C95.784375,39.9318804 95.5490649,40.7493723 95.0784375,41.296875 C94.6078102,41.8443777 93.9506292,42.118125 93.106875,42.118125 C92.2631208,42.118125 91.6031274,41.8434402 91.126875,41.2940625 C90.6506226,40.7446848 90.4125,39.9281304 90.4125,38.844375 L90.4125,36.97125 C90.4125,35.8874946 90.6487477,35.0700028 91.12125,34.51875 C91.5937524,33.9674972 92.2518708,33.691875 93.095625,33.691875 C93.9393792,33.691875 94.5984351,33.9674972 95.0728125,34.51875 C95.5471899,35.0700028 95.784375,35.8874946 95.784375,36.97125 L95.784375,38.844375 Z M94.4175,36.763125 C94.4175,36.0806216 94.3068761,35.5809391 94.085625,35.2640625 C93.8643739,34.9471859 93.5343772,34.78875 93.095625,34.78875 C92.6568728,34.78875 92.3278136,34.9471859 92.1084375,35.2640625 C91.8890614,35.5809391 91.779375,36.0806216 91.779375,36.763125 L91.779375,39.04125 C91.779375,39.7312534 91.8909364,40.2346859 92.1140625,40.5515625 C92.3371886,40.8684391 92.6681228,41.026875 93.106875,41.026875 C93.5456272,41.026875 93.8737489,40.8693766 94.09125,40.554375 C94.3087511,40.2393734 94.4175,39.7350035 94.4175,39.04125 L94.4175,36.763125 Z M103.611875,38.844375 C103.611875,39.9318804 103.376565,40.7493723 102.905938,41.296875 C102.43531,41.8443777 101.778129,42.118125 100.934375,42.118125 C100.090621,42.118125 99.4306274,41.8434402 98.954375,41.2940625 C98.4781227,40.7446848 98.24,39.9281304 98.24,38.844375 L98.24,36.97125 C98.24,35.8874946 98.4762477,35.0700028 98.94875,34.51875 C99.4212524,33.9674972 100.079371,33.691875 100.923125,33.691875 C101.766879,33.691875 102.425935,33.9674972 102.900313,34.51875 C103.37469,35.0700028 103.611875,35.8874946 103.611875,36.97125 L103.611875,38.844375 Z M102.245,36.763125 C102.245,36.0806216 102.134376,35.5809391 101.913125,35.2640625 C101.691874,34.9471859 101.361877,34.78875 100.923125,34.78875 C100.484373,34.78875 100.155314,34.9471859 99.9359375,35.2640625 C99.7165614,35.5809391 99.606875,36.0806216 99.606875,36.763125 L99.606875,39.04125 C99.606875,39.7312534 99.7184364,40.2346859 99.9415625,40.5515625 C100.164689,40.8684391 100.495623,41.026875 100.934375,41.026875 C101.373127,41.026875 101.701249,40.8693766 101.91875,40.554375 C102.136251,40.2393734 102.245,39.7350035 102.245,39.04125 L102.245,36.763125 Z M111.439375,38.844375 C111.439375,39.9318804 111.204065,40.7493723 110.733438,41.296875 C110.26281,41.8443777 109.605629,42.118125 108.761875,42.118125 C107.918121,42.118125 107.258127,41.8434402 106.781875,41.2940625 C106.305623,40.7446848 106.0675,39.9281304 106.0675,38.844375 L106.0675,36.97125 C106.0675,35.8874946 106.303748,35.0700028 106.77625,34.51875 C107.248752,33.9674972 107.906871,33.691875 108.750625,33.691875 C109.594379,33.691875 110.253435,33.9674972 110.727813,34.51875 C111.20219,35.0700028 111.439375,35.8874946 111.439375,36.97125 L111.439375,38.844375 Z M110.0725,36.763125 C110.0725,36.0806216 109.961876,35.5809391 109.740625,35.2640625 C109.519374,34.9471859 109.189377,34.78875 108.750625,34.78875 C108.311873,34.78875 107.982814,34.9471859 107.763438,35.2640625 C107.544061,35.5809391 107.434375,36.0806216 107.434375,36.763125 L107.434375,39.04125 C107.434375,39.7312534 107.545936,40.2346859 107.769063,40.5515625 C107.992189,40.8684391 108.323123,41.026875 108.761875,41.026875 C109.200627,41.026875 109.528749,40.8693766 109.74625,40.554375 C109.963751,40.2393734 110.0725,39.7350035 110.0725,39.04125 L110.0725,36.763125 Z M119.3625,42 L113.923125,42 L113.923125,41.060625 L116.589375,38.1525 C117.031877,37.6649976 117.333749,37.272189 117.495,36.9740625 C117.656251,36.675936 117.736875,36.3787515 117.736875,36.0825 C117.736875,35.7074981 117.631876,35.3981262 117.421875,35.154375 C117.211874,34.9106238 116.921252,34.78875 116.55,34.78875 C116.062498,34.78875 115.704376,34.9209362 115.475625,35.1853125 C115.246874,35.4496888 115.1325,35.8237476 115.1325,36.3075 L113.765625,36.3075 C113.765625,35.5499962 114.01031,34.92469 114.499688,34.4315625 C114.989065,33.938435 115.672496,33.691875 116.55,33.691875 C117.352504,33.691875 117.978748,33.9056229 118.42875,34.333125 C118.878752,34.7606271 119.10375,35.3324964 119.10375,36.04875 C119.10375,36.5287524 118.974376,36.9768729 118.715625,37.393125 C118.456874,37.8093771 118.044378,38.3287469 117.478125,38.95125 L115.6275,40.90875 L119.3625,40.90875 L119.3625,42 Z" id="Hint-text-Copy-5" stroke="none" fill="#000000" fill-rule="evenodd"/>
                        <path d="M124.19375,37.28625 L125.144375,37.28625 C125.598127,37.28625 125.919687,37.1784386 126.109063,36.9628125 C126.298438,36.7471864 126.393125,36.435002 126.393125,36.02625 C126.393125,35.624998 126.290001,35.3184386 126.08375,35.1065625 C125.877499,34.8946864 125.566252,34.78875 125.15,34.78875 C124.771248,34.78875 124.466564,34.8928115 124.235938,35.1009375 C124.005311,35.3090635 123.89,35.5893732 123.89,35.941875 L122.523125,35.941875 C122.523125,35.2856217 122.764998,34.7465646 123.24875,34.3246875 C123.732502,33.9028104 124.360621,33.691875 125.133125,33.691875 C125.946879,33.691875 126.588123,33.890623 127.056875,34.288125 C127.525627,34.685627 127.76,35.2649962 127.76,36.02625 C127.76,36.3825018 127.655939,36.7209359 127.447813,37.0415625 C127.239686,37.3621891 126.933127,37.6143741 126.528125,37.798125 C127.004377,37.9668758 127.349374,38.2162483 127.563125,38.54625 C127.776876,38.8762516 127.88375,39.2624978 127.88375,39.705 C127.88375,40.4700038 127.62969,41.0634354 127.121563,41.4853125 C126.613435,41.9071896 125.950629,42.118125 125.133125,42.118125 C124.360621,42.118125 123.719378,41.919377 123.209375,41.521875 C122.699372,41.124373 122.444375,40.5525037 122.444375,39.80625 L123.81125,39.80625 C123.81125,40.1775019 123.931249,40.4737489 124.17125,40.695 C124.411251,40.9162511 124.737498,41.026875 125.15,41.026875 C125.581252,41.026875 125.916874,40.9143761 126.156875,40.689375 C126.396876,40.4643739 126.516875,40.1381271 126.516875,39.710625 C126.516875,39.2381226 126.407189,38.8950011 126.187813,38.68125 C125.968436,38.4674989 125.620627,38.360625 125.144375,38.360625 L124.19375,38.360625 L124.19375,37.28625 Z M132.724375,41.026875 C133.223128,41.026875 133.619686,40.8496893 133.914063,40.4953125 C134.208439,40.1409357 134.355625,39.6093785 134.355625,38.900625 L134.355625,38.70375 L134.33875,38.698125 C134.158749,38.9418762 133.939376,39.1256244 133.680625,39.249375 C133.421874,39.3731256 133.133127,39.435 132.814375,39.435 C132.015621,39.435 131.395002,39.1912524 130.9525,38.70375 C130.509998,38.2162476 130.28875,37.5206295 130.28875,36.616875 C130.28875,35.7543707 130.538123,35.0512527 131.036875,34.5075 C131.535628,33.9637473 132.165621,33.691875 132.926875,33.691875 C133.793129,33.691875 134.474685,33.9656223 134.971563,34.513125 C135.46844,35.0606277 135.716875,35.8668697 135.716875,36.931875 L135.716875,38.85 C135.716875,39.9075053 135.443128,40.7165597 134.895625,41.2771875 C134.348122,41.8378153 133.62438,42.118125 132.724375,42.118125 C132.439374,42.118125 132.148752,42.0900003 131.8525,42.03375 C131.556249,41.9774997 131.280626,41.8931256 131.025625,41.780625 L131.205625,40.745625 C131.445626,40.8468755 131.682811,40.9190623 131.917188,40.9621875 C132.151564,41.0053127 132.420624,41.026875 132.724375,41.026875 L132.724375,41.026875 Z M132.94375,38.371875 C133.292502,38.371875 133.584061,38.3062507 133.818438,38.175 C134.052814,38.0437493 134.231874,37.8675011 134.355625,37.64625 L134.355625,36.76875 C134.355625,36.1049967 134.235626,35.6090641 133.995625,35.2809375 C133.755624,34.9528109 133.406877,34.78875 132.949375,34.78875 C132.574373,34.78875 132.265001,34.9603108 132.02125,35.3034375 C131.777499,35.6465642 131.655625,36.0843723 131.655625,36.616875 C131.655625,37.1643777 131.766249,37.5937484 131.9875,37.905 C132.208751,38.2162516 132.527498,38.371875 132.94375,38.371875 L132.94375,38.371875 Z M143.443125,35.97 C143.443125,36.3937521 143.333439,36.7612484 143.114063,37.0725 C142.894686,37.3837516 142.586252,37.6256241 142.18875,37.798125 C142.646252,37.9743759 143.004374,38.2321858 143.263125,38.5715625 C143.521876,38.9109392 143.65125,39.3093727 143.65125,39.766875 C143.65125,40.5431289 143.40469,41.1290605 142.911563,41.5246875 C142.418435,41.9203145 141.759379,42.118125 140.934375,42.118125 C140.098121,42.118125 139.43344,41.9203145 138.940313,41.5246875 C138.447185,41.1290605 138.200625,40.5431289 138.200625,39.766875 C138.200625,39.3056227 138.328124,38.9062517 138.583125,38.56875 C138.838126,38.2312483 139.198123,37.9725009 139.663125,37.7925 C139.265623,37.6237492 138.958126,37.3837516 138.740625,37.0725 C138.523124,36.7612484 138.414375,36.3937521 138.414375,35.97 C138.414375,35.2274963 138.64031,34.6621894 139.092188,34.2740625 C139.544065,33.8859356 140.154371,33.691875 140.923125,33.691875 C141.684379,33.691875 142.294685,33.8859356 142.754063,34.2740625 C143.21344,34.6621894 143.443125,35.2274963 143.443125,35.97 L143.443125,35.97 Z M142.29,39.699375 C142.29,39.290623 142.163439,38.9625012 141.910313,38.715 C141.657186,38.4674988 141.328127,38.34375 140.923125,38.34375 C140.510623,38.34375 140.181564,38.4665613 139.935938,38.7121875 C139.690311,38.9578137 139.5675,39.2868729 139.5675,39.699375 C139.5675,40.1193771 139.689374,40.4456238 139.933125,40.678125 C140.176876,40.9106262 140.510623,41.026875 140.934375,41.026875 C141.343127,41.026875 141.671249,40.9096887 141.91875,40.6753125 C142.166251,40.4409363 142.29,40.1156271 142.29,39.699375 L142.29,39.699375 Z M142.07625,36.020625 C142.07625,35.6531232 141.971251,35.3559386 141.76125,35.1290625 C141.551249,34.9021864 141.271877,34.78875 140.923125,34.78875 C140.566873,34.78875 140.287501,34.8984364 140.085,35.1178125 C139.882499,35.3371886 139.78125,35.6381231 139.78125,36.020625 C139.78125,36.3993769 139.883437,36.6984364 140.087813,36.9178125 C140.292189,37.1371886 140.574373,37.246875 140.934375,37.246875 C141.283127,37.246875 141.560624,37.1371886 141.766875,36.9178125 C141.973126,36.6984364 142.07625,36.3993769 142.07625,36.020625 L142.07625,36.020625 Z" id="Hint-text-Copy-6" stroke="none" fill="#FF3D00" fill-rule="evenodd"/>
                        <g id="bubbles" stroke="none" stroke-width="1" fill="none" fill-rule="evenodd" transform="translate(11.500000, 56.500000) scale(-1, -1) translate(-11.500000, -56.500000) translate(0.000000, 46.000000)">
                            <use id="Oval-120-Copy" stroke="#03A9F4" mask="url(#mask-6)" stroke-width="2" xlink:href="#path-5"/>
                            <use id="Oval-120-Copy-2" stroke="#03A9F4" mask="url(#mask-8)" stroke-width="2" xlink:href="#path-7"/>
                            <use id="Oval-120-Copy-3" stroke="#03A9F4" mask="url(#mask-10)" stroke-width="2" xlink:href="#path-9"/>
                        </g>
                        <g id="bubbles-copy" stroke="none" stroke-width="1" fill="none" fill-rule="evenodd" transform="translate(203.000000, 46.000000)">
                            <use id="Oval-120" stroke="#03A9F4" mask="url(#mask-12)" stroke-width="2" xlink:href="#path-11"/>
                            <use id="Oval-120-Copy-2" stroke="#03A9F4" mask="url(#mask-14)" stroke-width="2" xlink:href="#path-13"/>
                            <use id="Oval-120-Copy-5" stroke="#03A9F4" mask="url(#mask-16)" stroke-width="2" xlink:href="#path-15"/>
                        </g>
                    </g>
                </g>
            </g>
        </g>
    </g>
</svg>