<svg height="480pt" viewBox="0 0 480 480" width="480pt" xmlns="http://www.w3.org/2000/svg"><path d="m176 128h128c8.835938 0 16 7.164062 16 16v184c0 8.835938-7.164062 16-16 16h-128c-8.835938 0-16-7.164062-16-16v-184c0-8.835938 7.164062-16 16-16zm0 0" fill="#e0e0e2"/><path d="m472 360v8h-40v-40h8zm0 0" fill="#ff9478"/><path d="m352 328h80v40h40v104h-120zm0 0" fill="#ffbcab"/><path d="m48 440h32v32h-32zm0 0" fill="#898890"/><path d="m8 416h112v8c-.027344 8.824219-7.175781 15.972656-16 16h-80c-8.824219-.027344-15.972656-7.175781-16-16zm0 0" fill="#e0e0e2"/><path d="m120 376v40h-112v-40c.027344-8.824219 7.175781-15.972656 16-16h80c8.824219.027344 15.972656 7.175781 16 16zm0 0" fill="#bdfdff"/><path d="m136 8v48h-128v-32h72l16-16zm0 0" fill="#d9ccbc"/><path d="m8 128v-72h128v72zm0 0" fill="#ffeb99"/><path d="m448 48c13.253906 0 24 10.746094 24 24s-10.746094 24-24 24h-104c-9.691406.023438-18.449219-5.785156-22.195312-14.722656-3.746094-8.941406-1.75-19.257813 5.066406-26.148438 6.816406-6.894531 17.105468-9.011718 26.089844-5.367187 2.742187-10.472657 12.210937-17.773438 23.039062-17.761719.398438 0 .71875.078125 1.121094.078125 3.953125-15.628906 18.945312-25.855469 34.941406-23.84375 15.996094 2.015625 27.980469 15.640625 27.9375 31.765625-.042969 3.457031-.636719 6.886719-1.761719 10.160156 3.058594-1.417968 6.390625-2.15625 9.761719-2.160156zm0 0" fill="#2488ff"/><path d="m256 304c0 8.835938-7.164062 16-16 16s-16-7.164062-16-16 7.164062-16 16-16 16 7.164062 16 16zm0 0" fill="#ffda44"/><path d="m240 280c-13.253906 0-24 10.746094-24 24s10.746094 24 24 24 24-10.746094 24-24-10.746094-24-24-24zm0 32c-4.417969 0-8-3.582031-8-8s3.582031-8 8-8 8 3.582031 8 8-3.582031 8-8 8zm0 0"/><path d="m184 152h112v16h-112zm0 0"/><path d="m184 184h112v16h-112zm0 0"/><path d="m184 216h112v16h-112zm0 0"/><path d="m32 80h32v16h-32zm0 0"/><path d="m445.65625 322.34375c-1.5-1.5-3.535156-2.34375-5.65625-2.34375h-24v-16c0-13.253906-10.746094-24-24-24h-64v-96h64c13.253906 0 24-10.746094 24-24v-56h32c17.671875 0 32-14.328125 32-32s-14.328125-32-32-32c.027344-19-13.335938-35.390625-31.953125-39.191406-18.617187-3.796875-37.335937 6.050781-44.75 23.542968-9.730469 1.492188-18.234375 7.367188-23.074219 15.9375-1.398437-.191406-2.808594-.289062-4.222656-.289062-17.671875 0-32 14.328125-32 32s14.328125 32 32 32h56v56c0 4.417969-3.582031 8-8 8h-64v-24c0-13.253906-10.746094-24-24-24h-128c-13.253906 0-24 10.746094-24 24v23.28125l-71.929688.582031c-2.128906-.011719-4.175781-.839843-5.710937-2.320312-1.515625-1.5-2.367187-3.546875-2.359375-5.679688v-23.863281h64c4.417969 0 8-3.582031 8-8v-120c0-4.417969-3.582031-8-8-8h-40c-2.121094 0-4.15625.84375-5.65625 2.34375l-13.65625 13.65625h-68.6875c-4.417969 0-8 3.582031-8 8v104c0 4.417969 3.582031 8 8 8h48v23.863281c0 13.253907 10.746094 24 24 24h.199219l71.800781-.582031v96.71875h-72c-13.253906 0-24 10.746094-24 24v48h-32c-13.253906 0-24 10.746094-24 24v48c0 13.253906 10.746094 24 24 24h16v16h-16v16h80v-16h-16v-16h16c13.253906 0 24-10.746094 24-24v-48c0-13.253906-10.746094-24-24-24h-32v-48c0-4.417969 3.582031-8 8-8h72v32c0 13.253906 10.746094 24 24 24h128c13.253906 0 24-10.746094 24-24v-32h64c4.417969 0 8 3.582031 8 8v16h-48c-4.417969 0-8 3.582031-8 8v144c0 4.417969 3.582031 8 8 8h120c4.417969 0 8-3.582031 8-8v-112c0-2.121094-.84375-4.15625-2.34375-5.65625zm-117.65625-250.34375c-.019531-5.316406 2.613281-10.292969 7.019531-13.269531 4.40625-2.976563 10.007813-3.558594 14.933594-1.554688 2.113281.867188 4.503906.773438 6.542969-.265625 2.042968-1.019531 3.554687-2.863281 4.152344-5.070312 1.789062-6.789063 7.816406-11.597656 14.832031-11.839844.261719 0 1.015625.121094 1.28125.128906 3.796875.214844 7.203125-2.316406 8.085937-6.015625 2.945313-11.734375 14.179688-19.425781 26.183594-17.925781 12 1.5 21 11.714844 20.96875 23.8125-.039062 2.585938-.503906 5.148438-1.375 7.585938-1.011719 3.011718-.144531 6.335937 2.207031 8.472656 2.355469 2.132812 5.75 2.671875 8.648438 1.375 5.960937-2.710938 12.972656-1.511719 17.695312 3.023437 4.722657 4.535157 6.207031 11.492188 3.746094 17.558594-2.460937 6.070313-8.375 10.023437-14.921875 9.984375h-104c-8.835938 0-16-7.164062-16-16zm-248-40c2.121094 0 4.15625-.84375 5.65625-2.34375l13.65625-13.65625h28.6875v32h-112v-16zm-64 32h112v56h-112zm56 400h-16v-16h16zm32-32h-80c-4.417969 0-8-3.582031-8-8h96c0 4.417969-3.582031 8-8 8zm8-56v32h-96v-32c0-4.417969 3.582031-8 8-8h80c4.417969 0 8 3.582031 8 8zm200-48c0 4.417969-3.582031 8-8 8h-128c-4.417969 0-8-3.582031-8-8v-184c0-4.417969 3.582031-8 8-8h128c4.417969 0 8 3.582031 8 8zm148.6875 32h-20.6875v-20.6875zm-100.6875 104v-128h64v32c0 4.417969 3.582031 8 8 8h32v88zm0 0"/></svg>