<svg height="512pt" viewBox="0 0 512 512" width="512pt" xmlns="http://www.w3.org/2000/svg"><path d="m328 352h-144v-192h96l48 48zm0 0" fill="#00c3ff"/><path d="m8 8h96v192h-96zm0 0" fill="#91e8ed"/><path d="m8 312h96v192h-96zm0 0" fill="#91e8ed"/><path d="m408 8h96v192h-96zm0 0" fill="#91e8ed"/><path d="m408 312h96v192h-96zm0 0" fill="#91e8ed"/><path d="m216 200h32v32h-32zm0 0" fill="#ffea00"/><path d="m280 160v48h48zm0 0" fill="#ffea00"/><g fill="#fff"><path d="m48 160h16v16h-16zm0 0"/><path d="m48 128h16v16h-16zm0 0"/><path d="m48 464h16v16h-16zm0 0"/><path d="m48 432h16v16h-16zm0 0"/><path d="m448 160h16v16h-16zm0 0"/><path d="m448 128h16v16h-16zm0 0"/><path d="m448 464h16v16h-16zm0 0"/><path d="m448 432h16v16h-16zm0 0"/><path d="m208 264h96v16h-96zm0 0"/><path d="m208 304h64v16h-64zm0 0"/><path d="m288 304h16v16h-16zm0 0"/></g><path d="m32 32h48v16h-48zm0 0"/><path d="m32 64h48v16h-48zm0 0"/><path d="m32 336h48v16h-48zm0 0"/><path d="m32 368h48v16h-48zm0 0"/><path d="m512 208v-208h-112v80h-96v92.6875l-20.6875-20.6875h-19.3125v-152h-16v152h-40v-72h-96v-80h-112v208h112v-112h80v56h-16v208h16v56h-80v-112h-112v208h112v-80h96v-72h40v152h16v-152h40v72h96v80h112v-208h-112v112h-80v-56h16v-155.3125l-16-16v-92.6875h80v112zm-96-192h80v176h-80zm-320 176h-80v-176h80zm0 304h-80v-176h80zm320-176h80v176h-80zm-128-140.6875 20.6875 20.6875h-20.6875zm32 164.6875h-128v-176h80v48h48zm0 0"/><path d="m432 32h48v16h-48zm0 0"/><path d="m432 64h48v16h-48zm0 0"/><path d="m432 336h48v16h-48zm0 0"/><path d="m432 368h48v16h-48zm0 0"/><path d="m208 240h48v-48h-48zm16-32h16v16h-16zm0 0"/></svg>