<svg height="480pt" viewBox="0 0 480.0492 480" width="480pt" xmlns="http://www.w3.org/2000/svg" xmlns:xlink="http://www.w3.org/1999/xlink"><linearGradient id="lg1"><stop offset="0" stop-color="#006df0"/><stop offset="1" stop-color="#00e7f0"/></linearGradient><linearGradient id="linear0" gradientUnits="userSpaceOnUse" x1="213.591874" x2="206.103874" xlink:href="#lg1" y1="507.674122" y2="-1.797878"/><linearGradient id="linear1" gradientUnits="userSpaceOnUse" x1="274.311874" x2="266.823874" xlink:href="#lg1" y1="506.786122" y2="-2.685878"/><linearGradient id="linear2" gradientUnits="userSpaceOnUse" x1="243.951874" x2="236.463874" xlink:href="#lg1" y1="507.234122" y2="-2.245878"/><linearGradient id="linear3" gradientUnits="userSpaceOnUse" x1="180.439874" x2="172.943874" xlink:href="#lg1" y1="508.162122" y2="-1.309878"/><linearGradient id="linear4" gradientUnits="userSpaceOnUse" x1="260.423874" x2="252.927874" xlink:href="#lg1" y1="506.986122" y2="-2.485878"/><linearGradient id="linear5" gradientUnits="userSpaceOnUse" x1="179.967874" x2="172.471874" xlink:href="#lg1" y1="508.170122" y2="-1.301878"/><linearGradient id="linear6" gradientUnits="userSpaceOnUse" x1="259.951874" x2="252.455874" xlink:href="#lg1" y1="506.994122" y2="-2.477878"/><linearGradient id="linear7" gradientUnits="userSpaceOnUse" x1="179.495874" x2="172.007874" xlink:href="#lg1" y1="508.178122" y2="-1.293878"/><linearGradient id="linear8" gradientUnits="userSpaceOnUse" x1="259.479874" x2="251.983874" xlink:href="#lg1" y1="507.002122" y2="-2.469878"/><linearGradient id="linear9" gradientUnits="userSpaceOnUse" x1="179.023874" x2="171.535874" xlink:href="#lg1" y1="508.186122" y2="-1.285878"/><linearGradient id="linear10" gradientUnits="userSpaceOnUse" x1="259.007874" x2="251.519874" xlink:href="#lg1" y1="507.010122" y2="-2.461878"/><linearGradient id="linear11" gradientUnits="userSpaceOnUse" x1="178.551874" x2="171.063874" xlink:href="#lg1" y1="508.194122" y2="-1.277878"/><linearGradient id="linear12" gradientUnits="userSpaceOnUse" x1="258.535874" x2="251.047874" xlink:href="#lg1" y1="507.018122" y2="-2.453878"/><path d="m240.023438 16.027344c54.578124-.203125 107.3125 19.738281 148.105468 56h-44.105468v16h72v-72h-16v45.191406c-43.867188-39.585938-100.910157-61.402344-160-61.1914062-88.859376-.0117188-170.453126 49.0820312-212.074219 127.5937502-41.617188 78.511718-36.449219 173.59375 13.433593 247.132812l13.234376-8.992187c-46.554688-68.636719-51.375-157.378907-12.527344-230.65625 38.84375-73.273438 115-119.089844 197.933594-119.078125zm0 0" fill="url(#linear0)"/><path d="m434.679688 99.601562-12.96875 9.375c49.203124 68.207032 56.054687 158.226563 17.742187 233.09375-38.3125 74.863282-115.328125 121.964844-199.429687 121.957032-54.578126.199218-107.3125-19.742188-148.105469-56h44.105469v-16h-72v72h16v-45.191406c43.867187 39.585937 100.914062 61.402343 160 61.191406 90.109374.007812 172.632812-50.457032 213.679687-130.679688 41.046875-80.21875 33.699219-176.667968-19.023437-249.746094zm0 0" fill="url(#linear1)"/><path d="m136.023438 172.714844v203.3125h208v-272h-139.3125zm64-41.375v36.6875h-36.6875zm128 228.6875h-176v-176h64v-64h112zm0 0" fill="url(#linear2)"/><path d="m168.023438 200.027344h16v16h-16zm0 0" fill="url(#linear3)"/><path d="m200.023438 200.027344h112v16h-112zm0 0" fill="url(#linear4)"/><path d="m168.023438 232.027344h16v16h-16zm0 0" fill="url(#linear5)"/><path d="m200.023438 232.027344h112v16h-112zm0 0" fill="url(#linear6)"/><path d="m168.023438 264.027344h16v16h-16zm0 0" fill="url(#linear7)"/><path d="m200.023438 264.027344h112v16h-112zm0 0" fill="url(#linear8)"/><path d="m168.023438 296.027344h16v16h-16zm0 0" fill="url(#linear9)"/><path d="m200.023438 296.027344h112v16h-112zm0 0" fill="url(#linear10)"/><path d="m168.023438 328.027344h16v16h-16zm0 0" fill="url(#linear11)"/><path d="m200.023438 328.027344h112v16h-112zm0 0" fill="url(#linear12)"/></svg>