<?xml version="1.0" encoding="UTF-8"?>
<!DOCTYPE svg PUBLIC "-//W3C//DTD SVG 1.1//EN" "http://www.w3.org/Graphics/SVG/1.1/DTD/svg11.dtd">
<!-- Creator: CorelDRAW X8 -->
<svg xmlns="http://www.w3.org/2000/svg" xml:space="preserve" width="66.1458mm" height="66.1458mm" version="1.1" style="shape-rendering:geometricPrecision; text-rendering:geometricPrecision; image-rendering:optimizeQuality; fill-rule:evenodd; clip-rule:evenodd"
viewBox="0 0 6615 6615"
 xmlns:xlink="http://www.w3.org/1999/xlink">
 <defs>
  <style type="text/css">
   <![CDATA[
    .str10 {stroke:#1B4E9B;stroke-width:130.64;stroke-linecap:round;stroke-linejoin:round}
    .str3 {stroke:#1B4E9B;stroke-width:130.64;stroke-linecap:round;stroke-linejoin:round}
    .str6 {stroke:#1B4E9B;stroke-width:130.64;stroke-linecap:round;stroke-linejoin:round}
    .str5 {stroke:#1B4E9B;stroke-width:130.64;stroke-linecap:round;stroke-linejoin:round}
    .str9 {stroke:#1B4E9B;stroke-width:130.64;stroke-linecap:round;stroke-linejoin:round}
    .str4 {stroke:#1B4E9B;stroke-width:130.64;stroke-linecap:round;stroke-linejoin:round}
    .str7 {stroke:#1B4E9B;stroke-width:130.64;stroke-linecap:round;stroke-linejoin:round}
    .str14 {stroke:#F18917;stroke-width:130.64;stroke-linecap:round;stroke-linejoin:round}
    .str13 {stroke:#F18917;stroke-width:130.64;stroke-linecap:round;stroke-linejoin:round}
    .str11 {stroke:#F18917;stroke-width:130.64;stroke-linecap:round;stroke-linejoin:round}
    .str15 {stroke:#F18917;stroke-width:130.64;stroke-linecap:round;stroke-linejoin:round}
    .str17 {stroke:#F18917;stroke-width:130.64;stroke-linecap:round;stroke-linejoin:round}
    .str12 {stroke:#F18917;stroke-width:130.64;stroke-linecap:round;stroke-linejoin:round}
    .str16 {stroke:#F18917;stroke-width:130.64;stroke-linecap:round;stroke-linejoin:round}
    .str8 {stroke:#1B4E9B;stroke-width:130.64;stroke-linecap:round;stroke-linejoin:round}
    .str1 {stroke:#1B4E9B;stroke-width:302.01;stroke-linecap:round;stroke-linejoin:round}
    .str2 {stroke:#1B4E9B;stroke-width:302.01;stroke-linecap:round;stroke-linejoin:round}
    .str0 {stroke:#1B4E9B;stroke-width:302.01;stroke-linecap:round;stroke-linejoin:round}
    .fil0 {fill:none}
    .fil1 {fill:#1B4E9B;fill-rule:nonzero}
   ]]>
  </style>
 </defs>
 <g id="Слой_x0020_1">
  <metadata id="CorelCorpID_0Corel-Layer"/>
  <g id="_826360240">
   <g>
    <path class="fil0 str0" d="M5155 6365l-3800 0c-309,0 -562,-253 -562,-561l0 -2391c0,-154 64,-295 166,-396 282,-283 2046,-1957 2296,-1946 219,9 2072,1699 2315,1966 91,100 147,232 147,376l0 2391c0,308 -253,561 -562,561z"/>
    <polyline class="fil0 str1" points="238,2919 3277,249 6376,2958 "/>
    <line class="fil0 str2" x1="1565" y1="1721" x2="1565" y2= "794" />
   </g>
   <path class="fil0 str3" d="M3252 2824c724,0 1310,587 1310,1310 0,723 -586,1310 -1310,1310 -723,0 -1310,-587 -1310,-1310 0,-723 587,-1310 1310,-1310z"/>
   <path class="fil0 str4" d="M3641 4555c146,0 264,118 264,264 0,146 -118,265 -264,265 -146,0 -265,-119 -265,-265 0,-146 119,-264 265,-264z"/>
   <path class="fil0 str5" d="M3215 3091c100,0 181,81 181,181 0,100 -81,181 -181,181 -100,0 -181,-81 -181,-181 0,-100 81,-181 181,-181z"/>
   <polygon class="fil0 str6" points="2282,3683 4128,3683 4128,4331 2282,4331 "/>
   <path class="fil0 str7" d="M1670 3827l313 0c-56,182 -53,400 0,648l-313 0 0 -648z"/>
   <path class="fil0 str8" d="M4835 3827l-313 0c56,182 52,400 0,648l313 0 0 -648z"/>
   <polygon class="fil0 str9" points="1672,3660 1287,3660 1287,4643 1672,4643 "/>
   <polygon class="fil0 str10" points="4833,3660 5218,3660 5218,4643 4833,4643 "/>
   <line class="fil0 str11" x1="2498" y1="3869" x2="2498" y2= "4147" />
   <line class="fil0 str12" x1="2735" y1="3869" x2="2735" y2= "4147" />
   <line class="fil0 str13" x1="2982" y1="3869" x2="2982" y2= "4147" />
   <line class="fil0 str14" x1="3231" y1="3869" x2="3231" y2= "4147" />
   <line class="fil0 str15" x1="3473" y1="3869" x2="3473" y2= "4147" />
   <line class="fil0 str16" x1="3709" y1="3869" x2="3709" y2= "4147" />
   <line class="fil0 str17" x1="3963" y1="3869" x2="3963" y2= "4147" />
   <g>
    <path class="fil1" d="M2575 5058c-36,0 -65,-29 -65,-65 0,-36 29,-66 65,-66l0 131zm577 0l-577 0 0 -131 577 0 0 131zm0 -131c36,0 65,30 65,66 0,36 -29,65 -65,65l0 -131z"/>
   </g>
  </g>
 </g>
</svg>
