<?xml version="1.0" encoding="utf-8"?>
<!-- Generator: Adobe Illustrator 15.1.0, SVG Export Plug-In . SVG Version: 6.00 Build 0)  -->
<!DOCTYPE svg PUBLIC "-//W3C//DTD SVG 1.1//EN" "http://www.w3.org/Graphics/SVG/1.1/DTD/svg11.dtd">
<svg version="1.1" id="Слой_1" xmlns="http://www.w3.org/2000/svg" xmlns:xlink="http://www.w3.org/1999/xlink" x="0px" y="0px"
	 width="283.46px" height="283.46px" viewBox="0 0 283.46 283.46" enable-background="new 0 0 283.46 283.46" xml:space="preserve">
<g>
	<path fill="#5CCBF0" d="M90.007,104.135h103.618v75.357H90.007V104.135z"/>
	<path fill="#5CCBF0" d="M90.007,118.264v47.1H61.748c-5.203,0-9.42,4.215-9.42,9.419v28.258H5.229v-28.258
		c0-31.215,25.305-56.519,56.518-56.519H90.007z"/>
	<path fill="#5CCBF0" d="M113.556,75.875h56.518v28.259h-56.518V75.875z"/>
	<path fill="#5CCBF0" d="M193.625,113.553h51.806v56.519h-51.806V113.553z"/>
	<path fill="#5CCBF0" d="M245.431,94.716h32.969v94.197h-32.969V94.716z"/>
	<path fill="#5CCBF0" d="M132.396,5.229h18.841v70.647h-18.841V5.229z"/>
</g>
<path fill="#4398D1" d="M28.779,221.882l-16.828,31.239c-4.282,8.7-0.698,19.226,8.002,23.505c2.739,1.349,5.781,1.96,8.826,1.772
	c9.679,0.595,18.006-6.771,18.601-16.451c0.186-3.045-0.424-6.089-1.772-8.826L28.779,221.882z"/>
<path fill="#45BEEE" d="M198.701,43.924l-28.628-5.728h-56.518L84.93,43.924c-8.368,1.669-16.503-3.76-18.173-12.126
	c-0.198-0.994-0.298-2.006-0.299-3.021c0.001-8.532,6.919-15.446,15.451-15.445c1.015,0,2.026,0.099,3.022,0.298l28.625,5.727
	h56.518l28.628-5.727c8.366-1.671,16.502,3.76,18.171,12.125c0.2,0.996,0.301,2.007,0.302,3.021
	c-0.002,8.532-6.921,15.448-15.453,15.447C200.707,44.224,199.693,44.122,198.701,43.924z"/>
<g>
	<path fill="#489FD8" d="M67.46,118.264c-10.846,31.601-33.018,58.059-62.231,74.271v10.505h47.098v-28.258
		c0-5.204,4.218-9.419,9.42-9.419h28.259v-47.1H67.46z"/>
	<path fill="#489FD8" d="M151.237,75.875h18.836v28.259h-18.836V75.875z"/>
	<path fill="#489FD8" d="M90.007,166.555v12.938h103.618v-42.389C193.625,137.103,155.943,160.653,90.007,166.555z"/>
	<path fill="#489FD8" d="M132.396,38.197h18.841v14.129h-18.841V38.197z"/>
	<path fill="#489FD8" d="M245.431,141.813h32.969v47.1h-32.969V141.813z"/>
</g>
<path fill="#3E8CC7" d="M41.411,245.333c-5.905,11.755-17.009,20.039-29.959,22.357c3.168,6.666,9.948,10.854,17.328,10.708
	c9.679,0.595,18.006-6.771,18.601-16.451c0.186-3.045-0.424-6.089-1.772-8.826L41.411,245.333z"/>
<path d="M278.399,90.006h-32.969c-2.602,0-4.711,2.108-4.711,4.709v14.129h-42.387v-4.71c0-2.601-2.108-4.71-4.708-4.71h-18.841
	V75.875c0-2.6-2.109-4.71-4.711-4.71h-14.13V42.907h13.66l28.17,5.652c10.912,2.182,21.53-4.897,23.713-15.812
	c2.181-10.915-4.898-21.533-15.813-23.713c-2.607-0.521-5.293-0.521-7.899,0l-28.17,5.614h-13.66V5.229
	c0-2.601-2.108-4.71-4.706-4.71h-18.841c-2.602,0-4.71,2.109-4.71,4.71v9.419h-13.658L85.854,8.995
	C74.938,6.802,64.31,13.87,62.116,24.784c-2.195,10.915,4.874,21.542,15.789,23.736c1.306,0.263,2.633,0.396,3.965,0.397
	c1.339-0.001,2.671-0.134,3.984-0.397l28.174-5.614h13.658v28.259h-14.13c-2.6,0-4.709,2.11-4.709,4.71v23.549h-18.84
	c-2.602,0-4.71,2.109-4.71,4.71v9.418H61.748c-33.799,0.041-61.189,27.43-61.228,61.229v28.258c0,2.602,2.108,4.713,4.709,4.713
	h47.098c2.602,0,4.711-2.111,4.711-4.713v-28.258c0-2.603,2.109-4.71,4.709-4.71h23.549v9.42c0,2.601,2.108,4.709,4.71,4.709
	h103.618c2.6,0,4.708-2.108,4.708-4.709v-4.71h42.387v14.131c0,2.601,2.109,4.71,4.711,4.71h32.969c2.602,0,4.71-2.109,4.71-4.71
	V94.716C283.109,92.114,281.001,90.006,278.399,90.006z M170.073,24.067c0.316,0.002,0.632-0.028,0.942-0.095l28.627-5.722
	c5.814-1.159,11.465,2.615,12.624,8.428c1.159,5.814-2.613,11.466-8.428,12.626c-1.385,0.276-2.812,0.276-4.196,0l-28.627-5.723
	c-0.311-0.065-0.627-0.097-0.942-0.094h-14.13v-9.419H170.073z M146.525,33.487h-9.42v-9.419h9.42V33.487z M137.105,9.938h9.42
	v4.709h-9.42V9.938z M113.556,33.487c-0.316-0.002-0.632,0.029-0.941,0.094l-28.627,5.723c-5.813,1.159-11.465-2.614-12.624-8.428
	c-1.16-5.814,2.614-11.466,8.426-12.626c1.386-0.276,2.813-0.276,4.198,0l28.627,5.722c0.31,0.067,0.625,0.098,0.941,0.095h14.13
	v9.419H113.556z M137.105,42.907h9.42v28.259h-9.42V42.907z M118.266,80.586h47.098v18.839h-47.098V80.586z M61.748,160.653
	c-7.804,0-14.13,6.326-14.13,14.129v23.55H9.94v-23.55c0.034-28.599,23.209-51.775,51.808-51.808h23.549v37.679H61.748z
	 M188.914,174.782H94.717v-65.937h94.197V174.782z M198.333,165.363v-47.1h42.387v47.1H198.333z M273.691,184.201h-23.551V99.425
	h23.551V184.201z"/>
<path d="M28.779,283.109c8.357,0.138,16.161-4.165,20.506-11.306c3.865-6.391,4.044-14.355,0.472-20.915l-16.829-31.241
	c-1.448-2.29-4.478-2.976-6.77-1.527c-0.617,0.39-1.139,0.912-1.529,1.527L7.801,250.889c-3.571,6.56-3.393,14.524,0.47,20.915
	C12.617,278.944,20.422,283.247,28.779,283.109z M16.1,255.353l12.679-23.548l12.679,23.548c2.016,3.636,1.919,8.076-0.254,11.623
	c-2.658,4.281-7.385,6.836-12.425,6.713c-5.04,0.123-9.768-2.432-12.425-6.713C14.18,263.429,14.083,258.988,16.1,255.353z"/>
</svg>
