<?xml version="1.0" encoding="utf-8"?>
<!-- Generator: Adobe Illustrator 15.1.0, SVG Export Plug-In . SVG Version: 6.00 Build 0)  -->
<!DOCTYPE svg PUBLIC "-//W3C//DTD SVG 1.1//EN" "http://www.w3.org/Graphics/SVG/1.1/DTD/svg11.dtd">
<svg version="1.1" id="Capa_1" xmlns="http://www.w3.org/2000/svg" xmlns:xlink="http://www.w3.org/1999/xlink" x="0px" y="0px"
	 width="841.89px" height="595.281px" viewBox="0 0 841.89 595.281" enable-background="new 0 0 841.89 595.281"
	 xml:space="preserve">
<path fill="#7D7D7D" d="M290.53,488.283c7.031,11.145,10.743,23.986,10.743,37.191c0,38.492-31.317,69.809-69.809,69.809
	s-69.809-31.316-69.809-69.809c0-13.258,3.741-26.15,10.825-37.326l40.063-67.641c3.961-6.684,11.15-10.783,18.92-10.783
	c7.767,0,14.962,4.1,18.92,10.783L290.53,488.283z M681.896,127.18H538.117v-3.005c0-12.145-9.844-21.99-21.99-21.99h-32.936V83.141
	h89.898c12.146,0,21.99-9.846,21.99-21.99V48.687C595.076,21.841,573.236,0,546.39,0H346.188c-26.846,0-48.687,21.841-48.687,48.687
	V61.15c0,12.145,9.846,21.99,21.99,21.99h89.902v19.043h-32.941c-12.144,0-21.99,9.846-21.99,21.99v3.005h-58.637
	c-79.622,0-144.399,64.777-144.399,144.402v73.869c-7.887,3.34-13.423,11.154-13.423,20.258c0,12.145,9.846,21.99,21.99,21.99
	h13.423H278.13h12.03c12.145,0,21.99-9.846,21.99-21.99c0-8.555-4.896-15.953-12.03-19.588v-49.646
	c0-12.986,10.564-23.55,23.55-23.55h30.792v7.468c0,12.145,9.846,21.99,21.99,21.99h139.67c12.148,0,21.99-9.845,21.99-21.99v-0.965
	h143.781c12.146,0,21.99-9.846,21.99-21.99V149.17C703.886,137.025,694.041,127.18,681.896,127.18z"/>
</svg>
