<svg height="512pt" viewBox="0 0 512 512" width="512pt" xmlns="http://www.w3.org/2000/svg"><path d="m512 264v-48h-61.519531s-16.25-39.199219-23.746094-57.28125l26.648437-56.054688-44.046874-44.046874-56.054688 26.648437-45.335938-18.785156-20.800781-58.480469h-62.289062l-20.800781 58.480469-45.335938 18.785156-56.054688-26.648437-44.046874 44.046874 26.648437 56.054688c-7.496094 18.082031-23.746094 57.28125-23.746094 57.28125h-61.519531v48zm0 0" fill="#91e8ed"/><path d="m241.695312 128.800781c-65.472656 7.078125-113.695312 64.96875-113.695312 130.816407.003906 29.042968 7.894531 57.539062 22.832031 82.445312l1.167969 1.9375c15.703125 26.175781 24 56.125 24 86.648438v9.351562h160v-9.351562c0-30.523438 8.296875-60.472657 24-86.648438s24-56.125 24-86.648438v-1.351562c0-36.4375-15.53125-71.148438-42.695312-95.433594-27.167969-24.285156-63.398438-35.839844-99.609376-31.765625zm0 0" fill="#ffea00"/><path d="m176 440h160v64h-160zm0 0" fill="#91e8ed"/><path d="m304 440h-96v-140l48-76 48 76zm0 0" fill="#00c3ff"/><path d="m256 308-16 8v124h32v-124zm0 0" fill="#fff"/><path d="m256 224-30.3125 48h60.625zm0 0" fill="#50575e"/><path d="m256 308 16 8 32-16-17.6875-28h-60.625l-17.6875 28 32 16zm0 0" fill="#ffdecf"/><path d="m424 256h-16c.09375-39.824219-15.558594-78.070312-43.542969-106.398438l11.398438-11.203124c30.941406 31.308593 48.25 73.582031 48.144531 117.601562zm0 0" fill="#fff"/><path d="m104 256h-16c-.105469-44.019531 17.203125-86.292969 48.144531-117.601562l11.398438 11.203124c-27.988281 28.328126-43.640625 66.574219-43.542969 106.398438zm0 0" fill="#fff"/><path d="m455.824219 208-20.328125-49.054688 27.535156-57.945312-52.03125-52.03125-57.945312 27.542969-38.765626-16.0625-21.488281-60.449219h-73.601562l-21.488281 60.449219-38.765626 16.0625-57.945312-27.542969-52.03125 52.03125 27.535156 57.945312-20.328125 49.054688h-56.175781v16h66.863281l27.144531-65.503906-25.742187-54.167969 36.0625-36.0625 54.167969 25.742187 51.902344-21.496093 20.105468-56.511719h51l20.097656 56.511719 51.902344 21.496093 54.167969-25.742187 36.0625 36.0625-25.742187 54.167969 27.144531 65.503906h66.863281v-16zm0 0"/><path d="m392 256c-1-75.109375-62.699219-135.191406-137.808594-134.191406-75.109375.996094-135.191406 62.695312-134.191406 137.808594.007812 30.492187 8.300781 60.410156 24 86.550781l1.167969 1.953125c14.945312 24.933594 22.835937 53.457031 22.832031 82.527344v81.351562h176v-81.351562c0-29.074219 7.902344-57.597657 22.855469-82.527344 16.449219-27.421875 25.140625-58.792969 25.144531-90.769532zm-64 240h-144v-48h144zm-46.097656-216 10.609375 16.800781-19.710938 9.832031-16.800781-12.632812-16.800781 12.632812-19.710938-9.832031 10.609375-16.800781zm-41.703125-16 15.800781-25.015625 15.800781 25.015625zm55.800781 48.945312v119.054688h-16v-111.054688zm-32 7.054688v112h-16v-112l8-6zm-32 .945312v111.054688h-16v-119.054688zm144-63.59375c0 29.074219-7.902344 57.597657-22.855469 82.527344-16.449219 27.421875-25.140625 58.792969-25.144531 90.769532v1.351562h-16v-134.320312l-56-88.664063-56 88.664063v134.320312h-16v-1.351562c-.003906-31.972657-8.695312-63.34375-25.144531-90.761719l-1.160157-1.941407c-14.195312-23.664062-21.691406-50.738281-21.695312-78.328124-1.136719-62.183594 44.835938-115.203126 106.550781-122.890626 33.957031-3.816406 67.925781 7.019532 93.402344 29.789063s40.042969 55.316406 40.046875 89.484375zm0 0"/><path d="m0 256h64v16h-64zm0 0"/><path d="m448 256h64v16h-64zm0 0"/><path d="m8.847656 331.195312 61.203125-18.710937 4.683594 15.308594-61.207031 18.710937zm0 0"/><path d="m39.289062 400.515625 53.058594-35.789063 8.945313 13.265626-53.058594 35.789062zm0 0"/><path d="m437.265625 327.785156 4.679687-15.300781 61.203126 18.710937-4.675782 15.300782zm0 0"/><path d="m410.699219 377.992188 8.949219-13.273438 53.058593 35.789062-8.949219 13.269532zm0 0"/><path d="m370.609375 418.25 12.433594-10.070312 40.28125 49.734374-12.433594 10.070313zm0 0"/><path d="m88.679688 457.917969 40.273437-49.738281 12.433594 10.066406-40.273438 49.742187zm0 0"/></svg>