<?xml version="1.0" encoding="UTF-8"?>
<!DOCTYPE svg PUBLIC "-//W3C//DTD SVG 1.1//EN" "http://www.w3.org/Graphics/SVG/1.1/DTD/svg11.dtd">
<!-- Creator: CorelDRAW X8 -->
<svg xmlns="http://www.w3.org/2000/svg" xml:space="preserve" width="210mm" height="210mm" version="1.1" style="shape-rendering:geometricPrecision; text-rendering:geometricPrecision; image-rendering:optimizeQuality; fill-rule:evenodd; clip-rule:evenodd"
viewBox="0 0 21000 21000"
 xmlns:xlink="http://www.w3.org/1999/xlink">
 <defs>
  <style type="text/css">
   <![CDATA[
    .fil0 {fill:#5696C7}
    .fil5 {fill:#B3B3B3}
    .fil3 {fill:#ECF0F1}
    .fil1 {fill:#F5A209}
    .fil7 {fill:#F7FAFA}
    .fil6 {fill:#FBB429}
    .fil4 {fill:#FFCA4F}
    .fil2 {fill:white}
   ]]>
  </style>
 </defs>
 <g id="Слой_x0020_1">
  <metadata id="CorelCorpID_0Corel-Layer"/>
  <path class="fil0" d="M10500 0c5799,0 10500,4701 10500,10500 0,5799 -4701,10500 -10500,10500 -5799,0 -10500,-4701 -10500,-10500 0,-5799 4701,-10500 10500,-10500z"/>
  <g id="_981567312">
   <polygon class="fil1" points="18472,10031 2528,10031 10500,5325 "/>
   <polygon class="fil1" points="2528,10031 18472,10031 18472,19442 2528,19442 "/>
  </g>
  <polygon class="fil2" points="4166,3184 14192,3184 16834,5826 16834,19442 4166,19442 4166,3184 "/>
  <path class="fil3" d="M6076 6671l8847 0 0 199 -8847 0 0 -199zm0 2149l0 0 8847 0 0 200 -8847 0 0 -200zm0 370l0 0 8847 0 0 200 -8847 0 0 -200zm0 370l0 0 8847 0 0 200 -8847 0 0 -200zm0 370l0 0 8848 0 0 200 -8848 0 0 -200zm0 -2889l0 0 8847 0 0 200 -8847 0 0 -200zm0 370l0 0 8847 0 0 200 -8847 0 0 -200zm0 370l0 0 8848 0 0 200 -8848 0 0 -200zm0 370l0 0 6777 0 0 200 -6777 0 0 -200zm0 2150l0 0 6777 0 0 199 -6777 0 0 -199z"/>
  <polygon class="fil4" points="14192,3184 14192,5826 16834,5826 "/>
  <polygon class="fil5" points="8950,17482 11952,17482 11952,17775 8950,17775 "/>
  <g id="_981566768">
   <polygon class="fil6" points="2528,10031 10500,14736 2528,19442 "/>
   <polygon class="fil6" points="18472,10031 10500,14736 18472,19442 "/>
  </g>
  <polygon class="fil1" points="10500,14736 2528,19442 18472,19442 "/>
  <polygon class="fil7" points="16834,8468 16834,5826 14192,5826 "/>
  <path class="fil4" d="M4259 681c1385,0 2507,1123 2507,2507 0,1385 -1122,2507 -2507,2507 -1385,0 -2507,-1122 -2507,-2507 0,-1384 1123,-2507 2507,-2507z"/>
  <g id="_981566032">
   <path class="fil2" d="M4449 3849c-78,91 -165,164 -263,219 -96,54 -194,81 -291,81 -107,0 -211,-31 -313,-93 -101,-63 -183,-159 -246,-289 -64,-130 -95,-273 -95,-428 0,-192 49,-384 147,-576 98,-191 220,-335 365,-432 146,-96 287,-144 424,-144 105,0 205,27 300,82 95,54 177,138 245,250l64 -281 321 0 -260 1213c-36,169 -54,262 -54,279 0,33 12,61 37,85 25,23 55,35 89,35 64,0 148,-36 252,-110 137,-96 246,-225 326,-387 80,-161 120,-327 120,-499 0,-201 -51,-388 -154,-562 -103,-174 -257,-314 -462,-419 -203,-104 -430,-156 -677,-156 -282,0 -540,66 -773,197 -233,132 -415,321 -543,566 -129,246 -193,510 -193,791 0,295 64,548 193,761 128,213 314,370 557,472 242,101 511,152 806,152 316,0 580,-53 794,-160 213,-106 372,-235 478,-387l326 0c-62,126 -167,255 -316,387 -150,131 -327,235 -533,311 -206,77 -454,115 -743,115 -268,0 -514,-35 -740,-103 -226,-68 -418,-171 -577,-309 -159,-138 -279,-296 -359,-475 -101,-227 -152,-472 -152,-735 0,-293 61,-572 181,-838 147,-325 356,-575 626,-748 271,-173 599,-259 984,-259 299,0 568,61 806,183 237,122 425,303 562,545 117,207 176,434 176,678 0,348 -123,658 -368,928 -220,243 -459,364 -718,364 -84,0 -150,-13 -201,-38 -52,-25 -89,-62 -113,-109 -16,-30 -27,-83 -35,-157zm-876 -488l0 0c0,166 40,294 118,385 78,92 168,137 269,137 67,0 138,-20 213,-60 75,-41 147,-101 214,-180 69,-80 124,-181 167,-303 44,-122 66,-244 66,-367 0,-164 -41,-291 -122,-381 -82,-91 -181,-136 -297,-136 -77,0 -150,20 -219,59 -67,39 -133,102 -197,189 -64,86 -115,191 -154,316 -39,124 -58,238 -58,341l0 0z"/>
   <polygon class="fil2" points="19413,2425 20178,3114 20248,3177 20178,3241 19413,3930 19300,3804 19900,3262 17093,3262 17093,3092 19900,3092 19300,2551 19413,2425 "/>
   <polygon class="fil2" points="16638,2904 15873,3593 15803,3657 15873,3720 16638,4409 16751,4283 16151,3742 18958,3742 18958,3572 16151,3572 16751,3030 16638,2904 "/>
  </g>
  <g id="_981565840">
  </g>
  <g id="_981577552">
  </g>
  <g id="_981573712">
  </g>
  <g id="_981574288">
  </g>
  <g id="_981573840">
  </g>
  <g id="_981567600">
  </g>
  <g id="_981570704">
  </g>
  <g id="_981571280">
  </g>
  <g id="_981566384">
  </g>
  <g id="_981571376">
  </g>
  <g id="_981574704">
  </g>
  <g id="_981565424">
  </g>
  <g id="_981571536">
  </g>
  <g id="_981571152">
  </g>
  <g id="_981568272">
  </g>
 </g>
</svg>
