<?xml version="1.0" encoding="utf-8"?>
<!-- Generator: Adobe Illustrator 15.1.0, SVG Export Plug-In . SVG Version: 6.00 Build 0)  -->
<!DOCTYPE svg PUBLIC "-//W3C//DTD SVG 1.1//EN" "http://www.w3.org/Graphics/SVG/1.1/DTD/svg11.dtd">
<svg version="1.1" id="Layer_1" xmlns="http://www.w3.org/2000/svg" xmlns:xlink="http://www.w3.org/1999/xlink" x="0px" y="0px"
	 width="841.89px" height="595.281px" viewBox="0 0 841.89 595.281" enable-background="new 0 0 841.89 595.281"
	 xml:space="preserve">
<g>
	<rect x="132.798" y="395.048" fill="#D0B284" width="576.293" height="73.904"/>
	<rect x="132.798" y="126.329" fill="#D0B284" width="576.293" height="73.903"/>
</g>
<path fill="#FDCD80" d="M290.753,24.173L247.659,0.007l-43.095,24.166c-16.233,9.103-26.284,26.264-26.284,44.876v457.185
	c0,18.611,10.051,35.773,26.285,44.875l43.095,24.166l43.095-24.166c16.234-9.102,26.285-26.264,26.285-44.875V69.049
	C317.038,50.437,306.987,33.276,290.753,24.173z"/>
<path fill="#FDC060" d="M220.276,571.109l27.382,24.172l-43.102-24.172c-16.228-9.107-26.276-26.262-26.276-44.879V69.05
	c0-18.619,10.048-35.771,26.276-44.878L247.658,0l-27.382,24.172C209.96,33.279,203.57,50.434,203.57,69.05v457.18
	C203.571,544.847,209.961,562.001,220.276,571.109z"/>
<path fill="#FDC060" d="M247.659,64.93c2.427,19.392,4.042,38.786,5.475,58.178c1.396,19.392,2.444,38.786,3.3,58.178
	c1.643,38.786,2.407,77.57,2.419,116.355c0.019,38.786-0.749,77.569-2.389,116.354c-0.853,19.393-1.9,38.787-3.302,58.18
	c-1.439,19.391-3.059,38.785-5.502,58.178c-2.444-19.393-4.063-38.787-5.503-58.178c-1.401-19.393-2.45-38.787-3.302-58.18
	c-1.642-38.785-2.408-77.568-2.389-116.354c0.013-38.786,0.778-77.57,2.419-116.355c0.854-19.392,1.905-38.786,3.3-58.178
	C243.618,103.716,245.231,84.324,247.659,64.93z"/>
<path fill="#FDCD80" d="M463.228,24.173L420.133,0.007l-43.095,24.166c-16.234,9.103-26.285,26.264-26.285,44.876v457.185
	c0,18.611,10.051,35.773,26.285,44.875l43.095,24.166l43.095-24.166c16.234-9.102,26.285-26.264,26.285-44.875V69.049
	C489.513,50.437,479.46,33.276,463.228,24.173z"/>
<path fill="#FDC060" d="M420.133,64.93c2.427,19.392,4.042,38.786,5.476,58.178c1.395,19.392,2.443,38.786,3.299,58.178
	c1.643,38.786,2.406,77.57,2.42,116.355c0.018,38.786-0.75,77.569-2.389,116.354c-0.854,19.393-1.902,38.787-3.303,58.18
	c-1.439,19.391-3.059,38.785-5.503,58.178c-2.444-19.393-4.063-38.787-5.503-58.178c-1.401-19.393-2.45-38.787-3.302-58.18
	c-1.642-38.785-2.408-77.568-2.389-116.354c0.013-38.786,0.778-77.57,2.419-116.355c0.854-19.392,1.904-38.786,3.299-58.178
	C416.091,103.716,417.705,84.324,420.133,64.93z"/>
<path fill="#FDC060" d="M392.75,571.109l27.382,24.172l-43.102-24.172c-16.229-9.107-26.276-26.262-26.276-44.879V69.05
	c0-18.619,10.048-35.771,26.276-44.878L420.132,0L392.75,24.172c-10.316,9.107-16.707,26.262-16.707,44.878v457.18
	C376.043,544.847,382.436,562.001,392.75,571.109z"/>
<path fill="#FDCD80" d="M635.701,24.173L592.607,0.007l-43.096,24.166c-16.234,9.103-26.285,26.264-26.285,44.876v457.185
	c0,18.611,10.051,35.773,26.285,44.875l43.096,24.166l43.094-24.166c16.234-9.102,26.285-26.264,26.285-44.875V69.049
	C661.986,50.437,651.933,33.276,635.701,24.173z"/>
<path fill="#FDC060" d="M592.607,64.93c2.428,19.392,4.043,38.786,5.475,58.178c1.395,19.392,2.443,38.786,3.299,58.178
	c1.643,38.786,2.408,77.57,2.422,116.355c0.018,38.786-0.75,77.569-2.391,116.354c-0.852,19.393-1.9,38.787-3.301,58.18
	c-1.439,19.391-3.059,38.785-5.504,58.178c-2.443-19.393-4.063-38.787-5.502-58.178c-1.4-19.393-2.449-38.787-3.303-58.18
	c-1.641-38.785-2.408-77.568-2.389-116.354c0.014-38.786,0.777-77.57,2.42-116.355c0.854-19.392,1.904-38.786,3.299-58.178
	C588.564,103.716,590.179,84.324,592.607,64.93z"/>
<path fill="#FDC060" d="M565.224,571.109l27.383,24.172l-43.102-24.172c-16.229-9.107-26.277-26.262-26.277-44.879V69.05
	c0-18.619,10.049-35.771,26.277-44.878L592.607,0l-27.383,24.172c-10.316,9.107-16.705,26.262-16.705,44.878v457.18
	C548.517,544.847,554.908,562.001,565.224,571.109z"/>
</svg>
