<svg id="Layer_3" enable-background="new 0 0 64 64" height="512" viewBox="0 0 64 64" width="512" xmlns="http://www.w3.org/2000/svg"><circle cx="49" cy="38" fill="#e6e9ed" r="13"/><path d="m59 45.12v1.18c-2.38 2.87-5.98 4.7-10 4.7s-7.62-1.83-10-4.7v-1.18c0-1.83 1.25-3.43 3.03-3.88l4.97-1.24v-1.55c-1.19-.7-2-1.97-2-3.45v-1.79c0-2.11 1.54-4.01 3.64-4.19 2.37-.21 4.36 1.65 4.36 3.98v2c0 1.48-.81 2.75-2 3.45v1.55l4.97 1.24c1.78.45 3.03 2.05 3.03 3.88z" fill="#ff826e"/><path d="m34 12v18c0 2.21-1.79 4-4 4h-24c-2.21 0-4-1.79-4-4v-24c0-2.21 1.79-4 4-4h24c2.21 0 4 1.79 4 4zm-4 9v-6l-2.71-.68c-.04-.1-.07-.2-.12-.3l1.44-2.38-4.25-4.25-2.38 1.44c-.1-.05-.2-.08-.3-.12l-.68-2.71h-6l-.68 2.71c-.1.04-.2.07-.3.12l-2.38-1.44-4.25 4.25 1.44 2.38c-.05.1-.08.2-.12.3l-2.71.68v6l2.71.68c.04.1.07.2.12.3l-1.44 2.38 4.25 4.25 2.38-1.44c.1.05.2.08.3.12l.68 2.71h6l.68-2.71c.1-.04.2-.07.3-.12l2.38 1.44 4.25-4.25-1.44-2.38c.05-.1.08-.2.12-.3z" fill="#e6e9ed"/><path d="m30 56v6h-28v-20h28z" fill="#e6e9ed"/><g fill="#b4dd7f"><path d="m22 48v10h-4v-8-2z"/><path d="m14 52v6h-4v-4-2z"/><path d="m6 54h4v4h-4z"/><path d="m26 46v12h-4v-10-2z"/><path d="m18 50v8h-4v-6-2z"/></g><path d="m30 15v6l-2.71.68c-.04.1-.07.2-.12.3l1.44 2.38-4.25 4.25-2.38-1.44c-.1.05-.2.08-.3.12l-.68 2.71h-6l-.68-2.71c-.1-.04-.2-.07-.3-.12l-2.38 1.44-4.25-4.25 1.44-2.38c-.05-.1-.08-.2-.12-.3l-2.71-.68v-6l2.71-.68c.04-.1.07-.2.12-.3l-1.44-2.38 4.25-4.25 2.38 1.44c.1-.05.2-.08.3-.12l.68-2.71h6l.68 2.71c.1.04.2.07.3.12l2.38-1.44 4.25 4.25-1.44 2.38c.05.1.08.2.12.3zm-6 3c0-3.31-2.69-6-6-6s-6 2.69-6 6 2.69 6 6 6 6-2.69 6-6z" fill="#ffc729"/><path d="m63 38c0-7.382-5.747-13.433-13-13.949v-8.051c0-2.757-2.243-5-5-5h-10v-5c0-2.757-2.243-5-5-5h-24c-2.757 0-5 2.243-5 5v24c0 2.757 2.243 5 5 5h24c2.757 0 5-2.243 5-5v-17h10c1.654 0 3 1.346 3 3v8.051c-7.253.516-13 6.567-13 13.949s5.747 13.433 13 13.949v.051c0 1.654-1.346 3-3 3h-14v-14h-30v22h30v-6h14c2.757 0 5-2.243 5-5v-.051c7.253-.516 13-6.567 13-13.949zm-30-8c0 1.654-1.346 3-3 3h-24c-1.654 0-3-1.346-3-3v-24c0-1.654 1.346-3 3-3h24c1.654 0 3 1.346 3 3zm-4 31h-26v-18h26zm20-35c6.617 0 12 5.383 12 12 0 1.949-.477 3.785-1.305 5.414-.555-1.527-1.833-2.729-3.483-3.141l-4.212-1.054v-.24c1.246-.939 2-2.416 2-3.979v-2c0-1.397-.591-2.741-1.622-3.686-1.029-.944-2.419-1.419-3.823-1.294-2.554.221-4.555 2.5-4.555 5.188v1.792c0 1.563.754 3.041 2 3.979v.24l-4.212 1.053c-1.65.412-2.928 1.614-3.483 3.141-.828-1.628-1.305-3.464-1.305-5.413 0-6.617 5.383-12 12-12zm0 24c-3.585 0-6.799-1.589-9-4.089v-.788c0-1.379.935-2.576 2.272-2.91l5.728-1.432v-2.911l-.497-.289c-.941-.548-1.503-1.513-1.503-2.581v-1.792c0-1.659 1.198-3.062 2.729-3.196.851-.076 1.672.202 2.298.776.619.567.973 1.374.973 2.212v2c0 1.068-.562 2.033-1.503 2.581l-.497.289v2.911l5.728 1.432c1.337.334 2.272 1.531 2.272 2.91v.788c-2.201 2.5-5.415 4.089-9 4.089z"/><path d="m18 11c-3.859 0-7 3.14-7 7s3.141 7 7 7 7-3.14 7-7-3.141-7-7-7zm0 12c-2.757 0-5-2.243-5-5s2.243-5 5-5 5 2.243 5 5-2.243 5-5 5z"/><path d="m29.865 11.481-5.345-5.347-2.136 1.281-.603-2.415h-7.562l-.603 2.416-2.136-1.282-5.346 5.347 1.281 2.134-2.415.604v7.562l2.415.603-1.28 2.135 5.346 5.347 2.136-1.281.602 2.415h7.562l.603-2.416 2.136 1.281 5.346-5.347-1.28-2.135 2.414-.602v-7.562l-2.416-.603zm-.865 4.3v4.438l-1.949.487-.534.202-.465 1.142 1.296 2.16-3.139 3.138-2.159-1.296-1.22.503-.611 2.445h-4.438l-.611-2.446-1.22-.503-2.159 1.296-3.139-3.138 1.296-2.16-.496-1.218-2.452-.612v-4.438l1.949-.487.535-.203.464-1.142-1.296-2.158 3.139-3.138 2.159 1.296 1.22-.503.611-2.446h4.438l.611 2.446 1.22.503 2.159-1.296 3.139 3.138-1.296 2.158.496 1.22z"/><path d="m27 45h-6v2h-4v2h-4v2h-4v2h-4v6h22zm-10 6v6h-2v-6zm-4 2v4h-2v-4zm-6 2h2v2h-2zm12 2v-8h2v8zm6 0h-2v-10h2z"/></svg>