<svg id="Layer_3" enable-background="new 0 0 64 64" height="512" viewBox="0 0 64 64" width="512" xmlns="http://www.w3.org/2000/svg"><g><g><path d="m22 26h20v36h-20z" fill="#f5b953"/></g><g><path d="m22 62h-20v-26l20-4" fill="#78b75b"/></g><g><path d="m42 62h20v-26l-20-4" fill="#78b75b"/></g><g><path d="m42 63h-20c-.552 0-1-.448-1-1v-36c0-.552.448-1 1-1h20c.552 0 1 .448 1 1v36c0 .552-.448 1-1 1zm-19-2h18v-34h-18z"/></g><g><path d="m22 63h-20c-.552 0-1-.448-1-1v-26c0-.477.336-.887.804-.98l20-4 .393 1.961-19.197 3.839v24.18h19z"/></g><g><path d="m62 63h-20v-2h19v-24.18l-19.196-3.84.393-1.961 20 4c.467.094.803.504.803.981v26c0 .552-.448 1-1 1z"/></g><g><path d="m6 54h4v4h-4z" fill="#fff"/></g><g><path d="m14 54h4v4h-4z" fill="#fff"/></g><g><path d="m6 46h4v4h-4z" fill="#fff"/></g><g><path d="m14 46h4v4h-4z" fill="#fff"/></g><g><path d="m6 38h4v4h-4z" fill="#fff"/></g><g><path d="m14 38h4v4h-4z" fill="#fff"/></g><g><path d="m54 54h4v4h-4z" fill="#fff" transform="matrix(-1 0 0 -1 112 112)"/></g><g><path d="m46 54h4v4h-4z" fill="#fff" transform="matrix(-1 0 0 -1 96 112)"/></g><g><path d="m54 46h4v4h-4z" fill="#fff" transform="matrix(-1 0 0 -1 112 96)"/></g><g><path d="m46 46h4v4h-4z" fill="#fff" transform="matrix(-1 0 0 -1 96 96)"/></g><g><path d="m54 38h4v4h-4z" fill="#fff" transform="matrix(-1 0 0 -1 112 80)"/></g><g><path d="m46 38h4v4h-4z" fill="#fff" transform="matrix(-1 0 0 -1 96 80)"/></g><g><path d="m26 54h4v4h-4z" fill="#fff"/></g><g><path d="m34 54h4v4h-4z" fill="#fff"/></g><g><path d="m26 46h4v4h-4z" fill="#fff"/></g><g><path d="m34 46h4v4h-4z" fill="#fff"/></g><g><path d="m26 38h4v4h-4z" fill="#fff"/></g><g><path d="m34 38h4v4h-4z" fill="#fff"/></g><g><path d="m26 30h4v4h-4z" fill="#fff"/></g><g><path d="m34 30h4v4h-4z" fill="#fff"/></g><g><path d="m35 22v-20h-6v20" fill="#4472b2"/></g><g><path d="m25 22v-10h-6v10" fill="#c66b60"/></g><g><path d="m45 22v-14h-6v14" fill="#f5b953"/></g><g><path d="m10 59h-4c-.552 0-1-.448-1-1v-4c0-.552.448-1 1-1h4c.552 0 1 .448 1 1v4c0 .552-.448 1-1 1zm-3-2h2v-2h-2z"/></g><g><path d="m18 59h-4c-.552 0-1-.448-1-1v-4c0-.552.448-1 1-1h4c.552 0 1 .448 1 1v4c0 .552-.448 1-1 1zm-3-2h2v-2h-2z"/></g><g><path d="m10 51h-4c-.552 0-1-.448-1-1v-4c0-.552.448-1 1-1h4c.552 0 1 .448 1 1v4c0 .552-.448 1-1 1zm-3-2h2v-2h-2z"/></g><g><path d="m18 51h-4c-.552 0-1-.448-1-1v-4c0-.552.448-1 1-1h4c.552 0 1 .448 1 1v4c0 .552-.448 1-1 1zm-3-2h2v-2h-2z"/></g><g><path d="m10 43h-4c-.552 0-1-.448-1-1v-4c0-.552.448-1 1-1h4c.552 0 1 .448 1 1v4c0 .552-.448 1-1 1zm-3-2h2v-2h-2z"/></g><g><path d="m18 43h-4c-.552 0-1-.448-1-1v-4c0-.552.448-1 1-1h4c.552 0 1 .448 1 1v4c0 .552-.448 1-1 1zm-3-2h2v-2h-2z"/></g><g><path d="m58 59h-4c-.552 0-1-.448-1-1v-4c0-.552.448-1 1-1h4c.552 0 1 .448 1 1v4c0 .552-.448 1-1 1zm-3-2h2v-2h-2z"/></g><g><path d="m50 59h-4c-.552 0-1-.448-1-1v-4c0-.552.448-1 1-1h4c.552 0 1 .448 1 1v4c0 .552-.448 1-1 1zm-3-2h2v-2h-2z"/></g><g><path d="m58 51h-4c-.552 0-1-.448-1-1v-4c0-.552.448-1 1-1h4c.552 0 1 .448 1 1v4c0 .552-.448 1-1 1zm-3-2h2v-2h-2z"/></g><g><path d="m50 51h-4c-.552 0-1-.448-1-1v-4c0-.552.448-1 1-1h4c.552 0 1 .448 1 1v4c0 .552-.448 1-1 1zm-3-2h2v-2h-2z"/></g><g><path d="m58 43h-4c-.552 0-1-.448-1-1v-4c0-.552.448-1 1-1h4c.552 0 1 .448 1 1v4c0 .552-.448 1-1 1zm-3-2h2v-2h-2z"/></g><g><path d="m50 43h-4c-.552 0-1-.448-1-1v-4c0-.552.448-1 1-1h4c.552 0 1 .448 1 1v4c0 .552-.448 1-1 1zm-3-2h2v-2h-2z"/></g><g><path d="m30 59h-4c-.552 0-1-.448-1-1v-4c0-.552.448-1 1-1h4c.552 0 1 .448 1 1v4c0 .552-.448 1-1 1zm-3-2h2v-2h-2z"/></g><g><path d="m38 59h-4c-.552 0-1-.448-1-1v-4c0-.552.448-1 1-1h4c.552 0 1 .448 1 1v4c0 .552-.448 1-1 1zm-3-2h2v-2h-2z"/></g><g><path d="m30 51h-4c-.552 0-1-.448-1-1v-4c0-.552.448-1 1-1h4c.552 0 1 .448 1 1v4c0 .552-.448 1-1 1zm-3-2h2v-2h-2z"/></g><g><path d="m38 51h-4c-.552 0-1-.448-1-1v-4c0-.552.448-1 1-1h4c.552 0 1 .448 1 1v4c0 .552-.448 1-1 1zm-3-2h2v-2h-2z"/></g><g><path d="m30 43h-4c-.552 0-1-.448-1-1v-4c0-.552.448-1 1-1h4c.552 0 1 .448 1 1v4c0 .552-.448 1-1 1zm-3-2h2v-2h-2z"/></g><g><path d="m38 43h-4c-.552 0-1-.448-1-1v-4c0-.552.448-1 1-1h4c.552 0 1 .448 1 1v4c0 .552-.448 1-1 1zm-3-2h2v-2h-2z"/></g><g><path d="m30 35h-4c-.552 0-1-.448-1-1v-4c0-.552.448-1 1-1h4c.552 0 1 .448 1 1v4c0 .552-.448 1-1 1zm-3-2h2v-2h-2z"/></g><g><path d="m38 35h-4c-.552 0-1-.448-1-1v-4c0-.552.448-1 1-1h4c.552 0 1 .448 1 1v4c0 .552-.448 1-1 1zm-3-2h2v-2h-2z"/></g><g><path d="m12 21h40v2h-40z"/></g><g><path d="m36 22h-2v-19h-4v19h-2v-20c0-.552.448-1 1-1h6c.552 0 1 .448 1 1z"/></g><g><path d="m26 22h-2v-9h-4v9h-2v-10c0-.552.448-1 1-1h6c.552 0 1 .448 1 1z"/></g><g><path d="m46 22h-2v-13h-4v13h-2v-14c0-.552.448-1 1-1h6c.552 0 1 .448 1 1z"/></g></g></svg>