<?xml version="1.0" encoding="UTF-8" standalone="no"?>
<!-- Generator: Adobe Illustrator 15.1.0, SVG Export Plug-In  -->

<svg
   version="1.1"
   x="0px"
   y="0px"
   width="30px"
   height="30px"
   viewBox="0 -0.042 30 30"
   enable-background="new 0 -0.042 30 30"
   xml:space="preserve"
   id="svg8"
   sodipodi:docname="soc-youtube-white.svg"
   inkscape:version="1.1.1 (3bf5ae0d25, 2021-09-20)"
   xmlns:inkscape="http://www.inkscape.org/namespaces/inkscape"
   xmlns:sodipodi="http://sodipodi.sourceforge.net/DTD/sodipodi-0.dtd"
   xmlns="http://www.w3.org/2000/svg"
   xmlns:svg="http://www.w3.org/2000/svg"><sodipodi:namedview
   id="namedview10"
   pagecolor="#ffffff"
   bordercolor="#666666"
   borderopacity="1.0"
   inkscape:pageshadow="2"
   inkscape:pageopacity="0.0"
   inkscape:pagecheckerboard="0"
   showgrid="false"
   inkscape:zoom="27.466667"
   inkscape:cx="14.981796"
   inkscape:cy="15.018204"
   inkscape:window-width="1920"
   inkscape:window-height="1009"
   inkscape:window-x="-8"
   inkscape:window-y="-8"
   inkscape:window-maximized="1"
   inkscape:current-layer="svg8" />
<defs
   id="defs2">
</defs>
<path
   fill="#D22215"
   d="M17.616,14.912l-4.695-2.38c-0.125-0.064-0.273,0.028-0.273,0.167v4.619c0,0.138,0.144,0.23,0.269,0.172  l4.695-2.24C17.754,15.183,17.756,14.981,17.616,14.912z"
   id="path4"
   style="fill:#ffffff;fill-opacity:1" />
<path
   fill="#D22215"
   d="M15.004,0C6.718,0,0,6.718,0,15.004S6.718,30.01,15.004,30.01s15.007-6.72,15.007-15.006S23.29,0,15.004,0z   M23.593,17.515c0,1.969-1.599,3.567-3.567,3.567H9.986c-1.971,0-3.567-1.599-3.567-3.567v-5.019c0-1.97,1.597-3.568,3.567-3.568  h10.04c1.969,0,3.567,1.598,3.567,3.568V17.515z"
   id="path6"
   style="fill:#ffffff;fill-opacity:1" />
</svg>
