<svg width="24" height="24" viewBox="0 0 24 24" fill="none" xmlns="http://www.w3.org/2000/svg">
<path d="M17.8438 6.31731C18.0034 6.49038 18.0469 6.73558 17.9453 6.95192L10.1081 23.6394C9.99197 23.8558 9.75976 24 9.49851 24C9.44046 24 9.36789 23.9856 9.29533 23.9712C8.97603 23.8702 8.78735 23.5673 8.85992 23.2644L11.7191 11.6106L5.82661 13.0673C5.76856 13.0817 5.7105 13.0817 5.65245 13.0817C5.4928 13.0817 5.31864 13.024 5.20253 12.9231C5.02837 12.7788 4.97032 12.5625 5.01386 12.3606L7.93106 0.461538C8.00363 0.1875 8.26487 0 8.56965 0H13.3301C13.6929 0 13.9832 0.274039 13.9832 0.605769C13.9832 0.692308 13.9541 0.778847 13.9106 0.865384L11.4288 7.54327L17.1761 6.12981C17.2342 6.11538 17.2922 6.10096 17.3503 6.10096C17.539 6.10096 17.7131 6.1875 17.8438 6.31731Z" fill="#005D9F"/>
</svg>
