<svg width="24" height="24" viewBox="0 0 24 24" fill="none" xmlns="http://www.w3.org/2000/svg">
<g clip-path="url(#clip0_1105_180)">
<path fill-rule="evenodd" clip-rule="evenodd" d="M15 7C12.0567 5.00455 9.32112 4.34716 6 5.61788C2.26997 7.04505 0.4486 9.7193 0.0922047 13.9654C-0.171144 17.103 0.125193 18.9589 1.03832 21.9722C1.44591 23.3172 2.96355 24.5162 4.99015 25.3872L3.47711 18.718L2.52618 14.1922L2.51306 14.0752C2.43727 13.3994 2.94789 12.763 3.68686 12.6802C4.37109 12.6034 4.97968 13.0879 5.13466 13.7286L5.95151 17.0587L5.29857 11.236C5.2184 10.5212 5.78376 9.87875 6.54079 9.83334C7.25676 9.79253 7.8575 10.3305 7.93329 11.0064L8.59118 16.7495L8.70764 9.87988C8.71105 9.16884 9.32475 8.58676 10.0891 8.60633C10.7576 8.63665 11.2596 9.15941 11.3296 9.78326L11.3441 9.91323L11.2241 16.2568L11.9989 11.5507C12.1039 10.8809 12.678 10.3164 13.3876 10.3421C14.0561 10.3724 14.5675 10.8546 14.6345 11.4525C14.6436 11.5333 14.6407 11.605 14.6375 11.6847C14.6371 11.6949 14.6367 11.7051 14.6363 11.7155L13.9755 17.6855L13.7855 20.5626C13.7869 20.5756 13.785 20.589 13.783 20.6023C13.781 20.6157 13.7791 20.6291 13.7805 20.6421C13.8242 21.032 14.4072 21.164 14.6141 20.7855L16.0536 18.1763C16.4108 17.5308 17.2432 17.2927 17.8934 17.6541C18.2618 17.8497 18.4819 18.2066 18.5242 18.5835C18.5548 18.8565 18.5019 19.1256 18.3639 19.378L16.6621 22.4904C16.3524 23.0647 15.9547 23.5963 15.495 24.0689L13.3815 26.2274C13.021 26.5968 12.5034 26.7996 11.9732 26.767L9.56378 26.6406C14.2027 27.3066 19.2274 26.3442 20.5 22.5C21.5546 19.3143 20.8275 16.9252 19.5 13.9654C19.2619 13.4345 19.0506 12.9282 18.8486 12.4442C17.9266 10.2346 17.1989 8.49078 15 7Z" fill="#005D9F"/>
<path d="M19.0889 0.614578L20.0657 4.52177L23.9729 5.49857L20.0657 6.47537L19.0889 10.3826L18.1121 6.47537L14.2049 5.49857L18.1121 4.52177L19.0889 0.614578Z" fill="#005D9F"/>
</g>
<defs>
<clipPath id="clip0_1105_180">
<rect width="24" height="24" fill="white"/>
</clipPath>
</defs>
</svg>
