<svg width="24" height="24" viewBox="0 0 24 24" fill="none" xmlns="http://www.w3.org/2000/svg">
<path d="M22.2835 14.9598L19.9438 15.4018L22.5497 16.8348C22.97 17.0625 23.1241 17.5982 22.8719 18C22.6197 18.4018 22.0733 18.5491 21.653 18.308L19.0471 16.8884L19.8177 19.0312C20.21 20.1027 18.5007 20.6518 18.1225 19.5937L16.6934 15.5759L12.8967 13.4866V17.6786L15.8108 20.8661C16.5954 21.7098 15.2364 22.8482 14.4658 21.9911L12.8967 20.2768V23.1429C12.8967 23.6116 12.4904 24 12 24C11.5096 24 11.1033 23.6116 11.1033 23.1429V20.2768L9.5342 21.9911C8.76364 22.8482 7.40465 21.7098 8.18922 20.8661L11.1033 17.6786V13.4866L7.30658 15.5759L5.87753 19.5937C5.49926 20.6518 3.79001 20.1027 4.1823 19.0312L4.95286 16.8884L2.34696 18.308C1.92665 18.5491 1.38025 18.4018 1.12807 18C0.875887 17.5982 1.03 17.0625 1.45031 16.8348L4.05621 15.4018L1.7165 14.9598C0.553652 14.7321 0.903907 13.058 2.06676 13.2723L6.40992 14.1027L10.2067 12L6.40992 9.89732L2.06676 10.7277C2.01071 10.7411 1.94066 10.7411 1.88462 10.7411C0.819846 10.7411 0.665734 9.24107 1.7165 9.04018L4.05621 8.59821L1.45031 7.16518C1.03 6.9375 0.875887 6.40179 1.12807 6C1.38025 5.58482 1.92665 5.45089 2.34696 5.69196L4.95286 7.11161L4.1823 4.96875C3.79001 3.89732 5.49926 3.34821 5.87753 4.40625L7.30658 8.42411L11.1033 10.5134V6.32143L8.18922 3.13393C7.40465 2.29018 8.76364 1.15179 9.5342 2.00893L11.1033 3.72321V0.857144C11.1033 0.388394 11.5096 0 12 0C12.4904 0 12.8967 0.388394 12.8967 0.857144V3.72321L14.4658 2.00893C15.2364 1.15179 16.5954 2.29018 15.8108 3.13393L12.8967 6.32143V10.5134L16.6934 8.42411L18.1225 4.40625C18.5007 3.34821 20.21 3.89732 19.8177 4.96875L19.0471 7.11161L21.653 5.69196C22.0733 5.45089 22.6197 5.59821 22.8719 6C23.1241 6.40179 22.97 6.9375 22.5497 7.16518L19.9438 8.59821L22.2835 9.04018C23.3343 9.24107 23.1802 10.7411 22.1154 10.7411C22.0593 10.7411 21.9893 10.7411 21.9332 10.7277L17.5901 9.89732L13.7933 12L17.5901 14.1027L21.9332 13.2723C23.0961 13.058 23.4463 14.7321 22.2835 14.9598Z" fill="#005D9F"/>
</svg>
