<svg width="24" height="24" viewBox="0 0 24 24" fill="none" xmlns="http://www.w3.org/2000/svg">
<path d="M15.2812 7C15.2812 7.26562 15.0615 7.5 14.8125 7.5C14.5635 7.5 14.3438 7.26562 14.3438 7C14.3438 5.92188 12.7764 5.5 12 5.5C11.751 5.5 11.5312 5.26563 11.5312 5C11.5312 4.73438 11.751 4.5 12 4.5C13.3623 4.5 15.2812 5.26563 15.2812 7ZM17.625 7C17.625 3.875 14.6514 2 12 2C9.34863 2 6.375 3.875 6.375 7C6.375 8 6.75586 9.04688 7.37109 9.8125C7.64941 10.1562 7.97168 10.4844 8.26465 10.8438C9.30469 12.1719 10.1836 13.7344 10.3301 15.5H13.6699C13.8164 13.7344 14.6953 12.1719 15.7354 10.8438C16.0283 10.4844 16.3506 10.1562 16.6289 9.8125C17.2441 9.04688 17.625 8 17.625 7ZM19.5 7C19.5 8.60938 19.002 10 17.9912 11.1875C16.9805 12.375 15.6475 14.0469 15.5303 15.7187C15.9551 15.9844 16.2187 16.4844 16.2187 17C16.2187 17.375 16.0869 17.7344 15.8525 18C16.0869 18.2656 16.2187 18.625 16.2187 19C16.2187 19.5156 15.9697 19.9844 15.5596 20.2656C15.6768 20.4844 15.75 20.75 15.75 21C15.75 22.0156 15.0029 22.5 14.1533 22.5C13.7725 23.4062 12.9229 24 12 24C11.0771 24 10.2275 23.4062 9.84668 22.5C8.99707 22.5 8.25 22.0156 8.25 21C8.25 20.75 8.32324 20.4844 8.44043 20.2656C8.03027 19.9844 7.78125 19.5156 7.78125 19C7.78125 18.625 7.91309 18.2656 8.14746 18C7.91309 17.7344 7.78125 17.375 7.78125 17C7.78125 16.4844 8.04492 15.9844 8.46973 15.7187C8.35254 14.0469 7.01953 12.375 6.00879 11.1875C4.99805 10 4.5 8.60938 4.5 7C4.5 2.75 8.29395 0 12 0C15.7061 0 19.5 2.75 19.5 7Z" fill="#005D9F"/>
</svg>
