<svg width="24" height="24" viewBox="0 0 24 24" fill="none" xmlns="http://www.w3.org/2000/svg">
<path d="M23 12.9231C23 19.024 18.0586 24 12 24C5.94141 24 1 19.024 1 12.9231C1 9.41827 2.60417 6.1875 5.39714 4.08173C6.21354 3.46154 7.35938 3.62019 7.96094 4.44231C8.57682 5.25 8.40495 6.41827 7.60287 7.02404C5.74089 8.4375 4.66667 10.5865 4.66667 12.9231C4.66667 16.9904 7.96094 20.3077 12 20.3077C16.0391 20.3077 19.3333 16.9904 19.3333 12.9231C19.3333 10.5865 18.2591 8.4375 16.3971 7.02404C15.5951 6.41827 15.4232 5.25 16.0391 4.44231C16.6406 3.62019 17.8008 3.46154 18.6029 4.08173C21.3958 6.1875 23 9.41827 23 12.9231ZM13.8333 1.84615V11.0769C13.8333 12.0865 13.0026 12.9231 12 12.9231C10.9974 12.9231 10.1667 12.0865 10.1667 11.0769V1.84615C10.1667 0.836539 10.9974 0 12 0C13.0026 0 13.8333 0.836539 13.8333 1.84615Z" fill="#005D9F"/>
</svg>
