<svg width="24" height="24" viewBox="0 0 24 24" fill="none" xmlns="http://www.w3.org/2000/svg">
<g clip-path="url(#clip0_1093_430)">
<path d="M11 1C11 0.447715 11.4477 0 12 0C12.5523 0 13 0.447715 13 1V4C13 4.55228 12.5523 5 12 5C11.4477 5 11 4.55228 11 4V1Z" fill="#005D9F"/>
<path d="M12 19C11.4477 19 11 19.4477 11 20V23C11 23.5523 11.4477 24 12 24C12.5523 24 13 23.5523 13 23V20C13 19.4477 12.5523 19 12 19Z" fill="#005D9F"/>
<path d="M19.0712 3.51472C19.4617 3.1242 20.0949 3.1242 20.4854 3.51472C20.876 3.90525 20.876 4.53841 20.4854 4.92894L18.3641 7.05026C17.9736 7.44078 17.3404 7.44078 16.9499 7.05026C16.5594 6.65973 16.5594 6.02657 16.9499 5.63604L19.0712 3.51472Z" fill="#005D9F"/>
<path d="M7.05012 16.9493C6.6596 16.5588 6.02643 16.5588 5.63591 16.9493L3.51459 19.0706C3.12407 19.4611 3.12407 20.0943 3.51459 20.4848C3.90511 20.8754 4.53828 20.8754 4.9288 20.4848L7.05012 18.3635C7.44065 17.973 7.44065 17.3398 7.05012 16.9493Z" fill="#005D9F"/>
<path d="M23 11C23.5523 11 24 11.4477 24 12C24 12.5523 23.5523 13 23 13H20C19.4477 13 19 12.5523 19 12C19 11.4477 19.4477 11 20 11H23Z" fill="#005D9F"/>
<path d="M5 12C5 11.4477 4.55228 11 4 11H1C0.447715 11 0 11.4477 0 12C0 12.5523 0.447715 13 1 13H4C4.55228 13 5 12.5523 5 12Z" fill="#005D9F"/>
<path d="M20.4853 19.0712C20.8758 19.4617 20.8758 20.0949 20.4853 20.4854C20.0948 20.876 19.4616 20.876 19.0711 20.4854L16.9497 18.3641C16.5592 17.9736 16.5592 17.3404 16.9497 16.9499C17.3403 16.5594 17.9734 16.5594 18.364 16.9499L20.4853 19.0712Z" fill="#005D9F"/>
<path d="M7.05022 7.04988C7.44074 6.65936 7.44074 6.02619 7.05022 5.63567L4.9289 3.51435C4.53837 3.12382 3.90521 3.12382 3.51468 3.51435C3.12416 3.90487 3.12416 4.53804 3.51468 4.92856L5.636 7.04988C6.02653 7.4404 6.65969 7.4404 7.05022 7.04988Z" fill="#005D9F"/>
<circle cx="12" cy="12" r="4" stroke="#005D9F" stroke-width="2"/>
</g>
<defs>
<clipPath id="clip0_1093_430">
<rect width="24" height="24" fill="white"/>
</clipPath>
</defs>
</svg>
