<svg width="30" height="37" viewBox="0 0 30 37" fill="none" xmlns="http://www.w3.org/2000/svg">
    <path d="M20.108.002H5.721C3.62.002 1.91 1.722 1.91 3.833v14.169h-.373A1.54 1.54 0 000 19.546v9.363a1.54 1.54 0 001.536 1.544h.373v1.717c0 2.114 1.71 3.832 3.812 3.832h19.631c2.1 0 3.811-1.719 3.811-3.832V9.07L20.108.002zM3.424 20.915c.45-.077 1.084-.134 1.976-.134.902 0 1.545.173 1.977.52.412.327.69.867.69 1.503 0 .635-.21 1.176-.594 1.54-.499.473-1.238.685-2.101.685-.193 0-.365-.01-.5-.028v2.32H3.423v-6.406zm21.93 12.74H5.72a1.483 1.483 0 01-1.476-1.485v-1.717h18.3a1.54 1.54 0 001.536-1.544v-9.363a1.54 1.54 0 00-1.536-1.544h-18.3V3.833c0-.816.662-1.482 1.476-1.482l13.514-.015v5.02a2.651 2.651 0 002.644 2.658l4.893-.015.055 22.171c0 .819-.661 1.485-1.475 1.485zM9.38 27.21v-6.378a13.106 13.106 0 011.975-.134c1.227 0 2.023.22 2.646.693.671.501 1.093 1.302 1.093 2.447 0 1.243-.45 2.101-1.074 2.63-.68.569-1.716.838-2.981.838a12.44 12.44 0 01-1.658-.096zm10.64-3.694v1.195h-2.322v2.61H16.23V20.83h3.953v1.204h-2.485v1.483h2.322z" fill="#165280"/>
    <path d="M6.618 22.84c0-.599-.413-.956-1.142-.956-.298 0-.5.03-.605.058v1.918c.125.029.278.038.49.038.777 0 1.257-.394 1.257-1.059zm4.892-1.018a3.04 3.04 0 00-.662.057v4.249c.125.029.326.029.508.029 1.323.01 2.186-.723 2.186-2.273.01-1.35-.777-2.062-2.032-2.062z" fill="#165280"/>
</svg>
