<svg width="30" height="37" viewBox="0 0 30 37" fill="none" xmlns="http://www.w3.org/2000/svg">
    <path d="M20.209.002H5.749a3.837 3.837 0 00-3.83 3.831v14.169h-.375c-.853 0-1.544.69-1.544 1.544v9.363c0 .854.691 1.544 1.544 1.544h.374v1.717a3.836 3.836 0 003.832 3.832h19.729a3.835 3.835 0 003.83-3.832V9.07l-9.1-9.068zM3.93 21.15h1.686l.569 1.184c.192.395.337.714.491 1.08h.02c.153-.415.279-.704.443-1.08l.549-1.184h1.676l-1.83 3.169 1.927 3.324H7.765l-.588-1.176c-.24-.453-.395-.79-.578-1.166h-.02c-.134.377-.298.713-.5 1.166l-.54 1.176H3.863l1.878-3.286-1.81-3.207zm21.55 12.505H5.748a1.486 1.486 0 01-1.483-1.485v-1.717h18.391c.853 0 1.544-.69 1.544-1.544v-9.363c0-.854-.691-1.544-1.544-1.544H4.266V3.833c0-.816.666-1.482 1.484-1.482l13.581-.015v5.02a2.658 2.658 0 002.657 2.658L26.906 10l.055 22.17c0 .82-.665 1.485-1.482 1.485zM14.31 26.41v1.233h-4.056V21.15h1.474v5.26h2.582zm2.489-1.494c-1.08-.375-1.783-.973-1.783-1.916 0-1.11.925-1.956 2.457-1.956.732 0 1.271.154 1.657.327l-.327 1.185a3.094 3.094 0 00-1.36-.309c-.635 0-.943.29-.943.627 0 .414.366.598 1.204.915 1.147.424 1.686 1.022 1.686 1.937 0 1.089-.838 2.014-2.62 2.014-.742 0-1.475-.193-1.84-.396l.298-1.213a3.743 3.743 0 001.628.404c.674 0 1.031-.28 1.031-.703 0-.405-.308-.637-1.088-.916z" fill="#165280"/>
</svg>
