<svg width="30" height="37" viewBox="0 0 30 37" fill="none" xmlns="http://www.w3.org/2000/svg">
    <path d="M13.602 8.801c0-.597-.41-.954-1.138-.954-.296 0-.496.03-.6.058v1.919c.123.028.275.037.485.037.775 0 1.253-.394 1.253-1.06zm6.621-8.8H5.881c-2.095 0-3.8 1.721-3.8 3.832v.71h-.55C.686 4.543 0 5.233 0 6.087v7.862c0 .854.686 1.544 1.531 1.544h.55v16.678c0 2.112 1.705 3.83 3.8 3.83H25.45c2.094 0 3.8-1.718 3.8-3.83V9.07L20.222.002zm-13.45 13.28H1.767v-.79L4.834 8.04v-.039H2.053V6.788h4.673v.846l-3.002 4.394v.038h3.049v1.216zm9.929 19.194c-.48.672-1.595.672-2.073 0a1.298 1.298 0 01-.17-1.16l.307-.913h1.797l.308.912c.132.39.069.825-.169 1.161zm8.749 1.18h-8.235c.17-.14.328-.295.456-.479a2.511 2.511 0 00.33-2.25l-.919-2.72v-3.067a.596.596 0 00-.594-.599h-1.65a.596.596 0 00-.595.599v3.067l-.918 2.72a2.506 2.506 0 00.33 2.25c.13.184.286.34.456.478h-8.23a1.48 1.48 0 01-1.473-1.484V15.493H14.85v2.355l-2.244.001a.597.597 0 00-.595.599v1.312c0 .33.266.6.595.6h2.244v1.91c0 .33.266.599.594.599h3.281a.596.596 0 00.595-.6v-1.31c0-.331-.266-.6-.595-.6h-2.244v-2.51h-.004 2.248a.596.596 0 00.595-.6v-1.31c0-.33-.266-.6-.595-.6H15.4c.522-.245.89-.771.89-1.39V6.086c0-.852-.686-1.544-1.532-1.544H4.41v-.71c0-.816.66-1.482 1.472-1.482l13.471-.014v5.02a2.646 2.646 0 002.636 2.656l4.879-.014.054 22.17c0 .82-.66 1.486-1.47 1.486zM7.694 13.281V6.788h1.462v6.494H7.694zm2.725 0V6.875c.45-.077 1.081-.135 1.97-.135.898 0 1.538.173 1.969.52.41.327.687.867.687 1.503 0 .635-.21 1.175-.591 1.541-.498.472-1.234.684-2.094.684a3.7 3.7 0 01-.496-.028v2.322h-1.445z" fill="#165280"/>
</svg>
