<svg width="15" height="19" viewBox="0 0 15 19" fill="none" xmlns="http://www.w3.org/2000/svg">
    <path d="M10.054.391H2.861C1.81.391.954 1.251.954 2.307v7.084H.768a.77.77 0 00-.768.772v4.682a.77.77 0 00.768.772h.186v.858c0 1.057.856 1.916 1.907 1.916h9.815c1.05 0 1.906-.859 1.906-1.915V4.925L10.054.39zM1.712 10.848c.225-.038.542-.067.988-.067.45 0 .772.086.988.26a.95.95 0 01.345.751c0 .318-.105.588-.297.77-.25.237-.619.343-1.05.343-.097 0-.183-.005-.25-.014v1.16H1.71v-3.203zm10.964 6.37H2.861a.741.741 0 01-.739-.742v-.859h9.15a.77.77 0 00.769-.772v-4.682a.77.77 0 00-.769-.772h-9.15V2.307c0-.408.332-.741.739-.741l6.757-.007v2.51c0 .733.591 1.328 1.322 1.328l2.446-.007.028 11.085a.74.74 0 01-.738.743zm-7.985-3.223v-3.189c.268-.043.618-.067.987-.067.613 0 1.011.11 1.323.347.336.25.546.65.546 1.223 0 .622-.225 1.051-.537 1.316-.34.284-.857.419-1.49.419-.379 0-.647-.024-.83-.049zm5.32-1.846v.597H8.848v1.305h-.734v-3.246h1.977v.602H8.849v.742h1.161z" fill="#165280"/>
    <path d="M3.309 11.812c0-.3-.206-.478-.571-.478-.149 0-.25.015-.302.03v.958c.062.014.139.019.244.019.389 0 .629-.197.629-.53zm2.446-.509a1.51 1.51 0 00-.331.028v2.125c.062.014.163.014.254.014.661.005 1.093-.361 1.093-1.136.005-.675-.388-1.031-1.016-1.031z" fill="#165280"/>
</svg>
