<svg width="18" height="18" viewBox="0 0 18 18" fill="none" xmlns="http://www.w3.org/2000/svg">
    <path d="M11.777 0h-7.23C3.493 0 2.633.86 2.633 1.916V9h-.187a.772.772 0 00-.772.772v4.682c0 .426.346.772.772.772h.187v.858c0 1.057.86 1.916 1.916 1.916h9.864c1.056 0 1.915-.86 1.915-1.916V4.534L11.777 0zM3.638 10.574h.843l.284.592c.097.197.169.357.246.54h.01c.077-.207.14-.352.221-.54l.275-.592h.838l-.915 1.584.963 1.663h-.848l-.294-.588c-.12-.227-.197-.395-.289-.583h-.01c-.067.188-.149.356-.25.583l-.27.588h-.838l.94-1.643-.906-1.604zm10.774 6.253H4.548a.743.743 0 01-.742-.743v-.858H13a.772.772 0 00.772-.772V9.772A.772.772 0 0013.001 9H3.806V1.916c0-.409.333-.742.742-.742l6.79-.007v2.51c0 .734.595 1.329 1.329 1.329l2.459-.007.027 11.085c0 .41-.332.743-.74.743zm-5.584-3.623v.617H6.8v-3.247h.737v2.63h1.291zm1.244-.747c-.54-.187-.891-.486-.891-.958 0-.554.462-.978 1.228-.978.366 0 .636.077.829.164l-.164.592a1.546 1.546 0 00-.68-.154c-.317 0-.471.145-.471.313 0 .207.183.299.602.458.573.212.843.51.843.968 0 .544-.42 1.007-1.31 1.007-.371 0-.738-.096-.92-.198l.149-.606c.197.1.5.201.814.201.337 0 .515-.139.515-.35 0-.203-.154-.32-.544-.459z" fill="#165280"/>
</svg>
