<svg width="19" height="19" viewBox="0 0 19 19" fill="none" xmlns="http://www.w3.org/2000/svg">
    <path d="M8.801 4.791c0-.299-.205-.477-.569-.477a1.24 1.24 0 00-.3.029v.96c.061.013.138.018.243.018.387 0 .626-.197.626-.53zm4.81-4.4h-7.17c-1.048 0-1.9.86-1.9 1.916v.355H1.265a.769.769 0 00-.766.772v3.931c0 .427.343.772.766.772H4.54v8.339a1.91 1.91 0 001.9 1.915h9.785a1.91 1.91 0 001.9-1.915V4.926L13.612.39zm-8.224 6.64H2.883v-.395L4.417 4.41v-.02h-1.39v-.606h2.336v.424l-1.5 2.197v.018h1.524v.608zm6.464 9.597c-.24.336-.798.336-1.037 0a.65.65 0 01-.085-.58l.154-.457h.899l.153.457a.649.649 0 01-.084.58zm4.374.59h-4.117c.085-.07.164-.148.228-.24.232-.326.293-.746.165-1.125l-.46-1.36V12.96c0-.165-.132-.3-.296-.3h-.826a.298.298 0 00-.297.3v1.533l-.459 1.36c-.128.379-.067.8.165 1.126.065.091.143.17.228.239H6.44a.74.74 0 01-.736-.743V8.137h5.22v1.178H9.803a.298.298 0 00-.298.3v.655a.3.3 0 00.298.3h1.122v.955c0 .165.133.3.297.3h1.64a.298.298 0 00.298-.3v-.655c0-.166-.133-.3-.297-.3H11.74V9.315h-.002 1.125a.298.298 0 00.297-.3V8.36c0-.166-.133-.3-.297-.3H11.2a.769.769 0 00.445-.695V3.434a.769.769 0 00-.766-.773H5.705v-.354a.74.74 0 01.736-.742l6.735-.007v2.51c0 .734.59 1.329 1.318 1.329l2.44-.007.027 11.085a.74.74 0 01-.736.742zM5.847 7.03V3.785h.731V7.03h-.731zm1.363 0V3.828c.225-.039.54-.067.984-.067.45 0 .77.086.985.26a.952.952 0 01.344.75c0 .319-.105.589-.296.772-.249.235-.617.342-1.047.342-.095 0-.182-.005-.248-.015v1.161H7.21z" fill="#165280"/>
</svg>
