<svg width="24" height="24" viewBox="0 0 24 24" fill="none" xmlns="http://www.w3.org/2000/svg">
<path fill-rule="evenodd" clip-rule="evenodd" d="M0.056202 5.47042C0.0193858 5.64111 0 5.81829 0 6V18C0 18.1817 0.0193857 18.3589 0.0562018 18.5296L6.58579 12L0.056202 5.47042ZM1.24916 20.1651C1.61706 20.3781 2.04429 20.5 2.5 20.5H21.5C21.9557 20.5 22.3829 20.3781 22.7508 20.1651L16 13.4142L15.5355 13.8787C13.5829 15.8313 10.4171 15.8313 8.46446 13.8787L8 13.4142L1.24916 20.1651ZM23.9438 18.5296C23.9806 18.3589 24 18.1817 24 18V6C24 5.81829 23.9806 5.64111 23.9438 5.47042L17.4142 12L23.9438 18.5296ZM22.7508 3.83494C22.3829 3.62193 21.9557 3.5 21.5 3.5H2.5C2.04429 3.5 1.61706 3.62193 1.24916 3.83494L8.70711 11.2929L9.87868 12.4645C11.0503 13.636 12.9497 13.636 14.1213 12.4645L15.2929 11.2929L22.7508 3.83494Z" fill="#005D9F"/>
</svg>
