<svg width="24" height="24" viewBox="0 0 24 24" fill="none" xmlns="http://www.w3.org/2000/svg">
<path d="M13.7 21.6C13.7 20.775 13.025 20.1 12.2 20.1C11.375 20.1 10.7 20.775 10.7 21.6C10.7 22.425 11.375 23.1 12.2 23.1C13.025 23.1 13.7 22.425 13.7 21.6ZM17.6 18.6V5.4C17.6 5.08125 17.3188 4.8 17 4.8H7.4C7.08125 4.8 6.8 5.08125 6.8 5.4V18.6C6.8 18.9188 7.08125 19.2 7.4 19.2H17C17.3188 19.2 17.6 18.9188 17.6 18.6ZM14 2.7C14 2.53125 13.8688 2.4 13.7 2.4H10.7C10.5313 2.4 10.4 2.53125 10.4 2.7C10.4 2.86875 10.5313 3 10.7 3H13.7C13.8688 3 14 2.86875 14 2.7ZM19.4 2.4V21.6C19.4 22.9125 18.3125 24 17 24H7.4C6.0875 24 5 22.9125 5 21.6V2.4C5 1.0875 6.0875 0 7.4 0H17C18.3125 0 19.4 1.0875 19.4 2.4Z" fill="#005D9F"/>
</svg>
