<svg width="24" height="24" viewBox="0 0 24 24" fill="none" xmlns="http://www.w3.org/2000/svg">
<g clip-path="url(#clip0_1074_787)">
<path d="M12 23C18.0751 23 23 18.0751 23 12C23 5.92487 18.0751 1 12 1C5.92487 1 1 5.92487 1 12C1 18.0751 5.92487 23 12 23Z" stroke="#005D9F" stroke-width="1.5" stroke-miterlimit="10" stroke-linecap="round" stroke-linejoin="round"/>
<mask id="mask0_1074_787" style="mask-type:luminance" maskUnits="userSpaceOnUse" x="10" y="0" width="10" height="24">
<path d="M20 0.0986328H10.4443V23.9876H20V0.0986328Z" fill="white"/>
<path d="M12.8333 2.4873C15.4914 4.8154 17.1766 8.21195 17.1766 11.9907C17.1766 15.7782 15.5001 19.1747 12.8333 21.4941" fill="black"/>
</mask>
<g mask="url(#mask0_1074_787)">
<path d="M14.0139 1.13918C13.2695 0.487239 12.1376 0.562179 11.4857 1.30656C10.8336 2.05094 10.9086 3.1829 11.653 3.83485L14.0139 1.13918ZM11.6577 20.142C10.911 20.7914 10.8322 21.9231 11.4815 22.6697C12.1309 23.4164 13.2626 23.4952 14.0092 22.8459L11.6577 20.142ZM11.653 3.83485C13.9457 5.84273 15.3852 8.75762 15.3852 11.9905H18.9686C18.9686 7.66568 17.0377 3.78749 14.0139 1.13918L11.653 3.83485ZM15.3852 11.9905C15.3852 15.2357 13.9516 18.147 11.6577 20.142L14.0092 22.8459C17.0491 20.2021 18.9686 16.3202 18.9686 11.9905H15.3852Z" fill="#005D9F"/>
</g>
<mask id="mask1_1074_787" style="mask-type:luminance" maskUnits="userSpaceOnUse" x="4" y="0" width="10" height="24">
<path d="M13.9111 0.107422H4.35547V23.9965H13.9111V0.107422Z" fill="white"/>
<path d="M11.0879 21.5034C8.42095 19.1753 6.74438 15.7783 6.74438 11.9995C6.74438 8.21204 8.42095 4.81551 11.0879 2.49609" fill="black"/>
</mask>
<g mask="url(#mask1_1074_787)">
<path d="M9.90948 22.8529C10.6549 23.5036 11.7868 23.4268 12.4375 22.6813C13.0883 21.9359 13.0115 20.8041 12.266 20.1534L9.90948 22.8529ZM12.2635 3.84772C13.0102 3.19836 13.089 2.06667 12.4397 1.32003C11.7904 0.573393 10.6586 0.494535 9.91199 1.14389L12.2635 3.84772ZM12.266 20.1534C9.96885 18.148 8.53599 15.2346 8.53599 11.9992H4.95264C4.95264 16.3215 6.87293 20.202 9.90948 22.8529L12.266 20.1534ZM8.53599 11.9992C8.53599 8.75405 9.96968 5.84276 12.2635 3.84772L9.91199 1.14389C6.87215 3.78768 4.95264 7.66946 4.95264 11.9992H8.53599Z" fill="#005D9F"/>
</g>
<path d="M11.98 2V22" stroke="#005D9F" stroke-width="1.8" stroke-miterlimit="10" stroke-linecap="round" stroke-linejoin="round"/>
<path d="M2 8H22" stroke="#005D9F" stroke-width="1.5" stroke-miterlimit="10" stroke-linecap="round" stroke-linejoin="round"/>
<path d="M2 16H22" stroke="#005D9F" stroke-width="1.5" stroke-miterlimit="10" stroke-linecap="round" stroke-linejoin="round"/>
</g>
<defs>
<clipPath id="clip0_1074_787">
<rect width="24" height="24" fill="white"/>
</clipPath>
</defs>
</svg>
