<svg width="24" height="24" viewBox="0 0 24 24" fill="none" xmlns="http://www.w3.org/2000/svg">
<path fill-rule="evenodd" clip-rule="evenodd" d="M23.9829 2.94825C23.1924 6.66307 21.084 17.0001 20.2147 21.0837C20.1332 21.4668 19.8607 21.7832 19.4909 21.924C19.1205 22.0642 18.7057 22.0075 18.384 21.7784C16.3581 20.3361 12.7856 17.7171 12.7856 17.7171C12.7856 17.7171 10.9062 19.4917 9.69036 20.6398C9.47449 20.8435 9.16708 20.9218 8.87872 20.8467C8.59036 20.7716 8.37026 20.5509 8.27555 20.271C7.51841 18.0414 6.06709 13.6557 6.06709 13.6557C6.06709 13.6557 2.95969 12.6705 0.592506 11.9626C0.250179 11.8604 0.0120846 11.553 0.000444393 11.1996C-0.0111958 10.8456 0.206793 10.5239 0.541712 10.4001C5.82053 8.44667 18.7332 3.60169 22.9263 2.04983C23.1977 1.9493 23.503 2.00327 23.7231 2.19005C23.9432 2.37735 24.0427 2.66782 23.9829 2.94825ZM19.6443 5.57048C19.5543 5.45513 19.3909 5.42762 19.2676 5.50645C14.9824 8.24297 7.37343 13.1017 7.37343 13.1017L9.05279 18.6403L9.42634 15.1324C9.42634 15.1324 15.9126 9.28265 19.6104 5.9472C19.7189 5.84931 19.7337 5.68529 19.6443 5.57048Z" fill="#005D9F"/>
</svg>
