<svg width="24" height="24" viewBox="0 0 24 24" fill="none" xmlns="http://www.w3.org/2000/svg">
<path fill-rule="evenodd" clip-rule="evenodd" d="M11.7427 18.9415H13.1773C13.1773 18.9415 13.6102 18.8921 13.8319 18.6483C14.0352 18.4249 14.029 18.004 14.029 18.004C14.029 18.004 14.0008 16.0358 14.8943 15.7464C15.7749 15.4606 16.9061 17.6485 18.1042 18.4897C19.0107 19.126 19.6997 18.9872 19.6997 18.9872L22.9047 18.9415C22.9047 18.9415 24.5812 18.8354 23.7859 17.4874C23.7214 17.377 23.3229 16.4907 21.4032 14.6682C19.3932 12.7611 19.6628 13.0697 22.0836 9.77023C23.5575 7.76131 24.147 6.53498 23.9628 6.00914C23.7872 5.50923 22.7033 5.6413 22.7033 5.6413L19.0948 5.66414C19.0948 5.66414 18.827 5.62711 18.6287 5.74808C18.4346 5.86657 18.31 6.14369 18.31 6.14369C18.31 6.14369 17.7388 7.69836 16.9767 9.02098C15.3702 11.8106 14.7273 11.9581 14.4651 11.7847C13.854 11.3811 14.0063 10.1628 14.0063 9.29747C14.0063 6.59361 14.4073 5.46603 13.2252 5.17472C12.8334 5.07782 12.5441 5.01363 11.5413 5.00314C10.2529 4.98956 9.1635 5.00746 8.54633 5.31605C8.13611 5.52157 7.81923 5.98014 8.01206 6.00667C8.25095 6.03938 8.79074 6.15541 9.07753 6.55349C9.44722 7.06822 9.43432 8.22358 9.43432 8.22358C9.43432 8.22358 9.6468 11.4064 8.93813 11.8014C8.45176 12.0729 7.78423 11.5193 6.35152 8.98827C5.61767 7.69157 5.06375 6.25787 5.06375 6.25787C5.06375 6.25787 4.95689 5.99001 4.76591 5.84683C4.53501 5.6734 4.21199 5.61847 4.21199 5.61847L0.782218 5.6413C0.782218 5.6413 0.267599 5.6555 0.078455 5.88509C-0.0898094 6.08876 0.0649447 6.50968 0.0649447 6.50968C0.0649447 6.50968 2.74981 12.9314 5.78962 16.1679C8.57765 19.1359 11.7427 18.9415 11.7427 18.9415Z" fill="#005D9F"/>
</svg>
