<?xml version="1.0" encoding="UTF-8"?>
<!DOCTYPE svg PUBLIC "-//W3C//DTD SVG 1.1//EN" "http://www.w3.org/Graphics/SVG/1.1/DTD/svg11.dtd">
<!-- Creator: CorelDRAW X8 -->
<svg xmlns="http://www.w3.org/2000/svg" xml:space="preserve" width="50.8mm" height="50.8mm" version="1.1" style="shape-rendering:geometricPrecision; text-rendering:geometricPrecision; image-rendering:optimizeQuality; fill-rule:evenodd; clip-rule:evenodd"
viewBox="0 0 5080 5080"
 xmlns:xlink="http://www.w3.org/1999/xlink">
 <defs>
  <style type="text/css">
   <![CDATA[
    .fil4 {fill:#6B7F9E}
    .fil6 {fill:#8597B1}
    .fil0 {fill:#8871C7}
    .fil3 {fill:#F0B97D}
    .fil9 {fill:#FCD34E}
    .fil1 {fill:#FEC982}
    .fil2 {fill:#FFD190}
    .fil8 {fill:#FFE356}
    .fil7 {fill:#FFF1DF}
    .fil5 {fill:white}
   ]]>
  </style>
 </defs>
 <g id="Слой_x0020_1">
  <metadata id="CorelCorpID_0Corel-Layer"/>
  <circle class="fil0" cx="2540" cy="2540" r="2540"/>
  <path class="fil1" d="M2585 3607l517 -312c119,-72 184,66 111,107l-404 222 -224 -17z"/>
  <g id="_808096576">
   <path class="fil2" d="M2811 3578l555 -341c130,-81 199,83 128,124l-380 223 -303 -5 0 -1 0 0z"/>
   <path class="fil2" d="M1471 3697l-1052 240c-159,-241 -279,-512 -349,-801l1314 -86c211,-30 406,-29 492,19 153,85 137,271 486,368l499 87 801 -197c148,-26 177,139 80,178l-1076 381c-145,51 -493,-66 -1195,-189z"/>
  </g>
  <path class="fil3" d="M3020 3485c55,58 -54,90 -210,123 -111,24 -261,52 -333,70 -140,5 -499,-81 -751,-173 129,-2 669,159 755,142 85,-16 494,-124 521,-140 28,-15 15,-13 18,-22z"/>
  <path class="fil4" d="M921 2982l141 1044 -513 90c-243,-306 -416,-669 -497,-1066l869 -68z"/>
  <polygon class="fil5" points="1111,2989 1248,3968 1058,3993 921,3013 "/>
  <path class="fil6" d="M970 3884c4,39 -22,75 -60,80 -38,4 -73,-23 -78,-62 -5,-39 21,-75 59,-80 38,-4 74,23 79,62z"/>
  <path class="fil2" d="M1745 3034c262,-41 436,113 567,298l239 55c0,0 222,-48 342,-11 119,36 155,132 109,158 -46,27 -436,95 -521,112 -87,16 -573,-84 -754,-141 -181,-56 -288,-405 18,-472l0 1z"/>
  <path class="fil7" d="M3660 3533l127 -41c15,-5 2,-45 -18,-45 -20,0 -135,28 -135,28 14,16 30,38 26,58z"/>
  <path class="fil5" d="M2832 3565l161 -35c13,-3 2,-65 -29,-78 -30,-12 -164,15 -164,15 10,22 28,63 30,97l2 1z"/>
  <path class="fil2" d="M2610 1995l351 -28c50,-3 182,-86 182,-86l-126 -213 -328 -39 -252 232 -97 199c-58,104 -249,84 -203,-49l110 -333c0,0 276,-297 378,-339 102,-41 819,-77 819,-77 0,0 587,320 805,459l692 -10c65,190 109,389 128,596l-872 -21c0,0 -555,108 -743,81 -190,-27 -452,-109 -452,-109 0,0 -330,6 -424,-37 -133,-46 -122,-214 33,-226l-1 0 0 0z"/>
  <path class="fil5" d="M2142 1971c6,2 38,16 38,16l-32 97c0,0 -38,17 -32,-24 6,-42 26,-90 26,-90l0 1 0 0z"/>
  <path class="fil8" d="M2718 1990c-4,-15 -7,-31 -12,-46 -23,-70 -61,-133 -109,-185 -89,-94 -214,-152 -352,-152 -268,0 -485,217 -485,485 0,268 217,485 485,485 166,0 313,-83 399,-211 33,-48 57,-101 71,-159 4,-14 6,-28 9,-43 3,-23 6,-48 6,-73 0,-36 -4,-70 -11,-103l0 0 -1 2z"/>
  <path class="fil9" d="M2695 1995c-3,-15 -7,-30 -12,-44 -21,-67 -56,-126 -104,-175 -84,-89 -204,-145 -335,-145 -255,0 -463,207 -463,462 0,255 208,462 463,462 157,0 297,-79 380,-200 31,-45 55,-96 68,-152 3,-13 6,-27 8,-41 4,-23 5,-46 5,-70 0,-34 -4,-66 -11,-98l0 0 1 1z"/>
  <g id="_675595664">
   <path class="fil8" d="M2244 1732c-199,0 -362,161 -362,361 0,199 163,362 362,362 199,0 361,-163 361,-362 0,-199 -161,-361 -361,-361l0 0zm0 45c174,0 316,142 316,316 0,174 -142,317 -316,317 -174,0 -317,-143 -317,-317 0,-174 143,-316 317,-316z"/>
   <path class="fil8" d="M2215 2315l0 -51c-36,-1 -71,-12 -92,-24l16 -64c23,13 55,24 90,24 31,0 53,-12 53,-33 0,-21 -18,-34 -57,-48 -58,-19 -97,-46 -97,-99 0,-48 33,-86 91,-96l0 -51 53 0 0 47c37,1 60,10 78,18l-15 62c-14,-6 -39,-20 -78,-20 -36,0 -46,16 -46,31 0,18 18,30 65,47 64,22 90,52 90,101 0,49 -35,90 -96,101l0 56 -54 0 -1 -1z"/>
  </g>
  <path class="fil2" d="M2610 1995c155,-12 300,-25 351,-28 50,-3 182,-86 182,-86 0,0 345,142 323,286 -23,143 -54,148 -93,187 -175,-34 -372,-95 -372,-95 0,0 -331,6 -424,-37 -133,-46 -122,-214 33,-226l0 -1 0 0z"/>
  <polygon class="fil5" points="4285,1587 4343,2507 4586,2491 4528,1572 "/>
  <path class="fil4" d="M4485 1477l71 1113 524 -9c0,-14 0,-28 0,-42 0,-391 -89,-761 -246,-1093l-350 30 1 1z"/>
  <path class="fil5" d="M2509 2128l168 -5 0 102c0,0 -145,6 -173,-17 -27,-24 -15,-72 5,-79l0 -1z"/>
  <path class="fil6" d="M4793 2437c5,39 -21,74 -59,79 -38,5 -73,-22 -78,-61 -5,-39 21,-75 59,-80 38,-5 74,23 78,62z"/>
  <g id="_675596816">
  </g>
  <g id="_675595760">
  </g>
  <g id="_675591056">
  </g>
  <g id="_675595792">
  </g>
  <g id="_675594864">
  </g>
  <g id="_675594768">
  </g>
  <g id="_675594352">
  </g>
  <g id="_675593648">
  </g>
  <g id="_675591632">
  </g>
  <g id="_675592080">
  </g>
  <g id="_675591344">
  </g>
  <g id="_675593456">
  </g>
  <g id="_804866000">
  </g>
  <g id="_801815408">
  </g>
  <g id="_808673168">
  </g>
 </g>
</svg>
