<?xml version="1.0" encoding="iso-8859-1"?>
<!-- Generator: Adobe Illustrator 19.0.0, SVG Export Plug-In . SVG Version: 6.00 Build 0)  -->
<svg version="1.1" id="Capa_1" xmlns="http://www.w3.org/2000/svg" xmlns:xlink="http://www.w3.org/1999/xlink" x="0px" y="0px"
	 viewBox="0 0 512 512" style="enable-background:new 0 0 512 512;" xml:space="preserve">
<polygon style="fill:#764F43;" points="512,326.882 512,495.818 0.01,495.818 0.01,326.882 57.583,271.932 454.417,271.932 "/>
<polygon style="fill:#5B392F;" points="512,326.882 512,477.71 454.417,477.71 454.417,271.932 "/>
<polygon style="fill:#8E695F;" points="0,326.882 0,477.71 57.583,477.71 57.583,271.932 "/>
<path style="fill:#CA936C;" d="M0.007,326.88H175.32v34.817c0,44.56,36.122,80.682,80.682,80.682l0,0
	c44.56,0,80.682-36.122,80.682-80.682V326.88h175.313v168.94H0.007L0.007,326.88L0.007,326.88z"/>
<path style="fill:#95C918;" d="M316.539,230.312c0-0.002-42.415-220.99-245.995-213.968C102,27.035,212.134,90.393,210.329,212.322
	l-56.991-9.653l99.509,166.572l105.337-131.876L316.539,230.312z"/>
<g>
</g>
<g>
</g>
<g>
</g>
<g>
</g>
<g>
</g>
<g>
</g>
<g>
</g>
<g>
</g>
<g>
</g>
<g>
</g>
<g>
</g>
<g>
</g>
<g>
</g>
<g>
</g>
<g>
</g>
</svg>
