<svg width="43" height="41" viewBox="0 0 43 41" fill="none" xmlns="http://www.w3.org/2000/svg">
<path fill-rule="evenodd" clip-rule="evenodd" d="M32.0795 15.4218V2.27778C32.0795 1.29644 31.2963 0.5 30.3315 0.5H2.35928C1.39366 0.5 0.611328 1.29644 0.611328 2.27778V38.7222C0.611328 39.7036 1.39453 40.5 2.35928 40.5H30.3315C31.2972 40.5 32.0795 39.7036 32.0795 38.7222V30.9116C30.8008 31.7605 29.3115 32.3071 27.7092 32.4547L26.0034 32.5551L22.4803 31.6111L21.2893 29.3889L20.2509 28.0556C20.136 27.9462 19.1563 27.8244 19.0467 27.7098V28.9116H13.7792V23.6111H18.4749C18.2372 22.7622 19.3344 20.8707 18.4205 20.8707C18.274 20.8707 16.3463 20.9231 16.3463 20.9116H13.7792V15.6111H20.5499C21.0525 14.8307 27.689 13.0742 27.689 13.0742V12.0556H4.98161V4.94444H27.7092V13.8778C29.3115 14.0262 30.8008 14.5738 32.0795 15.4218ZM13.7792 31.6111H19.0467V36.9116H13.7792V31.6111ZM22.5496 32.5H27.8171V36.9116H22.5496V32.5ZM5.00881 15.6111H10.2763V20.9116H5.00881V15.6111ZM5.00881 23.6111H10.2763V28.9116H5.00881V23.6111ZM5.00881 31.6111H10.2763V36.9116H5.00881V31.6111Z" fill="white"/>
<path d="M20.2713 15H19.0171V19.9813H20.2713V15Z" fill="white"/>
<path d="M42.218 37.4665L35.827 30.6674C37.4706 28.6692 38.3704 26.1554 38.3704 23.5385C38.3704 17.423 33.5072 12.4479 27.5311 12.4479C21.5541 12.4479 16.6909 17.423 16.6909 23.5385C16.6909 29.6532 21.5541 34.6283 27.5311 34.6283C29.7754 34.6283 31.9128 33.9368 33.7406 32.6212L40.1798 39.4728C40.449 39.7581 40.8112 39.9154 41.1989 39.9154C41.5655 39.9154 41.9137 39.7732 42.1785 39.5128C42.7399 38.959 42.7574 38.0417 42.218 37.4665ZM27.5311 15.3403C31.9487 15.3403 35.5429 19.0177 35.5429 23.5377C35.5429 28.0568 31.9487 31.7341 27.5311 31.7341C23.1126 31.7341 19.5185 28.0568 19.5185 23.5377C19.5185 19.0177 23.1126 15.3403 27.5311 15.3403Z" fill="white"/>
</svg>
