<svg width="40" height="40" viewBox="0 0 40 40" fill="none" xmlns="http://www.w3.org/2000/svg">
<path fill-rule="evenodd" clip-rule="evenodd" d="M2.5 21.5H16.503C17.608 21.5 18.503 22.396 18.503 23.5V37.504C18.503 38.608 17.608 39.504 16.503 39.504H2.5C1.396 39.504 0.5 38.608 0.5 37.504V23.5C0.5 22.396 1.396 21.5 2.5 21.5Z" fill="white"/>
<path fill-rule="evenodd" clip-rule="evenodd" d="M23.5 0.5H37.504C38.608 0.5 39.504 1.396 39.504 2.5V16.503C39.504 17.608 38.608 18.503 37.504 18.503H23.5C22.396 18.503 21.5 17.608 21.5 16.503V2.5C21.5 1.396 22.396 0.5 23.5 0.5Z" fill="white"/>
<path fill-rule="evenodd" clip-rule="evenodd" d="M37.504 21.5H23.5C22.396 21.5 21.5 22.396 21.5 23.5V37.504C21.5 38.608 22.396 39.504 23.5 39.504H37.504C38.608 39.504 39.504 38.608 39.504 37.504V23.5C39.504 22.396 38.608 21.5 37.504 21.5ZM36.5 36.428H24.51V24.553H36.5V36.428Z" fill="white"/>
<path fill-rule="evenodd" clip-rule="evenodd" d="M16.503 0.5H2.5C1.396 0.5 0.5 1.396 0.5 2.5V16.503C0.5 17.608 1.396 18.503 2.5 18.503H16.503C17.608 18.503 18.503 17.608 18.503 16.503V2.5C18.503 1.396 17.608 0.5 16.503 0.5ZM15.5 13.427H3.50999V10.552H15.5V13.427ZM15.5 8.427H3.50999V5.552H15.5V8.427Z" fill="white"/>
</svg>
