<svg width="58" height="36" viewBox="0 0 58 36" fill="none" xmlns="http://www.w3.org/2000/svg">
<path d="M14.8741 21.0981L9.89175 20.7031C9.53691 20.6727 9.18501 20.7764 8.89958 20.9886L0.590751 27.1813C-0.0592927 27.6653 -0.193213 28.5845 0.290654 29.2338C0.578042 29.621 1.01988 29.8244 1.46758 29.8244C1.77256 29.8244 2.0795 29.7296 2.34245 29.534L10.2094 23.6708L16.4342 24.1646C15.877 23.1535 15.3531 22.1278 14.8741 21.0981Z" fill="white"/>
<path d="M57.3411 17.6806L49.1945 12.3024C48.7351 11.9983 48.1417 11.9797 47.6637 12.2506L43.7625 14.4654C43.5083 15.7796 43.1046 17.1349 42.5895 18.5049L48.3304 15.2457L55.7262 20.1291C56.3988 20.573 57.3108 20.3902 57.7575 19.7125C58.2032 19.0368 58.0175 18.1274 57.3411 17.6806Z" fill="white"/>
<path fill-rule="evenodd" clip-rule="evenodd" d="M15.4783 12.7482C15.4783 5.71944 21.1791 0 28.1859 0C35.1917 0 40.8925 5.71944 40.8925 12.7482C40.8925 21.4726 29.5212 34.2775 29.0373 34.8183C28.5828 35.3268 27.79 35.3277 27.3345 34.8183C26.8506 34.2775 15.4783 21.4726 15.4783 12.7482ZM37.961 12.7121C37.961 7.31147 33.5847 2.93364 28.1859 2.93364C22.7861 2.93364 18.4108 7.31147 18.4108 12.7121C18.4108 18.1128 22.7871 22.4906 28.1859 22.4906C33.5847 22.4906 37.961 18.1128 37.961 12.7121Z" fill="white"/>
</svg>
