<svg width="44" height="49" viewBox="0 0 44 49" fill="none" xmlns="http://www.w3.org/2000/svg">
<path d="M27.9767 25.4014C27.9338 25.3132 27.8436 25.2568 27.7429 25.2568H23.4496L26.4624 20.3838C26.5124 20.307 26.5159 20.2091 26.4703 20.1297C26.4248 20.0494 26.3381 20 26.2435 20H21.2469C21.1497 20 21.0595 20.0538 21.0157 20.1385L18.0274 27.6381C17.9871 27.7157 17.9915 27.8075 18.0388 27.8807C18.0861 27.9548 18.1684 27.9998 18.2586 27.9998H20.9071L18.8227 34.6533C18.7736 34.7671 18.8174 34.8977 18.926 34.9638C18.968 34.9876 19.0145 35 19.06 35C19.1336 35 19.2071 34.9691 19.2571 34.9109L27.9391 25.6688C28.0039 25.5938 28.0179 25.4897 27.9767 25.4014Z" fill="white"/>
<path fill-rule="evenodd" clip-rule="evenodd" d="M30.5 11H31.5C32.328 11 33 11.671 33 12.5V14.5C33 15.329 32.328 16 31.5 16H30.5C29.672 16 29 15.329 29 14.5V12.5C29 11.671 29.672 11 30.5 11Z" fill="white"/>
<path fill-rule="evenodd" clip-rule="evenodd" d="M24.5 11H25.5C26.328 11 27 11.671 27 12.5V14.5C27 15.329 26.328 16 25.5 16H24.5C23.672 16 23 15.329 23 14.5V12.5C23 11.671 23.672 11 24.5 11Z" fill="white"/>
<path fill-rule="evenodd" clip-rule="evenodd" d="M18.5 11H19.5C20.328 11 21 11.671 21 12.5V14.5C21 15.329 20.328 16 19.5 16H18.5C17.672 16 17 15.329 17 14.5V12.5C17 11.671 17.672 11 18.5 11Z" fill="white"/>
<path fill-rule="evenodd" clip-rule="evenodd" d="M12.5 11H13.5C14.328 11 15 11.671 15 12.5V14.5C15 15.329 14.328 16 13.5 16H12.5C11.672 16 11 15.329 11 14.5V12.5C11 11.671 11.672 11 12.5 11Z" fill="white"/>
<path fill-rule="evenodd" clip-rule="evenodd" d="M22 0C9.85 0 0 9.85 0 22C0 34.15 9.85 44 22 44C34.15 44 44 34.15 44 22C44 9.85 34.15 0 22 0ZM22 41C11.507 41 3 32.493 3 22C3 11.507 11.507 3 22 3C32.493 3 41 11.507 41 22C41 32.493 32.493 41 22 41Z" fill="white"/>
<path fill-rule="evenodd" clip-rule="evenodd" d="M13.75 47H30.25C30.6647 47 31 47.298 31 47.6667V48.3333C31 48.702 30.6647 49 30.25 49H13.75C13.3353 49 13 48.702 13 48.3333V47.6667C13 47.298 13.3353 47 13.75 47Z" fill="white"/>
</svg>
