<svg width="36" height="44" viewBox="0 0 36 44" fill="none" xmlns="http://www.w3.org/2000/svg">
<path d="M34 0H2C0.896 0 0 0.895 0 2V41.999C0 43.103 0.896 44 2 44H34C35.104 44 36 43.104 36 41.999V2C36 0.895 35.104 0 34 0ZM32.916 40.918C32.811 41.022 32.576 40.998 32.061 40.998H3.94C3.424 40.998 3.19 41.022 3.084 40.918C2.978 40.812 3.002 40.574 3.002 40.048V3.953C3.002 3.426 2.978 3.189 3.084 3.083C3.19 2.978 3.424 3.003 3.94 3.003H32.061C32.577 3.003 32.811 2.978 32.916 3.083C33.021 3.189 32.998 3.426 32.998 3.953V40.048C32.998 40.574 33.021 40.812 32.916 40.918Z" fill="white"/>
<path d="M10 34C10 33.448 10.382 33 10.854 33H25.147C25.618 33 26.001 33.448 26.001 34C26.001 34.552 25.618 35 25.147 35H10.854C10.382 35 10 34.552 10 34Z" fill="white"/>
<path d="M18 11.699C15.859 11.724 14.124 13.463 14.124 15.602C14.124 17.741 15.859 19.48 18 19.505C20.141 19.48 21.876 17.741 21.876 15.602C21.876 13.463 20.141 11.724 18 11.699Z" fill="white"/>
<path d="M14.708 20.145C13.286 19.132 12.355 17.477 12.355 15.603C12.355 12.52 14.862 10.02 17.955 10.02C17.97 10.02 17.985 10.022 18 10.022C18.016 10.022 18.029 10.02 18.045 10.02C21.138 10.02 23.645 12.519 23.645 15.603C23.645 17.478 22.715 19.133 21.293 20.145C23.59 21.073 25.387 22.958 26.217 25.296C27.944 23.354 29 20.804 29 18C29 11.924 24.076 7 18 7C11.924 7 7 11.924 7 18C7 20.804 8.057 23.354 9.783 25.296C10.613 22.958 12.411 21.072 14.708 20.145Z" fill="white"/>
<path d="M21.963 22.383C21.942 22.392 21.919 22.396 21.899 22.404C20.755 21.625 19.406 21.197 18.001 21.187C16.596 21.197 15.246 21.625 14.103 22.404C14.082 22.395 14.06 22.39 14.039 22.383C12.599 23.357 11.548 24.853 11.144 26.593C13.025 28.096 15.406 29 18.001 29C20.597 29 22.978 28.096 24.858 26.593C24.454 24.853 23.403 23.356 21.963 22.383Z" fill="white"/>
</svg>
