<svg width="58" height="24" viewBox="0 0 58 24" fill="none" xmlns="http://www.w3.org/2000/svg">
<path d="M36 0H22C20.896 0 20 0.896 20 2V22C20 23.104 20.896 24 22 24H36C37.104 24 38 23.104 38 22V2C38 0.896 37.104 0 36 0ZM36 22H22V2H36V22Z" fill="white"/>
<path d="M16 0H2C0.896 0 0 0.896 0 2V22C0 23.104 0.896 24 2 24H16C17.104 24 18 23.104 18 22V2C18 0.896 17.104 0 16 0ZM16 22H2V2H16V22Z" fill="white"/>
<path d="M26.8439 17.6682H28.8279L33.3199 7.54321V6.26221H25.4219V7.87921H31.3589L26.8439 17.6682Z" fill="white"/>
<path d="M12.0321 16.889C12.8081 16.293 13.1961 15.446 13.1961 14.346C13.1961 13.591 12.9671 12.987 12.5081 12.53C12.0501 12.076 11.3621 11.791 10.4461 11.676V11.614C11.2121 11.448 11.8051 11.124 12.2271 10.641C12.6491 10.16 12.8601 9.55699 12.8601 8.83099C12.8601 7.96099 12.5371 7.27899 11.8911 6.78399C11.2451 6.28899 10.3471 6.04199 9.19607 6.04199C7.81107 6.04199 6.59407 6.42699 5.54807 7.19799L6.44607 8.47899C6.99307 8.12499 7.46707 7.88699 7.86807 7.76399C8.26907 7.64199 8.68607 7.57999 9.11807 7.57999C9.73807 7.57999 10.2061 7.71299 10.5241 7.97799C10.8421 8.24299 11.0011 8.62099 11.0011 9.11099C11.0011 10.371 10.0901 11.002 8.26707 11.002H7.25907V12.494H8.25107C9.28807 12.494 10.0481 12.639 10.5321 12.924C11.0161 13.211 11.2591 13.658 11.2591 14.268C11.2591 14.956 11.0401 15.463 10.6031 15.791C10.1661 16.119 9.50407 16.283 8.61907 16.283C8.11907 16.283 7.59807 16.219 7.05707 16.088C6.51507 15.958 6.00207 15.774 5.51807 15.533V17.166C6.38807 17.578 7.45607 17.783 8.72107 17.783C10.1521 17.783 11.2561 17.484 12.0321 16.889Z" fill="white"/>
<path d="M56 0H42C40.896 0 40 0.896 40 2V22C40 23.104 40.896 24 42 24H56C57.104 24 58 23.104 58 22V2C58 0.896 57.104 0 56 0ZM52.02 20.547C51.258 21.233 50.172 21.574 48.766 21.574C47.491 21.574 46.489 21.369 45.758 20.957V19.293C46.18 19.533 46.664 19.719 47.211 19.848C47.758 19.979 48.266 20.043 48.734 20.043C49.562 20.043 50.193 19.859 50.625 19.488C51.059 19.119 51.273 18.578 51.273 17.863C51.273 16.5 50.404 15.816 48.664 15.816C48.42 15.816 48.117 15.841 47.758 15.89C47.399 15.941 47.084 15.995 46.813 16.058L45.993 15.574L46.431 9.996H52.369V11.629H48.049L47.791 14.457C47.975 14.426 48.197 14.391 48.459 14.348C48.723 14.307 49.045 14.286 49.424 14.286C50.576 14.286 51.486 14.591 52.158 15.2C52.83 15.809 53.166 16.641 53.166 17.692C53.164 18.91 52.783 19.863 52.02 20.547ZM52.332 5.504C51.695 6.468 50.719 6.949 49.406 6.949C48.136 6.949 47.172 6.452 46.515 5.457C45.97 4.631 45.664 3.465 45.573 1.999H47.416C47.47 3.079 47.618 3.892 47.871 4.417C48.191 5.084 48.703 5.417 49.406 5.417C50.109 5.417 50.625 5.079 50.949 4.401C51.205 3.869 51.357 3.062 51.411 1.998H53.25C53.162 3.517 52.865 4.7 52.332 5.504Z" fill="white"/>
</svg>
