<svg width="40" height="47" viewBox="0 0 40 47" fill="none" xmlns="http://www.w3.org/2000/svg">
<path d="M23.3611 27.0019C20.1293 29.152 17.9995 32.8273 17.9995 37C17.9995 41.1727 20.1293 44.848 23.3611 46.9981C23.2955 46.9994 23.2299 47 23.1641 47C17.6412 47 13.1641 42.5228 13.1641 37C13.1641 31.4772 17.6412 27 23.1641 27C23.2299 27 23.2955 27.0006 23.3611 27.0019Z" fill="white"/>
<path d="M31.6632 33.5285H29.4172V36.7135H31.6641C32.1691 36.7135 32.5656 36.5691 32.866 36.2794C33.1665 35.9897 33.3253 35.6031 33.3253 35.1215C33.3253 34.638 33.1665 34.2523 32.866 33.9635C32.5647 33.6729 32.1539 33.5285 31.6632 33.5285Z" fill="white"/>
<path fill-rule="evenodd" clip-rule="evenodd" d="M40 37C40 42.5228 35.5228 47 30 47C24.4772 47 20 42.5228 20 37C20 31.4772 24.4772 27 30 27C35.5228 27 40 31.4772 40 37ZM34.0843 37.3719C33.4833 37.9522 32.7236 38.241 31.7899 38.241H29.4013V39.094H32.9451C33.0079 39.094 33.0564 39.1102 33.1039 39.1568C33.1514 39.19 33.1658 39.2546 33.1658 39.3192V40.2359C33.1658 40.2995 33.1505 40.348 33.1039 40.3964C33.0716 40.4448 33.0088 40.461 32.9451 40.461H29.4013V41.8279C29.4013 41.8916 29.3842 41.941 29.3385 41.9894C29.2918 42.0369 29.2434 42.0522 29.1797 42.0522H28.0092C27.9464 42.0522 27.898 42.036 27.8495 41.9894C27.8029 41.9571 27.7885 41.8925 27.7885 41.8279V40.461H26.2207C26.1597 40.461 26.0951 40.4439 26.0619 40.365C26.0152 40.3318 26 40.2672 26 40.2036V39.286C26 39.2223 26.0161 39.1748 26.0619 39.1254C26.0951 39.077 26.1588 39.0617 26.2207 39.0617H27.7885V38.224H26.2207C26.1597 38.224 26.1103 38.2096 26.0619 38.1603C26.0152 38.1289 26 38.0643 26 37.9979V36.9386C26 36.875 26.0161 36.8265 26.0619 36.7781C26.0951 36.7297 26.1588 36.7135 26.2207 36.7135H27.7885V32.2251C27.7885 32.1606 27.8038 32.113 27.8495 32.0637C27.8809 32.0161 27.9455 32 28.0092 32H31.7899C32.7236 32 33.4986 32.2897 34.0843 32.8691C34.6691 33.4477 34.9696 34.2038 34.9696 35.1214C34.9696 36.039 34.6691 36.7933 34.0843 37.3719Z" fill="white"/>
<path fill-rule="evenodd" clip-rule="evenodd" d="M0 15.9946V0L22.5214 3.9969V8.99071L19.5214 13.9884L22.5214 18V24.0169C17.0389 24.2943 12.4524 27.9682 10.8238 32.9765H0V23.5L3 20.5L0 15.9946ZM6.85403 27.9783C7.39452 27.9783 7.83318 27.5317 7.83318 26.9791V23.9814C7.83318 23.4289 7.39452 22.9822 6.85403 22.9822H5.87488C5.33341 22.9822 4.89573 23.4289 4.89573 23.9814V26.9791C4.89573 27.5317 5.33341 27.9783 5.87488 27.9783H6.85403ZM6.85403 19.9845C7.39452 19.9845 7.83318 19.5379 7.83318 18.9853V15.9876C7.83318 15.435 7.39452 14.9884 6.85403 14.9884H5.87488C5.33341 14.9884 4.89573 15.435 4.89573 15.9876V18.9853C4.89573 19.5379 5.33341 19.9845 5.87488 19.9845H6.85403ZM6.85403 11.9907C7.39452 11.9907 7.83318 11.5441 7.83318 10.9915V7.99381C7.83318 7.44124 7.39452 6.99458 6.85403 6.99458H5.87488C5.33341 6.99458 4.89573 7.44124 4.89573 7.99381V10.9915C4.89573 11.5441 5.33341 11.9907 5.87488 11.9907H6.85403ZM11.7498 27.9783C12.2903 27.9783 12.7289 27.5317 12.7289 26.9791V23.9814C12.7289 23.4289 12.2903 22.9822 11.7498 22.9822H10.7706C10.2291 22.9822 9.79147 23.4289 9.79147 23.9814V26.9791C9.79147 27.5317 10.2291 27.9783 10.7706 27.9783H11.7498ZM11.7498 19.9845C12.2903 19.9845 12.7289 19.5379 12.7289 18.9853V15.9876C12.7289 15.435 12.2903 14.9884 11.7498 14.9884H10.7706C10.2291 14.9884 9.79147 15.435 9.79147 15.9876V18.9853C9.79147 19.5379 10.2291 19.9845 10.7706 19.9845H11.7498ZM11.7498 11.9907C12.2903 11.9907 12.7289 11.5441 12.7289 10.9915V7.99381C12.7289 7.44124 12.2903 6.99458 11.7498 6.99458H10.7706C10.2291 6.99458 9.79147 7.44124 9.79147 7.99381V10.9915C9.79147 11.5441 10.2291 11.9907 10.7706 11.9907H11.7498ZM16.6455 19.9845C17.187 19.9845 17.6246 19.5379 17.6246 18.9853V15.9876C17.6246 15.435 17.187 14.9884 16.6455 14.9884H15.6664C15.1249 14.9884 14.6872 15.435 14.6872 15.9876V18.9853C14.6872 19.5379 15.1249 19.9845 15.6664 19.9845H16.6455ZM16.6455 11.9907C17.187 11.9907 17.6246 11.5441 17.6246 10.9915V7.99381C17.6246 7.44124 17.187 6.99458 16.6455 6.99458H15.6664C15.1249 6.99458 14.6872 7.44124 14.6872 7.99381V10.9915C14.6872 11.5441 15.1249 11.9907 15.6664 11.9907H16.6455Z" fill="white"/>
</svg>
