<svg width="40" height="40" viewBox="0 0 40 40" fill="none" xmlns="http://www.w3.org/2000/svg">
<path d="M26.8405 11.4023C25.3884 11.4023 24.2094 12.593 24.2094 14.0616C24.2094 15.5301 24.2094 30.0159 24.2094 30.0159L22.452 28.4853C22.452 28.4853 20.8291 27.3557 18.8799 27.3557C17.8324 27.3557 16.6906 27.6826 15.6572 28.6863L24.2094 37.9945C24.2094 37.9945 25.8915 39.9919 29.9878 39.9919C30.035 39.9919 30.0832 39.9919 30.1304 39.9909C30.1304 39.9909 30.2298 39.9999 30.4076 39.9999C32.0114 39.9999 40.0263 39.3641 40.0001 26.6948L29.4757 21.3754C29.4757 21.3754 29.4757 15.5311 29.4757 14.0626C29.4736 12.593 28.2937 11.4023 26.8405 11.4023Z" fill="white"/>
<path d="M16.8482 36.5932C16.6655 36.8282 16.3913 36.9891 16.0679 36.9891H12.0509C11.4956 36.9891 11.0467 36.5423 11.0467 35.9894C11.0467 35.4366 11.4956 34.9897 12.0509 34.9897H15.368L13.5141 32.9823H2.98361V2.98212H25.1041V7.12291H28.1169L28.1189 2.11538C27.8086 1.0067 27.1869 0.301911 26.1516 0H1.96732C0.93194 0.301911 0.310312 1.0067 0 2.11438V36.8742C0 37.8819 0.726069 38.9885 1.86288 38.9885H19.0616L16.8482 36.5932Z" fill="white"/>
<path fill-rule="evenodd" clip-rule="evenodd" d="M19.164 10.2473C19.164 10.7993 18.689 11.2473 18.1036 11.2473H10.1831C9.59759 11.2473 9.12158 10.7993 9.12158 10.2473C9.12158 9.69531 9.59659 9.24731 10.1831 9.24731H18.1036C18.689 9.24731 19.164 9.69531 19.164 10.2473Z" fill="white"/>
<path fill-rule="evenodd" clip-rule="evenodd" d="M19.164 16.2456C19.164 16.7976 18.689 17.2456 18.1036 17.2456H10.1831C9.59759 17.2456 9.12158 16.7976 9.12158 16.2456C9.12158 15.6936 9.59659 15.2456 10.1831 15.2456H18.1036C18.689 15.2456 19.164 15.6936 19.164 16.2456Z" fill="white"/>
<path fill-rule="evenodd" clip-rule="evenodd" d="M19.164 22.2437C19.164 22.7967 18.689 23.2437 18.1036 23.2437H10.1831C9.59759 23.2437 9.12158 22.7967 9.12158 22.2437C9.12158 21.6907 9.59659 21.2437 10.1831 21.2437H18.1036C18.689 21.2437 19.164 21.6907 19.164 22.2437Z" fill="white"/>
</svg>
