<svg width="50" height="34" viewBox="0 0 50 34" fill="none" xmlns="http://www.w3.org/2000/svg">
<path fill-rule="evenodd" clip-rule="evenodd" d="M45.0007 0H34.0022C31.2406 0 29.0029 2.239 29.0029 5V15C29.0029 17.762 31.2406 20 34.0022 20H37.0018V25L42.834 20H45.0007C47.7623 20 50 17.762 50 15V5C50 2.239 47.7623 0 45.0007 0ZM39.5015 16C38.6736 16 38.0017 15.328 38.0017 14.5C38.0017 13.672 38.6736 13 39.5015 13C40.3294 13 41.0013 13.672 41.0013 14.5C41.0013 15.328 40.3294 16 39.5015 16ZM41.0013 10C41.0013 10.552 40.5543 11 40.0014 11H39.0015C38.4486 11 38.0017 10.552 38.0017 10V5C38.0017 4.448 38.4486 4 39.0015 4H40.0014C40.5543 4 41.0013 4.448 41.0013 5V10Z" fill="white"/>
<path d="M21.356 18.137C23.8837 16.324 25.5374 13.358 25.5374 10C25.5374 4.477 21.0811 0 15.5848 0C15.5578 0 15.5318 0.00400162 15.5048 0.00400162C15.4778 0.00400162 15.4518 0 15.4249 0C9.92862 0 5.47224 4.477 5.47224 10C5.47224 13.357 7.12501 16.323 9.65366 18.137C4.00144 20.438 0 26.004 0 32.5C0 33.328 0.666907 34 1.49279 34C2.31768 34 2.98558 33.328 2.98558 32.5C2.98558 26.499 7.21699 21.476 12.8402 20.275C12.9902 20.245 13.6631 20.135 13.8491 20.112C14.056 20.086 14.263 20.065 14.471 20.049C14.688 20.032 14.9069 20.021 15.1259 20.016C15.2509 20.011 15.3759 20.004 15.5018 20.003C15.6568 20.004 16.3087 20.033 16.4777 20.046C17.6066 20.136 18.7264 20.376 19.7912 20.752C19.9372 20.805 20.4762 21.017 20.6001 21.07C24.9665 23.012 28.0251 27.401 28.0251 32.5C28.0251 33.328 28.692 34 29.5169 34C30.3428 34 31.0097 33.328 31.0097 32.5C31.0097 26.004 27.0072 20.438 21.356 18.137ZM15.5048 16.996C11.7004 16.953 8.6168 13.833 8.6168 10C8.6168 6.167 11.7004 3.047 15.5048 3.004C19.3093 3.047 22.3929 6.167 22.3929 10C22.3929 13.833 19.3093 16.953 15.5048 16.996Z" fill="white"/>
</svg>
