<svg width="41" height="45" viewBox="0 0 41 45" fill="none" xmlns="http://www.w3.org/2000/svg">
<path fill-rule="evenodd" clip-rule="evenodd" d="M26.505 10.5446C26.505 13.9109 24.9208 16.6832 22.3466 18.6634C24.2919 19.4013 26.0327 20.5481 27.4843 21.9886C26.4395 22.3031 25.4499 22.7449 24.5333 23.2959C22.3559 21.4856 19.521 20.4456 16.406 20.4456C9.67332 20.4456 3.93075 25.9901 3.93075 32.9208C3.93075 33.7129 3.33669 34.505 2.54461 34.505C1.75253 34.505 0.960449 33.7129 0.960449 32.9208C0.960449 26.3862 5.11887 20.8416 10.6634 18.6634C8.08916 16.8812 6.505 13.9109 6.505 10.5446C6.505 5.00001 11.0595 0.445557 16.406 0.445557C21.9505 0.445557 26.505 5.00001 26.505 10.5446ZM9.4753 10.5446C9.4753 14.3069 12.6436 17.4753 16.406 17.4753C20.3664 17.4753 23.5347 14.3069 23.5347 10.5446C23.5347 6.58417 20.3664 3.41585 16.406 3.41585C12.6436 3.41585 9.4753 6.58417 9.4753 10.5446Z" fill="white"/>
<path fill-rule="evenodd" clip-rule="evenodd" d="M40.802 34.901C40.802 40.3692 36.3692 44.802 30.901 44.802C25.4328 44.802 21 40.3692 21 34.901C21 29.4328 25.4328 25 30.901 25C36.3692 25 40.802 29.4328 40.802 34.901ZM35.0843 35.3719C34.4833 35.9522 33.7236 36.241 32.7899 36.241H30.4013V37.094H33.9451C34.0079 37.094 34.0564 37.1102 34.1039 37.1568C34.1514 37.19 34.1658 37.2546 34.1658 37.3192V38.2359C34.1658 38.2995 34.1505 38.348 34.1039 38.3964C34.0716 38.4448 34.0088 38.461 33.9451 38.461H30.4013V39.8279C30.4013 39.8916 30.3842 39.941 30.3385 39.9894C30.2918 40.0369 30.2434 40.0522 30.1797 40.0522H29.0092C28.9464 40.0522 28.898 40.036 28.8495 39.9894C28.8029 39.9571 28.7885 39.8925 28.7885 39.8279V38.461H27.2207C27.1597 38.461 27.0951 38.4439 27.0619 38.365C27.0152 38.3318 27 38.2672 27 38.2036V37.286C27 37.2223 27.0161 37.1748 27.0619 37.1254C27.0951 37.077 27.1588 37.0617 27.2207 37.0617H28.7885V36.224H27.2207C27.1597 36.224 27.1103 36.2096 27.0619 36.1603C27.0152 36.1289 27 36.0643 27 35.9979V34.9386C27 34.875 27.0161 34.8265 27.0619 34.7781C27.0951 34.7297 27.1588 34.7135 27.2207 34.7135H28.7885V30.2251C28.7885 30.1606 28.8038 30.113 28.8495 30.0637C28.8809 30.0161 28.9455 30 29.0092 30H32.7899C33.7236 30 34.4986 30.2897 35.0843 30.8691C35.6691 31.4477 35.9696 32.2038 35.9696 33.1214C35.9696 34.039 35.6691 34.7933 35.0843 35.3719ZM32.6632 31.5285H30.4172V34.7135H32.6641C33.1691 34.7135 33.5656 34.5691 33.866 34.2794C34.1665 33.9897 34.3253 33.6031 34.3253 33.1215C34.3253 32.638 34.1665 32.2523 33.866 31.9635C33.5647 31.6729 33.1539 31.5285 32.6632 31.5285Z" fill="white"/>
</svg>
