<svg width="52" height="36" viewBox="0 0 52 36" fill="none" xmlns="http://www.w3.org/2000/svg">
<path d="M32.1082 18.9902C34.7741 17.0909 36.517 13.986 36.517 10.4702C36.517 4.68765 31.8188 0 26.0226 0C25.9948 0 25.8823 0 25.8544 0C20.0582 0 15.359 4.68765 15.359 10.4702C15.359 13.986 17.102 17.0909 19.7679 18.9902C13.8074 21.3985 9.58691 27.2282 9.58691 34.0288C9.58691 34.8957 10.2906 35.6 11.1617 35.6C12.0327 35.6 12.7364 34.8967 12.7364 34.0288C12.7364 29.522 15.0322 25.5406 18.5172 23.1852C18.5556 23.2006 18.6104 23.09 18.6479 23.1063C20.5245 21.8247 22.6982 21.0483 24.9776 20.8626C25.1084 20.8539 25.7583 20.8221 25.9534 20.8212C26.1476 20.8221 26.7985 20.8539 26.9292 20.8626C29.2086 21.0473 31.3823 21.8247 33.2589 23.1063C33.2974 23.09 33.3214 23.2006 33.3599 23.1852C36.8449 25.5396 39.1406 29.522 39.1406 34.0288C39.1406 34.8957 39.8444 35.6 40.7154 35.6C41.5864 35.6 42.2901 34.8967 42.2901 34.0288C42.2892 27.2282 38.0677 21.3994 32.1082 18.9902ZM18.6739 10.4702C18.6739 6.45707 21.9252 3.18957 25.938 3.14531C29.9499 3.18957 33.2022 6.45707 33.2022 10.4702C33.2022 14.4844 29.9499 17.7509 25.938 17.7952C21.9262 17.7509 18.6739 14.4844 18.6739 10.4702Z" fill="white"/>
<path d="M51.9904 30.5158C51.977 25.3826 48.8746 20.9865 44.4936 19.167C46.4567 17.7296 47.67 15.379 47.7402 12.7196C47.87 7.83278 42.9083 4.07361 38.6388 4.07361C38.4388 4.07361 38.2418 4.089 38.0456 4.1044C38.2908 4.64321 38.6503 5.52359 38.909 6.28177C39.0061 6.58485 39.1022 6.88793 39.1781 7.19967C42.0584 7.31898 44.3686 9.75229 44.3686 12.735C44.3686 15.7937 41.9421 18.2819 38.9589 18.2819C38.4936 18.2819 38.0437 18.2145 37.6121 18.101C38.6802 18.9015 39.6656 19.805 40.5462 20.8046C45.1195 21.585 48.6198 25.6568 48.6198 30.5639C48.6198 30.6533 48.6506 30.7322 48.6698 30.8159C48.7669 31.6492 49.4668 32.2986 50.3253 32.2986C51.2502 32.2986 52 31.5482 52 30.6226C52 30.585 51.9924 30.5513 51.9904 30.5158Z" fill="white"/>
<path d="M0.009614 30.5158C0.0230733 25.3826 3.12544 20.9865 7.50644 19.167C5.5433 17.7296 4.33005 15.379 4.25987 12.7196C4.13008 7.83278 9.09175 4.07361 13.3612 4.07361C13.5612 4.07361 13.7583 4.089 13.9544 4.1044C13.7093 4.64321 13.3497 5.52359 13.0911 6.28177C12.994 6.58485 12.8978 6.88793 12.8219 7.19967C9.94161 7.31898 7.63142 9.75229 7.63142 12.735C7.63142 15.7937 10.0579 18.2819 13.0411 18.2819C13.5064 18.2819 13.9563 18.2145 14.388 18.101C13.3199 18.9015 12.3345 19.805 11.4539 20.8046C6.88058 21.585 3.3802 25.6568 3.3802 30.5639C3.3802 30.6533 3.34944 30.7322 3.33021 30.8159C3.23311 31.6492 2.53323 32.2986 1.67472 32.2986C0.749874 32.2986 0 31.5482 0 30.6226C0 30.585 0.00769125 30.5513 0.009614 30.5158Z" fill="white"/>
</svg>
