<svg width="46" height="47" viewBox="0 0 46 47" fill="none" xmlns="http://www.w3.org/2000/svg">
<path fill-rule="evenodd" clip-rule="evenodd" d="M45.2744 22.888C41.8435 18.9477 37.1049 20.7945 35.0446 22.3499L30.9769 25.6202C30.9697 25.4318 30.9679 25.2443 30.9464 25.0479L30.8163 23.846H15.3286C14.8406 23.802 13.166 23.7662 11.6143 25.1367L4.86648 31.8845L4.70771 31.7302C4.25116 31.2853 3.54257 31.2629 3.12548 31.6791L0.292897 34.5225C-0.124188 34.9386 -0.0918992 35.6365 0.364652 36.0814L11.1129 46.5435C11.5703 46.9866 12.278 47.0108 12.696 46.5928L15.5277 43.7512C15.9448 43.3333 15.9134 42.6354 15.4559 42.1923L14.9402 41.69L16.6884 39.9912H29.6081L29.8072 39.9768C31.4083 39.7365 32.316 38.7471 32.3537 38.6996L40.7456 29.7506L46 23.7213L45.2744 22.888ZM38.7831 27.9083L30.3903 36.8617C30.3876 36.8653 30.0548 37.1891 29.4942 37.2994H15.6192L13.009 39.81L6.79403 33.7609L13.4557 27.0966C14.2038 26.4382 15.0496 26.5216 15.0613 26.5216L28.2582 26.536C27.912 28.9954 25.6005 29.9085 24.9287 30.1238H20.6386C19.8959 30.1238 19.2931 30.7265 19.2931 31.4692C19.2931 32.2119 19.8959 32.8146 20.6386 32.8146H25.1233L25.4651 32.7707C26.5594 32.4837 28.1174 31.7213 29.3014 30.392C29.3624 30.357 29.4234 30.322 29.4799 30.2763L36.6923 24.4738C37.0511 24.2083 39.9733 22.1552 42.4418 23.9177L38.7831 27.9083Z" fill="white"/>
<path fill-rule="evenodd" clip-rule="evenodd" d="M25.8534 9.81934H23.6074V13.0044H25.8543C26.3593 13.0044 26.7557 12.86 27.0562 12.5703C27.3567 12.2806 27.5155 11.894 27.5155 11.4123C27.5155 10.9289 27.3567 10.5432 27.0562 10.2544C26.7548 9.96375 26.344 9.81934 25.8534 9.81934Z" fill="white"/>
<path fill-rule="evenodd" clip-rule="evenodd" d="M28.0366 5.14693C29.4691 3.13596 30.505 1.87125 30.505 1.87125C27.0222 2.54217 25.1233 0.974294 25.1233 0.974294C21.1606 -1.21787 18.8446 0.974294 18.8446 0.974294L21.9983 4.91642C16.2058 6.48788 12.4269 13.1684 11.4528 21.6034C11.4349 21.7523 11.4268 21.8895 11.4133 22.033C12.8413 21.2841 14.1858 21.1397 14.9805 21.1397C15.1563 21.1397 15.3079 21.1468 15.4317 21.1549H30.8163H32.2362L33.3583 20.2526L33.3906 20.2266L33.4228 20.2023C33.9036 19.8391 35.2248 18.9439 37.0448 18.3645C35.1432 11.7611 32.4434 6.78926 28.0366 5.14693ZM28.2743 13.6626C27.6734 14.243 26.9136 14.5318 25.9799 14.5318H23.5913V15.3848H27.1352C27.198 15.3848 27.2464 15.4009 27.2939 15.4476C27.3415 15.4808 27.3558 15.5454 27.3558 15.6099V16.5266C27.3558 16.5903 27.3406 16.6387 27.2939 16.6872C27.2617 16.7356 27.1989 16.7518 27.1352 16.7518H23.5913V18.1187C23.5913 18.1824 23.5743 18.2317 23.5285 18.2802C23.4819 18.3277 23.4334 18.343 23.3698 18.343H22.1992C22.1364 18.343 22.088 18.3268 22.0396 18.2802C21.9929 18.2479 21.9786 18.1833 21.9786 18.1187V16.7518H20.4107C20.3497 16.7518 20.2851 16.7347 20.2519 16.6558C20.2053 16.6226 20.19 16.558 20.19 16.4943V15.5767C20.19 15.5131 20.2062 15.4655 20.2519 15.4162C20.2851 15.3678 20.3488 15.3525 20.4107 15.3525H21.9786V14.5147H20.4107C20.3497 14.5147 20.3004 14.5004 20.2519 14.4511C20.2053 14.4197 20.19 14.3551 20.19 14.2887V13.2294C20.19 13.1657 20.2062 13.1173 20.2519 13.0689C20.2851 13.0204 20.3488 13.0043 20.4107 13.0043H21.9786V8.5159C21.9786 8.45132 21.9938 8.40378 22.0396 8.35445C22.071 8.30691 22.1355 8.29077 22.1992 8.29077H25.9799C26.9136 8.29077 27.6886 8.58048 28.2743 9.15992C28.8591 9.73845 29.1596 10.4946 29.1596 11.4122C29.1596 12.3298 28.8591 13.0841 28.2743 13.6626Z" fill="white"/>
</svg>
