<svg width="46" height="42" viewBox="0 0 46 42" fill="none" xmlns="http://www.w3.org/2000/svg">
<path d="M20.048 4.79922H25.9331C27.0136 4.79922 27.8905 3.94075 27.8905 2.88298V1.91624C27.8905 0.858476 27.0136 0 25.9331 0H20.048C18.9675 0 18.0906 0.858476 18.0906 1.91624V2.88298C18.0906 3.94171 18.9685 4.79922 20.048 4.79922Z" fill="white"/>
<path d="M25.7011 6.69043H22.5007H20.4649C20.1439 6.69043 19.8836 6.94625 19.8836 7.26243L15.3364 31.226C15.3364 31.5412 15.5723 32.0011 15.9178 32.368L22.5016 41.7969C22.7444 42.0192 23.083 42.1121 23.083 41.7969C23.083 42.1121 23.4226 42.0192 23.6663 41.7969L30.2501 32.368C30.5947 32.0001 30.8315 31.5412 30.8315 31.226L26.2824 7.26243C26.2824 6.94625 26.0221 6.69043 25.7011 6.69043Z" fill="white"/>
<path d="M11.2552 8.14417C11.7582 8.14417 12.2427 7.89027 12.5148 7.44666L15.4509 2.65606C15.8679 1.97579 15.6428 1.09241 14.9479 0.68425C14.252 0.276091 13.3516 0.497417 12.9337 1.17672L10.6405 4.91818L2.01409 1.54081C1.26048 1.24571 0.406058 1.60405 0.105592 2.34084C-0.195854 3.07763 0.170188 3.91407 0.922823 4.20918L10.71 8.04166C10.8881 8.11064 11.0721 8.14417 11.2552 8.14417Z" fill="white"/>
<path d="M45.895 2.34073C45.5936 1.60393 44.7391 1.24464 43.9875 1.5407L35.3611 4.91807L33.0679 1.17661C32.65 0.495388 31.7467 0.275021 31.0537 0.684138C30.3578 1.0923 30.1327 1.97568 30.5497 2.65595L33.4858 7.44655C33.7579 7.89016 34.2414 8.14406 34.7454 8.14406C34.9275 8.14406 35.1115 8.11053 35.2896 8.04154L45.0768 4.20906C45.8294 3.91396 46.1955 3.07752 45.895 2.34073Z" fill="white"/>
</svg>
