<svg width="45" height="39" viewBox="0 0 45 39" fill="none" xmlns="http://www.w3.org/2000/svg">
<path fill-rule="evenodd" clip-rule="evenodd" d="M16.5 26.5C16.5 22.449 18.018 18.76 20.5 15.941V3.483H24.498V12.659C25.442 12.112 26.443 11.656 27.497 11.309L27.5 2.615C27.191 1.507 26.572 0.802 25.541 0.5H2.459C1.428 0.802 0.809 1.507 0.5 2.615V36.385C0.5 37.393 1.222 38.5 2.355 38.5H21.941C18.612 35.568 16.5 31.285 16.5 26.5ZM13.5 35.492H3.471V3.483H13.5V35.492Z" fill="white"/>
<path fill-rule="evenodd" clip-rule="evenodd" d="M32.5 14.5C25.873 14.5 20.5 19.873 20.5 26.5C20.5 33.127 25.873 38.5 32.5 38.5C39.127 38.5 44.5 33.127 44.5 26.5C44.5 19.873 39.127 14.5 32.5 14.5ZM37.314 27.372C36.511 28.125 35.495 28.5 34.246 28.5H31.488V29.482H35.229C35.313 29.482 35.378 29.503 35.441 29.565C35.503 29.607 35.524 29.692 35.524 29.774V31.216C35.524 31.298 35.503 31.361 35.441 31.424C35.398 31.486 35.313 31.507 35.229 31.507H31.488V33.158C31.488 33.241 31.465 33.304 31.403 33.366C31.34 33.428 31.276 33.449 31.191 33.449H29.814C29.73 33.449 29.664 33.428 29.601 33.366C29.539 33.325 29.517 33.241 29.517 33.158V31.507H27.795C27.712 31.507 27.627 31.486 27.582 31.382C27.52 31.339 27.499 31.255 27.499 31.172V29.793C27.499 29.708 27.52 29.647 27.582 29.584C27.627 29.522 27.712 29.501 27.795 29.501H29.517V28.478H27.795C27.712 28.478 27.646 28.458 27.582 28.394C27.52 28.353 27.499 28.269 27.499 28.184V26.806C27.499 26.723 27.52 26.661 27.581 26.597C27.626 26.534 27.711 26.513 27.794 26.513H29.517V20.808C29.517 20.724 29.538 20.662 29.599 20.599C29.642 20.538 29.728 20.516 29.812 20.516H34.246C35.495 20.516 36.532 20.83 37.314 21.583C38.097 22.334 38.5 23.253 38.5 24.445C38.5 25.637 38.098 26.619 37.314 27.372Z" fill="white"/>
<path fill-rule="evenodd" clip-rule="evenodd" d="M34.0768 22.502H31.5078V26.515H34.0768C34.7528 26.515 35.2828 26.327 35.6828 25.952C36.0848 25.575 36.2968 25.073 36.2968 24.446C36.2968 23.819 36.0848 23.381 35.6828 23.006C35.2828 22.628 34.7318 22.502 34.0768 22.502Z" fill="white"/>
</svg>
