<?xml version="1.0" standalone="no"?>
<svg xmlns:xlink="http://www.w3.org/1999/xlink" version="1.1" xmlns="http://www.w3.org/2000/svg" id="QRCodeGenerate" class="img-fluid mw-75" data-copyright="my-qrcode.net" data-modulecount="65" data-defaultsize="670" data-defaultclass="img-fluid mw-75" data-text="https://apps.apple.com/ru/app/%D0%BB%D0%BA-%D0%B4%D1%8D%D0%BA-%D0%BA%D0%B0%D0%BC%D1%87%D0%B0%D1%82%D1%81%D0%BA%D1%8D%D0%BD%D0%B5%D1%80%D0%B3%D0%BE%D1%81%D0%B1%D1%8B%D1%82/id1537351566" data-color="rgb(0, 0, 0)" data-backcolor="none" data-typeicon="none" data-framesize="none" data-framewidth="0" data-titlelocation="none" data-titlefont="sans-serif" data-titletext="" data-typenumber="0" data-errorcorrectionlevel="Q" data-mode="Byte" data-mb="UTF-8" width="670px" height="670px" x="0px" y="0px" viewBox="0 0 670 670" preserveAspectRatio="xMinYMin meet"><rect width="100%" height="100%" fill="none" x="0" y="0"/><path d="M10,10l10,0 0,10 -10,0 0,-10z M20,10l10,0 0,10 -10,0 0,-10z M30,10l10,0 0,10 -10,0 0,-10z M40,10l10,0 0,10 -10,0 0,-10z M50,10l10,0 0,10 -10,0 0,-10z M60,10l10,0 0,10 -10,0 0,-10z M70,10l10,0 0,10 -10,0 0,-10z M110,10l10,0 0,10 -10,0 0,-10z M160,10l10,0 0,10 -10,0 0,-10z M170,10l10,0 0,10 -10,0 0,-10z M180,10l10,0 0,10 -10,0 0,-10z M200,10l10,0 0,10 -10,0 0,-10z M210,10l10,0 0,10 -10,0 0,-10z M240,10l10,0 0,10 -10,0 0,-10z M250,10l10,0 0,10 -10,0 0,-10z M260,10l10,0 0,10 -10,0 0,-10z M270,10l10,0 0,10 -10,0 0,-10z M300,10l10,0 0,10 -10,0 0,-10z M350,10l10,0 0,10 -10,0 0,-10z M360,10l10,0 0,10 -10,0 0,-10z M380,10l10,0 0,10 -10,0 0,-10z M420,10l10,0 0,10 -10,0 0,-10z M450,10l10,0 0,10 -10,0 0,-10z M480,10l10,0 0,10 -10,0 0,-10z M490,10l10,0 0,10 -10,0 0,-10z M500,10l10,0 0,10 -10,0 0,-10z M560,10l10,0 0,10 -10,0 0,-10z M590,10l10,0 0,10 -10,0 0,-10z M600,10l10,0 0,10 -10,0 0,-10z M610,10l10,0 0,10 -10,0 0,-10z M620,10l10,0 0,10 -10,0 0,-10z M630,10l10,0 0,10 -10,0 0,-10z M640,10l10,0 0,10 -10,0 0,-10z M650,10l10,0 0,10 -10,0 0,-10z M10,20l10,0 0,10 -10,0 0,-10z M70,20l10,0 0,10 -10,0 0,-10z M90,20l10,0 0,10 -10,0 0,-10z M100,20l10,0 0,10 -10,0 0,-10z M110,20l10,0 0,10 -10,0 0,-10z M120,20l10,0 0,10 -10,0 0,-10z M130,20l10,0 0,10 -10,0 0,-10z M150,20l10,0 0,10 -10,0 0,-10z M160,20l10,0 0,10 -10,0 0,-10z M190,20l10,0 0,10 -10,0 0,-10z M200,20l10,0 0,10 -10,0 0,-10z M220,20l10,0 0,10 -10,0 0,-10z M250,20l10,0 0,10 -10,0 0,-10z M260,20l10,0 0,10 -10,0 0,-10z M280,20l10,0 0,10 -10,0 0,-10z M290,20l10,0 0,10 -10,0 0,-10z M300,20l10,0 0,10 -10,0 0,-10z M310,20l10,0 0,10 -10,0 0,-10z M320,20l10,0 0,10 -10,0 0,-10z M360,20l10,0 0,10 -10,0 0,-10z M390,20l10,0 0,10 -10,0 0,-10z M400,20l10,0 0,10 -10,0 0,-10z M420,20l10,0 0,10 -10,0 0,-10z M440,20l10,0 0,10 -10,0 0,-10z M510,20l10,0 0,10 -10,0 0,-10z M520,20l10,0 0,10 -10,0 0,-10z M570,20l10,0 0,10 -10,0 0,-10z M590,20l10,0 0,10 -10,0 0,-10z M650,20l10,0 0,10 -10,0 0,-10z M10,30l10,0 0,10 -10,0 0,-10z M30,30l10,0 0,10 -10,0 0,-10z M40,30l10,0 0,10 -10,0 0,-10z M50,30l10,0 0,10 -10,0 0,-10z M70,30l10,0 0,10 -10,0 0,-10z M90,30l10,0 0,10 -10,0 0,-10z M100,30l10,0 0,10 -10,0 0,-10z M130,30l10,0 0,10 -10,0 0,-10z M150,30l10,0 0,10 -10,0 0,-10z M180,30l10,0 0,10 -10,0 0,-10z M190,30l10,0 0,10 -10,0 0,-10z M200,30l10,0 0,10 -10,0 0,-10z M210,30l10,0 0,10 -10,0 0,-10z M220,30l10,0 0,10 -10,0 0,-10z M230,30l10,0 0,10 -10,0 0,-10z M240,30l10,0 0,10 -10,0 0,-10z M260,30l10,0 0,10 -10,0 0,-10z M270,30l10,0 0,10 -10,0 0,-10z M290,30l10,0 0,10 -10,0 0,-10z M300,30l10,0 0,10 -10,0 0,-10z M320,30l10,0 0,10 -10,0 0,-10z M340,30l10,0 0,10 -10,0 0,-10z M360,30l10,0 0,10 -10,0 0,-10z M450,30l10,0 0,10 -10,0 0,-10z M470,30l10,0 0,10 -10,0 0,-10z M480,30l10,0 0,10 -10,0 0,-10z M490,30l10,0 0,10 -10,0 0,-10z M530,30l10,0 0,10 -10,0 0,-10z M550,30l10,0 0,10 -10,0 0,-10z M570,30l10,0 0,10 -10,0 0,-10z M590,30l10,0 0,10 -10,0 0,-10z M610,30l10,0 0,10 -10,0 0,-10z M620,30l10,0 0,10 -10,0 0,-10z M630,30l10,0 0,10 -10,0 0,-10z M650,30l10,0 0,10 -10,0 0,-10z M10,40l10,0 0,10 -10,0 0,-10z M30,40l10,0 0,10 -10,0 0,-10z M40,40l10,0 0,10 -10,0 0,-10z M50,40l10,0 0,10 -10,0 0,-10z M70,40l10,0 0,10 -10,0 0,-10z M110,40l10,0 0,10 -10,0 0,-10z M150,40l10,0 0,10 -10,0 0,-10z M160,40l10,0 0,10 -10,0 0,-10z M170,40l10,0 0,10 -10,0 0,-10z M190,40l10,0 0,10 -10,0 0,-10z M210,40l10,0 0,10 -10,0 0,-10z M230,40l10,0 0,10 -10,0 0,-10z M270,40l10,0 0,10 -10,0 0,-10z M300,40l10,0 0,10 -10,0 0,-10z M320,40l10,0 0,10 -10,0 0,-10z M330,40l10,0 0,10 -10,0 0,-10z M340,40l10,0 0,10 -10,0 0,-10z M370,40l10,0 0,10 -10,0 0,-10z M420,40l10,0 0,10 -10,0 0,-10z M430,40l10,0 0,10 -10,0 0,-10z M490,40l10,0 0,10 -10,0 0,-10z M500,40l10,0 0,10 -10,0 0,-10z M550,40l10,0 0,10 -10,0 0,-10z M560,40l10,0 0,10 -10,0 0,-10z M590,40l10,0 0,10 -10,0 0,-10z M610,40l10,0 0,10 -10,0 0,-10z M620,40l10,0 0,10 -10,0 0,-10z M630,40l10,0 0,10 -10,0 0,-10z M650,40l10,0 0,10 -10,0 0,-10z M10,50l10,0 0,10 -10,0 0,-10z M30,50l10,0 0,10 -10,0 0,-10z M40,50l10,0 0,10 -10,0 0,-10z M50,50l10,0 0,10 -10,0 0,-10z M70,50l10,0 0,10 -10,0 0,-10z M100,50l10,0 0,10 -10,0 0,-10z M110,50l10,0 0,10 -10,0 0,-10z M120,50l10,0 0,10 -10,0 0,-10z M160,50l10,0 0,10 -10,0 0,-10z M240,50l10,0 0,10 -10,0 0,-10z M280,50l10,0 0,10 -10,0 0,-10z M290,50l10,0 0,10 -10,0 0,-10z M300,50l10,0 0,10 -10,0 0,-10z M310,50l10,0 0,10 -10,0 0,-10z M320,50l10,0 0,10 -10,0 0,-10z M330,50l10,0 0,10 -10,0 0,-10z M340,50l10,0 0,10 -10,0 0,-10z M350,50l10,0 0,10 -10,0 0,-10z M370,50l10,0 0,10 -10,0 0,-10z M390,50l10,0 0,10 -10,0 0,-10z M440,50l10,0 0,10 -10,0 0,-10z M500,50l10,0 0,10 -10,0 0,-10z M510,50l10,0 0,10 -10,0 0,-10z M520,50l10,0 0,10 -10,0 0,-10z M570,50l10,0 0,10 -10,0 0,-10z M590,50l10,0 0,10 -10,0 0,-10z M610,50l10,0 0,10 -10,0 0,-10z M620,50l10,0 0,10 -10,0 0,-10z M630,50l10,0 0,10 -10,0 0,-10z M650,50l10,0 0,10 -10,0 0,-10z M10,60l10,0 0,10 -10,0 0,-10z M70,60l10,0 0,10 -10,0 0,-10z M110,60l10,0 0,10 -10,0 0,-10z M130,60l10,0 0,10 -10,0 0,-10z M160,60l10,0 0,10 -10,0 0,-10z M180,60l10,0 0,10 -10,0 0,-10z M190,60l10,0 0,10 -10,0 0,-10z M200,60l10,0 0,10 -10,0 0,-10z M210,60l10,0 0,10 -10,0 0,-10z M240,60l10,0 0,10 -10,0 0,-10z M250,60l10,0 0,10 -10,0 0,-10z M260,60l10,0 0,10 -10,0 0,-10z M270,60l10,0 0,10 -10,0 0,-10z M300,60l10,0 0,10 -10,0 0,-10z M310,60l10,0 0,10 -10,0 0,-10z M350,60l10,0 0,10 -10,0 0,-10z M360,60l10,0 0,10 -10,0 0,-10z M370,60l10,0 0,10 -10,0 0,-10z M390,60l10,0 0,10 -10,0 0,-10z M400,60l10,0 0,10 -10,0 0,-10z M420,60l10,0 0,10 -10,0 0,-10z M430,60l10,0 0,10 -10,0 0,-10z M460,60l10,0 0,10 -10,0 0,-10z M480,60l10,0 0,10 -10,0 0,-10z M500,60l10,0 0,10 -10,0 0,-10z M520,60l10,0 0,10 -10,0 0,-10z M530,60l10,0 0,10 -10,0 0,-10z M540,60l10,0 0,10 -10,0 0,-10z M550,60l10,0 0,10 -10,0 0,-10z M590,60l10,0 0,10 -10,0 0,-10z M650,60l10,0 0,10 -10,0 0,-10z M10,70l10,0 0,10 -10,0 0,-10z M20,70l10,0 0,10 -10,0 0,-10z M30,70l10,0 0,10 -10,0 0,-10z M40,70l10,0 0,10 -10,0 0,-10z M50,70l10,0 0,10 -10,0 0,-10z M60,70l10,0 0,10 -10,0 0,-10z M70,70l10,0 0,10 -10,0 0,-10z M90,70l10,0 0,10 -10,0 0,-10z M110,70l10,0 0,10 -10,0 0,-10z M130,70l10,0 0,10 -10,0 0,-10z M150,70l10,0 0,10 -10,0 0,-10z M170,70l10,0 0,10 -10,0 0,-10z M190,70l10,0 0,10 -10,0 0,-10z M210,70l10,0 0,10 -10,0 0,-10z M230,70l10,0 0,10 -10,0 0,-10z M250,70l10,0 0,10 -10,0 0,-10z M270,70l10,0 0,10 -10,0 0,-10z M290,70l10,0 0,10 -10,0 0,-10z M310,70l10,0 0,10 -10,0 0,-10z M330,70l10,0 0,10 -10,0 0,-10z M350,70l10,0 0,10 -10,0 0,-10z M370,70l10,0 0,10 -10,0 0,-10z M390,70l10,0 0,10 -10,0 0,-10z M410,70l10,0 0,10 -10,0 0,-10z M430,70l10,0 0,10 -10,0 0,-10z M450,70l10,0 0,10 -10,0 0,-10z M470,70l10,0 0,10 -10,0 0,-10z M490,70l10,0 0,10 -10,0 0,-10z M510,70l10,0 0,10 -10,0 0,-10z M530,70l10,0 0,10 -10,0 0,-10z M550,70l10,0 0,10 -10,0 0,-10z M570,70l10,0 0,10 -10,0 0,-10z M590,70l10,0 0,10 -10,0 0,-10z M600,70l10,0 0,10 -10,0 0,-10z M610,70l10,0 0,10 -10,0 0,-10z M620,70l10,0 0,10 -10,0 0,-10z M630,70l10,0 0,10 -10,0 0,-10z M640,70l10,0 0,10 -10,0 0,-10z M650,70l10,0 0,10 -10,0 0,-10z M110,80l10,0 0,10 -10,0 0,-10z M140,80l10,0 0,10 -10,0 0,-10z M150,80l10,0 0,10 -10,0 0,-10z M160,80l10,0 0,10 -10,0 0,-10z M170,80l10,0 0,10 -10,0 0,-10z M180,80l10,0 0,10 -10,0 0,-10z M190,80l10,0 0,10 -10,0 0,-10z M200,80l10,0 0,10 -10,0 0,-10z M230,80l10,0 0,10 -10,0 0,-10z M270,80l10,0 0,10 -10,0 0,-10z M280,80l10,0 0,10 -10,0 0,-10z M300,80l10,0 0,10 -10,0 0,-10z M310,80l10,0 0,10 -10,0 0,-10z M350,80l10,0 0,10 -10,0 0,-10z M360,80l10,0 0,10 -10,0 0,-10z M370,80l10,0 0,10 -10,0 0,-10z M390,80l10,0 0,10 -10,0 0,-10z M400,80l10,0 0,10 -10,0 0,-10z M450,80l10,0 0,10 -10,0 0,-10z M480,80l10,0 0,10 -10,0 0,-10z M500,80l10,0 0,10 -10,0 0,-10z M510,80l10,0 0,10 -10,0 0,-10z M560,80l10,0 0,10 -10,0 0,-10z M570,80l10,0 0,10 -10,0 0,-10z M20,90l10,0 0,10 -10,0 0,-10z M30,90l10,0 0,10 -10,0 0,-10z M40,90l10,0 0,10 -10,0 0,-10z M60,90l10,0 0,10 -10,0 0,-10z M70,90l10,0 0,10 -10,0 0,-10z M100,90l10,0 0,10 -10,0 0,-10z M140,90l10,0 0,10 -10,0 0,-10z M150,90l10,0 0,10 -10,0 0,-10z M160,90l10,0 0,10 -10,0 0,-10z M180,90l10,0 0,10 -10,0 0,-10z M210,90l10,0 0,10 -10,0 0,-10z M220,90l10,0 0,10 -10,0 0,-10z M230,90l10,0 0,10 -10,0 0,-10z M240,90l10,0 0,10 -10,0 0,-10z M260,90l10,0 0,10 -10,0 0,-10z M280,90l10,0 0,10 -10,0 0,-10z M290,90l10,0 0,10 -10,0 0,-10z M300,90l10,0 0,10 -10,0 0,-10z M310,90l10,0 0,10 -10,0 0,-10z M320,90l10,0 0,10 -10,0 0,-10z M330,90l10,0 0,10 -10,0 0,-10z M340,90l10,0 0,10 -10,0 0,-10z M350,90l10,0 0,10 -10,0 0,-10z M380,90l10,0 0,10 -10,0 0,-10z M410,90l10,0 0,10 -10,0 0,-10z M420,90l10,0 0,10 -10,0 0,-10z M460,90l10,0 0,10 -10,0 0,-10z M470,90l10,0 0,10 -10,0 0,-10z M480,90l10,0 0,10 -10,0 0,-10z M520,90l10,0 0,10 -10,0 0,-10z M530,90l10,0 0,10 -10,0 0,-10z M540,90l10,0 0,10 -10,0 0,-10z M570,90l10,0 0,10 -10,0 0,-10z M630,90l10,0 0,10 -10,0 0,-10z M640,90l10,0 0,10 -10,0 0,-10z M30,100l10,0 0,10 -10,0 0,-10z M140,100l10,0 0,10 -10,0 0,-10z M170,100l10,0 0,10 -10,0 0,-10z M200,100l10,0 0,10 -10,0 0,-10z M210,100l10,0 0,10 -10,0 0,-10z M220,100l10,0 0,10 -10,0 0,-10z M240,100l10,0 0,10 -10,0 0,-10z M250,100l10,0 0,10 -10,0 0,-10z M270,100l10,0 0,10 -10,0 0,-10z M290,100l10,0 0,10 -10,0 0,-10z M370,100l10,0 0,10 -10,0 0,-10z M420,100l10,0 0,10 -10,0 0,-10z M430,100l10,0 0,10 -10,0 0,-10z M440,100l10,0 0,10 -10,0 0,-10z M460,100l10,0 0,10 -10,0 0,-10z M480,100l10,0 0,10 -10,0 0,-10z M490,100l10,0 0,10 -10,0 0,-10z M520,100l10,0 0,10 -10,0 0,-10z M530,100l10,0 0,10 -10,0 0,-10z M540,100l10,0 0,10 -10,0 0,-10z M550,100l10,0 0,10 -10,0 0,-10z M590,100l10,0 0,10 -10,0 0,-10z M640,100l10,0 0,10 -10,0 0,-10z M10,110l10,0 0,10 -10,0 0,-10z M40,110l10,0 0,10 -10,0 0,-10z M50,110l10,0 0,10 -10,0 0,-10z M70,110l10,0 0,10 -10,0 0,-10z M80,110l10,0 0,10 -10,0 0,-10z M100,110l10,0 0,10 -10,0 0,-10z M110,110l10,0 0,10 -10,0 0,-10z M120,110l10,0 0,10 -10,0 0,-10z M130,110l10,0 0,10 -10,0 0,-10z M140,110l10,0 0,10 -10,0 0,-10z M150,110l10,0 0,10 -10,0 0,-10z M170,110l10,0 0,10 -10,0 0,-10z M180,110l10,0 0,10 -10,0 0,-10z M210,110l10,0 0,10 -10,0 0,-10z M250,110l10,0 0,10 -10,0 0,-10z M280,110l10,0 0,10 -10,0 0,-10z M290,110l10,0 0,10 -10,0 0,-10z M300,110l10,0 0,10 -10,0 0,-10z M310,110l10,0 0,10 -10,0 0,-10z M360,110l10,0 0,10 -10,0 0,-10z M370,110l10,0 0,10 -10,0 0,-10z M420,110l10,0 0,10 -10,0 0,-10z M440,110l10,0 0,10 -10,0 0,-10z M450,110l10,0 0,10 -10,0 0,-10z M460,110l10,0 0,10 -10,0 0,-10z M500,110l10,0 0,10 -10,0 0,-10z M540,110l10,0 0,10 -10,0 0,-10z M570,110l10,0 0,10 -10,0 0,-10z M610,110l10,0 0,10 -10,0 0,-10z M640,110l10,0 0,10 -10,0 0,-10z M60,120l10,0 0,10 -10,0 0,-10z M90,120l10,0 0,10 -10,0 0,-10z M100,120l10,0 0,10 -10,0 0,-10z M110,120l10,0 0,10 -10,0 0,-10z M120,120l10,0 0,10 -10,0 0,-10z M150,120l10,0 0,10 -10,0 0,-10z M160,120l10,0 0,10 -10,0 0,-10z M170,120l10,0 0,10 -10,0 0,-10z M180,120l10,0 0,10 -10,0 0,-10z M190,120l10,0 0,10 -10,0 0,-10z M210,120l10,0 0,10 -10,0 0,-10z M220,120l10,0 0,10 -10,0 0,-10z M230,120l10,0 0,10 -10,0 0,-10z M240,120l10,0 0,10 -10,0 0,-10z M250,120l10,0 0,10 -10,0 0,-10z M270,120l10,0 0,10 -10,0 0,-10z M280,120l10,0 0,10 -10,0 0,-10z M300,120l10,0 0,10 -10,0 0,-10z M310,120l10,0 0,10 -10,0 0,-10z M320,120l10,0 0,10 -10,0 0,-10z M330,120l10,0 0,10 -10,0 0,-10z M340,120l10,0 0,10 -10,0 0,-10z M360,120l10,0 0,10 -10,0 0,-10z M380,120l10,0 0,10 -10,0 0,-10z M390,120l10,0 0,10 -10,0 0,-10z M400,120l10,0 0,10 -10,0 0,-10z M430,120l10,0 0,10 -10,0 0,-10z M440,120l10,0 0,10 -10,0 0,-10z M470,120l10,0 0,10 -10,0 0,-10z M510,120l10,0 0,10 -10,0 0,-10z M530,120l10,0 0,10 -10,0 0,-10z M540,120l10,0 0,10 -10,0 0,-10z M580,120l10,0 0,10 -10,0 0,-10z M590,120l10,0 0,10 -10,0 0,-10z M640,120l10,0 0,10 -10,0 0,-10z M650,120l10,0 0,10 -10,0 0,-10z M10,130l10,0 0,10 -10,0 0,-10z M50,130l10,0 0,10 -10,0 0,-10z M70,130l10,0 0,10 -10,0 0,-10z M100,130l10,0 0,10 -10,0 0,-10z M110,130l10,0 0,10 -10,0 0,-10z M140,130l10,0 0,10 -10,0 0,-10z M160,130l10,0 0,10 -10,0 0,-10z M180,130l10,0 0,10 -10,0 0,-10z M190,130l10,0 0,10 -10,0 0,-10z M200,130l10,0 0,10 -10,0 0,-10z M230,130l10,0 0,10 -10,0 0,-10z M280,130l10,0 0,10 -10,0 0,-10z M290,130l10,0 0,10 -10,0 0,-10z M310,130l10,0 0,10 -10,0 0,-10z M320,130l10,0 0,10 -10,0 0,-10z M330,130l10,0 0,10 -10,0 0,-10z M340,130l10,0 0,10 -10,0 0,-10z M400,130l10,0 0,10 -10,0 0,-10z M430,130l10,0 0,10 -10,0 0,-10z M440,130l10,0 0,10 -10,0 0,-10z M460,130l10,0 0,10 -10,0 0,-10z M480,130l10,0 0,10 -10,0 0,-10z M490,130l10,0 0,10 -10,0 0,-10z M500,130l10,0 0,10 -10,0 0,-10z M510,130l10,0 0,10 -10,0 0,-10z M540,130l10,0 0,10 -10,0 0,-10z M550,130l10,0 0,10 -10,0 0,-10z M580,130l10,0 0,10 -10,0 0,-10z M600,130l10,0 0,10 -10,0 0,-10z M610,130l10,0 0,10 -10,0 0,-10z M10,140l10,0 0,10 -10,0 0,-10z M20,140l10,0 0,10 -10,0 0,-10z M50,140l10,0 0,10 -10,0 0,-10z M90,140l10,0 0,10 -10,0 0,-10z M100,140l10,0 0,10 -10,0 0,-10z M110,140l10,0 0,10 -10,0 0,-10z M150,140l10,0 0,10 -10,0 0,-10z M160,140l10,0 0,10 -10,0 0,-10z M220,140l10,0 0,10 -10,0 0,-10z M230,140l10,0 0,10 -10,0 0,-10z M280,140l10,0 0,10 -10,0 0,-10z M290,140l10,0 0,10 -10,0 0,-10z M300,140l10,0 0,10 -10,0 0,-10z M310,140l10,0 0,10 -10,0 0,-10z M390,140l10,0 0,10 -10,0 0,-10z M400,140l10,0 0,10 -10,0 0,-10z M440,140l10,0 0,10 -10,0 0,-10z M450,140l10,0 0,10 -10,0 0,-10z M460,140l10,0 0,10 -10,0 0,-10z M500,140l10,0 0,10 -10,0 0,-10z M510,140l10,0 0,10 -10,0 0,-10z M520,140l10,0 0,10 -10,0 0,-10z M560,140l10,0 0,10 -10,0 0,-10z M570,140l10,0 0,10 -10,0 0,-10z M580,140l10,0 0,10 -10,0 0,-10z M620,140l10,0 0,10 -10,0 0,-10z M630,140l10,0 0,10 -10,0 0,-10z M650,140l10,0 0,10 -10,0 0,-10z M20,150l10,0 0,10 -10,0 0,-10z M30,150l10,0 0,10 -10,0 0,-10z M60,150l10,0 0,10 -10,0 0,-10z M70,150l10,0 0,10 -10,0 0,-10z M100,150l10,0 0,10 -10,0 0,-10z M110,150l10,0 0,10 -10,0 0,-10z M120,150l10,0 0,10 -10,0 0,-10z M130,150l10,0 0,10 -10,0 0,-10z M160,150l10,0 0,10 -10,0 0,-10z M190,150l10,0 0,10 -10,0 0,-10z M220,150l10,0 0,10 -10,0 0,-10z M230,150l10,0 0,10 -10,0 0,-10z M240,150l10,0 0,10 -10,0 0,-10z M250,150l10,0 0,10 -10,0 0,-10z M260,150l10,0 0,10 -10,0 0,-10z M290,150l10,0 0,10 -10,0 0,-10z M320,150l10,0 0,10 -10,0 0,-10z M390,150l10,0 0,10 -10,0 0,-10z M410,150l10,0 0,10 -10,0 0,-10z M460,150l10,0 0,10 -10,0 0,-10z M480,150l10,0 0,10 -10,0 0,-10z M500,150l10,0 0,10 -10,0 0,-10z M510,150l10,0 0,10 -10,0 0,-10z M520,150l10,0 0,10 -10,0 0,-10z M530,150l10,0 0,10 -10,0 0,-10z M580,150l10,0 0,10 -10,0 0,-10z M600,150l10,0 0,10 -10,0 0,-10z M620,150l10,0 0,10 -10,0 0,-10z M650,150l10,0 0,10 -10,0 0,-10z M10,160l10,0 0,10 -10,0 0,-10z M50,160l10,0 0,10 -10,0 0,-10z M60,160l10,0 0,10 -10,0 0,-10z M80,160l10,0 0,10 -10,0 0,-10z M90,160l10,0 0,10 -10,0 0,-10z M100,160l10,0 0,10 -10,0 0,-10z M110,160l10,0 0,10 -10,0 0,-10z M120,160l10,0 0,10 -10,0 0,-10z M130,160l10,0 0,10 -10,0 0,-10z M140,160l10,0 0,10 -10,0 0,-10z M210,160l10,0 0,10 -10,0 0,-10z M220,160l10,0 0,10 -10,0 0,-10z M240,160l10,0 0,10 -10,0 0,-10z M260,160l10,0 0,10 -10,0 0,-10z M270,160l10,0 0,10 -10,0 0,-10z M310,160l10,0 0,10 -10,0 0,-10z M320,160l10,0 0,10 -10,0 0,-10z M360,160l10,0 0,10 -10,0 0,-10z M370,160l10,0 0,10 -10,0 0,-10z M380,160l10,0 0,10 -10,0 0,-10z M400,160l10,0 0,10 -10,0 0,-10z M430,160l10,0 0,10 -10,0 0,-10z M440,160l10,0 0,10 -10,0 0,-10z M450,160l10,0 0,10 -10,0 0,-10z M480,160l10,0 0,10 -10,0 0,-10z M500,160l10,0 0,10 -10,0 0,-10z M510,160l10,0 0,10 -10,0 0,-10z M530,160l10,0 0,10 -10,0 0,-10z M540,160l10,0 0,10 -10,0 0,-10z M550,160l10,0 0,10 -10,0 0,-10z M560,160l10,0 0,10 -10,0 0,-10z M590,160l10,0 0,10 -10,0 0,-10z M610,160l10,0 0,10 -10,0 0,-10z M640,160l10,0 0,10 -10,0 0,-10z M20,170l10,0 0,10 -10,0 0,-10z M30,170l10,0 0,10 -10,0 0,-10z M40,170l10,0 0,10 -10,0 0,-10z M50,170l10,0 0,10 -10,0 0,-10z M60,170l10,0 0,10 -10,0 0,-10z M70,170l10,0 0,10 -10,0 0,-10z M80,170l10,0 0,10 -10,0 0,-10z M100,170l10,0 0,10 -10,0 0,-10z M110,170l10,0 0,10 -10,0 0,-10z M120,170l10,0 0,10 -10,0 0,-10z M140,170l10,0 0,10 -10,0 0,-10z M170,170l10,0 0,10 -10,0 0,-10z M210,170l10,0 0,10 -10,0 0,-10z M220,170l10,0 0,10 -10,0 0,-10z M240,170l10,0 0,10 -10,0 0,-10z M250,170l10,0 0,10 -10,0 0,-10z M270,170l10,0 0,10 -10,0 0,-10z M300,170l10,0 0,10 -10,0 0,-10z M310,170l10,0 0,10 -10,0 0,-10z M330,170l10,0 0,10 -10,0 0,-10z M350,170l10,0 0,10 -10,0 0,-10z M390,170l10,0 0,10 -10,0 0,-10z M400,170l10,0 0,10 -10,0 0,-10z M420,170l10,0 0,10 -10,0 0,-10z M450,170l10,0 0,10 -10,0 0,-10z M460,170l10,0 0,10 -10,0 0,-10z M480,170l10,0 0,10 -10,0 0,-10z M520,170l10,0 0,10 -10,0 0,-10z M560,170l10,0 0,10 -10,0 0,-10z M580,170l10,0 0,10 -10,0 0,-10z M620,170l10,0 0,10 -10,0 0,-10z M10,180l10,0 0,10 -10,0 0,-10z M20,180l10,0 0,10 -10,0 0,-10z M40,180l10,0 0,10 -10,0 0,-10z M50,180l10,0 0,10 -10,0 0,-10z M110,180l10,0 0,10 -10,0 0,-10z M140,180l10,0 0,10 -10,0 0,-10z M190,180l10,0 0,10 -10,0 0,-10z M200,180l10,0 0,10 -10,0 0,-10z M240,180l10,0 0,10 -10,0 0,-10z M270,180l10,0 0,10 -10,0 0,-10z M290,180l10,0 0,10 -10,0 0,-10z M300,180l10,0 0,10 -10,0 0,-10z M320,180l10,0 0,10 -10,0 0,-10z M340,180l10,0 0,10 -10,0 0,-10z M350,180l10,0 0,10 -10,0 0,-10z M360,180l10,0 0,10 -10,0 0,-10z M370,180l10,0 0,10 -10,0 0,-10z M380,180l10,0 0,10 -10,0 0,-10z M400,180l10,0 0,10 -10,0 0,-10z M410,180l10,0 0,10 -10,0 0,-10z M460,180l10,0 0,10 -10,0 0,-10z M470,180l10,0 0,10 -10,0 0,-10z M510,180l10,0 0,10 -10,0 0,-10z M520,180l10,0 0,10 -10,0 0,-10z M530,180l10,0 0,10 -10,0 0,-10z M540,180l10,0 0,10 -10,0 0,-10z M590,180l10,0 0,10 -10,0 0,-10z M600,180l10,0 0,10 -10,0 0,-10z M620,180l10,0 0,10 -10,0 0,-10z M20,190l10,0 0,10 -10,0 0,-10z M30,190l10,0 0,10 -10,0 0,-10z M40,190l10,0 0,10 -10,0 0,-10z M70,190l10,0 0,10 -10,0 0,-10z M90,190l10,0 0,10 -10,0 0,-10z M100,190l10,0 0,10 -10,0 0,-10z M120,190l10,0 0,10 -10,0 0,-10z M140,190l10,0 0,10 -10,0 0,-10z M160,190l10,0 0,10 -10,0 0,-10z M170,190l10,0 0,10 -10,0 0,-10z M180,190l10,0 0,10 -10,0 0,-10z M200,190l10,0 0,10 -10,0 0,-10z M220,190l10,0 0,10 -10,0 0,-10z M250,190l10,0 0,10 -10,0 0,-10z M260,190l10,0 0,10 -10,0 0,-10z M270,190l10,0 0,10 -10,0 0,-10z M280,190l10,0 0,10 -10,0 0,-10z M310,190l10,0 0,10 -10,0 0,-10z M330,190l10,0 0,10 -10,0 0,-10z M340,190l10,0 0,10 -10,0 0,-10z M350,190l10,0 0,10 -10,0 0,-10z M380,190l10,0 0,10 -10,0 0,-10z M390,190l10,0 0,10 -10,0 0,-10z M440,190l10,0 0,10 -10,0 0,-10z M460,190l10,0 0,10 -10,0 0,-10z M480,190l10,0 0,10 -10,0 0,-10z M490,190l10,0 0,10 -10,0 0,-10z M520,190l10,0 0,10 -10,0 0,-10z M550,190l10,0 0,10 -10,0 0,-10z M570,190l10,0 0,10 -10,0 0,-10z M580,190l10,0 0,10 -10,0 0,-10z M590,190l10,0 0,10 -10,0 0,-10z M600,190l10,0 0,10 -10,0 0,-10z M610,190l10,0 0,10 -10,0 0,-10z M630,190l10,0 0,10 -10,0 0,-10z M20,200l10,0 0,10 -10,0 0,-10z M80,200l10,0 0,10 -10,0 0,-10z M100,200l10,0 0,10 -10,0 0,-10z M130,200l10,0 0,10 -10,0 0,-10z M140,200l10,0 0,10 -10,0 0,-10z M150,200l10,0 0,10 -10,0 0,-10z M160,200l10,0 0,10 -10,0 0,-10z M180,200l10,0 0,10 -10,0 0,-10z M200,200l10,0 0,10 -10,0 0,-10z M220,200l10,0 0,10 -10,0 0,-10z M230,200l10,0 0,10 -10,0 0,-10z M240,200l10,0 0,10 -10,0 0,-10z M250,200l10,0 0,10 -10,0 0,-10z M260,200l10,0 0,10 -10,0 0,-10z M290,200l10,0 0,10 -10,0 0,-10z M320,200l10,0 0,10 -10,0 0,-10z M340,200l10,0 0,10 -10,0 0,-10z M350,200l10,0 0,10 -10,0 0,-10z M390,200l10,0 0,10 -10,0 0,-10z M450,200l10,0 0,10 -10,0 0,-10z M460,200l10,0 0,10 -10,0 0,-10z M480,200l10,0 0,10 -10,0 0,-10z M500,200l10,0 0,10 -10,0 0,-10z M530,200l10,0 0,10 -10,0 0,-10z M570,200l10,0 0,10 -10,0 0,-10z M600,200l10,0 0,10 -10,0 0,-10z M620,200l10,0 0,10 -10,0 0,-10z M630,200l10,0 0,10 -10,0 0,-10z M650,200l10,0 0,10 -10,0 0,-10z M10,210l10,0 0,10 -10,0 0,-10z M30,210l10,0 0,10 -10,0 0,-10z M50,210l10,0 0,10 -10,0 0,-10z M60,210l10,0 0,10 -10,0 0,-10z M70,210l10,0 0,10 -10,0 0,-10z M80,210l10,0 0,10 -10,0 0,-10z M90,210l10,0 0,10 -10,0 0,-10z M100,210l10,0 0,10 -10,0 0,-10z M110,210l10,0 0,10 -10,0 0,-10z M130,210l10,0 0,10 -10,0 0,-10z M150,210l10,0 0,10 -10,0 0,-10z M180,210l10,0 0,10 -10,0 0,-10z M220,210l10,0 0,10 -10,0 0,-10z M240,210l10,0 0,10 -10,0 0,-10z M250,210l10,0 0,10 -10,0 0,-10z M270,210l10,0 0,10 -10,0 0,-10z M280,210l10,0 0,10 -10,0 0,-10z M300,210l10,0 0,10 -10,0 0,-10z M320,210l10,0 0,10 -10,0 0,-10z M340,210l10,0 0,10 -10,0 0,-10z M350,210l10,0 0,10 -10,0 0,-10z M370,210l10,0 0,10 -10,0 0,-10z M380,210l10,0 0,10 -10,0 0,-10z M390,210l10,0 0,10 -10,0 0,-10z M400,210l10,0 0,10 -10,0 0,-10z M410,210l10,0 0,10 -10,0 0,-10z M470,210l10,0 0,10 -10,0 0,-10z M480,210l10,0 0,10 -10,0 0,-10z M510,210l10,0 0,10 -10,0 0,-10z M530,210l10,0 0,10 -10,0 0,-10z M540,210l10,0 0,10 -10,0 0,-10z M570,210l10,0 0,10 -10,0 0,-10z M580,210l10,0 0,10 -10,0 0,-10z M590,210l10,0 0,10 -10,0 0,-10z M600,210l10,0 0,10 -10,0 0,-10z M620,210l10,0 0,10 -10,0 0,-10z M640,210l10,0 0,10 -10,0 0,-10z M20,220l10,0 0,10 -10,0 0,-10z M30,220l10,0 0,10 -10,0 0,-10z M60,220l10,0 0,10 -10,0 0,-10z M80,220l10,0 0,10 -10,0 0,-10z M90,220l10,0 0,10 -10,0 0,-10z M100,220l10,0 0,10 -10,0 0,-10z M110,220l10,0 0,10 -10,0 0,-10z M130,220l10,0 0,10 -10,0 0,-10z M150,220l10,0 0,10 -10,0 0,-10z M160,220l10,0 0,10 -10,0 0,-10z M190,220l10,0 0,10 -10,0 0,-10z M200,220l10,0 0,10 -10,0 0,-10z M210,220l10,0 0,10 -10,0 0,-10z M220,220l10,0 0,10 -10,0 0,-10z M230,220l10,0 0,10 -10,0 0,-10z M240,220l10,0 0,10 -10,0 0,-10z M280,220l10,0 0,10 -10,0 0,-10z M290,220l10,0 0,10 -10,0 0,-10z M330,220l10,0 0,10 -10,0 0,-10z M340,220l10,0 0,10 -10,0 0,-10z M370,220l10,0 0,10 -10,0 0,-10z M430,220l10,0 0,10 -10,0 0,-10z M440,220l10,0 0,10 -10,0 0,-10z M460,220l10,0 0,10 -10,0 0,-10z M480,220l10,0 0,10 -10,0 0,-10z M490,220l10,0 0,10 -10,0 0,-10z M500,220l10,0 0,10 -10,0 0,-10z M530,220l10,0 0,10 -10,0 0,-10z M550,220l10,0 0,10 -10,0 0,-10z M560,220l10,0 0,10 -10,0 0,-10z M580,220l10,0 0,10 -10,0 0,-10z M600,220l10,0 0,10 -10,0 0,-10z M610,220l10,0 0,10 -10,0 0,-10z M620,220l10,0 0,10 -10,0 0,-10z M650,220l10,0 0,10 -10,0 0,-10z M10,230l10,0 0,10 -10,0 0,-10z M20,230l10,0 0,10 -10,0 0,-10z M30,230l10,0 0,10 -10,0 0,-10z M40,230l10,0 0,10 -10,0 0,-10z M70,230l10,0 0,10 -10,0 0,-10z M80,230l10,0 0,10 -10,0 0,-10z M100,230l10,0 0,10 -10,0 0,-10z M120,230l10,0 0,10 -10,0 0,-10z M130,230l10,0 0,10 -10,0 0,-10z M160,230l10,0 0,10 -10,0 0,-10z M200,230l10,0 0,10 -10,0 0,-10z M250,230l10,0 0,10 -10,0 0,-10z M340,230l10,0 0,10 -10,0 0,-10z M350,230l10,0 0,10 -10,0 0,-10z M360,230l10,0 0,10 -10,0 0,-10z M380,230l10,0 0,10 -10,0 0,-10z M400,230l10,0 0,10 -10,0 0,-10z M430,230l10,0 0,10 -10,0 0,-10z M440,230l10,0 0,10 -10,0 0,-10z M450,230l10,0 0,10 -10,0 0,-10z M460,230l10,0 0,10 -10,0 0,-10z M470,230l10,0 0,10 -10,0 0,-10z M520,230l10,0 0,10 -10,0 0,-10z M530,230l10,0 0,10 -10,0 0,-10z M550,230l10,0 0,10 -10,0 0,-10z M570,230l10,0 0,10 -10,0 0,-10z M590,230l10,0 0,10 -10,0 0,-10z M630,230l10,0 0,10 -10,0 0,-10z M650,230l10,0 0,10 -10,0 0,-10z M20,240l10,0 0,10 -10,0 0,-10z M30,240l10,0 0,10 -10,0 0,-10z M50,240l10,0 0,10 -10,0 0,-10z M60,240l10,0 0,10 -10,0 0,-10z M130,240l10,0 0,10 -10,0 0,-10z M150,240l10,0 0,10 -10,0 0,-10z M160,240l10,0 0,10 -10,0 0,-10z M180,240l10,0 0,10 -10,0 0,-10z M200,240l10,0 0,10 -10,0 0,-10z M250,240l10,0 0,10 -10,0 0,-10z M280,240l10,0 0,10 -10,0 0,-10z M290,240l10,0 0,10 -10,0 0,-10z M310,240l10,0 0,10 -10,0 0,-10z M360,240l10,0 0,10 -10,0 0,-10z M410,240l10,0 0,10 -10,0 0,-10z M430,240l10,0 0,10 -10,0 0,-10z M450,240l10,0 0,10 -10,0 0,-10z M470,240l10,0 0,10 -10,0 0,-10z M490,240l10,0 0,10 -10,0 0,-10z M500,240l10,0 0,10 -10,0 0,-10z M520,240l10,0 0,10 -10,0 0,-10z M530,240l10,0 0,10 -10,0 0,-10z M560,240l10,0 0,10 -10,0 0,-10z M580,240l10,0 0,10 -10,0 0,-10z M600,240l10,0 0,10 -10,0 0,-10z M610,240l10,0 0,10 -10,0 0,-10z M620,240l10,0 0,10 -10,0 0,-10z M650,240l10,0 0,10 -10,0 0,-10z M10,250l10,0 0,10 -10,0 0,-10z M20,250l10,0 0,10 -10,0 0,-10z M30,250l10,0 0,10 -10,0 0,-10z M50,250l10,0 0,10 -10,0 0,-10z M60,250l10,0 0,10 -10,0 0,-10z M70,250l10,0 0,10 -10,0 0,-10z M80,250l10,0 0,10 -10,0 0,-10z M90,250l10,0 0,10 -10,0 0,-10z M100,250l10,0 0,10 -10,0 0,-10z M110,250l10,0 0,10 -10,0 0,-10z M140,250l10,0 0,10 -10,0 0,-10z M170,250l10,0 0,10 -10,0 0,-10z M200,250l10,0 0,10 -10,0 0,-10z M220,250l10,0 0,10 -10,0 0,-10z M250,250l10,0 0,10 -10,0 0,-10z M260,250l10,0 0,10 -10,0 0,-10z M270,250l10,0 0,10 -10,0 0,-10z M280,250l10,0 0,10 -10,0 0,-10z M290,250l10,0 0,10 -10,0 0,-10z M300,250l10,0 0,10 -10,0 0,-10z M320,250l10,0 0,10 -10,0 0,-10z M340,250l10,0 0,10 -10,0 0,-10z M360,250l10,0 0,10 -10,0 0,-10z M370,250l10,0 0,10 -10,0 0,-10z M430,250l10,0 0,10 -10,0 0,-10z M460,250l10,0 0,10 -10,0 0,-10z M490,250l10,0 0,10 -10,0 0,-10z M520,250l10,0 0,10 -10,0 0,-10z M540,250l10,0 0,10 -10,0 0,-10z M550,250l10,0 0,10 -10,0 0,-10z M610,250l10,0 0,10 -10,0 0,-10z M620,250l10,0 0,10 -10,0 0,-10z M630,250l10,0 0,10 -10,0 0,-10z M640,250l10,0 0,10 -10,0 0,-10z M50,260l10,0 0,10 -10,0 0,-10z M80,260l10,0 0,10 -10,0 0,-10z M90,260l10,0 0,10 -10,0 0,-10z M100,260l10,0 0,10 -10,0 0,-10z M120,260l10,0 0,10 -10,0 0,-10z M130,260l10,0 0,10 -10,0 0,-10z M160,260l10,0 0,10 -10,0 0,-10z M190,260l10,0 0,10 -10,0 0,-10z M220,260l10,0 0,10 -10,0 0,-10z M230,260l10,0 0,10 -10,0 0,-10z M250,260l10,0 0,10 -10,0 0,-10z M270,260l10,0 0,10 -10,0 0,-10z M300,260l10,0 0,10 -10,0 0,-10z M310,260l10,0 0,10 -10,0 0,-10z M320,260l10,0 0,10 -10,0 0,-10z M330,260l10,0 0,10 -10,0 0,-10z M350,260l10,0 0,10 -10,0 0,-10z M390,260l10,0 0,10 -10,0 0,-10z M400,260l10,0 0,10 -10,0 0,-10z M490,260l10,0 0,10 -10,0 0,-10z M500,260l10,0 0,10 -10,0 0,-10z M510,260l10,0 0,10 -10,0 0,-10z M520,260l10,0 0,10 -10,0 0,-10z M540,260l10,0 0,10 -10,0 0,-10z M560,260l10,0 0,10 -10,0 0,-10z M10,270l10,0 0,10 -10,0 0,-10z M20,270l10,0 0,10 -10,0 0,-10z M30,270l10,0 0,10 -10,0 0,-10z M40,270l10,0 0,10 -10,0 0,-10z M70,270l10,0 0,10 -10,0 0,-10z M150,270l10,0 0,10 -10,0 0,-10z M160,270l10,0 0,10 -10,0 0,-10z M170,270l10,0 0,10 -10,0 0,-10z M200,270l10,0 0,10 -10,0 0,-10z M240,270l10,0 0,10 -10,0 0,-10z M250,270l10,0 0,10 -10,0 0,-10z M260,270l10,0 0,10 -10,0 0,-10z M290,270l10,0 0,10 -10,0 0,-10z M300,270l10,0 0,10 -10,0 0,-10z M310,270l10,0 0,10 -10,0 0,-10z M330,270l10,0 0,10 -10,0 0,-10z M370,270l10,0 0,10 -10,0 0,-10z M390,270l10,0 0,10 -10,0 0,-10z M400,270l10,0 0,10 -10,0 0,-10z M410,270l10,0 0,10 -10,0 0,-10z M440,270l10,0 0,10 -10,0 0,-10z M480,270l10,0 0,10 -10,0 0,-10z M490,270l10,0 0,10 -10,0 0,-10z M510,270l10,0 0,10 -10,0 0,-10z M530,270l10,0 0,10 -10,0 0,-10z M540,270l10,0 0,10 -10,0 0,-10z M560,270l10,0 0,10 -10,0 0,-10z M570,270l10,0 0,10 -10,0 0,-10z M600,270l10,0 0,10 -10,0 0,-10z M620,270l10,0 0,10 -10,0 0,-10z M650,270l10,0 0,10 -10,0 0,-10z M20,280l10,0 0,10 -10,0 0,-10z M40,280l10,0 0,10 -10,0 0,-10z M50,280l10,0 0,10 -10,0 0,-10z M110,280l10,0 0,10 -10,0 0,-10z M140,280l10,0 0,10 -10,0 0,-10z M160,280l10,0 0,10 -10,0 0,-10z M230,280l10,0 0,10 -10,0 0,-10z M240,280l10,0 0,10 -10,0 0,-10z M250,280l10,0 0,10 -10,0 0,-10z M260,280l10,0 0,10 -10,0 0,-10z M280,280l10,0 0,10 -10,0 0,-10z M300,280l10,0 0,10 -10,0 0,-10z M330,280l10,0 0,10 -10,0 0,-10z M340,280l10,0 0,10 -10,0 0,-10z M360,280l10,0 0,10 -10,0 0,-10z M370,280l10,0 0,10 -10,0 0,-10z M380,280l10,0 0,10 -10,0 0,-10z M410,280l10,0 0,10 -10,0 0,-10z M420,280l10,0 0,10 -10,0 0,-10z M430,280l10,0 0,10 -10,0 0,-10z M440,280l10,0 0,10 -10,0 0,-10z M450,280l10,0 0,10 -10,0 0,-10z M460,280l10,0 0,10 -10,0 0,-10z M480,280l10,0 0,10 -10,0 0,-10z M520,280l10,0 0,10 -10,0 0,-10z M530,280l10,0 0,10 -10,0 0,-10z M550,280l10,0 0,10 -10,0 0,-10z M560,280l10,0 0,10 -10,0 0,-10z M570,280l10,0 0,10 -10,0 0,-10z M610,280l10,0 0,10 -10,0 0,-10z M620,280l10,0 0,10 -10,0 0,-10z M640,280l10,0 0,10 -10,0 0,-10z M650,280l10,0 0,10 -10,0 0,-10z M10,290l10,0 0,10 -10,0 0,-10z M30,290l10,0 0,10 -10,0 0,-10z M40,290l10,0 0,10 -10,0 0,-10z M50,290l10,0 0,10 -10,0 0,-10z M70,290l10,0 0,10 -10,0 0,-10z M90,290l10,0 0,10 -10,0 0,-10z M100,290l10,0 0,10 -10,0 0,-10z M110,290l10,0 0,10 -10,0 0,-10z M170,290l10,0 0,10 -10,0 0,-10z M180,290l10,0 0,10 -10,0 0,-10z M190,290l10,0 0,10 -10,0 0,-10z M200,290l10,0 0,10 -10,0 0,-10z M220,290l10,0 0,10 -10,0 0,-10z M230,290l10,0 0,10 -10,0 0,-10z M300,290l10,0 0,10 -10,0 0,-10z M310,290l10,0 0,10 -10,0 0,-10z M340,290l10,0 0,10 -10,0 0,-10z M360,290l10,0 0,10 -10,0 0,-10z M380,290l10,0 0,10 -10,0 0,-10z M390,290l10,0 0,10 -10,0 0,-10z M420,290l10,0 0,10 -10,0 0,-10z M450,290l10,0 0,10 -10,0 0,-10z M470,290l10,0 0,10 -10,0 0,-10z M550,290l10,0 0,10 -10,0 0,-10z M630,290l10,0 0,10 -10,0 0,-10z M640,290l10,0 0,10 -10,0 0,-10z M10,300l10,0 0,10 -10,0 0,-10z M20,300l10,0 0,10 -10,0 0,-10z M30,300l10,0 0,10 -10,0 0,-10z M50,300l10,0 0,10 -10,0 0,-10z M80,300l10,0 0,10 -10,0 0,-10z M90,300l10,0 0,10 -10,0 0,-10z M100,300l10,0 0,10 -10,0 0,-10z M110,300l10,0 0,10 -10,0 0,-10z M130,300l10,0 0,10 -10,0 0,-10z M150,300l10,0 0,10 -10,0 0,-10z M160,300l10,0 0,10 -10,0 0,-10z M190,300l10,0 0,10 -10,0 0,-10z M230,300l10,0 0,10 -10,0 0,-10z M240,300l10,0 0,10 -10,0 0,-10z M260,300l10,0 0,10 -10,0 0,-10z M270,300l10,0 0,10 -10,0 0,-10z M280,300l10,0 0,10 -10,0 0,-10z M290,300l10,0 0,10 -10,0 0,-10z M300,300l10,0 0,10 -10,0 0,-10z M310,300l10,0 0,10 -10,0 0,-10z M330,300l10,0 0,10 -10,0 0,-10z M340,300l10,0 0,10 -10,0 0,-10z M350,300l10,0 0,10 -10,0 0,-10z M360,300l10,0 0,10 -10,0 0,-10z M380,300l10,0 0,10 -10,0 0,-10z M400,300l10,0 0,10 -10,0 0,-10z M410,300l10,0 0,10 -10,0 0,-10z M470,300l10,0 0,10 -10,0 0,-10z M500,300l10,0 0,10 -10,0 0,-10z M560,300l10,0 0,10 -10,0 0,-10z M590,300l10,0 0,10 -10,0 0,-10z M600,300l10,0 0,10 -10,0 0,-10z M630,300l10,0 0,10 -10,0 0,-10z M640,300l10,0 0,10 -10,0 0,-10z M30,310l10,0 0,10 -10,0 0,-10z M50,310l10,0 0,10 -10,0 0,-10z M60,310l10,0 0,10 -10,0 0,-10z M70,310l10,0 0,10 -10,0 0,-10z M80,310l10,0 0,10 -10,0 0,-10z M90,310l10,0 0,10 -10,0 0,-10z M130,310l10,0 0,10 -10,0 0,-10z M160,310l10,0 0,10 -10,0 0,-10z M170,310l10,0 0,10 -10,0 0,-10z M200,310l10,0 0,10 -10,0 0,-10z M210,310l10,0 0,10 -10,0 0,-10z M240,310l10,0 0,10 -10,0 0,-10z M260,310l10,0 0,10 -10,0 0,-10z M280,310l10,0 0,10 -10,0 0,-10z M290,310l10,0 0,10 -10,0 0,-10z M310,310l10,0 0,10 -10,0 0,-10z M320,310l10,0 0,10 -10,0 0,-10z M330,310l10,0 0,10 -10,0 0,-10z M340,310l10,0 0,10 -10,0 0,-10z M350,310l10,0 0,10 -10,0 0,-10z M360,310l10,0 0,10 -10,0 0,-10z M370,310l10,0 0,10 -10,0 0,-10z M380,310l10,0 0,10 -10,0 0,-10z M390,310l10,0 0,10 -10,0 0,-10z M420,310l10,0 0,10 -10,0 0,-10z M440,310l10,0 0,10 -10,0 0,-10z M470,310l10,0 0,10 -10,0 0,-10z M490,310l10,0 0,10 -10,0 0,-10z M500,310l10,0 0,10 -10,0 0,-10z M510,310l10,0 0,10 -10,0 0,-10z M520,310l10,0 0,10 -10,0 0,-10z M540,310l10,0 0,10 -10,0 0,-10z M560,310l10,0 0,10 -10,0 0,-10z M570,310l10,0 0,10 -10,0 0,-10z M580,310l10,0 0,10 -10,0 0,-10z M590,310l10,0 0,10 -10,0 0,-10z M600,310l10,0 0,10 -10,0 0,-10z M610,310l10,0 0,10 -10,0 0,-10z M630,310l10,0 0,10 -10,0 0,-10z M640,310l10,0 0,10 -10,0 0,-10z M20,320l10,0 0,10 -10,0 0,-10z M30,320l10,0 0,10 -10,0 0,-10z M50,320l10,0 0,10 -10,0 0,-10z M90,320l10,0 0,10 -10,0 0,-10z M110,320l10,0 0,10 -10,0 0,-10z M120,320l10,0 0,10 -10,0 0,-10z M150,320l10,0 0,10 -10,0 0,-10z M170,320l10,0 0,10 -10,0 0,-10z M180,320l10,0 0,10 -10,0 0,-10z M190,320l10,0 0,10 -10,0 0,-10z M200,320l10,0 0,10 -10,0 0,-10z M210,320l10,0 0,10 -10,0 0,-10z M230,320l10,0 0,10 -10,0 0,-10z M250,320l10,0 0,10 -10,0 0,-10z M260,320l10,0 0,10 -10,0 0,-10z M290,320l10,0 0,10 -10,0 0,-10z M300,320l10,0 0,10 -10,0 0,-10z M310,320l10,0 0,10 -10,0 0,-10z M350,320l10,0 0,10 -10,0 0,-10z M380,320l10,0 0,10 -10,0 0,-10z M400,320l10,0 0,10 -10,0 0,-10z M410,320l10,0 0,10 -10,0 0,-10z M420,320l10,0 0,10 -10,0 0,-10z M460,320l10,0 0,10 -10,0 0,-10z M480,320l10,0 0,10 -10,0 0,-10z M510,320l10,0 0,10 -10,0 0,-10z M530,320l10,0 0,10 -10,0 0,-10z M570,320l10,0 0,10 -10,0 0,-10z M610,320l10,0 0,10 -10,0 0,-10z M620,320l10,0 0,10 -10,0 0,-10z M640,320l10,0 0,10 -10,0 0,-10z M10,330l10,0 0,10 -10,0 0,-10z M40,330l10,0 0,10 -10,0 0,-10z M50,330l10,0 0,10 -10,0 0,-10z M70,330l10,0 0,10 -10,0 0,-10z M90,330l10,0 0,10 -10,0 0,-10z M130,330l10,0 0,10 -10,0 0,-10z M140,330l10,0 0,10 -10,0 0,-10z M150,330l10,0 0,10 -10,0 0,-10z M220,330l10,0 0,10 -10,0 0,-10z M230,330l10,0 0,10 -10,0 0,-10z M240,330l10,0 0,10 -10,0 0,-10z M250,330l10,0 0,10 -10,0 0,-10z M260,330l10,0 0,10 -10,0 0,-10z M280,330l10,0 0,10 -10,0 0,-10z M300,330l10,0 0,10 -10,0 0,-10z M310,330l10,0 0,10 -10,0 0,-10z M330,330l10,0 0,10 -10,0 0,-10z M350,330l10,0 0,10 -10,0 0,-10z M380,330l10,0 0,10 -10,0 0,-10z M390,330l10,0 0,10 -10,0 0,-10z M410,330l10,0 0,10 -10,0 0,-10z M430,330l10,0 0,10 -10,0 0,-10z M440,330l10,0 0,10 -10,0 0,-10z M470,330l10,0 0,10 -10,0 0,-10z M480,330l10,0 0,10 -10,0 0,-10z M490,330l10,0 0,10 -10,0 0,-10z M530,330l10,0 0,10 -10,0 0,-10z M540,330l10,0 0,10 -10,0 0,-10z M560,330l10,0 0,10 -10,0 0,-10z M570,330l10,0 0,10 -10,0 0,-10z M590,330l10,0 0,10 -10,0 0,-10z M610,330l10,0 0,10 -10,0 0,-10z M620,330l10,0 0,10 -10,0 0,-10z M640,330l10,0 0,10 -10,0 0,-10z M650,330l10,0 0,10 -10,0 0,-10z M30,340l10,0 0,10 -10,0 0,-10z M50,340l10,0 0,10 -10,0 0,-10z M90,340l10,0 0,10 -10,0 0,-10z M100,340l10,0 0,10 -10,0 0,-10z M110,340l10,0 0,10 -10,0 0,-10z M160,340l10,0 0,10 -10,0 0,-10z M180,340l10,0 0,10 -10,0 0,-10z M200,340l10,0 0,10 -10,0 0,-10z M220,340l10,0 0,10 -10,0 0,-10z M230,340l10,0 0,10 -10,0 0,-10z M240,340l10,0 0,10 -10,0 0,-10z M250,340l10,0 0,10 -10,0 0,-10z M260,340l10,0 0,10 -10,0 0,-10z M270,340l10,0 0,10 -10,0 0,-10z M280,340l10,0 0,10 -10,0 0,-10z M300,340l10,0 0,10 -10,0 0,-10z M310,340l10,0 0,10 -10,0 0,-10z M350,340l10,0 0,10 -10,0 0,-10z M370,340l10,0 0,10 -10,0 0,-10z M380,340l10,0 0,10 -10,0 0,-10z M390,340l10,0 0,10 -10,0 0,-10z M400,340l10,0 0,10 -10,0 0,-10z M430,340l10,0 0,10 -10,0 0,-10z M460,340l10,0 0,10 -10,0 0,-10z M550,340l10,0 0,10 -10,0 0,-10z M570,340l10,0 0,10 -10,0 0,-10z M610,340l10,0 0,10 -10,0 0,-10z M620,340l10,0 0,10 -10,0 0,-10z M640,340l10,0 0,10 -10,0 0,-10z M10,350l10,0 0,10 -10,0 0,-10z M50,350l10,0 0,10 -10,0 0,-10z M60,350l10,0 0,10 -10,0 0,-10z M70,350l10,0 0,10 -10,0 0,-10z M80,350l10,0 0,10 -10,0 0,-10z M90,350l10,0 0,10 -10,0 0,-10z M110,350l10,0 0,10 -10,0 0,-10z M120,350l10,0 0,10 -10,0 0,-10z M130,350l10,0 0,10 -10,0 0,-10z M140,350l10,0 0,10 -10,0 0,-10z M150,350l10,0 0,10 -10,0 0,-10z M160,350l10,0 0,10 -10,0 0,-10z M200,350l10,0 0,10 -10,0 0,-10z M220,350l10,0 0,10 -10,0 0,-10z M230,350l10,0 0,10 -10,0 0,-10z M270,350l10,0 0,10 -10,0 0,-10z M280,350l10,0 0,10 -10,0 0,-10z M290,350l10,0 0,10 -10,0 0,-10z M300,350l10,0 0,10 -10,0 0,-10z M310,350l10,0 0,10 -10,0 0,-10z M320,350l10,0 0,10 -10,0 0,-10z M330,350l10,0 0,10 -10,0 0,-10z M340,350l10,0 0,10 -10,0 0,-10z M350,350l10,0 0,10 -10,0 0,-10z M360,350l10,0 0,10 -10,0 0,-10z M370,350l10,0 0,10 -10,0 0,-10z M390,350l10,0 0,10 -10,0 0,-10z M400,350l10,0 0,10 -10,0 0,-10z M430,350l10,0 0,10 -10,0 0,-10z M450,350l10,0 0,10 -10,0 0,-10z M460,350l10,0 0,10 -10,0 0,-10z M470,350l10,0 0,10 -10,0 0,-10z M490,350l10,0 0,10 -10,0 0,-10z M540,350l10,0 0,10 -10,0 0,-10z M550,350l10,0 0,10 -10,0 0,-10z M570,350l10,0 0,10 -10,0 0,-10z M580,350l10,0 0,10 -10,0 0,-10z M590,350l10,0 0,10 -10,0 0,-10z M600,350l10,0 0,10 -10,0 0,-10z M610,350l10,0 0,10 -10,0 0,-10z M620,350l10,0 0,10 -10,0 0,-10z M640,350l10,0 0,10 -10,0 0,-10z M80,360l10,0 0,10 -10,0 0,-10z M90,360l10,0 0,10 -10,0 0,-10z M100,360l10,0 0,10 -10,0 0,-10z M120,360l10,0 0,10 -10,0 0,-10z M160,360l10,0 0,10 -10,0 0,-10z M180,360l10,0 0,10 -10,0 0,-10z M190,360l10,0 0,10 -10,0 0,-10z M220,360l10,0 0,10 -10,0 0,-10z M230,360l10,0 0,10 -10,0 0,-10z M240,360l10,0 0,10 -10,0 0,-10z M280,360l10,0 0,10 -10,0 0,-10z M320,360l10,0 0,10 -10,0 0,-10z M340,360l10,0 0,10 -10,0 0,-10z M350,360l10,0 0,10 -10,0 0,-10z M380,360l10,0 0,10 -10,0 0,-10z M410,360l10,0 0,10 -10,0 0,-10z M440,360l10,0 0,10 -10,0 0,-10z M450,360l10,0 0,10 -10,0 0,-10z M480,360l10,0 0,10 -10,0 0,-10z M490,360l10,0 0,10 -10,0 0,-10z M540,360l10,0 0,10 -10,0 0,-10z M580,360l10,0 0,10 -10,0 0,-10z M600,360l10,0 0,10 -10,0 0,-10z M640,360l10,0 0,10 -10,0 0,-10z M650,360l10,0 0,10 -10,0 0,-10z M40,370l10,0 0,10 -10,0 0,-10z M50,370l10,0 0,10 -10,0 0,-10z M60,370l10,0 0,10 -10,0 0,-10z M70,370l10,0 0,10 -10,0 0,-10z M100,370l10,0 0,10 -10,0 0,-10z M110,370l10,0 0,10 -10,0 0,-10z M140,370l10,0 0,10 -10,0 0,-10z M150,370l10,0 0,10 -10,0 0,-10z M180,370l10,0 0,10 -10,0 0,-10z M190,370l10,0 0,10 -10,0 0,-10z M210,370l10,0 0,10 -10,0 0,-10z M250,370l10,0 0,10 -10,0 0,-10z M260,370l10,0 0,10 -10,0 0,-10z M280,370l10,0 0,10 -10,0 0,-10z M290,370l10,0 0,10 -10,0 0,-10z M310,370l10,0 0,10 -10,0 0,-10z M320,370l10,0 0,10 -10,0 0,-10z M330,370l10,0 0,10 -10,0 0,-10z M350,370l10,0 0,10 -10,0 0,-10z M390,370l10,0 0,10 -10,0 0,-10z M420,370l10,0 0,10 -10,0 0,-10z M440,370l10,0 0,10 -10,0 0,-10z M460,370l10,0 0,10 -10,0 0,-10z M490,370l10,0 0,10 -10,0 0,-10z M520,370l10,0 0,10 -10,0 0,-10z M550,370l10,0 0,10 -10,0 0,-10z M570,370l10,0 0,10 -10,0 0,-10z M580,370l10,0 0,10 -10,0 0,-10z M590,370l10,0 0,10 -10,0 0,-10z M630,370l10,0 0,10 -10,0 0,-10z M20,380l10,0 0,10 -10,0 0,-10z M30,380l10,0 0,10 -10,0 0,-10z M40,380l10,0 0,10 -10,0 0,-10z M60,380l10,0 0,10 -10,0 0,-10z M80,380l10,0 0,10 -10,0 0,-10z M100,380l10,0 0,10 -10,0 0,-10z M160,380l10,0 0,10 -10,0 0,-10z M190,380l10,0 0,10 -10,0 0,-10z M200,380l10,0 0,10 -10,0 0,-10z M210,380l10,0 0,10 -10,0 0,-10z M220,380l10,0 0,10 -10,0 0,-10z M250,380l10,0 0,10 -10,0 0,-10z M260,380l10,0 0,10 -10,0 0,-10z M270,380l10,0 0,10 -10,0 0,-10z M280,380l10,0 0,10 -10,0 0,-10z M320,380l10,0 0,10 -10,0 0,-10z M350,380l10,0 0,10 -10,0 0,-10z M370,380l10,0 0,10 -10,0 0,-10z M390,380l10,0 0,10 -10,0 0,-10z M400,380l10,0 0,10 -10,0 0,-10z M420,380l10,0 0,10 -10,0 0,-10z M480,380l10,0 0,10 -10,0 0,-10z M510,380l10,0 0,10 -10,0 0,-10z M520,380l10,0 0,10 -10,0 0,-10z M540,380l10,0 0,10 -10,0 0,-10z M600,380l10,0 0,10 -10,0 0,-10z M630,380l10,0 0,10 -10,0 0,-10z M20,390l10,0 0,10 -10,0 0,-10z M30,390l10,0 0,10 -10,0 0,-10z M60,390l10,0 0,10 -10,0 0,-10z M70,390l10,0 0,10 -10,0 0,-10z M130,390l10,0 0,10 -10,0 0,-10z M140,390l10,0 0,10 -10,0 0,-10z M170,390l10,0 0,10 -10,0 0,-10z M180,390l10,0 0,10 -10,0 0,-10z M190,390l10,0 0,10 -10,0 0,-10z M200,390l10,0 0,10 -10,0 0,-10z M210,390l10,0 0,10 -10,0 0,-10z M220,390l10,0 0,10 -10,0 0,-10z M270,390l10,0 0,10 -10,0 0,-10z M300,390l10,0 0,10 -10,0 0,-10z M360,390l10,0 0,10 -10,0 0,-10z M370,390l10,0 0,10 -10,0 0,-10z M380,390l10,0 0,10 -10,0 0,-10z M390,390l10,0 0,10 -10,0 0,-10z M400,390l10,0 0,10 -10,0 0,-10z M410,390l10,0 0,10 -10,0 0,-10z M420,390l10,0 0,10 -10,0 0,-10z M430,390l10,0 0,10 -10,0 0,-10z M450,390l10,0 0,10 -10,0 0,-10z M460,390l10,0 0,10 -10,0 0,-10z M480,390l10,0 0,10 -10,0 0,-10z M510,390l10,0 0,10 -10,0 0,-10z M520,390l10,0 0,10 -10,0 0,-10z M530,390l10,0 0,10 -10,0 0,-10z M540,390l10,0 0,10 -10,0 0,-10z M550,390l10,0 0,10 -10,0 0,-10z M560,390l10,0 0,10 -10,0 0,-10z M590,390l10,0 0,10 -10,0 0,-10z M600,390l10,0 0,10 -10,0 0,-10z M630,390l10,0 0,10 -10,0 0,-10z M640,390l10,0 0,10 -10,0 0,-10z M650,390l10,0 0,10 -10,0 0,-10z M10,400l10,0 0,10 -10,0 0,-10z M30,400l10,0 0,10 -10,0 0,-10z M40,400l10,0 0,10 -10,0 0,-10z M80,400l10,0 0,10 -10,0 0,-10z M90,400l10,0 0,10 -10,0 0,-10z M130,400l10,0 0,10 -10,0 0,-10z M150,400l10,0 0,10 -10,0 0,-10z M160,400l10,0 0,10 -10,0 0,-10z M230,400l10,0 0,10 -10,0 0,-10z M250,400l10,0 0,10 -10,0 0,-10z M280,400l10,0 0,10 -10,0 0,-10z M290,400l10,0 0,10 -10,0 0,-10z M320,400l10,0 0,10 -10,0 0,-10z M400,400l10,0 0,10 -10,0 0,-10z M410,400l10,0 0,10 -10,0 0,-10z M430,400l10,0 0,10 -10,0 0,-10z M440,400l10,0 0,10 -10,0 0,-10z M520,400l10,0 0,10 -10,0 0,-10z M530,400l10,0 0,10 -10,0 0,-10z M550,400l10,0 0,10 -10,0 0,-10z M560,400l10,0 0,10 -10,0 0,-10z M590,400l10,0 0,10 -10,0 0,-10z M610,400l10,0 0,10 -10,0 0,-10z M620,400l10,0 0,10 -10,0 0,-10z M10,410l10,0 0,10 -10,0 0,-10z M20,410l10,0 0,10 -10,0 0,-10z M30,410l10,0 0,10 -10,0 0,-10z M60,410l10,0 0,10 -10,0 0,-10z M70,410l10,0 0,10 -10,0 0,-10z M100,410l10,0 0,10 -10,0 0,-10z M110,410l10,0 0,10 -10,0 0,-10z M130,410l10,0 0,10 -10,0 0,-10z M150,410l10,0 0,10 -10,0 0,-10z M190,410l10,0 0,10 -10,0 0,-10z M250,410l10,0 0,10 -10,0 0,-10z M280,410l10,0 0,10 -10,0 0,-10z M300,410l10,0 0,10 -10,0 0,-10z M330,410l10,0 0,10 -10,0 0,-10z M360,410l10,0 0,10 -10,0 0,-10z M390,410l10,0 0,10 -10,0 0,-10z M450,410l10,0 0,10 -10,0 0,-10z M480,410l10,0 0,10 -10,0 0,-10z M540,410l10,0 0,10 -10,0 0,-10z M570,410l10,0 0,10 -10,0 0,-10z M580,410l10,0 0,10 -10,0 0,-10z M600,410l10,0 0,10 -10,0 0,-10z M640,410l10,0 0,10 -10,0 0,-10z M10,420l10,0 0,10 -10,0 0,-10z M20,420l10,0 0,10 -10,0 0,-10z M30,420l10,0 0,10 -10,0 0,-10z M100,420l10,0 0,10 -10,0 0,-10z M110,420l10,0 0,10 -10,0 0,-10z M120,420l10,0 0,10 -10,0 0,-10z M210,420l10,0 0,10 -10,0 0,-10z M240,420l10,0 0,10 -10,0 0,-10z M250,420l10,0 0,10 -10,0 0,-10z M280,420l10,0 0,10 -10,0 0,-10z M310,420l10,0 0,10 -10,0 0,-10z M350,420l10,0 0,10 -10,0 0,-10z M380,420l10,0 0,10 -10,0 0,-10z M470,420l10,0 0,10 -10,0 0,-10z M480,420l10,0 0,10 -10,0 0,-10z M530,420l10,0 0,10 -10,0 0,-10z M560,420l10,0 0,10 -10,0 0,-10z M590,420l10,0 0,10 -10,0 0,-10z M600,420l10,0 0,10 -10,0 0,-10z M650,420l10,0 0,10 -10,0 0,-10z M20,430l10,0 0,10 -10,0 0,-10z M30,430l10,0 0,10 -10,0 0,-10z M40,430l10,0 0,10 -10,0 0,-10z M60,430l10,0 0,10 -10,0 0,-10z M70,430l10,0 0,10 -10,0 0,-10z M80,430l10,0 0,10 -10,0 0,-10z M90,430l10,0 0,10 -10,0 0,-10z M100,430l10,0 0,10 -10,0 0,-10z M110,430l10,0 0,10 -10,0 0,-10z M170,430l10,0 0,10 -10,0 0,-10z M190,430l10,0 0,10 -10,0 0,-10z M200,430l10,0 0,10 -10,0 0,-10z M210,430l10,0 0,10 -10,0 0,-10z M220,430l10,0 0,10 -10,0 0,-10z M240,430l10,0 0,10 -10,0 0,-10z M260,430l10,0 0,10 -10,0 0,-10z M270,430l10,0 0,10 -10,0 0,-10z M280,430l10,0 0,10 -10,0 0,-10z M290,430l10,0 0,10 -10,0 0,-10z M300,430l10,0 0,10 -10,0 0,-10z M330,430l10,0 0,10 -10,0 0,-10z M350,430l10,0 0,10 -10,0 0,-10z M360,430l10,0 0,10 -10,0 0,-10z M370,430l10,0 0,10 -10,0 0,-10z M390,430l10,0 0,10 -10,0 0,-10z M400,430l10,0 0,10 -10,0 0,-10z M420,430l10,0 0,10 -10,0 0,-10z M430,430l10,0 0,10 -10,0 0,-10z M470,430l10,0 0,10 -10,0 0,-10z M490,430l10,0 0,10 -10,0 0,-10z M520,430l10,0 0,10 -10,0 0,-10z M580,430l10,0 0,10 -10,0 0,-10z M620,430l10,0 0,10 -10,0 0,-10z M50,440l10,0 0,10 -10,0 0,-10z M60,440l10,0 0,10 -10,0 0,-10z M80,440l10,0 0,10 -10,0 0,-10z M100,440l10,0 0,10 -10,0 0,-10z M110,440l10,0 0,10 -10,0 0,-10z M120,440l10,0 0,10 -10,0 0,-10z M160,440l10,0 0,10 -10,0 0,-10z M180,440l10,0 0,10 -10,0 0,-10z M210,440l10,0 0,10 -10,0 0,-10z M220,440l10,0 0,10 -10,0 0,-10z M230,440l10,0 0,10 -10,0 0,-10z M250,440l10,0 0,10 -10,0 0,-10z M290,440l10,0 0,10 -10,0 0,-10z M320,440l10,0 0,10 -10,0 0,-10z M330,440l10,0 0,10 -10,0 0,-10z M350,440l10,0 0,10 -10,0 0,-10z M370,440l10,0 0,10 -10,0 0,-10z M390,440l10,0 0,10 -10,0 0,-10z M410,440l10,0 0,10 -10,0 0,-10z M420,440l10,0 0,10 -10,0 0,-10z M440,440l10,0 0,10 -10,0 0,-10z M460,440l10,0 0,10 -10,0 0,-10z M480,440l10,0 0,10 -10,0 0,-10z M490,440l10,0 0,10 -10,0 0,-10z M500,440l10,0 0,10 -10,0 0,-10z M510,440l10,0 0,10 -10,0 0,-10z M530,440l10,0 0,10 -10,0 0,-10z M540,440l10,0 0,10 -10,0 0,-10z M550,440l10,0 0,10 -10,0 0,-10z M560,440l10,0 0,10 -10,0 0,-10z M570,440l10,0 0,10 -10,0 0,-10z M580,440l10,0 0,10 -10,0 0,-10z M590,440l10,0 0,10 -10,0 0,-10z M600,440l10,0 0,10 -10,0 0,-10z M620,440l10,0 0,10 -10,0 0,-10z M630,440l10,0 0,10 -10,0 0,-10z M640,440l10,0 0,10 -10,0 0,-10z M40,450l10,0 0,10 -10,0 0,-10z M50,450l10,0 0,10 -10,0 0,-10z M60,450l10,0 0,10 -10,0 0,-10z M70,450l10,0 0,10 -10,0 0,-10z M80,450l10,0 0,10 -10,0 0,-10z M100,450l10,0 0,10 -10,0 0,-10z M110,450l10,0 0,10 -10,0 0,-10z M120,450l10,0 0,10 -10,0 0,-10z M130,450l10,0 0,10 -10,0 0,-10z M140,450l10,0 0,10 -10,0 0,-10z M160,450l10,0 0,10 -10,0 0,-10z M170,450l10,0 0,10 -10,0 0,-10z M200,450l10,0 0,10 -10,0 0,-10z M220,450l10,0 0,10 -10,0 0,-10z M240,450l10,0 0,10 -10,0 0,-10z M250,450l10,0 0,10 -10,0 0,-10z M290,450l10,0 0,10 -10,0 0,-10z M300,450l10,0 0,10 -10,0 0,-10z M320,450l10,0 0,10 -10,0 0,-10z M350,450l10,0 0,10 -10,0 0,-10z M360,450l10,0 0,10 -10,0 0,-10z M390,450l10,0 0,10 -10,0 0,-10z M400,450l10,0 0,10 -10,0 0,-10z M410,450l10,0 0,10 -10,0 0,-10z M440,450l10,0 0,10 -10,0 0,-10z M460,450l10,0 0,10 -10,0 0,-10z M470,450l10,0 0,10 -10,0 0,-10z M500,450l10,0 0,10 -10,0 0,-10z M530,450l10,0 0,10 -10,0 0,-10z M560,450l10,0 0,10 -10,0 0,-10z M570,450l10,0 0,10 -10,0 0,-10z M590,450l10,0 0,10 -10,0 0,-10z M610,450l10,0 0,10 -10,0 0,-10z M620,450l10,0 0,10 -10,0 0,-10z M640,450l10,0 0,10 -10,0 0,-10z M650,450l10,0 0,10 -10,0 0,-10z M10,460l10,0 0,10 -10,0 0,-10z M40,460l10,0 0,10 -10,0 0,-10z M60,460l10,0 0,10 -10,0 0,-10z M80,460l10,0 0,10 -10,0 0,-10z M100,460l10,0 0,10 -10,0 0,-10z M110,460l10,0 0,10 -10,0 0,-10z M130,460l10,0 0,10 -10,0 0,-10z M140,460l10,0 0,10 -10,0 0,-10z M150,460l10,0 0,10 -10,0 0,-10z M160,460l10,0 0,10 -10,0 0,-10z M180,460l10,0 0,10 -10,0 0,-10z M190,460l10,0 0,10 -10,0 0,-10z M200,460l10,0 0,10 -10,0 0,-10z M210,460l10,0 0,10 -10,0 0,-10z M220,460l10,0 0,10 -10,0 0,-10z M230,460l10,0 0,10 -10,0 0,-10z M250,460l10,0 0,10 -10,0 0,-10z M260,460l10,0 0,10 -10,0 0,-10z M270,460l10,0 0,10 -10,0 0,-10z M310,460l10,0 0,10 -10,0 0,-10z M320,460l10,0 0,10 -10,0 0,-10z M330,460l10,0 0,10 -10,0 0,-10z M370,460l10,0 0,10 -10,0 0,-10z M400,460l10,0 0,10 -10,0 0,-10z M420,460l10,0 0,10 -10,0 0,-10z M430,460l10,0 0,10 -10,0 0,-10z M440,460l10,0 0,10 -10,0 0,-10z M450,460l10,0 0,10 -10,0 0,-10z M460,460l10,0 0,10 -10,0 0,-10z M480,460l10,0 0,10 -10,0 0,-10z M490,460l10,0 0,10 -10,0 0,-10z M530,460l10,0 0,10 -10,0 0,-10z M550,460l10,0 0,10 -10,0 0,-10z M580,460l10,0 0,10 -10,0 0,-10z M590,460l10,0 0,10 -10,0 0,-10z M600,460l10,0 0,10 -10,0 0,-10z M610,460l10,0 0,10 -10,0 0,-10z M640,460l10,0 0,10 -10,0 0,-10z M10,470l10,0 0,10 -10,0 0,-10z M30,470l10,0 0,10 -10,0 0,-10z M50,470l10,0 0,10 -10,0 0,-10z M70,470l10,0 0,10 -10,0 0,-10z M90,470l10,0 0,10 -10,0 0,-10z M110,470l10,0 0,10 -10,0 0,-10z M120,470l10,0 0,10 -10,0 0,-10z M140,470l10,0 0,10 -10,0 0,-10z M160,470l10,0 0,10 -10,0 0,-10z M180,470l10,0 0,10 -10,0 0,-10z M190,470l10,0 0,10 -10,0 0,-10z M200,470l10,0 0,10 -10,0 0,-10z M210,470l10,0 0,10 -10,0 0,-10z M230,470l10,0 0,10 -10,0 0,-10z M250,470l10,0 0,10 -10,0 0,-10z M270,470l10,0 0,10 -10,0 0,-10z M280,470l10,0 0,10 -10,0 0,-10z M300,470l10,0 0,10 -10,0 0,-10z M310,470l10,0 0,10 -10,0 0,-10z M330,470l10,0 0,10 -10,0 0,-10z M430,470l10,0 0,10 -10,0 0,-10z M450,470l10,0 0,10 -10,0 0,-10z M460,470l10,0 0,10 -10,0 0,-10z M470,470l10,0 0,10 -10,0 0,-10z M480,470l10,0 0,10 -10,0 0,-10z M500,470l10,0 0,10 -10,0 0,-10z M520,470l10,0 0,10 -10,0 0,-10z M550,470l10,0 0,10 -10,0 0,-10z M570,470l10,0 0,10 -10,0 0,-10z M580,470l10,0 0,10 -10,0 0,-10z M610,470l10,0 0,10 -10,0 0,-10z M640,470l10,0 0,10 -10,0 0,-10z M50,480l10,0 0,10 -10,0 0,-10z M60,480l10,0 0,10 -10,0 0,-10z M90,480l10,0 0,10 -10,0 0,-10z M120,480l10,0 0,10 -10,0 0,-10z M140,480l10,0 0,10 -10,0 0,-10z M160,480l10,0 0,10 -10,0 0,-10z M200,480l10,0 0,10 -10,0 0,-10z M220,480l10,0 0,10 -10,0 0,-10z M230,480l10,0 0,10 -10,0 0,-10z M240,480l10,0 0,10 -10,0 0,-10z M260,480l10,0 0,10 -10,0 0,-10z M270,480l10,0 0,10 -10,0 0,-10z M280,480l10,0 0,10 -10,0 0,-10z M290,480l10,0 0,10 -10,0 0,-10z M300,480l10,0 0,10 -10,0 0,-10z M310,480l10,0 0,10 -10,0 0,-10z M320,480l10,0 0,10 -10,0 0,-10z M330,480l10,0 0,10 -10,0 0,-10z M360,480l10,0 0,10 -10,0 0,-10z M370,480l10,0 0,10 -10,0 0,-10z M380,480l10,0 0,10 -10,0 0,-10z M410,480l10,0 0,10 -10,0 0,-10z M440,480l10,0 0,10 -10,0 0,-10z M450,480l10,0 0,10 -10,0 0,-10z M460,480l10,0 0,10 -10,0 0,-10z M490,480l10,0 0,10 -10,0 0,-10z M500,480l10,0 0,10 -10,0 0,-10z M510,480l10,0 0,10 -10,0 0,-10z M530,480l10,0 0,10 -10,0 0,-10z M540,480l10,0 0,10 -10,0 0,-10z M590,480l10,0 0,10 -10,0 0,-10z M600,480l10,0 0,10 -10,0 0,-10z M610,480l10,0 0,10 -10,0 0,-10z M640,480l10,0 0,10 -10,0 0,-10z M650,480l10,0 0,10 -10,0 0,-10z M20,490l10,0 0,10 -10,0 0,-10z M30,490l10,0 0,10 -10,0 0,-10z M40,490l10,0 0,10 -10,0 0,-10z M60,490l10,0 0,10 -10,0 0,-10z M70,490l10,0 0,10 -10,0 0,-10z M80,490l10,0 0,10 -10,0 0,-10z M130,490l10,0 0,10 -10,0 0,-10z M140,490l10,0 0,10 -10,0 0,-10z M150,490l10,0 0,10 -10,0 0,-10z M180,490l10,0 0,10 -10,0 0,-10z M200,490l10,0 0,10 -10,0 0,-10z M210,490l10,0 0,10 -10,0 0,-10z M220,490l10,0 0,10 -10,0 0,-10z M230,490l10,0 0,10 -10,0 0,-10z M240,490l10,0 0,10 -10,0 0,-10z M260,490l10,0 0,10 -10,0 0,-10z M270,490l10,0 0,10 -10,0 0,-10z M340,490l10,0 0,10 -10,0 0,-10z M380,490l10,0 0,10 -10,0 0,-10z M410,490l10,0 0,10 -10,0 0,-10z M460,490l10,0 0,10 -10,0 0,-10z M470,490l10,0 0,10 -10,0 0,-10z M490,490l10,0 0,10 -10,0 0,-10z M550,490l10,0 0,10 -10,0 0,-10z M570,490l10,0 0,10 -10,0 0,-10z M600,490l10,0 0,10 -10,0 0,-10z M10,500l10,0 0,10 -10,0 0,-10z M50,500l10,0 0,10 -10,0 0,-10z M60,500l10,0 0,10 -10,0 0,-10z M80,500l10,0 0,10 -10,0 0,-10z M100,500l10,0 0,10 -10,0 0,-10z M120,500l10,0 0,10 -10,0 0,-10z M190,500l10,0 0,10 -10,0 0,-10z M200,500l10,0 0,10 -10,0 0,-10z M230,500l10,0 0,10 -10,0 0,-10z M260,500l10,0 0,10 -10,0 0,-10z M270,500l10,0 0,10 -10,0 0,-10z M320,500l10,0 0,10 -10,0 0,-10z M390,500l10,0 0,10 -10,0 0,-10z M410,500l10,0 0,10 -10,0 0,-10z M450,500l10,0 0,10 -10,0 0,-10z M460,500l10,0 0,10 -10,0 0,-10z M470,500l10,0 0,10 -10,0 0,-10z M510,500l10,0 0,10 -10,0 0,-10z M520,500l10,0 0,10 -10,0 0,-10z M540,500l10,0 0,10 -10,0 0,-10z M570,500l10,0 0,10 -10,0 0,-10z M630,500l10,0 0,10 -10,0 0,-10z M650,500l10,0 0,10 -10,0 0,-10z M10,510l10,0 0,10 -10,0 0,-10z M30,510l10,0 0,10 -10,0 0,-10z M50,510l10,0 0,10 -10,0 0,-10z M60,510l10,0 0,10 -10,0 0,-10z M70,510l10,0 0,10 -10,0 0,-10z M80,510l10,0 0,10 -10,0 0,-10z M100,510l10,0 0,10 -10,0 0,-10z M110,510l10,0 0,10 -10,0 0,-10z M130,510l10,0 0,10 -10,0 0,-10z M140,510l10,0 0,10 -10,0 0,-10z M150,510l10,0 0,10 -10,0 0,-10z M160,510l10,0 0,10 -10,0 0,-10z M170,510l10,0 0,10 -10,0 0,-10z M180,510l10,0 0,10 -10,0 0,-10z M190,510l10,0 0,10 -10,0 0,-10z M200,510l10,0 0,10 -10,0 0,-10z M230,510l10,0 0,10 -10,0 0,-10z M240,510l10,0 0,10 -10,0 0,-10z M250,510l10,0 0,10 -10,0 0,-10z M260,510l10,0 0,10 -10,0 0,-10z M270,510l10,0 0,10 -10,0 0,-10z M280,510l10,0 0,10 -10,0 0,-10z M290,510l10,0 0,10 -10,0 0,-10z M300,510l10,0 0,10 -10,0 0,-10z M310,510l10,0 0,10 -10,0 0,-10z M330,510l10,0 0,10 -10,0 0,-10z M380,510l10,0 0,10 -10,0 0,-10z M390,510l10,0 0,10 -10,0 0,-10z M400,510l10,0 0,10 -10,0 0,-10z M440,510l10,0 0,10 -10,0 0,-10z M470,510l10,0 0,10 -10,0 0,-10z M510,510l10,0 0,10 -10,0 0,-10z M520,510l10,0 0,10 -10,0 0,-10z M530,510l10,0 0,10 -10,0 0,-10z M540,510l10,0 0,10 -10,0 0,-10z M550,510l10,0 0,10 -10,0 0,-10z M560,510l10,0 0,10 -10,0 0,-10z M590,510l10,0 0,10 -10,0 0,-10z M630,510l10,0 0,10 -10,0 0,-10z M650,510l10,0 0,10 -10,0 0,-10z M30,520l10,0 0,10 -10,0 0,-10z M60,520l10,0 0,10 -10,0 0,-10z M110,520l10,0 0,10 -10,0 0,-10z M120,520l10,0 0,10 -10,0 0,-10z M130,520l10,0 0,10 -10,0 0,-10z M140,520l10,0 0,10 -10,0 0,-10z M150,520l10,0 0,10 -10,0 0,-10z M160,520l10,0 0,10 -10,0 0,-10z M190,520l10,0 0,10 -10,0 0,-10z M200,520l10,0 0,10 -10,0 0,-10z M210,520l10,0 0,10 -10,0 0,-10z M220,520l10,0 0,10 -10,0 0,-10z M240,520l10,0 0,10 -10,0 0,-10z M260,520l10,0 0,10 -10,0 0,-10z M290,520l10,0 0,10 -10,0 0,-10z M310,520l10,0 0,10 -10,0 0,-10z M360,520l10,0 0,10 -10,0 0,-10z M370,520l10,0 0,10 -10,0 0,-10z M380,520l10,0 0,10 -10,0 0,-10z M410,520l10,0 0,10 -10,0 0,-10z M420,520l10,0 0,10 -10,0 0,-10z M430,520l10,0 0,10 -10,0 0,-10z M450,520l10,0 0,10 -10,0 0,-10z M460,520l10,0 0,10 -10,0 0,-10z M510,520l10,0 0,10 -10,0 0,-10z M520,520l10,0 0,10 -10,0 0,-10z M530,520l10,0 0,10 -10,0 0,-10z M550,520l10,0 0,10 -10,0 0,-10z M570,520l10,0 0,10 -10,0 0,-10z M590,520l10,0 0,10 -10,0 0,-10z M640,520l10,0 0,10 -10,0 0,-10z M20,530l10,0 0,10 -10,0 0,-10z M40,530l10,0 0,10 -10,0 0,-10z M60,530l10,0 0,10 -10,0 0,-10z M70,530l10,0 0,10 -10,0 0,-10z M80,530l10,0 0,10 -10,0 0,-10z M90,530l10,0 0,10 -10,0 0,-10z M120,530l10,0 0,10 -10,0 0,-10z M140,530l10,0 0,10 -10,0 0,-10z M160,530l10,0 0,10 -10,0 0,-10z M190,530l10,0 0,10 -10,0 0,-10z M200,530l10,0 0,10 -10,0 0,-10z M220,530l10,0 0,10 -10,0 0,-10z M230,530l10,0 0,10 -10,0 0,-10z M250,530l10,0 0,10 -10,0 0,-10z M270,530l10,0 0,10 -10,0 0,-10z M280,530l10,0 0,10 -10,0 0,-10z M310,530l10,0 0,10 -10,0 0,-10z M330,530l10,0 0,10 -10,0 0,-10z M420,530l10,0 0,10 -10,0 0,-10z M450,530l10,0 0,10 -10,0 0,-10z M460,530l10,0 0,10 -10,0 0,-10z M470,530l10,0 0,10 -10,0 0,-10z M480,530l10,0 0,10 -10,0 0,-10z M500,530l10,0 0,10 -10,0 0,-10z M510,530l10,0 0,10 -10,0 0,-10z M540,530l10,0 0,10 -10,0 0,-10z M550,530l10,0 0,10 -10,0 0,-10z M10,540l10,0 0,10 -10,0 0,-10z M30,540l10,0 0,10 -10,0 0,-10z M40,540l10,0 0,10 -10,0 0,-10z M60,540l10,0 0,10 -10,0 0,-10z M80,540l10,0 0,10 -10,0 0,-10z M90,540l10,0 0,10 -10,0 0,-10z M100,540l10,0 0,10 -10,0 0,-10z M110,540l10,0 0,10 -10,0 0,-10z M150,540l10,0 0,10 -10,0 0,-10z M220,540l10,0 0,10 -10,0 0,-10z M230,540l10,0 0,10 -10,0 0,-10z M250,540l10,0 0,10 -10,0 0,-10z M270,540l10,0 0,10 -10,0 0,-10z M300,540l10,0 0,10 -10,0 0,-10z M310,540l10,0 0,10 -10,0 0,-10z M330,540l10,0 0,10 -10,0 0,-10z M350,540l10,0 0,10 -10,0 0,-10z M360,540l10,0 0,10 -10,0 0,-10z M380,540l10,0 0,10 -10,0 0,-10z M400,540l10,0 0,10 -10,0 0,-10z M410,540l10,0 0,10 -10,0 0,-10z M440,540l10,0 0,10 -10,0 0,-10z M470,540l10,0 0,10 -10,0 0,-10z M530,540l10,0 0,10 -10,0 0,-10z M560,540l10,0 0,10 -10,0 0,-10z M570,540l10,0 0,10 -10,0 0,-10z M580,540l10,0 0,10 -10,0 0,-10z M590,540l10,0 0,10 -10,0 0,-10z M620,540l10,0 0,10 -10,0 0,-10z M640,540l10,0 0,10 -10,0 0,-10z M30,550l10,0 0,10 -10,0 0,-10z M40,550l10,0 0,10 -10,0 0,-10z M60,550l10,0 0,10 -10,0 0,-10z M70,550l10,0 0,10 -10,0 0,-10z M140,550l10,0 0,10 -10,0 0,-10z M150,550l10,0 0,10 -10,0 0,-10z M170,550l10,0 0,10 -10,0 0,-10z M190,550l10,0 0,10 -10,0 0,-10z M200,550l10,0 0,10 -10,0 0,-10z M210,550l10,0 0,10 -10,0 0,-10z M230,550l10,0 0,10 -10,0 0,-10z M240,550l10,0 0,10 -10,0 0,-10z M250,550l10,0 0,10 -10,0 0,-10z M290,550l10,0 0,10 -10,0 0,-10z M300,550l10,0 0,10 -10,0 0,-10z M360,550l10,0 0,10 -10,0 0,-10z M370,550l10,0 0,10 -10,0 0,-10z M380,550l10,0 0,10 -10,0 0,-10z M390,550l10,0 0,10 -10,0 0,-10z M460,550l10,0 0,10 -10,0 0,-10z M470,550l10,0 0,10 -10,0 0,-10z M490,550l10,0 0,10 -10,0 0,-10z M510,550l10,0 0,10 -10,0 0,-10z M520,550l10,0 0,10 -10,0 0,-10z M540,550l10,0 0,10 -10,0 0,-10z M580,550l10,0 0,10 -10,0 0,-10z M600,550l10,0 0,10 -10,0 0,-10z M610,550l10,0 0,10 -10,0 0,-10z M620,550l10,0 0,10 -10,0 0,-10z M640,550l10,0 0,10 -10,0 0,-10z M10,560l10,0 0,10 -10,0 0,-10z M40,560l10,0 0,10 -10,0 0,-10z M90,560l10,0 0,10 -10,0 0,-10z M100,560l10,0 0,10 -10,0 0,-10z M130,560l10,0 0,10 -10,0 0,-10z M220,560l10,0 0,10 -10,0 0,-10z M270,560l10,0 0,10 -10,0 0,-10z M280,560l10,0 0,10 -10,0 0,-10z M290,560l10,0 0,10 -10,0 0,-10z M300,560l10,0 0,10 -10,0 0,-10z M310,560l10,0 0,10 -10,0 0,-10z M340,560l10,0 0,10 -10,0 0,-10z M370,560l10,0 0,10 -10,0 0,-10z M390,560l10,0 0,10 -10,0 0,-10z M410,560l10,0 0,10 -10,0 0,-10z M460,560l10,0 0,10 -10,0 0,-10z M480,560l10,0 0,10 -10,0 0,-10z M510,560l10,0 0,10 -10,0 0,-10z M530,560l10,0 0,10 -10,0 0,-10z M560,560l10,0 0,10 -10,0 0,-10z M570,560l10,0 0,10 -10,0 0,-10z M580,560l10,0 0,10 -10,0 0,-10z M600,560l10,0 0,10 -10,0 0,-10z M630,560l10,0 0,10 -10,0 0,-10z M20,570l10,0 0,10 -10,0 0,-10z M30,570l10,0 0,10 -10,0 0,-10z M50,570l10,0 0,10 -10,0 0,-10z M70,570l10,0 0,10 -10,0 0,-10z M80,570l10,0 0,10 -10,0 0,-10z M110,570l10,0 0,10 -10,0 0,-10z M120,570l10,0 0,10 -10,0 0,-10z M130,570l10,0 0,10 -10,0 0,-10z M140,570l10,0 0,10 -10,0 0,-10z M150,570l10,0 0,10 -10,0 0,-10z M160,570l10,0 0,10 -10,0 0,-10z M170,570l10,0 0,10 -10,0 0,-10z M180,570l10,0 0,10 -10,0 0,-10z M200,570l10,0 0,10 -10,0 0,-10z M210,570l10,0 0,10 -10,0 0,-10z M240,570l10,0 0,10 -10,0 0,-10z M260,570l10,0 0,10 -10,0 0,-10z M290,570l10,0 0,10 -10,0 0,-10z M310,570l10,0 0,10 -10,0 0,-10z M320,570l10,0 0,10 -10,0 0,-10z M330,570l10,0 0,10 -10,0 0,-10z M340,570l10,0 0,10 -10,0 0,-10z M350,570l10,0 0,10 -10,0 0,-10z M370,570l10,0 0,10 -10,0 0,-10z M410,570l10,0 0,10 -10,0 0,-10z M420,570l10,0 0,10 -10,0 0,-10z M440,570l10,0 0,10 -10,0 0,-10z M470,570l10,0 0,10 -10,0 0,-10z M480,570l10,0 0,10 -10,0 0,-10z M520,570l10,0 0,10 -10,0 0,-10z M530,570l10,0 0,10 -10,0 0,-10z M560,570l10,0 0,10 -10,0 0,-10z M570,570l10,0 0,10 -10,0 0,-10z M580,570l10,0 0,10 -10,0 0,-10z M590,570l10,0 0,10 -10,0 0,-10z M600,570l10,0 0,10 -10,0 0,-10z M610,570l10,0 0,10 -10,0 0,-10z M620,570l10,0 0,10 -10,0 0,-10z M630,570l10,0 0,10 -10,0 0,-10z M640,570l10,0 0,10 -10,0 0,-10z M650,570l10,0 0,10 -10,0 0,-10z M90,580l10,0 0,10 -10,0 0,-10z M100,580l10,0 0,10 -10,0 0,-10z M140,580l10,0 0,10 -10,0 0,-10z M150,580l10,0 0,10 -10,0 0,-10z M160,580l10,0 0,10 -10,0 0,-10z M210,580l10,0 0,10 -10,0 0,-10z M240,580l10,0 0,10 -10,0 0,-10z M310,580l10,0 0,10 -10,0 0,-10z M350,580l10,0 0,10 -10,0 0,-10z M420,580l10,0 0,10 -10,0 0,-10z M430,580l10,0 0,10 -10,0 0,-10z M440,580l10,0 0,10 -10,0 0,-10z M460,580l10,0 0,10 -10,0 0,-10z M480,580l10,0 0,10 -10,0 0,-10z M490,580l10,0 0,10 -10,0 0,-10z M530,580l10,0 0,10 -10,0 0,-10z M550,580l10,0 0,10 -10,0 0,-10z M560,580l10,0 0,10 -10,0 0,-10z M570,580l10,0 0,10 -10,0 0,-10z M610,580l10,0 0,10 -10,0 0,-10z M620,580l10,0 0,10 -10,0 0,-10z M640,580l10,0 0,10 -10,0 0,-10z M650,580l10,0 0,10 -10,0 0,-10z M10,590l10,0 0,10 -10,0 0,-10z M20,590l10,0 0,10 -10,0 0,-10z M30,590l10,0 0,10 -10,0 0,-10z M40,590l10,0 0,10 -10,0 0,-10z M50,590l10,0 0,10 -10,0 0,-10z M60,590l10,0 0,10 -10,0 0,-10z M70,590l10,0 0,10 -10,0 0,-10z M100,590l10,0 0,10 -10,0 0,-10z M120,590l10,0 0,10 -10,0 0,-10z M140,590l10,0 0,10 -10,0 0,-10z M150,590l10,0 0,10 -10,0 0,-10z M160,590l10,0 0,10 -10,0 0,-10z M210,590l10,0 0,10 -10,0 0,-10z M220,590l10,0 0,10 -10,0 0,-10z M230,590l10,0 0,10 -10,0 0,-10z M240,590l10,0 0,10 -10,0 0,-10z M250,590l10,0 0,10 -10,0 0,-10z M270,590l10,0 0,10 -10,0 0,-10z M280,590l10,0 0,10 -10,0 0,-10z M300,590l10,0 0,10 -10,0 0,-10z M310,590l10,0 0,10 -10,0 0,-10z M330,590l10,0 0,10 -10,0 0,-10z M350,590l10,0 0,10 -10,0 0,-10z M360,590l10,0 0,10 -10,0 0,-10z M370,590l10,0 0,10 -10,0 0,-10z M380,590l10,0 0,10 -10,0 0,-10z M390,590l10,0 0,10 -10,0 0,-10z M420,590l10,0 0,10 -10,0 0,-10z M450,590l10,0 0,10 -10,0 0,-10z M460,590l10,0 0,10 -10,0 0,-10z M470,590l10,0 0,10 -10,0 0,-10z M500,590l10,0 0,10 -10,0 0,-10z M510,590l10,0 0,10 -10,0 0,-10z M520,590l10,0 0,10 -10,0 0,-10z M530,590l10,0 0,10 -10,0 0,-10z M550,590l10,0 0,10 -10,0 0,-10z M570,590l10,0 0,10 -10,0 0,-10z M590,590l10,0 0,10 -10,0 0,-10z M610,590l10,0 0,10 -10,0 0,-10z M630,590l10,0 0,10 -10,0 0,-10z M10,600l10,0 0,10 -10,0 0,-10z M70,600l10,0 0,10 -10,0 0,-10z M90,600l10,0 0,10 -10,0 0,-10z M100,600l10,0 0,10 -10,0 0,-10z M110,600l10,0 0,10 -10,0 0,-10z M130,600l10,0 0,10 -10,0 0,-10z M150,600l10,0 0,10 -10,0 0,-10z M160,600l10,0 0,10 -10,0 0,-10z M170,600l10,0 0,10 -10,0 0,-10z M180,600l10,0 0,10 -10,0 0,-10z M200,600l10,0 0,10 -10,0 0,-10z M210,600l10,0 0,10 -10,0 0,-10z M220,600l10,0 0,10 -10,0 0,-10z M240,600l10,0 0,10 -10,0 0,-10z M250,600l10,0 0,10 -10,0 0,-10z M260,600l10,0 0,10 -10,0 0,-10z M270,600l10,0 0,10 -10,0 0,-10z M290,600l10,0 0,10 -10,0 0,-10z M310,600l10,0 0,10 -10,0 0,-10z M350,600l10,0 0,10 -10,0 0,-10z M380,600l10,0 0,10 -10,0 0,-10z M440,600l10,0 0,10 -10,0 0,-10z M450,600l10,0 0,10 -10,0 0,-10z M470,600l10,0 0,10 -10,0 0,-10z M490,600l10,0 0,10 -10,0 0,-10z M500,600l10,0 0,10 -10,0 0,-10z M550,600l10,0 0,10 -10,0 0,-10z M570,600l10,0 0,10 -10,0 0,-10z M610,600l10,0 0,10 -10,0 0,-10z M620,600l10,0 0,10 -10,0 0,-10z M640,600l10,0 0,10 -10,0 0,-10z M650,600l10,0 0,10 -10,0 0,-10z M10,610l10,0 0,10 -10,0 0,-10z M30,610l10,0 0,10 -10,0 0,-10z M40,610l10,0 0,10 -10,0 0,-10z M50,610l10,0 0,10 -10,0 0,-10z M70,610l10,0 0,10 -10,0 0,-10z M150,610l10,0 0,10 -10,0 0,-10z M160,610l10,0 0,10 -10,0 0,-10z M170,610l10,0 0,10 -10,0 0,-10z M180,610l10,0 0,10 -10,0 0,-10z M190,610l10,0 0,10 -10,0 0,-10z M200,610l10,0 0,10 -10,0 0,-10z M210,610l10,0 0,10 -10,0 0,-10z M220,610l10,0 0,10 -10,0 0,-10z M230,610l10,0 0,10 -10,0 0,-10z M240,610l10,0 0,10 -10,0 0,-10z M250,610l10,0 0,10 -10,0 0,-10z M260,610l10,0 0,10 -10,0 0,-10z M270,610l10,0 0,10 -10,0 0,-10z M280,610l10,0 0,10 -10,0 0,-10z M290,610l10,0 0,10 -10,0 0,-10z M310,610l10,0 0,10 -10,0 0,-10z M320,610l10,0 0,10 -10,0 0,-10z M330,610l10,0 0,10 -10,0 0,-10z M340,610l10,0 0,10 -10,0 0,-10z M350,610l10,0 0,10 -10,0 0,-10z M360,610l10,0 0,10 -10,0 0,-10z M380,610l10,0 0,10 -10,0 0,-10z M390,610l10,0 0,10 -10,0 0,-10z M400,610l10,0 0,10 -10,0 0,-10z M420,610l10,0 0,10 -10,0 0,-10z M430,610l10,0 0,10 -10,0 0,-10z M490,610l10,0 0,10 -10,0 0,-10z M500,610l10,0 0,10 -10,0 0,-10z M520,610l10,0 0,10 -10,0 0,-10z M550,610l10,0 0,10 -10,0 0,-10z M560,610l10,0 0,10 -10,0 0,-10z M570,610l10,0 0,10 -10,0 0,-10z M580,610l10,0 0,10 -10,0 0,-10z M590,610l10,0 0,10 -10,0 0,-10z M600,610l10,0 0,10 -10,0 0,-10z M610,610l10,0 0,10 -10,0 0,-10z M630,610l10,0 0,10 -10,0 0,-10z M10,620l10,0 0,10 -10,0 0,-10z M30,620l10,0 0,10 -10,0 0,-10z M40,620l10,0 0,10 -10,0 0,-10z M50,620l10,0 0,10 -10,0 0,-10z M70,620l10,0 0,10 -10,0 0,-10z M90,620l10,0 0,10 -10,0 0,-10z M120,620l10,0 0,10 -10,0 0,-10z M130,620l10,0 0,10 -10,0 0,-10z M150,620l10,0 0,10 -10,0 0,-10z M190,620l10,0 0,10 -10,0 0,-10z M200,620l10,0 0,10 -10,0 0,-10z M210,620l10,0 0,10 -10,0 0,-10z M220,620l10,0 0,10 -10,0 0,-10z M230,620l10,0 0,10 -10,0 0,-10z M240,620l10,0 0,10 -10,0 0,-10z M260,620l10,0 0,10 -10,0 0,-10z M270,620l10,0 0,10 -10,0 0,-10z M280,620l10,0 0,10 -10,0 0,-10z M290,620l10,0 0,10 -10,0 0,-10z M310,620l10,0 0,10 -10,0 0,-10z M330,620l10,0 0,10 -10,0 0,-10z M350,620l10,0 0,10 -10,0 0,-10z M360,620l10,0 0,10 -10,0 0,-10z M380,620l10,0 0,10 -10,0 0,-10z M390,620l10,0 0,10 -10,0 0,-10z M420,620l10,0 0,10 -10,0 0,-10z M450,620l10,0 0,10 -10,0 0,-10z M480,620l10,0 0,10 -10,0 0,-10z M500,620l10,0 0,10 -10,0 0,-10z M510,620l10,0 0,10 -10,0 0,-10z M530,620l10,0 0,10 -10,0 0,-10z M540,620l10,0 0,10 -10,0 0,-10z M560,620l10,0 0,10 -10,0 0,-10z M580,620l10,0 0,10 -10,0 0,-10z M600,620l10,0 0,10 -10,0 0,-10z M610,620l10,0 0,10 -10,0 0,-10z M630,620l10,0 0,10 -10,0 0,-10z M10,630l10,0 0,10 -10,0 0,-10z M30,630l10,0 0,10 -10,0 0,-10z M40,630l10,0 0,10 -10,0 0,-10z M50,630l10,0 0,10 -10,0 0,-10z M70,630l10,0 0,10 -10,0 0,-10z M90,630l10,0 0,10 -10,0 0,-10z M110,630l10,0 0,10 -10,0 0,-10z M120,630l10,0 0,10 -10,0 0,-10z M160,630l10,0 0,10 -10,0 0,-10z M190,630l10,0 0,10 -10,0 0,-10z M250,630l10,0 0,10 -10,0 0,-10z M310,630l10,0 0,10 -10,0 0,-10z M320,630l10,0 0,10 -10,0 0,-10z M340,630l10,0 0,10 -10,0 0,-10z M360,630l10,0 0,10 -10,0 0,-10z M410,630l10,0 0,10 -10,0 0,-10z M430,630l10,0 0,10 -10,0 0,-10z M440,630l10,0 0,10 -10,0 0,-10z M480,630l10,0 0,10 -10,0 0,-10z M510,630l10,0 0,10 -10,0 0,-10z M540,630l10,0 0,10 -10,0 0,-10z M550,630l10,0 0,10 -10,0 0,-10z M590,630l10,0 0,10 -10,0 0,-10z M620,630l10,0 0,10 -10,0 0,-10z M650,630l10,0 0,10 -10,0 0,-10z M10,640l10,0 0,10 -10,0 0,-10z M70,640l10,0 0,10 -10,0 0,-10z M90,640l10,0 0,10 -10,0 0,-10z M100,640l10,0 0,10 -10,0 0,-10z M120,640l10,0 0,10 -10,0 0,-10z M130,640l10,0 0,10 -10,0 0,-10z M150,640l10,0 0,10 -10,0 0,-10z M180,640l10,0 0,10 -10,0 0,-10z M200,640l10,0 0,10 -10,0 0,-10z M210,640l10,0 0,10 -10,0 0,-10z M220,640l10,0 0,10 -10,0 0,-10z M230,640l10,0 0,10 -10,0 0,-10z M290,640l10,0 0,10 -10,0 0,-10z M310,640l10,0 0,10 -10,0 0,-10z M350,640l10,0 0,10 -10,0 0,-10z M360,640l10,0 0,10 -10,0 0,-10z M370,640l10,0 0,10 -10,0 0,-10z M380,640l10,0 0,10 -10,0 0,-10z M390,640l10,0 0,10 -10,0 0,-10z M400,640l10,0 0,10 -10,0 0,-10z M410,640l10,0 0,10 -10,0 0,-10z M420,640l10,0 0,10 -10,0 0,-10z M430,640l10,0 0,10 -10,0 0,-10z M520,640l10,0 0,10 -10,0 0,-10z M540,640l10,0 0,10 -10,0 0,-10z M560,640l10,0 0,10 -10,0 0,-10z M570,640l10,0 0,10 -10,0 0,-10z M640,640l10,0 0,10 -10,0 0,-10z M10,650l10,0 0,10 -10,0 0,-10z M20,650l10,0 0,10 -10,0 0,-10z M30,650l10,0 0,10 -10,0 0,-10z M40,650l10,0 0,10 -10,0 0,-10z M50,650l10,0 0,10 -10,0 0,-10z M60,650l10,0 0,10 -10,0 0,-10z M70,650l10,0 0,10 -10,0 0,-10z M120,650l10,0 0,10 -10,0 0,-10z M140,650l10,0 0,10 -10,0 0,-10z M150,650l10,0 0,10 -10,0 0,-10z M160,650l10,0 0,10 -10,0 0,-10z M190,650l10,0 0,10 -10,0 0,-10z M200,650l10,0 0,10 -10,0 0,-10z M220,650l10,0 0,10 -10,0 0,-10z M260,650l10,0 0,10 -10,0 0,-10z M270,650l10,0 0,10 -10,0 0,-10z M280,650l10,0 0,10 -10,0 0,-10z M300,650l10,0 0,10 -10,0 0,-10z M320,650l10,0 0,10 -10,0 0,-10z M330,650l10,0 0,10 -10,0 0,-10z M360,650l10,0 0,10 -10,0 0,-10z M370,650l10,0 0,10 -10,0 0,-10z M420,650l10,0 0,10 -10,0 0,-10z M440,650l10,0 0,10 -10,0 0,-10z M450,650l10,0 0,10 -10,0 0,-10z M460,650l10,0 0,10 -10,0 0,-10z M480,650l10,0 0,10 -10,0 0,-10z M510,650l10,0 0,10 -10,0 0,-10z M520,650l10,0 0,10 -10,0 0,-10z M530,650l10,0 0,10 -10,0 0,-10z M540,650l10,0 0,10 -10,0 0,-10z M550,650l10,0 0,10 -10,0 0,-10z M560,650l10,0 0,10 -10,0 0,-10z M580,650l10,0 0,10 -10,0 0,-10z M590,650l10,0 0,10 -10,0 0,-10z M600,650l10,0 0,10 -10,0 0,-10z M640,650l10,0 0,10 -10,0 0,-10z " stroke="transparent" fill="rgb(0, 0, 0)"/></svg>