<?xml version="1.0" standalone="no"?>
<svg xmlns:xlink="http://www.w3.org/1999/xlink" version="1.1" xmlns="http://www.w3.org/2000/svg" id="QRCodeGenerate" class="img-fluid mw-75" data-copyright="my-qrcode.net" data-modulecount="45" data-defaultsize="470" data-defaultclass="img-fluid mw-75" data-text="https://play.google.com/store/apps/details?id=com.iserv.JKHMobileCabinet.kamchEnergy" data-color="rgb(0, 0, 0)" data-backcolor="none" data-typeicon="none" data-framesize="none" data-framewidth="0" data-titlelocation="none" data-titlefont="sans-serif" data-titletext="" data-typenumber="0" data-errorcorrectionlevel="Q" data-mode="Byte" data-mb="UTF-8" width="470px" height="470px" x="0px" y="0px" viewBox="0 0 470 470" preserveAspectRatio="xMinYMin meet"><rect width="100%" height="100%" fill="none" x="0" y="0"/><path d="M10,10l10,0 0,10 -10,0 0,-10z M20,10l10,0 0,10 -10,0 0,-10z M30,10l10,0 0,10 -10,0 0,-10z M40,10l10,0 0,10 -10,0 0,-10z M50,10l10,0 0,10 -10,0 0,-10z M60,10l10,0 0,10 -10,0 0,-10z M70,10l10,0 0,10 -10,0 0,-10z M90,10l10,0 0,10 -10,0 0,-10z M110,10l10,0 0,10 -10,0 0,-10z M120,10l10,0 0,10 -10,0 0,-10z M140,10l10,0 0,10 -10,0 0,-10z M160,10l10,0 0,10 -10,0 0,-10z M170,10l10,0 0,10 -10,0 0,-10z M190,10l10,0 0,10 -10,0 0,-10z M200,10l10,0 0,10 -10,0 0,-10z M220,10l10,0 0,10 -10,0 0,-10z M250,10l10,0 0,10 -10,0 0,-10z M260,10l10,0 0,10 -10,0 0,-10z M270,10l10,0 0,10 -10,0 0,-10z M300,10l10,0 0,10 -10,0 0,-10z M310,10l10,0 0,10 -10,0 0,-10z M330,10l10,0 0,10 -10,0 0,-10z M340,10l10,0 0,10 -10,0 0,-10z M370,10l10,0 0,10 -10,0 0,-10z M390,10l10,0 0,10 -10,0 0,-10z M400,10l10,0 0,10 -10,0 0,-10z M410,10l10,0 0,10 -10,0 0,-10z M420,10l10,0 0,10 -10,0 0,-10z M430,10l10,0 0,10 -10,0 0,-10z M440,10l10,0 0,10 -10,0 0,-10z M450,10l10,0 0,10 -10,0 0,-10z M10,20l10,0 0,10 -10,0 0,-10z M70,20l10,0 0,10 -10,0 0,-10z M100,20l10,0 0,10 -10,0 0,-10z M110,20l10,0 0,10 -10,0 0,-10z M170,20l10,0 0,10 -10,0 0,-10z M180,20l10,0 0,10 -10,0 0,-10z M190,20l10,0 0,10 -10,0 0,-10z M230,20l10,0 0,10 -10,0 0,-10z M270,20l10,0 0,10 -10,0 0,-10z M300,20l10,0 0,10 -10,0 0,-10z M310,20l10,0 0,10 -10,0 0,-10z M360,20l10,0 0,10 -10,0 0,-10z M390,20l10,0 0,10 -10,0 0,-10z M450,20l10,0 0,10 -10,0 0,-10z M10,30l10,0 0,10 -10,0 0,-10z M30,30l10,0 0,10 -10,0 0,-10z M40,30l10,0 0,10 -10,0 0,-10z M50,30l10,0 0,10 -10,0 0,-10z M70,30l10,0 0,10 -10,0 0,-10z M90,30l10,0 0,10 -10,0 0,-10z M110,30l10,0 0,10 -10,0 0,-10z M140,30l10,0 0,10 -10,0 0,-10z M150,30l10,0 0,10 -10,0 0,-10z M190,30l10,0 0,10 -10,0 0,-10z M210,30l10,0 0,10 -10,0 0,-10z M220,30l10,0 0,10 -10,0 0,-10z M240,30l10,0 0,10 -10,0 0,-10z M250,30l10,0 0,10 -10,0 0,-10z M260,30l10,0 0,10 -10,0 0,-10z M270,30l10,0 0,10 -10,0 0,-10z M320,30l10,0 0,10 -10,0 0,-10z M330,30l10,0 0,10 -10,0 0,-10z M360,30l10,0 0,10 -10,0 0,-10z M390,30l10,0 0,10 -10,0 0,-10z M410,30l10,0 0,10 -10,0 0,-10z M420,30l10,0 0,10 -10,0 0,-10z M430,30l10,0 0,10 -10,0 0,-10z M450,30l10,0 0,10 -10,0 0,-10z M10,40l10,0 0,10 -10,0 0,-10z M30,40l10,0 0,10 -10,0 0,-10z M40,40l10,0 0,10 -10,0 0,-10z M50,40l10,0 0,10 -10,0 0,-10z M70,40l10,0 0,10 -10,0 0,-10z M90,40l10,0 0,10 -10,0 0,-10z M110,40l10,0 0,10 -10,0 0,-10z M130,40l10,0 0,10 -10,0 0,-10z M160,40l10,0 0,10 -10,0 0,-10z M170,40l10,0 0,10 -10,0 0,-10z M180,40l10,0 0,10 -10,0 0,-10z M190,40l10,0 0,10 -10,0 0,-10z M200,40l10,0 0,10 -10,0 0,-10z M230,40l10,0 0,10 -10,0 0,-10z M240,40l10,0 0,10 -10,0 0,-10z M250,40l10,0 0,10 -10,0 0,-10z M260,40l10,0 0,10 -10,0 0,-10z M270,40l10,0 0,10 -10,0 0,-10z M280,40l10,0 0,10 -10,0 0,-10z M360,40l10,0 0,10 -10,0 0,-10z M370,40l10,0 0,10 -10,0 0,-10z M390,40l10,0 0,10 -10,0 0,-10z M410,40l10,0 0,10 -10,0 0,-10z M420,40l10,0 0,10 -10,0 0,-10z M430,40l10,0 0,10 -10,0 0,-10z M450,40l10,0 0,10 -10,0 0,-10z M10,50l10,0 0,10 -10,0 0,-10z M30,50l10,0 0,10 -10,0 0,-10z M40,50l10,0 0,10 -10,0 0,-10z M50,50l10,0 0,10 -10,0 0,-10z M70,50l10,0 0,10 -10,0 0,-10z M110,50l10,0 0,10 -10,0 0,-10z M130,50l10,0 0,10 -10,0 0,-10z M170,50l10,0 0,10 -10,0 0,-10z M180,50l10,0 0,10 -10,0 0,-10z M190,50l10,0 0,10 -10,0 0,-10z M200,50l10,0 0,10 -10,0 0,-10z M210,50l10,0 0,10 -10,0 0,-10z M220,50l10,0 0,10 -10,0 0,-10z M230,50l10,0 0,10 -10,0 0,-10z M240,50l10,0 0,10 -10,0 0,-10z M250,50l10,0 0,10 -10,0 0,-10z M290,50l10,0 0,10 -10,0 0,-10z M310,50l10,0 0,10 -10,0 0,-10z M330,50l10,0 0,10 -10,0 0,-10z M340,50l10,0 0,10 -10,0 0,-10z M350,50l10,0 0,10 -10,0 0,-10z M360,50l10,0 0,10 -10,0 0,-10z M370,50l10,0 0,10 -10,0 0,-10z M390,50l10,0 0,10 -10,0 0,-10z M410,50l10,0 0,10 -10,0 0,-10z M420,50l10,0 0,10 -10,0 0,-10z M430,50l10,0 0,10 -10,0 0,-10z M450,50l10,0 0,10 -10,0 0,-10z M10,60l10,0 0,10 -10,0 0,-10z M70,60l10,0 0,10 -10,0 0,-10z M90,60l10,0 0,10 -10,0 0,-10z M100,60l10,0 0,10 -10,0 0,-10z M140,60l10,0 0,10 -10,0 0,-10z M160,60l10,0 0,10 -10,0 0,-10z M170,60l10,0 0,10 -10,0 0,-10z M190,60l10,0 0,10 -10,0 0,-10z M210,60l10,0 0,10 -10,0 0,-10z M250,60l10,0 0,10 -10,0 0,-10z M260,60l10,0 0,10 -10,0 0,-10z M270,60l10,0 0,10 -10,0 0,-10z M310,60l10,0 0,10 -10,0 0,-10z M330,60l10,0 0,10 -10,0 0,-10z M340,60l10,0 0,10 -10,0 0,-10z M390,60l10,0 0,10 -10,0 0,-10z M450,60l10,0 0,10 -10,0 0,-10z M10,70l10,0 0,10 -10,0 0,-10z M20,70l10,0 0,10 -10,0 0,-10z M30,70l10,0 0,10 -10,0 0,-10z M40,70l10,0 0,10 -10,0 0,-10z M50,70l10,0 0,10 -10,0 0,-10z M60,70l10,0 0,10 -10,0 0,-10z M70,70l10,0 0,10 -10,0 0,-10z M90,70l10,0 0,10 -10,0 0,-10z M110,70l10,0 0,10 -10,0 0,-10z M130,70l10,0 0,10 -10,0 0,-10z M150,70l10,0 0,10 -10,0 0,-10z M170,70l10,0 0,10 -10,0 0,-10z M190,70l10,0 0,10 -10,0 0,-10z M210,70l10,0 0,10 -10,0 0,-10z M230,70l10,0 0,10 -10,0 0,-10z M250,70l10,0 0,10 -10,0 0,-10z M270,70l10,0 0,10 -10,0 0,-10z M290,70l10,0 0,10 -10,0 0,-10z M310,70l10,0 0,10 -10,0 0,-10z M330,70l10,0 0,10 -10,0 0,-10z M350,70l10,0 0,10 -10,0 0,-10z M370,70l10,0 0,10 -10,0 0,-10z M390,70l10,0 0,10 -10,0 0,-10z M400,70l10,0 0,10 -10,0 0,-10z M410,70l10,0 0,10 -10,0 0,-10z M420,70l10,0 0,10 -10,0 0,-10z M430,70l10,0 0,10 -10,0 0,-10z M440,70l10,0 0,10 -10,0 0,-10z M450,70l10,0 0,10 -10,0 0,-10z M90,80l10,0 0,10 -10,0 0,-10z M100,80l10,0 0,10 -10,0 0,-10z M110,80l10,0 0,10 -10,0 0,-10z M140,80l10,0 0,10 -10,0 0,-10z M160,80l10,0 0,10 -10,0 0,-10z M180,80l10,0 0,10 -10,0 0,-10z M210,80l10,0 0,10 -10,0 0,-10z M250,80l10,0 0,10 -10,0 0,-10z M260,80l10,0 0,10 -10,0 0,-10z M270,80l10,0 0,10 -10,0 0,-10z M280,80l10,0 0,10 -10,0 0,-10z M330,80l10,0 0,10 -10,0 0,-10z M340,80l10,0 0,10 -10,0 0,-10z M370,80l10,0 0,10 -10,0 0,-10z M20,90l10,0 0,10 -10,0 0,-10z M40,90l10,0 0,10 -10,0 0,-10z M60,90l10,0 0,10 -10,0 0,-10z M70,90l10,0 0,10 -10,0 0,-10z M80,90l10,0 0,10 -10,0 0,-10z M90,90l10,0 0,10 -10,0 0,-10z M100,90l10,0 0,10 -10,0 0,-10z M110,90l10,0 0,10 -10,0 0,-10z M120,90l10,0 0,10 -10,0 0,-10z M140,90l10,0 0,10 -10,0 0,-10z M180,90l10,0 0,10 -10,0 0,-10z M200,90l10,0 0,10 -10,0 0,-10z M210,90l10,0 0,10 -10,0 0,-10z M220,90l10,0 0,10 -10,0 0,-10z M230,90l10,0 0,10 -10,0 0,-10z M240,90l10,0 0,10 -10,0 0,-10z M250,90l10,0 0,10 -10,0 0,-10z M280,90l10,0 0,10 -10,0 0,-10z M290,90l10,0 0,10 -10,0 0,-10z M310,90l10,0 0,10 -10,0 0,-10z M320,90l10,0 0,10 -10,0 0,-10z M340,90l10,0 0,10 -10,0 0,-10z M350,90l10,0 0,10 -10,0 0,-10z M380,90l10,0 0,10 -10,0 0,-10z M390,90l10,0 0,10 -10,0 0,-10z M400,90l10,0 0,10 -10,0 0,-10z M420,90l10,0 0,10 -10,0 0,-10z M430,90l10,0 0,10 -10,0 0,-10z M450,90l10,0 0,10 -10,0 0,-10z M10,100l10,0 0,10 -10,0 0,-10z M20,100l10,0 0,10 -10,0 0,-10z M50,100l10,0 0,10 -10,0 0,-10z M80,100l10,0 0,10 -10,0 0,-10z M90,100l10,0 0,10 -10,0 0,-10z M100,100l10,0 0,10 -10,0 0,-10z M110,100l10,0 0,10 -10,0 0,-10z M120,100l10,0 0,10 -10,0 0,-10z M130,100l10,0 0,10 -10,0 0,-10z M160,100l10,0 0,10 -10,0 0,-10z M170,100l10,0 0,10 -10,0 0,-10z M190,100l10,0 0,10 -10,0 0,-10z M200,100l10,0 0,10 -10,0 0,-10z M210,100l10,0 0,10 -10,0 0,-10z M250,100l10,0 0,10 -10,0 0,-10z M330,100l10,0 0,10 -10,0 0,-10z M400,100l10,0 0,10 -10,0 0,-10z M430,100l10,0 0,10 -10,0 0,-10z M440,100l10,0 0,10 -10,0 0,-10z M450,100l10,0 0,10 -10,0 0,-10z M10,110l10,0 0,10 -10,0 0,-10z M40,110l10,0 0,10 -10,0 0,-10z M70,110l10,0 0,10 -10,0 0,-10z M80,110l10,0 0,10 -10,0 0,-10z M110,110l10,0 0,10 -10,0 0,-10z M130,110l10,0 0,10 -10,0 0,-10z M150,110l10,0 0,10 -10,0 0,-10z M170,110l10,0 0,10 -10,0 0,-10z M180,110l10,0 0,10 -10,0 0,-10z M220,110l10,0 0,10 -10,0 0,-10z M250,110l10,0 0,10 -10,0 0,-10z M290,110l10,0 0,10 -10,0 0,-10z M300,110l10,0 0,10 -10,0 0,-10z M320,110l10,0 0,10 -10,0 0,-10z M330,110l10,0 0,10 -10,0 0,-10z M350,110l10,0 0,10 -10,0 0,-10z M370,110l10,0 0,10 -10,0 0,-10z M400,110l10,0 0,10 -10,0 0,-10z M420,110l10,0 0,10 -10,0 0,-10z M450,110l10,0 0,10 -10,0 0,-10z M10,120l10,0 0,10 -10,0 0,-10z M20,120l10,0 0,10 -10,0 0,-10z M50,120l10,0 0,10 -10,0 0,-10z M60,120l10,0 0,10 -10,0 0,-10z M80,120l10,0 0,10 -10,0 0,-10z M100,120l10,0 0,10 -10,0 0,-10z M110,120l10,0 0,10 -10,0 0,-10z M140,120l10,0 0,10 -10,0 0,-10z M150,120l10,0 0,10 -10,0 0,-10z M160,120l10,0 0,10 -10,0 0,-10z M170,120l10,0 0,10 -10,0 0,-10z M190,120l10,0 0,10 -10,0 0,-10z M200,120l10,0 0,10 -10,0 0,-10z M210,120l10,0 0,10 -10,0 0,-10z M280,120l10,0 0,10 -10,0 0,-10z M290,120l10,0 0,10 -10,0 0,-10z M340,120l10,0 0,10 -10,0 0,-10z M350,120l10,0 0,10 -10,0 0,-10z M390,120l10,0 0,10 -10,0 0,-10z M400,120l10,0 0,10 -10,0 0,-10z M410,120l10,0 0,10 -10,0 0,-10z M420,120l10,0 0,10 -10,0 0,-10z M440,120l10,0 0,10 -10,0 0,-10z M10,130l10,0 0,10 -10,0 0,-10z M40,130l10,0 0,10 -10,0 0,-10z M50,130l10,0 0,10 -10,0 0,-10z M60,130l10,0 0,10 -10,0 0,-10z M70,130l10,0 0,10 -10,0 0,-10z M90,130l10,0 0,10 -10,0 0,-10z M110,130l10,0 0,10 -10,0 0,-10z M120,130l10,0 0,10 -10,0 0,-10z M130,130l10,0 0,10 -10,0 0,-10z M160,130l10,0 0,10 -10,0 0,-10z M170,130l10,0 0,10 -10,0 0,-10z M180,130l10,0 0,10 -10,0 0,-10z M190,130l10,0 0,10 -10,0 0,-10z M200,130l10,0 0,10 -10,0 0,-10z M210,130l10,0 0,10 -10,0 0,-10z M220,130l10,0 0,10 -10,0 0,-10z M240,130l10,0 0,10 -10,0 0,-10z M280,130l10,0 0,10 -10,0 0,-10z M290,130l10,0 0,10 -10,0 0,-10z M300,130l10,0 0,10 -10,0 0,-10z M320,130l10,0 0,10 -10,0 0,-10z M330,130l10,0 0,10 -10,0 0,-10z M350,130l10,0 0,10 -10,0 0,-10z M380,130l10,0 0,10 -10,0 0,-10z M400,130l10,0 0,10 -10,0 0,-10z M410,130l10,0 0,10 -10,0 0,-10z M450,130l10,0 0,10 -10,0 0,-10z M20,140l10,0 0,10 -10,0 0,-10z M40,140l10,0 0,10 -10,0 0,-10z M50,140l10,0 0,10 -10,0 0,-10z M60,140l10,0 0,10 -10,0 0,-10z M80,140l10,0 0,10 -10,0 0,-10z M110,140l10,0 0,10 -10,0 0,-10z M160,140l10,0 0,10 -10,0 0,-10z M180,140l10,0 0,10 -10,0 0,-10z M210,140l10,0 0,10 -10,0 0,-10z M240,140l10,0 0,10 -10,0 0,-10z M260,140l10,0 0,10 -10,0 0,-10z M280,140l10,0 0,10 -10,0 0,-10z M290,140l10,0 0,10 -10,0 0,-10z M320,140l10,0 0,10 -10,0 0,-10z M350,140l10,0 0,10 -10,0 0,-10z M360,140l10,0 0,10 -10,0 0,-10z M380,140l10,0 0,10 -10,0 0,-10z M410,140l10,0 0,10 -10,0 0,-10z M420,140l10,0 0,10 -10,0 0,-10z M430,140l10,0 0,10 -10,0 0,-10z M450,140l10,0 0,10 -10,0 0,-10z M40,150l10,0 0,10 -10,0 0,-10z M50,150l10,0 0,10 -10,0 0,-10z M60,150l10,0 0,10 -10,0 0,-10z M70,150l10,0 0,10 -10,0 0,-10z M90,150l10,0 0,10 -10,0 0,-10z M110,150l10,0 0,10 -10,0 0,-10z M150,150l10,0 0,10 -10,0 0,-10z M160,150l10,0 0,10 -10,0 0,-10z M170,150l10,0 0,10 -10,0 0,-10z M210,150l10,0 0,10 -10,0 0,-10z M230,150l10,0 0,10 -10,0 0,-10z M250,150l10,0 0,10 -10,0 0,-10z M280,150l10,0 0,10 -10,0 0,-10z M290,150l10,0 0,10 -10,0 0,-10z M300,150l10,0 0,10 -10,0 0,-10z M330,150l10,0 0,10 -10,0 0,-10z M350,150l10,0 0,10 -10,0 0,-10z M370,150l10,0 0,10 -10,0 0,-10z M390,150l10,0 0,10 -10,0 0,-10z M410,150l10,0 0,10 -10,0 0,-10z M440,150l10,0 0,10 -10,0 0,-10z M20,160l10,0 0,10 -10,0 0,-10z M30,160l10,0 0,10 -10,0 0,-10z M50,160l10,0 0,10 -10,0 0,-10z M60,160l10,0 0,10 -10,0 0,-10z M90,160l10,0 0,10 -10,0 0,-10z M130,160l10,0 0,10 -10,0 0,-10z M160,160l10,0 0,10 -10,0 0,-10z M170,160l10,0 0,10 -10,0 0,-10z M190,160l10,0 0,10 -10,0 0,-10z M200,160l10,0 0,10 -10,0 0,-10z M220,160l10,0 0,10 -10,0 0,-10z M240,160l10,0 0,10 -10,0 0,-10z M280,160l10,0 0,10 -10,0 0,-10z M290,160l10,0 0,10 -10,0 0,-10z M300,160l10,0 0,10 -10,0 0,-10z M320,160l10,0 0,10 -10,0 0,-10z M330,160l10,0 0,10 -10,0 0,-10z M340,160l10,0 0,10 -10,0 0,-10z M350,160l10,0 0,10 -10,0 0,-10z M380,160l10,0 0,10 -10,0 0,-10z M400,160l10,0 0,10 -10,0 0,-10z M410,160l10,0 0,10 -10,0 0,-10z M450,160l10,0 0,10 -10,0 0,-10z M10,170l10,0 0,10 -10,0 0,-10z M40,170l10,0 0,10 -10,0 0,-10z M50,170l10,0 0,10 -10,0 0,-10z M70,170l10,0 0,10 -10,0 0,-10z M100,170l10,0 0,10 -10,0 0,-10z M110,170l10,0 0,10 -10,0 0,-10z M120,170l10,0 0,10 -10,0 0,-10z M130,170l10,0 0,10 -10,0 0,-10z M160,170l10,0 0,10 -10,0 0,-10z M170,170l10,0 0,10 -10,0 0,-10z M180,170l10,0 0,10 -10,0 0,-10z M190,170l10,0 0,10 -10,0 0,-10z M210,170l10,0 0,10 -10,0 0,-10z M270,170l10,0 0,10 -10,0 0,-10z M300,170l10,0 0,10 -10,0 0,-10z M310,170l10,0 0,10 -10,0 0,-10z M330,170l10,0 0,10 -10,0 0,-10z M350,170l10,0 0,10 -10,0 0,-10z M360,170l10,0 0,10 -10,0 0,-10z M390,170l10,0 0,10 -10,0 0,-10z M400,170l10,0 0,10 -10,0 0,-10z M430,170l10,0 0,10 -10,0 0,-10z M450,170l10,0 0,10 -10,0 0,-10z M10,180l10,0 0,10 -10,0 0,-10z M20,180l10,0 0,10 -10,0 0,-10z M40,180l10,0 0,10 -10,0 0,-10z M140,180l10,0 0,10 -10,0 0,-10z M150,180l10,0 0,10 -10,0 0,-10z M190,180l10,0 0,10 -10,0 0,-10z M200,180l10,0 0,10 -10,0 0,-10z M270,180l10,0 0,10 -10,0 0,-10z M300,180l10,0 0,10 -10,0 0,-10z M320,180l10,0 0,10 -10,0 0,-10z M330,180l10,0 0,10 -10,0 0,-10z M340,180l10,0 0,10 -10,0 0,-10z M390,180l10,0 0,10 -10,0 0,-10z M420,180l10,0 0,10 -10,0 0,-10z M430,180l10,0 0,10 -10,0 0,-10z M440,180l10,0 0,10 -10,0 0,-10z M10,190l10,0 0,10 -10,0 0,-10z M20,190l10,0 0,10 -10,0 0,-10z M50,190l10,0 0,10 -10,0 0,-10z M60,190l10,0 0,10 -10,0 0,-10z M70,190l10,0 0,10 -10,0 0,-10z M80,190l10,0 0,10 -10,0 0,-10z M90,190l10,0 0,10 -10,0 0,-10z M120,190l10,0 0,10 -10,0 0,-10z M130,190l10,0 0,10 -10,0 0,-10z M140,190l10,0 0,10 -10,0 0,-10z M170,190l10,0 0,10 -10,0 0,-10z M200,190l10,0 0,10 -10,0 0,-10z M210,190l10,0 0,10 -10,0 0,-10z M220,190l10,0 0,10 -10,0 0,-10z M230,190l10,0 0,10 -10,0 0,-10z M240,190l10,0 0,10 -10,0 0,-10z M260,190l10,0 0,10 -10,0 0,-10z M320,190l10,0 0,10 -10,0 0,-10z M330,190l10,0 0,10 -10,0 0,-10z M360,190l10,0 0,10 -10,0 0,-10z M380,190l10,0 0,10 -10,0 0,-10z M400,190l10,0 0,10 -10,0 0,-10z M440,190l10,0 0,10 -10,0 0,-10z M450,190l10,0 0,10 -10,0 0,-10z M10,200l10,0 0,10 -10,0 0,-10z M40,200l10,0 0,10 -10,0 0,-10z M50,200l10,0 0,10 -10,0 0,-10z M60,200l10,0 0,10 -10,0 0,-10z M80,200l10,0 0,10 -10,0 0,-10z M90,200l10,0 0,10 -10,0 0,-10z M110,200l10,0 0,10 -10,0 0,-10z M120,200l10,0 0,10 -10,0 0,-10z M130,200l10,0 0,10 -10,0 0,-10z M150,200l10,0 0,10 -10,0 0,-10z M170,200l10,0 0,10 -10,0 0,-10z M180,200l10,0 0,10 -10,0 0,-10z M190,200l10,0 0,10 -10,0 0,-10z M200,200l10,0 0,10 -10,0 0,-10z M230,200l10,0 0,10 -10,0 0,-10z M250,200l10,0 0,10 -10,0 0,-10z M280,200l10,0 0,10 -10,0 0,-10z M290,200l10,0 0,10 -10,0 0,-10z M300,200l10,0 0,10 -10,0 0,-10z M330,200l10,0 0,10 -10,0 0,-10z M360,200l10,0 0,10 -10,0 0,-10z M380,200l10,0 0,10 -10,0 0,-10z M390,200l10,0 0,10 -10,0 0,-10z M10,210l10,0 0,10 -10,0 0,-10z M30,210l10,0 0,10 -10,0 0,-10z M50,210l10,0 0,10 -10,0 0,-10z M60,210l10,0 0,10 -10,0 0,-10z M70,210l10,0 0,10 -10,0 0,-10z M80,210l10,0 0,10 -10,0 0,-10z M90,210l10,0 0,10 -10,0 0,-10z M110,210l10,0 0,10 -10,0 0,-10z M120,210l10,0 0,10 -10,0 0,-10z M130,210l10,0 0,10 -10,0 0,-10z M140,210l10,0 0,10 -10,0 0,-10z M150,210l10,0 0,10 -10,0 0,-10z M160,210l10,0 0,10 -10,0 0,-10z M170,210l10,0 0,10 -10,0 0,-10z M200,210l10,0 0,10 -10,0 0,-10z M210,210l10,0 0,10 -10,0 0,-10z M220,210l10,0 0,10 -10,0 0,-10z M230,210l10,0 0,10 -10,0 0,-10z M240,210l10,0 0,10 -10,0 0,-10z M250,210l10,0 0,10 -10,0 0,-10z M260,210l10,0 0,10 -10,0 0,-10z M290,210l10,0 0,10 -10,0 0,-10z M300,210l10,0 0,10 -10,0 0,-10z M320,210l10,0 0,10 -10,0 0,-10z M360,210l10,0 0,10 -10,0 0,-10z M370,210l10,0 0,10 -10,0 0,-10z M380,210l10,0 0,10 -10,0 0,-10z M390,210l10,0 0,10 -10,0 0,-10z M400,210l10,0 0,10 -10,0 0,-10z M410,210l10,0 0,10 -10,0 0,-10z M420,210l10,0 0,10 -10,0 0,-10z M440,210l10,0 0,10 -10,0 0,-10z M20,220l10,0 0,10 -10,0 0,-10z M40,220l10,0 0,10 -10,0 0,-10z M50,220l10,0 0,10 -10,0 0,-10z M90,220l10,0 0,10 -10,0 0,-10z M100,220l10,0 0,10 -10,0 0,-10z M130,220l10,0 0,10 -10,0 0,-10z M150,220l10,0 0,10 -10,0 0,-10z M160,220l10,0 0,10 -10,0 0,-10z M180,220l10,0 0,10 -10,0 0,-10z M200,220l10,0 0,10 -10,0 0,-10z M210,220l10,0 0,10 -10,0 0,-10z M250,220l10,0 0,10 -10,0 0,-10z M260,220l10,0 0,10 -10,0 0,-10z M330,220l10,0 0,10 -10,0 0,-10z M370,220l10,0 0,10 -10,0 0,-10z M410,220l10,0 0,10 -10,0 0,-10z M420,220l10,0 0,10 -10,0 0,-10z M430,220l10,0 0,10 -10,0 0,-10z M440,220l10,0 0,10 -10,0 0,-10z M450,220l10,0 0,10 -10,0 0,-10z M20,230l10,0 0,10 -10,0 0,-10z M40,230l10,0 0,10 -10,0 0,-10z M50,230l10,0 0,10 -10,0 0,-10z M70,230l10,0 0,10 -10,0 0,-10z M90,230l10,0 0,10 -10,0 0,-10z M110,230l10,0 0,10 -10,0 0,-10z M130,230l10,0 0,10 -10,0 0,-10z M140,230l10,0 0,10 -10,0 0,-10z M160,230l10,0 0,10 -10,0 0,-10z M180,230l10,0 0,10 -10,0 0,-10z M190,230l10,0 0,10 -10,0 0,-10z M200,230l10,0 0,10 -10,0 0,-10z M210,230l10,0 0,10 -10,0 0,-10z M230,230l10,0 0,10 -10,0 0,-10z M250,230l10,0 0,10 -10,0 0,-10z M270,230l10,0 0,10 -10,0 0,-10z M290,230l10,0 0,10 -10,0 0,-10z M350,230l10,0 0,10 -10,0 0,-10z M360,230l10,0 0,10 -10,0 0,-10z M370,230l10,0 0,10 -10,0 0,-10z M390,230l10,0 0,10 -10,0 0,-10z M410,230l10,0 0,10 -10,0 0,-10z M430,230l10,0 0,10 -10,0 0,-10z M440,230l10,0 0,10 -10,0 0,-10z M450,230l10,0 0,10 -10,0 0,-10z M10,240l10,0 0,10 -10,0 0,-10z M50,240l10,0 0,10 -10,0 0,-10z M90,240l10,0 0,10 -10,0 0,-10z M100,240l10,0 0,10 -10,0 0,-10z M110,240l10,0 0,10 -10,0 0,-10z M130,240l10,0 0,10 -10,0 0,-10z M150,240l10,0 0,10 -10,0 0,-10z M160,240l10,0 0,10 -10,0 0,-10z M180,240l10,0 0,10 -10,0 0,-10z M210,240l10,0 0,10 -10,0 0,-10z M250,240l10,0 0,10 -10,0 0,-10z M260,240l10,0 0,10 -10,0 0,-10z M280,240l10,0 0,10 -10,0 0,-10z M290,240l10,0 0,10 -10,0 0,-10z M300,240l10,0 0,10 -10,0 0,-10z M310,240l10,0 0,10 -10,0 0,-10z M340,240l10,0 0,10 -10,0 0,-10z M370,240l10,0 0,10 -10,0 0,-10z M410,240l10,0 0,10 -10,0 0,-10z M420,240l10,0 0,10 -10,0 0,-10z M440,240l10,0 0,10 -10,0 0,-10z M450,240l10,0 0,10 -10,0 0,-10z M30,250l10,0 0,10 -10,0 0,-10z M40,250l10,0 0,10 -10,0 0,-10z M50,250l10,0 0,10 -10,0 0,-10z M60,250l10,0 0,10 -10,0 0,-10z M70,250l10,0 0,10 -10,0 0,-10z M80,250l10,0 0,10 -10,0 0,-10z M90,250l10,0 0,10 -10,0 0,-10z M130,250l10,0 0,10 -10,0 0,-10z M140,250l10,0 0,10 -10,0 0,-10z M150,250l10,0 0,10 -10,0 0,-10z M170,250l10,0 0,10 -10,0 0,-10z M180,250l10,0 0,10 -10,0 0,-10z M200,250l10,0 0,10 -10,0 0,-10z M210,250l10,0 0,10 -10,0 0,-10z M220,250l10,0 0,10 -10,0 0,-10z M230,250l10,0 0,10 -10,0 0,-10z M240,250l10,0 0,10 -10,0 0,-10z M250,250l10,0 0,10 -10,0 0,-10z M270,250l10,0 0,10 -10,0 0,-10z M280,250l10,0 0,10 -10,0 0,-10z M290,250l10,0 0,10 -10,0 0,-10z M310,250l10,0 0,10 -10,0 0,-10z M320,250l10,0 0,10 -10,0 0,-10z M330,250l10,0 0,10 -10,0 0,-10z M340,250l10,0 0,10 -10,0 0,-10z M360,250l10,0 0,10 -10,0 0,-10z M370,250l10,0 0,10 -10,0 0,-10z M380,250l10,0 0,10 -10,0 0,-10z M390,250l10,0 0,10 -10,0 0,-10z M400,250l10,0 0,10 -10,0 0,-10z M410,250l10,0 0,10 -10,0 0,-10z M420,250l10,0 0,10 -10,0 0,-10z M440,250l10,0 0,10 -10,0 0,-10z M450,250l10,0 0,10 -10,0 0,-10z M30,260l10,0 0,10 -10,0 0,-10z M50,260l10,0 0,10 -10,0 0,-10z M80,260l10,0 0,10 -10,0 0,-10z M90,260l10,0 0,10 -10,0 0,-10z M120,260l10,0 0,10 -10,0 0,-10z M140,260l10,0 0,10 -10,0 0,-10z M160,260l10,0 0,10 -10,0 0,-10z M180,260l10,0 0,10 -10,0 0,-10z M190,260l10,0 0,10 -10,0 0,-10z M220,260l10,0 0,10 -10,0 0,-10z M230,260l10,0 0,10 -10,0 0,-10z M240,260l10,0 0,10 -10,0 0,-10z M250,260l10,0 0,10 -10,0 0,-10z M270,260l10,0 0,10 -10,0 0,-10z M290,260l10,0 0,10 -10,0 0,-10z M320,260l10,0 0,10 -10,0 0,-10z M330,260l10,0 0,10 -10,0 0,-10z M340,260l10,0 0,10 -10,0 0,-10z M350,260l10,0 0,10 -10,0 0,-10z M380,260l10,0 0,10 -10,0 0,-10z M400,260l10,0 0,10 -10,0 0,-10z M410,260l10,0 0,10 -10,0 0,-10z M430,260l10,0 0,10 -10,0 0,-10z M10,270l10,0 0,10 -10,0 0,-10z M20,270l10,0 0,10 -10,0 0,-10z M40,270l10,0 0,10 -10,0 0,-10z M50,270l10,0 0,10 -10,0 0,-10z M60,270l10,0 0,10 -10,0 0,-10z M70,270l10,0 0,10 -10,0 0,-10z M80,270l10,0 0,10 -10,0 0,-10z M100,270l10,0 0,10 -10,0 0,-10z M130,270l10,0 0,10 -10,0 0,-10z M140,270l10,0 0,10 -10,0 0,-10z M160,270l10,0 0,10 -10,0 0,-10z M170,270l10,0 0,10 -10,0 0,-10z M210,270l10,0 0,10 -10,0 0,-10z M220,270l10,0 0,10 -10,0 0,-10z M270,270l10,0 0,10 -10,0 0,-10z M300,270l10,0 0,10 -10,0 0,-10z M320,270l10,0 0,10 -10,0 0,-10z M330,270l10,0 0,10 -10,0 0,-10z M360,270l10,0 0,10 -10,0 0,-10z M370,270l10,0 0,10 -10,0 0,-10z M380,270l10,0 0,10 -10,0 0,-10z M410,270l10,0 0,10 -10,0 0,-10z M440,270l10,0 0,10 -10,0 0,-10z M20,280l10,0 0,10 -10,0 0,-10z M30,280l10,0 0,10 -10,0 0,-10z M50,280l10,0 0,10 -10,0 0,-10z M60,280l10,0 0,10 -10,0 0,-10z M80,280l10,0 0,10 -10,0 0,-10z M100,280l10,0 0,10 -10,0 0,-10z M170,280l10,0 0,10 -10,0 0,-10z M190,280l10,0 0,10 -10,0 0,-10z M200,280l10,0 0,10 -10,0 0,-10z M220,280l10,0 0,10 -10,0 0,-10z M250,280l10,0 0,10 -10,0 0,-10z M260,280l10,0 0,10 -10,0 0,-10z M270,280l10,0 0,10 -10,0 0,-10z M290,280l10,0 0,10 -10,0 0,-10z M310,280l10,0 0,10 -10,0 0,-10z M320,280l10,0 0,10 -10,0 0,-10z M330,280l10,0 0,10 -10,0 0,-10z M350,280l10,0 0,10 -10,0 0,-10z M370,280l10,0 0,10 -10,0 0,-10z M380,280l10,0 0,10 -10,0 0,-10z M390,280l10,0 0,10 -10,0 0,-10z M440,280l10,0 0,10 -10,0 0,-10z M450,280l10,0 0,10 -10,0 0,-10z M10,290l10,0 0,10 -10,0 0,-10z M20,290l10,0 0,10 -10,0 0,-10z M30,290l10,0 0,10 -10,0 0,-10z M70,290l10,0 0,10 -10,0 0,-10z M80,290l10,0 0,10 -10,0 0,-10z M110,290l10,0 0,10 -10,0 0,-10z M140,290l10,0 0,10 -10,0 0,-10z M160,290l10,0 0,10 -10,0 0,-10z M170,290l10,0 0,10 -10,0 0,-10z M190,290l10,0 0,10 -10,0 0,-10z M240,290l10,0 0,10 -10,0 0,-10z M250,290l10,0 0,10 -10,0 0,-10z M270,290l10,0 0,10 -10,0 0,-10z M280,290l10,0 0,10 -10,0 0,-10z M300,290l10,0 0,10 -10,0 0,-10z M330,290l10,0 0,10 -10,0 0,-10z M340,290l10,0 0,10 -10,0 0,-10z M370,290l10,0 0,10 -10,0 0,-10z M410,290l10,0 0,10 -10,0 0,-10z M440,290l10,0 0,10 -10,0 0,-10z M10,300l10,0 0,10 -10,0 0,-10z M20,300l10,0 0,10 -10,0 0,-10z M60,300l10,0 0,10 -10,0 0,-10z M110,300l10,0 0,10 -10,0 0,-10z M170,300l10,0 0,10 -10,0 0,-10z M180,300l10,0 0,10 -10,0 0,-10z M200,300l10,0 0,10 -10,0 0,-10z M210,300l10,0 0,10 -10,0 0,-10z M220,300l10,0 0,10 -10,0 0,-10z M240,300l10,0 0,10 -10,0 0,-10z M250,300l10,0 0,10 -10,0 0,-10z M260,300l10,0 0,10 -10,0 0,-10z M270,300l10,0 0,10 -10,0 0,-10z M280,300l10,0 0,10 -10,0 0,-10z M290,300l10,0 0,10 -10,0 0,-10z M300,300l10,0 0,10 -10,0 0,-10z M320,300l10,0 0,10 -10,0 0,-10z M340,300l10,0 0,10 -10,0 0,-10z M360,300l10,0 0,10 -10,0 0,-10z M420,300l10,0 0,10 -10,0 0,-10z M20,310l10,0 0,10 -10,0 0,-10z M40,310l10,0 0,10 -10,0 0,-10z M50,310l10,0 0,10 -10,0 0,-10z M60,310l10,0 0,10 -10,0 0,-10z M70,310l10,0 0,10 -10,0 0,-10z M80,310l10,0 0,10 -10,0 0,-10z M90,310l10,0 0,10 -10,0 0,-10z M100,310l10,0 0,10 -10,0 0,-10z M180,310l10,0 0,10 -10,0 0,-10z M220,310l10,0 0,10 -10,0 0,-10z M230,310l10,0 0,10 -10,0 0,-10z M240,310l10,0 0,10 -10,0 0,-10z M260,310l10,0 0,10 -10,0 0,-10z M270,310l10,0 0,10 -10,0 0,-10z M290,310l10,0 0,10 -10,0 0,-10z M300,310l10,0 0,10 -10,0 0,-10z M320,310l10,0 0,10 -10,0 0,-10z M370,310l10,0 0,10 -10,0 0,-10z M380,310l10,0 0,10 -10,0 0,-10z M390,310l10,0 0,10 -10,0 0,-10z M400,310l10,0 0,10 -10,0 0,-10z M420,310l10,0 0,10 -10,0 0,-10z M430,310l10,0 0,10 -10,0 0,-10z M450,310l10,0 0,10 -10,0 0,-10z M10,320l10,0 0,10 -10,0 0,-10z M40,320l10,0 0,10 -10,0 0,-10z M50,320l10,0 0,10 -10,0 0,-10z M60,320l10,0 0,10 -10,0 0,-10z M80,320l10,0 0,10 -10,0 0,-10z M110,320l10,0 0,10 -10,0 0,-10z M120,320l10,0 0,10 -10,0 0,-10z M130,320l10,0 0,10 -10,0 0,-10z M150,320l10,0 0,10 -10,0 0,-10z M170,320l10,0 0,10 -10,0 0,-10z M220,320l10,0 0,10 -10,0 0,-10z M240,320l10,0 0,10 -10,0 0,-10z M260,320l10,0 0,10 -10,0 0,-10z M280,320l10,0 0,10 -10,0 0,-10z M370,320l10,0 0,10 -10,0 0,-10z M390,320l10,0 0,10 -10,0 0,-10z M420,320l10,0 0,10 -10,0 0,-10z M440,320l10,0 0,10 -10,0 0,-10z M450,320l10,0 0,10 -10,0 0,-10z M40,330l10,0 0,10 -10,0 0,-10z M50,330l10,0 0,10 -10,0 0,-10z M60,330l10,0 0,10 -10,0 0,-10z M70,330l10,0 0,10 -10,0 0,-10z M80,330l10,0 0,10 -10,0 0,-10z M100,330l10,0 0,10 -10,0 0,-10z M110,330l10,0 0,10 -10,0 0,-10z M130,330l10,0 0,10 -10,0 0,-10z M150,330l10,0 0,10 -10,0 0,-10z M170,330l10,0 0,10 -10,0 0,-10z M200,330l10,0 0,10 -10,0 0,-10z M220,330l10,0 0,10 -10,0 0,-10z M250,330l10,0 0,10 -10,0 0,-10z M260,330l10,0 0,10 -10,0 0,-10z M280,330l10,0 0,10 -10,0 0,-10z M290,330l10,0 0,10 -10,0 0,-10z M300,330l10,0 0,10 -10,0 0,-10z M310,330l10,0 0,10 -10,0 0,-10z M320,330l10,0 0,10 -10,0 0,-10z M350,330l10,0 0,10 -10,0 0,-10z M360,330l10,0 0,10 -10,0 0,-10z M380,330l10,0 0,10 -10,0 0,-10z M390,330l10,0 0,10 -10,0 0,-10z M420,330l10,0 0,10 -10,0 0,-10z M20,340l10,0 0,10 -10,0 0,-10z M30,340l10,0 0,10 -10,0 0,-10z M50,340l10,0 0,10 -10,0 0,-10z M60,340l10,0 0,10 -10,0 0,-10z M80,340l10,0 0,10 -10,0 0,-10z M100,340l10,0 0,10 -10,0 0,-10z M110,340l10,0 0,10 -10,0 0,-10z M140,340l10,0 0,10 -10,0 0,-10z M160,340l10,0 0,10 -10,0 0,-10z M170,340l10,0 0,10 -10,0 0,-10z M180,340l10,0 0,10 -10,0 0,-10z M200,340l10,0 0,10 -10,0 0,-10z M230,340l10,0 0,10 -10,0 0,-10z M270,340l10,0 0,10 -10,0 0,-10z M420,340l10,0 0,10 -10,0 0,-10z M430,340l10,0 0,10 -10,0 0,-10z M450,340l10,0 0,10 -10,0 0,-10z M50,350l10,0 0,10 -10,0 0,-10z M70,350l10,0 0,10 -10,0 0,-10z M80,350l10,0 0,10 -10,0 0,-10z M90,350l10,0 0,10 -10,0 0,-10z M100,350l10,0 0,10 -10,0 0,-10z M110,350l10,0 0,10 -10,0 0,-10z M120,350l10,0 0,10 -10,0 0,-10z M160,350l10,0 0,10 -10,0 0,-10z M170,350l10,0 0,10 -10,0 0,-10z M180,350l10,0 0,10 -10,0 0,-10z M190,350l10,0 0,10 -10,0 0,-10z M200,350l10,0 0,10 -10,0 0,-10z M220,350l10,0 0,10 -10,0 0,-10z M230,350l10,0 0,10 -10,0 0,-10z M240,350l10,0 0,10 -10,0 0,-10z M270,350l10,0 0,10 -10,0 0,-10z M330,350l10,0 0,10 -10,0 0,-10z M350,350l10,0 0,10 -10,0 0,-10z M390,350l10,0 0,10 -10,0 0,-10z M400,350l10,0 0,10 -10,0 0,-10z M410,350l10,0 0,10 -10,0 0,-10z M420,350l10,0 0,10 -10,0 0,-10z M430,350l10,0 0,10 -10,0 0,-10z M450,350l10,0 0,10 -10,0 0,-10z M20,360l10,0 0,10 -10,0 0,-10z M30,360l10,0 0,10 -10,0 0,-10z M40,360l10,0 0,10 -10,0 0,-10z M50,360l10,0 0,10 -10,0 0,-10z M120,360l10,0 0,10 -10,0 0,-10z M160,360l10,0 0,10 -10,0 0,-10z M170,360l10,0 0,10 -10,0 0,-10z M220,360l10,0 0,10 -10,0 0,-10z M230,360l10,0 0,10 -10,0 0,-10z M240,360l10,0 0,10 -10,0 0,-10z M250,360l10,0 0,10 -10,0 0,-10z M270,360l10,0 0,10 -10,0 0,-10z M290,360l10,0 0,10 -10,0 0,-10z M300,360l10,0 0,10 -10,0 0,-10z M320,360l10,0 0,10 -10,0 0,-10z M360,360l10,0 0,10 -10,0 0,-10z M370,360l10,0 0,10 -10,0 0,-10z M380,360l10,0 0,10 -10,0 0,-10z M410,360l10,0 0,10 -10,0 0,-10z M420,360l10,0 0,10 -10,0 0,-10z M10,370l10,0 0,10 -10,0 0,-10z M40,370l10,0 0,10 -10,0 0,-10z M50,370l10,0 0,10 -10,0 0,-10z M70,370l10,0 0,10 -10,0 0,-10z M80,370l10,0 0,10 -10,0 0,-10z M100,370l10,0 0,10 -10,0 0,-10z M130,370l10,0 0,10 -10,0 0,-10z M140,370l10,0 0,10 -10,0 0,-10z M150,370l10,0 0,10 -10,0 0,-10z M170,370l10,0 0,10 -10,0 0,-10z M180,370l10,0 0,10 -10,0 0,-10z M190,370l10,0 0,10 -10,0 0,-10z M200,370l10,0 0,10 -10,0 0,-10z M210,370l10,0 0,10 -10,0 0,-10z M220,370l10,0 0,10 -10,0 0,-10z M230,370l10,0 0,10 -10,0 0,-10z M240,370l10,0 0,10 -10,0 0,-10z M250,370l10,0 0,10 -10,0 0,-10z M280,370l10,0 0,10 -10,0 0,-10z M290,370l10,0 0,10 -10,0 0,-10z M300,370l10,0 0,10 -10,0 0,-10z M310,370l10,0 0,10 -10,0 0,-10z M320,370l10,0 0,10 -10,0 0,-10z M330,370l10,0 0,10 -10,0 0,-10z M340,370l10,0 0,10 -10,0 0,-10z M350,370l10,0 0,10 -10,0 0,-10z M370,370l10,0 0,10 -10,0 0,-10z M380,370l10,0 0,10 -10,0 0,-10z M390,370l10,0 0,10 -10,0 0,-10z M400,370l10,0 0,10 -10,0 0,-10z M410,370l10,0 0,10 -10,0 0,-10z M440,370l10,0 0,10 -10,0 0,-10z M90,380l10,0 0,10 -10,0 0,-10z M100,380l10,0 0,10 -10,0 0,-10z M120,380l10,0 0,10 -10,0 0,-10z M130,380l10,0 0,10 -10,0 0,-10z M170,380l10,0 0,10 -10,0 0,-10z M190,380l10,0 0,10 -10,0 0,-10z M200,380l10,0 0,10 -10,0 0,-10z M210,380l10,0 0,10 -10,0 0,-10z M250,380l10,0 0,10 -10,0 0,-10z M260,380l10,0 0,10 -10,0 0,-10z M270,380l10,0 0,10 -10,0 0,-10z M330,380l10,0 0,10 -10,0 0,-10z M350,380l10,0 0,10 -10,0 0,-10z M360,380l10,0 0,10 -10,0 0,-10z M370,380l10,0 0,10 -10,0 0,-10z M410,380l10,0 0,10 -10,0 0,-10z M420,380l10,0 0,10 -10,0 0,-10z M430,380l10,0 0,10 -10,0 0,-10z M450,380l10,0 0,10 -10,0 0,-10z M10,390l10,0 0,10 -10,0 0,-10z M20,390l10,0 0,10 -10,0 0,-10z M30,390l10,0 0,10 -10,0 0,-10z M40,390l10,0 0,10 -10,0 0,-10z M50,390l10,0 0,10 -10,0 0,-10z M60,390l10,0 0,10 -10,0 0,-10z M70,390l10,0 0,10 -10,0 0,-10z M90,390l10,0 0,10 -10,0 0,-10z M110,390l10,0 0,10 -10,0 0,-10z M120,390l10,0 0,10 -10,0 0,-10z M170,390l10,0 0,10 -10,0 0,-10z M190,390l10,0 0,10 -10,0 0,-10z M210,390l10,0 0,10 -10,0 0,-10z M230,390l10,0 0,10 -10,0 0,-10z M250,390l10,0 0,10 -10,0 0,-10z M270,390l10,0 0,10 -10,0 0,-10z M290,390l10,0 0,10 -10,0 0,-10z M320,390l10,0 0,10 -10,0 0,-10z M330,390l10,0 0,10 -10,0 0,-10z M360,390l10,0 0,10 -10,0 0,-10z M370,390l10,0 0,10 -10,0 0,-10z M390,390l10,0 0,10 -10,0 0,-10z M410,390l10,0 0,10 -10,0 0,-10z M420,390l10,0 0,10 -10,0 0,-10z M430,390l10,0 0,10 -10,0 0,-10z M440,390l10,0 0,10 -10,0 0,-10z M10,400l10,0 0,10 -10,0 0,-10z M70,400l10,0 0,10 -10,0 0,-10z M90,400l10,0 0,10 -10,0 0,-10z M100,400l10,0 0,10 -10,0 0,-10z M120,400l10,0 0,10 -10,0 0,-10z M130,400l10,0 0,10 -10,0 0,-10z M160,400l10,0 0,10 -10,0 0,-10z M190,400l10,0 0,10 -10,0 0,-10z M210,400l10,0 0,10 -10,0 0,-10z M250,400l10,0 0,10 -10,0 0,-10z M290,400l10,0 0,10 -10,0 0,-10z M300,400l10,0 0,10 -10,0 0,-10z M320,400l10,0 0,10 -10,0 0,-10z M330,400l10,0 0,10 -10,0 0,-10z M350,400l10,0 0,10 -10,0 0,-10z M360,400l10,0 0,10 -10,0 0,-10z M370,400l10,0 0,10 -10,0 0,-10z M410,400l10,0 0,10 -10,0 0,-10z M440,400l10,0 0,10 -10,0 0,-10z M450,400l10,0 0,10 -10,0 0,-10z M10,410l10,0 0,10 -10,0 0,-10z M30,410l10,0 0,10 -10,0 0,-10z M40,410l10,0 0,10 -10,0 0,-10z M50,410l10,0 0,10 -10,0 0,-10z M70,410l10,0 0,10 -10,0 0,-10z M100,410l10,0 0,10 -10,0 0,-10z M110,410l10,0 0,10 -10,0 0,-10z M120,410l10,0 0,10 -10,0 0,-10z M130,410l10,0 0,10 -10,0 0,-10z M160,410l10,0 0,10 -10,0 0,-10z M170,410l10,0 0,10 -10,0 0,-10z M180,410l10,0 0,10 -10,0 0,-10z M190,410l10,0 0,10 -10,0 0,-10z M200,410l10,0 0,10 -10,0 0,-10z M210,410l10,0 0,10 -10,0 0,-10z M220,410l10,0 0,10 -10,0 0,-10z M230,410l10,0 0,10 -10,0 0,-10z M240,410l10,0 0,10 -10,0 0,-10z M250,410l10,0 0,10 -10,0 0,-10z M270,410l10,0 0,10 -10,0 0,-10z M280,410l10,0 0,10 -10,0 0,-10z M330,410l10,0 0,10 -10,0 0,-10z M340,410l10,0 0,10 -10,0 0,-10z M350,410l10,0 0,10 -10,0 0,-10z M370,410l10,0 0,10 -10,0 0,-10z M380,410l10,0 0,10 -10,0 0,-10z M390,410l10,0 0,10 -10,0 0,-10z M400,410l10,0 0,10 -10,0 0,-10z M410,410l10,0 0,10 -10,0 0,-10z M430,410l10,0 0,10 -10,0 0,-10z M10,420l10,0 0,10 -10,0 0,-10z M30,420l10,0 0,10 -10,0 0,-10z M40,420l10,0 0,10 -10,0 0,-10z M50,420l10,0 0,10 -10,0 0,-10z M70,420l10,0 0,10 -10,0 0,-10z M90,420l10,0 0,10 -10,0 0,-10z M110,420l10,0 0,10 -10,0 0,-10z M120,420l10,0 0,10 -10,0 0,-10z M140,420l10,0 0,10 -10,0 0,-10z M150,420l10,0 0,10 -10,0 0,-10z M170,420l10,0 0,10 -10,0 0,-10z M200,420l10,0 0,10 -10,0 0,-10z M210,420l10,0 0,10 -10,0 0,-10z M230,420l10,0 0,10 -10,0 0,-10z M250,420l10,0 0,10 -10,0 0,-10z M260,420l10,0 0,10 -10,0 0,-10z M270,420l10,0 0,10 -10,0 0,-10z M300,420l10,0 0,10 -10,0 0,-10z M340,420l10,0 0,10 -10,0 0,-10z M370,420l10,0 0,10 -10,0 0,-10z M380,420l10,0 0,10 -10,0 0,-10z M390,420l10,0 0,10 -10,0 0,-10z M410,420l10,0 0,10 -10,0 0,-10z M430,420l10,0 0,10 -10,0 0,-10z M450,420l10,0 0,10 -10,0 0,-10z M10,430l10,0 0,10 -10,0 0,-10z M30,430l10,0 0,10 -10,0 0,-10z M40,430l10,0 0,10 -10,0 0,-10z M50,430l10,0 0,10 -10,0 0,-10z M70,430l10,0 0,10 -10,0 0,-10z M110,430l10,0 0,10 -10,0 0,-10z M140,430l10,0 0,10 -10,0 0,-10z M150,430l10,0 0,10 -10,0 0,-10z M170,430l10,0 0,10 -10,0 0,-10z M210,430l10,0 0,10 -10,0 0,-10z M230,430l10,0 0,10 -10,0 0,-10z M260,430l10,0 0,10 -10,0 0,-10z M270,430l10,0 0,10 -10,0 0,-10z M290,430l10,0 0,10 -10,0 0,-10z M320,430l10,0 0,10 -10,0 0,-10z M360,430l10,0 0,10 -10,0 0,-10z M370,430l10,0 0,10 -10,0 0,-10z M390,430l10,0 0,10 -10,0 0,-10z M400,430l10,0 0,10 -10,0 0,-10z M410,430l10,0 0,10 -10,0 0,-10z M420,430l10,0 0,10 -10,0 0,-10z M440,430l10,0 0,10 -10,0 0,-10z M450,430l10,0 0,10 -10,0 0,-10z M10,440l10,0 0,10 -10,0 0,-10z M70,440l10,0 0,10 -10,0 0,-10z M90,440l10,0 0,10 -10,0 0,-10z M120,440l10,0 0,10 -10,0 0,-10z M130,440l10,0 0,10 -10,0 0,-10z M140,440l10,0 0,10 -10,0 0,-10z M150,440l10,0 0,10 -10,0 0,-10z M180,440l10,0 0,10 -10,0 0,-10z M190,440l10,0 0,10 -10,0 0,-10z M200,440l10,0 0,10 -10,0 0,-10z M210,440l10,0 0,10 -10,0 0,-10z M220,440l10,0 0,10 -10,0 0,-10z M230,440l10,0 0,10 -10,0 0,-10z M240,440l10,0 0,10 -10,0 0,-10z M250,440l10,0 0,10 -10,0 0,-10z M270,440l10,0 0,10 -10,0 0,-10z M330,440l10,0 0,10 -10,0 0,-10z M340,440l10,0 0,10 -10,0 0,-10z M350,440l10,0 0,10 -10,0 0,-10z M360,440l10,0 0,10 -10,0 0,-10z M380,440l10,0 0,10 -10,0 0,-10z M400,440l10,0 0,10 -10,0 0,-10z M410,440l10,0 0,10 -10,0 0,-10z M10,450l10,0 0,10 -10,0 0,-10z M20,450l10,0 0,10 -10,0 0,-10z M30,450l10,0 0,10 -10,0 0,-10z M40,450l10,0 0,10 -10,0 0,-10z M50,450l10,0 0,10 -10,0 0,-10z M60,450l10,0 0,10 -10,0 0,-10z M70,450l10,0 0,10 -10,0 0,-10z M100,450l10,0 0,10 -10,0 0,-10z M110,450l10,0 0,10 -10,0 0,-10z M140,450l10,0 0,10 -10,0 0,-10z M150,450l10,0 0,10 -10,0 0,-10z M170,450l10,0 0,10 -10,0 0,-10z M180,450l10,0 0,10 -10,0 0,-10z M240,450l10,0 0,10 -10,0 0,-10z M250,450l10,0 0,10 -10,0 0,-10z M280,450l10,0 0,10 -10,0 0,-10z M290,450l10,0 0,10 -10,0 0,-10z M320,450l10,0 0,10 -10,0 0,-10z M340,450l10,0 0,10 -10,0 0,-10z M380,450l10,0 0,10 -10,0 0,-10z M390,450l10,0 0,10 -10,0 0,-10z M400,450l10,0 0,10 -10,0 0,-10z M410,450l10,0 0,10 -10,0 0,-10z M420,450l10,0 0,10 -10,0 0,-10z M440,450l10,0 0,10 -10,0 0,-10z " stroke="transparent" fill="rgb(0, 0, 0)"/></svg>