<svg xmlns="http://www.w3.org/2000/svg" viewBox="0 0 152 188.35"><defs><style>.a{fill:#dc4128;}.b,.c{fill:#fff;}.c{fill-rule:evenodd;}</style></defs><title>br_pobeda_75h</title><rect class="a" width="152" height="188.35"/><path class="b" d="M103.68,44.33a31.34,31.34,0,0,0,3.95-7.25l1.64,1.66,1.32-6.17-5.93,1.51,1.66,1.68h0a32.47,32.47,0,0,1-9.54,3.67A64.32,64.32,0,0,1,85,40.8c-.19.61-1.65,5.55-2.92,9.87h0c-.64,2.17-1.23,4.19-1.6,5.41C89.89,56.1,99.57,50.08,103.68,44.33Z"/><path class="b" d="M65.38,75.69a62.18,62.18,0,0,1,11.56-23l1.54,1.84,1.82-6-6,1,1.52,1.82C67.6,55.84,48.52,67.18,42.57,95.05c-1,4.65-1.87,12.06-1.87,12.06s14.91.18,23-.71c0-1.57,0-3.14-.08-4.72C63.48,93,63.31,84.08,65.38,75.69Z"/><path class="c" d="M60.27,123.5A7.85,7.85,0,0,1,58,129.1a8.75,8.75,0,0,1-11.67,0,7.92,7.92,0,0,1,0-11.22,8.78,8.78,0,0,1,11.67,0A7.84,7.84,0,0,1,60.27,123.5Zm-11.15-2.88a4.15,4.15,0,0,0-1.18,2.95,3.85,3.85,0,0,0,1.18,2.79,4.2,4.2,0,0,0,3,1.19,4.07,4.07,0,0,0,3-1.17,4.19,4.19,0,0,0,1.19-2.88,4.11,4.11,0,0,0-1.19-2.88,4.45,4.45,0,0,0-3-1.19A4.23,4.23,0,0,0,49.12,120.62Z"/><path class="b" d="M42,131V116H29v15h3.84V119.32h5.3V131Z"/><path class="c" d="M49.7,137.68a2.86,2.86,0,0,0-3.11,3,2.56,2.56,0,0,0,2.58,2.72,2.27,2.27,0,0,0,.92-.2l-1.94,2.52,1.13.88,2.5-3.41a4.31,4.31,0,0,0,1-2.6A2.84,2.84,0,0,0,49.7,137.68Zm0,4.38a1.54,1.54,0,1,1,1.51-1.54A1.49,1.49,0,0,1,49.7,142.06Z"/><path class="b" d="M40.46,139.27h1.18v6.95h1.6v-8.35H40.46Z"/><path class="c" d="M58.74,137.72h1.44v5.72h1v1.3h-1v1.48h-1.5v-1.48h-4V144Zm-2.17,5.72h2.11v-3.31Z"/><path class="b" d="M65.94,140.54a2.84,2.84,0,0,0-.54.05l.29-1.32h2.73v-1.4H64.63l-1,4.38h.1a2.49,2.49,0,0,1,1.57-.53,1.67,1.67,0,0,1,1.86,1.67A1.55,1.55,0,0,1,65.54,145a2.68,2.68,0,0,1-2.08-1.06l-.53,1.4a3.59,3.59,0,0,0,2.65,1.06,2.9,2.9,0,0,0,3.21-3A2.67,2.67,0,0,0,65.94,140.54Z"/><path class="b" d="M71.07,141.94h6.52v1.3H71.07Z"/><path class="b" d="M84.06,143.25h0a4.39,4.39,0,0,0,1.49-2.91,2.68,2.68,0,0,0-2.89-2.66,2.77,2.77,0,0,0-2.88,2.79h1.65a1.33,1.33,0,0,1,1.31-1.39A1.2,1.2,0,0,1,84,140.35a2.67,2.67,0,0,1-.48,1.34c-.23.36-.89,1.14-1.22,1.53l-.18.21-2.41,2.79h6v-1.4h-3Z"/><path class="c" d="M88,142c0-2.87,1.54-4.36,3.18-4.36s3.17,1.49,3.17,4.37-1.54,4.36-3.17,4.36S88,144.92,88,142Zm1.6,0c0,2.17.87,3,1.58,3s1.57-.78,1.57-3-.89-3-1.57-3S89.57,139.87,89.57,142Z"/><path class="b" d="M100.49,143.25h0a4.39,4.39,0,0,0,1.49-2.91,2.68,2.68,0,0,0-2.89-2.66,2.76,2.76,0,0,0-2.88,2.79h1.65a1.33,1.33,0,0,1,1.3-1.39,1.21,1.21,0,0,1,1.22,1.27,2.67,2.67,0,0,1-.48,1.34c-.23.36-.9,1.14-1.23,1.53l-.17.21-2.41,2.79h6v-1.4h-3Z"/><path class="c" d="M104.39,142c0-2.87,1.54-4.36,3.18-4.36s3.17,1.49,3.17,4.37-1.53,4.36-3.17,4.36S104.39,144.92,104.39,142Zm1.6,0c0,2.17.88,3,1.58,3s1.57-.78,1.57-3-.89-3-1.57-3S106,139.87,106,142Z"/><path class="c" d="M72.17,129.64a4.8,4.8,0,0,0,.09-6.29c-1.11-1.17-2.8-1.47-4.68-1.47H66.07V119.3h5.76V116H62.21v15h5.23C69.22,131,71,130.81,72.17,129.64Zm-6.1-4.79H67.4a2.51,2.51,0,0,1,1.64.41,1.49,1.49,0,0,1,.44,1.12,1.58,1.58,0,0,1-.38,1.06,2.39,2.39,0,0,1-1.71.52H66.07Z"/><path class="b" d="M83.71,116v3.31H79.14v2.49h4.33v3.31H79.14v2.58h4.57V131h-8.4V116Z"/><path class="c" d="M100.77,134.36V128H99V116H87.81v6.16c0,2.14-.17,3.76-1.28,4.93a2.8,2.8,0,0,1-1.69.9v6.38H88.3V131h9v3.37ZM95.13,128H89.9a5.15,5.15,0,0,0,1.28-2.3,12.68,12.68,0,0,0,.36-3.15V119h3.59Z"/><path class="c" d="M101.74,131l5.67-15h4.2l5.56,15h-4.1l-.91-2.52h-5.37l-1,2.52Zm7.73-10.34-1.61,4.85h3.28Z"/><path class="b" d="M122.36,127.46a2.3,2.3,0,0,0-1.64-.72,2.26,2.26,0,0,0-1.62.69,2.29,2.29,0,0,0,0,3.28,2.22,2.22,0,0,0,3.24,0,2.18,2.18,0,0,0,.66-1.64A2.15,2.15,0,0,0,122.36,127.46Z"/><path class="b" d="M118.86,116h3.68v9.9h-3.68Z"/><path class="b" d="M79.86,62.36c8.56-7.76,26.94-8.24,30.16,6.41,6,27.42-36.66,36.77-38,36.7v-19c8.29-1.25,23.54-4.64,24.72-14.15S87.27,61.38,80.66,64l1.06,2.12-6.11-.45,3.18-5.44Z"/><path class="b" d="M75.1,46.9,76,44.63S62.09,43.7,45,57.77V36.29c5.78-1.21,11.71-1.54,16.56-.32a44.93,44.93,0,0,1,15.07,7l.85-2.28,3.7,5.2Z"/></svg>